# This file uses centimeters as units for non-parametric coordinates.

mtllib Sled_LOW.mtl
g default
v 1.364543 0.246072 4.239588
v 1.867766 2.342153 4.587078
v 1.203393 0.226006 -0.742617
v 1.714842 1.281865 -0.599723
v 2.192223 2.132847 3.281203
v 1.617012 0.245600 2.995118
v 2.013079 1.554318 0.651349
v 1.434171 0.229643 0.516304
v 1.602386 0.235845 1.746222
v 2.209148 1.864877 1.943164
v 1.763587 0.859634 -0.656865
v 1.904494 1.399477 4.436700
v 2.189186 1.318879 3.141950
v 2.206208 1.188910 1.835078
v 2.014851 1.001593 0.566558
v 1.590376 0.436193 -0.714172
v 1.788458 0.770833 4.343935
v 2.060985 0.736052 3.063538
v 2.068372 0.653798 1.776385
v 1.879266 0.519171 0.523971
v 1.236779 0.515197 4.204257
v 1.589401 2.376120 4.505470
v 1.142777 0.517071 -0.703226
v 1.501835 1.296348 -0.597763
v 1.905753 2.160833 3.235781
v 1.490356 0.567850 2.978349
v 1.717027 1.572299 0.696404
v 1.342767 0.515197 0.526534
v 1.492345 0.567850 1.752441
v 1.908295 1.883465 1.966093
v 1.422215 0.908087 -0.650308
v 1.569457 1.445658 4.354863
v 1.854787 1.364342 3.107065
v 1.857261 1.230372 1.859267
v 1.671109 1.043748 0.611469
v 1.344463 0.616553 -0.689763
v 1.470913 0.883525 4.267830
v 1.753385 0.869194 3.030977
v 1.755725 0.802209 1.794124
v 1.579749 0.682570 0.557272
v 1.928804 1.036558 0.569402
v 2.119655 1.228327 1.838705
v 2.105849 1.362610 3.146622
v 1.819147 1.447526 4.441745
v 1.677325 0.898873 -0.648697
v 1.808182 0.591716 0.526233
v 1.996804 0.729142 1.779503
v 1.991830 0.813930 3.067703
v 1.716336 0.851145 4.348862
v 1.530541 0.515984 -0.703373
v 0.000000 0.226006 -0.742617
v -0.000022 0.567850 1.752441
v 0.000000 0.517071 -0.703226
v 0.000000 0.515197 0.526534
v -1.364565 0.246072 4.239588
v -1.867788 2.342153 4.587078
v -1.203415 0.226007 -0.742617
v -1.724204 1.281231 -0.599808
v -2.192245 2.132847 3.281203
v -1.617034 0.245600 2.995118
v -2.013101 1.554318 0.651349
v -1.434193 0.229643 0.516304
v -1.602408 0.235845 1.746222
v -2.209171 1.864877 1.943164
v -1.763609 0.859634 -0.656865
v -1.904516 1.399477 4.436700
v -2.189207 1.318879 3.141950
v -2.206230 1.188910 1.835078
v -2.014873 1.001593 0.566558
v -1.590398 0.436193 -0.714172
v -1.788480 0.770833 4.343935
v -2.061007 0.736052 3.063538
v -2.068394 0.653798 1.776385
v -1.879288 0.519171 0.523971
v -1.236801 0.515197 4.204257
v -1.589423 2.376120 4.505470
v -1.142799 0.517071 -0.703226
v -1.492517 1.296983 -0.597677
v -1.905775 2.160833 3.235781
v -1.490378 0.567850 2.978349
v -1.717049 1.572299 0.696404
v -1.342789 0.515197 0.526534
v -1.492367 0.567850 1.752441
v -1.908317 1.883465 1.966093
v -1.422238 0.908087 -0.650308
v -1.569479 1.445658 4.354863
v -1.854809 1.364342 3.107065
v -1.857283 1.230372 1.859267
v -1.671131 1.043748 0.611469
v -1.344485 0.616553 -0.689763
v -1.470935 0.883525 4.267830
v -1.753408 0.869194 3.030977
v -1.755747 0.802209 1.794124
v -1.579771 0.682570 0.557272
v -1.928826 1.036558 0.569402
v -2.119676 1.228327 1.838705
v -2.105871 1.362610 3.146622
v -1.819169 1.447526 4.441745
v -1.677347 0.898873 -0.648697
v -1.808205 0.591716 0.526233
v -1.996826 0.729142 1.779503
v -1.991850 0.813930 3.067703
v -1.716358 0.851145 4.348862
v -1.530563 0.515984 -0.703373
v -0.000000 0.235845 1.746222
v 0.000000 0.246072 4.239588
v -0.000000 0.245600 2.995118
v 0.000000 0.229643 0.516304
v 0.000000 0.515197 4.265405
v -0.000000 0.567850 2.978349
v -1.949543 2.017454 2.556350
v -1.897407 1.292652 2.439348
v -1.793677 0.833349 2.369116
v -1.524606 0.567850 2.322345
v -0.000012 0.567850 2.322345
v 1.524584 0.567850 2.322345
v 1.793655 0.833349 2.369117
v 1.897385 1.292652 2.439348
v 1.949521 2.017454 2.556350
v 2.250175 1.994497 2.565196
v 2.160186 1.290753 2.446734
v 2.247123 1.249330 2.442621
v 2.038833 0.768559 2.378366
v 2.110838 0.692037 2.374761
v 1.645033 0.240380 2.326813
v 0.000000 0.240380 2.326813
v -1.645055 0.240380 2.326813
v -2.110860 0.692037 2.374761
v -2.038855 0.768559 2.378366
v -2.247145 1.249331 2.442621
v -2.160208 1.290753 2.446734
v -2.250197 1.994497 2.565196
v -1.818129 1.719622 1.279865
v -1.769508 1.129507 1.184870
v -1.672770 0.737548 1.125643
v -1.421837 0.539393 1.089876
v -0.000010 0.539393 1.089876
v 1.421815 0.539393 1.089876
v 1.672748 0.737548 1.125643
v 1.769486 1.129507 1.184870
v 1.818107 1.719622 1.279865
v 2.118445 1.701362 1.244977
v 2.031153 1.124682 1.152686
v 2.118031 1.087671 1.149482
v 1.908658 0.654867 1.102149
v 1.980459 0.581036 1.099494
v 1.522544 0.232493 1.081489
v 0.000000 0.232493 1.081489
v -1.522566 0.232493 1.081489
v -1.980481 0.581036 1.099494
v -1.908680 0.654867 1.102149
v -2.118053 1.087671 1.149482
v -2.031175 1.124682 1.152686
v -2.118467 1.701362 1.244977
v -1.605155 1.435097 0.051506
v -1.869131 1.418227 0.027842
v -1.803503 0.967943 -0.037631
v -1.889657 0.930848 -0.043128
v -1.669844 0.553975 -0.086534
v -1.735321 0.477819 -0.093050
v -1.319186 0.227831 -0.111072
v 0.000000 0.227831 -0.111072
v 1.319164 0.227831 -0.111072
v 1.735299 0.477819 -0.093050
v 1.669821 0.553975 -0.086534
v 1.889635 0.930848 -0.043128
v 1.803481 0.967943 -0.037631
v 1.864454 1.418543 0.027884
v 1.609787 1.434780 0.051463
v 1.547074 0.976142 -0.017330
v 1.462496 0.649671 -0.064181
v 1.243103 0.516131 -0.086310
v 0.000000 0.516131 -0.086310
v -1.243125 0.516131 -0.086310
v -1.462518 0.649671 -0.064181
v -1.547097 0.976142 -0.017330
v -1.786716 2.262716 3.836651
v -1.749612 1.402824 3.697576
v -1.647932 0.875976 3.616308
v -1.394346 0.542932 3.558500
v 0.000000 0.542932 3.587438
v 1.394324 0.542932 3.558500
v 1.647910 0.875976 3.616308
v 1.749590 1.402824 3.697576
v 1.786695 2.262716 3.836651
v 2.073936 2.231899 3.899198
v 2.004040 1.402796 3.759528
v 2.089669 1.357021 3.754680
v 1.893492 0.831542 3.674001
v 1.965163 0.752512 3.669476
v 1.523542 0.245823 3.584054
v 0.000000 0.245823 3.584054
v -1.523564 0.245823 3.584053
v -1.965185 0.752512 3.669476
v -1.893513 0.831542 3.674001
v -2.089691 1.357021 3.754680
v -2.004063 1.402796 3.759529
v -2.073958 2.231899 3.899198
v -1.391813 0.272615 4.150290
v -1.509469 2.768911 4.512945
v -1.352677 0.252282 4.397769
v -1.471105 2.689122 4.752000
v 1.391814 0.272615 4.150289
v 1.509469 2.768911 4.512943
v 1.352677 0.252282 4.397768
v 1.471105 2.689122 4.751998
v 0.000000 0.110417 4.430604
v 0.000000 2.962342 4.848073
v 0.000000 0.141242 4.180697
v 0.000000 3.021368 4.601011
v -1.930247 1.513413 4.319433
v -1.877710 1.446342 4.565675
v 1.877710 1.446342 4.565673
v 1.930247 1.513413 4.319431
v 0.000000 1.507481 4.376423
v 0.000000 1.445132 4.628694
v -1.876213 2.288958 4.431582
v -1.825122 2.209013 4.675442
v 1.825122 2.209013 4.675440
v 1.876213 2.288957 4.431581
v -0.000000 2.398964 4.497433
v 0.000000 2.337561 4.749769
v -1.742181 0.694445 4.463903
v 1.742181 0.694445 4.463902
v 1.791263 0.734887 4.214499
v -0.000000 0.662337 4.266431
v 0.000000 0.605063 4.519183
v -1.791263 0.734888 4.214502
v -0.733107 0.133431 4.413328
v -0.776598 2.960978 4.574253
v -0.770503 2.900374 4.820798
v -0.752426 0.160311 4.162644
v -1.001104 1.439623 4.607739
v -1.008795 1.504887 4.355707
v -0.967924 2.304257 4.726564
v -0.975404 2.368640 4.474692
v -0.938003 0.672839 4.246633
v -0.928846 0.617747 4.499718
v 0.770503 2.900374 4.820798
v 0.752426 0.160311 4.162644
v 0.733107 0.133431 4.413328
v 0.776598 2.960978 4.574253
v 1.008795 1.504887 4.355707
v 1.001104 1.439623 4.607739
v 0.975404 2.368640 4.474692
v 0.967924 2.304257 4.726564
v 0.928846 0.617747 4.499717
v 0.938003 0.672839 4.246633
v 1.532422 1.509094 4.334743
v 1.486509 2.327476 4.450233
v 1.936540 1.917700 4.376726
v 1.892149 1.107404 4.264977
v 1.213212 2.877978 4.541044
v 1.714448 2.595882 4.478726
v 0.378636 2.949359 4.841421
v 1.556385 2.801001 4.519667
v 2.004394 2.273685 4.432515
v 0.722014 0.092310 4.158751
v 1.418617 0.228490 4.145134
v -0.743489 3.039073 4.595992
v 0.000000 3.103907 4.623399
v 0.743489 3.039073 4.595992
v 0.000000 0.071913 4.176498
v -0.722014 0.092310 4.158751
v 2.061086 1.512869 4.321560
v 1.912321 0.744036 4.217420
v -1.418617 0.228491 4.145135
v 1.516327 2.721524 4.746362
v 1.949627 2.196230 4.660109
v 2.004769 1.449721 4.551743
v 1.860070 0.708378 4.450891
v 1.379855 0.212882 4.380988
v 0.702286 0.071341 4.393613
v 0.000000 0.047098 4.410573
v -0.702286 0.071341 4.393613
v -1.379855 0.212882 4.380989
v -1.860070 0.708378 4.450891
v -2.004769 1.449721 4.551744
v -1.949627 2.196231 4.660110
v -1.516327 2.721524 4.746362
v -0.737984 2.982751 4.826527
v 0.000000 3.048862 4.854424
v 0.737984 2.982751 4.826527
v 1.456589 2.254407 4.700734
v 1.667683 2.512650 4.721719
v 1.188831 2.805356 4.785541
v 0.868559 2.658367 4.782636
v -1.486509 2.327476 4.450234
v -1.714448 2.595882 4.478727
v -1.213213 2.877978 4.541045
v -0.875406 2.721387 4.530765
v 0.483022 2.391848 4.491181
v 0.000000 2.768566 4.555622
v 0.378636 3.007344 4.594288
v 0.875406 2.721387 4.530765
v -0.483022 2.330409 4.743515
v 0.000000 2.707793 4.808000
v -0.378636 2.949359 4.841421
v -0.868559 2.658367 4.782636
v -0.464423 0.605050 4.513415
v 0.000000 0.999026 4.572195
v -0.500552 1.442439 4.622744
v -0.981345 1.003717 4.551936
v 0.465770 0.662374 4.260644
v 0.000000 1.061059 4.319902
v 0.500552 1.505768 4.370540
v 0.988884 1.066247 4.299617
v -1.423162 0.704083 4.227746
v -1.892149 1.107404 4.264978
v -1.532422 1.509094 4.334744
v -0.988884 1.066247 4.299617
v 1.393269 0.655890 4.481696
v 1.840649 1.052707 4.512747
v 1.501656 1.441950 4.586528
v 0.981345 1.003717 4.551936
v -2.004394 2.273685 4.432516
v -1.556385 2.801001 4.519668
v -0.000000 1.903992 4.688943
v -1.004368 1.885573 4.667108
v 0.000000 1.966025 4.436650
v 1.012084 1.951079 4.415202
v -1.936540 1.917700 4.376727
v -1.012084 1.951079 4.415203
v 1.883833 1.842677 4.621666
v 1.004368 1.885573 4.667108
v -1.912321 0.744036 4.217422
v -2.061086 1.512869 4.321561
v 1.099661 0.173771 4.399922
v 1.551836 0.404226 4.420158
v 0.827364 0.321609 4.451106
v -1.130929 0.195450 4.148422
v -1.596602 0.431081 4.169146
v -0.841803 0.362340 4.196457
v 0.375755 0.144395 4.174992
v 0.000000 0.346891 4.215351
v 0.841803 0.362340 4.196457
v -0.366553 0.114517 4.425115
v 0.000000 0.302633 4.469396
v -0.827364 0.321609 4.451106
v -1.099661 0.173771 4.399923
v -1.393269 0.655890 4.481696
v -1.551836 0.404226 4.420159
v -0.375755 0.144395 4.174992
v -0.465770 0.662374 4.260644
v -0.500552 1.505768 4.370539
v -0.483022 2.391848 4.491181
v -1.501656 1.441950 4.586529
v -1.456589 2.254407 4.700734
v -1.883833 1.842677 4.621667
v -1.840649 1.052707 4.512748
v -1.188831 2.805356 4.785541
v -1.667683 2.512650 4.721719
v -0.378636 3.007344 4.594288
v 1.130929 0.195450 4.148421
v 1.423162 0.704082 4.227745
v 1.596602 0.431081 4.169146
v 0.366553 0.114517 4.425115
v 0.464423 0.605050 4.513415
v 0.500552 1.442439 4.622744
v 0.483022 2.330410 4.743514
v 1.321651 2.582462 4.751847
v -1.349037 2.656380 4.501782
v 0.430517 2.757633 4.549109
v -0.430517 2.697454 4.801528
v -0.490672 0.997627 4.566332
v 0.490672 1.060327 4.314086
v -1.502176 1.086937 4.279478
v 1.472017 1.027578 4.532194
v -1.834677 2.573161 4.478161
v -0.502184 1.899385 4.682862
v 0.502184 1.962084 4.430615
v -1.537418 1.933827 4.393108
v 1.506552 1.862565 4.644167
v -2.020406 1.112654 4.267426
v -2.067806 1.910067 4.378453
v 1.241046 0.363330 4.435564
v -1.271861 0.397255 4.179982
v 0.419071 0.348524 4.209608
v -0.413682 0.304805 4.463778
v -1.241045 0.363330 4.435564
v -0.419071 0.348524 4.209608
v -0.502184 1.962084 4.430614
v -1.506552 1.862565 4.644168
v -0.490672 1.060327 4.314086
v -1.472017 1.027578 4.532195
v -1.321651 2.582462 4.751848
v -0.430517 2.757633 4.549109
v 1.271861 0.397255 4.179981
v 0.413682 0.304805 4.463778
v 0.502184 1.899385 4.682862
v 1.537418 1.933827 4.393108
v 0.490672 0.997627 4.566332
v 1.502176 1.086937 4.279478
v 1.349037 2.656380 4.501782
v 0.430517 2.697454 4.801528
v 1.834677 2.573161 4.478160
v 1.083022 0.127661 4.145303
v -1.167246 2.949708 4.561311
v 0.361342 3.088887 4.616608
v -0.361007 0.075604 4.170814
v 2.020406 1.112654 4.267426
v 2.067806 1.910067 4.378452
v 1.703387 0.441632 4.172915
v -1.083022 0.127661 4.145303
v -0.361342 3.088887 4.616607
v 1.167246 2.949708 4.561311
v 0.361007 0.075604 4.170814
v -1.703387 0.441632 4.172916
v 1.784547 2.491846 4.704802
v 2.011306 1.838226 4.607228
v 1.965201 1.062602 4.499235
v 1.656845 0.418558 4.407897
v 1.053430 0.111087 4.380898
v 0.351143 0.051810 4.405121
v -0.351143 0.051810 4.405121
v -1.053430 0.111087 4.380898
v -1.656845 0.418558 4.407898
v -1.965201 1.062602 4.499236
v -2.011306 1.838226 4.607228
v -1.784547 2.491846 4.704803
v -1.145226 2.881716 4.789841
v -0.361342 3.034962 4.847710
v 0.361342 3.034962 4.847710
v 1.145226 2.881716 4.789841
v -1.333613 0.210084 -0.727038
v -1.768456 1.026857 -0.613744
v -1.333613 0.235199 -0.921669
v -1.768456 1.051972 -0.808375
v 1.333613 0.210084 -0.727038
v 1.768456 1.026857 -0.613744
v 1.333613 0.235199 -0.921669
v 1.768456 1.051972 -0.808375
v -1.779582 0.704389 -0.652729
v -1.779582 0.729503 -0.847359
v 1.779582 0.729503 -0.847359
v 1.779582 0.704389 -0.652729
v -1.653475 0.436305 -0.887818
v 1.653475 0.436305 -0.887818
v 1.653475 0.411190 -0.693187
v -1.653475 0.411190 -0.693187
v 0.932617 0.182048 -0.921669
v 1.464157 1.060050 -0.808375
v 0.932617 0.156934 -0.727038
v 1.464157 1.034936 -0.613744
v 1.390875 0.712468 -0.652729
v 1.390875 0.737582 -0.847359
v 1.243282 0.444384 -0.887818
v 1.243282 0.419270 -0.693187
v -0.956505 0.162444 -0.921669
v -1.501659 1.015333 -0.613744
v -1.429358 0.692864 -0.652729
v -1.278467 0.399666 -0.693187
v -1.501659 1.040447 -0.808375
v -0.956505 0.137331 -0.727038
v -1.429358 0.717979 -0.847359
v -1.278467 0.424781 -0.887818
v 0.504996 1.043883 -0.808375
v 0.321665 0.140767 -0.727038
v 0.528351 0.721415 -0.847359
v 0.472162 0.428217 -0.887818
v 0.321665 0.165880 -0.921669
v 0.504996 1.018768 -0.613744
v 0.528351 0.696300 -0.652729
v 0.472162 0.403102 -0.693187
v -0.317421 0.165880 -0.921669
v -0.498332 1.018768 -0.613744
v -0.520780 0.696300 -0.652729
v -0.465932 0.403102 -0.693187
v -0.498332 1.043883 -0.808375
v -0.317421 0.140767 -0.727038
v -0.520780 0.721415 -0.847359
v -0.465932 0.428217 -0.887818
v -1.652524 0.343104 3.978528
v -1.324134 0.150644 3.935576
v -1.540075 0.268030 -0.493492
v -1.284799 0.118991 -0.490089
v -1.590399 0.528889 3.978342
v -1.163024 0.316244 3.924290
v -1.414452 0.418303 -0.490519
v -1.118498 0.227301 -0.486835
v -1.862505 0.319283 1.788502
v -1.547518 0.154564 1.789521
v -1.766131 0.489833 1.788706
v -1.403543 0.291208 1.789567
v -1.454140 0.152199 0.634419
v -1.649444 0.459340 0.630851
v -1.745817 0.288789 0.630647
v -1.310164 0.288843 0.634465
v -1.864030 0.332335 2.948299
v -1.433538 0.300851 2.945018
v -1.577513 0.164207 2.944972
v -1.767656 0.502886 2.948504
v -1.828489 -0.264721 -0.324768
v -1.420953 0.266435 -0.219889
v -1.890484 -0.222827 -0.296041
v -1.482948 0.308330 -0.191162
v -1.921643 -0.212614 -0.226688
v -1.514106 0.318542 -0.121809
v -1.903712 -0.240066 -0.157335
v -1.496175 0.291090 -0.052455
v -1.847195 -0.289101 -0.128607
v -1.439659 0.242055 -0.023728
v -1.785200 -0.330996 -0.157335
v -1.377664 0.200161 -0.052455
v -1.754042 -0.341208 -0.226688
v -1.346505 0.189948 -0.121809
v -1.771973 -0.313756 -0.296041
v -1.364436 0.217400 -0.191162
v 1.828489 -0.264721 -0.324768
v 1.420953 0.266435 -0.219889
v 1.890484 -0.222827 -0.296041
v 1.482948 0.308330 -0.191162
v 1.921643 -0.212614 -0.226688
v 1.514106 0.318542 -0.121809
v 1.903712 -0.240066 -0.157335
v 1.496175 0.291090 -0.052455
v 1.847195 -0.289101 -0.128607
v 1.439659 0.242055 -0.023728
v 1.785200 -0.330996 -0.157335
v 1.377664 0.200161 -0.052455
v 1.754042 -0.341208 -0.226688
v 1.346505 0.189948 -0.121809
v 1.771973 -0.313756 -0.296041
v 1.364436 0.217400 -0.191162
v 1.922297 -0.322895 3.668180
v 1.547940 0.294436 3.519336
v 1.986437 -0.276607 3.698842
v 1.612081 0.340724 3.549998
v 2.006449 -0.246624 3.772865
v 1.632093 0.370707 3.624021
v 1.970611 -0.250509 3.846889
v 1.596254 0.366822 3.698044
v 1.899915 -0.285987 3.877550
v 1.525559 0.331344 3.728706
v 1.835775 -0.332275 3.846889
v 1.461419 0.285056 3.698044
v 1.815763 -0.362258 3.772865
v 1.441406 0.255072 3.624021
v 1.851601 -0.358373 3.698842
v 1.477245 0.258958 3.549998
v 1.912173 -0.350066 2.413934
v 1.663946 0.327261 2.339289
v 1.981324 -0.321759 2.440835
v 1.733098 0.355568 2.366189
v 2.009968 -0.303496 2.511296
v 1.761741 0.373830 2.436651
v 1.981324 -0.305976 2.584044
v 1.733098 0.371350 2.509398
v 1.912173 -0.327746 2.616463
v 1.663946 0.349581 2.541817
v 1.843021 -0.356053 2.589563
v 1.594795 0.321273 2.514917
v 1.814378 -0.374316 2.519101
v 1.566151 0.303011 2.444455
v 1.843021 -0.371836 2.446353
v 1.594795 0.305491 2.371708
v 1.700168 -0.423461 6.246016
v 1.700168 -0.215246 6.246016
v 1.753805 1.043519 -2.318768
v 1.753805 1.084157 -2.199322
v 2.028325 -0.423461 6.246016
v 2.028325 -0.215246 6.246016
v 1.974688 1.043519 -2.318768
v 1.974688 1.084157 -2.199322
v 1.649473 -0.423461 1.903349
v 1.607694 -0.215246 1.903349
v 2.037242 -0.423461 1.903349
v 2.037242 -0.215246 1.903349
v 1.627609 -0.215246 -0.559606
v 2.057157 -0.423461 -0.559606
v 1.649473 -0.423461 -0.559606
v 2.057157 -0.215246 -0.559606
v 1.649473 -0.159255 -1.355789
v 2.079020 -0.367470 -1.436795
v 1.649473 -0.367470 -1.436795
v 2.079020 -0.159255 -1.355789
v 1.684716 0.333908 -1.970507
v 2.043778 0.203638 -2.132936
v 1.684716 0.203638 -2.132936
v 2.043778 0.333908 -1.970507
v 1.649473 -0.423461 4.716575
v 2.094727 -0.215246 4.716575
v 1.665180 -0.215246 4.716575
v 2.094727 -0.423461 4.716575
v 1.719260 0.694571 -2.129395
v 2.009233 0.616944 -2.277472
v 1.719260 0.616944 -2.277472
v 2.009233 0.694571 -2.129395
v 1.667094 -0.136998 -1.829400
v 2.061399 0.032244 -1.707683
v 1.667094 0.032244 -1.707683
v 2.061399 -0.136998 -1.829400
v 1.652524 0.343104 3.978528
v 1.324134 0.150644 3.935576
v 1.540075 0.268030 -0.493492
v 1.284799 0.118991 -0.490089
v 1.590399 0.528889 3.978342
v 1.163024 0.316244 3.924290
v 1.414452 0.418303 -0.490519
v 1.118498 0.227301 -0.486835
v 1.862505 0.319283 1.788502
v 1.547518 0.154564 1.789521
v 1.766131 0.489833 1.788706
v 1.403543 0.291208 1.789567
v 1.454140 0.152199 0.634419
v 1.649444 0.459340 0.630851
v 1.745817 0.288789 0.630647
v 1.310164 0.288843 0.634465
v 1.864030 0.332335 2.948299
v 1.433538 0.300851 2.945018
v 1.577513 0.164207 2.944972
v 1.767656 0.502886 2.948504
v -1.922297 -0.322895 3.668180
v -1.547940 0.294436 3.519336
v -1.986437 -0.276607 3.698842
v -1.612081 0.340724 3.549998
v -2.006449 -0.246624 3.772865
v -1.632093 0.370707 3.624021
v -1.970611 -0.250509 3.846889
v -1.596254 0.366822 3.698044
v -1.899915 -0.285987 3.877550
v -1.525559 0.331344 3.728706
v -1.835775 -0.332275 3.846889
v -1.461419 0.285056 3.698044
v -1.815763 -0.362258 3.772865
v -1.441406 0.255072 3.624021
v -1.851601 -0.358373 3.698842
v -1.477245 0.258958 3.549998
v -1.700168 -0.423461 6.246016
v -1.700168 -0.215246 6.246016
v -1.753805 1.043519 -2.318768
v -1.753805 1.084157 -2.199322
v -2.028325 -0.423461 6.246016
v -2.028325 -0.215246 6.246016
v -1.974688 1.043519 -2.318768
v -1.974688 1.084157 -2.199322
v -1.649473 -0.423461 1.903349
v -1.607694 -0.215246 1.903349
v -2.037242 -0.423461 1.903349
v -2.037242 -0.215246 1.903349
v -1.627609 -0.215246 -0.559606
v -2.057157 -0.423461 -0.559606
v -1.649473 -0.423461 -0.559606
v -2.057157 -0.215246 -0.559606
v -1.649473 -0.159255 -1.355789
v -2.079020 -0.367470 -1.436795
v -1.649473 -0.367470 -1.436795
v -2.079020 -0.159255 -1.355789
v -1.684716 0.333908 -1.970507
v -2.043778 0.203638 -2.132936
v -1.684716 0.203638 -2.132936
v -2.043778 0.333908 -1.970507
v -1.649473 -0.423461 4.716575
v -2.094727 -0.215246 4.716575
v -1.665180 -0.215246 4.716575
v -2.094727 -0.423461 4.716575
v -1.719260 0.694571 -2.129395
v -2.009233 0.616944 -2.277472
v -1.719260 0.616944 -2.277472
v -2.009233 0.694571 -2.129395
v -1.667094 -0.136998 -1.829400
v -2.061399 0.032244 -1.707683
v -1.667094 0.032244 -1.707683
v -2.061399 -0.136998 -1.829400
v 1.911701 -0.327606 1.091865
v 1.607673 0.299791 1.166308
v 1.977280 -0.299702 1.124520
v 1.673252 0.327694 1.198963
v 2.004443 -0.295011 1.195919
v 1.700415 0.332386 1.270362
v 1.977280 -0.316280 1.264238
v 1.673252 0.311116 1.338681
v 1.911701 -0.351051 1.289456
v 1.607673 0.276346 1.363899
v 1.846123 -0.378954 1.256801
v 1.542095 0.248442 1.331244
v 1.818959 -0.383646 1.185402
v 1.514931 0.243750 1.259845
v 1.846123 -0.362376 1.117083
v 1.542095 0.265020 1.191527
v -1.911701 -0.327606 1.091865
v -1.607673 0.299791 1.166308
v -1.977280 -0.299702 1.124520
v -1.673252 0.327694 1.198963
v -2.004443 -0.295011 1.195919
v -1.700415 0.332386 1.270362
v -1.977280 -0.316280 1.264238
v -1.673252 0.311116 1.338681
v -1.911701 -0.351051 1.289456
v -1.607673 0.276346 1.363899
v -1.846123 -0.378954 1.256801
v -1.542095 0.248442 1.331244
v -1.818959 -0.383646 1.185402
v -1.514931 0.243750 1.259845
v -1.846123 -0.362376 1.117083
v -1.542095 0.265020 1.191527
v -1.912173 -0.350066 2.413934
v -1.663946 0.327261 2.339289
v -1.981324 -0.321759 2.440835
v -1.733098 0.355568 2.366189
v -2.009968 -0.303496 2.511296
v -1.761741 0.373830 2.436651
v -1.981324 -0.305976 2.584044
v -1.733098 0.371350 2.509398
v -1.912173 -0.327746 2.616463
v -1.663946 0.349581 2.541817
v -1.843021 -0.356053 2.589563
v -1.594795 0.321273 2.514917
v -1.814378 -0.374316 2.519101
v -1.566151 0.303011 2.444455
v -1.843021 -0.371836 2.446353
v -1.594795 0.305491 2.371708
v -1.875824 0.345257 -2.048437
v 1.875824 0.345257 -2.048437
v -1.875824 0.536767 -2.087529
v 1.875824 0.536767 -2.087529
v -1.875824 0.514676 -2.195749
v 1.875824 0.514676 -2.195749
v -1.875824 0.323166 -2.156657
v 1.875824 0.323166 -2.156657
v 0.632672 0.499060 -2.195749
v 0.632672 0.307550 -2.156657
v 0.632672 0.329641 -2.048437
v 0.632672 0.521151 -2.087529
v -0.624586 0.511628 -2.195749
v -0.624586 0.320118 -2.156657
v -0.624586 0.342208 -2.048437
v -0.624586 0.533718 -2.087529
v -0.667712 0.268767 4.528112
v 0.667712 0.268767 4.528112
v -0.667712 0.739997 4.579282
v 0.667712 0.739997 4.579282
v -0.667712 0.760062 4.394496
v 0.667712 0.760062 4.394496
v -0.667712 0.288832 4.343327
v 0.667712 0.288832 4.343327
vt 0.397487 0.246375
vt 0.390022 0.330473
vt 0.383097 0.328316
vt 0.390993 0.245343
vt 0.371791 0.085556
vt 0.387090 0.164486
vt 0.347475 0.162853
vt 0.337830 0.084740
vt 0.349139 0.241871
vt 0.431807 0.166499
vt 0.437700 0.252281
vt 0.431805 0.251291
vt 0.425788 0.167383
vt 0.413259 0.083866
vt 0.407630 0.085724
vt 0.337212 0.321872
vt 0.434565 0.338172
vt 0.428531 0.336084
vt 0.393655 0.163807
vt 0.378046 0.083928
vt 0.393493 0.005323
vt 0.387570 0.007030
vt 0.360199 0.004896
vt 0.353705 0.006082
vt 0.389259 0.538981
vt 0.361092 0.542822
vt 0.364005 0.464845
vt 0.395808 0.458813
vt 0.347877 0.621168
vt 0.329388 0.623327
vt 0.338571 0.545490
vt 0.338645 0.467800
vt 0.424711 0.621678
vt 0.418603 0.005774
vt 0.378715 0.698634
vt 0.406399 0.615814
vt 0.325137 0.389043
vt 0.354321 0.384595
vt 0.464648 0.449012
vt 0.450547 0.536616
vt 0.370819 0.723020
vt 0.371901 0.618963
vt 0.431779 0.532162
vt 0.445960 0.447327
vt 0.391440 0.376837
vt 0.449778 0.361345
vt 0.332760 0.701073
vt 0.468357 0.362184
vt 0.243675 0.545254
vt 0.243864 0.466630
vt 0.243490 0.623831
vt 0.244060 0.384104
vt 0.317945 0.702080
vt 0.243304 0.702509
vt 0.246487 0.243660
vt 0.246242 0.163228
vt 0.246000 0.084254
vt 0.246731 0.323418
vt 0.095506 0.247297
vt 0.101993 0.246226
vt 0.110395 0.329148
vt 0.103484 0.331348
vt 0.120219 0.086325
vt 0.154174 0.085302
vt 0.145006 0.163472
vt 0.105402 0.165346
vt 0.143825 0.242498
vt 0.324561 0.004012
vt 0.245754 0.003658
vt 0.156240 0.322425
vt 0.060698 0.167632
vt 0.066722 0.168480
vt 0.061218 0.252422
vt 0.055329 0.253449
vt 0.078741 0.084888
vt 0.084382 0.086712
vt 0.137818 0.006742
vt 0.166948 0.004494
vt 0.065009 0.337194
vt 0.058989 0.339319
vt 0.098833 0.164707
vt 0.113954 0.084736
vt 0.098804 0.724880
vt 0.103958 0.007898
vt 0.036848 0.535627
vt 0.023166 0.447957
vt 0.131316 0.005596
vt 0.098122 0.538290
vt 0.091957 0.458090
vt 0.123731 0.464274
vt 0.126270 0.542266
vt 0.139114 0.620672
vt 0.148779 0.545040
vt 0.157594 0.622918
vt 0.149077 0.467351
vt 0.044587 0.088297
vt 0.080598 0.615062
vt 0.107980 0.698072
vt 0.093274 0.700600
vt 0.133800 0.384071
vt 0.162960 0.388659
vt 0.055638 0.531264
vt 0.115096 0.618356
vt 0.153855 0.700646
vt 0.168666 0.701725
vt 0.041862 0.446362
vt 0.038459 0.360362
vt 0.096720 0.376136
vt 0.133909 0.699488
vt 0.002028 0.352900
vt 0.019876 0.361110
vt 0.006552 0.265075
vt 0.018919 0.175073
vt 0.062236 0.620786
vt 0.486547 0.263609
vt 0.491607 0.351405
vt 0.447434 0.087068
vt 0.473630 0.173685
vt 0.072894 0.006943
vt 0.098025 0.006227
vt 0.392210 0.701105
vt 0.387011 0.725432
vt 0.115021 0.722643
vt 0.352711 0.700011
vt 0.047769 0.491896
vt 0.093910 0.501025
vt 0.123506 0.506028
vt 0.147191 0.508955
vt 0.243762 0.508739
vt 0.340331 0.509413
vt 0.364030 0.506599
vt 0.393651 0.501738
vt 0.439835 0.492832
vt 0.480898 0.215682
vt 0.458930 0.495941
vt 0.436013 0.206378
vt 0.429959 0.206303
vt 0.397101 0.202113
vt 0.390559 0.201958
vt 0.350075 0.199507
vt 0.246356 0.200617
vt 0.142630 0.200141
vt 0.102161 0.202839
vt 0.095621 0.203034
vt 0.062789 0.207425
vt 0.056736 0.207536
vt 0.011909 0.217114
vt 0.028659 0.494914
vt 0.068233 0.576724
vt 0.106538 0.581564
vt 0.132525 0.584589
vt 0.152933 0.587100
vt 0.243575 0.587709
vt 0.334216 0.587529
vt 0.354634 0.585114
vt 0.380632 0.582209
vt 0.418965 0.577558
vt 0.460534 0.126656
vt 0.437653 0.582820
vt 0.422745 0.121726
vt 0.416909 0.123231
vt 0.386057 0.120657
vt 0.379582 0.121847
vt 0.342878 0.120732
vt 0.246111 0.120525
vt 0.149346 0.121324
vt 0.112649 0.122663
vt 0.106167 0.121512
vt 0.075332 0.124275
vt 0.069487 0.122804
vt 0.031728 0.127965
vt 0.049516 0.581886
vt 0.094144 0.656743
vt 0.077617 0.660845
vt 0.058609 0.047257
vt 0.088315 0.045546
vt 0.094081 0.047350
vt 0.122521 0.045325
vt 0.128862 0.046808
vt 0.160408 0.045100
vt 0.245877 0.044072
vt 0.331350 0.044578
vt 0.362906 0.046093
vt 0.369238 0.044571
vt 0.397690 0.046421
vt 0.403445 0.044582
vt 0.408609 0.661565
vt 0.433142 0.046059
vt 0.392711 0.657394
vt 0.362491 0.659412
vt 0.340453 0.660905
vt 0.323786 0.662474
vt 0.243398 0.663042
vt 0.163015 0.662092
vt 0.146357 0.660443
vt 0.124330 0.658844
vt 0.039665 0.405871
vt 0.093732 0.419650
vt 0.127590 0.426891
vt 0.154413 0.430269
vt 0.243957 0.427494
vt 0.333486 0.430694
vt 0.360325 0.427444
vt 0.394218 0.420366
vt 0.448352 0.406847
vt 0.489070 0.304846
vt 0.467240 0.408472
vt 0.436471 0.292680
vt 0.430539 0.290959
vt 0.394677 0.285694
vt 0.388153 0.283859
vt 0.344828 0.279563
vt 0.246603 0.281533
vt 0.148366 0.280163
vt 0.105068 0.284723
vt 0.098556 0.286598
vt 0.062726 0.292083
vt 0.056805 0.293839
vt 0.004281 0.306326
vt 0.020769 0.407404
vt 0.554211 0.837673
vt 0.523888 0.837172
vt 0.533133 0.815713
vt 0.562050 0.816850
vt 0.501165 0.839271
vt 0.511632 0.818672
vt 0.524069 0.806159
vt 0.543713 0.803669
vt 0.569981 0.803485
vt 0.677714 0.747149
vt 0.709790 0.748675
vt 0.699697 0.770084
vt 0.669748 0.767995
vt 0.734337 0.747398
vt 0.722880 0.768443
vt 0.708652 0.780476
vt 0.689089 0.782174
vt 0.661882 0.781340
vt 0.554177 0.746002
vt 0.585410 0.744323
vt 0.589363 0.765901
vt 0.561756 0.766992
vt 0.615971 0.743825
vt 0.615768 0.765695
vt 0.615631 0.780527
vt 0.593266 0.780365
vt 0.569372 0.780481
vt 0.675978 0.838804
vt 0.645407 0.840264
vt 0.641454 0.818689
vt 0.668528 0.817839
vt 0.615071 0.840768
vt 0.615274 0.818909
vt 0.615412 0.804029
vt 0.637526 0.804169
vt 0.660846 0.804329
vt 0.673881 0.946231
vt 0.644013 0.947560
vt 0.645785 0.922698
vt 0.677091 0.921469
vt 0.614079 0.947599
vt 0.614310 0.922761
vt 0.614568 0.894966
vt 0.646591 0.894774
vt 0.678349 0.893674
vt 0.556222 0.637684
vt 0.586750 0.636478
vt 0.585015 0.661756
vt 0.552954 0.662940
vt 0.616969 0.636443
vt 0.616735 0.661659
vt 0.616476 0.689544
vt 0.584170 0.689787
vt 0.551637 0.691019
vt 0.677682 0.638812
vt 0.708790 0.642139
vt 0.713238 0.667092
vt 0.680480 0.664125
vt 0.732238 0.645041
vt 0.737998 0.669445
vt 0.739663 0.696047
vt 0.714463 0.694622
vt 0.681275 0.692223
vt 0.554313 0.945121
vt 0.524893 0.941202
vt 0.520566 0.917026
vt 0.551563 0.920303
vt 0.503074 0.937415
vt 0.497289 0.914333
vt 0.495446 0.888857
vt 0.519279 0.890287
vt 0.550822 0.892489
vt 0.730902 0.766511
vt 0.711104 0.783807
vt 0.742521 0.746569
vt 0.738754 0.814048
vt 0.750537 0.835380
vt 0.736758 0.842290
vt 0.726270 0.822846
vt 0.722273 0.795485
vt 0.709537 0.804747
vt 0.646801 0.866415
vt 0.678520 0.865259
vt 0.614829 0.866809
vt 0.583972 0.718174
vt 0.551461 0.719579
vt 0.616214 0.717747
vt 0.714019 0.722541
vt 0.680921 0.720781
vt 0.739216 0.722717
vt 0.519845 0.862973
vt 0.551178 0.864077
vt 0.496195 0.863080
vt 0.746127 0.670120
vt 0.747958 0.696354
vt 0.739921 0.645968
vt 0.754691 0.916945
vt 0.747126 0.942975
vt 0.732665 0.938474
vt 0.739397 0.915906
vt 0.757437 0.889001
vt 0.741924 0.890752
vt 0.747548 0.722553
vt 0.756603 0.861054
vt 0.741585 0.865361
vt 0.566097 0.976672
vt 0.542382 0.973193
vt 0.533595 0.960775
vt 0.560343 0.964300
vt 0.525822 0.967993
vt 0.514062 0.956841
vt 0.666569 0.605384
vt 0.691044 0.608521
vt 0.699668 0.621904
vt 0.671962 0.618608
vt 0.707662 0.614139
vt 0.720417 0.624888
vt 0.567954 0.604468
vt 0.592594 0.603206
vt 0.589802 0.616349
vt 0.562316 0.617589
vt 0.617278 0.603093
vt 0.617156 0.616287
vt 0.661513 0.977558
vt 0.637688 0.979072
vt 0.640719 0.966765
vt 0.667495 0.965295
vt 0.613785 0.979245
vt 0.613900 0.966873
vt 0.701941 0.969629
vt 0.685289 0.974520
vt 0.694304 0.962268
vt 0.713907 0.958697
vt 0.703369 0.942860
vt 0.725254 0.939479
vt 0.641956 0.603665
vt 0.644504 0.616857
vt 0.647181 0.637040
vt 0.648771 0.690387
vt 0.648442 0.718773
vt 0.646519 0.744891
vt 0.733783 0.891071
vt 0.709927 0.892057
vt 0.709868 0.864738
vt 0.733512 0.865284
vt 0.706305 0.838866
vt 0.728986 0.841386
vt 0.648446 0.662345
vt 0.708144 0.918768
vt 0.731466 0.916507
vt 0.697461 0.817239
vt 0.718903 0.820597
vt 0.687106 0.805001
vt 0.706700 0.807855
vt 0.642165 0.766391
vt 0.637994 0.780780
vt 0.526706 0.612458
vt 0.543424 0.607150
vt 0.534553 0.620371
vt 0.513753 0.622969
vt 0.525058 0.640432
vt 0.501560 0.642899
vt 0.589890 0.978628
vt 0.587087 0.966267
vt 0.584151 0.947004
vt 0.582554 0.894179
vt 0.582871 0.865821
vt 0.584750 0.839700
vt 0.493188 0.693758
vt 0.518410 0.692801
vt 0.518336 0.720723
vt 0.493140 0.720431
vt 0.522079 0.746932
vt 0.497560 0.745199
vt 0.582841 0.922113
vt 0.520147 0.665299
vt 0.495348 0.667192
vt 0.531772 0.768525
vt 0.508624 0.766453
vt 0.542154 0.780809
vt 0.522626 0.778748
vt 0.589103 0.818203
vt 0.593300 0.803758
vt 0.520113 0.782033
vt 0.500640 0.764372
vt 0.491905 0.811755
vt 0.508729 0.793502
vt 0.521290 0.802999
vt 0.504224 0.820784
vt 0.489393 0.744218
vt 0.546448 0.602775
vt 0.569880 0.600116
vt 0.524936 0.609682
vt 0.685351 0.785996
vt 0.659161 0.785708
vt 0.615585 0.785427
vt 0.594605 0.785159
vt 0.615458 0.799053
vt 0.594722 0.798907
vt 0.572012 0.784899
vt 0.572676 0.799006
vt 0.617319 0.598691
vt 0.641081 0.599273
vt 0.638387 0.998089
vt 0.613606 0.998503
vt 0.613746 0.983442
vt 0.636714 0.983251
vt 0.663080 0.996330
vt 0.659612 0.981749
vt 0.664724 0.600996
vt 0.484890 0.693911
vt 0.487207 0.667716
vt 0.474061 0.914339
vt 0.471834 0.886349
vt 0.487312 0.888387
vt 0.489371 0.913584
vt 0.481140 0.940505
vt 0.495683 0.936273
vt 0.493860 0.643682
vt 0.484813 0.720113
vt 0.473187 0.858421
vt 0.479729 0.832865
vt 0.493376 0.840030
vt 0.488122 0.863007
vt 0.506939 0.623847
vt 0.494202 0.962897
vt 0.507425 0.955323
vt 0.511042 0.980217
vt 0.523794 0.970704
vt 0.688103 0.604091
vt 0.687543 0.992527
vt 0.682276 0.978668
vt 0.709773 0.986569
vt 0.703920 0.972377
vt 0.709483 0.611396
vt 0.636566 0.785548
vt 0.658234 0.799801
vt 0.636194 0.799293
vt 0.545820 0.784700
vt 0.547505 0.799702
vt 0.593551 0.598832
vt 0.588838 0.997629
vt 0.564181 0.995412
vt 0.567920 0.980898
vt 0.590786 0.982825
vt 0.727214 0.625893
vt 0.733651 0.965120
vt 0.716492 0.982125
vt 0.720571 0.957303
vt 0.545317 0.977396
vt 0.683389 0.800964
vt 0.517677 0.984785
vt 0.539793 0.991155
vt 0.244672 0.731393
vt 0.246413 0.744478
vt 0.226310 0.745365
vt 0.222748 0.733981
vt 0.225258 0.946735
vt 0.245719 0.952107
vt 0.244888 0.971924
vt 0.224541 0.971048
vt 0.323791 0.944947
vt 0.311267 0.943582
vt 0.314077 0.917963
vt 0.326536 0.918846
vt 0.258941 0.744822
vt 0.259246 0.762091
vt 0.246667 0.762095
vt 0.298883 0.776790
vt 0.280027 0.766941
vt 0.279653 0.744535
vt 0.298507 0.752835
vt 0.206200 0.937559
vt 0.206887 0.962823
vt 0.243053 0.985003
vt 0.220955 0.982400
vt 0.208744 0.753379
vt 0.201854 0.743328
vt 0.189431 0.917684
vt 0.192599 0.944173
vt 0.315257 0.797557
vt 0.311499 0.773553
vt 0.258305 0.890792
vt 0.258101 0.952267
vt 0.245700 0.890713
vt 0.225936 0.767167
vt 0.199954 0.972828
vt 0.182894 0.953245
vt 0.194280 0.771783
vt 0.184656 0.762654
vt 0.324008 0.771718
vt 0.327726 0.796672
vt 0.224772 0.891993
vt 0.278725 0.947526
vt 0.279151 0.892269
vt 0.315090 0.879069
vt 0.327690 0.879307
vt 0.298180 0.964319
vt 0.297533 0.937973
vt 0.188949 0.878460
vt 0.205794 0.888259
vt 0.279073 0.972526
vt 0.206625 0.776245
vt 0.189372 0.796458
vt 0.257969 0.971724
vt 0.246067 0.826461
vt 0.225252 0.824866
vt 0.258607 0.826516
vt 0.315280 0.838235
vt 0.298276 0.828761
vt 0.279371 0.825169
vt 0.298100 0.888652
vt 0.327834 0.838205
vt 0.206254 0.828168
vt 0.189250 0.837533
vt 0.046524 0.907454
vt 0.040750 0.979964
vt 0.021899 0.981394
vt 0.025988 0.908601
vt 0.039614 0.992428
vt 0.017101 0.993150
vt 0.048211 0.682069
vt 0.045909 0.694373
vt 0.021388 0.694927
vt 0.017512 0.680644
vt 0.051112 0.760582
vt 0.058297 0.692484
vt 0.063499 0.759440
vt 0.017207 0.759605
vt 0.006596 0.695128
vt 0.029902 0.759932
vt 0.013298 0.908982
vt 0.015452 0.834323
vt 0.028134 0.834215
vt 0.050839 0.833791
vt 0.063410 0.834264
vt 0.058944 0.908907
vt 0.053104 0.982055
vt 0.009215 0.981902
vt 0.084400 0.738294
vt 0.089523 0.738285
vt 0.089600 0.781608
vt 0.084476 0.781617
vt 0.094428 0.738277
vt 0.094504 0.781600
vt 0.099332 0.738268
vt 0.099408 0.781591
vt 0.104456 0.738259
vt 0.104532 0.781582
vt 0.109580 0.738250
vt 0.109656 0.781573
vt 0.114485 0.738241
vt 0.114561 0.781564
vt 0.074371 0.738312
vt 0.079276 0.738303
vt 0.079352 0.781626
vt 0.074447 0.781635
vt 0.159800 0.853918
vt 0.159800 0.897241
vt 0.154676 0.897241
vt 0.154676 0.853918
vt 0.149772 0.897241
vt 0.149772 0.853918
vt 0.144867 0.897241
vt 0.144867 0.853918
vt 0.139743 0.897241
vt 0.139743 0.853918
vt 0.134620 0.897241
vt 0.134619 0.853918
vt 0.129715 0.897241
vt 0.129715 0.853918
vt 0.169828 0.853918
vt 0.169829 0.897241
vt 0.164924 0.897241
vt 0.164924 0.853918
vt 0.166583 0.790115
vt 0.166583 0.837242
vt 0.161160 0.837242
vt 0.161160 0.790115
vt 0.155896 0.837242
vt 0.155896 0.790115
vt 0.150633 0.837242
vt 0.150633 0.790115
vt 0.145209 0.837242
vt 0.145209 0.790115
vt 0.139786 0.837242
vt 0.139786 0.790115
vt 0.134522 0.837242
vt 0.134522 0.790115
vt 0.129258 0.837242
vt 0.129258 0.790115
vt 0.172007 0.790115
vt 0.172007 0.837242
vt 0.106942 0.845208
vt 0.106942 0.891573
vt 0.101865 0.891573
vt 0.101865 0.845208
vt 0.096864 0.891573
vt 0.096864 0.845208
vt 0.091863 0.891573
vt 0.091863 0.845208
vt 0.086786 0.891573
vt 0.086786 0.845208
vt 0.081709 0.891573
vt 0.081709 0.845208
vt 0.076708 0.891573
vt 0.076708 0.845208
vt 0.071707 0.891573
vt 0.071707 0.845208
vt 0.112019 0.845208
vt 0.112019 0.891573
vt 0.501216 0.002719
vt 0.496246 0.012182
vt 0.471254 0.007647
vt 0.473862 0.000015
vt 0.818223 0.630203
vt 0.797244 0.630203
vt 0.797244 0.616892
vt 0.818223 0.616892
vt 0.814794 0.003878
vt 0.814794 0.011944
vt 0.800673 0.011944
vt 0.800673 0.003878
vt 0.866707 0.100455
vt 0.839245 0.100526
vt 0.841229 0.002742
vt 0.862209 0.002688
vt 0.588109 0.450307
vt 0.601420 0.450271
vt 0.601685 0.548141
vt 0.588374 0.548177
vt 0.587197 0.112954
vt 0.600509 0.112918
vt 0.600934 0.270382
vt 0.587623 0.270418
vt 0.569243 0.449937
vt 0.555894 0.450009
vt 0.554699 0.270123
vt 0.568276 0.270087
vt 0.865177 0.437772
vt 0.837716 0.437843
vt 0.836035 0.280387
vt 0.863497 0.280316
vt 0.590625 0.056848
vt 0.603951 0.061989
vt 0.866707 0.488794
vt 0.839245 0.488865
vt 0.554478 0.112658
vt 0.567863 0.112628
vt 0.605296 0.031686
vt 0.616139 0.039435
vt 0.550949 0.061735
vt 0.564259 0.056550
vt 0.840438 0.514475
vt 0.865646 0.514410
vt 0.653491 0.002812
vt 0.658492 0.012258
vt 0.635389 0.022553
vt 0.627027 0.012196
vt 0.549505 0.031436
vt 0.538687 0.039220
vt 0.519382 0.022402
vt 0.527711 0.012018
vt 0.843904 0.565241
vt 0.841631 0.540050
vt 0.864586 0.539991
vt 0.862443 0.565193
vt 0.569563 0.547769
vt 0.556251 0.547813
vt 0.794003 0.181802
vt 0.820067 0.181802
vt 0.818793 0.339261
vt 0.794003 0.339261
vt 0.794003 0.125608
vt 0.821464 0.125608
vt 0.795129 0.096503
vt 0.820338 0.096503
vt 0.798464 0.039343
vt 0.817003 0.039343
vt 0.819211 0.067335
vt 0.796256 0.067335
vt 0.822468 0.519113
vt 0.794003 0.519113
vt 0.860300 0.590503
vt 0.846178 0.590539
vt 0.680836 0.000018
vt 0.683469 0.007642
vt 0.421582 0.911490
vt 0.442130 0.912410
vt 0.447021 0.985154
vt 0.428155 0.983932
vt 0.451947 0.996857
vt 0.429428 0.996383
vt 0.417413 0.686137
vt 0.448095 0.684374
vt 0.444377 0.698699
vt 0.419852 0.698415
vt 0.415378 0.764677
vt 0.402979 0.763671
vt 0.407443 0.696663
vt 0.449270 0.763327
vt 0.436579 0.763793
vt 0.459171 0.698737
vt 0.454823 0.912652
vt 0.439165 0.838053
vt 0.451848 0.838021
vt 0.409179 0.913080
vt 0.403892 0.838490
vt 0.416457 0.837878
vt 0.415825 0.986159
vt 0.459709 0.985522
vt 0.127466 0.913491
vt 0.132890 0.913490
vt 0.132898 0.960617
vt 0.127475 0.960618
vt 0.138153 0.913489
vt 0.138162 0.960616
vt 0.143417 0.913488
vt 0.143426 0.960615
vt 0.148841 0.913487
vt 0.148849 0.960614
vt 0.154264 0.913486
vt 0.154272 0.960613
vt 0.159528 0.913485
vt 0.159536 0.960612
vt 0.164791 0.913484
vt 0.164800 0.960611
vt 0.122043 0.913492
vt 0.122051 0.960619
vt 0.681551 0.019142
vt 0.708898 0.016366
vt 0.711526 0.023992
vt 0.686545 0.028592
vt 0.770828 0.003718
vt 0.770829 0.017029
vt 0.749849 0.017030
vt 0.749848 0.003719
vt 0.767432 0.630043
vt 0.753311 0.630044
vt 0.753311 0.621978
vt 0.767432 0.621977
vt 0.916712 0.493564
vt 0.912277 0.591334
vt 0.891298 0.591293
vt 0.889251 0.493510
vt 0.540534 0.468575
vt 0.540089 0.566445
vt 0.526778 0.566384
vt 0.527222 0.468515
vt 0.542066 0.131226
vt 0.541351 0.288688
vt 0.528040 0.288627
vt 0.528755 0.131165
vt 0.614686 0.466534
vt 0.615186 0.286683
vt 0.628763 0.286683
vt 0.628036 0.466572
vt 0.914967 0.156249
vt 0.913387 0.313705
vt 0.885926 0.313651
vt 0.887505 0.156195
vt 0.538742 0.075113
vt 0.525406 0.080230
vt 0.916464 0.105225
vt 0.889003 0.105172
vt 0.615190 0.129224
vt 0.628575 0.129219
vt 0.524117 0.049925
vt 0.513259 0.057653
vt 0.618648 0.073136
vt 0.631971 0.078286
vt 0.890179 0.079561
vt 0.915387 0.079610
vt 0.475975 0.020961
vt 0.502422 0.030395
vt 0.494041 0.040736
vt 0.470957 0.030399
vt 0.633336 0.047984
vt 0.655080 0.028509
vt 0.663435 0.038871
vt 0.644174 0.055740
vt 0.893613 0.028794
vt 0.912151 0.028830
vt 0.914310 0.054030
vt 0.891355 0.053985
vt 0.614621 0.564367
vt 0.627932 0.564376
vt 0.746631 0.452120
vt 0.746623 0.294661
vt 0.771413 0.294660
vt 0.772695 0.452119
vt 0.746634 0.508314
vt 0.774096 0.508312
vt 0.747763 0.537418
vt 0.772971 0.537417
vt 0.751101 0.594579
vt 0.748891 0.566587
vt 0.771846 0.566586
vt 0.769639 0.594578
vt 0.746613 0.114809
vt 0.775079 0.114807
vt 0.909992 0.003521
vt 0.895870 0.003493
vt 0.448635 0.018117
vt 0.445988 0.025737
vt 0.162365 0.732096
vt 0.162365 0.776920
vt 0.157353 0.776920
vt 0.157353 0.732096
vt 0.152460 0.776920
vt 0.152460 0.732096
vt 0.147567 0.776920
vt 0.147567 0.732096
vt 0.142555 0.776920
vt 0.142555 0.732096
vt 0.137544 0.776920
vt 0.137544 0.732096
vt 0.132651 0.776920
vt 0.132651 0.732096
vt 0.172270 0.732096
vt 0.172270 0.776920
vt 0.167377 0.776920
vt 0.167377 0.732096
vt 0.083966 0.792095
vt 0.088978 0.792091
vt 0.089015 0.836916
vt 0.084003 0.836920
vt 0.093871 0.792087
vt 0.093908 0.836912
vt 0.098764 0.792083
vt 0.098801 0.836908
vt 0.103776 0.792079
vt 0.103813 0.836904
vt 0.108788 0.792075
vt 0.108825 0.836900
vt 0.113681 0.792071
vt 0.113718 0.836896
vt 0.074062 0.792104
vt 0.078955 0.792100
vt 0.078992 0.836924
vt 0.074099 0.836928
vt 0.073068 0.901537
vt 0.078145 0.901538
vt 0.078140 0.947902
vt 0.073063 0.947902
vt 0.083146 0.901538
vt 0.083141 0.947903
vt 0.088147 0.901539
vt 0.088142 0.947903
vt 0.093224 0.901539
vt 0.093219 0.947904
vt 0.098301 0.901540
vt 0.098296 0.947904
vt 0.103302 0.901540
vt 0.103297 0.947905
vt 0.108303 0.901541
vt 0.108298 0.947905
vt 0.067991 0.901537
vt 0.067986 0.947901
vt 0.348217 0.978592
vt 0.348259 0.898577
vt 0.360748 0.898656
vt 0.360716 0.978627
vt 0.367804 0.898651
vt 0.367779 0.978626
vt 0.380294 0.898581
vt 0.380278 0.978598
vt 0.387356 0.898593
vt 0.387339 0.978602
vt 0.348300 0.738821
vt 0.348214 0.731760
vt 0.360706 0.731613
vt 0.360786 0.738674
vt 0.348198 0.985653
vt 0.360695 0.985688
vt 0.367833 0.818230
vt 0.367841 0.738692
vt 0.380327 0.738840
vt 0.380337 0.818249
vt 0.387398 0.818249
vt 0.387389 0.738821
vt 0.360765 0.818227
vt 0.348259 0.818239
vt 0.780415 0.689843
vt 0.780759 0.775217
vt 0.768876 0.775265
vt 0.768532 0.689891
vt 0.822601 0.689673
vt 0.822945 0.775047
vt 0.811062 0.775095
vt 0.810718 0.689721
vt 0.811110 0.786978
vt 0.780807 0.787100
vt 0.810670 0.677838
vt 0.780367 0.677960
vn 0.963188 -0.236406 0.127986
vn 0.950420 -0.222178 0.217572
vn 0.822263 -0.540603 0.177853
vn 0.822527 -0.559747 0.100661
vn 0.702552 -0.704064 -0.103510
vn 0.744953 -0.662989 -0.074094
vn 0.175772 -0.984394 -0.008541
vn 0.156472 -0.987553 -0.015961
vn 0.782592 -0.620338 -0.052262
vn 0.806653 -0.590628 0.021665
vn 0.223081 -0.974710 0.013216
vn 0.199754 -0.979837 -0.004356
vn 0.995110 0.010060 -0.098263
vn 0.999950 -0.000529 0.010021
vn 0.972202 -0.231561 0.034682
vn 0.971602 -0.224930 -0.073456
vn 0.978835 0.048265 -0.198878
vn 0.988195 0.026481 -0.150898
vn 0.964242 -0.239412 -0.113665
vn 0.954603 -0.251970 -0.158887
vn 0.260470 -0.963741 0.057945
vn 0.240484 -0.970035 0.034643
vn 0.991517 -0.022293 0.128049
vn 0.972951 -0.016344 0.230433
vn 0.951062 -0.218514 0.218479
vn 0.967720 -0.217295 0.127677
vn 0.966311 -0.247612 -0.070227
vn 0.971582 -0.235429 0.024524
vn 0.952038 -0.260868 -0.159911
vn 0.962385 -0.247086 -0.112979
vn 0.971637 0.086239 -0.220193
vn 0.942516 -0.279786 -0.182709
vn 0.937030 -0.302853 -0.173942
vn 0.679357 -0.723307 -0.123698
vn -0.988704 0.123759 0.084552
vn -0.882673 0.466685 0.055623
vn -0.892268 0.451035 -0.020620
vn -0.991139 0.131824 -0.016313
vn -0.851591 0.510998 0.116940
vn -0.104546 0.994484 -0.008487
vn -0.116854 0.992665 -0.031003
vn -0.864497 0.496153 0.080478
vn -0.135779 0.990645 -0.013666
vn -0.155197 0.987874 -0.004375
vn 0.882633 0.387834 -0.265599
vn 0.863603 0.415321 -0.285828
vn -0.823511 0.566402 0.031905
vn -0.838518 0.544372 0.023378
vn -0.899099 0.422814 -0.113356
vn -0.176805 0.984225 -0.006396
vn -0.203775 0.978984 -0.008168
vn -0.896134 0.395434 -0.201435
vn 0.967533 0.250985 -0.029763
vn 0.931845 0.323495 -0.164362
vn -0.977183 0.211795 -0.016028
vn -0.831892 0.516370 -0.203267
vn 0.790908 0.383632 -0.476751
vn 0.832772 0.160869 -0.529729
vn -0.978386 0.134772 0.156838
vn -0.983730 0.126627 0.127438
vn -0.857161 0.515049 0.000461
vn -0.866586 0.456817 -0.200866
vn -0.982390 0.134124 -0.130077
vn -0.962899 0.132824 -0.234912
vn -0.866936 0.411660 -0.280996
vn -0.863395 0.503542 -0.031522
vn -0.873975 0.472500 -0.113633
vn -0.973254 0.161890 0.162999
vn -0.835778 0.532026 0.135731
vn 0.910207 0.349910 -0.221556
vn 0.958433 0.206539 0.196844
vn 0.968540 0.234377 0.083650
vn 0.000000 0.999742 -0.022713
vn 0.000000 1.000000 0.000000
vn 0.000000 0.999790 -0.020515
vn 0.000000 0.999079 -0.042911
vn -0.000000 0.999811 0.019467
vn 0.000000 0.999119 0.041972
vn -0.089455 0.995903 0.013209
vn 0.000000 0.999999 0.001524
vn -0.000000 -0.999969 0.007811
vn -0.000000 -0.999980 0.006360
vn -0.000000 -0.999987 0.005043
vn -0.000000 -0.999992 0.003948
vn -0.000000 -1.000000 0.000379
vn -0.000000 -0.999990 0.004400
vn -0.963189 -0.236405 0.127986
vn -0.822528 -0.559746 0.100661
vn -0.822263 -0.540603 0.177853
vn -0.950421 -0.222177 0.217572
vn -0.702552 -0.704065 -0.103510
vn -0.156470 -0.987554 -0.015961
vn -0.175770 -0.984394 -0.008541
vn -0.744953 -0.662990 -0.074094
vn -0.782592 -0.620338 -0.052262
vn -0.199752 -0.979837 -0.004356
vn -0.223079 -0.974711 0.013216
vn -0.806653 -0.590628 0.021665
vn 0.139934 -0.989981 -0.018862
vn -0.000000 -0.999996 0.002889
vn -0.240482 -0.970035 0.034643
vn -0.260468 -0.963742 0.057945
vn -0.995110 0.010060 -0.098263
vn -0.971602 -0.224929 -0.073456
vn -0.972202 -0.231561 0.034682
vn -0.999950 -0.000529 0.010021
vn -0.979458 0.045358 -0.196479
vn -0.954603 -0.251968 -0.158887
vn -0.964242 -0.239410 -0.113665
vn -0.988195 0.026480 -0.150898
vn -0.679356 -0.723307 -0.123698
vn -0.139932 -0.989981 -0.018862
vn -0.991517 -0.022294 0.128049
vn -0.967719 -0.217297 0.127678
vn -0.951062 -0.218515 0.218478
vn -0.972951 -0.016345 0.230433
vn -0.966311 -0.247612 -0.070226
vn -0.971582 -0.235429 0.024525
vn -0.952038 -0.260868 -0.159911
vn -0.962385 -0.247086 -0.112979
vn -0.973613 0.075435 -0.215376
vn -0.942517 -0.279785 -0.182709
vn -0.931846 0.323495 -0.164362
vn -0.967533 0.250985 -0.029763
vn -0.937029 -0.302853 -0.173943
vn 0.988704 0.123758 0.084552
vn 0.991139 0.131824 -0.016313
vn 0.892268 0.451035 -0.020619
vn 0.882673 0.466685 0.055623
vn 0.851591 0.510998 0.116940
vn 0.864498 0.496153 0.080478
vn 0.116854 0.992665 -0.031003
vn 0.104545 0.994484 -0.008487
vn 0.155197 0.987874 -0.004375
vn 0.135780 0.990645 -0.013665
vn -0.881574 0.390708 -0.264906
vn 0.836924 0.546808 0.023647
vn 0.818926 0.572992 0.032266
vn -0.860678 0.422640 -0.283917
vn 0.899099 0.422814 -0.113356
vn 0.896134 0.395434 -0.201435
vn 0.203772 0.978984 -0.008167
vn 0.176803 0.984225 -0.006396
vn 0.857160 0.515050 0.000461
vn 0.983730 0.126627 0.127438
vn 0.978390 0.132912 0.158388
vn 0.835778 0.532027 0.135731
vn 0.089454 0.995903 0.013209
vn 0.866586 0.456817 -0.200866
vn 0.866936 0.411660 -0.280996
vn 0.962899 0.132824 -0.234912
vn 0.982390 0.134124 -0.130077
vn 0.973809 0.155066 0.166283
vn 0.863395 0.503543 -0.031522
vn 0.873974 0.472500 -0.113633
vn -0.910207 0.349909 -0.221556
vn -0.968540 0.234377 0.083650
vn -0.958433 0.206539 0.196844
vn 0.828313 0.520162 -0.208155
vn 0.978540 0.204792 -0.022790
vn -0.827417 0.149858 -0.541224
vn -0.786691 0.390436 -0.478202
vn -0.925046 -0.338009 -0.173320
vn -0.942479 -0.283718 -0.176741
vn -0.644175 -0.756293 -0.114281
vn -0.111024 -0.993717 -0.014126
vn -0.000000 -0.999996 0.002889
vn 0.111026 -0.993717 -0.014126
vn 0.644176 -0.756292 -0.114281
vn 0.942479 -0.283718 -0.176741
vn 0.925046 -0.338009 -0.173319
vn -0.789863 0.600306 0.125497
vn -0.067788 0.997649 0.010111
vn 0.000000 0.999999 0.001524
vn 0.067787 0.997649 0.010111
vn 0.789863 0.600306 0.125497
vn 0.833524 0.458181 -0.308719
vn 0.953321 0.121523 -0.276425
vn 0.895461 0.374655 -0.240381
vn 0.184286 0.982821 -0.010114
vn -0.000000 0.999116 0.042039
vn -0.184288 0.982820 -0.010115
vn -0.895461 0.374656 -0.240381
vn -0.953321 0.121524 -0.276425
vn -0.833524 0.458181 -0.308720
vn 0.934017 0.285389 0.214860
vn 0.958602 -0.044227 0.281295
vn 0.951103 -0.168443 0.258902
vn 0.932949 -0.247408 0.261524
vn 0.831591 -0.511371 0.216694
vn 0.238158 -0.969158 0.063353
vn -0.000000 -1.000000 0.000379
vn -0.238156 -0.969159 0.063353
vn -0.831591 -0.511371 0.216694
vn -0.932950 -0.247408 0.261524
vn -0.951103 -0.168444 0.258901
vn -0.958602 -0.044227 0.281295
vn -0.934017 0.285390 0.214861
vn 0.033575 -0.141108 0.989425
vn 0.045689 -0.135492 0.989724
vn 0.049743 -0.130110 0.990251
vn 0.036476 -0.142591 0.989109
vn 0.069352 -0.125967 0.989607
vn 0.074626 -0.105939 0.991568
vn 0.089204 -0.068587 0.993649
vn 0.064570 -0.098122 0.993077
vn 0.044949 -0.115462 0.992294
vn 0.032361 0.141819 -0.989363
vn 0.036494 0.138979 -0.989623
vn 0.038390 0.144910 -0.988700
vn 0.033519 0.152834 -0.987683
vn 0.019271 0.144112 -0.989374
vn 0.023193 0.150429 -0.988349
vn 0.023927 0.178162 -0.983710
vn 0.035058 0.176283 -0.983715
vn 0.030153 0.187987 -0.981709
vn -0.032362 0.141819 -0.989363
vn -0.019013 0.145091 -0.989236
vn -0.018985 0.160793 -0.986806
vn -0.033519 0.152834 -0.987683
vn -0.000000 0.146284 -0.989243
vn -0.000000 0.163362 -0.986566
vn -0.000000 0.197271 -0.980349
vn -0.016777 0.195112 -0.980637
vn -0.030153 0.187988 -0.981708
vn -0.033574 -0.141109 0.989425
vn -0.019203 -0.144803 0.989274
vn -0.019971 -0.151938 0.988188
vn -0.036477 -0.142590 0.989109
vn 0.000000 -0.146102 0.989270
vn 0.000000 -0.154921 0.987927
vn 0.000000 -0.134646 0.990894
vn -0.023004 -0.129993 0.991248
vn -0.044951 -0.115460 0.992294
vn -0.042195 -0.155257 0.986973
vn -0.023006 -0.148931 0.988580
vn -0.021224 -0.130674 0.991198
vn -0.038558 -0.134057 0.990223
vn 0.000000 -0.146288 0.989242
vn 0.000000 -0.129526 0.991576
vn 0.000001 -0.128147 0.991755
vn -0.020063 -0.128743 0.991475
vn -0.035754 -0.130911 0.990749
vn -0.040618 0.153076 -0.987379
vn -0.022772 0.147475 -0.988804
vn -0.021146 0.130372 -0.991240
vn -0.037412 0.133533 -0.990338
vn 0.000000 0.145118 -0.989414
vn 0.000000 0.129297 -0.991606
vn 0.000000 0.128144 -0.991756
vn -0.020027 0.128753 -0.991474
vn -0.034756 0.130951 -0.990780
vn 0.040617 0.153076 -0.987379
vn 0.047916 0.156546 -0.986508
vn 0.043888 0.137067 -0.989589
vn 0.037411 0.133533 -0.990338
vn 0.030823 0.148254 -0.988469
vn 0.028380 0.136685 -0.990208
vn 0.025260 0.136616 -0.990302
vn 0.040157 0.134279 -0.990130
vn 0.034755 0.130951 -0.990780
vn 0.042196 -0.155257 0.986973
vn 0.058212 -0.162194 0.985040
vn 0.052849 -0.138903 0.988895
vn 0.038558 -0.134057 0.990223
vn 0.084094 -0.173474 0.981241
vn 0.076519 -0.145656 0.986372
vn 0.070615 -0.138721 0.987811
vn 0.048477 -0.134521 0.989724
vn 0.035753 -0.130911 0.990749
vn -0.770253 0.637409 0.020490
vn -0.521922 0.834783 0.175311
vn -0.924204 0.353584 -0.144310
vn -0.787309 0.176047 0.590891
vn -0.673865 0.463679 0.575246
vn -0.484271 0.730320 0.481782
vn -0.019338 -0.134542 0.990719
vn -0.033763 -0.135145 0.990251
vn 0.000000 -0.134489 0.990915
vn -0.019256 0.134710 -0.990698
vn -0.032724 0.135537 -0.990232
vn 0.000001 0.134590 -0.990901
vn 0.036985 0.137494 -0.989812
vn 0.032723 0.135537 -0.990232
vn 0.021125 0.140889 -0.989800
vn 0.045427 -0.136403 0.989611
vn 0.033763 -0.135145 0.990250
vn 0.067645 -0.136720 0.988297
vn -0.942412 -0.134880 -0.306052
vn -0.951641 -0.010486 -0.307032
vn -0.883859 -0.368743 -0.287787
vn -0.786680 -0.440444 0.432601
vn -0.822161 -0.234637 0.518649
vn -0.817149 -0.129266 0.561745
vn -0.959120 0.116254 -0.258018
vn -0.816491 -0.029656 0.576596
vn 0.050664 -0.244433 0.968342
vn 0.070995 -0.255593 0.964174
vn 0.062999 -0.200384 0.977690
vn 0.046132 -0.191945 0.980321
vn 0.097266 -0.275755 0.956294
vn 0.089457 -0.219416 0.971522
vn 0.042951 0.156772 -0.986701
vn 0.047753 0.164183 -0.985273
vn 0.051008 0.179966 -0.982349
vn 0.043403 0.176248 -0.983388
vn 0.035016 0.155415 -0.987229
vn 0.035774 0.165472 -0.985565
vn -0.042951 0.156771 -0.986701
vn -0.025508 0.147475 -0.988737
vn -0.024718 0.167669 -0.985533
vn -0.043404 0.176249 -0.983388
vn 0.000000 0.143237 -0.989688
vn 0.000000 0.163758 -0.986501
vn -0.050664 -0.244433 0.968342
vn -0.028025 -0.231420 0.972450
vn -0.025397 -0.181762 0.983014
vn -0.046132 -0.191945 0.980321
vn 0.000000 -0.225521 0.974238
vn 0.000000 -0.177108 0.984191
vn -0.097263 -0.275752 0.956295
vn -0.070993 -0.255593 0.964174
vn -0.062997 -0.200383 0.977690
vn -0.089455 -0.219416 0.971522
vn -0.058210 -0.162194 0.985041
vn -0.084094 -0.173475 0.981242
vn 0.025508 0.147475 -0.988737
vn 0.024718 0.167669 -0.985534
vn 0.022772 0.147475 -0.988804
vn 0.020026 0.128753 -0.991475
vn 0.019255 0.134711 -0.990698
vn 0.019013 0.145092 -0.989236
vn -0.070614 -0.138721 0.987811
vn -0.048476 -0.134520 0.989724
vn -0.045426 -0.136403 0.989611
vn -0.067644 -0.136720 0.988298
vn -0.045688 -0.135492 0.989725
vn -0.069351 -0.125967 0.989607
vn 0.021146 0.130372 -0.991240
vn -0.052848 -0.138903 0.988895
vn -0.076519 -0.145656 0.986372
vn -0.049743 -0.130111 0.990251
vn -0.074625 -0.105938 0.991569
vn -0.064569 -0.098118 0.993078
vn -0.089205 -0.068586 0.993649
vn 0.018985 0.160793 -0.986805
vn 0.016777 0.195111 -0.980638
vn -0.035016 0.155417 -0.987228
vn -0.047753 0.164182 -0.985274
vn -0.051010 0.179967 -0.982349
vn -0.035774 0.165470 -0.985566
vn -0.047917 0.156546 -0.986508
vn -0.030824 0.148254 -0.988469
vn 0.028025 -0.231420 0.972450
vn 0.025397 -0.181762 0.983015
vn 0.023007 -0.148931 0.988580
vn 0.020063 -0.128743 0.991475
vn 0.019339 -0.134542 0.990719
vn 0.019203 -0.144803 0.989274
vn -0.025261 0.136615 -0.990302
vn -0.040158 0.134279 -0.990130
vn -0.036986 0.137495 -0.989812
vn -0.021126 0.140890 -0.989800
vn -0.036495 0.138979 -0.989623
vn -0.019273 0.144112 -0.989374
vn 0.021224 -0.130674 0.991198
vn -0.043889 0.137068 -0.989589
vn -0.028382 0.136685 -0.990208
vn -0.038392 0.144909 -0.988700
vn -0.023193 0.150429 -0.988349
vn -0.035059 0.176282 -0.983715
vn -0.023929 0.178160 -0.983711
vn 0.019971 -0.151938 0.988188
vn 0.023003 -0.129994 0.991248
vn 0.521923 0.834783 0.175310
vn 0.770253 0.637409 0.020489
vn 0.484271 0.730320 0.481782
vn 0.673866 0.463678 0.575246
vn 0.924204 0.353584 -0.144310
vn 0.191963 -0.937691 -0.289630
vn 0.063289 -0.934261 -0.350929
vn 0.465798 -0.868877 -0.167587
vn -0.305903 0.950899 0.047067
vn -0.179288 0.982761 -0.045134
vn 0.000000 0.994629 -0.103506
vn 0.085100 0.992080 -0.092388
vn 0.000000 0.847965 0.530052
vn 0.092930 0.849969 0.518572
vn 0.179288 0.982761 -0.045134
vn 0.188268 0.843758 0.502620
vn 0.000000 -0.924880 -0.380258
vn -0.021342 -0.927516 -0.373175
vn 0.000000 -0.988159 0.153433
vn -0.033349 -0.987676 0.152920
vn -0.063289 -0.934261 -0.350929
vn -0.079824 -0.984374 0.156961
vn 0.951641 -0.010486 -0.307033
vn 0.942412 -0.134880 -0.306051
vn 0.817149 -0.129266 0.561746
vn 0.822161 -0.234636 0.518649
vn 0.883859 -0.368743 -0.287787
vn 0.786679 -0.440445 0.432602
vn 0.959120 0.116255 -0.258017
vn 0.787309 0.176047 0.590891
vn 0.816490 -0.029657 0.576598
vn 0.723917 -0.644984 -0.244828
vn 0.659625 -0.685577 0.308024
vn 0.430531 -0.889975 0.150290
vn -0.191964 -0.937691 -0.289630
vn -0.188406 -0.969834 0.154680
vn -0.465799 -0.868877 -0.167587
vn -0.430532 -0.889975 0.150291
vn -0.085100 0.992080 -0.092389
vn -0.188268 0.843758 0.502621
vn -0.092930 0.849969 0.518572
vn 0.305902 0.950899 0.047066
vn 0.298919 0.814589 0.497084
vn 0.021343 -0.927516 -0.373174
vn 0.079824 -0.984374 0.156961
vn 0.033349 -0.987676 0.152920
vn -0.723917 -0.644983 -0.244829
vn -0.659625 -0.685577 0.308024
vn 0.188406 -0.969834 0.154680
vn -0.298920 0.814588 0.497085
vn -0.480109 0.326368 0.814236
vn -0.473925 0.513922 -0.715038
vn -0.565074 0.000584 -0.825040
vn -0.566118 -0.208298 0.797573
vn -0.000642 0.127038 -0.991898
vn -0.003900 0.646710 -0.762726
vn 0.443245 0.512587 -0.735383
vn 0.522990 0.011784 -0.852257
vn 0.231733 -0.550838 -0.801796
vn 0.240237 -0.760812 0.602870
vn 0.039098 -0.640864 0.766658
vn 0.033647 -0.420896 -0.906485
vn 0.002519 0.436757 0.899576
vn 0.004359 0.642973 -0.765876
vn -0.003865 -0.142123 0.989841
vn -0.000983 -0.127424 0.991848
vn -0.474250 -0.523383 0.707925
vn -0.003316 0.140509 -0.990074
vn 0.440253 -0.278481 -0.853596
vn 0.441049 0.319060 0.838854
vn 0.515814 -0.203204 0.832252
vn -0.471425 -0.312385 -0.824727
vn -0.035578 -0.627606 0.777718
vn -0.282295 -0.786725 0.548975
vn -0.003406 0.410757 0.911739
vn -0.003076 0.443249 0.896393
vn -0.005087 0.620145 -0.784471
vn 0.000983 0.127424 -0.991848
vn 0.435670 -0.496378 0.750866
vn -0.266469 -0.582809 -0.767677
vn -0.035263 -0.411020 -0.910944
vn -0.001206 0.127953 -0.991779
vn 0.000642 -0.127038 0.991898
vn 0.001206 -0.127954 0.991779
vn 0.007530 -0.632541 0.774490
vn 0.006019 -0.415047 -0.909780
vn 0.003316 -0.140508 0.990074
vn -0.001419 0.133986 -0.990982
vn 0.003865 0.142123 -0.989841
vn -0.001058 0.621813 -0.783165
vn -0.000248 0.127609 -0.991825
vn -0.000714 0.413430 0.910536
vn 0.001564 -0.629120 0.777306
vn 0.000292 -0.132877 0.991132
vn 0.000248 -0.127609 0.991825
vn 0.001419 -0.133986 0.990982
vn 0.001233 -0.411247 -0.911523
vn -0.000292 0.132877 -0.991132
vn -0.855259 -0.506671 -0.108704
vn -0.839414 -0.473455 -0.266881
vn -0.000625 -0.990455 -0.137833
vn -0.048129 -0.998793 0.009790
vn -0.734303 0.514488 -0.442834
vn 0.619533 -0.780962 -0.079230
vn -0.774814 0.349155 0.527024
vn -0.772836 -0.513661 0.372662
vn 0.003571 -0.977610 0.210394
vn 0.702428 -0.689799 0.175419
vn -0.851947 -0.517590 0.079293
vn -0.889982 0.449465 0.076904
vn 0.692131 -0.717033 -0.082571
vn -0.112340 -0.993510 0.017812
vn 0.650275 -0.753657 0.095622
vn 0.687817 -0.724734 0.040856
vn -0.058103 -0.998284 0.007328
vn -0.852400 -0.521504 -0.038042
vn -0.869328 0.491299 -0.053797
vn -0.838520 0.527079 -0.138099
vn 0.094212 0.122789 -0.987951
vn -0.474711 0.506372 -0.719887
vn -0.474711 0.506373 -0.719886
vn 0.094212 0.122790 -0.987951
vn -0.793378 0.608730 -0.000001
vn -0.793377 0.608730 -0.000002
vn -0.612012 0.327430 0.719882
vn -0.612011 0.327430 0.719883
vn -0.094212 -0.122790 0.987951
vn -0.094212 -0.122790 0.987951
vn 0.474715 -0.506375 0.719882
vn 0.474714 -0.506374 0.719884
vn 0.793378 -0.608730 0.000002
vn 0.793378 -0.608730 0.000001
vn 0.612009 -0.327428 -0.719886
vn 0.612009 -0.327428 -0.719886
vn -0.094212 0.122789 -0.987951
vn -0.094212 0.122790 -0.987951
vn 0.474711 0.506372 -0.719886
vn 0.474711 0.506372 -0.719887
vn 0.793378 0.608730 -0.000003
vn 0.793378 0.608730 -0.000001
vn 0.612011 0.327430 0.719883
vn 0.612012 0.327430 0.719882
vn 0.094212 -0.122790 0.987951
vn 0.094212 -0.122790 0.987951
vn -0.474714 -0.506374 0.719884
vn -0.474715 -0.506375 0.719882
vn -0.793378 -0.608730 0.000001
vn -0.793378 -0.608730 0.000002
vn -0.612009 -0.327428 -0.719886
vn -0.612009 -0.327428 -0.719886
vn 0.104698 -0.172652 -0.979403
vn 0.104698 -0.172653 -0.979403
vn 0.667287 0.234180 -0.707027
vn 0.667288 0.234181 -0.707027
vn 0.855065 0.518522 0.000003
vn 0.855065 0.518522 0.000003
vn 0.516126 0.483454 0.707026
vn 0.516126 0.483454 0.707026
vn -0.104697 0.172653 0.979403
vn -0.104698 0.172653 0.979403
vn -0.667289 -0.234179 0.707026
vn -0.667289 -0.234179 0.707026
vn -0.855065 -0.518521 0.000001
vn -0.855065 -0.518521 0.000002
vn -0.516121 -0.483455 -0.707030
vn -0.516122 -0.483455 -0.707029
vn 0.000001 -0.109542 -0.993982
vn 0.000001 -0.109542 -0.993982
vn 0.657249 0.159696 -0.736560
vn 0.657250 0.159696 -0.736560
vn 0.939601 0.340213 -0.037494
vn 0.939601 0.340213 -0.037495
vn 0.657250 0.316262 0.684106
vn 0.657250 0.316262 0.684106
vn 0.000001 0.109544 0.993982
vn 0.000001 0.109544 0.993982
vn -0.657250 -0.159696 0.736559
vn -0.657251 -0.159696 0.736559
vn -0.939601 -0.340213 0.037492
vn -0.939601 -0.340213 0.037493
vn -0.657250 -0.316261 -0.684107
vn -0.657250 -0.316261 -0.684106
vn -0.445161 -0.175528 -0.878079
vn -0.529446 0.306282 0.791124
vn -0.441591 0.416785 0.794536
vn -0.461660 0.143248 -0.875414
vn 0.468157 0.875353 0.120773
vn -0.465883 0.877600 0.113010
vn -0.470693 -0.874878 0.114177
vn 0.460820 -0.879495 0.118881
vn 0.441591 0.416785 0.794536
vn 0.461660 0.143248 -0.875414
vn 0.457772 0.889069 0.000940
vn -0.454721 0.890602 0.007499
vn 0.462872 -0.886425 0.000950
vn 0.451389 -0.892270 -0.010121
vn 0.445788 0.894884 0.021339
vn 0.432909 0.901432 -0.003083
vn 0.451406 -0.892313 -0.003214
vn -0.453618 -0.891165 0.007475
vn -0.457665 0.889123 0.001627
vn -0.436187 -0.899855 0.001553
vn -0.469185 0.883012 0.012482
vn 0.389201 -0.899281 -0.199542
vn 0.534898 0.826251 0.176619
vn -0.534159 0.829616 0.162515
vn -0.429636 -0.902826 -0.017813
vn 0.414263 -0.699201 -0.582671
vn 0.540673 0.676354 0.500218
vn -0.381126 -0.901232 -0.206213
vn -0.540673 0.676354 0.500218
vn 0.445160 -0.175527 -0.878079
vn 0.529446 0.306283 0.791124
vn 0.549164 0.489450 0.677391
vn 0.426901 -0.457705 -0.779911
vn -0.414263 -0.699200 -0.582671
vn -0.549164 0.489450 0.677391
vn -0.426900 -0.457705 -0.779912
vn 0.855259 -0.506671 -0.108704
vn 0.048129 -0.998793 0.009790
vn 0.000625 -0.990455 -0.137833
vn 0.839414 -0.473455 -0.266881
vn -0.619533 -0.780962 -0.079230
vn 0.734303 0.514488 -0.442834
vn 0.774814 0.349155 0.527024
vn -0.702428 -0.689799 0.175419
vn -0.003570 -0.977610 0.210394
vn 0.772836 -0.513661 0.372662
vn 0.851947 -0.517590 0.079293
vn 0.889981 0.449465 0.076904
vn -0.692131 -0.717033 -0.082571
vn 0.112340 -0.993510 0.017812
vn -0.650275 -0.753657 0.095622
vn 0.058103 -0.998284 0.007328
vn -0.687817 -0.724734 0.040856
vn 0.838521 0.527079 -0.138099
vn 0.869328 0.491299 -0.053797
vn 0.852400 -0.521504 -0.038042
vn -0.104700 -0.172653 -0.979402
vn -0.667288 0.234181 -0.707026
vn -0.667288 0.234180 -0.707027
vn -0.104699 -0.172653 -0.979402
vn -0.855065 0.518521 0.000003
vn -0.855065 0.518521 0.000003
vn -0.516125 0.483454 0.707027
vn -0.516125 0.483454 0.707027
vn 0.104698 0.172653 0.979403
vn 0.104697 0.172653 0.979403
vn 0.667288 -0.234179 0.707027
vn 0.667288 -0.234179 0.707026
vn 0.855065 -0.518521 0.000001
vn 0.855065 -0.518521 0.000001
vn 0.516122 -0.483455 -0.707029
vn 0.516120 -0.483455 -0.707030
vn 0.445161 -0.175528 -0.878079
vn 0.461660 0.143248 -0.875414
vn 0.441591 0.416785 0.794536
vn 0.529446 0.306282 0.791124
vn -0.468157 0.875353 0.120773
vn -0.460820 -0.879495 0.118881
vn 0.470693 -0.874878 0.114177
vn 0.465883 0.877600 0.113010
vn -0.441591 0.416785 0.794536
vn -0.461660 0.143248 -0.875414
vn -0.457772 0.889069 0.000940
vn 0.454721 0.890602 0.007499
vn -0.462872 -0.886425 0.000950
vn -0.451389 -0.892270 -0.010121
vn -0.451406 -0.892313 -0.003214
vn -0.432909 0.901432 -0.003083
vn -0.445788 0.894884 0.021339
vn 0.453618 -0.891165 0.007475
vn 0.436187 -0.899855 0.001553
vn 0.457665 0.889123 0.001627
vn 0.469185 0.883012 0.012482
vn -0.389201 -0.899281 -0.199541
vn -0.534898 0.826251 0.176619
vn 0.534159 0.829616 0.162515
vn 0.429636 -0.902826 -0.017813
vn -0.414263 -0.699201 -0.582671
vn -0.540673 0.676353 0.500218
vn 0.381126 -0.901232 -0.206213
vn 0.540673 0.676354 0.500218
vn -0.445160 -0.175527 -0.878079
vn -0.426901 -0.457705 -0.779911
vn -0.549164 0.489450 0.677391
vn -0.529446 0.306283 0.791124
vn 0.414263 -0.699200 -0.582671
vn 0.426900 -0.457705 -0.779912
vn 0.549164 0.489450 0.677391
vn 0.000001 0.117828 -0.993034
vn -0.000001 0.117827 -0.993034
vn 0.626276 0.383989 -0.678477
vn 0.626277 0.383989 -0.678476
vn 0.901097 0.430597 0.051092
vn 0.901097 0.430597 0.051092
vn 0.626276 0.214554 0.749496
vn 0.626276 0.214554 0.749496
vn -0.000003 -0.117829 0.993034
vn -0.000002 -0.117828 0.993034
vn -0.626274 -0.383988 0.678479
vn -0.626275 -0.383989 0.678478
vn -0.901097 -0.430597 -0.051092
vn -0.901097 -0.430597 -0.051092
vn -0.626275 -0.214553 -0.749498
vn -0.626275 -0.214553 -0.749497
vn -0.000001 0.117828 -0.993034
vn -0.626277 0.383989 -0.678476
vn -0.626276 0.383989 -0.678477
vn 0.000001 0.117827 -0.993034
vn -0.901097 0.430597 0.051092
vn -0.901097 0.430597 0.051092
vn -0.626277 0.214554 0.749496
vn -0.626276 0.214554 0.749496
vn 0.000002 -0.117829 0.993034
vn 0.000003 -0.117829 0.993034
vn 0.626275 -0.383989 0.678478
vn 0.626274 -0.383988 0.678479
vn 0.901097 -0.430597 -0.051092
vn 0.901097 -0.430597 -0.051092
vn 0.626275 -0.214553 -0.749497
vn 0.626275 -0.214553 -0.749498
vn -0.000001 -0.109542 -0.993982
vn -0.657249 0.159696 -0.736560
vn -0.657249 0.159696 -0.736560
vn -0.000001 -0.109542 -0.993982
vn -0.939601 0.340213 -0.037495
vn -0.939601 0.340213 -0.037494
vn -0.657251 0.316262 0.684105
vn -0.657250 0.316261 0.684106
vn -0.000001 0.109544 0.993982
vn -0.000001 0.109544 0.993982
vn 0.657251 -0.159696 0.736559
vn 0.657251 -0.159695 0.736559
vn 0.939601 -0.340213 0.037493
vn 0.939601 -0.340213 0.037492
vn 0.657250 -0.316261 -0.684107
vn 0.657249 -0.316261 -0.684107
vn -0.077286 -0.306244 0.948811
vn -0.001906 -0.306747 0.951789
vn 0.004085 0.656761 0.754088
vn -0.075134 0.654692 0.752152
vn 0.001928 0.309070 -0.951037
vn -0.075963 0.307762 -0.948426
vn -0.004085 -0.655543 -0.755147
vn -0.078116 -0.653762 -0.752657
vn 0.080482 -0.303095 0.949556
vn 0.084777 -0.651796 -0.753641
vn 0.073666 0.310924 -0.947576
vn 0.069409 0.656595 0.751043
vn -0.000369 0.304473 -0.952521
vn 0.000800 -0.657973 -0.753041
vn 0.000382 -0.311373 0.950288
vn -0.000800 0.654356 0.756186
vn -0.128505 0.260259 0.956949
vn 0.128505 0.260259 0.956949
vn 0.334498 0.936889 0.101735
vn -0.334498 0.936889 0.101735
vn -0.334498 -0.936889 -0.101734
vn 0.334498 -0.936889 -0.101734
vn 0.128505 -0.459596 0.878782
vn -0.128505 -0.459596 0.878782
s 1
g Sled_LOW
usemtl lambert7SG
f 48/1/1 189/210/2 190/211/3 18/4/4
f 20/5/5 146/163/6 147/164/7 8/8/8
f 19/6/9 124/139/10 125/140/11 9/7/12
f 42/10/13 121/136/14 122/137/15 14/13/16
f 41/14/17 143/160/18 144/161/19 15/15/20
f 18/4/4 190/211/3 191/212/21 6/9/22
f 43/11/23 187/208/24 188/209/25 13/12/26
f 47/19/27 123/138/28 124/139/10 19/6/9
f 46/20/29 145/162/30 146/163/6 20/5/5
f 167/186/31 41/14/17 15/15/20 166/185/32
f 166/185/32 15/15/20 46/20/29 165/184/33
f 165/184/33 46/20/29 20/5/5 164/183/34
f 34/25/35 39/26/36 117/131/37 118/132/38
f 40/29/39 28/30/40 138/154/41 139/155/42
f 39/26/36 29/31/43 116/130/44 117/131/37
f 7/33/45 168/187/46 169/189/47 27/36/48
f 38/27/49 26/32/50 182/202/51 183/203/52
f 120/134/53 121/136/14 42/10/13 10/118/54
f 31/41/55 24/35/56 4/121/57 45/122/58
f 27/36/48 35/42/59 140/156/60 141/157/61
f 35/42/59 40/29/39 139/155/42 140/156/60
f 25/44/62 33/28/63 184/204/64 185/205/65
f 30/43/66 34/25/35 118/132/38 119/133/67
f 170/190/68 171/191/69 40/29/39 35/42/59
f 142/158/70 143/160/18 41/14/17 7/117/45
f 188/209/25 189/210/2 48/1/1 13/12/26
f 122/137/15 123/138/28 47/19/27 14/13/16
f 186/206/71 187/208/24 43/11/23 5/115/72
f 120/135/53 10/40/54 30/43/66 119/133/67
f 186/207/71 5/39/72 25/44/62 185/205/65
f 142/159/70 7/33/45 27/36/48 141/157/61
f 33/28/63 38/27/49 183/203/52 184/204/64
f 144/161/19 145/162/30 46/20/29 15/15/20
f 29/31/43 52/49/73 115/129/74 116/130/44
f 28/30/40 54/51/75 137/153/76 138/154/41
f 26/32/50 110/50/77 181/201/78 182/202/51
f 172/192/79 173/193/80 54/51/75 28/30/40
f 9/7/12 125/140/11 126/141/81 105/56/82
f 8/8/8 147/164/7 148/165/83 108/57/84
f 6/9/22 191/212/21 192/213/85 107/55/86
f 102/59/87 72/60/88 194/215/89 195/216/90
f 74/63/91 62/64/92 149/166/93 150/167/94
f 73/66/95 63/65/96 127/142/97 128/143/98
f 163/182/99 8/8/8 108/57/84 162/181/100
f 72/60/88 60/67/101 193/214/102 194/215/89
f 96/71/103 68/72/104 130/145/105 131/146/106
f 95/75/107 69/76/108 152/169/109 153/170/110
f 160/179/111 161/180/112 62/64/92 74/63/91
f 97/74/113 67/73/114 196/217/115 197/218/116
f 101/81/117 73/66/95 128/143/98 129/144/118
f 100/82/119 74/63/91 150/167/94 151/168/120
f 157/176/121 158/177/122 69/76/108 95/75/107
f 64/113/123 96/71/103 131/146/106 132/147/124
f 159/178/125 160/179/111 74/63/91 100/82/119
f 88/88/126 112/126/127 113/127/128 93/91/129
f 94/92/130 135/151/131 136/152/132 82/94/133
f 93/91/129 113/127/128 114/128/134 83/93/135
f 61/114/136 81/97/137 155/173/138 156/174/139
f 92/90/140 179/199/141 180/200/142 80/95/143
f 81/97/137 133/149/144 134/150/145 89/103/146
f 175/195/147 94/92/130 82/94/133 174/194/148
f 79/106/149 177/197/150 178/198/151 87/89/152
f 89/103/146 134/150/145 135/151/131 94/92/130
f 176/196/153 155/173/138 81/97/137 89/103/146
f 84/102/154 111/125/155 112/126/127 88/88/126
f 61/96/136 95/75/107 153/170/110 154/171/156
f 176/196/153 89/103/146 94/92/130 175/195/147
f 59/112/157 97/74/113 197/218/116 198/219/158
f 67/73/114 102/59/87 195/216/90 196/217/115
f 68/72/104 101/81/117 129/144/118 130/145/105
f 69/76/108 100/82/119 151/168/120 152/169/109
f 156/175/139 157/176/121 95/75/107 61/96/136
f 132/148/124 111/125/155 84/102/154 64/85/123
f 198/220/158 177/197/150 79/106/149 59/86/157
f 154/172/156 133/149/144 81/97/137 61/114/136
f 87/89/152 178/198/151 179/199/141 92/90/140
f 158/177/122 159/178/125 100/82/119 69/76/108
f 83/93/135 114/128/134 115/129/74 52/49/73
f 82/94/133 136/152/132 137/153/76 54/51/75
f 80/95/143 180/200/142 181/201/78 110/50/77
f 174/194/148 82/94/133 54/51/75 173/193/80
f 63/65/96 105/56/82 126/141/81 127/142/97
f 62/64/92 108/57/84 148/165/83 149/166/93
f 60/67/101 107/55/86 192/213/85 193/214/102
f 78/98/159 85/123/160 99/83/161 58/99/162
f 171/191/69 172/192/79 28/30/40 40/29/39
f 7/117/45 41/14/17 167/186/31 168/188/46
f 164/183/34 20/5/5 8/8/8 163/182/99
f 170/190/68 35/42/59 27/36/48 169/189/47
f 161/180/112 162/181/100 108/57/84 62/64/92
f 111/125/155 79/106/149 87/89/152 112/126/127
f 113/127/128 112/126/127 87/89/152 92/90/140
f 114/128/134 113/127/128 92/90/140 80/95/143
f 115/129/74 114/128/134 80/95/143 110/50/77
f 116/130/44 115/129/74 110/50/77 26/32/50
f 117/131/37 116/130/44 26/32/50 38/27/49
f 118/132/38 117/131/37 38/27/49 33/28/63
f 119/133/67 118/132/38 33/28/63 25/44/62
f 5/39/72 120/135/53 119/133/67 25/44/62
f 5/115/72 43/11/23 121/136/14 120/134/53
f 122/137/15 121/136/14 43/11/23 13/12/26
f 13/12/26 48/1/1 123/138/28 122/137/15
f 124/139/10 123/138/28 48/1/1 18/4/4
f 125/140/11 124/139/10 18/4/4 6/9/22
f 126/141/81 125/140/11 6/9/22 107/55/86
f 127/142/97 126/141/81 107/55/86 60/67/101
f 128/143/98 127/142/97 60/67/101 72/60/88
f 129/144/118 128/143/98 72/60/88 102/59/87
f 130/145/105 129/144/118 102/59/87 67/73/114
f 131/146/106 130/145/105 67/73/114 97/74/113
f 132/147/124 131/146/106 97/74/113 59/112/157
f 59/86/157 79/106/149 111/125/155 132/148/124
f 133/149/144 84/102/154 88/88/126 134/150/145
f 135/151/131 134/150/145 88/88/126 93/91/129
f 136/152/132 135/151/131 93/91/129 83/93/135
f 137/153/76 136/152/132 83/93/135 52/49/73
f 138/154/41 137/153/76 52/49/73 29/31/43
f 139/155/42 138/154/41 29/31/43 39/26/36
f 140/156/60 139/155/42 39/26/36 34/25/35
f 141/157/61 140/156/60 34/25/35 30/43/66
f 10/40/54 142/159/70 141/157/61 30/43/66
f 10/118/54 42/10/13 143/160/18 142/158/70
f 144/161/19 143/160/18 42/10/13 14/13/16
f 14/13/16 47/19/27 145/162/30 144/161/19
f 146/163/6 145/162/30 47/19/27 19/6/9
f 147/164/7 146/163/6 19/6/9 9/7/12
f 148/165/83 147/164/7 9/7/12 105/56/82
f 149/166/93 148/165/83 105/56/82 63/65/96
f 150/167/94 149/166/93 63/65/96 73/66/95
f 151/168/120 150/167/94 73/66/95 101/81/117
f 152/169/109 151/168/120 101/81/117 68/72/104
f 153/170/110 152/169/109 68/72/104 96/71/103
f 154/171/156 153/170/110 96/71/103 64/113/123
f 64/85/123 84/102/154 133/149/144 154/172/156
f 156/174/139 155/173/138 78/98/159 58/99/162
f 58/119/162 99/120/161 157/176/121 156/175/139
f 99/120/161 65/84/163 158/177/122 157/176/121
f 65/84/163 104/87/164 159/178/125 158/177/122
f 104/87/164 70/77/165 160/179/111 159/178/125
f 70/77/165 57/78/166 161/180/112 160/179/111
f 57/78/166 51/69/167 162/181/100 161/180/112
f 3/68/168 163/182/99 162/181/100 51/69/167
f 16/24/169 164/183/34 163/182/99 3/68/168
f 50/23/170 165/184/33 164/183/34 16/24/169
f 11/22/171 166/185/32 165/184/33 50/23/170
f 45/21/58 167/186/31 166/185/32 11/22/171
f 168/188/46 167/186/31 45/21/58 4/34/57
f 169/189/47 168/187/46 4/121/57 24/35/56
f 31/124/55 170/190/68 169/189/47 24/35/56
f 31/124/55 36/47/172 171/191/69 170/190/68
f 36/47/172 23/53/173 172/192/79 171/191/69
f 23/53/173 53/54/174 173/193/80 172/192/79
f 77/105/175 174/194/148 173/193/80 53/54/174
f 90/104/176 175/195/147 174/194/148 77/105/175
f 85/109/160 176/196/153 175/195/147 90/104/176
f 78/98/159 155/173/138 176/196/153 85/109/160
f 177/197/150 76/107/177 86/108/178 178/198/151
f 179/199/141 178/198/151 86/108/178 91/100/179
f 180/200/142 179/199/141 91/100/179 75/101/180
f 181/201/78 180/200/142 75/101/180 109/52/181
f 182/202/51 181/201/78 109/52/181 21/37/182
f 183/203/52 182/202/51 21/37/182 37/38/183
f 184/204/64 183/203/52 37/38/183 32/45/184
f 185/205/65 184/204/64 32/45/184 22/46/185
f 2/48/186 186/207/71 185/205/65 22/46/185
f 2/116/186 44/17/187 187/208/24 186/206/71
f 188/209/25 187/208/24 44/17/187 12/18/188
f 12/18/188 49/2/189 189/210/2 188/209/25
f 190/211/3 189/210/2 49/2/189 17/3/190
f 191/212/21 190/211/3 17/3/190 1/16/191
f 192/213/85 191/212/21 1/16/191 106/58/192
f 193/214/102 192/213/85 106/58/192 55/70/193
f 194/215/89 193/214/102 55/70/193 71/61/194
f 195/216/90 194/215/89 71/61/194 103/62/195
f 196/217/115 195/216/90 103/62/195 66/79/196
f 197/218/116 196/217/115 66/79/196 98/80/197
f 198/219/158 197/218/116 98/80/197 56/110/198
f 56/111/198 76/107/177 177/197/150 198/220/158
s 20
f 246/221/199 284/222/200 361/223/201 287/224/202
f 284/222/200 219/225/203 285/226/204 361/223/201
f 361/223/201 285/226/204 206/227/205 286/228/206
f 287/224/202 361/223/201 286/228/206 239/229/207
f 236/230/208 288/231/209 362/232/210 291/233/211
f 288/231/209 217/234/212 289/235/213 362/232/210
f 362/232/210 289/235/213 200/236/214 290/237/215
f 291/233/211 362/232/210 290/237/215 230/238/216
f 245/239/217 292/240/218 363/241/219 295/242/220
f 292/240/218 221/243/221 293/244/222 363/241/219
f 363/241/219 293/244/222 210/245/223 294/246/224
f 295/242/220 363/241/219 294/246/224 242/247/225
f 235/248/226 296/249/227 364/250/228 299/251/229
f 296/249/227 222/252/230 297/253/231 364/250/228
f 364/250/228 297/253/231 208/254/232 298/255/233
f 299/251/229 364/250/228 298/255/233 231/256/234
f 238/257/235 300/258/236 365/259/237 303/260/238
f 300/258/236 227/261/239 301/262/240 365/259/237
f 365/259/237 301/262/240 216/263/241 302/264/242
f 303/260/238 365/259/237 302/264/242 233/265/243
f 248/266/244 304/267/245 366/268/246 307/269/247
f 304/267/245 226/270/248 305/271/249 366/268/246
f 366/268/246 305/271/249 215/272/250 306/273/251
f 307/269/247 366/268/246 306/273/251 243/274/252
f 237/275/253 308/276/254 367/277/255 311/278/256
f 308/276/254 228/279/257 309/280/258 367/277/255
f 367/277/255 309/280/258 211/281/259 310/282/260
f 311/278/256 367/277/255 310/282/260 234/283/261
f 247/284/262 312/285/263 368/286/264 315/287/265
f 312/285/263 224/288/266 313/289/267 368/286/264
f 368/286/264 313/289/267 213/290/268 314/291/269
f 315/287/265 368/286/264 314/291/269 244/292/270
f 200/236/214 289/235/213 369/293/271 317/294/272
f 289/235/213 217/234/212 316/295/273 369/293/271
f 369/296/271 316/297/273 279/298/274 420/299/275
f 317/300/272 369/296/271 420/299/275 280/301/276
f 233/265/243 302/264/242 370/302/277 319/303/278
f 302/264/242 216/263/241 318/304/279 370/302/277
f 370/302/277 318/304/279 222/252/230 296/249/227
f 319/303/278 370/302/277 296/249/227 235/248/226
f 243/274/252 306/273/251 371/305/280 321/306/281
f 306/273/251 215/272/250 320/307/282 371/305/280
f 371/305/280 320/307/282 221/243/221 292/240/218
f 321/306/281 371/305/280 292/240/218 245/239/217
f 234/283/261 310/282/260 372/308/283 323/309/284
f 310/282/260 211/281/259 322/310/285 372/308/283
f 372/308/283 322/310/285 217/234/212 288/231/209
f 323/309/284 372/308/283 288/231/209 236/230/208
f 244/292/270 314/291/269 373/311/286 325/312/287
f 314/291/269 213/290/268 324/313/288 373/311/286
f 373/311/286 324/313/288 219/225/203 284/222/200
f 325/312/287 373/311/286 284/222/200 246/221/199
f 211/281/259 309/280/258 374/314/289 327/315/290
f 309/280/258 228/279/257 326/316/291 374/314/289
f 374/317/289 326/318/291 277/319/292 418/320/293
f 327/321/290 374/317/289 418/320/293 278/322/294
f 217/234/212 322/310/285 375/323/295 316/295/273
f 322/310/285 211/281/259 327/315/290 375/323/295
f 375/324/295 327/321/290 278/322/294 419/325/296
f 316/297/273 375/324/295 419/325/296 279/298/274
f 241/326/297 328/327/298 376/328/299 330/329/300
f 328/327/298 205/330/301 329/331/302 376/328/299
f 376/328/299 329/331/302 224/288/266 312/285/263
f 330/329/300 376/328/299 312/285/263 247/284/262
f 232/332/303 331/333/304 377/334/305 333/335/306
f 331/333/304 199/336/307 332/337/308 377/334/305
f 377/334/305 332/337/308 228/279/257 308/276/254
f 333/335/306 377/334/305 308/276/254 237/275/253
f 240/338/309 334/339/310 378/340/311 336/341/312
f 334/339/310 209/342/313 335/343/314 378/340/311
f 378/340/311 335/343/314 226/270/248 304/267/245
f 336/341/312 378/340/311 304/267/245 248/266/244
f 229/344/315 337/345/316 379/346/317 339/347/318
f 337/345/316 207/348/319 338/349/320 379/346/317
f 379/346/317 338/349/320 227/261/239 300/258/236
f 339/347/318 379/346/317 300/258/236 238/257/235
f 201/350/321 340/351/322 380/352/323 342/353/324
f 340/351/322 229/344/315 339/347/318 380/352/323
f 380/352/323 339/347/318 238/257/235 341/354/325
f 342/353/324 380/352/323 341/354/325 223/355/326
f 209/342/313 343/356/327 381/357/328 335/343/314
f 343/356/327 232/332/303 333/335/306 381/357/328
f 381/357/328 333/335/306 237/275/253 344/358/329
f 335/343/314 381/357/328 344/358/329 226/270/248
f 215/272/250 345/359/330 382/360/331 320/307/282
f 345/359/330 234/283/261 323/309/284 382/360/331
f 382/360/331 323/309/284 236/230/208 346/361/332
f 320/307/282 382/360/331 346/361/332 221/243/221
f 212/362/333 347/363/334 383/364/335 349/365/336
f 347/363/334 233/265/243 319/303/278 383/364/335
f 383/364/335 319/303/278 235/248/226 348/366/337
f 349/365/336 383/364/335 348/366/337 218/367/338
f 226/270/248 344/358/329 384/368/339 305/271/249
f 344/358/329 237/275/253 311/278/256 384/368/339
f 384/368/339 311/278/256 234/283/261 345/359/330
f 305/271/249 384/368/339 345/359/330 215/272/250
f 223/355/326 341/354/325 385/369/340 350/370/341
f 341/354/325 238/257/235 303/260/238 385/369/340
f 385/369/340 303/260/238 233/265/243 347/363/334
f 350/370/341 385/369/340 347/363/334 212/362/333
f 218/367/338 348/366/337 386/371/342 352/372/343
f 348/366/337 235/248/226 299/251/229 386/371/342
f 386/371/342 299/251/229 231/256/234 351/373/344
f 352/372/343 386/371/342 351/373/344 202/374/345
f 221/243/221 346/361/332 387/375/346 293/244/222
f 346/361/332 236/230/208 291/233/211 387/375/346
f 387/375/346 291/233/211 230/238/216 353/376/347
f 293/244/222 387/375/346 353/376/347 210/245/223
f 203/377/348 354/378/349 388/379/350 356/380/351
f 354/378/349 240/338/309 336/341/312 388/379/350
f 388/379/350 336/341/312 248/266/244 355/381/352
f 356/380/351 388/379/350 355/381/352 225/382/353
f 207/348/319 357/383/354 389/384/355 338/349/320
f 357/383/354 241/326/297 330/329/300 389/384/355
f 389/384/355 330/329/300 247/284/262 358/385/356
f 338/349/320 389/384/355 358/385/356 227/261/239
f 216/263/241 359/386/357 390/387/358 318/304/279
f 359/386/357 244/292/270 325/312/287 390/387/358
f 390/387/358 325/312/287 246/221/199 360/388/359
f 318/304/279 390/387/358 360/388/359 222/252/230
f 214/389/360 249/390/361 391/391/362 251/392/363
f 249/390/361 243/274/252 321/306/281 391/391/362
f 391/391/362 321/306/281 245/239/217 250/393/364
f 251/392/363 391/391/362 250/393/364 220/394/365
f 227/261/239 358/385/356 392/395/366 301/262/240
f 358/385/356 247/284/262 315/287/265 392/395/366
f 392/395/366 315/287/265 244/292/270 359/386/357
f 301/262/240 392/395/366 359/386/357 216/263/241
f 225/382/353 355/381/352 393/396/367 252/397/368
f 355/381/352 248/266/244 307/269/247 393/396/367
f 393/396/367 307/269/247 243/274/252 249/390/361
f 252/397/368 393/396/367 249/390/361 214/389/360
f 220/394/365 250/393/364 394/398/369 254/399/370
f 250/393/364 245/239/217 295/242/220 394/398/369
f 394/398/369 295/242/220 242/247/225 253/400/371
f 254/399/370 394/398/369 253/400/371 204/401/372
f 222/252/230 360/388/359 395/402/373 297/253/231
f 360/388/359 246/221/199 287/224/202 395/402/373
f 395/402/373 287/224/202 239/229/207 255/403/374
f 297/253/231 395/402/373 255/403/374 208/254/232
f 204/401/372 256/404/375 396/405/376 254/399/370
f 396/406/376 256/407/375 268/408/377 409/409/378
f 254/399/370 396/405/376 257/410/379 220/394/365
f 397/411/380 258/412/381 240/338/309 354/378/349
f 259/413/382 397/411/380 354/378/349 203/377/348
f 398/414/383 260/415/384 230/238/216 290/237/215
f 317/294/272 398/414/383 290/237/215 200/236/214
f 210/245/223 261/416/385 399/417/386 294/246/224
f 399/417/386 261/416/385 282/418/387 423/419/388
f 262/420/389 399/417/386 423/419/388 283/421/390
f 294/246/224 399/417/386 262/420/389 242/247/225
f 209/342/313 263/422/391 400/423/392 343/356/327
f 400/424/392 263/425/391 274/426/393 415/427/394
f 264/428/395 400/424/392 415/427/394 275/429/396
f 343/356/327 400/423/392 264/430/395 232/332/303
f 214/389/360 265/431/397 401/432/398 252/397/368
f 401/433/398 265/434/397 270/435/399 411/436/400
f 266/437/401 401/433/398 411/436/400 271/438/402
f 252/397/368 401/432/398 266/439/401 225/382/353
f 220/394/365 257/410/379 402/440/403 251/392/363
f 402/441/403 257/442/379 269/443/404 410/444/405
f 265/434/397 402/441/403 410/444/405 270/435/399
f 251/392/363 402/440/403 265/431/397 214/389/360
f 225/382/353 266/439/401 403/445/406 356/380/351
f 403/446/406 266/437/401 271/438/402 412/447/407
f 259/448/382 403/446/406 412/447/407 272/449/408
f 356/380/351 403/445/406 259/413/382 203/377/348
f 232/332/303 264/430/395 404/450/409 331/333/304
f 404/451/409 264/428/395 275/429/396 416/452/410
f 267/453/411 404/451/409 416/452/410 276/454/412
f 331/333/304 404/450/409 267/455/411 199/336/307
f 230/238/216 260/415/384 405/456/413 353/376/347
f 405/456/413 260/415/384 281/457/414 422/458/415
f 261/416/385 405/456/413 422/458/415 282/418/387
f 353/376/347 405/456/413 261/416/385 210/245/223
f 242/247/225 262/420/389 406/459/416 253/400/371
f 406/459/416 262/420/389 283/421/390 424/460/417
f 268/408/377 256/404/375 406/459/416 424/460/417
f 253/400/371 406/459/416 256/404/375 204/401/372
f 240/338/309 258/412/381 407/461/418 334/339/310
f 407/462/418 258/463/381 273/464/419 414/465/420
f 263/425/391 407/462/418 414/465/420 274/426/393
f 334/339/310 407/461/418 263/422/391 209/342/313
f 228/279/257 332/337/308 408/466/421 326/316/291
f 332/337/308 199/336/307 267/455/411 408/466/421
f 408/467/421 267/468/411 276/454/412 417/469/422
f 326/318/291 408/467/421 417/469/422 277/319/292
f 268/408/377 206/227/205 285/226/204 409/409/378
f 409/409/378 285/226/204 219/225/203 269/443/404
f 410/444/405 269/443/404 219/225/203 324/313/288
f 270/435/399 410/444/405 324/313/288 213/290/268
f 411/436/400 270/435/399 213/290/268 313/289/267
f 271/438/402 411/436/400 313/289/267 224/288/266
f 412/447/407 271/438/402 224/288/266 329/331/302
f 272/449/408 412/447/407 329/331/302 205/330/301
f 205/330/301 328/327/298 413/470/423 272/449/408
f 328/327/298 241/326/297 273/464/419 413/470/423
f 414/465/420 273/464/419 241/326/297 357/383/354
f 274/426/393 414/465/420 357/383/354 207/348/319
f 415/427/394 274/426/393 207/348/319 337/345/316
f 275/429/396 415/427/394 337/345/316 229/344/315
f 416/452/410 275/429/396 229/344/315 340/351/322
f 276/454/412 416/452/410 340/351/322 201/350/321
f 417/469/422 276/454/412 201/350/321 342/353/324
f 277/319/292 417/469/422 342/353/324 223/355/326
f 418/320/293 277/319/292 223/355/326 350/370/341
f 278/322/294 418/320/293 350/370/341 212/362/333
f 419/325/296 278/322/294 212/362/333 349/365/336
f 279/298/274 419/325/296 349/365/336 218/367/338
f 420/299/275 279/298/274 218/367/338 352/372/343
f 280/301/276 420/299/275 352/372/343 202/374/345
f 202/374/345 351/373/344 421/471/424 280/301/276
f 351/373/344 231/256/234 281/457/414 421/471/424
f 422/458/415 281/457/414 231/256/234 298/255/233
f 282/418/387 422/458/415 298/255/233 208/254/232
f 423/419/388 282/418/387 208/254/232 255/403/374
f 283/421/390 423/419/388 255/403/374 239/229/207
f 424/460/417 283/421/390 239/229/207 286/228/206
f 268/408/377 424/460/417 286/228/206 206/227/205
f 396/406/376 409/409/378 269/443/404 257/442/379
f 259/472/382 272/449/408 413/470/423 397/473/380
f 413/470/423 273/464/419 258/463/381 397/473/380
f 317/294/272 280/301/276 421/471/424 398/414/383
f 421/471/424 281/457/414 260/415/384 398/414/383
s 36
f 426/474/425 428/475/426 434/476/427 433/477/428
f 446/478/429 442/479/430 432/480/431 435/481/432
f 431/482/433 429/483/434 443/484/435 441/485/436
f 428/475/426 426/486/425 450/487/437 453/488/438
f 452/489/439 451/490/440 433/491/428 440/492/441
f 447/493/442 446/478/429 435/481/432 438/494/443
f 430/495/444 436/496/445 435/481/432 432/480/431
f 433/477/428 434/476/427 437/497/446 440/498/441
f 441/499/436 447/493/442 438/494/443 431/500/433
f 454/501/447 452/489/439 440/492/441 425/502/448
f 462/503/449 444/504/450 442/479/430 457/505/451
f 434/476/427 428/475/426 453/488/438 455/506/452
f 439/507/453 429/508/434 431/500/433 438/494/443
f 440/498/441 437/497/446 427/509/454 425/510/448
f 451/490/440 450/487/437 426/486/425 433/491/428
f 454/501/447 425/502/448 427/511/454 449/512/455
f 457/505/451 442/479/430 446/478/429 459/513/456
f 436/496/445 439/507/453 438/494/443 435/481/432
f 445/514/457 444/504/450 462/503/449 463/515/458
f 441/485/436 443/484/435 458/516/459 461/517/460
f 429/483/434 439/518/453 448/519/461 443/484/435
f 461/520/460 460/521/462 447/493/442 441/499/436
f 460/521/462 459/513/456 446/478/429 447/493/442
f 439/518/453 436/522/445 445/514/457 448/519/461
f 437/497/446 434/476/427 455/506/452 456/523/463
f 427/509/454 437/497/446 456/523/463 449/524/455
f 442/479/430 444/504/450 430/525/444 432/480/431
f 453/488/438 469/526/464 471/527/465 455/506/452
f 453/488/438 450/487/437 466/528/466 469/526/464
f 470/529/467 468/530/468 452/489/439 454/501/447
f 468/530/468 467/531/469 451/490/440 452/489/439
f 448/519/461 445/514/457 463/515/458 464/532/470
f 443/484/435 448/519/461 464/532/470 458/516/459
f 436/522/445 430/525/444 444/504/450 445/514/457
f 458/516/459 470/529/467 465/533/471 461/517/460
f 472/534/472 471/527/465 459/513/456 460/521/462
f 465/535/471 472/534/472 460/521/462 461/520/460
f 463/515/458 462/503/449 466/528/466 467/531/469
f 466/528/466 450/487/437 451/490/440 467/531/469
f 465/533/471 470/529/467 454/501/447 449/512/455
f 449/524/455 456/523/463 472/534/472 465/535/471
f 456/523/463 455/506/452 471/527/465 472/534/472
f 466/528/466 462/503/449 457/505/451 469/526/464
f 464/532/470 463/515/458 467/531/469 468/530/468
f 458/516/459 464/532/470 468/530/468 470/529/467
f 471/527/465 469/526/464 457/505/451 459/513/456
s 41
f 487/536/473 475/537/474 476/538/475 485/539/476
f 475/537/474 479/540/477 480/541/478 476/538/475
f 477/542/479 473/543/480 474/544/481 478/545/482
f 489/546/483 473/543/480 477/547/479 492/548/484
f 490/549/485 478/550/482 474/544/481 491/551/486
f 488/552/487 484/553/488 482/554/489 485/539/476
f 487/536/473 481/555/490 483/556/491 486/557/492
f 489/546/483 481/555/490 482/554/489 491/551/486
f 475/537/474 487/536/473 486/557/492 479/558/477
f 480/559/478 488/552/487 485/539/476 476/538/475
f 481/555/490 487/536/473 485/539/476 482/554/489
f 473/543/480 489/546/483 491/551/486 474/544/481
f 484/553/488 490/549/485 491/551/486 482/554/489
f 481/555/490 489/546/483 492/548/484 483/556/491
s 43
f 493/560/493 495/561/494 496/562/495 494/563/496
f 495/561/494 497/564/497 498/565/498 496/562/495
f 497/564/497 499/566/499 500/567/500 498/565/498
f 499/566/499 501/568/501 502/569/502 500/567/500
f 501/568/501 503/570/503 504/571/504 502/569/502
f 503/570/503 505/572/505 506/573/506 504/571/504
f 505/574/505 507/575/507 508/576/508 506/577/506
f 507/575/507 493/560/493 494/563/496 508/576/508
s 44
f 509/578/509 510/579/510 512/580/511 511/581/512
f 511/581/512 512/580/511 514/582/513 513/583/514
f 513/583/514 514/582/513 516/584/515 515/585/516
f 515/585/516 516/584/515 518/586/517 517/587/518
f 517/587/518 518/586/517 520/588/519 519/589/520
f 519/589/520 520/588/519 522/590/521 521/591/522
f 521/592/522 522/593/521 524/594/523 523/595/524
f 523/595/524 524/594/523 510/579/510 509/578/509
s 45
f 525/596/525 526/597/526 528/598/527 527/599/528
f 527/599/528 528/598/527 530/600/529 529/601/530
f 529/601/530 530/600/529 532/602/531 531/603/532
f 531/603/532 532/602/531 534/604/533 533/605/534
f 533/605/534 534/604/533 536/606/535 535/607/536
f 535/607/536 536/606/535 538/608/537 537/609/538
f 537/609/538 538/608/537 540/610/539 539/611/540
f 539/612/540 540/613/539 526/597/526 525/596/525
s 46
f 541/614/541 542/615/542 544/616/543 543/617/544
f 543/617/544 544/616/543 546/618/545 545/619/546
f 545/619/546 546/618/545 548/620/547 547/621/548
f 547/621/548 548/620/547 550/622/549 549/623/550
f 549/623/550 550/622/549 552/624/551 551/625/552
f 551/625/552 552/624/551 554/626/553 553/627/554
f 553/627/554 554/626/553 556/628/555 555/629/556
f 555/630/556 556/631/555 542/615/542 541/614/541
s 47
f 587/632/557 585/633/558 560/634/559 559/635/560
f 562/636/561 558/637/562 557/638/563 561/639/564
f 564/640/565 563/641/566 559/642/560 560/643/559
f 582/644/567 583/645/568 558/646/562 562/647/561
f 584/648/569 582/649/567 562/650/561 561/651/564
f 570/652/570 572/653/571 568/654/572 567/655/573
f 581/656/574 583/657/568 566/658/575 565/659/576
f 572/660/571 569/661/577 566/662/575 568/663/572
f 574/664/578 576/665/579 572/653/571 570/652/570
f 576/666/579 573/667/580 569/661/577 572/660/571
f 565/659/576 566/658/575 569/668/577 571/669/581
f 592/670/582 590/671/583 576/665/579 574/664/578
f 571/669/581 569/668/577 573/672/580 575/673/584
f 591/674/585 573/667/580 576/666/579 590/675/583
f 586/676/586 588/677/587 580/678/588 578/679/589
f 589/680/590 591/681/585 577/682/591 579/683/592
f 585/684/558 577/685/591 580/686/588 588/687/587
f 557/688/563 558/689/562 583/657/568 581/656/574
f 571/690/581 570/691/570 567/692/573 565/693/576
f 575/694/584 574/695/578 570/691/570 571/690/581
f 589/696/590 592/697/582 574/695/578 575/694/584
f 587/698/557 586/699/586 578/700/589 579/701/592
f 565/693/576 567/692/573 584/702/569 581/703/574
f 568/663/572 566/662/575 583/645/568 582/644/567
f 581/703/574 584/702/569 561/639/564 557/638/563
f 567/655/573 568/654/572 582/649/567 584/648/569
f 579/683/592 577/682/591 585/633/558 587/632/557
f 564/704/565 560/705/559 585/684/558 588/687/587
f 563/641/566 586/699/586 587/698/557 559/642/560
f 563/706/566 564/707/565 588/677/587 586/676/586
f 578/679/589 580/678/588 590/671/583 592/670/582
f 578/700/589 592/697/582 589/696/590 579/701/592
f 580/686/588 577/685/591 591/674/585 590/675/583
f 575/673/584 573/672/580 591/681/585 589/680/590
s 50
f 607/708/593 605/709/594 596/710/595 595/711/596
f 595/711/596 596/710/595 600/712/597 599/713/598
f 597/714/599 598/715/600 594/716/601 593/717/602
f 609/718/603 612/719/604 597/720/599 593/717/602
f 610/721/605 611/722/606 594/716/601 598/723/600
f 608/724/607 605/709/594 602/725/608 604/726/609
f 607/708/593 606/727/610 603/728/611 601/729/612
f 609/718/603 611/722/606 602/725/608 601/729/612
f 595/711/596 599/730/598 606/727/610 607/708/593
f 600/731/597 596/710/595 605/709/594 608/724/607
f 601/729/612 602/725/608 605/709/594 607/708/593
f 593/717/602 594/716/601 611/722/606 609/718/603
f 604/726/609 602/725/608 611/722/606 610/721/605
f 601/729/612 603/728/611 612/719/604 609/718/603
s 52
f 613/732/613 615/733/614 616/734/615 614/735/616
f 615/733/614 617/736/617 618/737/618 616/734/615
f 617/736/617 619/738/619 620/739/620 618/737/618
f 619/738/619 621/740/621 622/741/622 620/739/620
f 621/740/621 623/742/623 624/743/624 622/741/622
f 623/742/623 625/744/625 626/745/626 624/743/624
f 625/744/625 627/746/627 628/747/628 626/745/626
f 627/748/627 613/732/613 614/735/616 628/749/628
s 53
f 659/750/629 631/751/630 632/752/631 657/753/632
f 634/754/633 633/755/634 629/756/635 630/757/636
f 636/758/637 632/759/631 631/760/630 635/761/638
f 654/762/639 634/763/633 630/764/636 655/765/640
f 656/766/641 633/767/634 634/768/633 654/769/639
f 642/770/642 639/771/643 640/772/644 644/773/645
f 653/774/646 637/775/647 638/776/648 655/777/640
f 644/778/645 640/779/644 638/780/648 641/781/649
f 646/782/650 642/770/642 644/773/645 648/783/651
f 648/784/651 644/778/645 641/781/649 645/785/652
f 637/775/647 643/786/653 641/787/649 638/776/648
f 664/788/654 646/782/650 648/783/651 662/789/655
f 643/786/653 647/790/656 645/791/652 641/787/649
f 663/792/657 662/793/655 648/784/651 645/785/652
f 658/794/658 650/795/659 652/796/660 660/797/661
f 661/798/662 651/799/663 649/800/664 663/801/657
f 657/802/632 660/803/661 652/804/660 649/805/664
f 629/806/635 653/774/646 655/777/640 630/807/636
f 643/808/653 637/809/647 639/810/643 642/811/642
f 647/812/656 643/808/653 642/811/642 646/813/650
f 661/814/662 647/812/656 646/813/650 664/815/654
f 659/816/629 651/817/663 650/818/659 658/819/658
f 637/809/647 653/820/646 656/821/641 639/810/643
f 640/779/644 654/762/639 655/765/640 638/780/648
f 653/820/646 629/756/635 633/755/634 656/821/641
f 639/771/643 656/766/641 654/769/639 640/772/644
f 651/799/663 659/750/629 657/753/632 649/800/664
f 636/822/637 660/803/661 657/802/632 632/823/631
f 635/761/638 631/760/630 659/816/629 658/819/658
f 635/824/638 658/794/658 660/797/661 636/825/637
f 650/795/659 664/788/654 662/789/655 652/796/660
f 650/818/659 651/817/663 661/814/662 664/815/654
f 652/804/660 662/793/655 663/792/657 649/805/664
f 647/790/656 661/798/662 663/801/657 645/791/652
s 59
f 665/826/665 666/827/666 668/828/667 667/829/668
f 667/829/668 668/828/667 670/830/669 669/831/670
f 669/831/670 670/830/669 672/832/671 671/833/672
f 671/833/672 672/832/671 674/834/673 673/835/674
f 673/835/674 674/834/673 676/836/675 675/837/676
f 675/837/676 676/836/675 678/838/677 677/839/678
f 677/840/678 678/841/677 680/842/679 679/843/680
f 679/843/680 680/842/679 666/827/666 665/826/665
s 60
f 681/844/681 683/845/682 684/846/683 682/847/684
f 683/845/682 685/848/685 686/849/686 684/846/683
f 685/848/685 687/850/687 688/851/688 686/849/686
f 687/850/687 689/852/689 690/853/690 688/851/688
f 689/852/689 691/854/691 692/855/692 690/853/690
f 691/854/691 693/856/693 694/857/694 692/855/692
f 693/858/693 695/859/695 696/860/696 694/861/694
f 695/859/695 681/844/681 682/847/684 696/860/696
s 61
f 697/862/697 699/863/698 700/864/699 698/865/700
f 699/863/698 701/866/701 702/867/702 700/864/699
f 701/866/701 703/868/703 704/869/704 702/867/702
f 703/868/703 705/870/705 706/871/706 704/869/704
f 705/870/705 707/872/707 708/873/708 706/871/706
f 707/872/707 709/874/709 710/875/710 708/873/708
f 709/874/709 711/876/711 712/877/712 710/875/710
f 711/878/711 697/862/697 698/865/700 712/879/712
s 62
f 713/880/713 727/881/714 728/882/715 715/883/716
f 715/883/716 728/882/715 725/884/717 717/885/718
f 717/885/718 725/884/717 726/886/719 719/887/720
f 719/887/720 726/886/719 727/888/714 713/889/713
f 714/890/721 720/891/722 718/892/723 716/893/724
f 719/894/720 713/880/713 715/883/716 717/895/718
f 721/896/725 718/897/723 720/898/722 722/899/726
f 723/900/727 722/899/726 720/898/722 714/901/721
f 724/902/728 723/903/727 714/890/721 716/893/724
f 721/896/725 724/902/728 716/893/724 718/897/723
f 725/884/717 721/896/725 722/899/726 726/886/719
f 727/888/714 726/886/719 722/899/726 723/900/727
f 728/882/715 727/881/714 723/903/727 724/902/728
f 725/884/717 728/882/715 724/902/728 721/896/725
s 64
f 731/904/729 732/905/730 734/906/731 733/907/732
f 735/908/733 736/909/734 730/910/735 729/911/736
f 730/910/735 736/912/734 734/913/731 732/905/730
f 735/914/733 729/911/736 731/904/729 733/915/732
f 731/904/729 729/911/736 730/910/735 732/905/730
