# Blender 5.1.1
# www.blender.org
mtllib Tornado7.mtl
o Cylinder
v -0.540681 1.867146 -0.736923
v -1.039222 3.643385 -0.497739
v -0.902160 5.733856 1.006589
v 0.348946 7.532230 1.988917
v 1.978269 9.202031 1.957075
v 1.544643 9.201175 2.259870
v -0.021624 7.533537 2.048006
v -1.126036 5.734937 0.781190
v -0.978216 3.643460 -0.711167
v -0.362656 1.867162 -0.830783
v 1.060217 9.200355 2.471807
v -0.400095 7.534577 2.035520
v -1.298726 5.736197 0.512940
v -0.877557 3.643531 -0.909984
v -0.169068 1.867180 -0.887689
v 0.544623 9.199931 2.584654
v -0.773248 7.535300 1.950248
v -1.410867 5.737583 0.213752
v -0.739201 3.643578 -1.085232
v -0.025050 1.867198 -0.902125
v 0.017587 9.199691 2.594229
v -1.127310 7.535674 1.793407
v -1.456785 5.738822 -0.102273
v -0.569495 3.643601 -1.230563
v 0.085717 1.867217 -0.874847
v -0.500348 9.199607 2.500432
v -1.447813 7.536047 1.568852
v -1.434310 5.739746 -0.419852
v -0.370709 3.643634 -1.340991
v 0.255199 1.867235 -0.812565
v -0.989115 9.199691 2.307237
v -1.712342 7.536728 1.293505
v -1.345904 5.740111 -0.720640
v -0.149361 3.643644 -1.411125
v 0.426794 1.867252 -0.715251
v -1.429836 9.199933 2.022487
v -1.921279 7.537084 0.970190
v -1.198913 5.739767 -0.992666
v 0.078686 3.643649 -1.436947
v 0.573857 1.867267 -0.586218
v -1.805619 9.200318 1.657523
v -2.065521 7.537117 0.609686
v -1.003378 5.738920 -1.223830
v 0.313457 3.643659 -1.417562
v 0.691787 1.867279 -0.431080
v -2.102582 9.200753 1.226706
v -2.137294 7.536851 0.224928
v -0.770759 5.737707 -1.407900
v 0.543787 3.643648 -1.352127
v 0.776960 1.867289 -0.255911
v -2.310297 9.200948 0.746821
v -2.131447 7.536336 -0.169534
v -0.514059 5.736485 -1.541300
v 0.757027 3.643660 -1.243517
v 0.826754 1.867295 -0.067760
v -2.420460 9.201226 0.236311
v -2.045897 7.536506 -0.558154
v -0.240860 5.735300 -1.624698
v 0.946792 3.643658 -1.095118
v 0.839967 1.867304 0.125650
v -2.429250 9.201564 -0.285326
v -1.886585 7.536389 -0.919118
v 0.038161 5.734231 -1.658331
v 1.105592 3.643651 -0.910774
v 0.816302 1.867310 0.317810
v -2.336608 9.201934 -0.798303
v -1.658513 7.535964 -1.240281
v 0.316075 5.733374 -1.643272
v 1.226201 3.643658 -0.697192
v 0.757148 1.867312 0.501707
v -2.146719 9.202149 -1.283243
v -1.369032 7.535247 -1.513180
v 0.586558 5.732823 -1.579888
v 1.299994 3.643648 -0.466019
v 0.664874 1.867309 0.670699
v -1.866537 9.202365 -1.721957
v -1.028381 7.534278 -1.725272
v 0.840883 5.732235 -1.469463
v 1.325110 3.643637 -0.222991
v 0.542189 1.867303 0.818702
v -1.506520 9.202659 -2.097985
v -0.649701 7.533100 -1.866176
v 1.071900 5.731937 -1.314300
v 1.298952 3.643627 0.021549
v 0.394095 1.867294 0.940363
v -1.080233 9.203023 -2.397203
v -0.247759 7.531750 -1.928442
v 1.271781 5.731919 -1.117765
v 1.221343 3.643597 0.256679
v 0.225503 1.867281 1.031218
v -0.603686 9.203454 -2.608315
v 0.160298 7.530267 -1.908157
v 1.431915 5.731733 -0.884499
v 1.094960 3.643549 0.471555
v 0.068966 1.867267 1.086337
v -0.094773 9.203946 -2.723256
v 0.556091 7.528688 -1.805354
v 1.545940 5.731838 -0.626417
v 0.925148 3.643498 0.656132
v -0.034885 1.867252 1.101548
v 0.426935 9.204307 -2.737468
v 0.921993 7.527056 -1.624123
v 1.608976 5.731882 -0.349699
v 0.720601 3.643425 0.801847
v -0.174138 1.867235 1.081083
v 0.941637 9.204492 -2.650146
v 1.241677 7.525423 -1.372444
v 1.617119 5.731882 -0.061381
v 0.493859 3.643328 0.902182
v -0.359978 1.867216 1.026302
v 1.430126 9.204665 -2.464298
v 1.501183 7.523916 -1.061700
v 1.568137 5.732075 0.228472
v 0.259479 3.643209 0.952638
v -0.532308 1.867196 0.936343
v 1.873688 9.204823 -2.186653
v 1.688266 7.523314 -0.713548
v 1.463352 5.731925 0.503150
v 0.027374 3.643074 0.953020
v -0.684187 1.867175 0.814533
v 2.255744 9.205283 -1.827514
v 1.800934 7.522925 -0.338180
v 1.307408 5.731891 0.752748
v -0.194717 3.642941 0.906151
v -0.810117 1.867157 0.664843
v 2.560743 9.205678 -1.400316
v 1.836932 7.522783 0.049347
v 1.101794 5.731973 0.971735
v -0.400880 3.642829 0.817359
v -0.905532 1.867142 0.492707
v 2.775928 9.205667 -0.921231
v 1.799381 7.523489 0.433988
v 0.851633 5.731767 1.149850
v -0.586533 3.642781 0.692080
v -0.965482 1.867130 0.304555
v 2.892833 9.205342 -0.408631
v 1.691843 7.524654 0.797808
v 0.575072 5.731748 1.273473
v -0.746554 3.642819 0.537312
v -0.987559 1.867121 0.107853
v 2.906942 9.204894 0.117647
v 1.522425 7.526020 1.130433
v 0.276296 5.731923 1.341628
v -0.876733 3.642921 0.357004
v -0.970724 1.867115 -0.088967
v 2.817356 9.204326 0.637105
v 1.294834 7.527540 1.424788
v -0.035447 5.732063 1.350142
v -0.974401 3.643047 0.156963
v -0.914897 1.867113 -0.279239
v 2.627268 9.203645 1.129423
v 1.017946 7.529141 1.671277
v -0.346485 5.732397 1.296047
v -1.035692 3.643175 -0.056609
v -0.822144 1.867120 -0.455316
v 2.343904 9.202867 1.575258
v 0.699257 7.530735 1.861602
v -0.638839 5.733000 1.180115
v -1.057361 3.643290 -0.277146
v -0.695951 1.867132 -0.610008
v -0.362656 1.867162 -0.830783
v -0.016335 0.570668 -0.689847
v 0.124513 0.055152 -0.992665
v -0.169068 1.867180 -0.887689
v 0.118049 0.570681 -0.676167
v 0.315530 0.055170 -0.948860
v -0.025050 1.867198 -0.902125
v 0.246941 0.570693 -0.636539
v 0.494244 0.055183 -0.868619
v 0.085717 1.867217 -0.874847
v 0.365459 0.570705 -0.572488
v 0.653795 0.055190 -0.755025
v 0.255199 1.867235 -0.812565
v 0.469185 0.570712 -0.486472
v 0.788119 0.055199 -0.612445
v 0.426794 1.867252 -0.715251
v 0.554115 0.570715 -0.381800
v 0.892062 0.055206 -0.446358
v 0.573857 1.867267 -0.586218
v 0.617041 0.570719 -0.262492
v 0.961635 0.055208 -0.263145
v 0.691787 1.867279 -0.431080
v 0.655574 0.570723 -0.133135
v 0.994167 0.055205 -0.069848
v 0.776960 1.867289 -0.255911
v 0.668181 0.570721 0.001301
v 0.988414 0.055206 0.126103
v 0.826754 1.867295 -0.067760
v 0.654381 0.570716 0.135651
v 0.944602 0.055202 0.317180
v 0.839967 1.867304 0.125650
v 0.614730 0.570714 0.264749
v 0.864369 0.055194 0.496041
v 0.816302 1.867310 0.317810
v 0.550758 0.570708 0.383636
v 0.750789 0.055180 0.655810
v 0.757148 1.867312 0.501707
v 0.464798 0.570698 0.487743
v 0.608272 0.055169 0.790348
v 0.664874 1.867309 0.670699
v 0.360192 0.570684 0.573069
v 0.442248 0.055153 0.894485
v 0.542189 1.867303 0.818702
v 0.241029 0.570668 0.636335
v 0.259060 0.055131 0.964220
v 0.394095 1.867294 0.940363
v 0.111729 0.570651 0.675110
v 0.065820 0.055106 0.996872
v 0.225503 1.867281 1.031218
v -0.022669 0.570630 0.687904
v -0.130111 0.055078 0.991187
v 0.068966 1.867267 1.086337
v -0.156934 0.570606 0.674225
v -0.321206 0.055047 0.947384
v -0.034885 1.867252 1.101548
v -0.286089 0.570580 0.634599
v -0.500065 0.055015 0.867145
v -0.174138 1.867235 1.081083
v -0.405039 0.570555 0.570549
v -0.659874 0.054983 0.753554
v -0.359978 1.867216 1.026302
v -0.509179 0.570533 0.484536
v -0.794481 0.054959 0.610976
v -0.532308 1.867196 0.936343
v -0.594631 0.570513 0.379865
v -0.898665 0.054939 0.444891
v -0.684187 1.867175 0.814533
v -0.658023 0.570501 0.260559
v -0.968428 0.054932 0.261679
v -0.810117 1.867157 0.664843
v -0.696864 0.570496 0.131202
v -1.001136 0.054933 0.068382
v -0.905532 1.867142 0.492707
v -0.709657 0.570504 -0.003236
v -0.995455 0.054950 -0.127571
v -0.965482 1.867130 0.304555
v -0.695985 0.570516 -0.137586
v -0.951599 0.054970 -0.318651
v -0.987559 1.867121 0.107853
v -0.656256 0.570538 -0.266687
v -0.871252 0.054998 -0.497513
v -0.970724 1.867115 -0.088967
v -0.591988 0.570561 -0.385576
v -0.757501 0.055028 -0.657285
v -0.914897 1.867113 -0.279239
v -0.505647 0.570585 -0.489684
v -0.614718 0.055058 -0.791825
v -0.822144 1.867120 -0.455316
v -0.400553 0.570609 -0.575011
v -0.448396 0.055086 -0.895964
v -0.695951 1.867132 -0.610008
v -0.280802 0.570631 -0.638278
v -0.264958 0.055110 -0.965699
v -0.071496 0.055131 -0.998351
v -0.151023 0.570651 -0.677054
v -0.540681 1.867146 -0.736923
vn -0.6382 0.6462 -0.4185
vn -0.9708 -0.2299 -0.0687
vn -0.5733 -0.3500 0.7408
vn 0.1523 -0.4163 0.8964
vn 0.4765 -0.4303 0.7667
vn 0.3251 -0.3940 0.8597
vn -0.0221 -0.4031 0.9149
vn -0.7103 -0.3514 0.6099
vn -0.9353 -0.2449 -0.2554
vn -0.5527 0.6305 -0.5449
vn 0.1546 -0.3559 0.9216
vn -0.1989 -0.3873 0.9002
vn -0.8199 -0.3492 0.4537
vn -0.8712 -0.2562 -0.4187
vn -0.4716 0.6125 -0.6344
vn -0.0284 -0.3176 0.9478
vn -0.3717 -0.3698 0.8515
vn -0.8972 -0.3436 0.2775
vn -0.7823 -0.2627 -0.5648
vn -0.3633 0.6009 -0.7120
vn -0.2160 -0.2804 0.9353
vn -0.5338 -0.3515 0.7691
vn -0.9381 -0.3350 0.0881
vn -0.6430 -0.2605 -0.7202
vn -0.1829 0.6016 -0.7776
vn -0.3984 -0.2465 0.8835
vn -0.6782 -0.3328 0.6552
vn -0.9410 -0.3195 -0.1113
vn -0.4665 -0.2572 -0.8463
vn -0.0037 0.5915 -0.8063
vn -0.5664 -0.2180 0.7948
vn -0.7986 -0.3134 0.5138
vn -0.9028 -0.3059 -0.3023
vn -0.2887 -0.2599 -0.9215
vn 0.1592 0.5820 -0.7975
vn -0.7150 -0.1945 0.6716
vn -0.8867 -0.2982 0.3535
vn -0.8281 -0.2943 -0.4771
vn -0.0997 -0.2586 -0.9608
vn 0.3134 0.5760 -0.7550
vn -0.8360 -0.1783 0.5190
vn -0.9416 -0.2856 0.1784
vn -0.7195 -0.2804 -0.6353
vn 0.0911 -0.2552 -0.9626
vn 0.4542 0.5729 -0.6823
vn -0.9234 -0.1709 0.3436
vn -0.9610 -0.2764 -0.0045
vn -0.5850 -0.2680 -0.7655
vn 0.2763 -0.2517 -0.9275
vn 0.5779 0.5730 -0.5811
vn -0.9730 -0.1730 0.1528
vn -0.9440 -0.2704 -0.1890
vn -0.4307 -0.2548 -0.8658
vn 0.4489 -0.2476 -0.8586
vn 0.6769 0.5757 -0.4587
vn -0.9818 -0.1849 -0.0441
vn -0.8911 -0.2668 -0.3671
vn -0.2622 -0.2412 -0.9344
vn 0.6045 -0.2418 -0.7590
vn 0.7483 0.5814 -0.3195
vn -0.9496 -0.2060 -0.2364
vn -0.8041 -0.2658 -0.5318
vn -0.0837 -0.2266 -0.9704
vn 0.7391 -0.2341 -0.6316
vn 0.7895 0.5900 -0.1693
vn -0.8780 -0.2343 -0.4173
vn -0.6861 -0.2673 -0.6767
vn 0.0966 -0.2140 -0.9721
vn 0.8480 -0.2241 -0.4802
vn 0.7978 0.6028 -0.0107
vn -0.7711 -0.2688 -0.5772
vn -0.5421 -0.2721 -0.7951
vn 0.2754 -0.2018 -0.9399
vn 0.9289 -0.2087 -0.3059
vn 0.7722 0.6186 0.1450
vn -0.6340 -0.3066 -0.7100
vn -0.3758 -0.2785 -0.8839
vn 0.4498 -0.1886 -0.8730
vn 0.9749 -0.1897 -0.1168
vn 0.7149 0.6365 0.2894
vn -0.4739 -0.3458 -0.8098
vn -0.1930 -0.2858 -0.9387
vn 0.6105 -0.1766 -0.7721
vn 0.9825 -0.1677 0.0805
vn 0.6288 0.6562 0.4171
vn -0.2993 -0.3843 -0.8733
vn -0.0010 -0.2942 -0.9557
vn 0.7507 -0.1663 -0.6393
vn 0.9510 -0.1467 0.2722
vn 0.5396 0.6686 0.5117
vn -0.1187 -0.4208 -0.8993
vn 0.1910 -0.3044 -0.9332
vn 0.8622 -0.1611 -0.4802
vn 0.8891 -0.1342 0.4376
vn 0.4578 0.6782 0.5748
vn 0.0600 -0.4538 -0.8891
vn 0.3734 -0.3169 -0.8719
vn 0.9401 -0.1592 -0.3014
vn 0.7916 -0.1125 0.6006
vn 0.3031 0.7111 0.6344
vn 0.2302 -0.4825 -0.8451
vn 0.5415 -0.3288 -0.7737
vn 0.9808 -0.1609 -0.1104
vn 0.6333 -0.0748 0.7703
vn 0.1345 0.7279 0.6723
vn 0.3865 -0.5063 -0.7709
vn 0.6866 -0.3410 -0.6422
vn 0.9823 -0.1684 0.0822
vn 0.4601 -0.0642 0.8855
vn -0.0130 0.7374 0.6753
vn 0.5230 -0.5254 -0.6711
vn 0.7996 -0.3545 -0.4847
vn 0.9460 -0.1800 0.2696
vn 0.2747 -0.0626 0.9595
vn -0.1499 0.7416 0.6539
vn 0.6363 -0.5399 -0.5511
vn 0.8757 -0.3693 -0.3112
vn 0.8728 -0.1934 0.4481
vn 0.0762 -0.0620 0.9952
vn -0.2798 0.7437 0.6072
vn 0.7260 -0.5489 -0.4142
vn 0.9144 -0.3839 -0.1288
vn 0.7661 -0.2095 0.6076
vn -0.1211 -0.0673 0.9904
vn -0.3958 0.7429 0.5399
vn 0.7896 -0.5531 -0.2657
vn 0.9160 -0.3974 0.0555
vn 0.6320 -0.2301 0.7400
vn -0.3085 -0.0792 0.9479
vn -0.4954 0.7392 0.4563
vn 0.8262 -0.5524 -0.1106
vn 0.8819 -0.4110 0.2309
vn 0.4752 -0.2533 0.8426
vn -0.4828 -0.0945 0.8706
vn -0.5783 0.7323 0.3596
vn 0.8362 -0.5463 0.0474
vn 0.8170 -0.4224 0.3926
vn 0.3018 -0.2756 0.9127
vn -0.6357 -0.1145 0.7634
vn -0.6443 0.7226 0.2505
vn 0.8198 -0.5345 0.2056
vn 0.7247 -0.4296 0.5388
vn 0.1215 -0.2976 0.9469
vn -0.7630 -0.1391 0.6312
vn -0.6917 0.7104 0.1299
vn 0.7761 -0.5162 0.3622
vn 0.6083 -0.4328 0.6653
vn -0.0609 -0.3178 0.9462
vn -0.8630 -0.1654 0.4774
vn -0.7182 0.6958 -0.0006
vn 0.7042 -0.4926 0.5113
vn 0.4718 -0.4317 0.7688
vn -0.2419 -0.3338 0.9111
vn -0.9337 -0.1891 0.3039
vn -0.7201 0.6797 -0.1393
vn 0.6039 -0.4635 0.6484
vn 0.3185 -0.4260 0.8468
vn -0.4157 -0.3441 0.8419
vn -0.9700 -0.2112 0.1202
vn -0.6945 0.6627 -0.2801
vn -0.1817 0.6542 -0.7342
vn -0.0820 0.1951 -0.9773
vn 0.0744 0.5188 -0.8516
vn -0.0245 0.6545 -0.7557
vn 0.1179 0.1979 -0.9731
vn 0.2386 0.5226 -0.8185
vn 0.1597 0.6665 -0.7282
vn 0.3372 0.2113 -0.9174
vn 0.3929 0.5263 -0.7541
vn 0.3100 0.6653 -0.6792
vn 0.5052 0.2213 -0.8341
vn 0.5313 0.5297 -0.6612
vn 0.4007 0.6682 -0.6269
vn 0.6391 0.2256 -0.7353
vn 0.6487 0.5326 -0.5436
vn 0.5073 0.6710 -0.5407
vn 0.7667 0.2295 -0.5996
vn 0.7409 0.5350 -0.4061
vn 0.6050 0.6718 -0.4275
vn 0.8690 0.2315 -0.4372
vn 0.8047 0.5367 -0.2538
vn 0.6784 0.6709 -0.2994
vn 0.9378 0.2308 -0.2594
vn 0.8381 0.5376 -0.0924
vn 0.7261 0.6684 -0.1610
vn 0.9711 0.2274 -0.0725
vn 0.8399 0.5378 0.0724
vn 0.7474 0.6642 -0.0171
vn 0.9683 0.2210 0.1166
vn 0.8102 0.5372 0.2344
vn 0.7415 0.6585 0.1283
vn 0.9295 0.2121 0.3018
vn 0.7499 0.5358 0.3880
vn 0.7087 0.6515 0.2707
vn 0.8558 0.2008 0.4767
vn 0.6611 0.5337 0.5274
vn 0.6495 0.6434 0.4052
vn 0.7496 0.1876 0.6347
vn 0.5467 0.5309 0.6475
vn 0.5647 0.6348 0.5274
vn 0.6140 0.1731 0.7701
vn 0.4110 0.5276 0.7434
vn 0.4567 0.6258 0.6323
vn 0.4536 0.1580 0.8771
vn 0.2588 0.5239 0.8115
vn 0.3290 0.6172 0.7148
vn 0.2745 0.1430 0.9509
vn 0.0957 0.5200 0.8488
vn 0.1889 0.6066 0.7722
vn 0.0856 0.1282 0.9880
vn -0.0720 0.5159 0.8536
vn 0.0205 0.6052 0.7958
vn -0.1235 0.1193 0.9851
vn -0.2379 0.5119 0.8255
vn -0.1555 0.6126 0.7750
vn -0.3306 0.1209 0.9360
vn -0.3955 0.5080 0.7652
vn -0.2905 0.6055 0.7410
vn -0.4940 0.1222 0.8608
vn -0.5385 0.5044 0.6749
vn -0.4029 0.6111 0.6813
vn -0.6429 0.1241 0.7558
vn -0.6613 0.5014 0.5580
vn -0.5247 0.6154 0.5883
vn -0.7771 0.1289 0.6161
vn -0.7588 0.4988 0.4188
vn -0.6256 0.6202 0.4733
vn -0.8814 0.1348 0.4528
vn -0.8270 0.4970 0.2628
vn -0.7018 0.6251 0.3418
vn -0.9516 0.1414 0.2730
vn -0.8630 0.4961 0.0961
vn -0.7506 0.6303 0.1982
vn -0.9854 0.1487 0.0826
vn -0.8651 0.4960 -0.0746
vn -0.7708 0.6353 0.0474
vn -0.9815 0.1563 -0.1108
vn -0.8334 0.4967 -0.2423
vn -0.7612 0.6401 -0.1040
vn -0.9398 0.1639 -0.2997
vn -0.7690 0.4983 -0.4004
vn -0.7224 0.6445 -0.2506
vn -0.8620 0.1714 -0.4770
vn -0.6748 0.5007 -0.5422
vn -0.6560 0.6482 -0.3867
vn -0.7513 0.1783 -0.6354
vn -0.5547 0.5037 -0.6622
vn -0.5650 0.6511 -0.5068
vn -0.6123 0.1844 -0.7688
vn -0.4139 0.5072 -0.7559
vn -0.4526 0.6532 -0.6070
vn -0.4501 0.1894 -0.8727
vn -0.2581 0.5110 -0.8199
vn -0.0932 0.5149 -0.8522
vn -0.2710 0.1930 -0.9430
vn -0.3231 0.6542 -0.6838
vt 0.031250 0.617698
vt 0.000000 0.617698
vt 0.031250 0.701031
vt 0.000000 0.701031
vt 0.031250 0.784364
vt 0.000000 0.784364
vt 0.031250 0.867698
vt 0.000000 0.867698
vt 0.031250 0.951031
vt 0.000000 0.951031
vt 0.062500 0.617698
vt 0.062500 0.701031
vt 0.062500 0.784364
vt 0.062500 0.867698
vt 0.062500 0.951031
vt 0.093750 0.617698
vt 0.093750 0.701031
vt 0.093750 0.784364
vt 0.093750 0.867698
vt 0.093750 0.951031
vt 0.125000 0.617698
vt 0.125000 0.701031
vt 0.125000 0.784364
vt 0.125000 0.867698
vt 0.125000 0.951031
vt 0.156250 0.617698
vt 0.156250 0.701031
vt 0.156250 0.784364
vt 0.156250 0.867698
vt 0.156250 0.951031
vt 0.187500 0.617698
vt 0.187500 0.701031
vt 0.187500 0.784364
vt 0.187500 0.867698
vt 0.187500 0.951031
vt 0.218750 0.617698
vt 0.218750 0.701031
vt 0.218750 0.784364
vt 0.218750 0.867698
vt 0.218750 0.951031
vt 0.250000 0.617698
vt 0.250000 0.701031
vt 0.250000 0.784364
vt 0.250000 0.867698
vt 0.250000 0.951031
vt 0.281250 0.617698
vt 0.281250 0.701031
vt 0.281250 0.784364
vt 0.281250 0.867698
vt 0.281250 0.951031
vt 0.312500 0.617698
vt 0.312500 0.701031
vt 0.312500 0.784364
vt 0.312500 0.867698
vt 0.312500 0.951031
vt 0.343750 0.617698
vt 0.343750 0.701031
vt 0.343750 0.784364
vt 0.343750 0.867698
vt 0.343750 0.951031
vt 0.375000 0.617698
vt 0.375000 0.701031
vt 0.375000 0.784364
vt 0.375000 0.867698
vt 0.375000 0.951031
vt 0.406250 0.617698
vt 0.406250 0.701031
vt 0.406250 0.784364
vt 0.406250 0.867698
vt 0.406250 0.951031
vt 0.437500 0.617698
vt 0.437500 0.701031
vt 0.437500 0.784364
vt 0.437500 0.867698
vt 0.437500 0.951031
vt 0.468750 0.617698
vt 0.468750 0.701031
vt 0.468750 0.784364
vt 0.468750 0.867698
vt 0.468750 0.951031
vt 0.500000 0.617698
vt 0.500000 0.701031
vt 0.500000 0.784364
vt 0.500000 0.867698
vt 0.500000 0.951031
vt 0.531250 0.617698
vt 0.531250 0.701031
vt 0.531250 0.784364
vt 0.531250 0.867698
vt 0.531250 0.951031
vt 0.562500 0.617698
vt 0.562500 0.701031
vt 0.562500 0.784364
vt 0.562500 0.867698
vt 0.562500 0.951031
vt 0.593750 0.617698
vt 0.593750 0.701031
vt 0.593750 0.784364
vt 0.593750 0.867698
vt 0.593750 0.951031
vt 0.625000 0.617698
vt 0.625000 0.701031
vt 0.625000 0.784364
vt 0.625000 0.867698
vt 0.625000 0.951031
vt 0.656250 0.617698
vt 0.656250 0.701031
vt 0.656250 0.784364
vt 0.656250 0.867698
vt 0.656250 0.951031
vt 0.687500 0.617698
vt 0.687500 0.701031
vt 0.687500 0.784364
vt 0.687500 0.867698
vt 0.687500 0.951031
vt 0.718750 0.617698
vt 0.718750 0.701031
vt 0.718750 0.784364
vt 0.718750 0.867698
vt 0.718750 0.951031
vt 0.750000 0.617698
vt 0.750000 0.701031
vt 0.750000 0.784364
vt 0.750000 0.867698
vt 0.750000 0.951031
vt 0.781250 0.617698
vt 0.781250 0.701031
vt 0.781250 0.784364
vt 0.781250 0.867698
vt 0.781250 0.951031
vt 0.812500 0.617698
vt 0.812500 0.701031
vt 0.812500 0.784364
vt 0.812500 0.867698
vt 0.812500 0.951031
vt 0.843750 0.617698
vt 0.843750 0.701031
vt 0.843750 0.784364
vt 0.843750 0.867698
vt 0.843750 0.951031
vt 0.875000 0.617698
vt 0.875000 0.701031
vt 0.875000 0.784364
vt 0.875000 0.867698
vt 0.875000 0.951031
vt 0.906250 0.617698
vt 0.906250 0.701031
vt 0.906250 0.784364
vt 0.906250 0.867698
vt 0.906250 0.951031
vt 0.937500 0.617698
vt 0.937500 0.701031
vt 0.937500 0.784364
vt 0.937500 0.867698
vt 0.937500 0.951031
vt 0.968750 0.617698
vt 0.968750 0.701031
vt 0.968750 0.784364
vt 0.968750 0.867698
vt 0.968750 0.951031
vt 1.000000 0.617698
vt 1.000000 0.701031
vt 1.000000 0.784364
vt 1.000000 0.867698
vt 1.000000 0.951031
vt 1.000000 0.558849
vt 1.000000 0.588273
vt 0.968750 0.588273
vt 0.968750 0.558849
vt 0.937500 0.588273
vt 0.937500 0.558849
vt 0.906250 0.588273
vt 0.906250 0.558849
vt 0.875000 0.588273
vt 0.875000 0.558849
vt 0.843750 0.588273
vt 0.843750 0.558849
vt 0.812500 0.588273
vt 0.812500 0.558849
vt 0.781250 0.588273
vt 0.781250 0.558849
vt 0.750000 0.588273
vt 0.750000 0.558849
vt 0.718750 0.588273
vt 0.718750 0.558849
vt 0.687500 0.588273
vt 0.687500 0.558849
vt 0.656250 0.588273
vt 0.656250 0.558849
vt 0.625000 0.588273
vt 0.625000 0.558849
vt 0.593750 0.588273
vt 0.593750 0.558849
vt 0.562500 0.588273
vt 0.562500 0.558849
vt 0.531250 0.588273
vt 0.531250 0.558849
vt 0.500000 0.588273
vt 0.500000 0.558849
vt 0.468750 0.588273
vt 0.468750 0.558849
vt 0.437500 0.588273
vt 0.437500 0.558849
vt 0.406250 0.588273
vt 0.406250 0.558849
vt 0.375000 0.588273
vt 0.375000 0.558849
vt 0.343750 0.588273
vt 0.343750 0.558849
vt 0.312500 0.588273
vt 0.312500 0.558849
vt 0.281250 0.588273
vt 0.281250 0.558849
vt 0.250000 0.588273
vt 0.250000 0.558849
vt 0.218750 0.588273
vt 0.218750 0.558849
vt 0.187500 0.588273
vt 0.187500 0.558849
vt 0.156250 0.588273
vt 0.156250 0.558849
vt 0.125000 0.588273
vt 0.125000 0.558849
vt 0.093750 0.588273
vt 0.093750 0.558849
vt 0.062500 0.588273
vt 0.062500 0.558849
vt 0.031250 0.588273
vt 0.031250 0.558849
vt 0.000000 0.588273
vt 0.000000 0.558849
s 1
f 251/1/251 160/1/160 1/2/1 256/2/256
f 160/1/160 159/3/159 2/4/2 1/2/1
f 159/3/159 158/5/158 3/6/3 2/4/2
f 158/5/158 157/7/157 4/8/4 3/6/3
f 157/7/157 156/9/156 5/10/5 4/8/4
f 248/11/248 155/11/155 160/1/160 251/1/251
f 155/11/155 154/12/154 159/3/159 160/1/160
f 154/12/154 153/13/153 158/5/158 159/3/159
f 153/13/153 152/14/152 157/7/157 158/5/158
f 152/14/152 151/15/151 156/9/156 157/7/157
f 245/16/245 150/16/150 155/11/155 248/11/248
f 150/16/150 149/17/149 154/12/154 155/11/155
f 149/17/149 148/18/148 153/13/153 154/12/154
f 148/18/148 147/19/147 152/14/152 153/13/153
f 147/19/147 146/20/146 151/15/151 152/14/152
f 242/21/242 145/21/145 150/16/150 245/16/245
f 145/21/145 144/22/144 149/17/149 150/16/150
f 144/22/144 143/23/143 148/18/148 149/17/149
f 143/23/143 142/24/142 147/19/147 148/18/148
f 142/24/142 141/25/141 146/20/146 147/19/147
f 239/26/239 140/26/140 145/21/145 242/21/242
f 140/26/140 139/27/139 144/22/144 145/21/145
f 139/27/139 138/28/138 143/23/143 144/22/144
f 138/28/138 137/29/137 142/24/142 143/23/143
f 137/29/137 136/30/136 141/25/141 142/24/142
f 236/31/236 135/31/135 140/26/140 239/26/239
f 135/31/135 134/32/134 139/27/139 140/26/140
f 134/32/134 133/33/133 138/28/138 139/27/139
f 133/33/133 132/34/132 137/29/137 138/28/138
f 132/34/132 131/35/131 136/30/136 137/29/137
f 233/36/233 130/36/130 135/31/135 236/31/236
f 130/36/130 129/37/129 134/32/134 135/31/135
f 129/37/129 128/38/128 133/33/133 134/32/134
f 128/38/128 127/39/127 132/34/132 133/33/133
f 127/39/127 126/40/126 131/35/131 132/34/132
f 230/41/230 125/41/125 130/36/130 233/36/233
f 125/41/125 124/42/124 129/37/129 130/36/130
f 124/42/124 123/43/123 128/38/128 129/37/129
f 123/43/123 122/44/122 127/39/127 128/38/128
f 122/44/122 121/45/121 126/40/126 127/39/127
f 227/46/227 120/46/120 125/41/125 230/41/230
f 120/46/120 119/47/119 124/42/124 125/41/125
f 119/47/119 118/48/118 123/43/123 124/42/124
f 118/48/118 117/49/117 122/44/122 123/43/123
f 117/49/117 116/50/116 121/45/121 122/44/122
f 224/51/224 115/51/115 120/46/120 227/46/227
f 115/51/115 114/52/114 119/47/119 120/46/120
f 114/52/114 113/53/113 118/48/118 119/47/119
f 113/53/113 112/54/112 117/49/117 118/48/118
f 112/54/112 111/55/111 116/50/116 117/49/117
f 221/56/221 110/56/110 115/51/115 224/51/224
f 110/56/110 109/57/109 114/52/114 115/51/115
f 109/57/109 108/58/108 113/53/113 114/52/114
f 108/58/108 107/59/107 112/54/112 113/53/113
f 107/59/107 106/60/106 111/55/111 112/54/112
f 218/61/218 105/61/105 110/56/110 221/56/221
f 105/61/105 104/62/104 109/57/109 110/56/110
f 104/62/104 103/63/103 108/58/108 109/57/109
f 103/63/103 102/64/102 107/59/107 108/58/108
f 102/64/102 101/65/101 106/60/106 107/59/107
f 215/66/215 100/66/100 105/61/105 218/61/218
f 100/66/100 99/67/99 104/62/104 105/61/105
f 99/67/99 98/68/98 103/63/103 104/62/104
f 98/68/98 97/69/97 102/64/102 103/63/103
f 97/69/97 96/70/96 101/65/101 102/64/102
f 212/71/212 95/71/95 100/66/100 215/66/215
f 95/71/95 94/72/94 99/67/99 100/66/100
f 94/72/94 93/73/93 98/68/98 99/67/99
f 93/73/93 92/74/92 97/69/97 98/68/98
f 92/74/92 91/75/91 96/70/96 97/69/97
f 209/76/209 90/76/90 95/71/95 212/71/212
f 90/76/90 89/77/89 94/72/94 95/71/95
f 89/77/89 88/78/88 93/73/93 94/72/94
f 88/78/88 87/79/87 92/74/92 93/73/93
f 87/79/87 86/80/86 91/75/91 92/74/92
f 206/81/206 85/81/85 90/76/90 209/76/209
f 85/81/85 84/82/84 89/77/89 90/76/90
f 84/82/84 83/83/83 88/78/88 89/77/89
f 83/83/83 82/84/82 87/79/87 88/78/88
f 82/84/82 81/85/81 86/80/86 87/79/87
f 203/86/203 80/86/80 85/81/85 206/81/206
f 80/86/80 79/87/79 84/82/84 85/81/85
f 79/87/79 78/88/78 83/83/83 84/82/84
f 78/88/78 77/89/77 82/84/82 83/83/83
f 77/89/77 76/90/76 81/85/81 82/84/82
f 200/91/200 75/91/75 80/86/80 203/86/203
f 75/91/75 74/92/74 79/87/79 80/86/80
f 74/92/74 73/93/73 78/88/78 79/87/79
f 73/93/73 72/94/72 77/89/77 78/88/78
f 72/94/72 71/95/71 76/90/76 77/89/77
f 197/96/197 70/96/70 75/91/75 200/91/200
f 70/96/70 69/97/69 74/92/74 75/91/75
f 69/97/69 68/98/68 73/93/73 74/92/74
f 68/98/68 67/99/67 72/94/72 73/93/73
f 67/99/67 66/100/66 71/95/71 72/94/72
f 194/101/194 65/101/65 70/96/70 197/96/197
f 65/101/65 64/102/64 69/97/69 70/96/70
f 64/102/64 63/103/63 68/98/68 69/97/69
f 63/103/63 62/104/62 67/99/67 68/98/68
f 62/104/62 61/105/61 66/100/66 67/99/67
f 191/106/191 60/106/60 65/101/65 194/101/194
f 60/106/60 59/107/59 64/102/64 65/101/65
f 59/107/59 58/108/58 63/103/63 64/102/64
f 58/108/58 57/109/57 62/104/62 63/103/63
f 57/109/57 56/110/56 61/105/61 62/104/62
f 188/111/188 55/111/55 60/106/60 191/106/191
f 55/111/55 54/112/54 59/107/59 60/106/60
f 54/112/54 53/113/53 58/108/58 59/107/59
f 53/113/53 52/114/52 57/109/57 58/108/58
f 52/114/52 51/115/51 56/110/56 57/109/57
f 185/116/185 50/116/50 55/111/55 188/111/188
f 50/116/50 49/117/49 54/112/54 55/111/55
f 49/117/49 48/118/48 53/113/53 54/112/54
f 48/118/48 47/119/47 52/114/52 53/113/53
f 47/119/47 46/120/46 51/115/51 52/114/52
f 182/121/182 45/121/45 50/116/50 185/116/185
f 45/121/45 44/122/44 49/117/49 50/116/50
f 44/122/44 43/123/43 48/118/48 49/117/49
f 43/123/43 42/124/42 47/119/47 48/118/48
f 42/124/42 41/125/41 46/120/46 47/119/47
f 179/126/179 40/126/40 45/121/45 182/121/182
f 40/126/40 39/127/39 44/122/44 45/121/45
f 39/127/39 38/128/38 43/123/43 44/122/44
f 38/128/38 37/129/37 42/124/42 43/123/43
f 37/129/37 36/130/36 41/125/41 42/124/42
f 176/131/176 35/131/35 40/126/40 179/126/179
f 35/131/35 34/132/34 39/127/39 40/126/40
f 34/132/34 33/133/33 38/128/38 39/127/39
f 33/133/33 32/134/32 37/129/37 38/128/38
f 32/134/32 31/135/31 36/130/36 37/129/37
f 173/136/173 30/136/30 35/131/35 176/131/176
f 30/136/30 29/137/29 34/132/34 35/131/35
f 29/137/29 28/138/28 33/133/33 34/132/34
f 28/138/28 27/139/27 32/134/32 33/133/33
f 27/139/27 26/140/26 31/135/31 32/134/32
f 170/141/170 25/141/25 30/136/30 173/136/173
f 25/141/25 24/142/24 29/137/29 30/136/30
f 24/142/24 23/143/23 28/138/28 29/137/29
f 23/143/23 22/144/22 27/139/27 28/138/28
f 22/144/22 21/145/21 26/140/26 27/139/27
f 167/146/167 20/146/20 25/141/25 170/141/170
f 20/146/20 19/147/19 24/142/24 25/141/25
f 19/147/19 18/148/18 23/143/23 24/142/24
f 18/148/18 17/149/17 22/144/22 23/143/23
f 17/149/17 16/150/16 21/145/21 22/144/22
f 164/151/164 15/151/15 20/146/20 167/146/167
f 15/151/15 14/152/14 19/147/19 20/146/20
f 14/152/14 13/153/13 18/148/18 19/147/19
f 13/153/13 12/154/12 17/149/17 18/148/18
f 12/154/12 11/155/11 16/150/16 17/149/17
f 161/156/161 10/156/10 15/151/15 164/151/164
f 10/156/10 9/157/9 14/152/14 15/151/15
f 9/157/9 8/158/8 13/153/13 14/152/14
f 8/158/8 7/159/7 12/154/12 13/153/13
f 7/159/7 6/160/6 11/155/11 12/154/12
f 256/161/256 1/161/1 10/156/10 161/156/161
f 1/161/1 2/162/2 9/157/9 10/156/10
f 2/162/2 3/163/3 8/158/8 9/157/9
f 3/163/3 4/164/4 7/159/7 8/158/8
f 4/164/4 5/165/5 6/160/6 7/159/7
f 254/166/254 255/167/255 162/168/162 163/169/163
f 255/167/255 256/161/256 161/156/161 162/168/162
f 163/169/163 162/168/162 165/170/165 166/171/166
f 162/168/162 161/156/161 164/151/164 165/170/165
f 166/171/166 165/170/165 168/172/168 169/173/169
f 165/170/165 164/151/164 167/146/167 168/172/168
f 169/173/169 168/172/168 171/174/171 172/175/172
f 168/172/168 167/146/167 170/141/170 171/174/171
f 172/175/172 171/174/171 174/176/174 175/177/175
f 171/174/171 170/141/170 173/136/173 174/176/174
f 175/177/175 174/176/174 177/178/177 178/179/178
f 174/176/174 173/136/173 176/131/176 177/178/177
f 178/179/178 177/178/177 180/180/180 181/181/181
f 177/178/177 176/131/176 179/126/179 180/180/180
f 181/181/181 180/180/180 183/182/183 184/183/184
f 180/180/180 179/126/179 182/121/182 183/182/183
f 184/183/184 183/182/183 186/184/186 187/185/187
f 183/182/183 182/121/182 185/116/185 186/184/186
f 187/185/187 186/184/186 189/186/189 190/187/190
f 186/184/186 185/116/185 188/111/188 189/186/189
f 190/187/190 189/186/189 192/188/192 193/189/193
f 189/186/189 188/111/188 191/106/191 192/188/192
f 193/189/193 192/188/192 195/190/195 196/191/196
f 192/188/192 191/106/191 194/101/194 195/190/195
f 196/191/196 195/190/195 198/192/198 199/193/199
f 195/190/195 194/101/194 197/96/197 198/192/198
f 199/193/199 198/192/198 201/194/201 202/195/202
f 198/192/198 197/96/197 200/91/200 201/194/201
f 202/195/202 201/194/201 204/196/204 205/197/205
f 201/194/201 200/91/200 203/86/203 204/196/204
f 205/197/205 204/196/204 207/198/207 208/199/208
f 204/196/204 203/86/203 206/81/206 207/198/207
f 208/199/208 207/198/207 210/200/210 211/201/211
f 207/198/207 206/81/206 209/76/209 210/200/210
f 211/201/211 210/200/210 213/202/213 214/203/214
f 210/200/210 209/76/209 212/71/212 213/202/213
f 214/203/214 213/202/213 216/204/216 217/205/217
f 213/202/213 212/71/212 215/66/215 216/204/216
f 217/205/217 216/204/216 219/206/219 220/207/220
f 216/204/216 215/66/215 218/61/218 219/206/219
f 220/207/220 219/206/219 222/208/222 223/209/223
f 219/206/219 218/61/218 221/56/221 222/208/222
f 223/209/223 222/208/222 225/210/225 226/211/226
f 222/208/222 221/56/221 224/51/224 225/210/225
f 226/211/226 225/210/225 228/212/228 229/213/229
f 225/210/225 224/51/224 227/46/227 228/212/228
f 229/213/229 228/212/228 231/214/231 232/215/232
f 228/212/228 227/46/227 230/41/230 231/214/231
f 232/215/232 231/214/231 234/216/234 235/217/235
f 231/214/231 230/41/230 233/36/233 234/216/234
f 235/217/235 234/216/234 237/218/237 238/219/238
f 234/216/234 233/36/233 236/31/236 237/218/237
f 238/219/238 237/218/237 240/220/240 241/221/241
f 237/218/237 236/31/236 239/26/239 240/220/240
f 241/221/241 240/220/240 243/222/243 244/223/244
f 240/220/240 239/26/239 242/21/242 243/222/243
f 244/223/244 243/222/243 246/224/246 247/225/247
f 243/222/243 242/21/242 245/16/245 246/224/246
f 247/225/247 246/224/246 249/226/249 250/227/250
f 246/224/246 245/16/245 248/11/248 249/226/249
f 250/227/250 249/226/249 252/228/252 253/229/253
f 249/226/249 248/11/248 251/1/251 252/228/252
f 253/229/253 252/228/252 255/230/255 254/231/254
f 252/228/252 251/1/251 256/2/256 255/230/255
