# This file uses centimeters as units for non-parametric coordinates.

g default
v 0.423871 0.171106 -0.126096
v -0.059586 0.023679 -0.043604
v -0.019536 0.030737 -0.674783
v 0.347332 0.176366 -0.563666
v 0.533191 0.234867 0.429251
v -0.004920 0.273183 0.529430
v -0.556407 0.231435 0.515066
v -0.699580 0.206133 -0.009698
v -0.505006 0.225428 -0.484584
v -0.483088 0.457886 -0.460854
v -0.595901 0.539686 -0.015077
v -0.060886 0.697369 -0.044830
v -0.025861 0.397762 -0.636793
v -0.516548 0.459907 0.491119
v -0.007967 0.549476 0.498214
v 0.507595 0.547380 0.379982
v 0.412337 0.500246 -0.156172
v 0.326889 0.381815 -0.537892
v -0.255026 0.236649 0.555318
v -0.361803 0.042745 -0.021699
v -0.298501 0.108571 -0.666966
v -0.260056 0.430290 -0.593334
v -0.317460 0.664972 -0.033428
v -0.271377 0.542134 0.500841
v 0.214227 0.079892 -0.119790
v 0.205213 0.094519 -0.628335
v 0.186003 0.388268 -0.622366
v 0.212781 0.648676 -0.100543
v 0.267368 0.574059 0.470086
v 0.299884 0.251502 0.517718
v 0.105663 0.056436 -0.653164
v 0.076179 0.047688 -0.071558
v 0.130412 0.259377 0.519630
v 0.118045 0.553933 0.478762
v 0.080185 0.691569 -0.075075
v 0.082898 0.396911 -0.635912
v 0.320435 0.119928 -0.149554
v 0.268818 0.127928 -0.618426
v 0.249995 0.380464 -0.601209
v 0.312478 0.594998 -0.128489
v 0.395871 0.581348 0.429410
v 0.413848 0.252625 0.491406
v -0.131944 0.252092 0.548265
v -0.209815 0.002589 -0.028501
v -0.177253 0.043281 -0.698181
v -0.147814 0.413536 -0.620844
v -0.188959 0.688067 -0.041497
v -0.136966 0.553397 0.506418
v -0.526138 0.118135 -0.013083
v -0.396651 0.229583 0.557278
v -0.403060 0.508492 0.495808
v -0.484826 0.626592 -0.028621
v -0.360010 0.439361 -0.553504
v -0.398357 0.172093 -0.578959
v 0.498967 0.324224 -0.148135
v 0.352701 0.281039 -0.564404
v 0.282459 0.251732 -0.642339
v 0.199596 0.247136 -0.681504
v 0.088673 0.242391 -0.707143
v -0.026431 0.242901 -0.706846
v -0.153357 0.262224 -0.687782
v -0.279873 0.289899 -0.650749
v -0.401861 0.314065 -0.591341
v -0.521726 0.345293 -0.502074
v -0.727826 0.375785 -0.009929
v -0.563624 0.356362 0.537941
v -0.415280 0.389037 0.598425
v -0.260292 0.405749 0.609447
v -0.127935 0.412170 0.591697
v -0.002519 0.419190 0.574718
v 0.131999 0.429900 0.590111
v 0.289254 0.432847 0.591132
v 0.443419 0.415219 0.533740
v 0.566645 0.389088 0.440000
v -0.035727 -0.073184 -0.351603
v 0.106398 -0.014986 -0.360964
v 0.239625 0.051207 -0.383111
v 0.305951 0.115357 -0.394297
v 0.365426 0.205063 -0.379966
v 0.412341 0.320938 -0.375120
v 0.384346 0.446548 -0.364630
v 0.317465 0.519127 -0.398900
v 0.214640 0.583667 -0.413788
v 0.087199 0.620340 -0.422432
v -0.043785 0.638410 -0.423986
v -0.185600 0.637719 -0.403164
v -0.313681 0.607357 -0.371540
v -0.438107 0.563155 -0.329072
v -0.549991 0.509459 -0.290644
v -0.671080 0.368841 -0.292481
v -0.592746 0.206587 -0.288151
v -0.502750 0.107101 -0.337505
v -0.375022 -0.011627 -0.384147
v -0.231379 -0.080212 -0.366726
v 0.372294 0.186321 -0.472509
v 0.306133 0.098041 -0.515250
v 0.224391 0.046349 -0.519699
v 0.109145 -0.001150 -0.525452
v -0.022649 -0.047031 -0.551807
v -0.208244 -0.039617 -0.570864
v -0.336529 0.041198 -0.544078
v -0.453854 0.147230 -0.462150
v -0.556976 0.217359 -0.384033
v -0.603180 0.358572 -0.407191
v -0.509321 0.482746 -0.401021
v -0.406653 0.512721 -0.456755
v -0.292992 0.529210 -0.513352
v -0.171159 0.539194 -0.547569
v -0.035080 0.524708 -0.564829
v 0.085326 0.510969 -0.561010
v 0.202603 0.498729 -0.540431
v 0.296453 0.459650 -0.514957
v 0.365437 0.418842 -0.457207
v 0.392922 0.302688 -0.475895
v -0.062781 -0.003685 -0.206061
v 0.074185 0.038895 -0.229106
v 0.215998 0.083405 -0.259970
v 0.298190 0.133648 -0.274719
v 0.369167 0.203777 -0.259152
v 0.436942 0.328356 -0.262062
v 0.400114 0.473973 -0.263443
v 0.321392 0.565510 -0.269466
v 0.215486 0.635550 -0.259056
v 0.083928 0.678988 -0.252338
v -0.056761 0.690232 -0.240502
v -0.188740 0.672708 -0.228711
v -0.324375 0.643457 -0.206932
v -0.468896 0.603020 -0.186267
v -0.589613 0.518314 -0.153033
v -0.715698 0.372672 -0.158585
v -0.631571 0.197972 -0.158589
v -0.522655 0.102597 -0.171954
v -0.373195 0.007458 -0.190698
v -0.221693 -0.038888 -0.194842
v 0.365002 0.107846 0.207504
v 0.250599 0.125868 0.221869
v 0.107537 0.131082 0.245327
v -0.030474 0.119488 0.270660
v -0.168277 0.096698 0.289930
v -0.316229 0.074493 0.295583
v -0.487515 0.109502 0.275111
v -0.645392 0.196534 0.256838
v -0.686971 0.369306 0.276681
v -0.565124 0.533384 0.273023
v -0.444963 0.606262 0.273680
v -0.296069 0.649374 0.271669
v -0.166425 0.665557 0.264215
v -0.033467 0.664370 0.259706
v 0.086668 0.641162 0.225746
v 0.242635 0.633438 0.188977
v 0.353803 0.622937 0.156592
v 0.490605 0.564595 0.101020
v 0.699010 0.318264 0.123581
v 0.492035 0.085828 -0.006942
v 0.377293 0.056037 0.046495
v 0.230094 0.073950 0.064570
v 0.091298 0.077963 0.091321
v -0.046482 0.065422 0.113975
v -0.188597 0.044996 0.133774
v -0.344777 0.064226 0.139521
v -0.499813 0.120313 0.150380
v -0.668698 0.199395 0.147142
v -0.711683 0.370667 0.138247
v -0.590570 0.548664 0.133981
v -0.466207 0.622937 0.135365
v -0.296745 0.670311 0.144221
v -0.179224 0.683010 0.141352
v -0.045625 0.685790 0.138230
v 0.080629 0.670348 0.098917
v 0.224060 0.645402 0.059082
v 0.334946 0.609467 0.038885
v 0.455200 0.534800 -0.007940
v 0.598775 0.320331 -0.039921
v -0.016208 0.195926 0.428338
v 0.118215 0.207818 0.394458
v 0.267359 0.186661 0.373628
v 0.403988 0.155360 0.356386
v 0.550908 0.136629 0.333885
v 0.661633 0.355272 0.295132
v 0.524829 0.572701 0.252789
v 0.373721 0.619855 0.311087
v 0.255880 0.613110 0.340976
v 0.098309 0.598402 0.374732
v -0.022033 0.615492 0.410575
v -0.154262 0.623317 0.400103
v -0.287263 0.602263 0.397593
v -0.422842 0.562002 0.397516
v -0.538063 0.495983 0.391497
v -0.652916 0.371774 0.417013
v -0.616644 0.199754 0.400599
v -0.448678 0.131535 0.448862
v -0.279009 0.142082 0.452323
v -0.144772 0.166359 0.448421
v 0.471741 0.414454 -0.150286
v 0.430825 0.399848 -0.264468
v 0.408819 0.381499 -0.372157
v 0.384742 0.356075 -0.471243
v 0.344953 0.327752 -0.553267
v 0.272068 0.312629 -0.630377
v 0.188046 0.313095 -0.657729
v 0.083620 0.309545 -0.673014
v -0.026058 0.312109 -0.669330
v -0.147262 0.333612 -0.652774
v -0.268081 0.357884 -0.623132
v -0.387250 0.379646 -0.576067
v -0.513250 0.401379 -0.488032
v -0.573394 0.430033 -0.401324
v -0.623178 0.453601 -0.285823
v -0.658560 0.455848 -0.150186
v -0.668025 0.460830 -0.010054
v -0.659090 0.458820 0.133967
v -0.635733 0.451521 0.271852
v -0.602835 0.442842 0.403378
v -0.545521 0.415672 0.522062
v -0.401260 0.458430 0.564237
v -0.250683 0.472753 0.578801
v -0.124906 0.470282 0.570281
v -0.003769 0.479407 0.549874
v 0.128529 0.502202 0.550800
v 0.277482 0.515959 0.544158
v 0.421238 0.509653 0.501772
v 0.544395 0.487610 0.411498
v 0.608813 0.487820 0.269612
v 0.610152 0.478302 0.102907
v 0.545501 0.442682 -0.032716
v 0.355520 0.233037 -0.567617
v 0.389438 0.243646 -0.472152
v 0.398262 0.262199 -0.373724
v 0.419806 0.267155 -0.259797
v 0.484808 0.236878 -0.139945
v 0.589504 0.178325 -0.027343
v 0.686896 0.143242 0.140722
v 0.646857 0.213929 0.311921
v 0.557800 0.299780 0.439107
v 0.440630 0.332349 0.529533
v 0.303057 0.333017 0.592492
v 0.133140 0.343786 0.599753
v -0.001989 0.350921 0.580523
v -0.126648 0.341359 0.598321
v -0.260891 0.320624 0.608707
v -0.413219 0.312635 0.601250
v -0.567328 0.307565 0.538019
v -0.653201 0.280798 0.420342
v -0.693696 0.281766 0.276119
v -0.720360 0.282147 0.142234
v -0.739250 0.284624 -0.008581
v -0.720410 0.280207 -0.159953
v -0.662872 0.275428 -0.294108
v -0.596484 0.279299 -0.404201
v -0.519968 0.279855 -0.502366
v -0.406847 0.252036 -0.594802
v -0.295395 0.210048 -0.676594
v -0.161470 0.174451 -0.729126
v -0.022806 0.153640 -0.735723
v 0.098077 0.160375 -0.714237
v 0.203651 0.187830 -0.680922
v 0.283345 0.205301 -0.641007
v 0.554106 0.081385 0.270478
v 0.482443 0.085596 0.257170
v 0.461558 0.066927 0.191393
v 0.554968 0.015522 0.176000
v 0.614625 0.080223 0.237147
v 0.621040 0.046161 0.163468
v 0.461614 0.042885 0.119854
v 0.530346 0.018993 0.090350
v 0.588975 0.033367 0.102285
vt 0.335119 0.575540
vt 0.417440 0.524961
vt 0.455277 0.632126
vt 0.383920 0.645345
vt 0.286706 0.470457
vt 0.373698 0.420265
vt 0.472742 0.399390
vt 0.531864 0.477977
vt 0.540112 0.573143
vt 0.311922 0.703576
vt 0.252616 0.772223
vt 0.168797 0.768236
vt 0.197377 0.676495
vt 0.083667 0.732686
vt 0.104778 0.641053
vt 0.157201 0.564845
vt 0.247961 0.596425
vt 0.313249 0.634413
vt 0.417930 0.405971
vt 0.470065 0.503779
vt 0.504494 0.615259
vt 0.289604 0.741515
vt 0.184285 0.717958
vt 0.094112 0.687512
vt 0.373394 0.556133
vt 0.415130 0.642958
vt 0.318790 0.665024
vt 0.221309 0.633985
vt 0.128645 0.597954
vt 0.322530 0.442541
vt 0.433642 0.638327
vt 0.394982 0.537980
vt 0.351277 0.431455
vt 0.115844 0.620792
vt 0.209303 0.655186
vt 0.316085 0.684014
vt 0.356152 0.570230
vt 0.403088 0.646660
vt 0.319051 0.652423
vt 0.233171 0.617078
vt 0.143877 0.580957
vt 0.304095 0.452945
vt 0.396174 0.412280
vt 0.443364 0.514382
vt 0.481819 0.624535
vt 0.301971 0.724015
vt 0.191066 0.697120
vt 0.098359 0.663542
vt 0.500241 0.491405
vt 0.442878 0.399590
vt 0.088993 0.711338
vt 0.176424 0.745709
vt 0.276375 0.756340
vt 0.523882 0.596684
vt 0.264175 0.563336
vt 0.330695 0.628423
vt 0.342086 0.647577
vt 0.344955 0.665862
vt 0.344781 0.688525
vt 0.340149 0.710834
vt 0.328619 0.733910
vt 0.312030 0.755280
vt 0.291657 0.774526
vt 0.264950 0.790241
vt 0.159888 0.803164
vt 0.065401 0.743874
vt 0.061511 0.712149
vt 0.064007 0.681917
vt 0.070063 0.656097
vt 0.078719 0.631877
vt 0.088496 0.606535
vt 0.102413 0.579106
vt 0.122341 0.553927
vt 0.147396 0.536230
vt 0.434989 0.577406
vt 0.412212 0.588574
vt 0.391387 0.602530
vt 0.378424 0.611467
vt 0.360983 0.618189
vt 0.301617 0.597925
vt 0.284232 0.612570
vt 0.279800 0.630295
vt 0.272524 0.649580
vt 0.265892 0.670801
vt 0.259003 0.691601
vt 0.249322 0.713168
vt 0.239831 0.733485
vt 0.228722 0.754006
vt 0.218363 0.773725
vt 0.216044 0.805776
vt 0.537496 0.532123
vt 0.517534 0.546866
vt 0.491673 0.562309
vt 0.465678 0.567450
vt 0.371233 0.632800
vt 0.390909 0.629849
vt 0.405334 0.623303
vt 0.424015 0.615266
vt 0.446185 0.609110
vt 0.475474 0.600201
vt 0.499214 0.590633
vt 0.523520 0.571883
vt 0.540197 0.551443
vt 0.241614 0.800004
vt 0.240001 0.772688
vt 0.253203 0.756151
vt 0.267064 0.738746
vt 0.277586 0.719753
vt 0.288021 0.698646
vt 0.293997 0.678675
vt 0.296583 0.658063
vt 0.300323 0.640320
vt 0.299375 0.622728
vt 0.317424 0.612703
vt 0.427219 0.551262
vt 0.404324 0.564133
vt 0.382129 0.580663
vt 0.367635 0.591349
vt 0.350654 0.597769
vt 0.283603 0.581607
vt 0.266975 0.603637
vt 0.257452 0.622439
vt 0.246724 0.641541
vt 0.237437 0.662941
vt 0.228509 0.684777
vt 0.220980 0.705700
vt 0.212117 0.727385
vt 0.202938 0.751067
vt 0.192739 0.774683
vt 0.188636 0.807494
vt 0.532699 0.507429
vt 0.509391 0.518157
vt 0.480989 0.531099
vt 0.454533 0.540987
vt 0.332157 0.504459
vt 0.349805 0.494911
vt 0.372258 0.482573
vt 0.394703 0.471197
vt 0.418104 0.462057
vt 0.443643 0.454836
vt 0.474091 0.447655
vt 0.504574 0.437343
vt 0.107330 0.781982
vt 0.121532 0.749112
vt 0.128523 0.726110
vt 0.135568 0.700771
vt 0.142240 0.679719
vt 0.148675 0.658310
vt 0.159654 0.639921
vt 0.174711 0.617078
vt 0.186354 0.600922
vt 0.202703 0.579471
vt 0.211640 0.526552
vt 0.319469 0.551785
vt 0.337834 0.535801
vt 0.361722 0.523677
vt 0.383697 0.510270
vt 0.406402 0.498653
vt 0.430655 0.488290
vt 0.457685 0.478473
vt 0.485114 0.466359
vt 0.516181 0.453815
vt 0.131950 0.794527
vt 0.144120 0.759348
vt 0.150481 0.735525
vt 0.156530 0.706351
vt 0.162009 0.687279
vt 0.168483 0.665784
vt 0.181026 0.646991
vt 0.195642 0.625338
vt 0.205801 0.607398
vt 0.221914 0.586185
vt 0.242372 0.544556
vt 0.382739 0.441600
vt 0.360990 0.454051
vt 0.337287 0.467416
vt 0.315656 0.480082
vt 0.292240 0.493480
vt 0.179134 0.526730
vt 0.178461 0.569631
vt 0.161822 0.591476
vt 0.149734 0.607822
vt 0.133887 0.630426
vt 0.122589 0.649053
vt 0.119155 0.671605
vt 0.113676 0.694209
vt 0.107345 0.717938
vt 0.101071 0.740339
vt 0.085114 0.765190
vt 0.489346 0.416162
vt 0.457346 0.421988
vt 0.428650 0.428297
vt 0.405276 0.433821
vt 0.255687 0.578688
vt 0.275356 0.591859
vt 0.293246 0.604456
vt 0.309366 0.617347
vt 0.322555 0.630703
vt 0.331595 0.649640
vt 0.332822 0.666689
vt 0.331838 0.687012
vt 0.326975 0.707565
vt 0.315878 0.728696
vt 0.301248 0.748288
vt 0.283422 0.765957
vt 0.258657 0.782363
vt 0.238708 0.786854
vt 0.215251 0.789133
vt 0.189418 0.790282
vt 0.163805 0.785685
vt 0.138285 0.777807
vt 0.114899 0.766760
vt 0.094055 0.752987
vt 0.074686 0.737947
vt 0.074631 0.709174
vt 0.076852 0.681109
vt 0.080971 0.657630
vt 0.089898 0.635672
vt 0.101688 0.613184
vt 0.115163 0.589472
vt 0.131502 0.568668
vt 0.153100 0.552935
vt 0.179589 0.550414
vt 0.207827 0.555973
vt 0.232968 0.565939
vt 0.377281 0.652781
vt 0.326122 0.607068
vt 0.310186 0.591512
vt 0.292033 0.573813
vt 0.273891 0.550276
vt 0.299318 0.567055
vt 0.273812 0.535860
vt 0.269246 0.496720
vt 0.143493 0.521142
vt 0.114704 0.541848
vt 0.090585 0.565964
vt 0.074656 0.599697
vt 0.066878 0.628040
vt 0.057672 0.653531
vt 0.049053 0.681496
vt 0.048416 0.714049
vt 0.058205 0.748625
vt 0.074015 0.776329
vt 0.099615 0.794963
vt 0.125264 0.808638
vt 0.156145 0.819128
vt 0.188827 0.823650
vt 0.220467 0.821446
vt 0.247246 0.812566
vt 0.271805 0.799263
vt 0.299653 0.781951
vt 0.324559 0.763541
vt 0.344591 0.740118
vt 0.356373 0.713816
vt 0.359139 0.688722
vt 0.355327 0.665197
vt 0.350150 0.646178
vt 0.303283 0.523041
vt 0.297238 0.506534
vt 0.309562 0.504111
vt 0.317251 0.513987
vt 0.292783 0.527277
vt 0.288824 0.515054
vt 0.320801 0.527056
vt 0.310004 0.534080
vt 0.300251 0.535221
vt 0.397916 0.659850
vt 0.338742 0.625792
vt 0.416516 0.661785
vt 0.439635 0.659397
vt 0.464714 0.654281
vt 0.492709 0.644392
vt 0.518317 0.625456
vt 0.537017 0.602314
vt 0.550079 0.576184
vt 0.553703 0.552208
vt 0.554303 0.527493
vt 0.553042 0.500073
vt 0.546084 0.472162
vt 0.532241 0.446983
vt 0.518051 0.425329
vt 0.499081 0.403466
vt 0.475461 0.385860
vt 0.443144 0.382742
vt 0.414048 0.388558
vt 0.389184 0.395634
vt 0.367724 0.404664
vt 0.343988 0.412034
vt 0.315379 0.424262
vt 0.293009 0.440844
vt 0.276460 0.463480
vt 0.322631 0.586423
vt 0.338388 0.605535
vt 0.350500 0.622991
vt 0.362543 0.638315
vt 0.218468 0.498290
vt 0.178383 0.502126
vt 0.253275 0.521448
vn 0.434343 -0.726950 -0.531874
vn 0.305217 -0.910380 -0.279376
vn 0.618764 -0.785209 -0.024070
vn 0.704715 -0.672470 -0.226190
vn 0.284023 -0.762868 -0.580830
vn 0.001974 -0.992905 -0.118895
vn 0.163402 -0.951286 0.261448
vn 0.045483 -0.971016 0.234647
vn -0.028010 -0.974659 0.221938
vn 0.191869 -0.963356 0.187433
vn -0.088004 -0.966868 0.239629
vn 0.213652 -0.939170 0.268910
vn -0.014536 0.987202 -0.158810
vn -0.164688 0.974725 -0.150957
vn -0.125803 0.991712 -0.026082
vn -0.000028 0.999968 0.008019
vn -0.077364 0.993579 0.082553
vn 0.060373 0.991760 0.112994
vn 0.522882 0.838840 -0.151466
vn 0.386373 0.908048 -0.161754
vn 0.542378 0.770744 -0.334334
vn 0.674324 0.683523 -0.279435
vn 0.787022 0.570123 -0.235705
vn 0.614925 0.760200 -0.209673
vn 0.779285 0.419675 -0.465390
vn 0.907971 0.288145 -0.304239
vn 0.716355 0.495984 -0.490751
vn 0.518288 0.783606 0.342548
vn 0.257742 0.871220 0.417785
vn 0.408289 0.558534 0.722039
vn 0.706137 0.490012 0.511134
vn -0.010638 0.756427 0.653992
vn 0.060572 0.538121 0.840688
vn 0.010473 0.553379 0.832864
vn 0.062551 0.769291 0.635829
vn -0.788094 0.615366 -0.015277
vn -0.803380 0.585043 0.110931
vn -0.645014 0.757347 0.101899
vn -0.653950 0.754665 -0.053196
vn -0.625020 0.758510 -0.184424
vn -0.756445 0.634944 -0.156963
vn -0.034712 0.415551 -0.908907
vn -0.105869 0.403861 -0.908674
vn -0.110186 0.453219 -0.884563
vn -0.016130 0.452378 -0.891680
vn 0.722501 0.333262 -0.605746
vn 0.491033 0.365073 -0.790954
vn 0.444946 0.488040 -0.750893
vn 0.662953 0.423973 -0.617042
vn -0.456349 -0.887267 0.067104
vn -0.386611 -0.920063 0.063374
vn -0.601319 -0.794570 0.084112
vn -0.643767 -0.765101 -0.013585
vn -0.648230 -0.746813 -0.148553
vn -0.581313 -0.813668 -0.004438
vn -0.368127 0.544331 -0.753781
vn -0.403715 0.402750 -0.821466
vn -0.565078 0.429444 -0.704460
vn -0.470023 0.610154 -0.637801
vn -0.412423 0.908925 -0.061333
vn -0.427191 0.880043 -0.207441
vn -0.386791 0.917798 0.089664
vn -0.533079 0.553623 0.639787
vn -0.244401 0.605654 0.757266
vn -0.288884 0.788096 0.543554
vn -0.443187 0.752524 0.487127
vn 0.322367 -0.916471 0.236981
vn 0.195664 -0.975774 0.097883
vn 0.093036 0.482979 -0.870675
vn 0.064379 0.414365 -0.907831
vn 0.169206 0.985563 0.005849
vn 0.178816 0.967216 -0.180325
vn 0.165640 0.979880 0.111350
vn -0.047358 0.627936 0.776823
vn -0.003078 0.859168 0.511684
vn 0.110717 -0.968057 0.224961
vn 0.414622 -0.896956 0.153490
vn 0.182658 -0.981612 -0.055435
vn 0.030337 -0.992691 0.116810
vn 0.117857 0.631743 0.766167
vn 0.022900 0.883128 0.468573
vn 0.245999 0.968705 0.033082
vn 0.343343 0.938354 -0.040085
vn 0.389865 0.900337 -0.193387
vn 0.235037 0.502545 -0.831989
vn 0.215436 0.395611 -0.892793
vn -0.214410 -0.966634 0.140170
vn -0.327431 -0.928386 0.175754
vn -0.439871 -0.888521 0.130553
vn -0.227265 0.389131 -0.892708
vn -0.238110 0.486115 -0.840831
vn -0.264785 0.948269 -0.175142
vn -0.217504 0.974880 -0.047965
vn -0.201492 0.976344 0.078443
vn -0.142509 0.788551 0.598229
vn -0.058002 0.596849 0.800255
vn 0.825633 -0.440417 -0.352652
vn 0.656555 -0.397058 -0.641312
vn 0.798048 -0.423631 -0.428552
vn 0.576936 -0.566971 -0.587954
vn 0.586353 -0.183750 -0.788940
vn 0.846081 -0.116026 -0.520274
vn 0.372011 -0.241793 -0.896183
vn 0.424882 -0.672412 -0.606084
vn 0.246309 -0.244116 -0.937944
vn 0.329525 -0.691163 -0.643201
vn 0.074297 -0.152689 -0.985478
vn 0.131822 -0.692953 -0.708829
vn -0.197975 -0.606304 -0.770195
vn -0.148462 -0.002772 -0.988914
vn -0.437537 0.074913 -0.896074
vn -0.562159 -0.412334 -0.716909
vn -0.613250 -0.033257 -0.789188
vn -0.722073 -0.370326 -0.584354
vn -0.710822 -0.182464 -0.679293
vn -0.704894 -0.477732 -0.524305
vn -0.968272 -0.249173 -0.019031
vn -0.906912 -0.344300 -0.242834
vn -0.964751 -0.213477 0.153891
vn -0.430477 -0.594115 0.679497
vn -0.107115 -0.645258 0.756418
vn -0.178866 -0.253728 0.950594
vn -0.570919 -0.207145 0.794445
vn 0.042246 -0.280075 0.959048
vn 0.082849 -0.658658 0.747868
vn 0.144869 -0.269684 0.951989
vn 0.180661 -0.663437 0.726094
vn 0.022072 -0.311073 0.950130
vn 0.108099 -0.727638 0.677390
vn -0.018663 -0.809816 0.586387
vn -0.043032 -0.359038 0.932330
vn 0.028006 -0.800284 0.598966
vn 0.161592 -0.348605 0.923235
vn 0.166483 -0.717117 0.676777
vn 0.444462 -0.247636 0.860889
vn 0.682645 -0.200598 0.702678
vn 0.356831 -0.605268 0.711564
vn 0.717994 -0.319335 -0.618474
vn 0.374398 -0.901605 -0.216644
vn 0.152254 -0.945509 -0.287804
vn 0.469086 -0.862963 -0.187757
vn 0.685226 -0.714510 -0.141212
vn 0.861843 -0.505655 -0.039248
vn 0.964288 -0.210409 -0.160863
vn 0.773729 0.476276 -0.417737
vn 0.885201 0.267918 -0.380313
vn 0.552696 0.607869 -0.570108
vn 0.310837 0.688848 -0.654881
vn 0.144375 0.684127 -0.714931
vn 0.017475 0.676797 -0.735962
vn -0.136329 0.696804 -0.704187
vn -0.307190 0.713183 -0.630083
vn -0.416199 0.740605 -0.527524
vn -0.513218 0.729735 -0.451768
vn -0.682583 0.536564 -0.496165
vn -0.716231 -0.559289 -0.417384
vn -0.793744 -0.314374 -0.520710
vn -0.722398 -0.547328 -0.422578
vn -0.608999 -0.672381 -0.420741
vn -0.215350 -0.904028 -0.369267
vn 0.817062 -0.574509 0.048471
vn 0.706054 -0.698940 0.113887
vn 0.501730 -0.852889 0.144382
vn 0.391401 -0.905544 0.163694
vn 0.186410 -0.976883 0.104648
vn -0.177170 -0.984178 -0.002315
vn -0.566859 -0.809876 -0.150904
vn -0.697490 -0.686144 -0.206675
vn -0.704422 -0.657627 -0.267052
vn -0.832541 -0.399377 -0.383892
vn -0.719557 0.617673 -0.317362
vn -0.563245 0.766820 -0.307803
vn -0.430795 0.836515 -0.338613
vn -0.316272 0.878598 -0.357823
vn -0.165231 0.902806 -0.397040
vn 0.016927 0.894753 -0.446241
vn 0.178540 0.874843 -0.450304
vn 0.371400 0.827868 -0.420352
vn 0.612849 0.702723 -0.361381
vn 0.808597 0.511677 -0.290443
vn 0.939349 0.234283 -0.250470
vn 0.924764 -0.370232 -0.087972
vn -0.047397 -0.860372 0.507457
vn 0.284380 -0.685042 0.670705
vn -0.053441 -0.905086 0.421857
vn 0.042236 -0.900931 0.431902
vn 0.182965 -0.864131 0.468829
vn 0.197085 -0.850925 0.486914
vn 0.061726 -0.874969 0.480229
vn -0.214710 -0.882259 0.418949
vn -0.581446 -0.747059 0.322217
vn -0.886813 -0.222585 0.404993
vn -0.526474 0.763067 0.374906
vn -0.708244 0.616305 0.344323
vn -0.346887 0.840038 0.417141
vn -0.189247 0.883562 0.428374
vn -0.047316 0.905644 0.421390
vn 0.110140 0.907843 0.404587
vn 0.084781 0.947263 0.309039
vn 0.009352 0.973035 0.230468
vn 0.203252 0.971800 0.119553
vn 0.506030 0.862228 0.022305
vn 0.821300 0.553656 0.137593
vn 0.871323 -0.209321 0.443825
vn -0.184293 -0.925232 0.331635
vn -0.052490 -0.934430 0.352256
vn 0.076234 -0.925322 0.371439
vn 0.182375 -0.915935 0.357496
vn 0.152516 -0.936830 0.314785
vn -0.044213 -0.971880 0.231290
vn -0.324558 -0.936454 0.133101
vn -0.611762 -0.780686 0.127578
vn -0.949648 -0.229111 0.213722
vn -0.775562 0.596160 0.207599
vn -0.596240 0.761571 0.253983
vn -0.377300 0.888423 0.261436
vn -0.202548 0.946111 0.252683
vn -0.050444 0.968837 0.242510
vn 0.118732 0.964248 0.236913
vn 0.138652 0.969891 0.200218
vn 0.090226 0.989624 0.111823
vn 0.243633 0.967282 -0.070768
vn 0.477163 0.851621 -0.216925
vn 0.787004 0.566453 -0.244448
vn 0.932242 -0.043670 -0.359191
vn 0.800307 0.045860 -0.597835
vn 0.979917 -0.055676 -0.191475
vn 0.955940 0.032792 -0.291725
vn 0.808632 0.134141 -0.572818
vn 0.554842 0.162484 -0.815935
vn 0.283006 0.214322 -0.934866
vn 0.116395 0.287773 -0.950599
vn -0.004650 0.371975 -0.928231
vn -0.117741 0.408155 -0.905288
vn -0.284131 0.354057 -0.891018
vn -0.482363 0.228221 -0.845719
vn -0.660281 0.146824 -0.736527
vn -0.814317 0.154750 -0.559411
vn -0.886694 0.236920 -0.397043
vn -0.928913 0.310417 -0.201898
vn -0.936833 0.349745 0.004701
vn -0.931514 0.336316 0.138466
vn -0.925953 0.314487 0.209067
vn -0.873011 0.296786 0.387001
vn -0.607308 0.231867 0.759878
vn -0.240367 0.229237 0.943226
vn -0.011993 0.218244 0.975821
vn 0.109815 0.207006 0.972157
vn -0.010629 0.245734 0.969279
vn -0.045764 0.267809 0.962385
vn 0.180320 0.257725 0.949243
vn 0.493252 0.206837 0.844939
vn 0.760821 0.175084 0.624898
vn 0.936360 0.189699 0.295373
vn 0.973167 0.139380 -0.183080
vn 0.813451 0.109403 -0.571252
vn 0.953693 -0.262791 -0.146327
vn -0.007505 -0.952269 0.305169
vn 0.165726 -0.769744 0.616465
vn -0.224973 -0.853865 0.469362
vn -0.331952 -0.884644 0.327433
vn 0.773545 -0.632148 -0.044918
vn 0.686728 -0.558786 0.464933
vn -0.291261 -0.956098 0.032314
vn 0.125298 -0.900279 -0.416892
vn 0.591360 -0.641599 -0.488513
s 1
g Rock1_Snow_LOW Rocks_Group
f 1/1/1 37/37/2 118/118/3 119/119/4
f 1/1/1 154/154/5 155/155/6 37/37/2
f 158/158/7 159/159/8 44/44/9 2/2/10
f 44/44/9 134/134/11 115/115/12 2/2/10
f 125/125/13 126/126/14 47/47/15 12/13/16
f 47/47/15 167/167/17 168/168/18 12/13/16
f 40/40/19 171/171/20 172/172/21 17/17/22
f 121/121/23 122/122/24 40/40/19 17/17/22
f 194/194/25 195/195/26 121/121/23 17/17/22
f 17/17/22 172/172/21 225/225/27 194/194/25
f 16/16/28 41/41/29 221/221/30 222/222/31
f 48/48/32 217/217/33 218/218/34 15/15/35
f 210/210/36 211/211/37 164/164/38 11/12/39
f 129/129/40 209/209/41 210/210/36 11/12/39
f 202/202/42 203/203/43 46/46/44 13/10/45
f 198/198/46 199/199/47 39/39/48 18/18/49
f 49/49/50 161/161/51 162/162/52 8/8/53
f 131/131/54 132/132/55 49/49/50 8/8/53
f 53/53/56 205/205/57 206/206/58 10/11/59
f 52/52/60 128/128/61 129/129/40 11/12/39
f 11/12/39 164/164/38 165/165/62 52/52/60
f 214/214/63 215/215/64 51/51/65 14/14/66
f 115/115/12 116/116/67 32/32/68 2/2/10
f 36/36/69 201/201/70 202/202/42 13/10/45
f 12/13/16 35/35/71 124/124/72 125/125/13
f 12/13/16 168/168/18 169/169/73 35/35/71
f 218/218/34 219/219/74 34/34/75 15/15/35
f 32/32/68 157/157/76 158/158/7 2/2/10
f 116/116/67 117/117/77 25/25/78 32/32/68
f 25/25/78 156/156/79 157/157/76 32/32/68
f 219/219/74 220/220/80 29/29/81 34/34/75
f 35/35/71 169/169/73 170/170/82 28/28/83
f 123/123/84 124/124/72 35/35/71 28/28/83
f 27/27/85 200/200/86 201/201/70 36/36/69
f 117/117/77 118/118/3 37/37/2 25/25/78
f 39/39/48 199/199/47 200/200/86 27/27/85
f 122/122/24 123/123/84 28/28/83 40/40/19
f 28/28/83 170/170/82 171/171/20 40/40/19
f 220/220/80 221/221/30 41/41/29 29/29/81
f 37/37/2 155/155/6 156/156/79 25/25/78
f 44/44/9 159/159/8 160/160/87 20/20/88
f 20/20/88 133/133/89 134/134/11 44/44/9
f 46/46/44 203/203/43 204/204/90 22/22/91
f 47/47/15 126/126/14 127/127/92 23/23/93
f 23/23/93 166/166/94 167/167/17 47/47/15
f 24/24/95 216/216/96 217/217/33 48/48/32
f 20/20/88 160/160/87 161/161/51 49/49/50
f 51/51/65 215/215/64 216/216/96 24/24/95
f 52/52/60 165/165/62 166/166/94 23/23/93
f 23/23/93 127/127/92 128/128/61 52/52/60
f 22/22/91 204/204/90 205/205/57 53/53/56
f 49/49/50 132/132/55 133/133/89 20/20/88
f 119/119/4 229/293/97 230/292/98 1/1/1
f 4/4/99 38/38/100 257/267/101 226/226/102
f 256/269/103 257/267/101 38/38/100 26/26/104
f 255/270/105 256/269/103 26/26/104 31/31/106
f 254/271/107 255/270/105 31/31/106 3/3/108
f 3/3/108 45/45/109 253/272/110 254/271/107
f 252/273/111 253/272/110 45/45/109 21/21/112
f 251/274/113 252/273/111 21/21/112 54/54/114
f 250/275/115 251/274/113 54/54/114 9/9/116
f 246/279/117 247/278/118 131/131/54 8/8/53
f 162/162/52 245/280/119 246/279/117 8/8/53
f 7/7/120 50/50/121 241/284/122 242/283/123
f 240/285/124 241/284/122 50/50/121 19/19/125
f 239/286/126 240/285/124 19/19/125 43/43/127
f 238/287/128 239/286/126 43/43/127 6/6/129
f 33/33/130 237/288/131 238/287/128 6/6/129
f 30/30/132 236/289/133 237/288/131 33/33/130
f 42/42/134 235/290/135 236/289/133 30/30/132
f 234/291/136 235/290/135 42/42/134 5/5/137
f 230/292/98 231/231/138 154/154/5 1/1/1
f 31/31/106 98/98/139 99/99/140 3/3/108
f 26/26/104 97/97/141 98/98/139 31/31/106
f 38/38/100 96/96/142 97/97/141 26/26/104
f 95/95/143 96/96/142 38/38/100 4/4/99
f 226/226/102 227/295/144 95/95/143 4/4/99
f 18/18/49 113/113/145 197/197/146 198/198/46
f 39/39/48 112/112/147 113/113/145 18/18/49
f 27/27/85 111/111/148 112/112/147 39/39/48
f 36/36/69 110/110/149 111/111/148 27/27/85
f 109/109/150 110/110/149 36/36/69 13/10/45
f 13/10/45 46/46/44 108/108/151 109/109/150
f 107/107/152 108/108/151 46/46/44 22/22/91
f 106/106/153 107/107/152 22/22/91 53/53/56
f 105/105/154 106/106/153 53/53/56 10/11/59
f 206/206/58 207/207/155 105/105/154 10/11/59
f 9/9/116 103/103/156 249/276/157 250/275/115
f 9/9/116 54/54/114 102/102/158 103/103/156
f 101/101/159 102/102/158 54/54/114 21/21/112
f 100/100/160 101/101/159 21/21/112 45/45/109
f 99/99/140 100/100/160 45/45/109 3/3/108
f 79/79/161 78/78/162 96/96/142 95/95/143
f 97/97/141 96/96/142 78/78/162 77/77/163
f 98/98/139 97/97/141 77/77/163 76/76/164
f 99/99/140 98/98/139 76/76/164 75/75/165
f 75/75/165 94/94/166 100/100/160 99/99/140
f 94/94/166 93/93/167 101/101/159 100/100/160
f 93/93/167 92/92/168 102/102/158 101/101/159
f 103/103/156 102/102/158 92/92/168 91/91/169
f 248/277/170 249/276/157 103/103/156 91/91/169
f 105/105/154 207/207/155 208/208/171 89/89/172
f 89/89/172 88/88/173 106/106/153 105/105/154
f 88/88/173 87/87/174 107/107/152 106/106/153
f 87/87/174 86/86/175 108/108/151 107/107/152
f 109/109/150 108/108/151 86/86/175 85/85/176
f 85/85/176 84/84/177 110/110/149 109/109/150
f 111/111/148 110/110/149 84/84/177 83/83/178
f 112/112/147 111/111/148 83/83/178 82/82/179
f 113/113/145 112/112/147 82/82/179 81/81/180
f 196/196/181 197/197/146 113/113/145 81/81/180
f 95/95/143 227/295/144 228/294/182 79/79/161
f 75/75/165 76/76/164 116/116/67 115/115/12
f 76/76/164 77/77/163 117/117/77 116/116/67
f 77/77/163 78/78/162 118/118/3 117/117/77
f 119/119/4 118/118/3 78/78/162 79/79/161
f 79/79/161 228/294/182 229/293/97 119/119/4
f 195/195/26 196/196/181 81/81/180 121/121/23
f 81/81/180 82/82/179 122/122/24 121/121/23
f 82/82/179 83/83/178 123/123/84 122/122/24
f 83/83/178 84/84/177 124/124/72 123/123/84
f 125/125/13 124/124/72 84/84/177 85/85/176
f 85/85/176 86/86/175 126/126/14 125/125/13
f 127/127/92 126/126/14 86/86/175 87/87/174
f 128/128/61 127/127/92 87/87/174 88/88/173
f 129/129/40 128/128/61 88/88/173 89/89/172
f 89/89/172 208/208/171 209/209/41 129/129/40
f 247/278/118 248/277/170 91/91/169 131/131/54
f 91/91/169 92/92/168 132/132/55 131/131/54
f 133/133/89 132/132/55 92/92/168 93/93/167
f 134/134/11 133/133/89 93/93/167 94/94/166
f 115/115/12 134/134/11 94/94/166 75/75/165
f 177/177/183 178/178/184 5/5/137 42/42/134
f 176/176/185 177/177/183 42/42/134 30/30/132
f 175/175/186 176/176/185 30/30/132 33/33/130
f 174/174/187 175/175/186 33/33/130 6/6/129
f 6/6/129 43/43/127 193/193/188 174/174/187
f 192/192/189 193/193/188 43/43/127 19/19/125
f 191/191/190 192/192/189 19/19/125 50/50/121
f 190/190/191 191/191/190 50/50/121 7/7/120
f 242/283/123 243/282/192 190/190/191 7/7/120
f 14/14/66 188/188/193 213/213/194 214/214/63
f 187/187/195 188/188/193 14/14/66 51/51/65
f 186/186/196 187/187/195 51/51/65 24/24/95
f 185/185/197 186/186/196 24/24/95 48/48/32
f 184/184/198 185/185/197 48/48/32 15/15/35
f 183/183/199 184/184/198 15/15/35 34/34/75
f 182/182/200 183/183/199 34/34/75 29/29/81
f 181/181/201 182/182/200 29/29/81 41/41/29
f 180/180/202 181/181/201 41/41/29 16/16/28
f 222/222/31 223/223/203 180/180/202 16/16/28
f 178/178/184 233/233/204 234/291/136 5/5/137
f 156/156/79 155/155/6 135/135/205 136/136/206
f 157/157/76 156/156/79 136/136/206 137/137/207
f 158/158/7 157/157/76 137/137/207 138/138/208
f 138/138/208 139/139/209 159/159/8 158/158/7
f 160/160/87 159/159/8 139/139/209 140/140/210
f 161/161/51 160/160/87 140/140/210 141/141/211
f 162/162/52 161/161/51 141/141/211 142/142/212
f 142/142/212 244/281/213 245/280/119 162/162/52
f 211/211/37 212/212/214 144/144/215 164/164/38
f 165/165/62 164/164/38 144/144/215 145/145/216
f 166/166/94 165/165/62 145/145/216 146/146/217
f 167/167/17 166/166/94 146/146/217 147/147/218
f 168/168/18 167/167/17 147/147/218 148/148/219
f 169/169/73 168/168/18 148/148/219 149/149/220
f 170/170/82 169/169/73 149/149/220 150/150/221
f 171/171/20 170/170/82 150/150/221 151/151/222
f 172/172/21 171/171/20 151/151/222 152/152/223
f 224/224/224 225/225/27 172/172/21 152/152/223
f 138/138/208 137/137/207 175/175/186 174/174/187
f 137/137/207 136/136/206 176/176/185 175/175/186
f 136/136/206 135/135/205 177/177/183 176/176/185
f 223/223/203 224/224/224 152/152/223 180/180/202
f 152/152/223 151/151/222 181/181/201 180/180/202
f 151/151/222 150/150/221 182/182/200 181/181/201
f 150/150/221 149/149/220 183/183/199 182/182/200
f 149/149/220 148/148/219 184/184/198 183/183/199
f 148/148/219 147/147/218 185/185/197 184/184/198
f 147/147/218 146/146/217 186/186/196 185/185/197
f 146/146/217 145/145/216 187/187/195 186/186/196
f 145/145/216 144/144/215 188/188/193 187/187/195
f 212/212/214 213/213/194 188/188/193 144/144/215
f 190/190/191 243/282/192 244/281/213 142/142/212
f 142/142/212 141/141/211 191/191/190 190/190/191
f 141/141/211 140/140/210 192/192/189 191/191/190
f 140/140/210 139/139/209 193/193/188 192/192/189
f 174/174/187 193/193/188 139/139/209 138/138/208
f 120/120/225 195/195/26 194/194/25 55/55/226
f 80/80/227 196/196/181 195/195/26 120/120/225
f 114/114/228 197/197/146 196/196/181 80/80/227
f 198/198/46 197/197/146 114/114/228 56/56/229
f 56/56/229 57/57/230 199/199/47 198/198/46
f 200/200/86 199/199/47 57/57/230 58/58/231
f 201/201/70 200/200/86 58/58/231 59/59/232
f 202/202/42 201/201/70 59/59/232 60/60/233
f 60/60/233 61/61/234 203/203/43 202/202/42
f 204/204/90 203/203/43 61/61/234 62/62/235
f 205/205/57 204/204/90 62/62/235 63/63/236
f 206/206/58 205/205/57 63/63/236 64/64/237
f 64/64/237 104/104/238 207/207/155 206/206/58
f 208/208/171 207/207/155 104/104/238 90/90/239
f 209/209/41 208/208/171 90/90/239 130/130/240
f 210/210/36 209/209/41 130/130/240 65/65/241
f 163/163/242 211/211/37 210/210/36 65/65/241
f 143/143/243 212/212/214 211/211/37 163/163/242
f 189/189/244 213/213/194 212/212/214 143/143/243
f 214/214/63 213/213/194 189/189/244 66/66/245
f 66/66/245 67/67/246 215/215/64 214/214/63
f 216/216/96 215/215/64 67/67/246 68/68/247
f 217/217/33 216/216/96 68/68/247 69/69/248
f 218/218/34 217/217/33 69/69/248 70/70/249
f 70/70/249 71/71/250 219/219/74 218/218/34
f 71/71/250 72/72/251 220/220/80 219/219/74
f 72/72/251 73/73/252 221/221/30 220/220/80
f 222/222/31 221/221/30 73/73/252 74/74/253
f 179/179/254 223/223/203 222/222/31 74/74/253
f 153/153/255 224/224/224 223/223/203 179/179/254
f 173/173/256 225/225/27 224/224/224 153/153/255
f 194/194/25 225/225/27 173/173/256 55/55/226
f 56/56/229 114/114/228 227/227/144 226/268/102
f 228/228/182 227/227/144 114/114/228 80/80/227
f 229/229/97 228/228/182 80/80/227 120/120/225
f 230/230/98 229/229/97 120/120/225 55/55/226
f 55/55/226 173/173/256 231/298/138 230/230/98
f 232/296/257 231/298/138 173/173/256 153/153/255
f 233/297/204 232/296/257 153/153/255 179/179/254
f 234/234/136 233/297/204 179/179/254 74/74/253
f 74/74/253 73/73/252 235/235/135 234/234/136
f 236/236/133 235/235/135 73/73/252 72/72/251
f 237/237/131 236/236/133 72/72/251 71/71/250
f 238/238/128 237/237/131 71/71/250 70/70/249
f 70/70/249 69/69/248 239/239/126 238/238/128
f 69/69/248 68/68/247 240/240/124 239/239/126
f 68/68/247 67/67/246 241/241/122 240/240/124
f 242/242/123 241/241/122 67/67/246 66/66/245
f 66/66/245 189/189/244 243/243/192 242/242/123
f 244/244/213 243/243/192 189/189/244 143/143/243
f 245/245/119 244/244/213 143/143/243 163/163/242
f 246/246/117 245/245/119 163/163/242 65/65/241
f 130/130/240 247/247/118 246/246/117 65/65/241
f 90/90/239 248/248/170 247/247/118 130/130/240
f 104/104/238 249/249/157 248/248/170 90/90/239
f 250/250/115 249/249/157 104/104/238 64/64/237
f 64/64/237 63/63/236 251/251/113 250/250/115
f 63/63/236 62/62/235 252/252/111 251/251/113
f 62/62/235 61/61/234 253/253/110 252/252/111
f 254/254/107 253/253/110 61/61/234 60/60/233
f 60/60/233 59/59/232 255/255/105 254/254/107
f 59/59/232 58/58/231 256/256/103 255/255/105
f 58/58/231 57/57/230 257/257/101 256/256/103
f 226/268/102 257/257/101 57/57/230 56/56/229
f 261/258/258 258/259/259 259/260/260 260/261/261
f 263/262/262 262/263/263 258/259/259 261/258/258
f 260/261/261 264/264/264 265/265/265 261/258/258
f 266/266/266 263/262/262 261/258/258 265/265/265
f 266/266/266 231/231/138 232/232/257 263/262/262
f 265/265/265 154/154/5 231/231/138 266/266/266
f 264/264/264 155/155/6 154/154/5 265/265/265
f 135/135/205 155/155/6 264/264/264 260/261/261
f 259/260/260 177/177/183 135/135/205 260/261/261
f 178/178/184 177/177/183 259/260/260 258/259/259
f 178/178/184 258/259/259 262/263/263 233/233/204
f 233/233/204 262/263/263 263/262/262 232/232/257
