# This file uses centimeters as units for non-parametric coordinates.

g default
v 0.445719 0.236517 -0.014424
v 0.326593 0.301878 -0.293020
v 0.016848 0.230656 -0.464216
v -0.009944 0.429412 0.003501
v -0.013753 0.180122 0.453613
v 0.329540 0.259211 0.284548
v -0.297267 0.256258 0.307016
v -0.440845 0.294892 -0.006348
v -0.248777 0.315083 -0.326602
v -0.422208 0.151954 -0.002040
v 0.001280 0.125696 -0.007232
v -0.003333 0.043111 0.442741
v -0.290380 0.170780 0.303608
v -0.260348 0.200680 -0.312808
v 0.002244 0.009943 -0.424858
v 0.301169 0.101022 -0.282550
v 0.430138 0.019733 -0.000778
v 0.308548 0.126928 0.298335
v 0.101354 0.264599 -0.434668
v 0.139325 0.437885 0.007452
v 0.110542 0.225312 0.409516
v 0.092605 0.038972 0.428024
v 0.116294 0.097152 -0.005496
v 0.114543 0.039876 -0.405819
v 0.213921 0.297245 -0.386662
v 0.308766 0.358259 -0.003050
v 0.213140 0.264622 0.348938
v 0.198597 0.075109 0.369915
v 0.288268 0.034199 -0.002865
v 0.210714 0.082470 -0.349878
v -0.098315 0.214197 0.420217
v -0.142241 0.402768 -0.002861
v -0.060880 0.264493 -0.436250
v -0.083277 0.095319 -0.405145
v -0.120448 0.142655 -0.005153
v -0.098453 0.062123 0.413276
v -0.203520 0.245961 0.368389
v -0.288930 0.365650 -0.007370
v -0.156864 0.296951 -0.390431
v -0.176550 0.172308 -0.352049
v -0.262177 0.122293 -0.003461
v -0.207305 0.106041 0.357149
v -0.007469 0.282865 0.318357
v 0.111715 0.302504 0.289625
v 0.239721 0.313598 0.267593
v 0.392099 0.265357 0.182476
v 0.342775 0.095799 0.219598
v 0.217716 0.055427 0.271188
v 0.102832 0.027123 0.303044
v -0.005325 0.022528 0.306864
v -0.117243 0.055308 0.293704
v -0.218308 0.117173 0.260779
v -0.356282 0.179915 0.222342
v -0.355768 0.288977 0.236139
v -0.229331 0.299173 0.279566
v -0.109854 0.286736 0.311112
v -0.006420 0.377985 0.163332
v 0.130766 0.383409 0.157787
v 0.291731 0.354658 0.129017
v 0.429420 0.243117 0.077995
v 0.397123 0.036405 0.113170
v 0.273520 0.050363 0.129327
v 0.110198 0.077895 0.142313
v -0.001498 0.080826 0.141289
v -0.117745 0.106480 0.136478
v -0.241540 0.127977 0.120062
v -0.409846 0.160211 0.107978
v -0.415953 0.309121 0.110711
v -0.265854 0.355887 0.131957
v -0.132999 0.369015 0.158581
v 0.423695 0.254029 -0.104142
v 0.290029 0.376856 -0.120068
v 0.133946 0.450236 -0.145947
v -0.006364 0.435734 -0.167114
v -0.131801 0.408501 -0.160468
v -0.275606 0.366765 -0.151309
v -0.398121 0.313219 -0.146647
v -0.421577 0.150714 -0.115169
v -0.257361 0.128879 -0.102612
v -0.100004 0.135170 -0.131236
v 0.004415 0.102960 -0.146699
v 0.109447 0.076862 -0.132316
v 0.280255 0.034711 -0.117198
v 0.408399 0.041345 -0.102762
v 0.004362 0.350385 -0.346127
v 0.134816 0.372224 -0.318826
v 0.245792 0.382564 -0.270903
v 0.376269 0.283940 -0.207006
v 0.358852 0.077339 -0.202936
v 0.224621 0.052145 -0.241458
v 0.099658 0.040036 -0.273320
v -0.001169 0.049203 -0.296917
v -0.079904 0.102990 -0.272631
v -0.213170 0.153536 -0.224935
v -0.355284 0.167047 -0.227399
v -0.347359 0.308079 -0.243285
v -0.215981 0.364645 -0.264269
v -0.092441 0.362353 -0.323835
v -0.307122 0.207330 0.313910
v -0.228198 0.181943 0.404730
v -0.102396 0.134106 0.459726
v -0.010125 0.115078 0.473144
v 0.115263 0.129708 0.458894
v 0.239146 0.163132 0.393238
v 0.333541 0.191668 0.307376
v 0.400461 0.182435 0.226207
v 0.465529 0.125873 0.114947
v 0.482545 0.104068 -0.009115
v 0.463249 0.140371 -0.124158
v 0.407963 0.182711 -0.235362
v 0.342147 0.203012 -0.315553
v 0.234855 0.174844 -0.406137
v 0.113567 0.116748 -0.465717
v 0.003155 0.099742 -0.487270
v -0.091208 0.164270 -0.450934
v -0.174486 0.214543 -0.394524
v -0.266159 0.247779 -0.339781
v -0.396552 0.252873 -0.236471
v -0.458245 0.241969 -0.117801
v -0.463123 0.221629 -0.002760
v -0.451706 0.234485 0.116135
v -0.369893 0.219746 0.256604
vt 0.521031 0.176847
vt 0.484307 0.252144
vt 0.406982 0.312182
vt 0.389514 0.176877
vt 0.387300 0.043558
vt 0.481739 0.097393
vt 0.274269 0.184211
vt 0.309213 0.093355
vt 0.331614 0.270880
vt 0.036496 0.283639
vt 0.113716 0.221031
vt 0.157176 0.337594
vt 0.033081 0.383868
vt 0.218550 0.227318
vt 0.273916 0.308324
vt 0.267781 0.404289
vt 0.195021 0.459602
vt 0.096747 0.465266
vt 0.428535 0.298633
vt 0.427225 0.175179
vt 0.421761 0.059881
vt 0.045801 0.407605
vt 0.167187 0.371130
vt 0.280142 0.338193
vt 0.455967 0.279320
vt 0.474461 0.175766
vt 0.449295 0.079982
vt 0.068712 0.434724
vt 0.183005 0.421450
vt 0.277118 0.371786
vt 0.363793 0.056624
vt 0.355863 0.179986
vt 0.384529 0.302741
vt 0.263787 0.279179
vt 0.144701 0.303973
vt 0.030115 0.355810
vt 0.334996 0.074657
vt 0.317589 0.183179
vt 0.357399 0.288606
vt 0.239074 0.248758
vt 0.129688 0.265522
vt 0.033387 0.318223
vt 0.388875 0.087688
vt 0.420932 0.096508
vt 0.454847 0.104776
vt 0.499239 0.124614
vt 0.124296 0.463762
vt 0.099290 0.429778
vt 0.080197 0.399999
vt 0.068920 0.371112
vt 0.061129 0.338816
vt 0.058809 0.303425
vt 0.054440 0.257300
vt 0.296233 0.116637
vt 0.329576 0.102742
vt 0.361232 0.091082
vt 0.389655 0.134348
vt 0.425083 0.135710
vt 0.467588 0.142323
vt 0.514807 0.151613
vt 0.162348 0.461970
vt 0.144147 0.431158
vt 0.125938 0.385449
vt 0.115330 0.353719
vt 0.104658 0.319635
vt 0.096460 0.282937
vt 0.084310 0.234034
vt 0.282350 0.152489
vt 0.322709 0.145620
vt 0.356851 0.136740
vt 0.515125 0.201839
vt 0.469353 0.205606
vt 0.426567 0.212302
vt 0.392544 0.220094
vt 0.360643 0.220870
vt 0.322686 0.221323
vt 0.288176 0.222371
vt 0.144370 0.211535
vt 0.158174 0.257229
vt 0.182266 0.296923
vt 0.196706 0.326527
vt 0.203143 0.358968
vt 0.214631 0.409639
vt 0.220947 0.446429
vt 0.398862 0.269976
vt 0.431123 0.258452
vt 0.457429 0.242891
vt 0.500239 0.230141
vt 0.247620 0.426140
vt 0.245329 0.383894
vt 0.242978 0.345756
vt 0.239903 0.314998
vt 0.225119 0.290292
vt 0.198267 0.254618
vt 0.181367 0.216243
vt 0.302611 0.249129
vt 0.340394 0.250472
vt 0.373399 0.264530
vt 0.300857 0.083082
vt 0.008551 0.308961
vt 0.005324 0.355358
vt 0.010301 0.387624
vt 0.027084 0.427772
vt 0.058840 0.461799
vt 0.091431 0.485220
vt 0.121953 0.494853
vt 0.165580 0.495074
vt 0.206422 0.484957
vt 0.243757 0.470400
vt 0.276623 0.446385
vt 0.296965 0.421697
vt 0.308742 0.380106
vt 0.307618 0.334384
vt 0.300209 0.296384
vt 0.279044 0.261011
vt 0.253226 0.237528
vt 0.228792 0.214861
vt 0.184644 0.187936
vt 0.141535 0.184117
vt 0.105836 0.198024
vt 0.070652 0.213121
vt 0.039160 0.252301
vt 0.282971 0.102935
vt 0.027386 0.275450
vt 0.261091 0.147234
vt 0.254515 0.182988
vt 0.262667 0.216945
vt 0.282762 0.252240
vt 0.320811 0.286408
vt 0.348462 0.308693
vt 0.376910 0.329130
vt 0.408212 0.346307
vt 0.440176 0.335679
vt 0.473750 0.305715
vt 0.504132 0.270517
vt 0.525498 0.243076
vt 0.546061 0.208002
vt 0.555993 0.172902
vt 0.544663 0.137027
vt 0.515386 0.105693
vt 0.490905 0.081283
vt 0.461891 0.053414
vt 0.424781 0.031997
vt 0.388445 0.025836
vt 0.361629 0.033105
vt 0.325982 0.056296
vn 0.835440 0.549185 0.020882
vn 0.803384 0.581450 -0.128417
vn 0.519198 0.852222 -0.064429
vn 0.524563 0.845902 0.096351
vn 0.427009 0.868163 0.252897
vn 0.795600 0.580214 0.174274
vn -0.628286 0.777914 0.010346
vn -0.560374 0.796160 0.228276
vn -0.235230 0.940640 0.244670
vn -0.314733 0.948117 0.044904
vn -0.331514 0.937708 -0.103931
vn -0.565727 0.809819 -0.155388
vn -0.199442 -0.979888 -0.006551
vn -0.474077 -0.863285 0.173178
vn -0.468811 -0.882598 0.035169
vn -0.075387 -0.997145 -0.004234
vn -0.503553 -0.834910 -0.222171
vn -0.072788 -0.994704 -0.072564
vn -0.186979 -0.982083 0.023512
vn -0.083441 -0.995125 -0.052581
vn 0.442408 -0.838015 -0.319385
vn 0.423879 -0.905551 0.017414
vn 0.373495 -0.862793 0.340719
vn -0.072254 -0.995276 0.064848
vn -0.713399 -0.043265 0.699421
vn -0.551198 -0.013958 0.834258
vn -0.210262 0.703435 0.678948
vn -0.439309 0.608099 0.661228
vn -0.997654 -0.064530 0.022878
vn -0.946418 -0.025758 0.321915
vn -0.960566 0.016592 -0.277557
vn -0.452610 0.598203 -0.661284
vn -0.317775 0.579510 -0.750458
vn -0.564199 -0.091117 -0.820596
vn -0.588910 -0.032521 -0.807544
vn 0.714141 -0.053845 -0.697927
vn 0.552549 -0.078615 -0.829764
vn 0.385645 0.494334 -0.779045
vn 0.651833 0.484070 -0.583773
vn 0.986444 -0.163829 -0.009402
vn 0.931098 -0.088427 -0.353889
vn 0.918069 -0.136723 0.372096
vn 0.259702 0.683343 0.682347
vn 0.542737 0.050823 0.838363
vn 0.698573 0.036503 0.714607
vn 0.556984 0.587937 0.586600
vn 0.168390 0.970806 0.170824
vn 0.133868 0.980979 -0.140572
vn -0.108341 0.973671 -0.200568
vn -0.117772 0.978571 0.168902
vn -0.061266 0.913083 0.403146
vn 0.103005 0.921497 0.374477
vn -0.024816 -0.043827 0.998731
vn 0.336768 0.017148 0.941432
vn 0.103075 0.676448 0.729242
vn 0.004557 0.626127 0.779708
vn -0.242458 -0.970162 0.000428
vn -0.109285 -0.979105 -0.171496
vn -0.128817 -0.950770 -0.281854
vn -0.189176 -0.979382 -0.070882
vn -0.263612 -0.941983 0.207790
vn -0.219429 -0.963338 0.154374
vn 0.170198 0.495128 -0.851986
vn 0.380410 -0.170798 -0.908909
vn -0.098659 -0.241899 -0.965273
vn 0.006578 0.421459 -0.906824
vn -0.203135 0.972965 0.109887
vn -0.121805 0.930708 0.344884
vn -0.201447 0.970620 -0.131593
vn -0.498601 -0.103863 -0.860587
vn -0.186786 0.530330 -0.826959
vn -0.061149 -0.995031 -0.078579
vn -0.159139 -0.984684 0.071224
vn -0.182373 -0.957707 -0.222569
vn -0.071593 0.696766 0.713716
vn -0.373197 -0.109424 0.921276
vn 0.016530 0.855665 0.517266
vn -0.021691 0.837936 0.545338
vn 0.253946 0.865439 0.431888
vn 0.701000 0.626997 0.339815
vn 0.839142 -0.049929 0.541616
vn 0.621111 -0.581983 0.524898
vn 0.506878 -0.702162 0.500043
vn 0.200141 -0.975330 0.093140
vn 0.480303 -0.731301 0.484260
vn 0.082650 -0.993796 -0.074424
vn 0.253186 -0.806921 0.533643
vn -0.118633 -0.984683 -0.127775
vn -0.094532 -0.842268 0.530706
vn -0.404126 -0.813794 0.417638
vn -0.310068 -0.943308 -0.118435
vn -0.562557 -0.749331 0.349331
vn -0.387690 -0.921790 0.000937
vn -0.636350 -0.699712 0.324750
vn -0.505813 -0.825943 0.248943
vn -0.479609 0.746750 0.460803
vn -0.815303 -0.044860 0.577294
vn -0.161552 0.874372 0.457575
vn -0.040312 0.858030 0.512015
vn 0.405250 0.848773 -0.339641
vn 0.752868 0.597468 -0.276083
vn 0.080164 0.862032 -0.500475
vn -0.041423 0.836283 -0.546731
vn -0.128906 0.872863 -0.470631
vn -0.260381 0.903089 -0.341516
vn -0.542191 0.701422 -0.462641
vn -0.789763 0.002393 -0.613407
vn -0.223872 -0.962494 -0.153252
vn -0.409594 -0.796779 -0.444270
vn -0.419563 -0.703879 -0.573168
vn -0.537414 -0.774762 -0.333063
vn -0.432263 -0.899099 0.069062
vn -0.645684 -0.713281 -0.272620
vn -0.302217 -0.929782 0.210166
vn -0.218362 -0.926657 -0.305982
vn 0.334697 -0.859301 -0.386756
vn -0.009837 -0.992452 0.122237
vn 0.101217 -0.989543 -0.102765
vn 0.492298 -0.740322 -0.457783
vn 0.481667 -0.735669 -0.476223
vn 0.539516 -0.636885 -0.550727
vn 0.848788 -0.059784 -0.525342
s 1
g Rock3_Snow_LOW Rocks_Group
f 1/1/1 71/71/2 72/72/3 26/26/4
f 1/1/1 26/26/4 59/59/5 60/60/6
f 8/7/7 68/68/8 69/69/9 38/38/10
f 38/38/10 76/76/11 77/77/12 8/7/7
f 66/66/13 67/67/14 10/11/15 41/41/16
f 10/11/15 78/78/17 79/79/18 41/41/16
f 29/29/19 83/83/20 84/84/21 17/17/22
f 61/61/23 62/62/24 29/29/19 17/17/22
f 99/99/25 100/146/26 37/37/27 7/8/28
f 120/126/29 121/125/30 68/68/8 8/7/7
f 8/7/7 77/77/12 119/127/31 120/126/29
f 9/9/32 39/39/33 116/130/34 117/129/35
f 111/135/36 112/134/37 25/25/38 2/2/39
f 108/138/40 109/137/41 71/71/2 1/1/1
f 1/1/1 60/60/6 107/139/42 108/138/40
f 27/27/43 104/142/44 105/141/45 6/6/46
f 20/20/47 73/73/48 74/74/49 4/4/50
f 57/57/51 58/58/52 20/20/47 4/4/50
f 102/144/53 103/143/54 21/21/55 5/5/56
f 23/23/57 63/63/58 64/64/59 11/12/60
f 81/81/61 82/82/62 23/23/57 11/12/60
f 19/19/63 113/133/64 114/132/65 3/3/66
f 26/26/4 72/72/3 73/73/48 20/20/47
f 58/58/52 59/59/5 26/26/4 20/20/47
f 21/21/55 103/143/54 104/142/44 27/27/43
f 29/29/19 62/62/24 63/63/58 23/23/57
f 23/23/57 82/82/62 83/83/20 29/29/19
f 25/25/38 112/134/37 113/133/64 19/19/63
f 32/32/67 70/70/68 57/57/51 4/4/50
f 4/4/50 74/74/49 75/75/69 32/32/67
f 114/132/65 115/131/70 33/33/71 3/3/66
f 35/35/72 80/80/73 81/81/61 11/12/60
f 64/64/59 65/65/74 35/35/72 11/12/60
f 5/5/56 31/31/75 101/145/76 102/144/53
f 38/38/10 69/69/9 70/70/68 32/32/67
f 32/32/67 75/75/69 76/76/11 38/38/10
f 115/131/70 116/130/34 39/39/33 33/33/71
f 41/41/16 79/79/18 80/80/73 35/35/72
f 65/65/74 66/66/13 41/41/16 35/35/72
f 100/146/26 101/145/76 31/31/75 37/37/27
f 21/21/55 44/44/77 43/43/78 5/5/56
f 27/27/43 45/45/79 44/44/77 21/21/55
f 46/46/80 45/45/79 27/27/43 6/6/46
f 105/141/45 106/140/81 46/46/80 6/6/46
f 18/18/82 28/28/83 48/48/84 47/47/85
f 49/49/86 48/48/84 28/28/83 22/22/87
f 50/50/88 49/49/86 22/22/87 12/13/89
f 36/36/90 51/51/91 50/50/88 12/13/89
f 42/42/92 52/52/93 51/51/91 36/36/90
f 13/10/94 53/53/95 52/52/93 42/42/92
f 54/54/96 122/123/97 99/99/25 7/8/28
f 55/55/98 54/54/96 7/8/28 37/37/27
f 56/56/99 55/55/98 37/37/27 31/31/75
f 43/43/78 56/56/99 31/31/75 5/5/56
f 43/43/78 44/44/77 58/58/52 57/57/51
f 44/44/77 45/45/79 59/59/5 58/58/52
f 60/60/6 59/59/5 45/45/79 46/46/80
f 106/140/81 107/139/42 60/60/6 46/46/80
f 47/47/85 48/48/84 62/62/24 61/61/23
f 63/63/58 62/62/24 48/48/84 49/49/86
f 64/64/59 63/63/58 49/49/86 50/50/88
f 50/50/88 51/51/91 65/65/74 64/64/59
f 51/51/91 52/52/93 66/66/13 65/65/74
f 52/52/93 53/53/95 67/67/14 66/66/13
f 68/68/8 121/125/30 122/123/97 54/54/96
f 69/69/9 68/68/8 54/54/96 55/55/98
f 70/70/68 69/69/9 55/55/98 56/56/99
f 57/57/51 70/70/68 56/56/99 43/43/78
f 87/87/100 88/88/101 2/2/39 25/25/38
f 86/86/102 87/87/100 25/25/38 19/19/63
f 85/85/103 86/86/102 19/19/63 3/3/66
f 98/98/104 85/85/103 3/3/66 33/33/71
f 97/97/105 98/98/104 33/33/71 39/39/33
f 96/96/106 97/97/105 39/39/33 9/9/32
f 117/129/35 118/128/107 96/96/106 9/9/32
f 94/94/108 95/95/109 14/14/110 40/40/111
f 93/93/112 94/94/108 40/40/111 34/34/113
f 92/92/114 93/93/112 34/34/113 15/15/115
f 15/15/115 24/24/116 91/91/117 92/92/114
f 90/90/118 91/91/117 24/24/116 30/30/119
f 89/89/120 90/90/118 30/30/119 16/16/121
f 88/88/101 110/136/122 111/135/36 2/2/39
f 74/74/49 73/73/48 86/86/102 85/85/103
f 73/73/48 72/72/3 87/87/100 86/86/102
f 72/72/3 71/71/2 88/88/101 87/87/100
f 71/71/2 109/137/41 110/136/122 88/88/101
f 84/84/21 83/83/20 90/90/118 89/89/120
f 83/83/20 82/82/62 91/91/117 90/90/118
f 92/92/114 91/91/117 82/82/62 81/81/61
f 81/81/61 80/80/73 93/93/112 92/92/114
f 80/80/73 79/79/18 94/94/108 93/93/112
f 79/79/18 78/78/17 95/95/109 94/94/108
f 118/128/107 119/127/31 77/77/12 96/96/106
f 77/77/12 76/76/11 97/97/105 96/96/106
f 76/76/11 75/75/69 98/98/104 97/97/105
f 75/75/69 74/74/49 85/85/103 98/98/104
f 42/42/92 100/100/26 99/124/25 13/10/94
f 36/36/90 101/101/76 100/100/26 42/42/92
f 102/102/53 101/101/76 36/36/90 12/13/89
f 12/13/89 22/22/87 103/103/54 102/102/53
f 104/104/44 103/103/54 22/22/87 28/28/83
f 105/105/45 104/104/44 28/28/83 18/18/82
f 47/47/85 106/106/81 105/105/45 18/18/82
f 61/61/23 107/107/42 106/106/81 47/47/85
f 108/108/40 107/107/42 61/61/23 17/17/22
f 17/17/22 84/84/21 109/109/41 108/108/40
f 110/110/122 109/109/41 84/84/21 89/89/120
f 111/111/36 110/110/122 89/89/120 16/16/121
f 16/16/121 30/30/119 112/112/37 111/111/36
f 113/113/64 112/112/37 30/30/119 24/24/116
f 114/114/65 113/113/64 24/24/116 15/15/115
f 34/34/113 115/115/70 114/114/65 15/15/115
f 40/40/111 116/116/34 115/115/70 34/34/113
f 117/117/35 116/116/34 40/40/111 14/14/110
f 95/95/109 118/118/107 117/117/35 14/14/110
f 78/78/17 119/119/31 118/118/107 95/95/109
f 120/120/29 119/119/31 78/78/17 10/11/15
f 10/11/15 67/67/14 121/121/30 120/120/29
f 122/122/97 121/121/30 67/67/14 53/53/95
f 99/124/25 122/122/97 53/53/95 13/10/94
