# This file uses centimeters as units for non-parametric coordinates.

g default
v 0.008924 0.383600 0.042241
v 0.025099 0.354500 -0.046775
v -0.141223 0.370649 -0.051732
v -0.128819 0.407217 0.032206
v 0.198242 0.159768 0.220271
v 0.210706 0.114987 -0.198706
v -0.306322 0.127587 -0.238023
v -0.269509 0.213544 0.180781
v -0.377703 0.004985 -0.304216
v -0.322751 0.110144 0.273623
v 0.292291 -0.030453 0.388694
v 0.343026 -0.043257 -0.327489
v -0.122078 -0.191338 -0.446115
v -0.233115 -0.397550 -0.239672
v -0.468948 -0.090524 -0.122345
v -0.469982 -0.073251 0.075655
v -0.323556 -0.301033 0.216243
v 0.111551 -0.148064 0.442185
v -0.171206 -0.135322 0.422599
v 0.459802 -0.194757 -0.166109
v 0.434414 -0.224204 0.161118
v 0.243962 -0.281016 0.308389
v 0.259745 -0.285737 -0.365048
v 0.125689 -0.184630 -0.463938
v -0.059501 0.364474 -0.060726
v -0.059515 0.401629 0.043943
v -0.082720 0.217533 0.216008
v -0.078938 0.087150 0.354227
v -0.059237 -0.149367 0.441525
v -0.086670 -0.332398 0.271782
v -0.035811 -0.368302 -0.293674
v -0.025042 -0.187631 -0.468692
v -0.090285 0.004888 -0.333977
v -0.101191 0.130895 -0.232229
v 0.027522 0.371653 -0.000668
v -0.146899 0.393641 -0.010388
v -0.309164 0.190518 -0.011827
v -0.383919 0.087427 0.008557
v -0.476309 -0.083106 -0.015511
v -0.293436 -0.354161 0.006566
v -0.057665 -0.376396 0.011729
v 0.257125 -0.312085 -0.001324
v 0.462696 -0.228625 0.009150
v 0.354083 -0.006808 0.059543
v 0.217308 0.149978 0.027584
v -0.258253 -0.081383 -0.390153
v -0.371051 -0.249888 -0.179593
v -0.395917 -0.219505 -0.004882
v -0.396920 -0.182160 0.141867
v -0.260000 -0.009602 0.353876
v -0.069474 0.005406 0.430715
v 0.211998 -0.088928 0.428672
v 0.353930 -0.265377 0.239083
v 0.367882 -0.289455 0.004101
v 0.379498 -0.247215 -0.275974
v 0.238355 -0.097670 -0.411485
v -0.058854 -0.085315 -0.402236
v -0.147005 0.382388 -0.031127
v 0.027740 0.363408 -0.024810
v 0.221889 0.140877 -0.087665
v 0.362248 -0.014592 -0.134793
v 0.465395 -0.215259 -0.079514
v 0.384149 -0.281262 -0.138145
v 0.260988 -0.311296 -0.184200
v -0.046319 -0.374079 -0.141824
v -0.273086 -0.380236 -0.116583
v -0.383986 -0.235213 -0.092730
v -0.473959 -0.087246 -0.069260
v -0.402628 0.061835 -0.148702
v -0.323713 0.170484 -0.125566
v 0.017729 0.379340 0.022332
v -0.138176 0.405023 0.012527
v -0.297562 0.206492 0.078855
v -0.366869 0.105793 0.133758
v -0.477547 -0.079048 0.027462
v -0.404624 -0.208182 0.064201
v -0.310702 -0.331498 0.105285
v -0.066711 -0.378245 0.134166
v 0.254044 -0.312714 0.144493
v 0.372422 -0.286775 0.118269
v 0.454000 -0.236505 0.084695
v 0.348613 -0.000866 0.214885
v 0.211495 0.157151 0.118304
v -0.011921 0.362191 -0.055108
v -0.059797 0.390319 -0.008903
v -0.022414 0.393456 0.044853
v 0.075183 0.191385 0.240684
v 0.128857 0.040339 0.398032
v 0.086790 -0.035640 0.463693
v 0.035424 -0.148815 0.442097
v 0.095995 -0.314662 0.299572
v 0.111071 -0.341924 0.139890
v 0.116811 -0.340751 0.004494
v 0.124009 -0.339280 -0.165311
v 0.129500 -0.329716 -0.335737
v 0.058599 -0.185354 -0.468425
v 0.105877 -0.092136 -0.407398
v 0.149883 -0.010349 -0.345508
v 0.074101 0.131837 -0.221259
v -0.097791 0.407553 0.039524
v -0.104505 0.368120 -0.057744
v -0.174920 0.130022 -0.234725
v -0.193610 0.010059 -0.330064
v -0.130557 -0.082427 -0.399883
v -0.060554 -0.189743 -0.463308
v -0.106354 -0.382407 -0.275368
v -0.125009 -0.390155 -0.132750
v -0.137460 -0.392699 0.009873
v -0.147615 -0.394773 0.123784
v -0.173081 -0.343406 0.277733
v -0.100204 -0.147979 0.441189
v -0.139825 0.015182 0.420002
v -0.166582 0.106001 0.336581
v -0.150228 0.223903 0.211565
v -0.184777 -0.322190 -0.357289
v -0.349806 -0.183357 -0.300548
v -0.442245 -0.047221 -0.216297
v -0.453006 -0.007794 -0.106943
v -0.443279 0.005388 -0.003629
v -0.431918 0.013184 0.078387
v -0.407718 0.015215 0.173688
v -0.336196 -0.101103 0.245551
v -0.257525 -0.223523 0.318910
v -0.138609 -0.251141 0.355331
v -0.073689 -0.249852 0.356920
v 0.067333 -0.236892 0.367851
v 0.181319 -0.223998 0.378700
v 0.297482 -0.189061 0.353371
v 0.379691 -0.138978 0.294445
v 0.413509 -0.092246 0.145781
v 0.428170 -0.110280 0.033125
v 0.429587 -0.111283 -0.105704
v 0.418096 -0.099710 -0.241712
v 0.334616 -0.187366 -0.363822
v 0.202789 -0.244855 -0.425454
v 0.094154 -0.283103 -0.408566
v -0.030939 -0.299848 -0.390329
v -0.084654 -0.312886 -0.373565
v 0.122358 0.212587 -0.124204
v 0.141074 0.241884 -0.061077
v 0.135856 0.250493 0.015792
v 0.130825 0.256676 0.075927
v 0.114034 0.252446 0.141907
v 0.032780 0.287895 0.165241
v -0.078607 0.306455 0.148251
v -0.125856 0.310885 0.144352
v -0.207065 0.294500 0.114949
v -0.232800 0.295650 0.048817
v -0.241693 0.283413 -0.010882
v -0.252535 0.267574 -0.085522
v -0.237813 0.233412 -0.160563
v -0.143986 0.235201 -0.159685
v -0.091304 0.234078 -0.160426
v 0.034217 0.236025 -0.154906
v -0.344753 0.070901 -0.274166
v -0.362779 0.116701 -0.137019
v -0.346209 0.139513 -0.001736
v -0.333058 0.157490 0.106037
v -0.303272 0.173608 0.235515
v -0.158258 0.169137 0.277242
v -0.080788 0.156619 0.288097
v 0.101753 0.120644 0.322883
v 0.261825 0.087971 0.309038
v 0.277455 0.077036 0.166123
v 0.283232 0.070618 0.043425
v 0.288553 0.061136 -0.110955
v 0.289235 0.052410 -0.267647
v 0.111635 0.065349 -0.287595
v -0.095789 0.069967 -0.284457
v -0.184168 0.071649 -0.283204
vt 0.478178 0.831517
vt 0.467985 0.803343
vt 0.518754 0.793014
vt 0.521105 0.822201
vt 0.117797 0.638344
vt 0.222023 0.655318
vt 0.240179 0.679328
vt 0.170146 0.759665
vt 0.388880 0.734060
vt 0.544024 0.688083
vt 0.237892 0.690805
vt 0.247567 0.826039
vt 0.163062 0.801586
vt 0.165849 0.771904
vt 0.450929 0.808021
vt 0.319008 0.882967
vt 0.342373 0.777713
vt 0.380273 0.754666
vt 0.274888 0.658603
vt 0.291013 0.844241
vt 0.483013 0.843708
vt 0.325622 0.970339
vt 0.123217 0.832188
vt 0.043133 0.620967
vt 0.333339 0.682279
vt 0.555120 0.640816
vt 0.844568 0.600007
vt 0.872032 0.725022
vt 0.783006 0.711628
vt 0.762777 0.594393
vt 0.330915 0.702546
vt 0.343473 0.763875
vt 0.656124 0.676371
vt 0.687701 0.590051
vt 0.476364 0.947791
vt 0.395048 0.990420
vt 0.567034 0.695779
vt 0.580735 0.580440
vt 0.029232 0.787887
vt 0.001769 0.688606
vt 0.554026 0.803621
vt 0.615445 0.845519
vt 0.653347 0.916518
vt 0.540269 0.880371
vt 0.878292 0.818311
vt 0.865968 0.921992
vt 0.776748 0.931281
vt 0.826487 0.853110
vt 0.384245 0.605923
vt 0.459453 0.587132
vt 0.493501 0.795776
vt 0.361491 0.766397
vt 0.397854 0.836201
vt 0.418066 0.890882
vt 0.446187 0.969121
vt 0.557513 0.740038
vt 0.633586 0.745997
vt 0.802840 0.765476
vt 0.429053 0.592688
vt 0.881099 0.762175
vt 0.466978 0.658171
vt 0.482907 0.705899
vt 0.229765 0.668541
vt 0.166047 0.786745
vt 0.243561 0.764492
vt 0.283121 0.759619
vt 0.339228 0.735348
vt 0.722571 0.589552
vt 0.716328 0.688574
vt 0.711985 0.761540
vt 0.713202 0.858609
vt 0.009562 0.743696
vt 0.710286 0.928315
vt 0.087931 0.733101
vt 0.146159 0.704181
vt 0.869836 0.656520
vt 0.509461 0.614220
vt 0.774009 0.652524
vt 0.719433 0.637670
vt 0.670312 0.632244
vt 0.483987 0.893589
vt 0.571108 0.632863
vt 0.428129 0.923959
vt 0.357506 0.981871
vt 0.544280 0.844494
vt 0.633755 0.882613
vt 0.711479 0.893457
vt 0.804094 0.894291
vt 0.883147 0.873643
vt 0.358337 0.645068
vt 0.448746 0.626654
vt 0.522221 0.799935
vt 0.166763 0.779447
vt 0.468574 0.810941
vt 0.225563 0.661827
vt 0.132306 0.670841
vt 0.065641 0.677241
vt 0.004079 0.716282
vt 0.742913 0.931575
vt 0.758765 0.897780
vt 0.770817 0.857930
vt 0.756993 0.765602
vt 0.750355 0.698219
vt 0.747342 0.644044
vt 0.335461 0.718846
vt 0.742850 0.591135
vt 0.278938 0.710200
vt 0.241100 0.728429
vt 0.474502 0.825664
vt 0.235569 0.674215
vt 0.522829 0.815578
vt 0.163713 0.794811
vt 0.245426 0.793250
vt 0.286651 0.799001
vt 0.341935 0.748608
vt 0.706373 0.589121
vt 0.696863 0.634643
vt 0.688149 0.681274
vt 0.676492 0.756134
vt 0.667220 0.854299
vt 0.673404 0.892555
vt 0.015925 0.766735
vt 0.682661 0.923501
vt 0.104816 0.778090
vt 0.157508 0.730238
vt 0.479407 0.800006
vt 0.497409 0.813152
vt 0.488464 0.831276
vt 0.351337 0.772587
vt 0.355497 0.865073
vt 0.366517 0.933549
vt 0.390828 0.955886
vt 0.418468 0.981623
vt 0.554973 0.775070
vt 0.621121 0.800231
vt 0.670657 0.809974
vt 0.712199 0.814774
vt 0.764415 0.816376
vt 0.817183 0.813815
vt 0.404149 0.599821
vt 0.880647 0.792995
vt 0.398619 0.636919
vt 0.393346 0.671145
vt 0.430618 0.722287
vt 0.512036 0.826316
vt 0.371752 0.759824
vt 0.507276 0.793873
vt 0.504907 0.699459
vt 0.498528 0.652055
vt 0.470568 0.622181
vt 0.439907 0.590192
vt 0.878575 0.748732
vt 0.795950 0.745776
vt 0.753935 0.742273
vt 0.713581 0.737253
vt 0.681982 0.732760
vt 0.637436 0.720639
vt 0.457726 0.962844
vt 0.559861 0.724355
vt 0.445785 0.911958
vt 0.440877 0.874079
vt 0.416760 0.826139
vt 0.823108 0.718785
vt 0.817719 0.649996
vt 0.802060 0.593256
vt 0.306630 0.679118
vt 0.307856 0.715195
vt 0.312141 0.747144
vt 0.315461 0.772608
vt 0.319733 0.802812
vt 0.635298 0.582006
vt 0.622896 0.629826
vt 0.614732 0.682058
vt 0.601997 0.721807
vt 0.597871 0.742969
vt 0.589693 0.788889
vt 0.585921 0.826213
vt 0.588214 0.866323
vt 0.072895 0.817076
vt 0.593499 0.902567
vt 0.065715 0.768323
vt 0.047940 0.737860
vt 0.033804 0.697497
vt 0.025007 0.656028
vt 0.823659 0.937942
vt 0.840056 0.886230
vt 0.851319 0.838595
vt 0.844834 0.803565
vt 0.838904 0.764084
vt 0.831958 0.747850
vt 0.164002 0.646632
vt 0.424516 0.764075
vt 0.173088 0.666998
vt 0.183274 0.688698
vt 0.191267 0.705697
vt 0.200092 0.724917
vt 0.328984 0.837481
vt 0.354599 0.824980
vt 0.383570 0.804736
vt 0.396469 0.797607
vt 0.211097 0.815445
vt 0.420566 0.784883
vt 0.209988 0.793481
vt 0.209461 0.774449
vt 0.208998 0.750643
vt 0.533896 0.732702
vt 0.206483 0.724762
vt 0.505973 0.740577
vt 0.490087 0.744275
vt 0.452950 0.755749
vt 0.255632 0.674338
vt 0.550379 0.664989
vt 0.259817 0.719360
vt 0.263136 0.762098
vt 0.265821 0.796118
vt 0.268161 0.837537
vt 0.468079 0.824663
vt 0.428731 0.849969
vt 0.407869 0.863318
vt 0.360901 0.899190
vt 0.316245 0.924546
vt 0.149750 0.795023
vt 0.131394 0.754024
vt 0.117256 0.718462
vt 0.099213 0.673813
vt 0.081288 0.628421
vt 0.358706 0.711495
vt 0.412245 0.696797
vt 0.474987 0.682298
vt 0.501729 0.676003
vt 0.470148 0.818747
vt 0.523777 0.807161
vt 0.500243 0.829521
vn 0.509197 0.788035 0.346005
vn 0.625991 0.778285 0.049068
vn 0.131808 0.930797 -0.340944
vn 0.191272 0.831901 0.520918
vn 0.748488 0.661291 0.049593
vn 0.730894 0.676557 0.089803
vn 0.545216 0.740920 0.392144
vn 0.526062 0.778516 0.342304
vn 0.426467 0.784707 -0.449846
vn 0.122033 0.673468 -0.729074
vn 0.163836 0.616936 -0.769771
vn 0.455061 0.692872 -0.559329
vn -0.509307 0.712113 0.483220
vn -0.752383 0.647676 0.120145
vn -0.770397 0.631195 0.089895
vn -0.485424 0.762837 0.427134
vn 0.174310 0.706470 0.685942
vn 0.159295 0.749241 0.642855
vn -0.804629 0.587148 0.088482
vn -0.507261 0.697393 0.506290
vn 0.128235 0.728450 0.672990
vn 0.552677 0.691081 0.465784
vn 0.763817 0.641632 0.069937
vn 0.495841 0.729719 -0.470799
vn 0.078507 0.673164 -0.735314
vn -0.626028 0.243533 -0.740797
vn -0.456755 0.070427 -0.886800
vn -0.697658 -0.337674 -0.631862
vn -0.878829 -0.037061 -0.475695
vn -0.840836 0.517042 0.160193
vn -0.864489 0.488074 0.120179
vn -0.851162 0.102486 0.514800
vn -0.679352 0.322680 0.659059
vn -0.984840 -0.140357 0.101930
vn -0.843684 -0.530241 0.083917
vn -0.846412 -0.280200 0.452852
vn -0.903139 -0.098890 0.417805
vn 0.162391 0.611689 0.774252
vn 0.062451 0.314127 0.947325
vn 0.384959 -0.025689 0.922576
vn 0.640923 0.354100 0.681052
vn -0.774445 -0.104285 0.623987
vn -0.645365 0.095548 0.757875
vn 0.852667 0.040987 0.520844
vn 0.903879 0.391062 0.173418
vn 0.831964 0.514697 0.207178
vn 0.531720 -0.374304 0.759717
vn 0.868677 0.321562 -0.376828
vn 0.665112 -0.093681 -0.740844
vn 0.345781 0.363001 -0.865255
vn 0.608422 0.502939 -0.613901
vn 0.024412 0.592163 -0.805448
vn 0.080194 0.626865 -0.774990
vn 0.354612 -0.377284 -0.855515
vn 0.051539 -0.701832 -0.710476
vn 0.000603 0.042678 -0.999089
vn 0.170627 0.034781 -0.984722
vn 0.148321 -0.393568 0.907252
vn -0.037284 -0.347484 0.936945
vn 0.008442 -0.671920 0.740576
vn 0.215824 -0.569742 0.792978
vn 0.518460 -0.730961 0.443729
vn 0.371773 -0.921421 0.112998
vn 0.945478 -0.288881 0.150397
vn 0.910096 -0.215639 0.353872
vn 0.272252 -0.846446 0.457611
vn 0.110654 -0.896912 0.428141
vn 0.178218 -0.976334 0.122517
vn 0.216013 -0.969861 0.112731
vn -0.120946 0.845035 0.520853
vn -0.591623 0.805381 0.036654
vn -0.433288 0.796458 0.421800
vn -0.151723 0.731810 0.664405
vn -0.180762 0.695955 0.694962
vn -0.128401 0.717443 0.684682
vn -0.286288 0.351967 0.891156
vn -0.256974 0.567570 0.782195
vn -0.640809 -0.301096 0.706190
vn -0.231334 -0.601016 0.765026
vn -0.249573 -0.242846 0.937411
vn -0.537636 -0.167817 0.826308
vn -0.568025 -0.813143 0.127067
vn -0.156604 -0.973034 0.169354
vn -0.250423 -0.819409 0.515614
vn -0.664883 -0.592954 0.454243
vn -0.359635 -0.180425 -0.915483
vn -0.124360 -0.084271 -0.988652
vn -0.070793 -0.701812 -0.708836
vn -0.471281 -0.527530 -0.706829
vn -0.071304 0.582626 -0.809606
vn -0.077562 0.518110 -0.851790
vn 0.000147 0.596833 -0.802366
vn -0.036032 0.588239 -0.807884
vn -0.411558 0.627366 -0.661084
vn -0.326381 0.671803 -0.664948
vn -0.294555 0.678179 -0.673284
vn -0.004761 0.598881 -0.800824
vn 0.170137 0.686573 -0.706874
vn 0.612739 0.754440 -0.235313
vn 0.450642 0.689206 -0.567377
vn -0.547305 0.781676 -0.299066
vn -0.005166 0.679774 -0.733404
vn -0.239295 0.724521 -0.646380
vn -0.741255 0.638225 -0.207868
vn -0.705561 0.670841 -0.228380
vn -0.780307 0.604198 -0.161449
vn -0.882920 0.456034 -0.111735
vn -0.813836 0.551529 -0.182995
vn -0.789744 -0.523801 -0.319276
vn -0.816101 -0.576696 -0.037436
vn -0.969117 -0.243683 -0.037834
vn -0.926317 -0.295414 -0.233810
vn 0.050060 -0.961155 -0.271433
vn 0.037811 -0.998823 0.030368
vn -0.482007 -0.876161 -0.003448
vn -0.467794 -0.823262 -0.321573
vn 0.262130 -0.961690 -0.080248
vn 0.211053 -0.977021 -0.029796
vn 0.185845 -0.948307 -0.257248
vn 0.388653 -0.826170 -0.407911
vn 0.946194 -0.187869 -0.263482
vn 0.955652 -0.290748 -0.046847
vn 0.443321 -0.890112 -0.105673
vn 0.674306 -0.609443 -0.417001
vn 0.774162 0.630345 -0.057787
vn 0.868147 0.495987 -0.017814
vn 0.717329 0.685407 -0.125128
vn 0.729707 0.681063 -0.060671
vn 0.708502 0.676154 -0.202091
vn 0.760973 0.648518 -0.018575
vn 0.772971 0.634373 -0.009254
vn 0.748037 0.663636 -0.005315
vn 0.777245 0.629190 0.003088
vn 0.893412 0.447561 0.038780
vn 0.953265 -0.300474 0.031656
vn 0.351138 -0.936265 -0.010520
vn 0.207172 -0.978302 -0.002070
vn 0.200166 -0.979762 0.000000
vn -0.072397 -0.996570 0.040082
vn -0.525151 -0.850344 0.033650
vn -0.822554 -0.568662 -0.005368
vn -0.980549 -0.196269 0.001330
vn -0.863772 0.503511 0.019337
vn -0.815543 0.578462 0.016459
vn -0.812151 0.583430 0.004539
vn -0.808551 0.588425 -0.001156
vn -0.782571 0.621754 -0.031698
vn 0.012834 0.675025 0.737683
vn 0.005090 0.686675 0.726947
vn 0.014623 0.726713 0.686785
vn -0.000309 0.680051 0.733165
vn -0.050992 0.427132 0.902750
vn -0.072326 -0.307674 0.948739
vn 0.001714 -0.672355 0.740227
vn 0.091629 -0.886339 0.453881
vn 0.160904 -0.973973 0.159645
vn 0.200166 -0.979762 0.000000
vn 0.201136 -0.979448 -0.015005
vn 0.152107 -0.963574 -0.219973
vn -0.007151 -0.715481 -0.698596
vn -0.037602 0.028962 -0.998873
vn -0.010088 0.577308 -0.816464
vn 0.000180 0.604806 -0.796373
vn 0.009025 0.639466 -0.768767
vn 0.024950 0.616687 -0.786813
vn 0.031105 0.584168 -0.811037
vn 0.657632 0.749809 -0.072845
vn 0.076768 0.839919 0.537254
vn -0.621744 0.767117 -0.158007
vn 0.041543 0.671475 -0.739862
s 1
g Rock4_LOW Rocks_Group
f 1/1/1 71/109/2 85/127/3 86/128/4
f 83/125/5 142/195/6 143/196/7 5/8/8
f 6/9/9 99/144/10 154/210/11 139/192/12
f 147/201/13 148/203/14 73/113/15 8/12/16
f 143/197/7 144/198/17 87/130/18 5/16/8
f 8/12/16 73/113/15 158/215/19 159/216/20
f 5/16/8 87/130/18 162/220/21 163/221/22
f 163/222/22 164/223/23 83/125/5 5/8/8
f 167/227/24 168/228/25 99/144/10 6/9/9
f 9/27/26 46/76/27 116/164/28 117/165/29
f 74/114/30 120/169/31 121/170/32 10/20/33
f 75/116/34 76/117/35 49/80/36 16/34/37
f 88/131/38 89/132/39 52/84/40 11/22/41
f 121/171/32 122/172/42 50/82/43 10/38/33
f 129/179/44 130/181/45 82/124/46 11/23/41
f 52/85/40 128/178/47 129/180/44 11/44/41
f 133/185/48 134/186/49 56/89/50 12/46/51
f 56/90/50 97/142/52 98/143/53 12/25/51
f 135/187/54 136/188/55 96/141/56 24/45/57
f 18/41/58 90/134/59 126/176/60 127/177/61
f 53/86/62 80/121/63 81/123/64 21/43/65
f 22/42/66 91/135/67 92/136/68 79/120/69
f 100/145/70 85/127/3 72/111/71 4/4/72
f 8/15/16 114/162/73 146/200/74 147/202/13
f 159/217/20 160/218/75 114/162/73 8/15/16
f 50/81/43 112/160/76 113/161/77 10/21/33
f 123/173/78 124/174/79 111/159/80 19/37/81
f 77/118/82 109/156/83 110/157/84 17/33/85
f 13/28/86 105/152/87 138/190/88 115/163/89
f 103/149/90 104/150/91 46/77/27 9/26/26
f 102/148/92 170/230/93 155/212/94 7/10/95
f 151/206/96 152/208/97 102/148/92 7/10/95
f 84/126/98 85/127/3 59/94/99 2/2/100
f 58/92/101 85/127/3 101/147/102 3/3/103
f 7/11/95 70/108/104 150/205/105 151/207/96
f 155/211/94 156/213/106 70/108/104 7/11/95
f 117/166/29 118/167/107 69/107/108 9/19/26
f 47/78/109 67/104/110 68/106/111 15/30/112
f 106/153/113 107/154/114 66/103/115 14/29/116
f 64/101/117 94/138/118 95/139/119 23/48/120
f 20/47/121 62/99/122 63/100/123 55/88/124
f 61/97/125 132/183/126 133/184/48 12/24/51
f 6/5/9 60/96/127 166/225/128 167/226/24
f 6/5/9 139/191/12 140/193/129 60/96/127
f 115/163/89 116/164/28 46/76/27 13/28/86
f 14/29/116 66/103/115 67/104/110 47/78/109
f 49/80/36 76/117/35 77/118/82 17/33/85
f 122/172/42 123/173/78 19/37/81 50/82/43
f 19/35/81 111/158/80 112/160/76 50/81/43
f 52/84/40 89/132/39 90/133/59 18/36/58
f 18/41/58 127/177/61 128/178/47 52/85/40
f 79/120/69 80/121/63 53/86/62 22/42/66
f 55/88/124 63/100/123 64/101/117 23/48/120
f 24/45/57 56/89/50 134/186/49 135/187/54
f 24/49/57 96/140/56 97/142/52 56/90/50
f 46/77/27 104/150/91 105/151/87 13/50/86
f 60/96/127 140/193/129 141/194/130 45/75/131
f 165/224/132 166/225/128 60/96/127 45/75/131
f 44/74/133 131/182/134 132/183/126 61/97/125
f 63/100/123 62/99/122 43/73/135 54/87/136
f 64/101/117 63/100/123 54/87/136 42/71/137
f 42/71/137 93/137/138 94/138/118 64/101/117
f 66/103/115 107/154/114 108/155/139 40/69/140
f 67/104/110 66/103/115 40/69/140 48/79/141
f 68/106/111 67/104/110 48/79/141 39/68/142
f 69/107/108 118/167/107 119/168/143 38/66/144
f 156/213/106 157/214/145 37/65/146 70/108/104
f 149/204/147 150/205/105 70/108/104 37/65/146
f 148/203/14 149/204/147 37/65/146 73/113/15
f 157/214/145 158/215/19 73/113/15 37/65/146
f 38/66/144 119/168/143 120/169/31 74/114/30
f 39/68/142 48/79/141 76/117/35 75/116/34
f 77/118/82 76/117/35 48/79/141 40/69/140
f 40/69/140 108/155/139 109/156/83 77/118/82
f 79/120/69 92/136/68 93/137/138 42/71/137
f 42/71/137 54/87/136 80/121/63 79/120/69
f 81/123/64 80/121/63 54/87/136 43/73/135
f 82/124/46 130/181/45 131/182/134 44/74/133
f 164/223/23 165/224/132 45/75/131 83/125/5
f 45/75/131 141/194/130 142/195/6 83/125/5
f 144/198/17 145/199/148 27/53/149 87/130/18
f 161/219/150 162/220/21 87/130/18 27/53/149
f 28/54/151 51/83/152 89/132/39 88/131/38
f 90/133/59 89/132/39 51/83/152 29/55/153
f 125/175/154 126/176/60 90/134/59 29/56/153
f 92/136/68 91/135/67 30/57/155 78/119/156
f 93/137/138 92/136/68 78/119/156 41/70/157
f 94/138/118 93/137/138 41/70/157 65/102/158
f 95/139/119 94/138/118 65/102/158 31/58/159
f 136/188/55 137/189/160 32/60/161 96/141/56
f 97/142/52 96/140/56 32/59/161 57/91/162
f 98/143/53 97/142/52 57/91/162 33/61/163
f 99/144/10 168/228/25 169/229/164 34/62/165
f 153/209/166 154/210/11 99/144/10 34/62/165
f 152/208/97 153/209/166 34/62/165 102/148/92
f 34/62/165 169/229/164 170/230/93 102/148/92
f 33/61/163 57/91/162 104/150/91 103/149/90
f 105/151/87 104/150/91 57/91/162 32/59/161
f 137/189/160 138/190/88 105/152/87 32/60/161
f 31/58/159 65/102/158 107/154/114 106/153/113
f 108/155/139 107/154/114 65/102/158 41/70/157
f 109/156/83 108/155/139 41/70/157 78/119/156
f 110/157/84 109/156/83 78/119/156 30/57/155
f 124/174/79 125/175/154 29/56/153 111/159/80
f 112/160/76 111/158/80 29/55/153 51/83/152
f 113/161/77 112/160/76 51/83/152 28/54/151
f 160/218/75 161/219/150 27/53/149 114/162/73
f 145/199/148 146/200/74 114/162/73 27/53/149
f 47/78/109 116/164/28 115/163/89 14/29/116
f 117/165/29 116/164/28 47/78/109 15/30/112
f 15/31/112 68/105/111 118/167/107 117/166/29
f 119/168/143 118/167/107 68/105/111 39/67/142
f 120/169/31 119/168/143 39/67/142 75/115/34
f 121/170/32 120/169/31 75/115/34 16/32/37
f 49/80/36 122/172/42 121/171/32 16/34/37
f 17/33/85 123/173/78 122/172/42 49/80/36
f 110/157/84 124/174/79 123/173/78 17/33/85
f 30/57/155 125/175/154 124/174/79 110/157/84
f 91/135/67 126/176/60 125/175/154 30/57/155
f 127/177/61 126/176/60 91/135/67 22/42/66
f 128/178/47 127/177/61 22/42/66 53/86/62
f 129/180/44 128/178/47 53/86/62 21/43/65
f 21/39/65 81/122/64 130/181/45 129/179/44
f 131/182/134 130/181/45 81/122/64 43/72/135
f 132/183/126 131/182/134 43/72/135 62/98/122
f 133/184/48 132/183/126 62/98/122 20/40/121
f 55/88/124 134/186/49 133/185/48 20/47/121
f 135/187/54 134/186/49 55/88/124 23/48/120
f 95/139/119 136/188/55 135/187/54 23/48/120
f 31/58/159 137/189/160 136/188/55 95/139/119
f 106/153/113 138/190/88 137/189/160 31/58/159
f 115/163/89 138/190/88 106/153/113 14/29/116
f 140/193/129 139/191/12 2/6/100 59/95/99
f 141/194/130 140/193/129 59/95/99 35/63/167
f 142/195/6 141/194/130 35/63/167 71/110/2
f 143/196/7 142/195/6 71/110/2 1/7/1
f 86/129/4 144/198/17 143/197/7 1/17/1
f 26/52/168 145/199/148 144/198/17 86/129/4
f 100/146/70 146/200/74 145/199/148 26/52/168
f 147/202/13 146/200/74 100/146/70 4/18/72
f 72/112/71 148/203/14 147/201/13 4/13/72
f 36/64/169 149/204/147 148/203/14 72/112/71
f 58/93/101 150/205/105 149/204/147 36/64/169
f 151/207/96 150/205/105 58/93/101 3/14/103
f 101/147/102 152/208/97 151/206/96 3/3/103
f 25/51/170 153/209/166 152/208/97 101/147/102
f 84/126/98 154/210/11 153/209/166 25/51/170
f 139/192/12 154/210/11 84/126/98 2/2/100
f 69/107/108 156/213/106 155/211/94 9/19/26
f 38/66/144 157/214/145 156/213/106 69/107/108
f 74/114/30 158/215/19 157/214/145 38/66/144
f 159/216/20 158/215/19 74/114/30 10/20/33
f 113/161/77 160/218/75 159/217/20 10/21/33
f 28/54/151 161/219/150 160/218/75 113/161/77
f 88/131/38 162/220/21 161/219/150 28/54/151
f 163/221/22 162/220/21 88/131/38 11/22/41
f 82/124/46 164/223/23 163/222/22 11/23/41
f 44/74/133 165/224/132 164/223/23 82/124/46
f 61/97/125 166/225/128 165/224/132 44/74/133
f 167/226/24 166/225/128 61/97/125 12/24/51
f 12/25/51 98/143/53 168/228/25 167/227/24
f 169/229/164 168/228/25 98/143/53 33/61/163
f 170/230/93 169/229/164 33/61/163 103/149/90
f 155/212/94 170/230/93 103/149/90 9/26/26
f 71/109/2 35/231/167 59/94/99 85/127/3
f 36/232/169 72/111/71 85/127/3 58/92/101
f 26/233/168 86/128/4 85/127/3 100/145/70
f 25/51/170 101/147/102 85/127/3 84/126/98
