# This file uses centimeters as units for non-parametric coordinates.

g default
v 0.531595 0.458040 -0.391989
v 0.067270 0.424707 -0.345930
v 0.308497 0.432528 0.855513
v -0.117774 0.451544 0.635194
v 0.711251 0.407420 0.271508
v -0.176489 0.407194 0.081295
v -0.276863 0.322080 0.086793
v -0.233911 0.384101 0.665924
v 0.006314 0.343680 -0.431095
v 0.537437 0.358338 -0.519176
v 0.267560 0.321246 0.933977
v 0.794931 0.279063 0.251239
v -0.090210 0.326554 -0.870127
v 0.341965 0.356100 -0.816921
v -0.612498 0.293163 0.035775
v -0.565083 0.302414 0.725345
v -0.026855 0.202036 0.973129
v -0.750206 -0.240254 0.701539
v -0.819853 -0.212982 0.061747
v -0.236827 -0.148199 -0.915227
v 0.379618 -0.171428 -0.822124
v 0.525127 -0.231290 -0.585955
v 0.830084 -0.297338 0.178045
v -0.078424 -0.238018 0.981397
v 0.249304 -0.173423 0.882889
v 0.267183 -0.476131 0.113284
v 0.313286 0.473163 -0.432021
v 0.264769 0.388372 -0.568676
v 0.153535 0.338675 -0.868990
v -0.005324 -0.237122 -0.919865
v -0.197859 -0.392036 0.071423
v -0.374476 -0.249074 0.950150
v -0.268766 0.296726 0.920414
v 0.030997 0.403221 0.903734
v 0.095345 0.471045 0.807145
v 0.294985 0.474093 0.195383
v -0.677858 0.109591 0.752046
v -0.695942 0.138001 0.046045
v -0.163837 0.161222 -0.911924
v 0.181829 0.149891 -0.951070
v 0.378515 0.164709 -0.835947
v 0.538551 0.148657 -0.553118
v 0.821730 0.083932 0.227406
v 0.262412 0.140265 0.925676
v -0.044701 0.042455 0.995967
v -0.330755 0.107829 0.961433
v -0.756591 -0.076027 0.774503
v -0.803960 -0.041349 0.048686
v -0.210758 0.000292 -0.927380
v 0.093353 -0.050212 -0.975767
v 0.378150 -0.011051 -0.827936
v 0.532514 -0.050051 -0.570839
v 0.842346 -0.097884 0.204488
v 0.253942 -0.027745 0.908907
v -0.062472 -0.104132 0.986616
v -0.356157 -0.079411 0.967284
v -0.138752 0.437515 -0.060563
v 0.317080 0.474870 0.021818
v 0.677458 0.432528 0.035489
v 0.767805 0.282168 0.006321
v 0.818211 0.094764 -0.013328
v 0.830897 -0.067944 -0.052753
v 0.787978 -0.287537 -0.090983
v 0.346984 -0.396887 -0.170349
v -0.144300 -0.356842 -0.211859
v -0.629128 -0.175478 -0.199162
v -0.649104 -0.021968 -0.233630
v -0.551697 0.135782 -0.231722
v -0.484081 0.272322 -0.216978
v -0.227643 0.358678 -0.084560
v -0.079278 0.431142 -0.233683
v 0.316329 0.476131 -0.172429
v 0.595170 0.447348 -0.203983
v 0.679094 0.339388 -0.255555
v 0.693772 0.119248 -0.283303
v 0.696799 -0.059424 -0.290336
v 0.665560 -0.263067 -0.326530
v 0.391613 -0.365647 -0.527194
v -0.097695 -0.342014 -0.545648
v -0.369624 -0.113683 -0.525584
v -0.436471 0.002625 -0.557494
v -0.363268 0.148781 -0.543487
v -0.295594 0.294180 -0.525264
v -0.149199 0.355168 -0.302527
v 0.478432 0.452319 0.230616
v 0.181292 0.457905 0.844084
v 0.143915 0.354501 0.924660
v -0.141928 0.259917 0.961959
v -0.187376 0.075238 0.991491
v -0.208413 -0.092502 0.988734
v -0.225794 -0.244943 0.976643
v 0.023403 -0.457499 0.094629
v 0.102557 -0.374836 -0.184618
v 0.131709 -0.359285 -0.539677
v 0.191207 -0.231699 -0.923235
v 0.248514 -0.030390 -0.926324
v 0.289153 0.157900 -0.908522
v 0.248908 0.340275 -0.847423
v 0.398119 0.429874 -0.553724
v 0.432141 0.471124 -0.422774
v 0.468777 0.462029 -0.184978
v 0.474054 0.456944 0.031402
v 0.185995 0.436205 -0.414961
v 0.141064 0.359367 -0.508335
v 0.040551 0.338235 -0.882953
v 0.032725 0.156045 -0.983713
v -0.039510 -0.025507 -0.995967
v -0.110617 -0.202709 -0.929391
v -0.266657 -0.248173 -0.537790
v -0.437924 -0.295404 -0.231165
v -0.556462 -0.336127 0.058165
v -0.564353 -0.248835 0.885815
v -0.545238 -0.077023 0.899881
v -0.495299 0.109252 0.882928
v -0.406337 0.306037 0.839967
v -0.107226 0.388763 0.829788
v -0.026838 0.461380 0.734393
v 0.088592 0.462405 0.143705
v 0.123686 0.463393 0.006551
v 0.159997 0.463798 -0.174045
v -0.053848 0.333562 -0.642613
v 0.086421 0.345392 -0.698273
v 0.214971 0.357099 -0.695186
v 0.351609 0.369581 -0.676585
v 0.448461 0.360036 -0.656737
v 0.468827 0.155829 -0.679896
v 0.467119 -0.032752 -0.687213
v 0.460672 -0.204627 -0.691313
v 0.547461 -0.315167 -0.417284
v 0.590003 -0.370301 -0.140003
v 0.638537 -0.417070 0.131583
v 0.100142 -0.206214 0.928936
v 0.117043 -0.063536 0.955025
v 0.130277 0.095513 0.970417
v 0.139607 0.274214 0.967995
v 0.043952 0.307545 0.965842
v -0.073389 0.313124 0.902682
v -0.226391 0.341507 0.832345
v -0.379350 0.325402 0.692742
v -0.426568 0.310954 0.057067
v -0.333970 0.315966 -0.154556
v -0.196971 0.323908 -0.382034
v 0.635031 0.417945 0.495524
v 0.428743 0.454071 0.430530
v 0.249764 0.474734 0.371838
v 0.061397 0.462724 0.317869
v -0.197524 0.411535 0.245969
v -0.301795 0.331763 0.277306
v -0.451681 0.312130 0.272886
v -0.606802 0.278903 0.283620
v -0.730640 0.114701 0.290660
v -0.842345 -0.054292 0.288053
v -0.839032 -0.231312 0.265578
v -0.563183 -0.346819 0.317944
v -0.284536 -0.381703 0.382106
v -0.075101 -0.421540 0.421061
v 0.155256 -0.471105 0.444186
v 0.499649 -0.433115 0.482372
v 0.660896 -0.285533 0.500761
v 0.712308 -0.073727 0.527968
v 0.705708 0.099465 0.536078
v 0.695374 0.315364 0.528785
v 0.449407 0.384044 0.722357
v 0.329217 0.461127 0.658372
v 0.188844 0.475245 0.602851
v 0.031317 0.463578 0.541787
v -0.224203 0.439536 0.510404
v -0.301111 0.382939 0.547407
v -0.456255 0.315826 0.529957
v -0.587094 0.296682 0.540058
v -0.729589 0.114098 0.533383
v -0.839277 -0.064263 0.543908
v -0.798867 -0.243191 0.540278
v -0.574241 -0.359813 0.670030
v -0.360404 -0.351569 0.720175
v -0.166376 -0.343108 0.749499
v 0.013462 -0.365668 0.771164
v 0.288863 -0.332581 0.809098
v 0.450686 -0.233975 0.777105
v 0.474745 -0.051319 0.790865
v 0.474741 0.123816 0.809450
v 0.448079 0.338381 0.791972
vt 0.819408 0.193021
vt 0.831748 0.268309
vt 0.643465 0.251303
vt 0.668596 0.178263
vt 0.735290 0.277112
vt 0.741222 0.158869
vt 0.746688 0.141879
vt 0.830609 0.176788
vt 0.657140 0.163478
vt 0.617955 0.275558
vt 0.851935 0.267838
vt 0.847642 0.292852
vt 0.729933 0.294517
vt 0.590081 0.202529
vt 0.599230 0.134226
vt 0.752956 0.096902
vt 0.851728 0.129402
vt 0.882046 0.226976
vt 0.768998 0.020115
vt 0.869988 0.038801
vt 0.982636 0.320834
vt 0.591164 0.058920
vt 0.480728 0.386019
vt 0.578719 0.379919
vt 0.618193 0.372975
vt 0.717092 0.360770
vt 0.887028 0.391089
vt 0.891176 0.324043
vt 0.836770 0.379367
vt 0.716002 0.432802
vt 0.855579 0.439406
vt 0.829154 0.556007
vt 0.726533 0.585692
vt 0.556270 0.487544
vt 0.647049 0.213917
vt 0.627853 0.199644
vt 0.589461 0.171884
vt 0.517477 0.395607
vt 0.561210 0.448544
vt 0.716254 0.493949
vt 0.930676 0.399491
vt 0.858258 0.488268
vt 0.871396 0.184507
vt 0.930043 0.317085
vt 0.850423 0.228580
vt 0.832762 0.232542
vt 0.739053 0.224147
vt 0.991396 0.353058
vt 0.758645 0.073628
vt 0.594902 0.106277
vt 0.484253 0.336824
vt 0.535785 0.333408
vt 0.567094 0.323800
vt 0.612771 0.311980
vt 0.725326 0.317212
vt 0.847764 0.324025
vt 0.889731 0.348800
vt 0.932470 0.346652
vt 0.995990 0.382795
vt 0.764761 0.044827
vt 0.592147 0.081209
vt 0.481089 0.363157
vt 0.527462 0.365229
vt 0.572458 0.351851
vt 0.613560 0.344616
vt 0.721382 0.338121
vt 0.844070 0.352856
vt 0.888225 0.371189
vt 0.931425 0.374383
vt 0.718583 0.159881
vt 0.712527 0.222097
vt 0.704337 0.267958
vt 0.697632 0.289946
vt 0.694137 0.314331
vt 0.689095 0.334481
vt 0.685867 0.362590
vt 0.673762 0.420246
vt 0.669935 0.487450
vt 0.716486 0.028157
vt 0.675798 0.564454
vt 0.715279 0.051598
vt 0.710936 0.078466
vt 0.711119 0.100804
vt 0.718926 0.143112
vt 0.691201 0.161732
vt 0.683946 0.218708
vt 0.671536 0.258362
vt 0.662235 0.278189
vt 0.654889 0.310537
vt 0.655015 0.336606
vt 0.654989 0.366919
vt 0.626265 0.402147
vt 0.618165 0.473779
vt 0.652061 0.046472
vt 0.611896 0.527740
vt 0.656179 0.066449
vt 0.656328 0.091148
vt 0.657523 0.115373
vt 0.683118 0.146044
vt 0.737458 0.247544
vt 0.834640 0.247337
vt 0.853455 0.247562
vt 0.876234 0.206786
vt 0.909610 0.319242
vt 0.910802 0.347742
vt 0.909596 0.372832
vt 0.908548 0.395443
vt 0.858359 0.463737
vt 0.716836 0.463638
vt 0.672000 0.453176
vt 0.619628 0.439425
vt 0.547347 0.390355
vt 0.563417 0.414748
vt 0.550179 0.359155
vt 0.551533 0.329158
vt 0.588956 0.187190
vt 0.626457 0.222016
vt 0.643401 0.233049
vt 0.676968 0.240401
vt 0.708725 0.242432
vt 0.653907 0.194066
vt 0.640605 0.181448
vt 0.591943 0.154059
vt 0.514458 0.336219
vt 0.507776 0.363588
vt 0.500660 0.391816
vt 0.557589 0.466051
vt 0.616679 0.502839
vt 0.670384 0.530439
vt 0.720694 0.544222
vt 0.960140 0.403698
vt 0.853215 0.520307
vt 0.960409 0.378356
vt 0.958690 0.350081
vt 0.863639 0.159511
vt 0.953785 0.318082
vt 0.848204 0.204333
vt 0.828814 0.211152
vt 0.739567 0.196477
vt 0.717751 0.196595
vt 0.689739 0.196603
vt 0.629861 0.147659
vt 0.616151 0.167357
vt 0.611667 0.187466
vt 0.609376 0.209533
vt 0.590457 0.284578
vt 0.592398 0.317122
vt 0.595425 0.347916
vt 0.601248 0.375415
vt 0.642139 0.382526
vt 0.678652 0.388245
vt 0.713893 0.387504
vt 0.860141 0.383437
vt 0.845801 0.408463
vt 0.863140 0.361340
vt 0.866274 0.335499
vt 0.866219 0.250394
vt 0.867886 0.306550
vt 0.865281 0.234289
vt 0.862620 0.213203
vt 0.855568 0.186517
vt 0.840906 0.155982
vt 0.748291 0.121402
vt 0.713254 0.124958
vt 0.673572 0.135482
vt 0.766347 0.277625
vt 0.767686 0.251166
vt 0.766602 0.226367
vt 0.766351 0.200168
vt 0.766584 0.162813
vt 0.775886 0.146423
vt 0.781328 0.126288
vt 0.788671 0.104976
vt 0.795828 0.076480
vt 0.801162 0.047757
vt 0.802172 0.022105
vt 0.760533 0.583436
vt 0.762587 0.539258
vt 0.767224 0.498551
vt 0.768605 0.468926
vt 0.765831 0.438439
vt 0.761351 0.395385
vt 0.760344 0.368150
vt 0.765152 0.340978
vt 0.768354 0.319756
vt 0.768166 0.292640
vt 0.805867 0.277995
vt 0.803252 0.254881
vt 0.801663 0.232503
vt 0.799793 0.207948
vt 0.806191 0.172497
vt 0.815490 0.161508
vt 0.819542 0.137179
vt 0.825445 0.118828
vt 0.831294 0.085369
vt 0.838147 0.055872
vt 0.845285 0.030283
vt 0.804403 0.569115
vt 0.816880 0.528079
vt 0.820753 0.495591
vt 0.821397 0.465970
vt 0.818811 0.438620
vt 0.813764 0.397629
vt 0.804903 0.373046
vt 0.810817 0.347088
vt 0.815232 0.321223
vt 0.814790 0.287570
vt 0.872497 0.066662
vt 0.862760 0.096359
vt 0.998231 0.409096
vt 0.608130 0.225341
vt 0.560656 0.294617
vt 0.513290 0.305579
vt 0.493321 0.309112
vt 0.545669 0.300074
vt 0.530687 0.303051
vt 0.622109 0.246889
vn -0.094415 0.994827 -0.037482
vn -0.327212 0.944149 -0.038916
vn -0.250415 0.959875 0.126226
vn -0.215746 0.963497 0.158519
vn -0.294006 0.932086 -0.211603
vn -0.115588 0.991416 -0.061108
vn -0.249441 0.933806 -0.256487
vn -0.232549 0.921576 -0.310836
vn -0.388391 0.888119 0.245759
vn -0.420213 0.907219 0.019356
vn -0.330980 0.914965 -0.230848
vn -0.214600 0.947595 -0.236665
vn -0.232095 0.947534 -0.219797
vn -0.365539 0.806205 0.465205
vn 0.669984 0.207831 0.712690
vn 0.437478 0.814067 0.381979
vn 0.392577 0.777225 0.491736
vn 0.424486 0.205403 0.881828
vn 0.817063 0.312330 -0.484623
vn 0.520049 0.818455 -0.244295
vn 0.520086 0.844422 -0.128306
vn 0.876567 0.322421 -0.357316
vn -0.143658 0.988982 -0.035747
vn -0.100895 0.994078 -0.040358
vn -0.065634 0.804773 -0.589943
vn -0.506085 0.716223 -0.480523
vn -0.195390 0.977394 -0.080767
vn -0.580634 0.760321 -0.291163
vn -0.220464 0.975013 -0.027288
vn -0.593605 0.803651 0.042171
vn -0.583743 0.714121 0.386362
vn -0.232936 0.965795 0.113937
vn -0.393896 0.686369 0.611345
vn -0.231857 0.916130 0.327028
vn -0.963941 0.208743 0.165057
vn -0.706785 -0.700098 0.101582
vn -0.714116 -0.521331 0.467175
vn -0.786837 0.121819 0.605018
vn -0.729095 -0.497750 -0.469750
vn -0.853919 0.095862 -0.511501
vn -0.738161 0.107498 -0.666005
vn -0.732188 -0.478243 -0.484959
vn -0.130344 -0.040166 -0.990655
vn -0.430015 -0.712064 -0.555025
vn 0.859761 -0.003204 -0.510687
vn 0.711403 -0.464666 -0.527250
vn 0.471086 -0.649549 -0.596796
vn 0.732027 -0.045109 -0.679780
vn 0.876231 0.004134 -0.481873
vn 0.802437 -0.381889 -0.458537
vn 0.826502 -0.243519 -0.507536
vn 0.868277 0.002125 -0.496076
vn -0.398361 -0.591006 0.701442
vn -0.482139 0.056687 0.874259
vn 0.048433 -0.640904 0.766091
vn 0.217068 -0.517668 0.827587
vn 0.273734 -0.135302 0.952241
vn 0.116411 -0.088115 0.989285
vn 0.598708 -0.421836 0.680884
vn 0.650398 -0.126212 0.749034
vn 0.416162 -0.130869 0.899823
vn 0.387011 -0.228617 0.893284
vn -0.246007 -0.958623 0.143255
vn -0.478234 -0.824972 -0.301187
vn -0.021005 -0.923976 0.381873
vn 0.219739 -0.821487 0.526188
vn 0.370246 -0.893946 -0.252546
vn 0.194547 -0.942877 -0.270435
vn 0.143182 0.901444 -0.408532
vn 0.143219 0.972041 -0.186074
vn 0.622113 0.505196 -0.598124
vn 0.219641 0.731289 -0.645735
vn 0.005365 0.974357 -0.224942
vn 0.754932 0.414183 -0.508459
vn 0.169258 -0.790242 -0.588956
vn 0.419853 -0.092778 -0.902838
vn 0.013332 -0.977747 -0.209365
vn -0.109811 -0.958006 0.264890
vn -0.078777 -0.696782 0.712944
vn -0.094996 -0.031162 0.994990
vn 0.164684 0.119695 0.979057
vn -0.078197 0.357016 0.930820
vn -0.115096 0.380517 0.917584
vn 0.019105 0.100995 0.994703
vn 0.132030 0.905234 0.403881
vn 0.026840 0.577323 0.816075
vn 0.198563 0.971979 0.125816
vn 0.100515 0.994821 0.015133
vn -0.730716 0.448342 0.514823
vn -0.829820 0.547704 0.106862
vn -0.790278 0.417485 -0.448516
vn -0.675993 0.385738 -0.627886
vn -0.049508 0.261790 -0.963854
vn 0.748492 0.100071 -0.655549
vn 0.445623 0.135676 -0.884880
vn 0.856235 0.081619 -0.510099
vn 0.868066 0.066578 -0.491965
vn 0.889955 0.103086 -0.444245
vn 0.664274 0.016932 0.747298
vn 0.447492 -0.034412 0.893626
vn 0.070157 0.005632 0.997520
vn 0.212439 -0.033942 0.976585
vn -0.105749 0.102044 0.989143
vn -0.478282 0.295955 0.826836
vn -0.127329 0.991861 0.000354
vn -0.102739 0.994706 0.002234
vn -0.311910 0.949065 -0.044586
vn -0.359500 0.932987 -0.017189
vn 0.549782 0.832544 0.067891
vn 0.527292 0.848167 -0.050764
vn 0.124406 0.991795 0.029437
vn 0.144350 0.989000 0.032278
vn 0.917827 0.349082 -0.189036
vn 0.948730 0.280963 0.144818
vn 0.962762 0.152078 -0.223522
vn 0.977094 0.099852 0.187928
vn 0.960209 -0.003200 -0.279263
vn 0.976257 -0.069860 0.205041
vn 0.833462 -0.532940 0.146001
vn 0.815766 -0.496892 -0.296012
vn 0.066650 -0.982866 -0.171853
vn 0.298176 -0.932670 -0.203023
vn 0.334145 -0.942480 -0.008865
vn 0.044177 -0.994830 -0.091441
vn -0.147654 -0.981787 -0.119554
vn -0.078276 -0.984443 -0.157308
vn -0.737334 -0.604386 -0.301755
vn -0.662525 -0.552519 -0.505750
vn -0.380465 -0.866923 -0.322010
vn -0.292452 -0.940970 -0.170433
vn -0.908504 0.261758 -0.325735
vn -0.837275 0.131425 -0.530752
vn -0.828542 0.503950 -0.244034
vn -0.781041 0.445819 -0.437287
vn -0.604447 0.776762 -0.176872
vn -0.575272 0.754374 -0.316201
vn -0.151638 0.987790 -0.035733
vn -0.217597 0.972685 -0.080843
vn -0.436690 0.895578 -0.085093
vn -0.357781 0.933121 -0.035749
vn 0.016615 0.999762 0.014118
vn -0.061680 0.971470 0.229002
vn -0.210758 0.725894 0.654720
vn -0.208252 0.709609 0.673116
vn -0.263080 0.547997 0.794033
vn -0.315384 0.205343 0.926481
vn -0.277636 0.020996 0.960457
vn -0.168813 -0.661226 0.730946
vn -0.076280 -0.975601 0.205873
vn -0.174636 -0.970711 -0.164995
vn -0.173607 -0.978643 -0.110089
vn -0.192006 -0.959774 -0.204857
vn -0.116461 -0.850157 -0.513489
vn 0.164170 -0.138153 -0.976710
vn 0.251031 0.196609 -0.947802
vn 0.111486 0.782622 -0.612433
vn -0.105472 0.987382 -0.118121
vn -0.207333 0.934858 -0.288189
vn -0.117623 0.977284 -0.176298
vn -0.023006 0.999647 -0.013256
vn 0.025846 0.999641 0.007077
vn 0.031065 0.999500 0.005962
vn 0.168264 0.982712 0.077227
vn 0.458186 0.857055 0.235631
vn 0.022844 0.999736 0.002594
vn -0.114961 0.992466 -0.042362
vn -0.326168 0.941595 -0.083748
vn -0.383316 0.918045 -0.101305
vn -0.179362 0.983064 -0.037621
vn -0.587485 0.809234 -0.001091
vn -0.829759 0.557859 -0.017147
vn -0.962726 0.269537 -0.022551
vn -0.728976 -0.683107 -0.044253
vn -0.247385 -0.968650 -0.022761
vn -0.129698 -0.991138 0.028718
vn -0.173075 -0.980766 0.090235
vn -0.001813 -0.987456 0.157882
vn 0.290626 -0.922325 0.254663
vn 0.720522 -0.512172 0.467469
vn 0.843285 -0.107264 0.526655
vn 0.850252 0.046657 0.524303
vn 0.833059 0.244417 0.496260
s 1
g Rock2_XL_LOW Rocks_Group
f 166/190/1 167/191/2 4/1/3 117/138/4
f 71/85/5 120/141/6 103/121/7 2/4/8
f 8/8/9 4/1/3 167/191/2 168/192/10
f 84/99/11 71/85/5 2/4/8 9/9/12
f 2/4/8 103/121/7 104/122/13 9/9/12
f 116/137/14 117/138/4 4/1/3 8/8/9
f 182/207/15 163/187/16 3/2/17 11/12/18
f 10/10/19 1/3/20 73/87/21 74/88/22
f 121/142/23 122/143/24 105/123/25 13/15/26
f 142/165/27 121/142/23 13/15/26 83/98/28
f 169/193/29 170/194/30 16/17/31 139/162/32
f 16/17/31 115/135/33 138/161/34 139/162/32
f 172/196/35 173/197/36 18/20/37 47/208/38
f 80/94/39 81/96/40 49/61/41 20/22/42
f 49/62/41 107/125/43 108/126/44 20/23/42
f 127/148/45 128/149/46 21/24/47 51/64/48
f 76/90/49 77/91/50 22/25/51 52/65/52
f 112/131/53 113/133/54 47/59/38 18/210/37
f 24/27/55 132/153/56 133/155/57 55/68/58
f 179/204/59 180/205/60 54/67/61 25/29/62
f 173/198/36 174/199/63 112/132/53 18/32/37
f 108/127/44 109/128/64 80/95/39 20/34/42
f 177/202/65 178/203/66 132/154/56 24/31/55
f 21/24/47 128/149/46 129/150/67 78/92/68
f 99/117/69 100/118/70 1/3/20 10/217/19
f 14/14/71 98/116/72 124/145/73 125/211/74
f 95/112/75 96/114/76 51/64/48 21/24/47
f 94/111/77 95/113/75 21/24/47 78/92/68
f 176/201/78 177/202/65 24/31/55 91/108/79
f 90/106/80 91/107/79 24/27/55 55/68/58
f 135/157/81 136/159/82 88/103/83 17/18/84
f 3/2/17 86/101/85 87/102/86 11/11/18
f 163/187/16 164/188/87 86/101/85 3/2/17
f 100/118/70 101/119/88 73/87/21 1/3/20
f 37/209/89 16/17/31 170/194/30 171/195/90
f 82/97/91 83/98/28 13/15/26 39/50/92
f 105/213/25 106/124/93 39/51/92 13/214/26
f 14/212/71 41/53/94 97/115/95 98/215/72
f 125/146/74 126/147/96 41/53/94 14/212/71
f 42/54/97 10/10/19 74/88/22 75/89/98
f 181/206/99 182/207/15 11/12/18 44/56/100
f 45/57/101 134/156/102 135/158/81 17/28/84
f 88/104/83 89/105/103 45/57/101 17/28/84
f 16/21/31 37/48/89 114/134/104 115/136/33
f 47/208/38 37/209/89 171/195/90 172/196/35
f 81/96/40 82/97/91 39/50/92 49/61/41
f 39/51/92 106/124/93 107/125/43 49/62/41
f 96/114/76 97/115/95 41/53/94 51/64/48
f 126/147/96 127/148/45 51/64/48 41/53/94
f 52/65/52 42/54/97 75/89/98 76/90/49
f 180/205/60 181/206/99 44/56/100 54/67/61
f 55/68/58 133/155/57 134/156/102 45/57/101
f 89/105/103 90/106/80 55/68/58 45/57/101
f 113/133/54 114/134/104 37/48/89 47/59/38
f 118/139/105 119/140/106 57/70/107 6/6/108
f 5/5/109 59/72/110 102/120/111 85/100/112
f 60/73/113 59/72/110 5/5/109 12/13/114
f 61/74/115 60/73/113 12/13/114 43/55/116
f 62/75/117 61/74/115 43/55/116 53/66/118
f 23/26/119 63/76/120 62/75/117 53/66/118
f 64/77/121 130/151/122 131/152/123 26/30/124
f 92/109/125 93/110/126 64/77/121 26/30/124
f 19/33/127 66/80/128 110/129/129 111/130/130
f 48/60/131 67/81/132 66/79/128 19/19/127
f 38/49/133 68/82/134 67/81/132 48/60/131
f 15/16/135 69/83/136 68/82/134 38/49/133
f 140/163/137 141/164/138 69/83/136 15/16/135
f 6/6/108 57/70/107 70/84/139 7/7/140
f 57/70/107 119/140/106 120/141/6 71/85/5
f 101/119/88 102/120/111 59/72/110 73/87/21
f 74/88/22 73/87/21 59/72/110 60/73/113
f 75/89/98 74/88/22 60/73/113 61/74/115
f 76/90/49 75/89/98 61/74/115 62/75/117
f 62/75/117 63/76/120 77/91/50 76/90/49
f 78/92/68 129/150/67 130/151/122 64/77/121
f 93/110/126 94/111/77 78/92/68 64/77/121
f 109/128/64 110/129/129 66/80/128 80/95/39
f 66/79/128 67/81/132 81/96/40 80/94/39
f 67/81/132 68/82/134 82/97/91 81/96/40
f 68/82/134 69/83/136 83/98/28 82/97/91
f 141/164/138 142/165/27 83/98/28 69/83/136
f 70/84/139 57/70/107 71/85/5 84/99/11
f 164/188/87 165/189/141 35/46/142 86/101/85
f 87/102/86 86/101/85 35/46/142 34/45/143
f 136/159/82 137/160/144 33/43/145 88/103/83
f 46/58/146 89/105/103 88/104/83 33/44/145
f 56/69/147 90/106/80 89/105/103 46/58/146
f 32/41/148 91/107/79 90/106/80 56/69/147
f 91/108/79 32/42/148 175/200/149 176/201/78
f 65/78/150 93/110/126 92/109/125 31/40/151
f 79/93/152 94/111/77 93/110/126 65/78/150
f 30/39/153 95/113/75 94/111/77 79/93/152
f 50/63/154 96/114/76 95/112/75 30/38/153
f 40/52/155 97/115/95 96/114/76 50/63/154
f 98/215/72 97/115/95 40/52/155 29/216/156
f 123/144/157 124/145/73 98/116/72 29/37/156
f 28/36/158 27/35/159 100/118/70 99/117/69
f 72/86/160 101/119/88 100/118/70 27/35/159
f 58/71/161 102/120/111 101/119/88 72/86/160
f 85/100/112 102/120/111 58/71/161 36/47/162
f 104/122/13 103/121/7 27/35/159 28/36/158
f 122/143/24 123/144/157 29/37/156 105/123/25
f 29/216/156 40/52/155 106/124/93 105/213/25
f 107/125/43 106/124/93 40/52/155 50/63/154
f 108/126/44 107/125/43 50/63/154 30/38/153
f 79/93/152 109/128/64 108/127/44 30/39/153
f 65/78/150 110/129/129 109/128/64 79/93/152
f 111/130/130 110/129/129 65/78/150 31/40/151
f 174/199/63 175/200/149 32/42/148 112/132/53
f 56/69/147 113/133/54 112/131/53 32/41/148
f 46/58/146 114/134/104 113/133/54 56/69/147
f 115/136/33 114/134/104 46/58/146 33/44/145
f 137/160/144 138/161/34 115/135/33 33/43/145
f 34/45/143 35/46/142 117/138/4 116/137/14
f 117/138/4 35/46/142 165/189/141 166/190/1
f 36/47/162 58/71/161 119/140/106 118/139/105
f 120/141/6 119/140/106 58/71/161 72/86/160
f 103/121/7 120/141/6 72/86/160 27/35/159
f 104/122/13 122/143/24 121/142/23 9/9/12
f 28/36/158 123/144/157 122/143/24 104/122/13
f 99/117/69 124/145/73 123/144/157 28/36/158
f 125/211/74 124/145/73 99/117/69 10/217/19
f 42/54/97 126/147/96 125/146/74 10/10/19
f 52/65/52 127/148/45 126/147/96 42/54/97
f 22/25/51 128/149/46 127/148/45 52/65/52
f 129/150/67 128/149/46 22/25/51 77/91/50
f 130/151/122 129/150/67 77/91/50 63/76/120
f 131/152/123 130/151/122 63/76/120 23/26/119
f 178/203/66 179/204/59 25/29/62 132/154/56
f 133/155/57 132/153/56 25/29/62 54/67/61
f 134/156/102 133/155/57 54/67/61 44/56/100
f 135/158/81 134/156/102 44/56/100 11/12/18
f 87/102/86 136/159/82 135/157/81 11/11/18
f 34/45/143 137/160/144 136/159/82 87/102/86
f 116/137/14 138/161/34 137/160/144 34/45/143
f 139/162/32 138/161/34 116/137/14 8/8/9
f 139/162/32 8/8/9 168/192/10 169/193/29
f 70/84/139 141/164/138 140/163/137 7/7/140
f 84/99/11 142/165/27 141/164/138 70/84/139
f 9/9/12 121/142/23 142/165/27 84/99/11
f 85/100/112 144/167/163 143/166/164 5/5/109
f 36/47/162 145/168/165 144/167/163 85/100/112
f 146/169/166 145/168/165 36/47/162 118/139/105
f 6/6/108 147/170/167 146/169/166 118/139/105
f 148/171/168 147/170/167 6/6/108 7/7/140
f 149/172/169 148/171/168 7/7/140 140/163/137
f 15/16/135 150/173/170 149/172/169 140/163/137
f 151/174/171 150/173/170 15/16/135 38/49/133
f 152/175/172 151/174/171 38/49/133 48/60/131
f 19/19/127 153/176/173 152/175/172 48/60/131
f 111/130/130 154/178/174 153/177/173 19/33/127
f 31/40/151 155/179/175 154/178/174 111/130/130
f 156/180/176 155/179/175 31/40/151 92/109/125
f 26/30/124 157/181/177 156/180/176 92/109/125
f 131/152/123 158/182/178 157/181/177 26/30/124
f 23/26/119 159/183/179 158/182/178 131/152/123
f 53/66/118 160/184/180 159/183/179 23/26/119
f 43/55/116 161/185/181 160/184/180 53/66/118
f 12/13/114 162/186/182 161/185/181 43/55/116
f 5/5/109 143/166/164 162/186/182 12/13/114
f 143/166/164 144/167/163 164/188/87 163/187/16
f 144/167/163 145/168/165 165/189/141 164/188/87
f 166/190/1 165/189/141 145/168/165 146/169/166
f 146/169/166 147/170/167 167/191/2 166/190/1
f 168/192/10 167/191/2 147/170/167 148/171/168
f 169/193/29 168/192/10 148/171/168 149/172/169
f 149/172/169 150/173/170 170/194/30 169/193/29
f 171/195/90 170/194/30 150/173/170 151/174/171
f 172/196/35 171/195/90 151/174/171 152/175/172
f 152/175/172 153/176/173 173/197/36 172/196/35
f 153/177/173 154/178/174 174/199/63 173/198/36
f 154/178/174 155/179/175 175/200/149 174/199/63
f 176/201/78 175/200/149 155/179/175 156/180/176
f 156/180/176 157/181/177 177/202/65 176/201/78
f 157/181/177 158/182/178 178/203/66 177/202/65
f 158/182/178 159/183/179 179/204/59 178/203/66
f 159/183/179 160/184/180 180/205/60 179/204/59
f 160/184/180 161/185/181 181/206/99 180/205/60
f 161/185/181 162/186/182 182/207/15 181/206/99
f 162/186/182 143/166/164 163/187/16 182/207/15
