# This file uses centimeters as units for non-parametric coordinates.

g default
v 0.239976 0.118353 0.399873
v 0.460058 0.092521 0.003689
v -0.460189 0.200370 -0.038292
v -0.333481 0.113531 0.352667
v -0.286510 0.126183 -0.363536
v 0.303212 0.074718 -0.336105
v -0.001877 0.088099 -0.477736
v 0.036012 0.334559 0.014412
v -0.015846 0.087044 0.451963
v 0.237986 -0.124357 0.404758
v -0.038575 -0.161782 0.453704
v 0.461865 -0.120071 0.032879
v 0.280599 -0.207917 -0.276675
v -0.023941 -0.228502 -0.444037
v -0.299329 -0.150781 -0.356044
v -0.425785 -0.038994 -0.072648
v -0.368187 -0.100929 0.325862
v -0.033892 -0.287574 0.031539
v 0.427055 0.116797 0.154406
v 0.027558 0.276804 0.169638
v -0.450923 0.180984 0.106812
v -0.413208 -0.063906 0.071780
v -0.038404 -0.251703 0.198622
v 0.418798 -0.133179 0.177799
v -0.374604 0.174737 -0.266460
v 0.010233 0.235103 -0.341522
v 0.403998 0.115912 -0.220749
v 0.383776 -0.207155 -0.176296
v -0.011717 -0.349732 -0.348187
v -0.391447 -0.106628 -0.264425
v -0.226547 0.117249 0.405803
v -0.287043 0.255892 0.155822
v -0.315419 0.248172 -0.005533
v -0.234350 0.237741 -0.305298
v -0.187938 0.107740 -0.433865
v -0.212634 -0.181351 -0.401724
v -0.290262 -0.274531 -0.291444
v -0.341997 -0.204954 -0.023343
v -0.338047 -0.212180 0.120108
v -0.260496 -0.149529 0.398605
v 0.199314 0.340620 0.011285
v 0.158580 0.284408 0.158323
v 0.069606 0.083424 0.457043
v 0.038534 -0.150250 0.448391
v 0.101659 -0.238569 0.200328
v 0.113059 -0.283789 0.050227
v 0.097473 -0.341013 -0.310364
v 0.070039 -0.213894 -0.420442
v 0.109051 0.076257 -0.463907
v 0.166512 0.245706 -0.328384
v 0.327413 0.231591 0.009362
v 0.300757 0.255943 0.163021
v 0.164936 0.100029 0.431646
v 0.146539 -0.141131 0.427102
v 0.285247 -0.236090 0.188552
v 0.271509 -0.282170 0.058223
v 0.256839 -0.303060 -0.224115
v 0.194063 -0.224847 -0.350711
v 0.216844 0.079050 -0.414904
v 0.318200 0.216253 -0.288792
v 0.247909 -0.003006 0.414589
v 0.165935 -0.022178 0.459689
v 0.059329 -0.040056 0.491695
v -0.023775 -0.054561 0.495512
v -0.231361 -0.028787 0.446885
v -0.359278 0.011297 0.347216
v -0.458052 0.067900 0.077069
v -0.467765 0.100096 -0.058998
v -0.414163 0.052034 -0.262354
v -0.291849 -0.018619 -0.368418
v -0.200420 -0.043125 -0.422827
v -0.013676 -0.065829 -0.484928
v 0.085985 -0.071502 -0.447713
v 0.185552 -0.079877 -0.396399
v 0.281656 -0.088219 -0.309702
v 0.404333 -0.045662 -0.201051
v 0.476662 -0.014096 0.017254
v 0.440076 0.001263 0.153328
v -0.087497 0.098851 -0.473244
v -0.112463 0.240969 -0.334106
v -0.149923 0.294052 0.010270
v -0.137114 0.268439 0.181631
v -0.107742 0.098148 0.435456
v -0.120493 -0.042328 0.484825
v -0.137508 -0.162987 0.445645
v -0.176906 -0.254938 0.192676
v -0.184166 -0.290758 0.015778
v -0.152747 -0.338153 -0.341738
v -0.122653 -0.204045 -0.439229
v -0.093239 -0.054895 -0.468548
v 0.442108 0.113855 -0.109565
v 0.331228 0.227851 -0.131364
v 0.201031 0.349732 -0.168796
v 0.034248 0.344787 -0.170196
v -0.145072 0.295397 -0.155641
v -0.306238 0.250717 -0.154743
v -0.438773 0.195627 -0.151261
v -0.463812 0.104566 -0.171811
v -0.424814 -0.040917 -0.171210
v -0.325429 -0.237772 -0.158176
v -0.169493 -0.324700 -0.151800
v -0.028948 -0.321893 -0.137911
v 0.109254 -0.318411 -0.120717
v 0.263002 -0.311100 -0.084623
v 0.436922 -0.168114 -0.079558
v 0.450147 -0.041969 -0.104265
v 0.349089 0.111350 0.308936
v 0.223428 0.169390 0.329480
v 0.109289 0.172053 0.325518
v -0.005743 0.175220 0.320804
v -0.117766 0.178431 0.316027
v -0.236022 0.186769 0.303619
v -0.409819 0.157420 0.245854
v -0.445612 0.060539 0.219909
v -0.402961 -0.084201 0.208670
v -0.312829 -0.201687 0.255089
v -0.159281 -0.229869 0.316366
v -0.039204 -0.211660 0.326805
v 0.075406 -0.195903 0.322551
v 0.219109 -0.181360 0.313891
v 0.353489 -0.129078 0.296546
v 0.357143 -0.000573 0.308885
vt 0.326442 0.089212
vt 0.434240 0.069396
vt 0.381201 0.272110
vt 0.293975 0.229230
vt 0.511787 0.123067
vt 0.470418 0.270366
vt 0.513020 0.206832
vt 0.399005 0.169169
vt 0.297299 0.147173
vt 0.245027 0.142074
vt 0.255782 0.079072
vt 0.319207 0.027616
vt 0.441397 0.023862
vt 0.538835 0.054370
vt 0.583059 0.128898
vt 0.579120 0.221653
vt 0.540074 0.292061
vt 0.472962 0.339493
vt 0.378977 0.325005
vt 0.273389 0.281901
vt 0.231788 0.221907
vt 0.169536 0.009580
vt 0.154006 0.134874
vt 0.037396 0.131991
vt 0.131056 0.254438
vt 0.058658 0.209051
vt 0.081124 0.050830
vt 0.398679 0.068811
vt 0.365753 0.159817
vt 0.351060 0.263964
vt 0.335228 0.316668
vt 0.167472 0.247297
vt 0.189988 0.137188
vt 0.396780 0.015154
vt 0.203276 0.026168
vt 0.435185 0.274425
vt 0.473943 0.196022
vt 0.478758 0.098871
vt 0.508933 0.035006
vt 0.112862 0.030175
vt 0.071357 0.127655
vt 0.440141 0.335968
vt 0.083579 0.234988
vt 0.294418 0.199295
vt 0.351090 0.224825
vt 0.382999 0.240663
vt 0.451609 0.245446
vt 0.492980 0.247533
vt 0.554882 0.270849
vt 0.045013 0.184866
vt 0.081837 0.190866
vt 0.141750 0.212289
vt 0.174141 0.209099
vt 0.235367 0.191554
vt 0.409705 0.138126
vt 0.376994 0.134288
vt 0.300616 0.127034
vt 0.248381 0.125081
vt 0.194753 0.104839
vt 0.160259 0.101082
vt 0.079049 0.103444
vt 0.581111 0.194586
vt 0.040092 0.105805
vt 0.518613 0.181477
vt 0.478481 0.162430
vt 0.420510 0.106033
vt 0.386793 0.105753
vt 0.311758 0.105808
vt 0.251917 0.100472
vt 0.196248 0.063593
vt 0.164380 0.065216
vt 0.099395 0.066977
vt 0.586062 0.156689
vt 0.061098 0.073776
vt 0.517200 0.153404
vt 0.479945 0.128458
vt 0.291976 0.080613
vt 0.322014 0.056953
vt 0.282018 0.100482
vt 0.273784 0.124482
vt 0.267888 0.142176
vt 0.263585 0.190520
vt 0.283175 0.255953
vt 0.263968 0.230219
vt 0.347605 0.289009
vt 0.381210 0.292744
vt 0.432874 0.302264
vt 0.508916 0.282047
vt 0.472784 0.308199
vt 0.524863 0.260197
vt 0.543650 0.214377
vt 0.549103 0.188476
vt 0.552848 0.160498
vt 0.530291 0.082893
vt 0.554232 0.130016
vt 0.493612 0.067861
vt 0.438057 0.047882
vt 0.402371 0.044775
vt 0.505654 0.225399
vt 0.464431 0.221354
vt 0.388962 0.206263
vt 0.353864 0.193033
vt 0.295552 0.169469
vt 0.266346 0.163903
vt 0.241237 0.163271
vt 0.187028 0.169801
vt 0.149072 0.170096
vt 0.072771 0.157925
vt 0.567942 0.247447
vt 0.037403 0.159083
vt 0.536637 0.233441
vt 0.456567 0.083265
vt 0.449387 0.114202
vt 0.443351 0.149150
vt 0.435369 0.180816
vt 0.423908 0.216132
vt 0.415077 0.248508
vt 0.405345 0.275513
vt 0.408013 0.294585
vt 0.409661 0.325699
vt 0.106620 0.253887
vt 0.110768 0.204353
vt 0.112973 0.163809
vt 0.117208 0.132001
vt 0.121627 0.100836
vt 0.131213 0.066677
vt 0.478328 0.027378
vt 0.139253 0.016404
vt 0.469657 0.054267
vt 0.358686 0.073005
vt 0.342998 0.101728
vt 0.334596 0.127571
vt 0.328260 0.154248
vt 0.322580 0.180109
vt 0.317934 0.207827
vt 0.322019 0.248886
vt 0.316732 0.271904
vt 0.299638 0.298927
vt 0.202373 0.237477
vt 0.204043 0.202864
vt 0.212546 0.166485
vt 0.217705 0.138978
vt 0.222100 0.112574
vt 0.227685 0.079795
vt 0.358960 0.019288
vt 0.231238 0.046727
vt 0.358093 0.047948
vn 0.509124 0.417854 0.752456
vn 0.705217 0.425004 0.567486
vn 0.261530 0.805703 0.531455
vn 0.198282 0.565388 0.800637
vn 0.705054 -0.040009 -0.708025
vn 0.496796 0.181191 -0.848742
vn 0.597818 0.592917 -0.539502
vn 0.848853 0.218078 -0.481551
vn -0.604682 0.542873 -0.582793
vn -0.294097 0.825769 -0.481261
vn -0.383825 0.348898 -0.854955
vn -0.554097 0.300560 -0.776299
vn -0.279162 0.551510 0.786070
vn -0.195093 0.839978 0.506336
vn -0.641916 0.606553 0.469081
vn -0.544763 0.445854 0.710244
vn 0.585089 -0.006366 0.810944
vn 0.323693 -0.035601 0.945492
vn 0.263978 -0.678892 0.685144
vn 0.523111 -0.452363 0.722304
vn 0.698484 -0.430323 0.571789
vn 0.797473 -0.000777 0.603354
vn 0.681585 -0.185933 -0.707723
vn 0.808900 -0.132789 -0.572755
vn 0.756852 -0.525167 -0.389069
vn 0.657091 -0.319331 -0.682831
vn 0.538778 -0.206984 -0.816624
vn 0.516306 -0.426885 -0.742427
vn -0.642137 -0.219539 -0.734482
vn -0.617670 -0.006281 -0.786412
vn -0.457595 -0.045160 -0.888013
vn -0.499767 -0.295377 -0.814239
vn -0.861131 -0.318291 -0.396414
vn -0.801015 0.015525 -0.598442
vn -0.734031 -0.002826 0.679110
vn -0.953021 -0.058089 0.297283
vn -0.898135 -0.392699 0.197840
vn -0.778890 -0.353349 0.518145
vn -0.499905 -0.553309 0.666291
vn -0.432579 0.025102 0.901247
vn 0.237853 -0.874707 0.422272
vn -0.640989 -0.721397 -0.262145
vn 0.428448 -0.865837 -0.258375
vn -0.553963 -0.792295 0.255722
vn 0.662794 0.746634 0.056944
vn 0.498726 0.803739 0.324462
vn 0.822154 0.492752 0.285059
vn 0.894439 0.446940 0.014937
vn -0.716831 0.665637 0.207559
vn -0.279418 0.925547 0.255515
vn -0.303468 0.952210 0.034673
vn -0.704182 0.709806 0.017409
vn -0.925228 -0.379410 -0.001559
vn -0.918710 -0.393694 0.031252
vn -0.986698 -0.145095 0.073308
vn -0.993981 -0.109463 -0.004349
vn -0.714639 -0.696799 0.061336
vn -0.648287 -0.755780 0.092305
vn 0.850293 -0.511217 0.125134
vn 0.792864 -0.508020 0.336576
vn 0.370809 -0.873337 0.315885
vn 0.365667 -0.905944 0.213430
vn 0.999002 -0.001374 0.044652
vn 0.932936 0.016183 0.359678
vn -0.313609 0.937311 -0.151977
vn -0.651886 0.716203 -0.249196
vn 0.889657 0.423970 -0.169587
vn 0.672889 0.730247 -0.118155
vn 0.807675 -0.586296 -0.062597
vn 0.951818 -0.067259 -0.299196
vn 0.360387 -0.927565 0.098716
vn -0.930987 -0.350718 -0.101297
vn -0.703768 -0.708944 0.045931
vn -0.959184 0.019009 -0.282142
vn -0.032727 0.616029 0.787043
vn -0.000139 0.830025 0.557726
vn -0.021332 0.837300 0.546328
vn -0.097597 0.592443 0.799679
vn -0.207074 0.974271 0.088969
vn -0.104785 0.930369 0.351332
vn -0.047539 0.906492 0.419538
vn -0.114107 0.980645 0.159106
vn -0.112913 0.965970 -0.232706
vn -0.219225 0.964237 -0.148955
vn -0.173103 0.413309 -0.893986
vn -0.147522 0.827815 -0.541258
vn -0.023697 0.785448 -0.618474
vn 0.063922 0.424705 -0.903072
vn -0.296221 -0.370461 -0.880347
vn -0.272330 -0.079984 -0.958874
vn 0.078074 -0.126078 -0.988943
vn 0.066000 -0.452369 -0.889385
vn 0.041387 -0.943812 -0.327881
vn -0.283161 -0.898747 -0.334774
vn -0.246922 -0.955856 0.159279
vn -0.249441 -0.959961 0.127489
vn -0.003906 -0.988115 0.153667
vn 0.010489 -0.977346 0.211386
vn 0.048886 -0.967031 0.249921
vn -0.169906 -0.968706 0.180941
vn -0.201463 -0.661849 0.722058
vn -0.141353 -0.929522 0.340600
vn 0.089857 -0.936993 0.337593
vn 0.046654 -0.728104 0.683877
vn -0.036372 -0.017063 0.999193
vn -0.213181 0.035839 0.976355
vn 0.117034 0.900475 0.418865
vn 0.287802 0.947143 0.141742
vn 0.065950 0.581196 0.811087
vn 0.024652 0.833458 0.552033
vn 0.179548 -0.717063 0.673486
vn 0.158126 -0.039364 0.986634
vn 0.112021 -0.923613 0.366593
vn 0.013633 -0.970614 0.240254
vn 0.054604 -0.946389 0.318381
vn 0.043712 -0.989996 0.134151
vn 0.374952 -0.409263 -0.831814
vn 0.236173 -0.921385 -0.308662
vn 0.356508 -0.174864 -0.917783
vn 0.213001 0.732893 -0.646141
vn 0.258002 0.321333 -0.911142
vn 0.284720 0.931450 -0.226573
s 1
g Rock3_LOW Rocks_Group
f 1/1/1 107/130/2 108/131/3 53/68/4
f 6/5/5 59/75/6 60/76/7 27/38/8
f 25/36/9 34/47/10 35/48/11 5/6/12
f 31/44/13 112/135/14 113/136/15 4/4/16
f 61/77/17 62/79/18 54/69/19 10/11/20
f 10/12/20 121/145/21 122/147/22 61/78/17
f 75/94/23 76/96/24 28/39/25 13/14/26
f 74/93/27 75/95/23 13/15/26 58/73/28
f 15/17/29 70/88/30 71/90/31 36/49/32
f 15/18/29 30/42/33 69/87/34 70/89/30
f 66/83/35 114/137/36 115/138/37 17/20/38
f 40/54/39 65/82/40 66/84/35 17/21/38
f 54/69/19 120/144/41 121/146/21 10/11/20
f 36/50/32 37/51/42 30/43/33 15/26/29
f 28/40/25 57/72/43 58/74/28 13/27/26
f 17/21/38 115/139/37 116/140/44 40/54/39
f 51/66/45 52/67/46 19/28/47 2/2/48
f 21/30/49 32/45/50 33/46/51 3/3/52
f 16/19/53 22/31/54 67/85/55 68/86/56
f 38/52/57 39/53/58 22/32/54 16/25/53
f 12/22/59 24/35/60 55/70/61 56/71/62
f 77/97/63 78/98/64 24/34/60 12/13/59
f 33/46/51 96/117/65 97/118/66 3/3/52
f 91/112/67 92/113/68 51/66/45 2/2/48
f 12/13/59 105/127/69 106/129/70 77/97/63
f 56/71/62 104/126/71 105/128/69 12/22/59
f 99/121/72 100/122/73 38/52/57 16/25/53
f 68/86/56 98/119/74 99/120/72 16/19/53
f 9/9/75 110/133/76 111/134/77 83/103/78
f 81/101/79 82/102/80 20/29/81 8/8/82
f 8/8/82 94/115/83 95/116/84 81/101/79
f 79/99/85 80/100/86 26/37/87 7/7/88
f 89/109/89 90/111/90 72/91/91 14/16/92
f 14/24/92 29/41/93 88/108/94 89/110/89
f 87/107/95 101/123/96 102/124/97 18/23/98
f 23/33/99 86/106/100 87/107/95 18/23/98
f 85/105/101 117/141/102 118/142/103 11/10/104
f 64/81/105 84/104/106 85/105/101 11/10/104
f 20/29/81 42/56/107 41/55/108 8/8/82
f 43/57/109 109/132/110 110/133/76 9/9/75
f 11/10/104 44/58/111 63/80/112 64/81/105
f 118/142/103 119/143/113 44/58/111 11/10/104
f 46/60/114 45/59/115 23/33/99 18/23/98
f 18/23/98 102/124/97 103/125/116 46/60/114
f 48/63/117 47/61/118 29/41/93 14/24/92
f 72/91/91 73/92/119 48/62/117 14/16/92
f 50/65/120 49/64/121 7/7/88 26/37/87
f 41/55/108 93/114/122 94/115/83 8/8/82
f 41/55/108 42/56/107 52/67/46 51/66/45
f 53/68/4 108/131/3 109/132/110 43/57/109
f 62/79/18 63/80/112 44/58/111 54/69/19
f 44/58/111 119/143/113 120/144/41 54/69/19
f 56/71/62 55/70/61 45/59/115 46/60/114
f 46/60/114 103/125/116 104/126/71 56/71/62
f 58/74/28 57/72/43 47/61/118 48/63/117
f 73/92/119 74/93/27 58/73/28 48/62/117
f 60/76/7 59/75/6 49/64/121 50/65/120
f 51/66/45 92/113/68 93/114/122 41/55/108
f 53/68/4 62/79/18 61/77/17 1/1/1
f 43/57/109 63/80/112 62/79/18 53/68/4
f 64/81/105 63/80/112 43/57/109 9/9/75
f 9/9/75 83/103/78 84/104/106 64/81/105
f 66/84/35 65/82/40 31/44/13 4/4/16
f 113/136/15 114/137/36 66/83/35 4/4/16
f 68/86/56 67/85/55 21/30/49 3/3/52
f 97/118/66 98/119/74 68/86/56 3/3/52
f 70/89/30 69/87/34 25/36/9 5/6/12
f 71/90/31 70/88/30 5/6/12 35/48/11
f 72/91/91 90/111/90 79/99/85 7/7/88
f 49/64/121 73/92/119 72/91/91 7/7/88
f 59/75/6 74/93/27 73/92/119 49/64/121
f 6/5/5 75/95/23 74/93/27 59/75/6
f 27/38/8 76/96/24 75/94/23 6/5/5
f 77/97/63 106/129/70 91/112/67 2/2/48
f 19/28/47 78/98/64 77/97/63 2/2/48
f 61/78/17 122/147/22 107/130/2 1/1/1
f 35/48/11 34/47/10 80/100/86 79/99/85
f 81/101/79 95/116/84 96/117/65 33/46/51
f 33/46/51 32/45/50 82/102/80 81/101/79
f 83/103/78 111/134/77 112/135/14 31/44/13
f 84/104/106 83/103/78 31/44/13 65/82/40
f 85/105/101 84/104/106 65/82/40 40/54/39
f 40/54/39 116/140/44 117/141/102 85/105/101
f 87/107/95 86/106/100 39/53/58 38/52/57
f 38/52/57 100/122/73 101/123/96 87/107/95
f 89/110/89 88/108/94 37/51/42 36/50/32
f 36/49/32 71/90/31 90/111/90 89/109/89
f 79/99/85 90/111/90 71/90/31 35/48/11
f 27/38/8 60/76/7 92/113/68 91/112/67
f 93/114/122 92/113/68 60/76/7 50/65/120
f 94/115/83 93/114/122 50/65/120 26/37/87
f 95/116/84 94/115/83 26/37/87 80/100/86
f 96/117/65 95/116/84 80/100/86 34/47/10
f 97/118/66 96/117/65 34/47/10 25/36/9
f 25/36/9 69/87/34 98/119/74 97/118/66
f 99/120/72 98/119/74 69/87/34 30/42/33
f 30/43/33 37/51/42 100/122/73 99/121/72
f 101/123/96 100/122/73 37/51/42 88/108/94
f 102/124/97 101/123/96 88/108/94 29/41/93
f 103/125/116 102/124/97 29/41/93 47/61/118
f 104/126/71 103/125/116 47/61/118 57/72/43
f 105/128/69 104/126/71 57/72/43 28/40/25
f 106/129/70 105/127/69 28/39/25 76/96/24
f 91/112/67 106/129/70 76/96/24 27/38/8
f 108/131/3 107/130/2 19/28/47 52/67/46
f 109/132/110 108/131/3 52/67/46 42/56/107
f 110/133/76 109/132/110 42/56/107 20/29/81
f 111/134/77 110/133/76 20/29/81 82/102/80
f 112/135/14 111/134/77 82/102/80 32/45/50
f 113/136/15 112/135/14 32/45/50 21/30/49
f 21/30/49 67/85/55 114/137/36 113/136/15
f 115/138/37 114/137/36 67/85/55 22/31/54
f 116/140/44 115/139/37 22/32/54 39/53/58
f 117/141/102 116/140/44 39/53/58 86/106/100
f 118/142/103 117/141/102 86/106/100 23/33/99
f 23/33/99 45/59/115 119/143/113 118/142/103
f 120/144/41 119/143/113 45/59/115 55/70/61
f 121/146/21 120/144/41 55/70/61 24/35/60
f 122/147/22 121/145/21 24/34/60 78/98/64
f 107/130/2 122/147/22 78/98/64 19/28/47
