# This file uses centimeters as units for non-parametric coordinates.

g default
v 0.476807 0.411711 0.137120
v 0.286327 0.453890 0.151871
v -0.044431 0.248674 0.623735
v 0.374658 0.301923 0.594338
v 0.444849 0.158634 0.617683
v 0.642358 0.267579 0.129963
v 0.240969 0.215365 -0.566188
v 0.020609 0.249554 -0.569109
v -0.031526 0.051607 0.658238
v 0.267388 0.113237 -0.575729
v 0.064871 0.076884 -0.632609
v -0.285552 -0.002322 -0.612713
v -0.394671 0.128945 -0.560188
v -0.015078 0.332230 -0.519673
v 0.246257 0.497071 0.135598
v -0.081304 0.374464 0.560039
v -0.483715 0.234899 0.571087
v -0.433565 0.106845 0.627824
v -0.415231 -0.034632 0.642559
v 0.732930 0.056839 0.114497
v 0.470252 -0.018236 0.624172
v 0.288895 -0.057431 -0.578547
v 0.105358 -0.112684 -0.629339
v -0.241386 -0.193434 -0.590986
v -0.460540 0.200407 -0.484848
v -0.602148 0.311105 0.174876
v -0.704844 0.124038 0.209262
v -0.688203 -0.011574 0.234553
v 0.020592 -0.095000 0.656260
v -0.377016 -0.209082 0.625569
v 0.365348 -0.207618 0.617409
v 0.098232 -0.277404 0.625953
v -0.092497 -0.353655 0.603646
v -0.600742 -0.215120 0.213333
v -0.130454 -0.498504 0.234127
v 0.219678 -0.271647 -0.416696
v -0.011566 -0.409871 -0.384574
v 0.648686 -0.190163 0.076955
v 0.372075 -0.169943 -0.439938
v 0.327833 -0.401984 0.152101
v 0.211443 0.418305 -0.226102
v 0.429763 0.364061 -0.258073
v 0.510901 0.177777 -0.243062
v 0.546325 0.001961 -0.250392
v 0.511045 -0.214102 -0.197703
v 0.291599 -0.348988 -0.169839
v -0.092142 -0.498721 -0.093888
v -0.574260 -0.256619 -0.199578
v -0.652912 -0.054186 -0.212635
v -0.662259 0.133919 -0.211272
v -0.585474 0.310979 -0.167243
v 0.167552 0.477382 -0.214733
v 0.489632 0.401097 0.336798
v 0.217366 0.436296 0.354809
v 0.102622 0.479534 0.376645
v -0.568721 0.301272 0.354279
v -0.648051 0.121063 0.417012
v -0.622358 -0.041979 0.438799
v -0.557443 -0.239690 0.405358
v -0.120134 -0.457397 0.401571
v 0.265253 -0.383389 0.345510
v 0.588256 -0.227184 0.346799
v 0.695411 0.018742 0.365944
v 0.640178 0.254169 0.347713
v -0.108947 0.038263 -0.626481
v -0.186657 0.191896 -0.575370
v -0.252504 0.289177 -0.520727
v -0.230709 0.441147 -0.226177
v -0.192647 0.477752 0.156414
v -0.237486 0.428007 0.375667
v -0.283341 0.316334 0.579106
v -0.237547 0.180401 0.634856
v -0.221405 0.008976 0.655308
v -0.176344 -0.151959 0.654508
v 0.005085 -0.319351 0.618692
v 0.067047 -0.425989 0.366656
v 0.100309 -0.467324 0.193408
v 0.123179 -0.456910 -0.116440
v 0.109189 -0.346965 -0.406827
v -0.066601 -0.157875 -0.623820
v 0.359714 0.448532 0.147751
v 0.325383 0.444918 0.344138
v 0.163081 0.292112 0.627938
v 0.213739 0.106079 0.654225
v 0.249964 -0.058686 0.652161
v 0.231735 -0.242080 0.620554
v 0.420672 -0.338073 0.349267
v 0.474394 -0.304058 0.118325
v 0.408303 -0.273365 -0.176152
v 0.295071 -0.219134 -0.426921
v 0.198759 -0.087122 -0.606990
v 0.168403 0.094492 -0.614162
v 0.131288 0.234843 -0.571505
v 0.308838 0.430455 -0.249191
v 0.423837 -0.116446 0.633167
v 0.241134 -0.151916 0.642514
v 0.059894 -0.187278 0.646354
v -0.085033 -0.237627 0.647547
v -0.243447 -0.297260 0.621657
v -0.127863 -0.315282 -0.497867
v 0.024163 -0.261436 -0.524616
v 0.165516 -0.197243 -0.527474
v 0.248937 -0.156784 -0.519979
v 0.332405 -0.116494 -0.512122
v 0.561639 -0.121271 -0.239996
v 0.705443 -0.117032 0.090234
v 0.643004 -0.139458 0.351665
v -0.031336 0.056258 -0.633383
v -0.093909 0.218917 -0.575992
v -0.148020 0.316244 -0.534664
v -0.082897 0.476021 -0.241440
v 0.001682 0.502791 0.147392
v -0.086348 0.459122 0.378168
v -0.193213 0.344973 0.573308
v -0.151160 0.211908 0.633949
v -0.136227 0.028105 0.656828
v -0.087996 -0.126431 0.656167
v -0.019982 -0.215113 0.647548
v 0.047168 -0.301381 0.623066
v 0.155561 -0.409250 0.351932
v 0.202766 -0.442451 0.169981
v 0.203941 -0.416322 -0.142646
v 0.158949 -0.313490 -0.411523
v 0.088793 -0.235587 -0.528927
v 0.010759 -0.139422 -0.630955
v -0.299455 0.157892 -0.567618
v -0.204724 0.016505 -0.620349
v -0.161697 -0.179273 -0.611314
v -0.057271 -0.294382 -0.514850
v 0.045808 -0.386008 -0.398835
v 0.020470 -0.481541 -0.087491
v -0.009481 -0.488774 0.215773
v -0.025228 -0.441759 0.385649
v -0.047709 -0.338347 0.610874
v -0.167882 -0.266199 0.641286
v -0.285642 -0.183655 0.644951
v -0.326590 -0.014731 0.651432
v -0.344284 0.141367 0.633593
v -0.393916 0.278421 0.582005
v -0.422884 0.378816 0.369347
v -0.423186 0.414203 0.169414
v -0.425479 0.376611 -0.194987
v -0.365016 0.240703 -0.500851
v 0.648544 0.032482 -0.080283
v 0.600503 0.223839 -0.072137
v 0.468619 0.412755 -0.041814
v 0.351678 0.451362 -0.042840
v 0.268205 0.454476 -0.035181
v 0.218714 0.503496 -0.022525
v -0.036490 0.494541 -0.025123
v -0.210022 0.463862 -0.013492
v -0.425098 0.399712 0.007532
v -0.599039 0.316911 0.022915
v -0.716823 0.133075 0.025313
v -0.694071 -0.035062 0.036903
v -0.588062 -0.218232 0.021300
v -0.119113 -0.503496 0.066085
v 0.003066 -0.488870 0.060899
v 0.113971 -0.464115 0.038912
v 0.214176 -0.433783 0.009253
v 0.323108 -0.368607 -0.020878
v 0.453590 -0.281028 -0.033100
v 0.581577 -0.208857 -0.050419
v 0.665161 -0.126383 -0.084147
v 0.120920 0.353619 -0.423781
v 0.222425 0.345513 -0.431713
v 0.342641 0.292432 -0.430024
v 0.399042 0.144890 -0.423726
v 0.427865 -0.048221 -0.434537
v 0.459085 -0.121634 -0.392589
v 0.450921 -0.195651 -0.323339
v 0.352648 -0.252042 -0.311779
v 0.257286 -0.313739 -0.302773
v 0.185829 -0.369958 -0.288497
v 0.128903 -0.416979 -0.278516
v 0.042108 -0.463514 -0.257733
v -0.054097 -0.481183 -0.254218
v -0.432486 -0.240201 -0.439177
v -0.491814 -0.033662 -0.455797
v -0.544798 0.133038 -0.413388
v -0.527942 0.266684 -0.342483
v -0.406395 0.324355 -0.368989
v -0.269708 0.396624 -0.408651
v -0.116287 0.427936 -0.411897
v 0.077188 0.425357 -0.391531
v 0.426497 0.344684 0.524753
v 0.251453 0.391919 0.533131
v 0.085911 0.366865 0.514341
v -0.006071 0.431122 0.492349
v -0.153313 0.407214 0.499774
v -0.268592 0.376126 0.502076
v -0.410612 0.333281 0.502196
v -0.526822 0.270741 0.489145
v -0.542137 0.118303 0.564847
v -0.517159 -0.048645 0.580799
v -0.471983 -0.235247 0.555165
v -0.098889 -0.398607 0.529330
v -0.038187 -0.384936 0.526647
v 0.033257 -0.367400 0.522964
v 0.090976 -0.352893 0.519474
v 0.161885 -0.335763 0.514500
v 0.314012 -0.294323 0.518383
v 0.471139 -0.244876 0.526616
v 0.547257 -0.146428 0.543129
v 0.586654 0.012225 0.539083
v 0.546927 0.199344 0.526882
v -0.192837 -0.457306 -0.312300
v -0.337335 -0.366025 -0.368607
v -0.452228 -0.372331 -0.162740
v -0.470237 -0.333240 0.027704
v -0.465377 -0.320774 0.209765
v -0.446505 -0.320706 0.373965
v -0.388871 -0.325837 0.517901
v -0.256272 -0.399966 0.520620
v -0.259034 -0.449376 0.383215
v -0.271341 -0.468621 0.231873
v -0.260529 -0.487778 0.068394
v -0.224762 -0.499749 -0.115867
v -0.346400 -0.378932 0.465698
v -0.364120 -0.386684 0.359859
v -0.372200 -0.397150 0.214525
v -0.369425 -0.417099 0.049892
v -0.353966 -0.442905 -0.123808
v -0.317505 -0.446837 -0.281129
vt 0.121941 0.447003
vt 0.147582 0.456052
vt 0.179389 0.550488
vt 0.111109 0.524180
vt 0.077220 0.523064
vt 0.093091 0.437468
vt 0.169947 0.334890
vt 0.208750 0.344836
vt 0.174803 0.580056
vt 0.099122 0.547699
vt 0.152332 0.323624
vt 0.173285 0.316755
vt 0.209017 0.317177
vt 0.269713 0.322182
vt 0.283671 0.353512
vt 0.212137 0.359681
vt 0.155740 0.454861
vt 0.188142 0.530495
vt 0.258311 0.548220
vt 0.244283 0.572214
vt 0.237883 0.595467
vt 0.042477 0.517071
vt 0.063102 0.425817
vt 0.126530 0.307215
vt 0.211046 0.288264
vt 0.268487 0.288886
vt 0.293267 0.377708
vt 0.271538 0.483447
vt 0.298947 0.492507
vt 0.283633 0.568562
vt 0.316453 0.499109
vt 0.313147 0.574438
vt 0.313319 0.363723
vt 0.346741 0.353967
vt 0.164194 0.601382
vt 0.091860 0.576364
vt 0.229036 0.623274
vt 0.148808 0.628348
vt 0.105226 0.610364
vt 0.180124 0.644268
vt 0.347529 0.500736
vt 0.350950 0.572929
vt 0.383803 0.365702
vt 0.240057 0.233192
vt 0.494810 0.409417
vt 0.179352 0.288124
vt 0.027649 0.406360
vt 0.092065 0.314831
vt 0.169662 0.258210
vt 0.005847 0.520413
vt 0.450936 0.585389
vt 0.497358 0.507389
vt 0.557365 0.501606
vt 0.496891 0.590065
vt 0.426752 0.512592
vt 0.416235 0.574667
vt 0.168807 0.398693
vt 0.137430 0.388709
vt 0.110237 0.377335
vt 0.086599 0.364235
vt 0.052231 0.349993
vt 0.540324 0.451383
vt 0.500063 0.452904
vt 0.437819 0.461415
vt 0.360207 0.439887
vt 0.331015 0.434584
vt 0.305773 0.431409
vt 0.279513 0.433220
vt 0.177009 0.405108
vt 0.113088 0.476087
vt 0.149959 0.489875
vt 0.166987 0.494967
vt 0.265421 0.510280
vt 0.292218 0.523051
vt 0.315562 0.530714
vt 0.347498 0.529700
vt 0.422219 0.539204
vt 0.483901 0.538545
vt 0.010528 0.458245
vt 0.539690 0.545817
vt 0.050218 0.463622
vt 0.084277 0.468773
vt 0.239439 0.318899
vt 0.246043 0.346117
vt 0.251204 0.365708
vt 0.232196 0.413631
vt 0.213665 0.470259
vt 0.215029 0.505382
vt 0.219666 0.541205
vt 0.211212 0.562908
vt 0.206433 0.588596
vt 0.196578 0.612762
vt 0.164206 0.637000
vt 0.434153 0.580347
vt 0.452271 0.538405
vt 0.461538 0.510168
vt 0.469865 0.460066
vt 0.472278 0.409889
vt 0.239515 0.288038
vt 0.138005 0.452972
vt 0.135557 0.483840
vt 0.146262 0.538820
vt 0.134598 0.565470
vt 0.126574 0.589959
vt 0.126490 0.619655
vt 0.474231 0.587835
vt 0.508633 0.541579
vt 0.524638 0.504706
vt 0.521624 0.453321
vt 0.509755 0.408191
vt 0.195136 0.287880
vt 0.190976 0.316531
vt 0.190167 0.339486
vt 0.155735 0.394342
vt 0.097674 0.593810
vt 0.023443 0.519150
vt 0.126579 0.604875
vt 0.156457 0.614815
vt 0.180243 0.624916
vt 0.205935 0.636470
vt 0.255121 0.259597
vt 0.229064 0.263383
vt 0.204001 0.267527
vt 0.189095 0.270160
vt 0.109133 0.310315
vt 0.174622 0.272862
vt 0.068351 0.356968
vt 0.040163 0.413518
vt 0.026222 0.458915
vt 0.225815 0.317942
vt 0.229378 0.344847
vt 0.233769 0.361755
vt 0.211679 0.407876
vt 0.187919 0.463641
vt 0.193402 0.500955
vt 0.205096 0.536826
vt 0.196792 0.557807
vt 0.192235 0.585069
vt 0.182084 0.607884
vt 0.169587 0.620550
vt 0.157266 0.633289
vt 0.441722 0.582714
vt 0.466492 0.537708
vt 0.477536 0.508128
vt 0.483387 0.456712
vt 0.482520 0.409661
vt 0.217818 0.264978
vt 0.226761 0.287951
vt 0.266404 0.349514
vt 0.256076 0.320542
vt 0.255153 0.288428
vt 0.243158 0.261277
vt 0.459182 0.410245
vt 0.454239 0.463541
vt 0.444730 0.511797
vt 0.437343 0.539349
vt 0.172861 0.641071
vt 0.424707 0.577205
vt 0.193699 0.630321
vt 0.214344 0.618559
vt 0.223713 0.592390
vt 0.229369 0.568173
vt 0.238965 0.545437
vt 0.242230 0.509348
vt 0.244570 0.478355
vt 0.258755 0.423265
vt 0.272667 0.370521
vt 0.073023 0.394002
vt 0.099187 0.405949
vt 0.128516 0.420967
vt 0.144959 0.424362
vt 0.155950 0.427584
vt 0.164475 0.432361
vt 0.198464 0.438859
vt 0.221497 0.444997
vt 0.250180 0.453884
vt 0.274447 0.461102
vt 0.302246 0.466404
vt 0.324389 0.471087
vt 0.353123 0.472365
vt 0.432253 0.486539
vt 0.450001 0.487324
vt 0.466842 0.485345
vt 0.482688 0.481996
vt 0.502067 0.478519
vt 0.526013 0.478595
vt 0.035168 0.376844
vt 0.549055 0.478479
vt 0.051526 0.385059
vt 0.186960 0.368443
vt 0.171501 0.364941
vt 0.151585 0.360437
vt 0.129987 0.348862
vt 0.104251 0.331716
vt 0.088682 0.332004
vt 0.071342 0.331100
vt 0.533535 0.428154
vt 0.515601 0.429016
vt 0.497573 0.429564
vt 0.483411 0.431514
vt 0.472091 0.433129
vt 0.457281 0.435807
vt 0.442867 0.435485
vt 0.370014 0.401195
vt 0.335788 0.390862
vt 0.306584 0.395758
vt 0.285295 0.404785
vt 0.267448 0.395637
vt 0.245118 0.387572
vt 0.222336 0.383430
vt 0.194046 0.380016
vt 0.109731 0.508061
vt 0.136894 0.515665
vt 0.162379 0.521909
vt 0.178836 0.516004
vt 0.200277 0.522035
vt 0.217868 0.526568
vt 0.240699 0.530892
vt 0.261373 0.532370
vt 0.284840 0.549288
vt 0.314512 0.556978
vt 0.348644 0.554423
vt 0.419470 0.560989
vt 0.429659 0.562766
vt 0.441888 0.564301
vt 0.451731 0.565270
vt 0.463744 0.566090
vt 0.489007 0.569652
vt 0.004236 0.496745
vt 0.515188 0.573904
vt 0.023243 0.494608
vt 0.048210 0.495484
vt 0.078796 0.500513
vt 0.418032 0.384577
vt 0.447800 0.410947
vt 0.421436 0.424959
vt 0.394718 0.413859
vt 0.383063 0.446887
vt 0.375808 0.475761
vt 0.371708 0.503509
vt 0.368547 0.528729
vt 0.369824 0.552096
vt 0.384000 0.576107
vt 0.394590 0.555017
vt 0.402094 0.533266
vt 0.405896 0.509972
vt 0.411945 0.485116
vt 0.419311 0.456963
vt 0.382400 0.544568
vt 0.384489 0.528143
vt 0.388576 0.505919
vt 0.393760 0.480786
vt 0.399480 0.454474
vt 0.404092 0.430843
vt 0.230164 0.235718
vt 0.208912 0.242221
vt 0.218423 0.239187
vt 0.183197 0.252252
vt 0.197275 0.246293
vt 0.524309 0.406468
vn 0.448139 0.721639 0.527645
vn 0.043882 0.872929 0.485870
vn -0.019212 0.413017 0.910521
vn 0.237843 0.409880 0.880584
vn 0.712866 0.373152 0.593784
vn 0.322048 0.176872 0.930054
vn 0.124745 0.582646 -0.803096
vn 0.158909 0.828116 -0.537561
vn 0.605440 0.512578 -0.608857
vn 0.447829 0.451875 -0.771530
vn 0.772786 0.206376 -0.600176
vn 0.592270 0.163153 -0.789048
vn 0.059999 0.095933 0.993578
vn 0.202212 0.149651 -0.967840
vn 0.058820 0.167277 -0.984154
vn -0.051771 0.147738 -0.987671
vn -0.074702 0.349156 -0.934082
vn 0.068726 0.497242 -0.864886
vn 0.214348 0.860589 -0.461997
vn 0.235030 0.772437 -0.590002
vn 0.144038 0.662985 -0.734645
vn 0.041639 0.776104 0.629229
vn 0.102112 0.812306 0.574223
vn 0.064415 0.599945 0.797444
vn -0.015676 0.321264 0.946860
vn -0.109597 0.575251 0.810602
vn -0.035240 0.259366 0.965136
vn -0.014705 0.066625 0.997670
vn -0.006809 0.077303 0.996984
vn 0.785546 0.016910 0.618572
vn 0.368020 0.006661 0.929794
vn 0.774497 0.080066 -0.627490
vn 0.592479 -0.040629 -0.804561
vn 0.065115 -0.296298 -0.952873
vn 0.188357 -0.261465 -0.946656
vn -0.100130 0.632629 -0.767955
vn -0.079499 0.899067 -0.430534
vn -0.171111 0.897642 0.406153
vn -0.661706 0.579100 0.476224
vn -0.741774 0.143401 0.655140
vn -0.361042 0.145028 0.921203
vn -0.467678 0.415414 0.780197
vn -0.805524 0.064769 -0.589012
vn -0.659843 0.603029 -0.448289
vn -0.579622 0.488867 -0.651957
vn -0.551417 0.080480 -0.830338
vn -0.706639 -0.171254 0.686538
vn -0.357506 -0.073111 0.931045
vn -0.725257 -0.200636 -0.658595
vn -0.465862 -0.102979 -0.878845
vn 0.076671 -0.009251 0.997014
vn 0.001586 -0.035201 0.999379
vn 0.019244 -0.034821 0.999208
vn 0.331945 -0.211559 0.919269
vn 0.071093 -0.138586 0.987795
vn 0.169287 -0.583280 0.794434
vn 0.253371 -0.553065 0.793676
vn 0.050565 -0.140956 0.988724
vn 0.040535 -0.144273 0.988707
vn 0.182517 -0.562262 0.806566
vn 0.168935 -0.541160 0.823776
vn -0.645095 -0.476216 0.597554
vn -0.359654 -0.351264 0.864444
vn -0.616105 -0.476833 -0.626933
vn -0.393041 -0.434960 -0.810141
vn 0.415097 -0.713063 -0.565010
vn 0.266713 -0.656078 -0.705993
vn 0.338356 -0.646140 -0.684119
vn 0.429445 -0.719552 -0.545731
vn 0.314016 -0.228541 -0.921501
vn 0.559751 -0.430247 -0.708214
vn 0.777782 -0.217221 -0.589805
vn 0.566770 -0.701955 -0.431313
vn 0.489907 -0.662400 -0.566761
vn 0.368918 -0.634727 -0.678986
vn 0.411309 -0.735629 -0.538214
vn 0.486678 -0.733388 0.474644
vn 0.724246 -0.370257 0.581703
vn 0.278461 -0.851163 0.444951
vn 0.455451 -0.805016 -0.380150
vn 0.494694 -0.780608 -0.382005
vn 0.500608 -0.784508 -0.365977
vn 0.250105 -0.862664 0.439612
vn 0.236244 -0.856123 0.459612
vn 0.637182 0.737947 -0.222339
vn 0.220960 0.969082 -0.109805
vn 0.196405 0.980113 0.028353
vn 0.565679 0.823806 -0.036752
vn 0.849142 0.522772 -0.075287
vn 0.831537 0.428121 -0.353918
vn 0.989613 0.129163 -0.063118
vn 0.889364 0.173150 -0.423144
vn 0.572551 -0.786525 -0.231437
vn 0.882586 -0.245659 -0.400866
vn 0.950870 -0.307464 -0.036217
vn 0.656326 -0.753435 -0.039643
vn 0.518761 -0.853496 -0.049302
vn 0.501892 -0.844141 -0.188496
vn 0.302425 -0.949054 0.088526
vn 0.385555 -0.917342 -0.099151
vn 0.498896 -0.848536 -0.176322
vn 0.425957 -0.904724 0.005954
vn -0.825363 -0.558467 0.083005
vn -0.951030 -0.272035 0.146758
vn -0.954208 -0.294205 -0.054136
vn -0.825005 -0.565111 0.004160
vn -0.959621 0.235211 0.154286
vn -0.972633 0.217958 -0.080498
vn -0.714956 0.691503 0.103255
vn -0.701999 0.709613 -0.060396
vn 0.155543 0.983659 -0.090674
vn -0.080930 0.994897 -0.060252
vn -0.066499 0.995797 0.062979
vn 0.189915 0.978031 0.085951
vn 0.266315 0.958009 0.106282
vn 0.306500 0.941181 -0.142251
vn 0.148587 0.965997 0.211594
vn 0.532166 0.815870 0.226178
vn 0.113713 0.951410 0.286163
vn 0.142118 0.941215 0.306460
vn -0.115437 0.974511 0.192359
vn -0.900830 0.205174 0.382635
vn -0.701451 0.663327 0.260700
vn -0.888757 -0.234845 0.393648
vn -0.796081 -0.536904 0.279266
vn 0.256596 -0.918454 0.300998
vn 0.309388 -0.913892 0.262832
vn 0.632909 -0.755787 0.167964
vn 0.439849 -0.879535 0.181527
vn 0.879865 -0.384859 0.278786
vn 0.834158 0.482761 0.266689
vn 0.950953 0.028984 0.307974
vn -0.199688 0.342128 -0.918190
vn -0.128235 0.087729 -0.987856
vn -0.386323 0.601152 -0.699551
vn -0.436944 0.807752 -0.395749
vn -0.359197 0.931043 0.064311
vn -0.359831 0.930516 -0.068272
vn -0.362118 0.906061 0.218916
vn -0.243216 0.523855 0.816347
vn -0.355479 0.837190 0.415630
vn -0.118348 0.212218 0.970029
vn -0.086271 0.014229 0.996170
vn -0.099240 -0.122258 0.987524
vn -0.040737 -0.687511 0.725030
vn 0.102793 -0.601430 0.792285
vn -0.053684 -0.255597 0.965292
vn -0.225664 -0.570890 0.789405
vn 0.009477 -0.869671 0.493540
vn 0.224758 -0.880468 0.417445
vn -0.030673 -0.990132 0.136737
vn 0.170060 -0.975066 0.142565
vn 0.201960 -0.928561 0.311425
vn 0.011790 -0.953188 0.302147
vn -0.008959 -0.999727 0.021595
vn 0.162040 -0.986781 -0.002521
vn 0.243756 -0.770844 -0.588542
vn 0.260151 -0.933734 -0.245893
vn 0.047066 -0.949876 -0.309063
vn 0.056224 -0.824907 -0.562466
vn -0.154877 -0.727212 -0.668712
vn 0.095486 -0.666647 -0.739233
vn -0.058864 -0.344056 -0.937102
vn -0.104834 0.111283 -0.988244
vn -0.160747 0.314452 -0.935564
vn -0.302867 0.586775 -0.750977
vn -0.346384 0.845697 -0.405974
vn -0.244109 0.967483 -0.066244
vn -0.210175 0.975625 0.063110
vn -0.223877 0.951533 0.210868
vn -0.241690 0.881171 0.406354
vn -0.162854 0.554212 0.816289
vn -0.074107 0.230338 0.970285
vn -0.043278 0.044615 0.998066
vn -0.033895 -0.055919 0.997860
vn 0.007565 -0.190886 0.981583
vn 0.150023 -0.591175 0.792468
vn 0.240708 -0.873375 0.423409
vn 0.238220 -0.918190 0.316510
vn 0.237642 -0.961921 0.135034
vn 0.251289 -0.967589 -0.025020
vn 0.410521 -0.852919 -0.322493
vn 0.350184 -0.728325 -0.588994
vn 0.186905 -0.652238 -0.734610
vn 0.000293 -0.316787 -0.948497
vn 0.829262 0.143765 -0.540052
vn 0.817655 0.294955 -0.494410
vn 0.668725 0.600402 -0.438548
vn 0.208678 0.919472 -0.333205
vn 0.266194 0.898062 -0.350181
vn 0.187961 0.953026 -0.237512
vn -0.084570 0.982100 -0.168311
vn -0.288162 0.947811 -0.136446
vn -0.384087 0.908171 -0.166441
vn -0.695877 0.683052 -0.221800
vn -0.926512 0.162607 -0.339316
vn -0.905171 -0.251810 -0.342429
vn -0.803527 -0.526277 -0.278167
vn 0.035295 -0.996939 -0.069756
vn 0.200561 -0.977950 -0.058211
vn 0.329716 -0.937080 -0.114754
vn 0.474063 -0.855953 -0.206419
vn 0.516832 -0.814800 -0.262649
vn 0.483878 -0.836315 -0.257759
vn 0.566094 -0.758042 -0.323897
vn 0.822645 -0.230023 -0.519946
vn -0.129025 -0.879697 -0.457696
vn -0.418102 -0.728724 -0.542359
vn -0.653468 -0.740817 -0.155464
vn -0.662809 -0.746213 0.062058
vn -0.631760 -0.773546 0.050061
vn -0.604482 -0.783940 0.141563
vn -0.489099 -0.716720 0.497086
vn -0.228086 -0.831577 0.506414
vn -0.276133 -0.930208 0.241795
vn -0.358274 -0.926477 0.115242
vn -0.324916 -0.944711 0.044166
vn -0.201693 -0.976399 -0.077234
vn -0.501681 -0.787963 0.356974
vn -0.575860 -0.804813 0.143744
vn -0.600649 -0.794889 0.085863
vn -0.518142 -0.852874 -0.064303
vn -0.396170 -0.841696 -0.366875
vn -0.578794 -0.813014 0.063287
s 1
g Rock1_XL_LOW Rocks_Group
f 186/212/1 187/213/2 83/102/3 4/4/4
f 206/233/5 186/212/1 4/4/4 5/5/6
f 93/113/7 166/191/8 167/192/9 7/7/10
f 167/192/9 168/193/11 10/11/12 7/7/10
f 83/102/3 84/103/13 5/10/6 4/4/4
f 92/112/14 93/113/7 7/7/10 10/12/12
f 11/13/15 108/130/16 109/131/17 8/8/18
f 185/211/19 165/190/20 8/8/18 14/16/21
f 188/214/22 189/215/23 16/18/24 3/3/25
f 16/18/24 114/136/26 115/137/27 3/3/25
f 3/3/25 115/137/27 116/138/28 9/9/29
f 205/232/30 206/233/5 5/5/6 21/22/31
f 168/193/11 169/194/32 22/24/33 10/11/12
f 125/148/34 108/130/16 11/13/15 23/25/35
f 109/131/17 110/132/36 14/16/21 8/8/18
f 110/132/36 184/210/37 185/211/19 14/16/21
f 189/215/23 190/216/38 114/136/26 16/18/24
f 193/219/39 194/220/40 18/30/41 17/19/42
f 180/206/43 181/207/44 25/27/45 13/33/46
f 194/220/40 195/221/47 19/32/48 18/30/41
f 179/205/49 180/206/43 13/33/46 12/34/50
f 84/103/13 85/104/51 21/36/31 5/10/6
f 116/138/28 117/139/52 29/35/53 9/9/29
f 95/115/54 96/117/55 86/105/56 31/39/57
f 97/118/58 118/140/59 119/141/60 32/38/61
f 195/221/47 196/222/62 30/42/63 19/32/48
f 178/204/64 179/205/49 12/34/50 24/43/65
f 123/256/66 124/147/67 102/123/68 36/259/69
f 91/111/70 92/112/14 10/12/12 22/46/33
f 104/125/71 170/195/72 171/196/73 39/48/74
f 103/124/75 104/126/71 39/49/74 90/258/76
f 203/229/77 204/231/78 95/116/54 31/50/57
f 86/106/56 202/228/79 203/230/77 31/54/57
f 39/260/74 171/197/73 172/198/80 90/110/76
f 36/45/69 173/199/81 174/200/82 123/146/66
f 119/142/60 200/226/83 201/227/84 32/51/61
f 146/170/85 147/171/86 81/100/87 1/1/88
f 1/1/88 6/6/89 145/169/90 146/170/85
f 6/6/89 20/23/91 144/168/92 145/169/90
f 163/187/93 164/189/94 106/128/95 38/47/96
f 88/108/97 162/186/98 163/188/93 38/53/96
f 121/144/99 160/184/100 161/185/101 40/52/102
f 34/41/103 28/31/104 155/179/105 156/180/106
f 28/31/104 27/29/107 154/178/108 155/179/105
f 27/29/107 26/28/109 153/177/110 154/178/108
f 149/173/111 150/174/112 112/134/113 15/17/114
f 15/17/114 2/2/115 148/172/116 149/173/111
f 1/1/88 81/100/87 82/101/117 53/70/118
f 2/2/115 15/17/114 55/72/119 54/71/120
f 15/17/114 112/134/113 113/135/121 55/72/119
f 26/28/109 27/29/107 57/74/122 56/73/123
f 27/29/107 28/31/104 58/75/124 57/74/122
f 28/31/104 34/41/103 59/76/125 58/75/124
f 120/143/126 121/144/99 40/52/102 61/78/127
f 62/80/128 87/107/129 88/108/97 38/53/96
f 106/128/95 107/129/130 62/79/128 38/47/96
f 20/23/91 6/6/89 64/82/131 63/81/132
f 6/6/89 1/1/88 53/70/118 64/82/131
f 126/149/133 127/150/134 12/14/50 13/15/46
f 25/27/45 143/167/135 126/149/133 13/15/46
f 181/207/44 182/208/136 143/167/135 25/27/45
f 26/28/109 141/165/137 152/176/138 153/177/110
f 140/164/139 141/165/137 26/28/109 56/73/123
f 139/163/140 192/218/141 193/219/39 17/19/42
f 138/162/142 139/163/140 17/19/42 18/20/41
f 137/161/143 138/162/142 18/20/41 19/21/48
f 30/37/63 136/160/144 137/161/143 19/21/48
f 33/40/145 134/157/146 135/159/147 99/120/148
f 197/223/149 198/224/150 134/158/146 33/56/145
f 35/55/151 132/155/152 133/156/153 60/77/154
f 157/181/155 158/182/156 132/155/152 35/55/151
f 130/153/157 176/202/158 177/203/159 37/235/160
f 37/44/160 100/121/161 129/152/162 130/255/157
f 12/14/50 127/150/134 128/151/163 24/26/65
f 82/101/117 81/100/87 2/2/115 54/71/120
f 83/102/3 187/213/2 188/214/22 3/3/25
f 9/9/29 84/103/13 83/102/3 3/3/25
f 29/35/53 85/104/51 84/103/13 9/9/29
f 32/38/61 86/105/56 96/117/55 97/118/58
f 32/51/61 201/227/84 202/228/79 86/106/56
f 88/108/97 87/107/129 61/78/127 40/52/102
f 161/185/101 162/186/98 88/108/97 40/52/102
f 90/110/76 172/198/80 173/199/81 36/45/69
f 102/123/68 103/124/75 90/258/76 36/259/69
f 23/25/35 11/13/15 92/112/14 91/111/70
f 8/8/18 93/113/7 92/112/14 11/13/15
f 165/190/20 166/191/8 93/113/7 8/8/18
f 2/2/115 81/100/87 147/171/86 148/172/116
f 85/104/51 96/117/55 95/115/54 21/36/31
f 97/118/58 96/117/55 85/104/51 29/35/53
f 117/139/52 118/140/59 97/118/58 29/35/53
f 99/120/148 135/159/147 136/160/144 30/37/63
f 128/151/163 129/152/162 100/121/161 24/26/65
f 102/123/68 124/147/67 125/148/34 23/25/35
f 91/111/70 103/124/75 102/123/68 23/25/35
f 22/46/33 104/126/71 103/124/75 91/111/70
f 22/24/33 169/194/32 170/195/72 104/125/71
f 106/128/95 164/189/94 144/168/92 20/23/91
f 20/23/91 63/81/132 107/129/130 106/128/95
f 95/116/54 204/231/78 205/232/30 21/22/31
f 109/131/17 108/130/16 65/83/164 66/84/165
f 66/84/165 67/85/166 110/132/36 109/131/17
f 67/85/166 183/209/167 184/210/37 110/132/36
f 150/174/112 151/175/168 69/87/169 112/134/113
f 113/135/121 112/134/113 69/87/169 70/88/170
f 114/136/26 190/216/38 191/217/171 71/89/172
f 115/137/27 114/136/26 71/89/172 72/90/173
f 116/138/28 115/137/27 72/90/173 73/91/174
f 73/91/174 74/92/175 117/139/52 116/138/28
f 74/92/175 98/119/176 118/140/59 117/139/52
f 119/141/60 118/140/59 98/119/176 75/93/177
f 75/94/177 199/225/178 200/226/83 119/142/60
f 76/95/179 77/96/180 121/144/99 120/143/126
f 77/96/180 159/183/181 160/184/100 121/144/99
f 123/146/66 174/200/82 175/201/182 79/98/183
f 79/257/183 101/122/184 124/147/67 123/256/66
f 125/148/34 124/147/67 101/122/184 80/99/185
f 80/99/185 65/83/164 108/130/16 125/148/34
f 66/84/165 65/83/164 127/150/134 126/149/133
f 128/151/163 127/150/134 65/83/164 80/99/185
f 101/122/184 129/152/162 128/151/163 80/99/185
f 130/255/157 129/152/162 101/122/184 79/257/183
f 79/98/183 175/201/182 176/202/158 130/153/157
f 132/155/152 158/182/156 159/183/181 77/96/180
f 133/156/153 132/155/152 77/96/180 76/95/179
f 134/158/146 198/224/150 199/225/178 75/94/177
f 135/159/147 134/157/146 75/93/177 98/119/176
f 136/160/144 135/159/147 98/119/176 74/92/175
f 137/161/143 136/160/144 74/92/175 73/91/174
f 73/91/174 72/90/173 138/162/142 137/161/143
f 72/90/173 71/89/172 139/163/140 138/162/142
f 71/89/172 191/217/171 192/218/141 139/163/140
f 70/88/170 69/87/169 141/165/137 140/164/139
f 151/175/168 152/176/138 141/165/137 69/87/169
f 143/167/135 182/208/136 183/209/167 67/85/166
f 126/149/133 143/167/135 67/85/166 66/84/165
f 145/169/90 144/168/92 44/60/186 43/59/187
f 146/170/85 145/169/90 43/59/187 42/58/188
f 94/114/189 147/171/86 146/170/85 42/58/188
f 148/172/116 147/171/86 94/114/189 41/57/190
f 149/173/111 148/172/116 41/57/190 52/69/191
f 111/133/192 150/174/112 149/173/111 52/69/191
f 68/86/193 151/175/168 150/174/112 111/133/192
f 142/166/194 152/176/138 151/175/168 68/86/193
f 153/177/110 152/176/138 142/166/194 51/68/195
f 154/178/108 153/177/110 51/68/195 50/67/196
f 155/179/105 154/178/108 50/67/196 49/66/197
f 156/180/106 155/179/105 49/66/197 48/65/198
f 47/64/199 131/154/200 158/182/156 157/181/155
f 159/183/181 158/182/156 131/154/200 78/97/201
f 160/184/100 159/183/181 78/97/201 122/145/202
f 161/185/101 160/184/100 122/145/202 46/63/203
f 46/63/203 89/109/204 162/186/98 161/185/101
f 163/188/93 162/186/98 89/109/204 45/62/205
f 45/61/205 105/127/206 164/189/94 163/187/93
f 144/168/92 164/189/94 105/127/206 44/60/186
f 41/57/190 94/114/189 166/191/8 165/190/20
f 167/192/9 166/191/8 94/114/189 42/58/188
f 42/58/188 43/59/187 168/193/11 167/192/9
f 43/59/187 44/60/186 169/194/32 168/193/11
f 170/195/72 169/194/32 44/60/186 105/127/206
f 171/196/73 170/195/72 105/127/206 45/61/205
f 172/198/80 171/197/73 45/62/205 89/109/204
f 173/199/81 172/198/80 89/109/204 46/63/203
f 174/200/82 173/199/81 46/63/203 122/145/202
f 175/201/182 174/200/82 122/145/202 78/97/201
f 176/202/158 175/201/182 78/97/201 131/154/200
f 177/203/159 176/202/158 131/154/200 47/64/199
f 48/65/198 49/66/197 179/205/49 178/204/64
f 49/66/197 50/67/196 180/206/43 179/205/49
f 50/67/196 51/68/195 181/207/44 180/206/43
f 51/68/195 142/166/194 182/208/136 181/207/44
f 183/209/167 182/208/136 142/166/194 68/86/193
f 184/210/37 183/209/167 68/86/193 111/133/192
f 185/211/19 184/210/37 111/133/192 52/69/191
f 52/69/191 41/57/190 165/190/20 185/211/19
f 53/70/118 82/101/117 187/213/2 186/212/1
f 188/214/22 187/213/2 82/101/117 54/71/120
f 54/71/120 55/72/119 189/215/23 188/214/22
f 55/72/119 113/135/121 190/216/38 189/215/23
f 191/217/171 190/216/38 113/135/121 70/88/170
f 192/218/141 191/217/171 70/88/170 140/164/139
f 193/219/39 192/218/141 140/164/139 56/73/123
f 56/73/123 57/74/122 194/220/40 193/219/39
f 57/74/122 58/75/124 195/221/47 194/220/40
f 58/75/124 59/76/125 196/222/62 195/221/47
f 60/77/154 133/156/153 198/224/150 197/223/149
f 199/225/178 198/224/150 133/156/153 76/95/179
f 200/226/83 199/225/178 76/95/179 120/143/126
f 201/227/84 200/226/83 120/143/126 61/78/127
f 202/228/79 201/227/84 61/78/127 87/107/129
f 203/230/77 202/228/79 87/107/129 62/80/128
f 62/79/128 107/129/130 204/231/78 203/229/77
f 205/232/30 204/231/78 107/129/130 63/81/132
f 63/81/132 64/82/131 206/233/5 205/232/30
f 64/82/131 53/70/118 186/212/1 206/233/5
f 100/234/161 37/235/160 177/203/159 207/236/207
f 178/204/64 24/43/65 100/234/161 208/237/208
f 48/65/198 178/204/64 208/237/208 209/238/209
f 209/238/209 210/239/210 156/180/106 48/65/198
f 156/180/106 210/239/210 211/240/211 34/41/103
f 34/41/103 211/240/211 212/241/212 59/76/125
f 196/222/62 213/242/213 99/243/148 30/42/63
f 59/76/125 212/241/212 213/242/213 196/222/62
f 33/56/145 99/243/148 214/244/214 197/223/149
f 197/223/149 214/244/214 215/245/215 60/77/154
f 216/246/216 35/55/151 60/77/154 215/245/215
f 216/246/216 217/247/217 157/181/155 35/55/151
f 47/64/199 157/181/155 217/247/217 218/248/218
f 218/248/218 207/236/207 177/203/159 47/64/199
f 215/245/215 214/244/214 219/249/219 220/250/220
f 220/250/220 221/251/221 216/246/216 215/245/215
f 207/236/207 218/248/218 223/253/222 224/254/223
f 217/247/217 222/252/224 223/253/222 218/248/218
f 216/246/216 221/251/221 222/252/224 217/247/217
f 220/250/220 219/249/219 213/242/213 212/241/212
f 211/240/211 221/251/221 220/250/220 212/241/212
f 222/252/224 221/251/221 211/240/211 210/239/210
f 223/253/222 222/252/224 210/239/210 209/238/209
f 224/254/223 223/253/222 209/238/209 208/237/208
f 224/254/223 208/237/208 100/234/161 207/236/207
f 219/249/219 214/244/214 99/243/148 213/242/213
