# This file uses centimeters as units for non-parametric coordinates.

g default
v 0.009581 0.157247 0.484819
v -0.011683 0.423568 -0.000085
v -0.464737 0.129598 0.012634
v -0.318674 0.231948 0.288289
v -0.318173 0.146017 -0.318170
v 0.014533 0.034509 -0.415171
v 0.443231 0.019562 -0.002946
v 0.306159 0.050463 -0.354271
v 0.282367 0.168942 0.385956
v -0.013150 0.001132 0.011411
v 0.414262 -0.100846 0.002715
v 0.296405 0.043953 0.370801
v 0.006915 0.028690 0.465907
v 0.008784 -0.097994 -0.400201
v 0.290130 -0.110093 -0.331602
v -0.313609 0.024604 -0.301513
v -0.452368 0.023958 0.010148
v -0.286454 0.120141 0.290484
v 0.003348 0.347794 0.263701
v -0.412454 0.188807 0.141718
v -0.383430 0.052374 0.149763
v -0.002613 -0.002390 0.233871
v 0.382914 -0.071209 0.208076
v 0.403251 0.082291 0.182076
v -0.427019 0.154555 -0.169421
v -0.000727 0.265084 -0.262726
v 0.408944 0.060002 -0.187445
v 0.376738 -0.107893 -0.168491
v -0.013504 -0.039530 -0.193355
v -0.383530 0.019127 -0.152788
v -0.006322 0.374101 -0.134949
v -0.454367 0.142129 -0.060481
v -0.434215 0.014128 -0.057536
v -0.013076 -0.011149 -0.091970
v 0.400280 -0.103776 -0.069668
v 0.430889 0.036494 -0.076675
v -0.379917 0.163679 -0.266833
v 0.006759 0.143876 -0.344033
v 0.364092 0.066513 -0.293788
v 0.333399 -0.116396 -0.258271
v -0.008102 -0.080879 -0.289094
v -0.341210 0.026133 -0.236365
v -0.442034 0.165398 0.075867
v -0.006834 0.415966 0.144733
v 0.430460 0.040636 0.099793
v 0.404009 -0.099105 0.111778
v -0.006189 0.008032 0.119376
v -0.427519 0.023461 0.089896
v 0.001512 0.250684 0.359768
v -0.368793 0.216932 0.215106
v -0.332190 0.094934 0.212838
v 0.013137 -0.028322 0.384424
v 0.336209 -0.021391 0.297937
v 0.369938 0.135197 0.287204
v 0.228694 0.298672 -0.001618
v 0.223346 0.274613 -0.124026
v 0.198902 0.211226 -0.253262
v 0.169533 0.121180 -0.344454
v 0.141069 0.042524 -0.407967
v 0.131361 -0.109363 -0.388546
v 0.137932 -0.105545 -0.289577
v 0.158180 -0.069160 -0.191881
v 0.170153 -0.050229 -0.085555
v 0.173028 -0.045035 0.016127
v 0.173453 -0.031182 0.116857
v 0.168581 -0.007679 0.221347
v 0.159913 0.007435 0.343467
v 0.151680 0.029974 0.432748
v 0.143279 0.158007 0.451901
v 0.168553 0.242268 0.344621
v 0.202774 0.284465 0.232640
v 0.222059 0.300695 0.121519
v 0.216951 0.045568 -0.391079
v 0.261216 0.104782 -0.334018
v 0.319635 0.157312 -0.231280
v 0.344997 0.175978 -0.107086
v 0.348525 0.188726 -0.002003
v 0.333557 0.194861 0.110935
v 0.299388 0.211221 0.208080
v 0.261226 0.221272 0.316705
v 0.206211 0.161019 0.423708
v 0.221265 0.048726 0.392955
v 0.240632 0.020269 0.322312
v 0.299083 -0.058604 0.218708
v 0.311551 -0.093293 0.126671
v 0.316559 -0.112483 0.017206
v 0.305556 -0.115802 -0.068174
v 0.272689 -0.118578 -0.175544
v 0.245732 -0.130707 -0.269701
v 0.204820 -0.112334 -0.371611
v 0.109963 0.372949 0.002250
v 0.109044 0.336073 -0.130658
v 0.097085 0.239445 -0.250347
v 0.083746 0.132698 -0.342614
v 0.071593 0.035562 -0.414033
v 0.062268 -0.102327 -0.399664
v 0.063710 -0.089232 -0.292960
v 0.073180 -0.044585 -0.195933
v 0.078739 -0.020363 -0.091083
v 0.079676 -0.014854 0.014174
v 0.082401 -0.005998 0.120639
v 0.083955 -0.004317 0.232931
v 0.089360 -0.014808 0.369999
v 0.085971 0.025823 0.455766
v 0.080332 0.158006 0.474415
v 0.087722 0.243818 0.359462
v 0.099783 0.323785 0.250060
v 0.109918 0.366903 0.133168
v -0.291309 0.350147 0.002392
v -0.267199 0.364598 0.120246
v -0.235842 0.325056 0.238158
v -0.184116 0.274153 0.323183
v -0.161512 0.216584 0.418210
v -0.165346 0.039389 0.440762
v -0.140054 -0.025868 0.372678
v -0.178205 0.032150 0.215629
v -0.204966 0.011715 0.110809
v -0.214904 -0.006851 0.014926
v -0.212581 -0.009598 -0.080024
v -0.197817 -0.022417 -0.173459
v -0.190016 -0.051625 -0.262039
v -0.199318 -0.078749 -0.363122
v -0.168605 0.073050 -0.384978
v -0.191768 0.162523 -0.320942
v -0.228700 0.250813 -0.245626
v -0.275488 0.326939 -0.126301
v -0.158859 0.430014 -0.005228
v -0.143178 0.417045 0.147690
v -0.105404 0.353533 0.256772
v -0.078278 0.268083 0.342218
v -0.073090 0.186292 0.466152
v -0.075075 0.032278 0.465153
v -0.077543 -0.031011 0.387749
v -0.089768 0.009125 0.230442
v -0.100250 0.018025 0.118396
v -0.109962 0.009097 0.011947
v -0.109410 -0.005248 -0.087875
v -0.103018 -0.034901 -0.184567
v -0.093656 -0.074124 -0.276012
v -0.074986 -0.096243 -0.389602
v -0.066751 0.037676 -0.412812
v -0.084148 0.152455 -0.339745
v -0.116473 0.269806 -0.263162
v -0.140286 0.378112 -0.141776
v -0.245501 0.230694 0.361293
v -0.285612 0.270763 0.284889
v -0.334861 0.276429 0.192952
v -0.362415 0.261490 0.100217
v -0.385481 0.236036 0.008270
v -0.375140 0.244416 -0.088667
v -0.334136 0.224582 -0.231299
v -0.281134 0.171652 -0.307388
v -0.246410 0.106022 -0.357983
v -0.255282 -0.032011 -0.332264
v -0.264714 -0.015127 -0.249108
v -0.291017 -0.008733 -0.161594
v -0.321971 -0.026140 -0.073463
v -0.328688 -0.041963 0.019081
v -0.317711 0.001357 0.107425
v -0.283129 0.041790 0.164305
v -0.235883 0.074504 0.266729
v -0.234970 0.071280 0.372528
v -0.326437 0.050609 -0.319282
v -0.270952 0.012249 -0.366420
v -0.200747 -0.030004 -0.404254
v -0.073219 -0.061184 -0.428687
v 0.007671 -0.068513 -0.429776
v 0.065453 -0.067052 -0.429986
v 0.140085 -0.073825 -0.421051
v 0.222298 -0.067319 -0.400346
v 0.309874 -0.062346 -0.366890
v 0.368780 -0.082434 -0.286421
v 0.405943 -0.086103 -0.181950
v 0.432686 -0.079272 -0.075990
v 0.448013 -0.069720 -0.003994
v 0.437790 -0.076159 0.102735
v 0.410716 -0.052706 0.210884
v 0.375975 0.011268 0.314476
v 0.298105 0.082779 0.395188
v 0.221251 0.082722 0.430230
v 0.156231 0.072569 0.458906
v 0.086223 0.070650 0.477330
v 0.006064 0.073364 0.489346
v -0.081222 0.081454 0.492902
v -0.182295 0.103954 0.461169
v -0.258422 0.133826 0.385713
v -0.315818 0.156246 0.296012
v -0.359573 0.125603 0.225708
v -0.408480 0.086724 0.164615
v -0.454645 0.063203 0.094656
v -0.468461 0.060043 0.010452
v -0.459070 0.049756 -0.061918
v -0.416673 0.052691 -0.172929
v -0.371410 0.053064 -0.250674
v 0.012581 -0.018826 -0.436928
v -0.064746 -0.006667 -0.432801
v -0.189185 0.033845 -0.403501
v -0.270905 0.055724 -0.370055
v -0.332136 0.096322 -0.328909
v -0.388486 0.099165 -0.269312
v -0.435917 0.089979 -0.175617
v -0.468278 0.087658 -0.062599
v -0.473202 0.086822 0.011612
v -0.461403 0.108498 0.090046
v -0.423186 0.131149 0.161823
v -0.373300 0.163945 0.227992
v -0.323997 0.194724 0.295550
v -0.264530 0.181141 0.378478
v -0.180994 0.162541 0.455026
v -0.079292 0.137588 0.494421
v 0.006172 0.108708 0.502434
v 0.086655 0.103115 0.487789
v 0.155883 0.109008 0.464758
v 0.219304 0.116564 0.435203
v 0.295432 0.124377 0.400427
v 0.385709 0.069213 0.322784
v 0.427963 -0.009151 0.219971
v 0.452480 -0.001660 0.095790
v 0.458915 -0.033648 -0.002177
v 0.453946 -0.031939 -0.075927
v 0.432935 -0.036706 -0.191787
v 0.387046 -0.025918 -0.307406
v 0.316315 -0.016250 -0.375148
v 0.224600 -0.021431 -0.410095
v 0.142911 -0.022876 -0.431830
v 0.065514 -0.021515 -0.435884
vt 0.801339 0.353462
vt 0.672311 0.319507
vt 0.686758 0.187218
vt 0.759822 0.248922
vt 0.533690 0.313678
vt 0.590044 0.227277
vt 0.636072 0.462088
vt 0.553054 0.395288
vt 0.753466 0.419575
vt 0.797518 0.439197
vt 0.868683 0.541438
vt 0.770817 0.609750
vt 0.743493 0.501283
vt 0.846796 0.666785
vt 0.919704 0.642775
vt 0.971254 0.481716
vt 0.985709 0.572105
vt 0.895460 0.428601
vt 0.734138 0.334478
vt 0.723186 0.211452
vt 0.936283 0.456302
vt 0.834606 0.493937
vt 0.749832 0.558103
vt 0.691229 0.453810
vt 0.634778 0.200420
vt 0.600977 0.313266
vt 0.592822 0.431709
vt 0.803805 0.643015
vt 0.896691 0.589242
vt 0.979069 0.528708
vt 0.639778 0.316273
vt 0.665603 0.190825
vt 0.976124 0.499945
vt 0.882956 0.565085
vt 0.784183 0.624186
vt 0.617982 0.450982
vt 0.608689 0.215048
vt 0.566080 0.312757
vt 0.569483 0.410941
vt 0.826697 0.656527
vt 0.908396 0.614457
vt 0.982153 0.553496
vt 0.704866 0.199313
vt 0.704404 0.325573
vt 0.665904 0.462748
vt 0.758505 0.583618
vt 0.852048 0.518226
vt 0.954000 0.467629
vt 0.765194 0.341848
vt 0.742259 0.229308
vt 0.915912 0.443174
vt 0.809472 0.462498
vt 0.747215 0.528630
vt 0.722195 0.440167
vt 0.659203 0.379345
vt 0.628920 0.372997
vt 0.594067 0.363804
vt 0.562523 0.356350
vt 0.536915 0.349686
vt 0.890204 0.656871
vt 0.875099 0.635322
vt 0.857512 0.613353
vt 0.840355 0.590542
vt 0.825111 0.568392
vt 0.810622 0.545433
vt 0.796281 0.520207
vt 0.780760 0.490604
vt 0.770166 0.467818
vt 0.784069 0.388624
vt 0.749414 0.383923
vt 0.717949 0.384686
vt 0.689513 0.383497
vt 0.542055 0.370901
vt 0.563929 0.380962
vt 0.593329 0.396859
vt 0.623429 0.409999
vt 0.649803 0.416534
vt 0.679295 0.419091
vt 0.706194 0.413527
vt 0.736114 0.406423
vt 0.771489 0.403815
vt 0.757198 0.485330
vt 0.764230 0.505684
vt 0.767174 0.543389
vt 0.777068 0.567358
vt 0.790981 0.592909
vt 0.805474 0.610199
vt 0.828171 0.629233
vt 0.847700 0.646299
vt 0.871385 0.663194
vt 0.667114 0.348430
vt 0.634648 0.343566
vt 0.598105 0.338254
vt 0.563711 0.333443
vt 0.533882 0.330018
vt 0.907438 0.649940
vt 0.892601 0.625300
vt 0.877371 0.601366
vt 0.862092 0.577535
vt 0.846962 0.554218
vt 0.831127 0.530695
vt 0.814432 0.505904
vt 0.794470 0.475516
vt 0.781784 0.453525
vt 0.793887 0.372320
vt 0.759407 0.364346
vt 0.727292 0.358456
vt 0.697895 0.354209
vt 0.681557 0.253123
vt 0.709241 0.263584
vt 0.739068 0.273704
vt 0.762592 0.289801
vt 0.788783 0.300953
vt 0.840454 0.422009
vt 0.843064 0.445629
vt 0.878523 0.469992
vt 0.899228 0.491598
vt 0.914414 0.513731
vt 0.927361 0.536131
vt 0.937086 0.559819
vt 0.946462 0.582666
vt 0.959985 0.605612
vt 0.552865 0.262252
vt 0.581423 0.260456
vt 0.612126 0.256965
vt 0.649178 0.252725
vt 0.676568 0.286946
vt 0.709994 0.295215
vt 0.737414 0.307592
vt 0.763985 0.319271
vt 0.798617 0.328570
vt 0.816423 0.428035
vt 0.828140 0.450518
vt 0.855474 0.481871
vt 0.873991 0.504582
vt 0.890675 0.527917
vt 0.904461 0.551182
vt 0.916232 0.575317
vt 0.925962 0.599763
vt 0.936960 0.628952
vt 0.536679 0.290354
vt 0.570802 0.288427
vt 0.605326 0.284910
vt 0.643399 0.285712
vt 0.776853 0.274167
vt 0.755030 0.260825
vt 0.732339 0.243566
vt 0.709211 0.230341
vt 0.685096 0.219332
vt 0.658963 0.222205
vt 0.620005 0.230788
vt 0.592588 0.238559
vt 0.569188 0.242363
vt 0.971690 0.589823
vt 0.963690 0.568207
vt 0.957579 0.544323
vt 0.951539 0.520221
vt 0.940627 0.499078
vt 0.926134 0.478639
vt 0.910105 0.466241
vt 0.886123 0.446246
vt 0.867537 0.423970
vt 0.994676 0.573305
vt 0.548742 0.227643
vt 0.528097 0.248147
vt 0.510969 0.285861
vt 0.506402 0.311058
vt 0.506444 0.329732
vt 0.506896 0.354134
vt 0.514333 0.380823
vt 0.527434 0.409946
vt 0.544502 0.440882
vt 0.572229 0.464322
vt 0.604193 0.479170
vt 0.628375 0.484642
vt 0.661221 0.493554
vt 0.696158 0.490872
vt 0.731120 0.472008
vt 0.762096 0.440618
vt 0.784469 0.420937
vt 0.800918 0.403783
vt 0.813573 0.384150
vt 0.823051 0.359686
vt 0.826643 0.331409
vt 0.820339 0.297055
vt 0.801516 0.265348
vt 0.775571 0.236946
vt 0.757559 0.210698
vt 0.738207 0.188735
vt 0.713934 0.174155
vt 0.686128 0.169229
vt 0.661201 0.167311
vt 0.622934 0.176679
vt 0.594720 0.190099
vt 0.519197 0.312980
vt 0.524281 0.290071
vt 0.543281 0.254719
vt 0.559341 0.231894
vt 0.580991 0.218212
vt 0.600269 0.201768
vt 0.628163 0.185694
vt 0.663378 0.177061
vt 0.686371 0.176233
vt 0.710050 0.185101
vt 0.731791 0.198810
vt 0.751150 0.218947
vt 0.767326 0.242761
vt 0.788976 0.267398
vt 0.805306 0.297976
vt 0.812550 0.329925
vt 0.814077 0.356367
vt 0.806141 0.379641
vt 0.793627 0.397989
vt 0.778857 0.413807
vt 0.758998 0.430314
vt 0.730603 0.456659
vt 0.698401 0.478482
vt 0.662020 0.474233
vt 0.631788 0.475566
vt 0.611104 0.467720
vt 0.579754 0.452421
vt 0.553244 0.427786
vt 0.537839 0.403566
vt 0.525571 0.376916
vt 0.519763 0.352140
vt 0.518381 0.328916
vt 0.993496 0.551921
vt 0.572106 0.210103
vt 0.992625 0.528075
vt 0.987027 0.495872
vt 0.979298 0.475452
vt 0.961867 0.457630
vt 0.940490 0.445290
vt 0.921009 0.432920
vt 0.903121 0.418744
vt 0.875851 0.408639
vt 0.843811 0.404437
vt 0.812708 0.413392
vt 0.790954 0.427519
vt 0.773544 0.443249
vt 0.760315 0.458846
vt 0.748903 0.474379
vt 0.736061 0.491800
vt 0.733172 0.526732
vt 0.741064 0.559962
vt 0.749736 0.590312
vt 0.761300 0.617438
vt 0.776004 0.631522
vt 0.797959 0.651582
vt 0.821679 0.670729
vt 0.847198 0.683180
vt 0.872726 0.678041
vt 0.894620 0.669208
vt 0.913424 0.660714
vt 0.926340 0.651697
vt 0.945374 0.639884
vt 0.973243 0.615529
vt 0.986371 0.593511
vn 0.086404 0.684924 0.723473
vn 0.094708 0.772984 0.627316
vn -0.023428 0.776218 0.630029
vn -0.007321 0.739318 0.673317
vn 0.023689 0.505917 -0.862257
vn -0.033788 0.501067 -0.864749
vn -0.042544 0.550561 -0.833710
vn 0.071784 0.565917 -0.821332
vn 0.112482 0.612544 -0.782392
vn 0.047459 0.508784 -0.859585
vn 0.147215 0.676061 0.721990
vn 0.169044 0.783050 0.598545
vn 0.057017 -0.714945 0.696852
vn 0.030455 -0.991353 0.127640
vn 0.144626 -0.980648 0.131960
vn 0.206090 -0.756467 0.620713
vn -0.094397 -0.980652 -0.171499
vn -0.146682 -0.951362 0.270916
vn -0.044547 -0.959244 0.279046
vn -0.066388 -0.990802 -0.117918
vn -0.081314 -0.957167 0.277884
vn -0.141341 -0.978755 -0.148534
vn -0.135363 -0.660110 0.738872
vn -0.100927 -0.986040 0.132437
vn -0.192842 -0.381158 -0.904174
vn -0.046255 -0.432369 -0.900510
vn 0.034726 -0.409302 -0.911738
vn 0.499240 -0.474208 -0.725180
vn 0.690677 -0.583371 -0.427369
vn 0.304784 -0.942199 -0.139168
vn 0.315385 -0.847402 -0.427133
vn 0.118186 -0.736919 0.665569
vn 0.028308 -0.822016 0.568761
vn 0.596932 -0.448578 0.665170
vn 0.476289 -0.322916 0.817847
vn 0.196511 -0.384672 0.901893
vn 0.033731 -0.366285 0.929891
vn -0.214405 -0.260673 0.941318
vn -0.773429 -0.351811 0.527292
vn -0.612001 -0.442073 0.655763
vn -0.402329 -0.735230 0.545498
vn -0.672245 -0.661663 0.332097
vn -0.656223 -0.725752 -0.206532
vn -0.500783 -0.842154 -0.199984
vn -0.695282 -0.573946 -0.432631
vn -0.719509 -0.415205 -0.556697
vn -0.222324 0.965348 -0.136657
vn -0.197358 0.942338 0.270275
vn 0.182626 0.953875 0.238263
vn 0.186513 0.973823 -0.129931
vn -0.452638 -0.796004 0.401867
vn -0.828518 -0.368764 0.421392
vn -0.933339 -0.352495 0.068006
vn -0.558887 -0.823774 0.095091
vn -0.117087 -0.993061 0.010938
vn -0.053968 -0.997230 0.051188
vn 0.014860 -0.994197 0.106548
vn -0.114417 -0.989001 0.093733
vn -0.225697 -0.970737 0.082041
vn -0.172463 -0.982840 0.065434
vn 0.863739 -0.503777 0.012771
vn 0.853128 -0.492304 0.172653
vn 0.199151 -0.961740 0.188134
vn 0.281828 -0.958479 0.043481
vn 0.431842 0.884977 0.174148
vn 0.438292 0.892278 -0.108353
vn 0.171181 0.858474 -0.483445
vn -0.161021 0.851903 -0.498330
vn 0.367270 0.829008 -0.421734
vn 0.272662 -0.961940 -0.018078
vn 0.789325 -0.601492 -0.123179
vn -0.078785 -0.979301 0.186449
vn -0.209355 -0.966033 0.151494
vn -0.005664 -0.984228 0.176816
vn -0.843720 -0.478463 -0.243331
vn -0.503187 -0.843787 -0.186615
vn 0.130137 0.684101 -0.717684
vn -0.094398 0.676010 -0.730821
vn -0.737667 -0.569590 -0.362511
vn -0.447868 -0.852656 -0.269058
vn -0.052424 -0.949878 0.308193
vn -0.044775 -0.942607 0.330890
vn -0.174686 -0.932508 0.316092
vn 0.754094 -0.617059 -0.224900
vn 0.283832 -0.957924 -0.042679
vn 0.243614 0.709641 -0.661107
vn -0.122642 0.806528 0.578335
vn 0.140882 0.813717 0.563929
vn 0.319511 0.829483 0.458117
vn 0.756346 -0.509924 0.409778
vn 0.113925 -0.898148 0.424678
vn -0.004605 -0.999833 -0.017687
vn -0.046331 -0.991202 -0.123980
vn -0.096439 -0.984305 -0.147796
vn -0.328749 -0.718376 0.613074
vn -0.631262 -0.409451 0.658679
vn 0.727607 0.660368 -0.185748
vn 0.776517 0.629403 -0.029540
vn 0.887565 0.460515 -0.012447
vn 0.887544 0.447204 -0.110792
vn 0.603054 0.692246 -0.396386
vn 0.852623 0.458582 -0.250474
vn 0.387050 0.651093 -0.652894
vn 0.727969 0.471782 -0.497477
vn 0.255483 0.466518 -0.846811
vn 0.480977 0.425361 -0.766635
vn 0.059031 -0.930446 -0.361644
vn 0.301312 -0.440749 -0.845548
vn -0.112600 -0.989878 0.086381
vn -0.202234 -0.966970 0.155146
vn -0.215528 -0.973583 0.075384
vn -0.232689 -0.968141 0.092516
vn -0.255065 -0.947572 0.192480
vn -0.230539 -0.912264 0.338565
vn -0.062584 -0.908118 0.414011
vn 0.257478 -0.805963 0.533037
vn 0.413830 -0.394279 0.820542
vn 0.551151 0.635259 0.540998
vn 0.788273 0.583841 0.194308
vn 0.525188 0.789035 0.318750
vn 0.361385 0.645273 0.673071
vn 0.691226 0.711462 0.126604
vn 0.857279 0.502916 0.110221
vn 0.770050 0.633367 0.076612
vn 0.875376 0.476812 0.079795
vn 0.110498 0.501241 -0.858223
vn 0.178240 0.649488 -0.739186
vn 0.353339 0.744080 -0.567006
vn 0.515236 0.795353 -0.319288
vn 0.595635 0.799694 -0.075562
vn 0.590045 0.799148 0.114933
vn 0.482500 0.822053 0.302362
vn 0.306159 0.798541 0.518266
vn 0.254820 0.652699 0.713478
vn 0.375719 -0.395935 0.837897
vn 0.344624 -0.787972 0.510229
vn 0.123635 -0.964136 0.234855
vn -0.162973 -0.965722 0.202042
vn -0.336549 -0.928882 0.154638
vn -0.377149 -0.921138 0.096244
vn -0.382538 -0.914554 0.131359
vn -0.344171 -0.900084 0.267200
vn -0.234691 -0.951403 0.199379
vn -0.072480 -0.966161 -0.247547
vn 0.153475 -0.438848 -0.885358
vn -0.840609 0.532962 0.096584
vn -0.747882 0.655800 0.102946
vn -0.765231 0.642869 -0.033781
vn -0.874521 0.484987 0.000446
vn -0.829779 0.492229 0.263016
vn -0.671053 0.678601 0.298645
vn -0.796267 0.438089 0.417177
vn -0.476249 0.732009 0.487187
vn -0.410590 0.670418 0.618025
vn -0.711973 0.447344 0.541274
vn -0.735000 -0.610303 0.295475
vn -0.785576 -0.235904 0.572031
vn -0.563728 -0.802676 0.194735
vn -0.259768 -0.865567 0.428153
vn -0.103739 -0.910690 0.399853
vn -0.105382 -0.987021 0.121179
vn -0.136273 -0.982430 -0.127517
vn -0.227852 -0.969584 -0.089393
vn -0.424278 -0.904313 0.046962
vn -0.618565 -0.777515 -0.113353
vn -0.634943 -0.305857 -0.709436
vn -0.216149 0.664316 -0.715517
vn -0.158427 0.497985 -0.852591
vn -0.407061 0.441875 -0.799405
vn -0.675476 0.487269 -0.553445
vn -0.521642 0.716561 -0.463065
vn -0.818452 0.491327 -0.297884
vn -0.704364 0.677864 -0.210644
vn -0.853845 0.501872 -0.138108
vn -0.599986 0.794898 -0.090296
vn -0.544537 0.815230 0.197178
vn -0.391062 0.786180 0.478531
vn -0.183181 0.784381 0.592614
vn -0.175575 0.751717 0.635685
vn -0.549900 -0.195642 0.811994
vn -0.555201 -0.635927 0.536049
vn -0.390865 -0.916682 0.083180
vn -0.281772 -0.958301 0.047583
vn 0.035345 -0.973986 0.223835
vn 0.158728 -0.980294 0.117600
vn 0.085519 -0.995116 0.049313
vn -0.098614 -0.979014 0.178345
vn -0.231364 -0.942144 0.242561
vn -0.342684 -0.929391 -0.137117
vn -0.388194 -0.334913 -0.858568
vn -0.088124 0.510582 -0.855301
vn -0.117483 0.577616 -0.807811
vn -0.293733 0.695989 -0.655225
vn -0.484361 0.780130 -0.395969
vn -0.422232 0.157443 -0.892710
vn -0.602663 0.072262 -0.794717
vn -0.227590 0.203834 -0.952184
vn -0.109719 0.155773 -0.981680
vn -0.007314 0.138241 -0.990372
vn 0.043587 0.129573 -0.990611
vn 0.159694 0.103737 -0.981701
vn 0.304055 0.096952 -0.947708
vn 0.550633 0.077146 -0.831175
vn 0.854543 0.016719 -0.519111
vn 0.960277 -0.017891 -0.278476
vn 0.989436 0.016390 -0.144039
vn 0.999939 0.010836 0.002112
vn 0.986838 0.092059 0.132954
vn 0.958801 0.027410 0.282753
vn 0.871451 0.176265 0.457715
vn 0.634384 0.249989 0.731480
vn 0.402298 0.154780 0.902330
vn 0.355023 0.109432 0.928430
vn 0.231253 0.044425 0.971879
vn 0.052852 0.081644 0.995259
vn -0.176014 0.256334 0.950427
vn -0.437556 0.326864 0.837678
vn -0.678781 0.258162 0.687466
vn -0.796718 0.120454 0.592226
vn -0.821173 0.035046 0.569602
vn -0.856264 0.075642 0.510970
vn -0.942949 0.102777 0.316676
vn -0.997584 0.056200 0.040832
vn -0.977592 0.002620 -0.210492
vn -0.928964 -0.060207 -0.365242
vn -0.826394 -0.056323 -0.560268
s 1
g Rock4_Snow_LOW Rocks_Group
f 1/1/1 49/49/2 130/130/3 131/131/4
f 6/5/5 141/141/6 142/142/7 38/38/8
f 38/38/8 94/94/9 95/95/10 6/5/5
f 105/105/11 106/106/12 49/49/2 1/1/1
f 13/10/13 52/52/14 103/103/15 104/104/16
f 96/96/17 97/97/18 41/41/19 14/15/20
f 41/41/19 139/139/21 140/140/22 14/15/20
f 13/10/13 132/132/23 133/133/24 52/52/14
f 14/15/20 140/140/22 166/256/25 167/255/26
f 167/255/26 168/254/27 96/96/17 14/15/20
f 171/251/28 172/250/29 40/40/30 15/14/31
f 12/13/32 53/53/33 178/244/34 179/243/35
f 13/10/13 104/104/16 182/240/36 183/239/37
f 183/239/37 184/238/38 132/132/23 13/10/13
f 187/235/39 188/234/40 51/51/41 18/18/42
f 16/17/43 42/42/44 194/227/45 163/163/46
f 127/127/47 128/128/48 44/44/49 2/2/50
f 48/48/51 190/232/52 191/231/53 17/16/54
f 47/47/55 135/135/56 136/136/57 10/11/58
f 100/100/59 101/101/60 47/47/55 10/11/58
f 175/247/61 176/246/62 46/46/63 11/12/64
f 44/44/49 108/108/65 91/91/66 2/2/50
f 31/31/67 144/144/68 127/127/47 2/2/50
f 2/2/50 91/91/66 92/92/69 31/31/67
f 11/12/64 35/35/70 174/248/71 175/247/61
f 34/34/72 99/99/73 100/100/59 10/11/58
f 136/136/57 137/137/74 34/34/72 10/11/58
f 191/231/53 192/230/75 33/33/76 17/16/54
f 26/26/77 143/143/78 144/144/68 31/31/67
f 192/230/75 193/229/79 30/30/80 33/33/76
f 34/34/72 137/137/74 138/138/81 29/29/82
f 29/29/82 98/98/83 99/99/73 34/34/72
f 173/249/84 174/248/71 35/35/70 28/28/85
f 31/31/67 92/92/69 93/93/86 26/26/77
f 38/38/8 142/142/7 143/143/78 26/26/77
f 26/26/77 93/93/86 94/94/9 38/38/8
f 172/250/29 173/249/84 28/28/85 40/40/30
f 41/41/19 97/97/18 98/98/83 29/29/82
f 29/29/82 138/138/81 139/139/21 41/41/19
f 193/229/79 194/227/45 42/42/44 30/30/80
f 128/128/48 129/129/87 19/19/88 44/44/49
f 19/19/88 107/107/89 108/108/65 44/44/49
f 176/246/62 177/245/90 23/23/91 46/46/63
f 101/101/60 102/102/92 22/22/93 47/47/55
f 22/22/93 134/134/94 135/135/56 47/47/55
f 21/21/95 189/233/96 190/232/52 48/48/51
f 129/129/87 130/130/3 49/49/2 19/19/88
f 51/51/41 188/234/40 189/233/96 21/21/95
f 52/52/14 133/133/24 134/134/94 22/22/93
f 102/102/92 103/103/15 52/52/14 22/22/93
f 177/245/90 178/244/34 53/53/33 23/23/91
f 49/49/2 106/106/12 107/107/89 19/19/88
f 76/76/97 77/77/98 7/7/99 36/36/100
f 75/75/101 76/76/97 36/36/100 27/27/102
f 74/74/103 75/75/101 27/27/102 39/39/104
f 73/73/105 74/74/103 39/39/104 8/8/106
f 15/14/31 90/90/107 170/252/108 171/251/28
f 15/14/31 40/40/30 89/89/109 90/90/107
f 88/88/110 89/89/109 40/40/30 28/28/85
f 87/87/111 88/88/110 28/28/85 35/35/70
f 86/86/112 87/87/111 35/35/70 11/12/64
f 46/46/63 85/85/113 86/86/112 11/12/64
f 23/23/91 84/84/114 85/85/113 46/46/63
f 53/53/33 83/83/115 84/84/114 23/23/91
f 82/82/116 83/83/115 53/53/33 12/13/32
f 179/243/35 180/242/117 82/82/116 12/13/32
f 9/9/118 54/54/119 80/80/120 81/81/121
f 79/79/122 80/80/120 54/54/119 24/24/123
f 78/78/124 79/79/122 24/24/123 45/45/125
f 77/77/98 78/78/124 45/45/125 7/7/99
f 59/59/126 58/58/127 74/74/103 73/73/105
f 58/58/127 57/57/128 75/75/101 74/74/103
f 57/57/128 56/56/129 76/76/97 75/75/101
f 56/56/129 55/55/130 77/77/98 76/76/97
f 55/55/130 72/72/131 78/78/124 77/77/98
f 72/72/131 71/71/132 79/79/122 78/78/124
f 71/71/132 70/70/133 80/80/120 79/79/122
f 81/81/121 80/80/120 70/70/133 69/69/134
f 180/242/117 181/241/135 68/68/136 82/82/116
f 68/68/136 67/67/137 83/83/115 82/82/116
f 84/84/114 83/83/115 67/67/137 66/66/138
f 85/85/113 84/84/114 66/66/138 65/65/139
f 86/86/112 85/85/113 65/65/139 64/64/140
f 64/64/140 63/63/141 87/87/111 86/86/112
f 63/63/141 62/62/142 88/88/110 87/87/111
f 62/62/142 61/61/143 89/89/109 88/88/110
f 90/90/107 89/89/109 61/61/143 60/60/144
f 169/253/145 170/252/108 90/90/107 60/60/144
f 92/92/69 91/91/66 55/55/130 56/56/129
f 93/93/86 92/92/69 56/56/129 57/57/128
f 94/94/9 93/93/86 57/57/128 58/58/127
f 95/95/10 94/94/9 58/58/127 59/59/126
f 168/254/27 169/253/145 60/60/144 96/96/17
f 60/60/144 61/61/143 97/97/18 96/96/17
f 98/98/83 97/97/18 61/61/143 62/62/142
f 99/99/73 98/98/83 62/62/142 63/63/141
f 100/100/59 99/99/73 63/63/141 64/64/140
f 64/64/140 65/65/139 101/101/60 100/100/59
f 65/65/139 66/66/138 102/102/92 101/101/60
f 66/66/138 67/67/137 103/103/15 102/102/92
f 104/104/16 103/103/15 67/67/137 68/68/136
f 181/241/135 182/240/36 104/104/16 68/68/136
f 69/69/134 70/70/133 106/106/12 105/105/11
f 107/107/89 106/106/12 70/70/133 71/71/132
f 108/108/65 107/107/89 71/71/132 72/72/131
f 91/91/66 108/108/65 72/72/131 55/55/130
f 43/43/146 148/148/147 149/149/148 3/3/149
f 20/20/150 147/147/151 148/148/147 43/43/146
f 50/50/152 146/146/153 147/147/151 20/20/150
f 145/145/154 146/146/153 50/50/152 4/4/155
f 18/18/42 162/162/156 186/236/157 187/235/39
f 161/161/158 162/162/156 18/18/42 51/51/41
f 160/160/159 161/161/158 51/51/41 21/21/95
f 159/159/160 160/160/159 21/21/95 48/48/51
f 158/158/161 159/159/160 48/48/51 17/16/54
f 17/16/54 33/33/76 157/157/162 158/158/161
f 156/156/163 157/157/162 33/33/76 30/30/80
f 155/155/164 156/156/163 30/30/80 42/42/44
f 154/154/165 155/155/164 42/42/44 16/17/43
f 163/163/46 164/258/166 154/154/165 16/17/43
f 152/152/167 153/153/168 5/6/169 37/37/170
f 151/151/171 152/152/167 37/37/170 25/25/172
f 150/150/173 151/151/171 25/25/172 32/32/174
f 149/149/148 150/150/173 32/32/174 3/3/149
f 109/109/175 110/110/176 128/128/48 127/127/47
f 110/110/176 111/111/177 129/129/87 128/128/48
f 111/111/177 112/112/178 130/130/3 129/129/87
f 131/131/4 130/130/3 112/112/178 113/113/179
f 184/238/38 185/237/180 114/114/181 132/132/23
f 133/133/24 132/132/23 114/114/181 115/115/182
f 134/134/94 133/133/24 115/115/182 116/116/183
f 135/135/56 134/134/94 116/116/183 117/117/184
f 136/136/57 135/135/56 117/117/184 118/118/185
f 118/118/185 119/119/186 137/137/74 136/136/57
f 138/138/81 137/137/74 119/119/186 120/120/187
f 139/139/21 138/138/81 120/120/187 121/121/188
f 140/140/22 139/139/21 121/121/188 122/122/189
f 165/257/190 166/256/25 140/140/22 122/122/189
f 142/142/7 141/141/6 123/123/191 124/124/192
f 143/143/78 142/142/7 124/124/192 125/125/193
f 144/144/68 143/143/78 125/125/193 126/126/194
f 127/127/47 144/144/68 126/126/194 109/109/175
f 113/113/179 112/112/178 146/146/153 145/145/154
f 147/147/151 146/146/153 112/112/178 111/111/177
f 148/148/147 147/147/151 111/111/177 110/110/176
f 149/149/148 148/148/147 110/110/176 109/109/175
f 109/109/175 126/126/194 150/150/173 149/149/148
f 126/126/194 125/125/193 151/151/171 150/150/173
f 125/125/193 124/124/192 152/152/167 151/151/171
f 124/124/192 123/123/191 153/153/168 152/152/167
f 164/258/166 165/257/190 122/122/189 154/154/165
f 122/122/189 121/121/188 155/155/164 154/154/165
f 121/121/188 120/120/187 156/156/163 155/155/164
f 120/120/187 119/119/186 157/157/162 156/156/163
f 158/158/161 157/157/162 119/119/186 118/118/185
f 118/118/185 117/117/184 159/159/160 158/158/161
f 117/117/184 116/116/183 160/160/159 159/159/160
f 116/116/183 115/115/182 161/161/158 160/160/159
f 115/115/182 114/114/181 162/162/156 161/161/158
f 185/237/180 186/236/157 162/162/156 114/114/181
f 153/153/168 198/198/195 199/199/196 5/6/169
f 123/123/191 197/197/197 198/198/195 153/153/168
f 141/141/6 196/196/198 197/197/197 123/123/191
f 195/195/199 196/196/198 141/141/6 6/5/5
f 95/95/10 226/226/200 195/195/199 6/5/5
f 59/59/126 225/225/201 226/226/200 95/95/10
f 73/73/105 224/224/202 225/225/201 59/59/126
f 223/223/203 224/224/202 73/73/105 8/8/106
f 39/39/104 222/222/204 223/223/203 8/8/106
f 27/27/102 221/221/205 222/222/204 39/39/104
f 36/36/100 220/220/206 221/221/205 27/27/102
f 219/219/207 220/220/206 36/36/100 7/7/99
f 45/45/125 218/218/208 219/219/207 7/7/99
f 24/24/123 217/217/209 218/218/208 45/45/125
f 54/54/119 216/216/210 217/217/209 24/24/123
f 215/215/211 216/216/210 54/54/119 9/9/118
f 81/81/121 214/214/212 215/215/211 9/9/118
f 69/69/134 213/213/213 214/214/212 81/81/121
f 105/105/11 212/212/214 213/213/213 69/69/134
f 211/211/215 212/212/214 105/105/11 1/1/1
f 131/131/4 210/210/216 211/211/215 1/1/1
f 113/113/179 209/209/217 210/210/216 131/131/4
f 145/145/154 208/208/218 209/209/217 113/113/179
f 207/207/219 208/208/218 145/145/154 4/4/155
f 4/4/155 50/50/152 206/206/220 207/207/219
f 205/205/221 206/206/220 50/50/152 20/20/150
f 204/204/222 205/205/221 20/20/150 43/43/146
f 203/203/223 204/204/222 43/43/146 3/3/149
f 32/32/174 202/202/224 203/203/223 3/3/149
f 25/25/172 201/201/225 202/202/224 32/32/174
f 37/37/170 200/200/226 201/201/225 25/25/172
f 199/199/196 200/200/226 37/37/170 5/6/169
f 167/167/26 166/166/25 196/196/198 195/195/199
f 197/197/197 196/196/198 166/166/25 165/165/190
f 198/198/195 197/197/197 165/165/190 164/164/166
f 199/199/196 198/198/195 164/164/166 163/228/46
f 163/228/46 194/194/45 200/200/226 199/199/196
f 201/201/225 200/200/226 194/194/45 193/193/79
f 202/202/224 201/201/225 193/193/79 192/192/75
f 203/203/223 202/202/224 192/192/75 191/191/53
f 191/191/53 190/190/52 204/204/222 203/203/223
f 190/190/52 189/189/96 205/205/221 204/204/222
f 189/189/96 188/188/40 206/206/220 205/205/221
f 207/207/219 206/206/220 188/188/40 187/187/39
f 187/187/39 186/186/157 208/208/218 207/207/219
f 209/209/217 208/208/218 186/186/157 185/185/180
f 210/210/216 209/209/217 185/185/180 184/184/38
f 211/211/215 210/210/216 184/184/38 183/183/37
f 183/183/37 182/182/36 212/212/214 211/211/215
f 213/213/213 212/212/214 182/182/36 181/181/135
f 214/214/212 213/213/213 181/181/135 180/180/117
f 215/215/211 214/214/212 180/180/117 179/179/35
f 179/179/35 178/178/34 216/216/210 215/215/211
f 217/217/209 216/216/210 178/178/34 177/177/90
f 218/218/208 217/217/209 177/177/90 176/176/62
f 219/219/207 218/218/208 176/176/62 175/175/61
f 175/175/61 174/174/71 220/220/206 219/219/207
f 221/221/205 220/220/206 174/174/71 173/173/84
f 222/222/204 221/221/205 173/173/84 172/172/29
f 223/223/203 222/222/204 172/172/29 171/171/28
f 171/171/28 170/170/108 224/224/202 223/223/203
f 225/225/201 224/224/202 170/170/108 169/169/145
f 226/226/200 225/225/201 169/169/145 168/168/27
f 195/195/199 226/226/200 168/168/27 167/167/26
