# This file uses centimeters as units for non-parametric coordinates.

g default
v -0.058043 0.448838 0.981687
v 0.528286 0.504772 0.760467
v 0.697247 0.512465 0.367017
v -0.019600 0.643143 0.356781
v -0.654038 0.255004 0.885066
v -0.770920 0.273022 0.306468
v 0.059767 0.609409 -0.297863
v -0.413204 0.376687 -0.339229
v 0.603885 0.547399 -0.258711
v 0.090870 0.435538 -0.911053
v -0.184087 0.421973 -0.759803
v 0.405585 0.448968 -0.745178
v -0.630986 0.000360 0.888790
v -0.787034 -0.004805 0.280393
v 0.011239 -0.035081 0.342820
v -0.066608 0.160768 0.980407
v 0.709855 0.208706 0.354695
v 0.509498 0.251899 0.774816
v 0.070833 0.076120 -0.273039
v 0.615017 0.336031 -0.247046
v -0.401916 0.135682 -0.322630
v -0.193447 0.253586 -0.753506
v 0.089404 0.183473 -0.862335
v 0.406285 0.304565 -0.758313
v -0.728039 0.275986 0.090066
v 0.009333 0.643452 0.134049
v 0.685796 0.507695 0.151970
v 0.722181 0.225387 0.147057
v 0.032672 0.005099 0.120466
v -0.724048 -0.010925 0.022894
v -0.566926 0.357368 -0.130781
v 0.033027 0.636574 -0.089858
v 0.636335 0.531272 -0.053957
v 0.673949 0.278194 -0.060183
v 0.047387 0.057160 -0.079750
v -0.569983 0.045557 -0.141845
v -0.331277 0.383616 -0.466293
v 0.077894 0.553144 -0.493018
v 0.555144 0.524402 -0.418298
v 0.541211 0.335877 -0.405935
v 0.099942 0.076417 -0.460672
v -0.314595 0.186295 -0.439031
v -0.264221 0.400370 -0.598424
v 0.079649 0.490378 -0.691983
v 0.490416 0.491910 -0.567227
v 0.481499 0.321040 -0.565150
v 0.100139 0.086466 -0.680185
v -0.249190 0.223768 -0.574110
v 0.648130 0.531476 0.523289
v -0.054126 0.636100 0.585581
v -0.779371 0.254475 0.532745
v -0.752367 0.010706 0.513230
v -0.007473 0.012028 0.569105
v 0.643235 0.219053 0.507601
v 0.592496 0.519343 0.653156
v -0.071981 0.585927 0.817219
v -0.732948 0.266034 0.732517
v -0.695186 -0.007333 0.707652
v -0.030520 0.080398 0.796793
v 0.574603 0.232931 0.655855
v -0.230640 0.410330 0.973933
v -0.275083 0.511277 0.801325
v -0.286911 0.545219 0.576779
v -0.263361 0.565036 0.346585
v -0.216254 0.574554 0.124354
v -0.156985 0.581137 -0.103530
v -0.099664 0.565316 -0.313875
v -0.060273 0.521523 -0.494403
v -0.025114 0.490839 -0.668910
v 0.003702 0.427287 -0.904058
v -0.009152 0.195479 -0.855035
v -0.035900 0.102173 -0.667433
v -0.055043 0.049511 -0.470968
v -0.091336 0.034806 -0.287873
v -0.144355 0.012662 -0.096604
v -0.192705 -0.034557 0.107448
v -0.217572 -0.049895 0.331167
v -0.222433 -0.027231 0.561667
v -0.206947 0.012594 0.786498
v -0.219372 0.111394 0.992132
v -0.438385 0.351668 0.947652
v -0.501795 0.426816 0.781837
v -0.550958 0.442038 0.558589
v -0.569801 0.436535 0.330294
v -0.496252 0.454027 0.106251
v -0.353665 0.490694 -0.119351
v -0.256284 0.502858 -0.333221
v -0.199943 0.488653 -0.491529
v -0.143348 0.476580 -0.637829
v -0.092632 0.435718 -0.848929
v -0.102793 0.217616 -0.828145
v -0.151228 0.131388 -0.625483
v -0.184070 0.074075 -0.459958
v -0.243742 0.050575 -0.311507
v -0.343954 0.015964 -0.122706
v -0.433147 -0.067145 0.057767
v -0.479751 -0.113061 0.320343
v -0.447735 -0.094126 0.553203
v -0.416748 -0.079778 0.768138
v -0.417904 0.032061 0.974282
v 0.147910 0.513036 0.948728
v 0.159219 0.607679 0.778305
v 0.200139 0.621439 0.565397
v 0.225907 0.606725 0.356953
v 0.235652 0.605922 0.141996
v 0.248657 0.634730 -0.069132
v 0.238683 0.640905 -0.284303
v 0.229077 0.594273 -0.485849
v 0.219099 0.510336 -0.666759
v 0.197219 0.448673 -0.880965
v 0.204272 0.211571 -0.876138
v 0.245955 0.146407 -0.642844
v 0.239929 0.147541 -0.447010
v 0.241490 0.137017 -0.264343
v 0.254701 0.091574 -0.077532
v 0.262431 0.034862 0.124648
v 0.254991 -0.014313 0.343572
v 0.223859 0.020189 0.573938
v 0.180544 0.120603 0.761633
v 0.147345 0.181373 0.961767
v 0.464979 0.563196 0.355360
v 0.434718 0.590399 0.542165
v 0.392699 0.571882 0.712375
v 0.358613 0.524730 0.861626
v 0.338085 0.229284 0.846864
v 0.396784 0.138556 0.730022
v 0.456477 0.089469 0.543760
v 0.495132 0.063309 0.350137
v 0.504860 0.090701 0.125231
v 0.483113 0.164803 -0.079226
v 0.446916 0.234771 -0.258290
v 0.400499 0.243681 -0.422472
v 0.368347 0.227679 -0.595383
v 0.328320 0.246084 -0.826960
v 0.312118 0.461183 -0.814669
v 0.366444 0.543246 -0.632726
v 0.407038 0.604984 -0.468682
v 0.433101 0.625813 -0.271581
v 0.445491 0.570652 -0.065283
v 0.462732 0.537119 0.149562
v 0.760512 0.426430 0.366023
v 0.750166 0.440627 0.146847
v 0.698228 0.460075 -0.070282
v 0.636193 0.479733 -0.265825
v 0.573320 0.463359 -0.424584
v 0.506647 0.436416 -0.575294
v 0.420218 0.405003 -0.757654
v 0.341142 0.402912 -0.849839
v 0.213641 0.383813 -0.920538
v 0.092080 0.364975 -0.940722
v -0.016274 0.362473 -0.923652
v -0.121624 0.367614 -0.867231
v -0.208732 0.370749 -0.770980
v -0.284369 0.338894 -0.599842
v -0.343302 0.316156 -0.468985
v -0.431152 0.296211 -0.358932
v -0.643191 0.252718 -0.177956
v -0.807694 0.186823 0.045811
v -0.850195 0.177810 0.290965
v -0.816146 0.149563 0.531818
v -0.767869 0.159943 0.743791
v -0.675252 0.169046 0.910624
v -0.446444 0.222128 1.010802
v -0.237948 0.287085 1.027416
v -0.060994 0.346520 1.029433
v 0.165543 0.409989 1.022395
v 0.375277 0.429641 0.905840
v 0.554295 0.421642 0.797214
v 0.642117 0.425337 0.672001
v 0.715025 0.427589 0.533732
v 0.639065 0.406637 -0.262151
v 0.706169 0.367521 -0.072077
v 0.766198 0.336533 0.142743
v 0.759201 0.309331 0.366644
v 0.701222 0.308775 0.527743
v 0.632029 0.322168 0.672767
v 0.542368 0.330175 0.798941
v 0.364813 0.322299 0.896587
v 0.165766 0.273897 1.019188
v -0.054341 0.235349 1.025700
v -0.230521 0.186900 1.030589
v -0.435808 0.115750 1.013743
v -0.668538 0.079383 0.911892
v -0.752007 0.065625 0.732819
v -0.797395 0.068311 0.524728
v -0.844531 0.077155 0.284202
v -0.796566 0.076776 0.023193
v -0.632952 0.131101 -0.186042
v -0.426035 0.214443 -0.353285
v -0.333927 0.249883 -0.458167
v -0.275824 0.278859 -0.590407
v -0.211057 0.312547 -0.768494
v -0.121818 0.282011 -0.855398
v -0.018964 0.267767 -0.906819
v 0.095383 0.260275 -0.929577
v 0.221610 0.290721 -0.920858
v 0.348502 0.324845 -0.855529
v 0.423280 0.355936 -0.762711
v 0.502232 0.378258 -0.573708
v 0.570490 0.398284 -0.420942
vt 0.661179 0.889425
vt 0.558999 0.854677
vt 0.535280 0.784730
vt 0.653006 0.781525
vt 0.788914 0.782321
vt 0.769356 0.883141
vt 0.737594 0.665504
vt 0.645462 0.675152
vt 0.551655 0.680629
vt 0.689348 0.592199
vt 0.640245 0.575181
vt 0.584316 0.594721
vt 0.328633 0.969309
vt 0.252701 0.930518
vt 0.253311 0.840868
vt 0.359553 0.880033
vt 0.416782 0.963794
vt 0.458222 0.910444
vt 0.476482 0.823280
vt 0.394234 0.799515
vt 0.330274 0.769015
vt 0.376518 0.716161
vt 0.421497 0.720250
vt 0.466036 0.746466
vt 0.481551 0.789623
vt 0.515108 0.672022
vt 0.512607 0.872655
vt 0.667099 0.940469
vt 0.549553 0.904851
vt 0.780786 0.929769
vt 0.841897 0.777932
vt 0.817386 0.895493
vt 0.778865 0.647593
vt 0.717761 0.581517
vt 0.643235 0.531408
vt 0.701034 0.559356
vt 0.576860 0.566310
vt 0.563291 0.579594
vt 0.784358 0.745713
vt 0.649761 0.745441
vt 0.535524 0.749007
vt 0.468348 0.882448
vt 0.482785 0.748356
vt 0.371715 0.850648
vt 0.272933 0.808603
vt 0.836307 0.724296
vt 0.758142 0.705521
vt 0.647726 0.709126
vt 0.543887 0.714318
vt 0.473446 0.851727
vt 0.496143 0.707387
vt 0.382954 0.824106
vt 0.300683 0.790428
vt 0.815343 0.683170
vt 0.724141 0.641998
vt 0.643923 0.642597
vt 0.558554 0.653385
vt 0.472836 0.799238
vt 0.528150 0.640040
vt 0.404984 0.775688
vt 0.345123 0.753723
vt 0.757634 0.628571
vt 0.708968 0.619578
vt 0.643435 0.610029
vt 0.568521 0.626966
vt 0.470050 0.775619
vt 0.543528 0.611154
vt 0.413391 0.747001
vt 0.358869 0.736749
vt 0.738932 0.607751
vt 0.543687 0.810518
vt 0.657580 0.818130
vt 0.790469 0.820443
vt 0.247853 0.874120
vt 0.834842 0.824329
vt 0.349349 0.910999
vt 0.444521 0.930293
vt 0.488155 0.822289
vt 0.550259 0.833529
vt 0.660836 0.855471
vt 0.780453 0.854092
vt 0.249425 0.903035
vt 0.829689 0.862899
vt 0.339043 0.942904
vt 0.429932 0.949064
vt 0.500482 0.851242
vt 0.690063 0.890050
vt 0.694980 0.856802
vt 0.697465 0.819730
vt 0.694497 0.781574
vt 0.688506 0.744552
vt 0.680810 0.706722
vt 0.673617 0.671779
vt 0.668657 0.641237
vt 0.661879 0.613069
vt 0.653963 0.575461
vt 0.407830 0.715867
vt 0.663177 0.536010
vt 0.395410 0.742585
vt 0.384385 0.768403
vt 0.371919 0.790986
vt 0.356752 0.814403
vt 0.341633 0.840508
vt 0.329835 0.869992
vt 0.320820 0.901224
vt 0.314736 0.932826
vt 0.306784 0.963577
vt 0.699692 0.941821
vt 0.726109 0.887810
vt 0.734314 0.857545
vt 0.742689 0.820553
vt 0.747455 0.783010
vt 0.737698 0.744498
vt 0.716818 0.704477
vt 0.702565 0.667743
vt 0.693814 0.640762
vt 0.683301 0.616031
vt 0.670326 0.582057
vt 0.393739 0.713773
vt 0.681790 0.545577
vt 0.378193 0.741419
vt 0.366876 0.763578
vt 0.352397 0.780952
vt 0.330787 0.802528
vt 0.310940 0.825472
vt 0.294520 0.858717
vt 0.289943 0.890539
vt 0.286224 0.919760
vt 0.279175 0.950979
vt 0.740956 0.941304
vt 0.626994 0.879235
vt 0.623717 0.849074
vt 0.616461 0.815609
vt 0.612564 0.781740
vt 0.611786 0.746615
vt 0.611531 0.712173
vt 0.614947 0.677746
vt 0.617130 0.644927
vt 0.619018 0.613766
vt 0.623409 0.579545
vt 0.438368 0.722953
vt 0.619000 0.537574
vt 0.432924 0.756751
vt 0.425757 0.782795
vt 0.418867 0.807222
vt 0.411347 0.832774
vt 0.402379 0.860342
vt 0.391569 0.889066
vt 0.379991 0.918891
vt 0.369211 0.946819
vt 0.358465 0.974164
vt 0.622988 0.937311
vt 0.573274 0.782264
vt 0.578472 0.813753
vt 0.584355 0.842643
vt 0.591445 0.868161
vt 0.389972 0.968009
vt 0.579943 0.921721
vt 0.399803 0.948476
vt 0.413107 0.924334
vt 0.424223 0.899555
vt 0.435125 0.870643
vt 0.443785 0.842097
vt 0.449936 0.815745
vt 0.450459 0.791980
vt 0.451103 0.767389
vt 0.454364 0.734335
vt 0.593122 0.549223
vt 0.603589 0.587767
vt 0.593061 0.619424
vt 0.587337 0.647721
vt 0.582585 0.679129
vt 0.576822 0.713076
vt 0.572556 0.748228
vt 0.518311 0.785296
vt 0.520152 0.748614
vt 0.527997 0.711281
vt 0.539522 0.677630
vt 0.548957 0.649067
vt 0.560399 0.621805
vt 0.581064 0.585695
vt 0.577463 0.589973
vt 0.599143 0.576499
vt 0.621143 0.567514
vt 0.640358 0.563437
vt 0.657586 0.565365
vt 0.675873 0.571432
vt 0.698571 0.588672
vt 0.694603 0.581452
vt 0.719446 0.615934
vt 0.735442 0.637410
vt 0.750898 0.658744
vt 0.779740 0.699118
vt 0.803744 0.739899
vt 0.808708 0.780311
vt 0.808865 0.821921
vt 0.798086 0.858244
vt 0.775809 0.898580
vt 0.785977 0.888643
vt 0.732866 0.909591
vt 0.695077 0.911437
vt 0.663412 0.907780
vt 0.625241 0.898674
vt 0.587155 0.885323
vt 0.542871 0.862318
vt 0.553801 0.872157
vt 0.533065 0.838287
vt 0.524292 0.813398
vt 0.527578 0.674723
vt 0.512403 0.709027
vt 0.502748 0.748093
vt 0.499873 0.787804
vt 0.505369 0.817634
vt 0.516641 0.844079
vt 0.527364 0.868222
vt 0.550997 0.889146
vt 0.583897 0.903540
vt 0.624035 0.919703
vt 0.663940 0.926142
vt 0.697768 0.927746
vt 0.737013 0.926412
vt 0.779790 0.914018
vt 0.801755 0.892851
vt 0.813855 0.860532
vt 0.822742 0.823217
vt 0.825191 0.779230
vt 0.820132 0.733016
vt 0.798271 0.691057
vt 0.764297 0.653023
vt 0.746519 0.632960
vt 0.729192 0.612142
vt 0.707804 0.585240
vt 0.698485 0.570753
vt 0.679600 0.557842
vt 0.660737 0.550351
vt 0.640444 0.547207
vt 0.618789 0.552801
vt 0.595883 0.563756
vt 0.578305 0.576486
vt 0.570618 0.585052
vt 0.552180 0.616664
vt 0.539076 0.644781
vn -0.146672 0.684519 0.714088
vn 0.077921 0.745769 0.661633
vn 0.063901 0.950759 0.303274
vn -0.186038 0.913316 0.362276
vn -0.375111 0.654363 0.656583
vn -0.464104 0.836546 0.291201
vn -0.700179 0.665260 0.259188
vn -0.574385 0.578263 0.579390
vn -0.618613 0.694558 -0.367297
vn -0.602850 0.751708 -0.267407
vn -0.471827 0.866324 -0.163898
vn -0.462487 0.855693 -0.232153
vn 0.134720 0.988130 0.073825
vn -0.004437 0.997041 -0.076740
vn -0.181521 0.968084 -0.172811
vn -0.129712 0.990549 -0.044586
vn -0.619793 0.712817 -0.328251
vn -0.704363 0.644824 -0.296772
vn -0.340858 0.913303 -0.222918
vn -0.310886 0.857119 -0.410728
vn -0.109477 0.953292 -0.281511
vn -0.085833 0.938165 -0.335380
vn 0.031784 0.887331 -0.460036
vn -0.052378 0.879924 -0.472219
vn 0.053357 -0.973500 0.222375
vn 0.051914 -0.808775 0.585822
vn -0.318460 -0.823251 0.469938
vn -0.395023 -0.903602 0.165709
vn 0.202849 -0.887236 0.414325
vn 0.275460 -0.774947 0.568840
vn 0.223393 -0.794319 0.564936
vn 0.211100 -0.911356 0.353366
vn 0.365089 -0.915992 -0.166341
vn 0.248201 -0.930063 -0.270887
vn 0.204724 -0.962843 -0.176129
vn 0.268836 -0.961292 -0.060373
vn -0.216473 -0.920946 -0.324033
vn -0.061769 -0.932271 -0.356449
vn -0.263388 -0.802265 -0.535721
vn -0.367696 -0.737807 -0.566075
vn -0.490581 -0.700179 -0.518728
vn -0.505132 -0.770295 -0.389214
vn -0.718251 -0.564213 -0.407160
vn -0.725066 -0.550539 -0.413747
vn 0.372610 -0.789093 -0.488359
vn 0.449413 -0.879852 -0.154562
vn 0.183549 -0.948903 -0.256697
vn 0.092585 -0.844103 -0.528128
vn 0.917260 -0.168433 -0.360922
vn 0.940703 -0.139152 -0.309379
vn 0.641188 -0.677680 -0.360039
vn 0.640558 -0.676172 -0.363974
vn 0.609194 -0.673950 0.417940
vn 0.813526 -0.314923 0.488875
vn 0.617209 -0.277466 0.736251
vn 0.509397 -0.592717 0.623860
vn 0.324179 -0.270483 0.906503
vn 0.077463 -0.241552 0.967291
vn -0.197644 -0.214986 0.956409
vn -0.609630 -0.290154 0.737674
vn -0.867657 -0.394735 0.302251
vn -0.641271 -0.287875 -0.711266
vn -0.600622 -0.269479 -0.752751
vn -0.863684 -0.295631 -0.408230
vn -0.831043 -0.222284 -0.509861
vn -0.586342 -0.273695 -0.762427
vn -0.011875 -0.367700 -0.929869
vn 0.320960 -0.252018 -0.912947
vn 0.869499 -0.151137 -0.470244
vn 0.906353 -0.218704 -0.361515
vn 0.721328 -0.666605 -0.187947
vn 0.746780 -0.603000 -0.280555
vn -0.515185 0.856602 -0.028598
vn -0.491604 0.864056 -0.108320
vn -0.641293 0.748558 -0.168536
vn -0.687007 0.725893 -0.033181
vn 0.160074 0.986575 -0.032351
vn 0.192417 0.980677 0.035329
vn -0.087516 0.996153 -0.004496
vn -0.102228 0.994757 -0.002974
vn 0.678405 -0.729239 0.089317
vn 0.680343 -0.711835 -0.174423
vn 0.978863 -0.153318 -0.135356
vn 0.961651 -0.232058 0.146210
vn 0.143333 -0.971656 -0.187989
vn 0.196276 -0.954213 -0.225729
vn 0.187944 -0.982176 0.002823
vn 0.100550 -0.994828 0.014392
vn -0.445324 -0.895069 -0.023185
vn -0.366494 -0.882036 -0.296133
vn -0.041179 -0.973331 -0.225678
vn -0.095454 -0.995406 -0.007413
vn -0.937251 -0.347220 -0.031609
vn -0.843091 -0.322595 -0.430268
vn -0.437176 0.861950 -0.256747
vn -0.702026 0.613933 -0.360896
vn -0.097150 0.953718 -0.284575
vn -0.180878 0.940622 -0.287251
vn 0.660905 -0.713378 -0.233017
vn 0.898429 -0.238225 -0.368882
vn 0.277224 -0.960015 -0.038961
vn 0.454820 -0.890019 -0.031711
vn -0.611245 -0.612183 -0.501609
vn -0.403573 -0.848916 -0.341279
vn -0.760630 -0.305861 -0.572618
vn -0.159881 0.983804 0.081037
vn 0.105762 0.993371 0.045032
vn -0.731348 0.673719 0.105981
vn -0.502159 0.860475 0.086133
vn -0.446709 -0.887479 0.113280
vn -0.901232 -0.397329 0.172949
vn -0.046977 -0.995288 0.084827
vn 0.173824 -0.940843 0.290860
vn 0.133541 -0.961342 0.240809
vn 0.871574 -0.314019 0.376499
vn 0.632758 -0.707895 0.313850
vn -0.339630 0.879509 0.333341
vn -0.256901 0.665999 0.700319
vn -0.360874 0.928762 0.084680
vn -0.355662 0.934546 -0.011317
vn -0.349273 0.935308 -0.056636
vn -0.336069 0.936059 -0.104165
vn -0.291939 0.936260 -0.195419
vn -0.216306 0.945177 -0.244647
vn -0.135603 0.960919 -0.241342
vn -0.165322 0.858164 -0.486028
vn -0.244386 -0.792988 -0.558073
vn -0.307032 -0.346761 -0.886278
vn -0.166544 -0.927509 -0.334649
vn -0.013752 -0.989105 -0.146566
vn 0.090341 -0.991710 -0.091378
vn 0.132512 -0.973229 -0.187795
vn 0.160994 -0.973381 -0.163125
vn 0.179022 -0.983843 0.001904
vn 0.240740 -0.962052 0.128457
vn 0.303215 -0.905072 0.298170
vn 0.264480 -0.758070 0.596138
vn 0.029048 -0.193494 0.980671
vn 0.223821 0.944765 0.239423
vn 0.307518 0.755574 0.578395
vn 0.481117 0.705436 0.520468
vn 0.486059 0.813444 0.319461
vn 0.204475 0.978541 0.025443
vn 0.458941 0.881624 0.110059
vn 0.200547 0.976962 -0.072977
vn 0.440769 0.897448 -0.017624
vn 0.385835 0.922278 -0.023124
vn 0.215222 0.976308 0.022427
vn 0.400349 0.915098 0.048128
vn 0.242057 0.961845 0.127529
vn 0.526476 0.848022 -0.060685
vn 0.250436 0.968013 -0.015271
vn 0.615049 0.726007 -0.307618
vn 0.232372 0.929422 -0.286669
vn 0.200244 0.888035 -0.413880
vn 0.638145 0.634206 -0.436525
vn 0.184250 0.861009 -0.474041
vn 0.601060 0.633836 -0.486806
vn 0.562206 -0.741280 -0.366645
vn 0.609470 -0.159930 -0.776511
vn 0.573279 -0.811464 -0.113480
vn 0.529044 -0.841787 -0.107273
vn 0.458881 -0.842740 -0.281456
vn 0.404280 -0.847962 -0.342808
vn 0.403464 -0.889757 -0.213424
vn 0.421544 -0.905836 0.041971
vn 0.409443 -0.864488 0.291578
vn 0.358774 -0.815881 0.453454
vn 0.413510 -0.685159 0.599639
vn 0.509486 -0.270175 0.816964
vn 0.903506 0.376016 -0.205646
vn 0.914043 0.286704 -0.286925
vn 0.922732 0.373309 -0.095947
vn 0.948740 0.294750 0.114082
vn 0.908688 0.230584 0.348018
vn 0.843794 0.198128 0.498756
vn 0.648789 0.181982 0.738888
vn 0.472897 0.226803 0.851428
vn 0.229410 0.244811 0.942040
vn -0.041816 0.224826 0.973501
vn -0.125666 0.242882 0.961882
vn -0.298074 0.221375 0.928518
vn -0.643018 0.149903 0.751037
vn -0.938022 0.095776 0.333078
vn -0.975225 0.142169 0.169481
vn -0.956848 0.289530 -0.024787
vn -0.879858 0.335103 -0.336980
vn -0.751060 0.346461 -0.562027
vn -0.715511 0.222021 -0.662383
vn -0.850429 0.042353 -0.524383
vn -0.914084 0.087721 -0.395923
vn -0.838447 0.182046 -0.513680
vn -0.596588 0.143304 -0.789650
vn -0.324161 0.072054 -0.943254
vn -0.006570 0.103921 -0.994564
vn 0.287046 0.241991 -0.926847
vn 0.537171 0.323855 -0.778823
vn 0.819618 0.225782 -0.526544
vn 0.889866 0.145811 -0.432294
vn 0.905286 0.152685 -0.396416
s 1
g Rock2_Snow_LOW Rocks_Group
f 1/1/1 101/131/2 102/132/3 56/80/4
f 81/109/5 82/110/6 57/81/7 5/6/8
f 8/7/9 31/47/10 86/114/11 87/115/12
f 106/136/13 107/137/14 7/8/15 32/48/16
f 11/10/17 43/63/18 89/117/19 90/118/20
f 44/64/21 109/139/22 110/140/23 10/11/24
f 99/128/25 100/129/26 13/14/27 58/82/28
f 119/150/29 120/151/30 16/13/31 59/84/32
f 114/145/33 115/146/34 35/52/35 19/20/36
f 94/123/37 95/124/38 36/53/39 21/21/40
f 91/119/41 92/121/42 48/69/43 22/22/44
f 111/141/45 112/143/46 47/68/47 23/23/48
f 171/209/49 172/210/50 34/51/51 20/26/52
f 60/86/53 176/214/54 177/215/55 18/27/56
f 120/152/30 179/218/57 180/219/58 16/28/31
f 13/30/27 100/130/26 182/221/59 183/222/60
f 183/223/60 184/224/61 58/83/28 13/32/27
f 21/33/40 36/54/39 188/228/62 189/229/63
f 48/70/43 191/231/64 192/232/65 22/34/44
f 192/233/65 193/234/66 91/120/41 22/36/44
f 195/236/67 196/237/68 111/142/45 23/35/48
f 198/240/69 199/241/70 46/67/71 24/38/72
f 84/112/73 85/113/74 25/39/75 6/5/76
f 104/134/77 105/135/78 26/40/79 4/4/80
f 17/25/81 28/43/82 173/211/83 174/212/84
f 29/44/85 116/147/86 117/148/87 15/16/88
f 14/15/89 30/45/90 96/125/91 97/126/92
f 186/226/93 187/227/94 30/46/90 14/31/89
f 85/113/74 86/114/11 31/47/10 25/39/75
f 105/135/78 106/136/13 32/48/16 26/40/79
f 172/210/50 173/211/83 28/43/82 34/51/51
f 35/52/35 115/146/34 116/147/86 29/44/85
f 95/124/38 96/125/91 30/45/90 36/53/39
f 187/227/94 188/228/62 36/54/39 30/46/90
f 87/115/12 88/116/95 37/55/96 8/7/9
f 107/137/14 108/138/97 38/56/98 7/8/15
f 20/26/52 40/59/99 200/242/100 171/209/49
f 41/60/101 113/144/102 114/145/33 19/20/36
f 21/21/40 42/61/103 93/122/104 94/123/37
f 189/229/63 190/230/105 42/62/103 21/33/40
f 88/116/95 89/117/19 43/63/18 37/55/96
f 38/56/98 108/138/97 109/139/22 44/64/21
f 199/241/70 200/242/100 40/59/99 46/67/71
f 47/68/47 112/143/46 113/144/102 41/60/101
f 92/121/42 93/122/104 42/61/103 48/69/43
f 42/62/103 190/230/105 191/231/64 48/70/43
f 50/72/106 103/133/107 104/134/77 4/4/80
f 6/5/76 51/73/108 83/111/109 84/112/73
f 52/75/110 185/225/111 186/226/93 14/31/89
f 97/126/92 98/127/112 52/74/110 14/15/89
f 117/148/87 118/149/113 53/76/114 15/16/88
f 174/212/84 175/213/115 54/78/116 17/25/81
f 56/80/4 102/132/3 103/133/107 50/72/106
f 82/110/6 83/111/109 51/73/108 57/81/7
f 58/83/28 184/224/61 185/225/111 52/75/110
f 98/127/112 99/128/25 58/82/28 52/74/110
f 118/149/113 119/150/29 59/84/32 53/76/114
f 54/78/116 175/213/115 176/214/54 60/86/53
f 56/80/4 62/88/117 61/87/118 1/1/1
f 50/72/106 63/89/119 62/88/117 56/80/4
f 64/90/120 63/89/119 50/72/106 4/4/80
f 26/40/79 65/91/121 64/90/120 4/4/80
f 32/48/16 66/92/122 65/91/121 26/40/79
f 67/93/123 66/92/122 32/48/16 7/8/15
f 38/56/98 68/94/124 67/93/123 7/8/15
f 44/64/21 69/95/125 68/94/124 38/56/98
f 70/96/126 69/95/125 44/64/21 10/11/24
f 71/98/127 194/235/128 195/236/67 23/35/48
f 47/68/47 72/99/129 71/97/127 23/23/48
f 41/60/101 73/100/130 72/99/129 47/68/47
f 74/101/131 73/100/130 41/60/101 19/20/36
f 35/52/35 75/102/132 74/101/131 19/20/36
f 29/44/85 76/103/133 75/102/132 35/52/35
f 77/104/134 76/103/133 29/44/85 15/16/88
f 53/76/114 78/105/135 77/104/134 15/16/88
f 59/84/32 79/106/136 78/105/135 53/76/114
f 16/13/31 80/107/137 79/106/136 59/84/32
f 180/219/58 181/220/138 80/108/137 16/28/31
f 61/87/118 62/88/117 82/110/6 81/109/5
f 62/88/117 63/89/119 83/111/109 82/110/6
f 84/112/73 83/111/109 63/89/119 64/90/120
f 64/90/120 65/91/121 85/113/74 84/112/73
f 65/91/121 66/92/122 86/114/11 85/113/74
f 87/115/12 86/114/11 66/92/122 67/93/123
f 67/93/123 68/94/124 88/116/95 87/115/12
f 68/94/124 69/95/125 89/117/19 88/116/95
f 90/118/20 89/117/19 69/95/125 70/96/126
f 91/120/41 193/234/66 194/235/128 71/98/127
f 71/97/127 72/99/129 92/121/42 91/119/41
f 72/99/129 73/100/130 93/122/104 92/121/42
f 94/123/37 93/122/104 73/100/130 74/101/131
f 74/101/131 75/102/132 95/124/38 94/123/37
f 75/102/132 76/103/133 96/125/91 95/124/38
f 97/126/92 96/125/91 76/103/133 77/104/134
f 77/104/134 78/105/135 98/127/112 97/126/92
f 78/105/135 79/106/136 99/128/25 98/127/112
f 79/106/136 80/107/137 100/129/26 99/128/25
f 181/220/138 182/221/59 100/130/26 80/108/137
f 123/155/139 124/156/140 2/2/141 55/79/142
f 122/154/143 123/155/139 55/79/142 49/71/144
f 121/153/145 122/154/143 49/71/144 3/3/146
f 27/41/147 140/174/148 121/153/145 3/3/146
f 33/49/149 139/173/150 140/174/148 27/41/147
f 9/9/151 138/172/152 139/173/150 33/49/149
f 9/9/151 39/57/153 137/171/154 138/172/152
f 136/170/155 137/171/154 39/57/153 45/65/156
f 135/169/157 136/170/155 45/65/156 12/12/158
f 134/168/159 197/238/160 198/239/69 24/37/72
f 24/24/72 46/66/71 133/166/161 134/167/159
f 132/165/162 133/166/161 46/66/71 40/58/99
f 131/164/163 132/165/162 40/58/99 20/19/52
f 20/19/52 34/50/51 130/163/164 131/164/163
f 129/162/165 130/163/164 34/50/51 28/42/82
f 128/161/166 129/162/165 28/42/82 17/18/81
f 54/77/116 127/160/167 128/161/166 17/18/81
f 60/85/53 126/159/168 127/160/167 54/77/116
f 18/17/56 125/157/169 126/159/168 60/85/53
f 177/216/55 178/217/170 125/158/169 18/29/56
f 104/134/77 103/133/107 122/154/143 121/153/145
f 103/133/107 102/132/3 123/155/139 122/154/143
f 102/132/3 101/131/2 124/156/140 123/155/139
f 125/158/169 178/217/170 179/218/57 120/152/30
f 126/159/168 125/157/169 120/151/30 119/150/29
f 127/160/167 126/159/168 119/150/29 118/149/113
f 128/161/166 127/160/167 118/149/113 117/148/87
f 117/148/87 116/147/86 129/162/165 128/161/166
f 116/147/86 115/146/34 130/163/164 129/162/165
f 131/164/163 130/163/164 115/146/34 114/145/33
f 114/145/33 113/144/102 132/165/162 131/164/163
f 113/144/102 112/143/46 133/166/161 132/165/162
f 134/167/159 133/166/161 112/143/46 111/141/45
f 111/142/45 196/237/68 197/238/160 134/168/159
f 110/140/23 109/139/22 136/170/155 135/169/157
f 109/139/22 108/138/97 137/171/154 136/170/155
f 138/172/152 137/171/154 108/138/97 107/137/14
f 139/173/150 138/172/152 107/137/14 106/136/13
f 140/174/148 139/173/150 106/136/13 105/135/78
f 121/153/145 140/174/148 105/135/78 104/134/77
f 33/49/149 143/177/171 144/178/172 9/9/151
f 27/41/147 142/176/173 143/177/171 33/49/149
f 141/175/174 142/176/173 27/41/147 3/3/146
f 3/3/146 49/71/144 170/208/175 141/175/174
f 169/207/176 170/208/175 49/71/144 55/79/142
f 168/205/177 169/207/176 55/79/142 2/2/141
f 2/2/141 124/156/140 167/204/178 168/206/177
f 166/203/179 167/204/178 124/156/140 101/131/2
f 165/202/180 166/203/179 101/131/2 1/1/1
f 61/87/118 164/201/181 165/202/180 1/1/1
f 81/109/5 163/200/182 164/201/181 61/87/118
f 162/198/183 163/200/182 81/109/5 5/6/8
f 5/6/8 57/81/7 161/197/184 162/199/183
f 160/196/185 161/197/184 57/81/7 51/73/108
f 159/195/186 160/196/185 51/73/108 6/5/76
f 25/39/75 158/194/187 159/195/186 6/5/76
f 31/47/10 157/193/188 158/194/187 25/39/75
f 156/192/189 157/193/188 31/47/10 8/7/9
f 8/7/9 37/55/96 155/191/190 156/192/189
f 154/190/191 155/191/190 37/55/96 43/63/18
f 153/188/192 154/190/191 43/63/18 11/10/17
f 11/10/17 90/118/20 152/187/193 153/189/192
f 151/186/194 152/187/193 90/118/20 70/96/126
f 150/185/195 151/186/194 70/96/126 10/11/24
f 10/11/24 110/140/23 149/184/196 150/185/195
f 148/183/197 149/184/196 110/140/23 135/169/157
f 147/181/198 148/183/197 135/169/157 12/12/158
f 45/65/156 146/180/199 147/182/198 12/12/158
f 39/57/153 145/179/200 146/180/199 45/65/156
f 144/178/172 145/179/200 39/57/153 9/9/151
f 172/210/50 171/209/49 144/178/172 143/177/171
f 173/211/83 172/210/50 143/177/171 142/176/173
f 174/212/84 173/211/83 142/176/173 141/175/174
f 170/208/175 175/213/115 174/212/84 141/175/174
f 169/207/176 176/214/54 175/213/115 170/208/175
f 177/215/55 176/214/54 169/207/176 168/205/177
f 178/217/170 177/216/55 168/206/177 167/204/178
f 166/203/179 179/218/57 178/217/170 167/204/178
f 180/219/58 179/218/57 166/203/179 165/202/180
f 164/201/181 181/220/138 180/219/58 165/202/180
f 163/200/182 182/221/59 181/220/138 164/201/181
f 183/222/60 182/221/59 163/200/182 162/198/183
f 184/224/61 183/223/60 162/199/183 161/197/184
f 185/225/111 184/224/61 161/197/184 160/196/185
f 186/226/93 185/225/111 160/196/185 159/195/186
f 158/194/187 187/227/94 186/226/93 159/195/186
f 157/193/188 188/228/62 187/227/94 158/194/187
f 189/229/63 188/228/62 157/193/188 156/192/189
f 155/191/190 190/230/105 189/229/63 156/192/189
f 154/190/191 191/231/64 190/230/105 155/191/190
f 192/232/65 191/231/64 154/190/191 153/188/192
f 193/234/66 192/233/65 153/189/192 152/187/193
f 194/235/128 193/234/66 152/187/193 151/186/194
f 195/236/67 194/235/128 151/186/194 150/185/195
f 196/237/68 195/236/67 150/185/195 149/184/196
f 148/183/197 197/238/160 196/237/68 149/184/196
f 198/239/69 197/238/160 148/183/197 147/181/198
f 199/241/70 198/240/69 147/182/198 146/180/199
f 200/242/100 199/241/70 146/180/199 145/179/200
f 144/178/172 171/209/49 200/242/100 145/179/200
