# This file uses centimeters as units for non-parametric coordinates.

g default
v -2.130066 -0.008795 -1.855951
v -1.451240 1.939081 -0.214320
v 2.027626 0.970731 -1.316847
v 0.533156 -0.956432 -2.477353
v 0.549384 1.909943 -0.250704
v -0.923902 -0.709499 -2.482037
v 0.666611 0.393003 1.811056
v -1.048536 0.510679 1.801017
v 1.945670 0.064003 0.767545
v 0.469630 -1.379880 -0.523415
v -0.685874 -1.288277 -0.158527
v -2.009616 -0.986470 0.111979
v -2.112275 0.428913 -1.560687
v -0.354934 0.037602 -2.190846
v 1.700908 0.011159 -1.962427
v 1.080975 -1.565241 -0.029071
v -0.419760 -1.381014 1.021777
v -2.146801 -0.599817 0.679783
v -1.838394 1.174121 -1.245074
v -1.953628 -0.147688 1.209410
v -0.002219 -1.010214 1.795369
v 1.718915 -1.241124 0.329547
v 2.050482 0.542017 -1.732566
v -0.030046 0.956411 -1.519293
v -1.255480 1.565233 1.090732
v 0.834540 1.553572 0.897784
v 2.272409 0.512126 -0.328477
v 1.985765 -0.818316 -0.829126
v 1.404545 -1.259490 -1.208587
v 0.483249 -1.401602 -1.759320
v -0.951981 -1.313431 -1.644705
v -2.292778 -0.563611 -0.850318
v -2.291746 0.043555 -0.363019
v -2.170753 0.643267 0.161157
v -0.544454 1.939674 -0.246724
v -0.969295 1.197783 -0.995622
v -1.365015 0.372763 -1.740022
v -1.761306 -0.312125 -2.218885
v -1.797015 -1.061929 -1.265334
v -1.418083 -1.232732 -0.007258
v -1.614563 -1.066092 1.058964
v -1.268108 -0.567617 1.640840
v -0.271154 0.478438 1.839958
v -0.327318 1.607318 1.067434
v -0.098915 -0.839912 -2.390345
v 0.772703 -0.064247 -2.371029
v 1.167908 0.995980 -1.564202
v 1.382998 1.366361 -0.961146
v 1.736468 1.075983 0.277523
v 1.434472 0.224057 1.321067
v 0.993086 -1.263908 1.141030
v 0.480571 -1.509107 0.494597
v -0.058955 -1.338388 -0.356496
v -0.160270 -1.370186 -1.716915
v -0.141275 -1.160898 1.581279
v -1.355844 -0.679539 1.511844
v -2.038242 -0.293239 1.045662
v -2.228030 0.426650 -0.031016
v -1.892136 1.011243 -1.246860
v -1.056523 0.985998 -1.144570
v -0.102779 0.676055 -1.591548
v 1.105974 0.797755 -1.584665
v 1.982070 0.430386 -1.797548
v 1.874186 -0.999572 -0.947732
v 1.641747 -1.357647 0.258983
v 0.881841 -1.372325 1.022644
v -2.113075 0.338847 -1.610753
v -1.438180 0.206805 -1.798026
v -0.460716 -0.121661 -2.219399
v 0.609600 -0.236867 -2.337257
v 1.476644 -0.170528 -2.055647
v 1.130267 -1.339793 -1.330192
v 0.984378 -1.533872 -0.128543
v 0.317858 -1.504354 0.284025
v -0.497893 -1.430240 0.754878
v -1.645846 -1.258939 0.759606
v -2.198035 -0.671998 0.517815
v -2.299539 -0.122064 -0.502427
v -0.283120 -1.294931 1.328243
v -1.503425 -0.869448 1.282747
v -2.096551 -0.455106 0.865794
v -2.289746 0.225850 -0.196886
v -1.998554 0.763985 -1.422449
v -1.204565 0.759834 -1.494226
v -0.223931 0.399386 -1.904386
v 0.951388 0.279277 -1.907447
v 1.864296 0.228678 -1.900822
v 1.645742 -1.173013 -1.073108
v 1.390497 -1.539868 0.142408
v 0.646699 -1.513192 0.750131
v 2.091419 0.917798 -1.440814
v 1.328998 1.294900 -1.144255
v 0.386370 1.671095 -0.621403
v -0.662330 1.724364 -0.443083
v -1.555616 1.760961 -0.531006
v -1.645623 1.422739 0.958207
v -1.394546 0.371832 1.714589
v -0.568009 0.225144 1.953434
v 0.546080 -0.014319 1.938225
v 1.401464 -0.191430 1.366875
v 1.983912 -0.289129 0.753320
v 2.286590 0.116988 -0.456621
v -1.682428 1.486163 -0.815364
v -0.794678 1.490560 -0.671814
v 0.203798 1.386841 -1.018536
v 1.264491 1.180732 -1.335684
v 2.125648 0.765728 -1.572969
v 2.243783 -0.234727 -0.585860
v 1.950234 -0.730664 0.591566
v 1.280866 -0.674513 1.334543
v 0.361142 -0.448512 2.019646
v -0.904970 -0.106163 1.964290
v -1.719317 0.171490 1.496831
v -1.995502 1.171793 0.696297
v -0.951682 1.967227 -0.258652
v -1.064522 1.741786 -0.483710
v -1.194728 1.487603 -0.735378
v -1.355474 1.199066 -1.122673
v -1.433999 0.974766 -1.170228
v -1.562079 0.760449 -1.460865
v -1.702345 0.398235 -1.662554
v -1.742321 0.269609 -1.716602
v -1.936430 -0.165480 -2.071531
v -2.069297 -0.913611 -1.089215
v -1.703331 -1.186922 0.054238
v -1.968295 -0.957618 0.695537
v -1.917863 -0.825870 0.861725
v -1.819310 -0.656659 1.091379
v -1.719562 -0.490107 1.286509
v -1.630902 -0.359209 1.429780
v -1.299534 0.017770 1.805924
v -0.946598 0.301160 1.887117
v -0.621083 0.500861 1.836170
v -0.735262 1.594091 1.088815
v -1.450453 -0.447023 -2.340506
v -1.071900 0.082360 -1.954628
v -0.982614 0.239011 -1.891125
v -0.837333 0.614487 -1.638817
v -0.698847 0.878920 -1.317143
v -0.615078 1.101020 -1.184612
v -0.415323 1.414499 -0.770481
v -0.267261 1.690417 -0.496344
v -0.134540 1.931522 -0.249593
v 0.099346 1.609812 1.040686
v 0.080607 0.456169 1.844735
v -0.151793 0.157443 2.005417
v -0.436074 -0.230278 2.033027
v -0.831985 -0.759572 1.803794
v -0.917152 -0.888869 1.659190
v -1.072465 -1.086541 1.402399
v -1.171763 -1.284896 1.112934
v -1.212964 -1.382561 0.778454
v -1.143787 -1.253562 -0.063925
v -1.506324 -1.202915 -1.428896
v -1.162357 -0.581355 -2.437182
v -0.738137 -0.023741 -2.104252
v -0.641615 0.129550 -2.060347
v -0.501919 0.497650 -1.784756
v -0.373314 0.773995 -1.472472
v -0.313164 1.018167 -1.395387
v -0.075646 1.395213 -0.903469
v 0.090051 1.681015 -0.565699
v 0.239413 1.917849 -0.249721
v 0.511138 1.590742 0.975275
v 0.402803 0.428917 1.839943
v 0.234981 0.085792 2.015149
v -0.000377 -0.318027 2.075587
v -0.406572 -0.893281 1.861629
v -0.526014 -1.060547 1.663844
v -0.636608 -1.204130 1.410954
v -0.772441 -1.342806 1.081383
v -0.836094 -1.402238 0.791036
v -0.893368 -1.272573 -0.115660
v -1.219061 -1.292186 -1.564741
v 0.040794 -0.013141 -2.297313
v -0.079621 -0.162429 -2.261757
v -0.627259 -0.749404 -2.474524
v -0.689567 -1.333554 -1.711055
v -0.462644 -1.306102 -0.229019
v -0.203012 -1.458220 0.617951
v -0.113193 -1.448354 0.858608
v 0.057295 -1.390925 1.183574
v 0.225858 -1.263218 1.475175
v 0.362559 -1.123751 1.663091
v 0.708753 -0.540867 1.806573
v 0.886718 -0.075859 1.793443
v 0.981781 0.345362 1.701882
v 1.198942 1.453722 0.732741
v 0.854272 1.737921 -0.515071
v 0.721203 1.553838 -0.819050
v 0.576344 1.370148 -1.156420
v 0.394239 0.961115 -1.568515
v 0.326690 0.696014 -1.521747
v 0.193582 0.352041 -1.902235
v -0.387823 -0.788200 -2.390977
v 0.273891 -0.201325 -2.299248
v 0.416538 -0.038375 -2.331866
v 0.580575 0.298204 -1.896149
v 0.729979 0.757057 -1.532397
v 0.789314 0.969970 -1.599111
v 0.933422 1.301999 -1.263243
v 1.033775 1.427465 -0.989154
v 1.121276 1.532383 -0.736569
v 1.490291 1.272278 0.513153
v 1.220841 0.282838 1.514094
v 1.154714 -0.136243 1.579713
v 1.008643 -0.612691 1.573277
v 0.688322 -1.209405 1.408178
v 0.578854 -1.325555 1.271434
v 0.356372 -1.482056 0.965917
v 0.185504 -1.483021 0.683995
v 0.059416 -1.482178 0.448606
v -0.255610 -1.322987 -0.294395
v -0.417991 -1.352291 -1.705471
v 0.154562 -0.906134 -2.473397
v 0.967176 -0.194984 -2.331383
v 1.227751 -0.066292 -2.277201
v 1.329858 0.310548 -1.933413
v 1.479894 0.643067 -1.664232
v 1.533064 0.820910 -1.660064
v 1.629164 1.027395 -1.451973
v 1.654026 1.162006 -1.289527
v 1.672393 1.230551 -1.116627
v 1.993889 0.869955 0.034381
v 1.659047 0.158200 1.094083
v 1.657798 -0.232912 1.117384
v 1.587996 -0.708323 1.045828
v 1.338855 -1.324308 0.827033
v 1.227952 -1.422238 0.718490
v 0.991651 -1.544915 0.474609
v 0.780993 -1.511183 0.262668
v 0.596409 -1.505163 0.117791
v 0.164631 -1.356168 -0.427101
v 0.098166 -1.383403 -1.747545
v -1.449767 1.868349 0.543711
v -0.902296 1.992227 0.558152
v -0.396641 2.009024 0.536769
v 0.007449 1.953295 0.480386
v 0.401179 1.906343 0.413360
v 0.754381 1.828550 0.290956
v 1.088885 1.677055 0.090514
v 1.349298 1.460419 -0.110735
v 1.598348 1.264467 -0.314567
v 1.859502 1.068977 -0.516869
v 2.223167 0.756813 -0.807313
v 2.278318 0.507107 -0.945724
v 2.251623 0.152991 -1.102137
v 2.109054 -0.264406 -1.312114
v 2.002678 -0.412970 -1.476143
v 1.890101 -0.573596 -1.596310
v 1.669381 -0.736980 -1.761105
v 1.411793 -0.886454 -1.927627
v 0.536967 -1.198282 -2.294762
v 0.140282 -1.231263 -2.302055
v -0.174201 -1.182409 -2.266936
v -0.392280 -1.160754 -2.267890
v -0.692773 -1.161828 -2.277303
v -0.992840 -1.131562 -2.240649
v -1.289645 -1.077488 -2.152356
v -1.599229 -0.951900 -1.973707
v -1.883175 -0.785977 -1.812348
v -2.122518 -0.616887 -1.629346
v -2.301103 -0.296725 -1.333448
v -2.260591 0.142140 -1.064020
v -2.215154 0.298951 -0.952984
v -2.183032 0.509657 -0.813428
v -2.160166 0.723107 -0.655535
v -2.142136 0.940469 -0.503513
v -2.028015 1.520099 0.088390
v -1.749198 1.720542 0.316138
v -1.503858 1.983483 0.121035
v -0.893652 2.071872 0.112221
v -0.478551 2.035816 0.048116
v -0.063061 2.001061 0.078000
v 0.323335 1.966728 0.051851
v 0.659447 1.929900 0.009958
v 1.005929 1.752555 -0.238723
v 1.263182 1.542571 -0.457358
v 1.503129 1.355445 -0.679717
v 1.755941 1.163801 -0.856715
v 2.123757 0.891859 -1.095778
v 2.183037 0.742373 -1.227833
v 2.201865 0.503781 -1.372946
v 2.088509 0.189993 -1.556914
v 1.997701 0.063442 -1.662527
v 1.873700 -0.118209 -1.767042
v 1.674628 -0.328477 -1.867869
v 1.484029 -0.484674 -1.987863
v 0.535438 -1.066657 -2.406512
v 0.147778 -1.048938 -2.403172
v -0.150907 -0.982648 -2.330280
v -0.369781 -0.939946 -2.335205
v -0.651774 -0.940729 -2.410217
v -0.958329 -0.904786 -2.397038
v -1.238704 -0.834398 -2.364811
v -1.566471 -0.706866 -2.230305
v -1.839422 -0.531242 -2.065526
v -2.046695 -0.369897 -1.901717
v -2.207610 -0.132962 -1.630633
v -2.198092 0.262745 -1.364821
v -2.187367 0.371047 -1.285467
v -2.149505 0.663101 -1.144048
v -2.131921 0.907124 -0.970267
v -2.116295 1.070532 -0.934923
v -1.965148 1.665755 -0.417693
v -1.691069 1.860682 -0.190699
v 0.804646 1.700195 0.583703
v 0.453838 1.768929 0.685443
v 0.052201 1.824068 0.757429
v -0.380301 1.855791 0.796751
v -0.845827 1.872484 0.863672
v -1.382680 1.768770 0.807769
v -1.714421 1.599714 0.606333
v -2.012558 1.365258 0.357360
v -2.153725 0.803114 -0.149762
v -2.178227 0.574223 -0.336686
v -2.252913 0.385250 -0.501237
v -2.297456 0.181192 -0.651362
v -2.299042 0.009932 -0.787447
v -2.302270 -0.415023 -1.119429
v -2.133948 -0.773480 -1.402447
v -1.879263 -0.958783 -1.579285
v -1.595455 -1.121400 -1.740308
v -1.284332 -1.229103 -1.883923
v -0.992551 -1.285336 -1.966971
v -0.709439 -1.326561 -2.012726
v -0.425966 -1.356456 -1.998516
v -0.155679 -1.361284 -2.016664
v 0.124372 -1.342417 -2.071669
v 0.514532 -1.319331 -2.068790
v 1.265269 -1.210266 -1.654446
v 1.550220 -1.126706 -1.514095
v 1.816403 -0.917614 -1.367830
v 1.948126 -0.728172 -1.225481
v 2.048152 -0.580072 -1.095165
v 2.257887 -0.064592 -0.868694
v 2.302271 0.323194 -0.730919
v 2.268516 0.655860 -0.596329
v 1.935196 1.002233 -0.271936
v 1.675626 1.194342 -0.038463
v 1.427663 1.390197 0.192789
v 1.172138 1.603650 0.406126
v 0.788373 1.029109 1.396425
v 0.447333 1.033490 1.419584
v 0.099610 1.040252 1.443234
v -0.289606 1.051873 1.463484
v -0.677914 1.060747 1.475507
v -1.154721 1.057673 1.470622
v -1.567813 0.922330 1.399883
v -1.927788 0.695521 1.144054
v -2.199597 0.271325 0.682652
v -2.287745 0.120295 0.539801
v -2.283165 -0.080432 0.347059
v -2.272158 -0.247517 0.172821
v -2.300432 -0.405194 0.007578
v -2.215123 -0.865758 -0.331883
v -1.904852 -1.083784 -0.522847
v -1.628110 -1.208072 -0.647434
v -1.328166 -1.260743 -0.748576
v -1.056252 -1.282852 -0.853398
v -0.830874 -1.301146 -0.940292
v -0.581569 -1.319744 -0.980643
v -0.344223 -1.337366 -1.016163
v -0.121832 -1.353917 -1.050833
v 0.131044 -1.372740 -1.090254
v 0.476284 -1.398021 -1.144149
v 1.046492 -1.425697 -0.720397
v 1.251266 -1.429369 -0.615696
v 1.541059 -1.416173 -0.482886
v 1.763157 -1.235088 -0.325580
v 1.847224 -1.098286 -0.243606
v 2.128356 -0.495920 0.003351
v 2.201625 -0.105959 0.147964
v 2.191483 0.287467 0.241930
v 1.972103 0.605079 0.613038
v 1.731661 0.747080 0.864149
v 1.492276 0.890896 1.108602
v 1.169550 1.020407 1.358630
v 0.713980 0.737845 1.617461
v 0.433314 0.753851 1.629145
v 0.092669 0.772998 1.640915
v -0.280578 0.788715 1.649048
v -0.650835 0.804669 1.655083
v -1.106784 0.808900 1.637829
v -1.486493 0.664265 1.547230
v -1.836794 0.451607 1.316227
v -2.174376 0.085789 0.965534
v -2.249912 -0.095111 0.811317
v -2.278347 -0.264912 0.620169
v -2.293781 -0.412488 0.431449
v -2.299914 -0.545999 0.260935
v -2.130236 -0.931173 -0.120614
v -1.818032 -1.146825 -0.253196
v -1.530779 -1.234474 -0.346999
v -1.241751 -1.257403 -0.427685
v -0.979910 -1.278033 -0.507626
v -0.762916 -1.295136 -0.573884
v -0.524143 -1.313399 -0.627838
v -0.302670 -1.330333 -0.677885
v -0.092347 -1.346426 -0.725409
v 0.146804 -1.364712 -0.779447
v 0.473154 -1.389678 -0.853211
v 1.024529 -1.446014 -0.426523
v 1.142841 -1.505690 -0.351688
v 1.478938 -1.500501 -0.187315
v 1.713140 -1.297107 -0.051272
v 1.787038 -1.176666 0.025094
v 2.041628 -0.620805 0.284657
v 2.130227 -0.191173 0.445411
v 2.093257 0.183269 0.496186
v 1.849059 0.367627 0.846883
v 1.613004 0.485654 1.105288
v 1.383834 0.587162 1.340754
v 1.099393 0.689594 1.561423
v -1.205688 1.318496 1.288518
v -0.706691 1.328250 1.281369
v -0.301077 1.328350 1.263940
v 0.099755 1.324303 1.238848
v 0.472536 1.321438 1.212006
v 0.823215 1.319440 1.187128
v 1.214635 1.289128 1.067229
v 1.499321 1.095585 0.814985
v 1.738465 0.923850 0.575193
v 1.981733 0.750523 0.331676
v 2.246237 0.401346 -0.042055
v 2.260427 0.004089 -0.155091
v 2.202373 -0.382984 -0.290318
v 1.926982 -0.976357 -0.535317
v 1.810136 -1.159137 -0.648941
v 1.566074 -1.308960 -0.795382
v 1.315866 -1.354282 -0.904632
v 1.076617 -1.397501 -1.015181
v 0.479771 -1.400962 -1.452763
v 0.114326 -1.381260 -1.419941
v -0.153110 -1.361870 -1.396025
v -0.388303 -1.344677 -1.370084
v -0.637765 -1.326353 -1.339490
v -0.892681 -1.307300 -1.297115
v -1.137233 -1.287959 -1.220174
v -1.418990 -1.236291 -1.090074
v -1.716432 -1.142163 -0.958085
v -1.990431 -1.003240 -0.807683
v -2.271592 -0.718042 -0.592577
v -2.287554 -0.263299 -0.244948
v -2.247882 -0.096130 -0.096495
v -2.253189 0.083553 0.077988
v -2.253899 0.280334 0.260492
v -2.187445 0.466213 0.437691
v -1.973826 0.939133 0.926212
v -1.625123 1.189017 1.196380
v -1.772848 1.312047 -1.075956
v -1.294130 1.292671 -0.946403
v -0.897565 1.311418 -0.856317
v -0.531745 1.219970 -1.007375
v -0.218808 1.184423 -1.199316
v 0.054643 1.180832 -1.340845
v 0.455466 1.206230 -1.449723
v 0.861526 1.192440 -1.510039
v 1.212330 1.081018 -1.478966
v 1.569200 0.929086 -1.593619
v 2.098783 0.631944 -1.675405
v 2.148324 0.316191 -1.487060
v 2.171734 -0.086061 -1.227080
v 2.160950 -0.371242 -0.995566
v 2.118606 -0.562562 -0.714284
v 2.072751 -0.699214 -0.419207
v 1.996078 -0.824774 -0.132812
v 1.903536 -0.958018 0.131150
v 1.830692 -1.041203 0.439633
v 1.476807 -1.099882 0.957814
v 1.139395 -1.052950 1.261002
v 0.851370 -0.994494 1.519040
v 0.528867 -0.883709 1.760594
v 0.174121 -0.770412 1.951800
v -0.237100 -0.671890 2.019060
v -0.693196 -0.570821 1.961051
v -1.140193 -0.390376 1.805947
v -1.502645 -0.203477 1.598020
v -1.848206 0.017564 1.363751
v -2.049780 0.253801 1.124798
v -2.144379 0.458267 0.875618
v -2.140203 0.669939 0.642294
v -2.125448 0.892805 0.399734
v -2.121315 1.066349 0.084910
v -2.118559 1.203708 -0.264430
v -2.086665 1.320164 -0.724401
v -2.130092 0.201535 -1.731440
v -1.824136 0.121918 -1.896976
v -1.574568 0.015998 -2.006071
v -1.234230 -0.122336 -2.141643
v -0.919958 -0.251123 -2.261514
v -0.658131 -0.374491 -2.324358
v -0.312343 -0.417746 -2.334855
v -0.010061 -0.448966 -2.349849
v 0.300649 -0.475521 -2.407650
v 0.611028 -0.466469 -2.456035
v 1.115595 -0.509100 -2.280712
v 1.133015 -0.751971 -2.226697
v 1.066250 -1.071981 -2.137917
v 0.933870 -1.285856 -1.836748
v 0.840821 -1.372323 -1.498937
v 0.822001 -1.389245 -1.200902
v 0.803854 -1.412566 -0.900699
v 0.791063 -1.404752 -0.608631
v 0.766549 -1.444852 -0.291796
v 0.420215 -1.493367 -0.125146
v 0.150708 -1.501612 0.021218
v -0.076509 -1.484135 0.140488
v -0.316101 -1.463882 0.266499
v -0.594885 -1.446598 0.360975
v -0.860612 -1.375902 0.425781
v -1.204957 -1.362841 0.465586
v -1.616960 -1.263550 0.459529
v -1.904959 -1.097348 0.436539
v -2.197829 -0.815393 0.372759
v -2.286936 -0.691585 0.101694
v -2.293252 -0.586973 -0.132927
v -2.302104 -0.439970 -0.382305
v -2.301051 -0.297793 -0.632566
v -2.300396 -0.152422 -0.928801
v -2.299306 -0.036795 -1.164351
v -2.207963 0.094626 -1.478635
vt -0.000000 0.748513
vt 0.187516 0.552460
vt 0.407784 0.838130
vt 0.174863 0.975150
vt 0.329751 0.668044
vt 0.058553 0.885435
vt 0.792665 0.820744
vt 0.342618 0.114841
vt 0.590174 0.000000
vt 0.854797 0.102888
vt 0.952206 0.232286
vt 1.000000 0.375013
vt 0.987650 0.591048
vt 0.438719 0.376011
vt 0.500441 0.528396
vt 0.593953 0.660867
vt 0.808062 0.458085
vt 0.747485 0.343719
vt 0.655960 0.225368
vt 0.026476 0.705264
vt 0.542266 0.016746
vt 0.141452 0.846851
vt 0.323149 0.930070
vt 0.890084 0.727290
vt 0.756109 0.518144
vt 0.655693 0.393877
vt 0.582326 0.241146
vt 0.086173 0.645275
vt 0.454113 0.025829
vt 0.523563 0.275509
vt 0.592376 0.441114
vt 0.709876 0.578966
vt 0.379143 0.891873
vt 0.843200 0.782338
vt 0.219312 0.766012
vt 0.302903 0.447412
vt 0.352605 0.268493
vt 0.412708 0.607252
vt 0.515529 0.778924
vt 0.700750 0.753421
vt 0.788572 0.644742
vt 0.843619 0.583980
vt 0.920848 0.405513
vt 0.925913 0.527285
vt 0.862804 0.281237
vt 0.624325 0.108558
vt 0.747157 0.153935
vt 0.555593 0.133587
vt 0.484192 0.166944
vt 0.249191 0.608505
vt 0.164378 0.673966
vt 0.080916 0.752759
vt 0.010809 0.805191
vt 0.898811 0.145441
vt 0.801953 0.211020
vt 0.705590 0.280360
vt 0.605567 0.302695
vt 0.545275 0.345118
vt 0.458521 0.453223
vt 0.352377 0.516843
vt 0.123998 0.935445
vt 0.981147 0.314693
vt 0.228717 0.909950
vt 0.321139 0.818734
vt 0.370596 0.771447
vt 0.472240 0.700793
vt 0.547587 0.599979
vt 0.655397 0.513531
vt 0.714456 0.463199
vt 0.782442 0.401041
vt 0.896161 0.350072
vt 0.611181 0.426310
vt 0.558466 0.334459
vt 0.541870 0.263232
vt 0.509989 0.153669
vt 0.075590 0.658680
vt 0.471808 0.028055
vt 0.145224 0.692243
vt 0.199525 0.784994
vt 0.307062 0.832100
vt 0.367534 0.900703
vt 0.854184 0.771823
vt 0.804667 0.627311
vt 0.719829 0.568990
vt 0.668271 0.502065
vt 0.021596 0.713859
vt 0.552133 0.014089
vt 0.066743 0.763561
vt 0.125226 0.854579
vt 0.208490 0.916789
vt 0.295347 0.942035
vt 0.913319 0.703045
vt 0.863410 0.562417
vt 0.766114 0.510038
vt 0.731629 0.446967
vt 0.676585 0.382162
vt 0.634601 0.291564
vt 0.595436 0.230447
vt 0.574933 0.126142
vt 0.632035 0.410627
vt 0.581597 0.316798
vt 0.562479 0.252041
vt 0.533961 0.143347
vt 0.052911 0.680203
vt 0.503935 0.019991
vt 0.114641 0.721540
vt 0.171357 0.813779
vt 0.268441 0.873432
vt 0.347331 0.916201
vt 0.872293 0.751797
vt 0.823990 0.603442
vt 0.736749 0.544236
vt 0.693428 0.479437
vt 0.404818 0.852154
vt 0.805713 0.814724
vt 0.357347 0.784376
vt 0.299616 0.693364
vt 0.225496 0.625642
vt 0.157748 0.579178
vt 0.367170 0.082657
vt 0.383958 0.240764
vt 0.459702 0.337563
vt 0.474046 0.419279
vt 0.525917 0.505845
vt 0.577729 0.581481
vt 0.627297 0.639732
vt 0.724276 0.723138
vt 0.126460 0.607771
vt 0.403502 0.055487
vt 0.199281 0.645592
vt 0.265244 0.722540
vt 0.342246 0.799188
vt 0.398266 0.870909
vt 0.821004 0.801644
vt 0.747299 0.696028
vt 0.666500 0.615472
vt 0.610983 0.555067
vt 0.551764 0.479645
vt 0.499460 0.385064
vt 0.485984 0.302997
vt 0.421671 0.210005
vt 0.220619 0.584884
vt 0.194902 0.604374
vt 0.166554 0.628069
vt 0.129224 0.660516
vt 0.113588 0.677787
vt 0.086774 0.702611
vt 0.056307 0.731158
vt 0.046509 0.740865
vt 0.005385 0.779621
vt 0.880252 0.124089
vt 0.777591 0.187028
vt 0.685418 0.256524
vt 0.612673 0.260814
vt 0.594252 0.269523
vt 0.570733 0.284333
vt 0.549516 0.298303
vt 0.533518 0.309889
vt 0.489713 0.349688
vt 0.460740 0.385275
vt 0.446971 0.421753
vt 0.331966 0.485267
vt 0.028457 0.835032
vt 0.923690 0.174360
vt 0.088235 0.797498
vt 0.103322 0.787957
vt 0.135387 0.756361
vt 0.165038 0.727056
vt 0.184044 0.709696
vt 0.222756 0.675334
vt 0.252315 0.651707
vt 0.278732 0.631646
vt 0.374122 0.549581
vt 0.472670 0.482703
vt 0.490607 0.453290
vt 0.515794 0.422021
vt 0.559936 0.381527
vt 0.574483 0.371193
vt 0.598325 0.353083
vt 0.625154 0.338202
vt 0.651950 0.325284
vt 0.722394 0.303717
vt 0.825822 0.236241
vt 0.044874 0.862699
vt 0.941961 0.204588
vt 0.108323 0.828623
vt 0.123646 0.820571
vt 0.154918 0.787984
vt 0.183423 0.758962
vt 0.200990 0.742192
vt 0.245518 0.701549
vt 0.277687 0.674802
vt 0.306294 0.651992
vt 0.395482 0.581723
vt 0.487275 0.508149
vt 0.508160 0.482734
vt 0.532206 0.454685
vt 0.574552 0.413079
vt 0.593250 0.399476
vt 0.614634 0.385418
vt 0.640963 0.367496
vt 0.663819 0.355358
vt 0.736498 0.325370
vt 0.846968 0.259645
vt 0.170799 0.872589
vt 0.153998 0.878116
vt 0.081468 0.902713
vt 0.965662 0.260880
vt 0.877501 0.302760
vt 0.760494 0.363470
vt 0.695008 0.404666
vt 0.676592 0.416096
vt 0.652057 0.434973
vt 0.628138 0.452756
vt 0.611025 0.466501
vt 0.572193 0.506807
vt 0.543311 0.533245
vt 0.516512 0.554138
vt 0.433276 0.639384
vt 0.343249 0.705267
vt 0.319537 0.726256
vt 0.293073 0.748898
vt 0.254211 0.786646
vt 0.237007 0.802935
vt 0.204938 0.835721
vt 0.101679 0.917108
vt 0.972468 0.286519
vt 0.181519 0.898624
vt 0.200506 0.892220
vt 0.236882 0.855817
vt 0.272740 0.818035
vt 0.287058 0.805040
vt 0.319032 0.774333
vt 0.339356 0.756007
vt 0.357438 0.739009
vt 0.453636 0.670620
vt 0.532385 0.577459
vt 0.560686 0.558166
vt 0.591839 0.531736
vt 0.633999 0.490046
vt 0.647706 0.478855
vt 0.674384 0.456793
vt 0.696056 0.439045
vt 0.714091 0.425270
vt 0.771892 0.382415
vt 0.886504 0.327314
vt 0.143530 0.954502
vt 0.989944 0.340129
vt 0.241731 0.927690
vt 0.269288 0.923387
vt 0.301895 0.889869
vt 0.332899 0.861413
vt 0.345143 0.849205
vt 0.366451 0.828936
vt 0.377652 0.812923
vt 0.387785 0.799248
vt 0.491197 0.732292
vt 0.565301 0.625238
vt 0.596314 0.607904
vt 0.632191 0.582296
vt 0.679359 0.540646
vt 0.691348 0.529696
vt 0.715237 0.508036
vt 0.734501 0.488996
vt 0.747729 0.471893
vt 0.793730 0.423454
vt 0.907232 0.372070
vt 0.240103 0.485561
vt 0.340876 0.197897
vt 0.274798 0.522840
vt 0.304389 0.556638
vt 0.327951 0.585169
vt 0.351139 0.613405
vt 0.371319 0.642283
vt 0.390408 0.675813
vt 0.408621 0.706995
vt 0.425229 0.736930
vt 0.442535 0.767381
vt 0.466861 0.812767
vt 0.745248 0.788123
vt 0.763252 0.767882
vt 0.786143 0.739254
vt 0.817003 0.703489
vt 0.836876 0.690057
vt 0.852657 0.674184
vt 0.876092 0.654142
vt 0.900351 0.632351
vt 0.973880 0.386810
vt 0.968957 0.567939
vt 0.958531 0.353358
vt 0.947715 0.324788
vt 0.940322 0.304792
vt 0.927511 0.278904
vt 0.912893 0.254221
vt 0.895199 0.230761
vt 0.871353 0.204447
vt 0.849266 0.178029
vt 0.826302 0.155111
vt 0.607746 0.056199
vt 0.795189 0.123446
vt 0.560738 0.069329
vt 0.542619 0.075086
vt 0.519022 0.082877
vt 0.495133 0.093221
vt 0.471228 0.103627
vt 0.404568 0.150490
vt 0.371262 0.172023
vt 0.206534 0.519718
vt 0.340131 0.150592
vt 0.246594 0.557655
vt 0.270721 0.587975
vt 0.300864 0.610155
vt 0.326795 0.633980
vt 0.349254 0.655306
vt 0.366997 0.692926
vt 0.382023 0.725529
vt 0.395128 0.756968
vt 0.411543 0.786093
vt 0.433835 0.828017
vt 0.772349 0.807279
vt 0.787431 0.794496
vt 0.805760 0.774565
vt 0.832442 0.747379
vt 0.847644 0.735589
vt 0.864763 0.717203
vt 0.885556 0.693071
vt 0.905265 0.672818
vt 0.988814 0.380090
vt 0.980087 0.580938
vt 0.976287 0.345713
vt 0.966111 0.317055
vt 0.960137 0.295851
vt 0.949075 0.269282
vt 0.934745 0.242167
vt 0.920901 0.217124
vt 0.898852 0.187495
vt 0.876939 0.159420
vt 0.856516 0.137214
vt 0.597321 0.024106
vt 0.829063 0.110526
vt 0.554662 0.039080
vt 0.542346 0.043674
vt 0.510260 0.050158
vt 0.482642 0.061793
vt 0.465994 0.063062
vt 0.399830 0.103613
vt 0.364922 0.120806
vt 0.391851 0.625899
vt 0.371855 0.597879
vt 0.348998 0.567860
vt 0.324663 0.536937
vt 0.300140 0.502555
vt 0.266073 0.466820
vt 0.343641 0.229305
vt 0.375560 0.202598
vt 0.411739 0.176858
vt 0.476654 0.137226
vt 0.502506 0.124184
vt 0.525561 0.113547
vt 0.548935 0.105187
vt 0.568201 0.097426
vt 0.615063 0.079130
vt 0.773301 0.136146
vt 0.804663 0.168959
vt 0.827530 0.193327
vt 0.849808 0.218731
vt 0.871529 0.244003
vt 0.888237 0.267448
vt 0.901971 0.290833
vt 0.911208 0.316251
vt 0.922119 0.339184
vt 0.936313 0.361613
vt 0.950480 0.395273
vt 0.951122 0.548987
vt 0.884176 0.591748
vt 0.861663 0.612010
vt 0.839357 0.638790
vt 0.821340 0.657472
vt 0.805082 0.671261
vt 0.768953 0.716342
vt 0.745873 0.747462
vt 0.489026 0.799181
vt 0.725349 0.773673
vt 0.464239 0.752577
vt 0.447463 0.720800
vt 0.430625 0.689733
vt 0.411942 0.658927
vt 0.455368 0.567574
vt 0.438324 0.540998
vt 0.421669 0.512899
vt 0.404152 0.480888
vt 0.387227 0.448138
vt 0.366125 0.409233
vt 0.391819 0.324168
vt 0.419438 0.293153
vt 0.452132 0.258163
vt 0.504422 0.217542
vt 0.523455 0.207485
vt 0.547481 0.196269
vt 0.568577 0.186824
vt 0.589140 0.178756
vt 0.643757 0.168957
vt 0.699029 0.192918
vt 0.729936 0.220300
vt 0.752714 0.244358
vt 0.773255 0.269552
vt 0.792287 0.292337
vt 0.807681 0.311450
vt 0.819586 0.334095
vt 0.830245 0.355830
vt 0.839997 0.376256
vt 0.850614 0.399220
vt 0.864718 0.429131
vt 0.870005 0.494151
vt 0.815645 0.529417
vt 0.801044 0.546166
vt 0.781620 0.569996
vt 0.760957 0.593832
vt 0.749224 0.606682
vt 0.703539 0.657611
vt 0.673168 0.684681
vt 0.558735 0.725341
vt 0.647538 0.712091
vt 0.532587 0.685026
vt 0.514999 0.656549
vt 0.495868 0.628952
vt 0.474936 0.596472
vt 0.475785 0.546671
vt 0.461526 0.524985
vt 0.445284 0.497693
vt 0.429344 0.466282
vt 0.415157 0.433531
vt 0.398657 0.393491
vt 0.413701 0.348254
vt 0.437195 0.315537
vt 0.467363 0.280119
vt 0.512915 0.244456
vt 0.533694 0.234147
vt 0.555031 0.223103
vt 0.575069 0.212804
vt 0.593731 0.204313
vt 0.648235 0.194375
vt 0.679606 0.208199
vt 0.708056 0.236912
vt 0.729858 0.260921
vt 0.749006 0.285251
vt 0.765908 0.307815
vt 0.779325 0.326851
vt 0.791878 0.348600
vt 0.802976 0.369120
vt 0.813047 0.388941
vt 0.823878 0.411715
vt 0.837943 0.440953
vt 0.841927 0.478532
vt 0.791697 0.518550
vt 0.781787 0.528868
vt 0.760390 0.556893
vt 0.741336 0.582338
vt 0.730682 0.593037
vt 0.685124 0.637301
vt 0.648909 0.664858
vt 0.575473 0.696341
vt 0.623051 0.689462
vt 0.555899 0.657995
vt 0.534700 0.630051
vt 0.516297 0.603977
vt 0.496551 0.575899
vt 0.333583 0.427383
vt 0.370711 0.297120
vt 0.358738 0.465839
vt 0.377984 0.498334
vt 0.397555 0.530630
vt 0.416093 0.559927
vt 0.434258 0.586701
vt 0.453787 0.618555
vt 0.475345 0.650495
vt 0.493950 0.679165
vt 0.511983 0.708626
vt 0.538119 0.753478
vt 0.673878 0.733960
vt 0.698413 0.704770
vt 0.725241 0.676178
vt 0.768772 0.624716
vt 0.784665 0.606911
vt 0.805127 0.583302
vt 0.822481 0.562796
vt 0.839365 0.543551
vt 0.892994 0.417281
vt 0.898585 0.510574
vt 0.879065 0.385747
vt 0.868727 0.361958
vt 0.858927 0.340982
vt 0.847946 0.318790
vt 0.835543 0.296352
vt 0.820530 0.275782
vt 0.799463 0.252734
vt 0.777201 0.227550
vt 0.753738 0.203227
vt 0.634265 0.138035
vt 0.722821 0.172776
vt 0.582418 0.152711
vt 0.561988 0.160228
vt 0.539862 0.170026
vt 0.516281 0.181278
vt 0.493411 0.193589
vt 0.436627 0.234223
vt 0.400885 0.267338
vt 0.102610 0.629903
vt 0.432981 0.036589
vt 0.144427 0.647510
vt 0.178730 0.662118
vt 0.199822 0.695178
vt 0.219055 0.724878
vt 0.238281 0.746944
vt 0.270451 0.769384
vt 0.302180 0.790635
vt 0.330225 0.810869
vt 0.353508 0.840220
vt 0.388203 0.884456
vt 0.834240 0.790420
vt 0.821608 0.758724
vt 0.804445 0.719154
vt 0.789449 0.690503
vt 0.769841 0.668243
vt 0.748597 0.649970
vt 0.729161 0.631379
vt 0.713264 0.611698
vt 0.693014 0.594733
vt 0.659952 0.557957
vt 0.637298 0.530662
vt 0.617072 0.507807
vt 0.594031 0.484418
vt 0.572670 0.459077
vt 0.555657 0.430288
vt 0.541759 0.396705
vt 0.526066 0.360365
vt 0.514832 0.325673
vt 0.504002 0.288684
vt 0.492588 0.258450
vt 0.482613 0.232075
vt 0.469470 0.209153
vt 0.455142 0.185055
vt 0.446705 0.154954
vt 0.441783 0.121970
vt 0.438434 0.079151
vt 0.012059 0.728584
vt 0.568175 0.006665
vt 0.029785 0.757085
vt 0.043415 0.781320
vt 0.062944 0.813502
vt 0.081300 0.843225
vt 0.096812 0.867638
vt 0.123378 0.888810
vt 0.147380 0.906347
vt 0.172591 0.924043
vt 0.199359 0.937551
vt 0.245897 0.959659
vt 0.949485 0.656955
vt 0.939180 0.635285
vt 0.930375 0.603566
vt 0.912244 0.570491
vt 0.888489 0.544169
vt 0.863685 0.528045
vt 0.837825 0.512564
vt 0.812055 0.499000
vt 0.784102 0.489716
vt 0.768761 0.454167
vt 0.752240 0.429075
vt 0.738125 0.408908
vt 0.722038 0.388797
vt 0.706592 0.365858
vt 0.692899 0.343441
vt 0.676859 0.315645
vt 0.658569 0.281148
vt 0.641289 0.254804
vt 0.615149 0.225835
vt 0.613689 0.198328
vt 0.611071 0.174316
vt 0.603021 0.146905
vt 0.594736 0.119980
vt 0.586632 0.089212
vt 0.580245 0.065063
vt 0.573160 0.032725
vn -0.604068 0.535580 -0.590132
vn -0.150347 0.655934 -0.739693
vn -0.529111 0.261504 -0.807253
vn -0.740405 0.231034 -0.631209
vn 0.245514 -0.128103 -0.960892
vn -0.075874 -0.008017 -0.997085
vn 0.119248 0.141792 -0.982688
vn 0.447000 -0.058763 -0.892602
vn -0.132542 0.921178 -0.365873
vn -0.007720 0.891971 -0.452028
vn 0.065471 0.720672 -0.690178
vn -0.107245 0.792275 -0.600666
vn 0.571059 0.667001 -0.478540
vn 0.225947 0.828455 -0.512455
vn 0.465867 0.873592 -0.140731
vn 0.599513 0.794037 -0.100447
vn -0.191176 0.396490 0.897913
vn -0.031320 0.449282 0.892841
vn -0.001976 0.536109 0.844146
vn -0.181373 0.480842 0.857843
vn 0.893944 0.071958 0.442365
vn 0.799647 0.139082 0.584141
vn 0.741380 0.058231 0.668554
vn 0.808912 0.066272 0.584183
vn 0.944317 -0.122628 0.305333
vn 0.823152 -0.142037 0.549769
vn -0.071125 -0.997344 0.015717
vn -0.090782 -0.994440 -0.053366
vn -0.087539 -0.977795 -0.190402
vn -0.079979 -0.989541 -0.120049
vn -0.101424 -0.982374 -0.157018
vn -0.069523 -0.997173 0.028507
vn -0.694564 -0.718468 0.037201
vn -0.436366 -0.899582 0.018341
vn -0.406585 -0.913215 -0.026976
vn -0.630008 -0.776453 0.014488
vn -0.786817 -0.599128 0.148206
vn -0.905029 -0.421066 0.060222
vn -0.508097 0.320013 0.799643
vn -0.473881 0.216375 0.853592
vn -0.245204 0.210542 0.946334
vn -0.604991 -0.795319 0.038110
vn -0.076737 -0.975343 -0.206922
vn 0.719413 -0.118108 0.684467
vn -0.414631 0.566609 -0.712064
vn -0.049817 0.634139 -0.771613
vn -0.132399 0.484255 -0.864851
vn -0.524719 0.460107 -0.716220
vn 0.465167 0.144107 -0.873415
vn 0.249729 0.408253 -0.878046
vn 0.087098 0.587003 -0.804886
vn 0.373129 0.326655 -0.868373
vn 0.295392 -0.948832 0.111635
vn 0.127329 -0.975147 0.181316
vn -0.062498 -0.998045 -0.000188
vn -0.013909 -0.998909 -0.044582
vn -0.959720 -0.148762 0.238343
vn -0.980037 -0.102529 0.170340
vn -0.829190 -0.331158 0.450309
vn -0.794488 -0.329707 0.509982
vn -0.719923 -0.432571 0.542764
vn -0.690787 -0.370891 0.620687
vn 0.042404 -0.979521 -0.196828
vn 0.387048 -0.916698 -0.099288
vn -0.339364 0.937032 0.082488
vn -0.062358 0.998042 0.004794
vn -0.537996 0.839374 -0.077534
vn -0.953191 0.259010 -0.156016
vn -0.934185 0.293812 -0.202417
vn -0.936483 -0.033510 -0.349109
vn -0.960357 0.184637 -0.208863
vn -0.820278 -0.237727 -0.520221
vn 0.290466 -0.427583 -0.856038
vn -0.134139 -0.454461 -0.880609
vn 0.549422 -0.276958 -0.788308
vn 0.727846 -0.219986 -0.649497
vn 0.627005 -0.222925 -0.746437
vn 0.732657 0.680547 0.008379
vn 0.958504 0.253153 -0.131087
vn 0.602063 0.798110 0.023277
vn -0.056070 0.839439 -0.540554
vn -0.092711 0.795060 -0.599404
vn 0.008530 0.909407 -0.415821
vn 0.113870 0.927440 -0.356216
vn -0.101586 0.554479 -0.825974
vn -0.176041 0.567003 -0.804684
vn -0.089843 0.688996 -0.719175
vn -0.017775 0.697070 -0.716783
vn -0.044415 0.141078 -0.989002
vn -0.159603 0.248656 -0.955352
vn -0.045851 0.537467 -0.842037
vn 0.001634 0.420635 -0.907229
vn -0.186742 -0.449659 -0.873461
vn -0.399147 -0.406514 -0.821845
vn -0.141672 -0.980653 -0.135087
vn -0.120126 -0.986443 -0.111807
vn -0.069638 -0.997143 0.029269
vn -0.069723 -0.997137 0.029274
vn -0.151021 -0.982470 -0.109296
vn -0.126278 -0.984574 -0.121113
vn -0.098317 -0.906363 0.410902
vn -0.165562 -0.838659 0.518883
vn -0.112089 -0.923814 0.366064
vn -0.092612 -0.958689 0.268958
vn 0.267589 0.308079 0.912953
vn 0.125903 0.433834 0.892153
vn 0.118428 0.219236 0.968458
vn 0.337569 0.073007 0.938465
vn 0.152578 0.498538 0.853334
vn 0.074198 0.558696 0.826047
vn 0.113231 0.993506 0.011147
vn 0.307744 0.951330 0.016260
vn 0.039710 0.271450 -0.961633
vn 0.074297 0.112095 -0.990916
vn 0.031905 0.716284 -0.697080
vn -0.017629 0.571977 -0.820080
vn 0.206731 0.889050 -0.408477
vn 0.017745 0.861490 -0.507464
vn 0.493085 0.865729 -0.085911
vn 0.434378 0.344459 0.832264
vn 0.468502 0.174068 0.866144
vn 0.510995 -0.038615 0.858716
vn -0.097344 -0.980805 0.168955
vn -0.054163 -0.938687 0.340488
vn -0.130626 -0.981006 -0.143404
vn -0.120433 -0.985524 -0.119326
vn -0.070088 -0.997117 0.029075
vn 0.032517 -0.423797 -0.905173
vn -0.156060 -0.606275 0.779792
vn -0.190512 -0.752111 0.630899
vn -0.079280 -0.825935 0.558163
vn 0.014370 -0.667692 0.744299
vn -0.762409 -0.281023 0.582888
vn -0.659306 -0.347061 0.666981
vn -0.634739 -0.296581 0.713544
vn -0.730556 -0.196440 0.653987
vn -0.884554 0.030640 0.465430
vn -0.928225 -0.074308 0.364524
vn -0.320880 0.526741 -0.787134
vn -0.946023 0.234348 -0.223881
vn -0.893281 0.331301 -0.303792
vn -0.246174 0.484000 -0.839728
vn 0.181069 0.541510 -0.820964
vn 0.089109 0.584838 -0.806241
vn -0.006062 0.603051 -0.797679
vn -0.142014 0.643368 -0.752270
vn -0.276097 0.596313 -0.753778
vn -0.155924 0.394590 -0.905531
vn -0.082549 0.227605 -0.970248
vn 0.017643 0.484190 -0.874785
vn 0.319132 0.293948 -0.900971
vn -0.021403 0.460098 -0.887610
vn -0.027760 0.341178 -0.939589
vn 0.401870 0.185948 -0.896618
vn 0.876376 -0.174026 -0.449088
vn 0.833518 -0.186387 -0.520103
vn 0.714800 -0.639578 0.282843
vn 0.543518 -0.812459 0.210948
vn 0.705883 -0.708262 0.009670
vn 0.852159 -0.519826 0.060057
vn 0.528750 -0.710300 0.464648
vn 0.325279 -0.881891 0.341265
vn 0.019322 -0.866653 0.498537
vn 0.183123 -0.693682 0.696614
vn -0.098268 0.634368 -0.766760
vn -0.564383 0.530336 -0.632626
vn -0.104835 0.370642 -0.922840
vn -0.144763 0.530627 -0.835152
vn -0.086591 0.202462 -0.975454
vn 0.541322 -0.226008 -0.809871
vn 0.320851 0.011604 -0.947059
vn 0.622202 -0.199802 -0.756930
vn -0.121148 -0.981890 -0.145658
vn -0.112587 -0.977624 -0.177694
vn -0.048512 -0.996508 -0.067966
vn -0.092950 -0.990324 0.103046
vn -0.069829 -0.995342 0.066477
vn -0.092648 -0.989700 0.109131
vn -0.862195 -0.385546 0.328593
vn -0.724932 -0.585352 0.363093
vn -0.987060 -0.102208 0.123555
vn -0.958999 0.233703 -0.160325
vn 0.151117 0.649660 -0.745054
vn 0.587238 0.360916 -0.724493
vn -0.189804 0.771746 -0.606945
vn -0.118848 0.742404 -0.659326
vn -0.203771 0.814735 -0.542849
vn -0.240523 0.771613 -0.588865
vn 0.145509 0.757821 -0.636031
vn -0.830470 0.487079 -0.270323
vn -0.699739 -0.094414 0.708132
vn -0.817406 0.100274 0.567267
vn -0.592004 -0.217792 0.775950
vn 0.170616 -0.412390 0.894888
vn -0.071802 -0.310728 0.947783
vn 0.376196 -0.455840 0.806651
vn 0.791068 -0.501616 0.350131
vn 0.647645 -0.505335 0.570256
vn 0.887887 -0.451516 0.088262
vn 0.925351 -0.121740 -0.359035
vn 0.118156 0.693581 -0.710622
vn -0.148470 0.772377 -0.617568
vn -0.139723 0.852008 -0.504540
vn -0.170595 0.812767 -0.557053
vn -0.051932 0.877352 -0.477029
vn 0.634767 0.515391 -0.575710
vn 0.170941 0.733757 -0.657556
vn 0.971468 0.035774 -0.234456
vn 0.930246 -0.322274 0.175445
vn 0.826678 -0.340476 0.447973
vn 0.696840 -0.309633 0.646948
vn 0.294684 -0.153979 0.943108
vn 0.484318 -0.237194 0.842125
vn 0.031685 -0.023533 0.999221
vn -0.634464 0.054417 0.771034
vn -0.465393 -0.023287 0.884798
vn -0.698671 0.196593 0.687903
vn -0.721008 0.666700 -0.188836
vn 0.041976 0.856942 -0.513701
vn 0.029752 0.689397 -0.723773
vn 0.031348 0.708303 -0.705212
vn 0.031683 0.756243 -0.653523
vn -0.008547 0.691160 -0.722652
vn -0.012402 0.679864 -0.733233
vn -0.049938 0.709533 -0.702901
vn -0.130195 0.528415 -0.838944
vn -0.088526 0.616075 -0.782697
vn -0.066915 0.645928 -0.760460
vn -0.362597 0.256917 -0.895833
vn -0.662791 -0.360174 -0.656493
vn -0.193352 -0.981112 0.005840
vn -0.192181 -0.977333 -0.088801
vn -0.343951 -0.936747 -0.064832
vn -0.478184 -0.836037 0.269038
vn -0.540353 -0.620601 0.568219
vn -0.547994 -0.492576 0.676071
vn -0.541288 -0.448198 0.711425
vn -0.534293 -0.378629 0.755759
vn -0.447824 -0.248745 0.858824
vn -0.270809 -0.003274 0.962628
vn -0.098947 0.248856 0.963473
vn 0.007245 0.484731 0.874633
vn 0.037818 0.552718 0.832510
vn 0.062281 0.995283 -0.074389
vn -0.064834 0.613408 -0.787101
vn -0.251555 0.282820 -0.925599
vn -0.162712 0.553078 -0.817086
vn -0.120390 0.601730 -0.789574
vn -0.073357 0.687845 -0.722142
vn -0.110770 0.706654 -0.698834
vn -0.211667 0.687850 -0.694305
vn -0.126757 0.808339 -0.574910
vn -0.065858 0.739848 -0.669543
vn -0.108227 0.767080 -0.632356
vn 0.013976 0.880501 -0.473839
vn 0.091764 0.994851 -0.043021
vn 0.050873 0.561963 0.825596
vn 0.039052 0.488802 0.871520
vn -0.030827 0.270121 0.962333
vn -0.134044 0.016303 0.990841
vn -0.370368 -0.491029 0.788491
vn -0.269405 -0.258249 0.927755
vn -0.377183 -0.608164 0.698477
vn -0.349799 -0.681187 0.643137
vn -0.287353 -0.821538 0.492447
vn -0.213267 -0.962010 0.170450
vn -0.104495 -0.988785 -0.106701
vn -0.145284 -0.981141 -0.127493
vn -0.084172 -0.996206 0.022107
vn -0.550409 -0.391224 -0.737559
vn 0.026784 0.622929 -0.781820
vn -0.085602 0.242124 -0.966462
vn -0.099591 0.162550 -0.981662
vn -0.000921 0.626271 -0.779605
vn 0.094367 -0.017283 -0.995387
vn -0.042418 0.204230 -0.978004
vn -0.144109 0.268407 -0.952465
vn -0.148806 0.023917 -0.988577
vn -0.161638 -0.343674 -0.925074
vn 0.077582 -0.362978 -0.928563
vn -0.070001 -0.997134 0.028707
vn -0.069817 -0.997151 0.028550
vn -0.133511 -0.977814 -0.161413
vn -0.143265 -0.978546 -0.148064
vn -0.110770 -0.980556 -0.161985
vn -0.136516 -0.981367 -0.135213
vn -0.081281 -0.993822 0.075570
vn -0.067071 -0.997044 0.037483
vn -0.037037 -0.999300 0.005241
vn -0.058529 -0.998266 0.006223
vn 0.063919 -0.976932 0.203760
vn 0.016927 -0.965698 0.259116
vn 0.203973 -0.897763 0.390406
vn 0.147813 -0.889312 0.432754
vn 0.323220 -0.721677 0.612137
vn 0.381364 -0.729133 0.568267
vn 0.537308 -0.486385 0.689007
vn 0.484614 -0.474810 0.734646
vn 0.621579 -0.101948 0.776690
vn 0.572693 -0.269391 0.774242
vn 0.619647 -0.277792 0.734077
vn 0.663917 -0.109815 0.739699
vn 0.649810 0.052855 0.758256
vn 0.698962 0.043673 0.713824
vn 0.745470 0.151637 0.649061
vn 0.686397 0.184289 0.703489
vn 0.312897 0.879821 -0.357786
vn 0.555984 0.825038 -0.100968
vn 0.552320 0.832130 -0.050026
vn 0.350175 0.900000 -0.259573
vn 0.129395 0.872059 -0.471985
vn 0.166553 0.862026 -0.478718
vn 0.099101 0.870983 -0.481215
vn 0.166386 0.818581 -0.549765
vn -0.028477 0.149082 -0.988415
vn 0.050734 0.718380 -0.693799
vn 0.161206 0.713128 -0.682247
vn 0.000327 0.289514 -0.957174
vn -0.069243 0.410443 -0.909253
vn -0.051018 0.421276 -0.905497
vn -0.009149 0.713098 -0.701004
vn -0.019032 0.681745 -0.731343
vn -0.239824 0.652409 0.718921
vn -0.006850 0.650489 0.759485
vn -0.064898 0.807674 0.586047
vn -0.351209 0.766923 0.537104
vn 0.081225 0.818852 0.568229
vn 0.059376 0.666560 0.743083
vn 0.139137 0.844170 0.517705
vn 0.102672 0.707492 0.699224
vn 0.222239 0.869481 0.441149
vn 0.170105 0.765871 0.620085
vn 0.348578 0.873551 0.339709
vn 0.290675 0.817088 0.497870
vn 0.543337 0.814844 0.202025
vn 0.533458 0.767059 0.356430
vn 0.664386 0.741588 0.092946
vn 0.703453 0.666904 0.245751
vn 0.660218 0.745796 0.088891
vn 0.718834 0.660421 0.217076
vn 0.731938 0.671645 0.114717
vn 0.800469 0.562804 0.206156
vn 0.896640 0.435413 0.080328
vn 0.941409 0.304837 0.144300
vn 0.999551 -0.001219 -0.029934
vn 0.997433 -0.059988 0.039096
vn 0.979684 -0.169429 -0.107298
vn 0.973481 -0.227442 -0.024587
vn 0.900102 -0.383843 -0.206109
vn 0.936971 -0.306348 -0.168033
vn 0.923006 -0.375871 -0.082349
vn 0.888686 -0.443661 -0.115770
vn 0.859187 -0.449043 -0.245270
vn 0.786149 -0.589032 -0.187113
vn 0.738196 -0.582404 -0.340400
vn 0.591841 -0.773476 -0.226848
vn 0.571995 -0.723070 -0.387287
vn 0.413270 -0.886179 -0.209512
vn 0.457716 -0.809720 -0.367220
vn 0.265350 -0.947923 -0.176156
vn 0.181817 -0.920957 -0.344647
vn 0.346157 -0.876191 -0.335358
vn 0.179145 -0.973950 -0.139028
vn 0.079876 -0.987937 -0.132669
vn -0.025868 -0.997383 -0.067519
vn -0.012553 -0.947336 -0.319995
vn -0.056821 -0.952816 -0.298183
vn -0.044672 -0.998965 -0.008608
vn -0.054668 -0.952376 -0.299986
vn -0.067608 -0.997624 0.013216
vn -0.104526 -0.942763 -0.316658
vn -0.087790 -0.996137 0.001886
vn -0.198794 -0.933604 -0.298103
vn -0.108789 -0.993716 -0.026334
vn -0.221523 -0.973759 -0.052168
vn -0.354376 -0.885254 -0.301235
vn -0.513170 -0.809646 -0.284834
vn -0.380805 -0.922073 -0.069058
vn -0.619969 -0.733489 -0.278627
vn -0.509197 -0.853467 -0.110963
vn -0.821549 -0.529967 -0.210220
vn -0.747855 -0.653120 -0.118939
vn -0.968138 -0.234900 -0.086785
vn -0.946958 -0.315739 -0.059833
vn -0.999714 -0.022720 0.007430
vn -0.999694 0.024717 -0.000807
vn -0.985720 0.158626 -0.056522
vn -0.995265 0.092566 -0.029636
vn -0.999010 0.018756 0.040352
vn -0.997929 0.029078 0.057380
vn -0.971332 0.235943 -0.029065
vn -0.992063 0.115981 0.048583
vn -0.978105 0.208102 -0.002232
vn -0.978613 0.203237 0.031790
vn -0.992204 0.124294 0.009040
vn -0.984922 0.169351 0.035340
vn -0.970039 0.201535 0.135674
vn -0.981480 0.171354 0.085641
vn -0.666048 0.617173 0.418900
vn -0.872936 0.410709 0.263249
vn -0.840052 0.410858 0.354272
vn -0.607595 0.571181 0.551888
vn -0.360366 0.881711 0.304503
vn -0.093895 0.957370 0.273178
vn 0.078362 0.967768 0.239340
vn 0.137638 0.961204 0.239047
vn 0.198687 0.943480 0.265273
vn 0.366558 0.906198 0.210807
vn 0.553983 0.828339 0.083408
vn 0.637562 0.770181 0.018342
vn 0.622730 0.781956 0.027431
vn 0.653934 0.754831 0.050996
vn 0.807194 0.590000 0.018393
vn 0.985819 0.118075 -0.119244
vn 0.975769 -0.077628 -0.204568
vn 0.937452 -0.195897 -0.287765
vn 0.903742 -0.258056 -0.341550
vn 0.867489 -0.275254 -0.414364
vn 0.768483 -0.343663 -0.539750
vn 0.659488 -0.412602 -0.628359
vn 0.611169 -0.488914 -0.622443
vn 0.488075 -0.611692 -0.622588
vn 0.263514 -0.711053 -0.651893
vn -0.051930 -0.740155 -0.670429
vn -0.119257 -0.660472 -0.741319
vn 0.005943 -0.659293 -0.751863
vn -0.060298 -0.699504 -0.712080
vn -0.228944 -0.714087 -0.661562
vn -0.430977 -0.673135 -0.600956
vn -0.585482 -0.599993 -0.545178
vn -0.681577 -0.521599 -0.513214
vn -0.850148 -0.344759 -0.397982
vn -0.967660 -0.103190 -0.230186
vn -0.986800 0.124062 -0.104093
vn -0.974862 0.206114 -0.084628
vn -0.974154 0.211370 -0.079665
vn -0.979700 0.191906 -0.057966
vn -0.989229 0.144501 -0.023360
vn -0.993957 0.108986 -0.013123
vn -0.976555 0.214827 0.013763
vn -0.848660 0.510207 0.139514
vn -0.667796 0.700714 0.251096
vn 0.095132 0.618178 0.780260
vn 0.186338 0.690839 0.698584
vn 0.070896 0.587120 0.806390
vn 0.044306 0.582061 0.811937
vn 0.009067 0.588853 0.808189
vn -0.176508 0.582091 0.793735
vn -0.560822 0.486485 0.669934
vn -0.817896 0.350535 0.456258
vn -0.974731 0.207226 0.083407
vn -0.953163 0.217158 0.210531
vn -0.984007 0.174482 0.035859
vn -0.999433 0.033613 -0.001933
vn -0.998534 0.031228 0.044208
vn -0.997014 0.058937 0.049891
vn -0.895255 -0.440733 -0.065373
vn -0.996865 -0.078415 0.010544
vn -0.649549 -0.752833 -0.106436
vn -0.408124 -0.909601 -0.077855
vn -0.259458 -0.965407 -0.025902
vn -0.134769 -0.990684 0.019538
vn -0.069716 -0.997138 0.029238
vn -0.069552 -0.997152 0.029162
vn -0.069437 -0.997168 0.028895
vn -0.067106 -0.997399 0.026293
vn -0.059472 -0.998082 0.017195
vn -0.000037 -0.999978 -0.006695
vn 0.060134 -0.996278 -0.061756
vn 0.266416 -0.941544 -0.206197
vn 0.152291 -0.980326 -0.125568
vn 0.469341 -0.854016 -0.224447
vn 0.733198 -0.667263 -0.131077
vn 0.874699 -0.483998 -0.025443
vn 0.908338 -0.418224 0.003329
vn 0.988728 -0.095177 0.115581
vn 0.958212 -0.280328 0.056971
vn 0.952878 0.229424 0.198467
vn 0.830340 0.482197 0.279323
vn 0.742899 0.581953 0.330804
vn 0.717339 0.586223 0.376521
vn 0.499463 0.681129 0.535351
vn 0.118836 0.585007 0.802275
vn 0.063651 0.587187 0.806945
vn 0.059321 0.586222 0.807976
vn 0.046229 0.583557 0.810755
vn 0.010448 0.577037 0.816651
vn -0.162153 0.535497 0.828824
vn -0.522891 0.395288 0.755204
vn -0.763645 0.282101 0.580745
vn -0.911915 0.209088 0.353119
vn -0.956722 0.209149 0.202334
vn -0.984354 0.145574 0.099276
vn -0.999221 0.030338 -0.025258
vn -0.996808 0.077726 -0.018224
vn -0.997723 0.066629 0.010421
vn -0.980096 -0.198331 0.008815
vn -0.808495 -0.587392 -0.036147
vn -0.544470 -0.836101 -0.066987
vn -0.307468 -0.950486 -0.045155
vn -0.151237 -0.988460 -0.008659
vn -0.088662 -0.995829 0.021518
vn -0.069654 -0.997142 0.029269
vn -0.069650 -0.997142 0.029272
vn -0.069653 -0.997142 0.029276
vn -0.069658 -0.997141 0.029281
vn -0.067077 -0.997401 0.026289
vn -0.035184 -0.999373 0.004076
vn -0.027042 -0.999300 -0.025839
vn 0.008517 -0.995029 -0.099218
vn 0.129675 -0.967370 -0.217670
vn 0.434392 -0.882596 -0.179798
vn 0.733052 -0.677763 -0.057211
vn 0.862085 -0.505792 0.031364
vn 0.894427 -0.442090 0.067509
vn 0.941505 -0.313417 0.123845
vn 0.972349 -0.129599 0.194272
vn 0.944370 0.154169 0.290513
vn 0.842664 0.330400 0.425151
vn 0.768764 0.391753 0.505501
vn 0.720860 0.405412 0.562140
vn 0.441594 0.518557 0.732184
s 1
g Boulder_LOW Rocks_Group
f 487/546/1 488/548/2 123/150/3 1/1/4
f 4/4/5 215/247/6 496/556/7 497/557/8
f 2/2/9 115/142/10 116/143/11 95/119/12
f 91/114/13 222/255/14 223/256/15 3/3/16
f 8/14/17 133/161/18 383/432/19 384/433/20
f 410/462/21 411/464/22 225/258/23 9/16/24
f 409/461/25 410/463/21 9/16/24 101/126/26
f 402/454/27 504/565/28 505/566/29 10/17/30
f 10/17/30 233/266/31 401/452/32 402/453/27
f 392/443/33 393/444/34 125/153/35 12/19/36
f 12/19/36 515/576/37 516/577/38 392/442/33
f 384/434/20 385/435/39 97/122/40 8/14/17
f 97/122/40 132/160/41 133/161/18 8/14/17
f 12/19/36 125/153/35 514/575/42 515/576/37
f 505/566/29 506/567/43 233/266/31 10/17/30
f 9/16/24 225/258/23 226/259/44 101/126/26
f 83/104/45 120/147/46 121/148/47 13/20/48
f 15/23/49 217/250/50 218/251/51 87/109/52
f 89/112/53 230/263/54 231/264/55 16/25/56
f 389/439/57 390/440/58 18/27/59 81/102/60
f 18/27/59 127/155/61 128/156/62 81/102/60
f 404/456/63 405/457/64 89/112/53 16/25/56
f 271/308/65 272/310/66 115/142/10 2/2/9
f 95/120/12 306/347/67 271/309/65 2/8/9
f 13/21/48 301/342/68 302/343/69 83/105/45
f 299/339/70 522/583/71 487/547/1 1/9/4
f 123/151/3 298/338/72 299/340/70 1/10/4
f 289/328/73 290/330/74 215/248/6 4/12/5
f 497/558/8 498/559/75 289/329/73 4/13/5
f 87/110/52 286/325/76 287/326/77 15/24/49
f 3/7/16 281/320/78 282/321/79 91/115/13
f 223/256/15 280/318/80 281/319/78 3/3/16
f 93/117/81 162/192/82 163/193/83 5/5/84
f 14/22/85 157/187/86 158/188/87 85/107/88
f 6/6/89 155/184/90 491/551/91 492/552/92
f 294/334/93 295/335/94 155/185/90 6/11/89
f 11/18/95 173/203/96 396/447/97 397/448/98
f 510/571/99 511/572/100 173/203/96 11/18/95
f 79/100/101 170/200/102 171/201/103 17/26/104
f 7/15/105 165/195/106 166/196/107 99/124/108
f 379/428/109 380/429/110 165/195/106 7/15/105
f 163/193/83 275/313/111 276/314/112 5/5/84
f 492/552/92 493/553/113 177/207/114 6/6/89
f 85/107/88 194/225/115 175/205/116 14/22/85
f 5/5/84 189/220/117 190/221/118 93/117/81
f 5/5/84 276/314/112 277/315/119 189/220/117
f 414/467/120 379/428/109 7/15/105 187/218/121
f 99/124/108 186/217/122 187/218/121 7/15/105
f 181/212/123 182/213/124 79/100/101 17/26/104
f 11/18/95 179/210/125 509/570/126 510/571/99
f 397/448/98 398/449/127 179/210/125 11/18/95
f 177/208/114 293/333/128 294/334/93 6/11/89
f 168/198/129 169/199/130 55/72/131 21/31/132
f 57/74/133 129/157/134 130/158/135 20/30/136
f 387/437/137 388/438/138 57/74/133 20/30/136
f 59/77/139 303/344/140 304/345/141 19/29/142
f 118/145/143 119/146/144 59/76/139 19/28/142
f 61/79/145 159/189/146 160/190/147 24/35/148
f 192/223/149 193/224/150 61/79/145 24/35/148
f 63/81/151 219/252/152 220/253/153 23/33/154
f 23/34/154 284/323/155 285/324/156 63/82/151
f 22/32/157 65/84/158 406/458/159 407/459/160
f 228/261/161 229/262/162 65/84/158 22/32/157
f 21/31/132 55/72/131 183/214/163 184/215/164
f 121/148/47 122/149/165 67/86/166 13/20/48
f 69/89/167 156/186/168 157/187/86 14/22/85
f 175/205/116 176/206/169 69/89/167 14/22/85
f 71/91/170 216/249/171 217/250/50 15/23/49
f 15/24/49 287/326/77 288/327/172 71/92/170
f 16/25/56 73/94/173 403/455/174 404/456/63
f 231/264/55 232/265/175 73/94/173 16/25/56
f 75/96/176 180/211/177 181/212/123 17/26/104
f 171/201/103 172/202/178 75/96/176 17/26/104
f 77/98/179 126/154/180 127/155/61 18/27/59
f 390/440/58 391/441/181 77/98/179 18/27/59
f 67/87/166 300/341/182 301/342/68 13/21/48
f 55/72/131 169/199/130 170/200/102 79/100/101
f 81/102/60 128/156/62 129/157/134 57/74/133
f 388/438/138 389/439/57 81/102/60 57/74/133
f 83/105/45 302/343/69 303/344/140 59/77/139
f 59/76/139 119/146/144 120/147/46 83/104/45
f 85/107/88 158/188/87 159/189/146 61/79/145
f 61/79/145 193/224/150 194/225/115 85/107/88
f 87/109/52 218/251/51 219/252/152 63/81/151
f 63/82/151 285/324/156 286/325/76 87/110/52
f 405/457/64 406/458/159 65/84/158 89/112/53
f 65/84/158 229/262/162 230/263/54 89/112/53
f 182/213/124 183/214/163 55/72/131 79/100/101
f 220/253/153 460/518/183 461/519/184 23/33/154
f 456/514/185 457/515/186 192/223/149 24/35/148
f 160/190/147 455/513/187 456/514/185 24/35/148
f 451/508/188 452/510/189 118/145/143 19/28/142
f 19/29/142 304/345/141 486/545/190 451/509/188
f 20/30/136 479/538/191 480/539/192 387/437/137
f 130/158/135 478/537/193 479/538/191 20/30/136
f 474/533/194 475/534/195 168/198/129 21/31/132
f 184/215/164 473/532/196 474/533/194 21/31/132
f 469/528/197 470/529/198 228/261/161 22/32/157
f 407/459/160 468/527/199 469/528/197 22/32/157
f 461/520/184 462/521/200 284/323/155 23/34/154
f 95/119/12 116/143/11 117/144/201 103/128/202
f 105/131/203 161/191/204 162/192/82 93/117/81
f 93/117/81 190/221/118 191/222/205 105/131/203
f 107/133/206 221/254/207 222/255/14 91/114/13
f 91/115/13 282/321/79 283/322/208 107/134/206
f 408/460/209 409/461/25 101/126/26 109/136/210
f 101/126/26 226/259/44 227/260/211 109/136/210
f 111/138/212 185/216/213 186/217/122 99/124/108
f 99/124/108 166/196/107 167/197/214 111/138/212
f 113/140/215 131/159/216 132/160/41 97/122/40
f 385/435/39 386/436/217 113/140/215 97/122/40
f 103/129/202 305/346/218 306/347/67 95/120/12
f 116/143/11 115/142/10 35/50/219 94/118/220
f 117/144/201 116/143/11 94/118/220 104/130/221
f 118/145/143 452/510/189 453/511/222 36/51/223
f 36/51/223 60/78/224 119/146/144 118/145/143
f 120/147/46 119/146/144 60/78/224 84/106/225
f 121/148/47 120/147/46 84/106/225 37/52/226
f 37/52/226 68/88/227 122/149/165 121/148/47
f 123/150/3 488/548/2 489/549/228 38/53/229
f 38/54/229 297/337/230 298/338/72 123/151/3
f 393/444/34 394/445/231 40/56/232 125/153/35
f 513/574/233 514/575/42 125/153/35 40/56/232
f 127/155/61 126/154/180 76/97/234 41/57/235
f 128/156/62 127/155/61 41/57/235 80/101/236
f 129/157/134 128/156/62 80/101/236 56/73/237
f 130/158/135 129/157/134 56/73/237 42/58/238
f 42/58/238 477/536/239 478/537/193 130/158/135
f 132/160/41 131/159/216 112/139/240 98/123/241
f 133/161/18 132/160/41 98/123/241 43/59/242
f 382/431/243 383/432/19 133/161/18 43/59/242
f 115/142/10 272/310/66 273/311/244 35/50/219
f 489/549/228 490/550/245 135/163/246 38/53/229
f 137/166/247 136/165/248 68/88/227 37/52/226
f 138/167/249 137/166/247 37/52/226 84/106/225
f 139/168/250 138/167/249 84/106/225 60/78/224
f 140/169/251 139/168/250 60/78/224 36/51/223
f 36/51/223 453/511/222 454/512/252 140/169/251
f 142/171/253 141/170/254 104/130/221 94/118/220
f 143/172/255 142/171/253 94/118/220 35/50/219
f 35/50/219 273/311/244 274/312/256 143/172/255
f 381/430/257 382/431/243 43/59/242 145/174/258
f 146/175/259 145/174/258 43/59/242 98/123/241
f 147/176/260 146/175/259 98/123/241 112/139/240
f 148/177/261 476/535/262 477/536/239 42/58/238
f 42/58/238 56/73/237 149/178/263 148/177/261
f 150/179/264 149/178/263 56/73/237 80/101/236
f 151/180/265 150/179/264 80/101/236 41/57/235
f 41/57/235 76/97/234 152/181/266 151/180/265
f 153/182/267 512/573/268 513/574/233 40/56/232
f 394/445/231 395/446/269 153/182/267 40/56/232
f 135/164/246 296/336/270 297/337/230 38/54/229
f 490/550/245 491/551/91 155/184/90 135/163/246
f 157/187/86 156/186/168 136/165/248 137/166/247
f 158/188/87 157/187/86 137/166/247 138/167/249
f 159/189/146 158/188/87 138/167/249 139/168/250
f 160/190/147 159/189/146 139/168/250 140/169/251
f 140/169/251 454/512/252 455/513/187 160/190/147
f 162/192/82 161/191/204 141/170/254 142/171/253
f 163/193/83 162/192/82 142/171/253 143/172/255
f 143/172/255 274/312/256 275/313/111 163/193/83
f 380/429/110 381/430/257 145/174/258 165/195/106
f 166/196/107 165/195/106 145/174/258 146/175/259
f 167/197/214 166/196/107 146/175/259 147/176/260
f 168/198/129 475/534/195 476/535/262 148/177/261
f 148/177/261 149/178/263 169/199/130 168/198/129
f 170/200/102 169/199/130 149/178/263 150/179/264
f 171/201/103 170/200/102 150/179/264 151/180/265
f 151/180/265 152/181/266 172/202/178 171/201/103
f 173/203/96 511/572/100 512/573/268 153/182/267
f 395/446/269 396/447/97 173/203/96 153/182/267
f 155/185/90 295/335/94 296/336/270 135/164/246
f 46/63/271 70/90/272 196/228/273 197/229/274
f 195/226/275 494/554/276 495/555/277 45/61/278
f 45/62/278 291/331/279 292/332/280 195/227/275
f 399/450/281 400/451/282 53/70/283 213/245/284
f 507/568/285 508/569/286 213/245/284 53/70/283
f 211/243/287 212/244/288 74/95/289 52/69/290
f 90/113/291 210/242/292 211/243/287 52/69/290
f 66/85/293 209/241/294 210/242/292 90/113/291
f 208/240/295 209/241/294 66/85/293 51/68/296
f 51/68/296 471/530/297 472/531/298 208/240/295
f 206/238/299 207/239/300 110/137/301 100/125/302
f 205/237/303 206/238/299 100/125/302 50/67/304
f 412/465/305 413/466/306 205/237/303 50/67/304
f 203/235/307 278/316/308 279/317/309 48/65/310
f 202/234/311 203/235/307 48/65/310 92/116/312
f 201/233/313 202/234/311 92/116/312 106/132/314
f 200/232/315 458/516/316 459/517/317 47/64/318
f 47/64/318 62/80/319 199/231/320 200/232/315
f 198/230/321 199/231/320 62/80/319 86/108/322
f 197/229/274 198/230/321 86/108/322 46/63/271
f 177/207/114 493/553/113 494/554/276 195/226/275
f 197/229/274 196/228/273 176/206/169 175/205/116
f 175/205/116 194/225/115 198/230/321 197/229/274
f 194/225/115 193/224/150 199/231/320 198/230/321
f 200/232/315 199/231/320 193/224/150 192/223/149
f 192/223/149 457/515/186 458/516/316 200/232/315
f 191/222/205 190/221/118 202/234/311 201/233/313
f 190/221/118 189/220/117 203/235/307 202/234/311
f 189/220/117 277/315/119 278/316/308 203/235/307
f 413/466/306 414/467/120 187/218/121 205/237/303
f 187/218/121 186/217/122 206/238/299 205/237/303
f 186/217/122 185/216/213 207/239/300 206/238/299
f 208/240/295 472/531/298 473/532/196 184/215/164
f 184/215/164 183/214/163 209/241/294 208/240/295
f 210/242/292 209/241/294 183/214/163 182/213/124
f 211/243/287 210/242/292 182/213/124 181/212/123
f 181/212/123 180/211/177 212/244/288 211/243/287
f 508/569/286 509/570/126 179/210/125 213/245/284
f 398/449/127 399/450/281 213/245/284 179/210/125
f 195/227/275 292/332/280 293/333/128 177/208/114
f 495/555/277 496/556/7 215/247/6 45/61/278
f 217/250/50 216/249/171 70/90/272 46/63/271
f 218/251/51 217/250/50 46/63/271 86/108/322
f 219/252/152 218/251/51 86/108/322 62/80/319
f 220/253/153 219/252/152 62/80/319 47/64/318
f 47/64/318 459/517/317 460/518/183 220/253/153
f 222/255/14 221/254/207 106/132/314 92/116/312
f 223/256/15 222/255/14 92/116/312 48/65/310
f 48/65/310 279/317/309 280/318/80 223/256/15
f 411/464/22 412/465/305 50/67/304 225/258/23
f 226/259/44 225/258/23 50/67/304 100/125/302
f 227/260/211 226/259/44 100/125/302 110/137/301
f 228/261/161 470/529/198 471/530/297 51/68/296
f 51/68/296 66/85/293 229/262/162 228/261/161
f 230/263/54 229/262/162 66/85/293 90/113/291
f 231/264/55 230/263/54 90/113/291 52/69/290
f 52/69/290 74/95/289 232/265/175 231/264/55
f 233/266/31 506/567/43 507/568/285 53/70/283
f 400/451/282 401/452/32 233/266/31 53/70/283
f 215/248/6 290/330/74 291/331/279 45/62/278
f 25/36/323 134/162/324 311/352/325 312/353/326
f 310/351/327 311/352/325 134/162/324 44/60/328
f 309/350/329 310/351/327 44/60/328 144/173/330
f 308/349/331 309/350/329 144/173/330 164/194/332
f 307/348/333 308/349/331 164/194/332 26/38/334
f 342/387/335 307/348/333 26/38/334 188/219/336
f 341/386/337 342/387/335 188/219/336 204/236/338
f 340/385/339 341/386/337 204/236/338 49/66/340
f 339/384/341 340/385/339 49/66/340 224/257/342
f 338/382/343 339/384/341 224/257/342 27/39/344
f 337/381/345 338/383/343 27/40/344 102/127/346
f 336/380/347 337/381/345 102/127/346 108/135/348
f 335/379/349 464/523/350 465/524/351 28/41/352
f 334/378/353 335/379/349 28/41/352 64/83/354
f 333/377/355 334/378/353 64/83/354 88/111/356
f 332/376/357 333/377/355 88/111/356 29/42/358
f 331/375/359 332/376/357 29/42/358 72/93/360
f 330/374/361 500/561/362 501/562/363 30/44/364
f 30/43/364 234/267/365 329/372/366 330/373/361
f 328/371/367 329/372/366 234/267/365 54/71/368
f 327/370/369 328/371/367 54/71/368 214/246/370
f 326/369/371 327/370/369 214/246/370 178/209/372
f 325/368/373 326/369/371 178/209/372 31/45/374
f 31/45/374 174/204/375 324/367/376 325/368/373
f 323/366/377 324/367/376 174/204/375 154/183/378
f 322/365/379 323/366/377 154/183/378 39/55/380
f 321/364/381 322/365/379 39/55/380 124/152/382
f 320/363/383 321/364/381 124/152/382 32/47/384
f 32/46/384 519/580/385 520/581/386 320/362/383
f 318/360/387 319/361/388 78/99/389 33/48/390
f 317/359/391 318/360/387 33/48/390 82/103/392
f 316/358/393 317/359/391 82/103/392 58/75/394
f 315/357/395 316/358/393 58/75/394 34/49/396
f 483/542/397 484/543/398 315/357/395 34/49/396
f 313/355/399 314/356/400 114/141/401 96/121/402
f 312/354/326 313/355/399 96/121/402 25/37/323
f 235/268/403 236/270/404 272/310/66 271/308/65
f 273/311/244 272/310/66 236/270/404 237/271/405
f 274/312/256 273/311/244 237/271/405 238/272/406
f 275/313/111 274/312/256 238/272/406 239/273/407
f 276/314/112 275/313/111 239/273/407 240/274/408
f 277/315/119 276/314/112 240/274/408 241/275/409
f 278/316/308 277/315/119 241/275/409 242/276/410
f 279/317/309 278/316/308 242/276/410 243/277/411
f 280/318/80 279/317/309 243/277/411 244/278/412
f 281/319/78 280/318/80 244/278/412 245/279/413
f 282/321/79 281/320/78 245/280/413 246/281/414
f 283/322/208 282/321/79 246/281/414 247/282/415
f 284/323/155 462/521/200 463/522/416 248/283/417
f 285/324/156 284/323/155 248/283/417 249/284/418
f 286/325/76 285/324/156 249/284/418 250/285/419
f 287/326/77 286/325/76 250/285/419 251/286/420
f 288/327/172 287/326/77 251/286/420 252/287/421
f 289/329/73 498/559/75 499/560/422 253/289/423
f 253/288/423 254/290/424 290/330/74 289/328/73
f 291/331/279 290/330/74 254/290/424 255/291/425
f 292/332/280 291/331/279 255/291/425 256/292/426
f 293/333/128 292/332/280 256/292/426 257/293/427
f 294/334/93 293/333/128 257/293/427 258/294/428
f 258/294/428 259/295/429 295/335/94 294/334/93
f 296/336/270 295/335/94 259/295/429 260/296/430
f 297/337/230 296/336/270 260/296/430 261/297/431
f 298/338/72 297/337/230 261/297/431 262/298/432
f 299/340/70 298/338/72 262/298/432 263/300/433
f 263/299/433 521/582/434 522/583/71 299/339/70
f 301/342/68 300/341/182 264/301/435 265/302/436
f 302/343/69 301/342/68 265/302/436 266/303/437
f 303/344/140 302/343/69 266/303/437 267/304/438
f 304/345/141 303/344/140 267/304/438 268/305/439
f 485/544/440 486/545/190 304/345/141 268/305/439
f 306/347/67 305/346/218 269/306/441 270/307/442
f 271/309/65 306/347/67 270/307/442 235/269/403
f 240/274/408 239/273/407 308/349/331 307/348/333
f 239/273/407 238/272/406 309/350/329 308/349/331
f 238/272/406 237/271/405 310/351/327 309/350/329
f 237/271/405 236/270/404 311/352/325 310/351/327
f 312/353/326 311/352/325 236/270/404 235/268/403
f 235/269/403 270/307/442 313/355/399 312/354/326
f 270/307/442 269/306/441 314/356/400 313/355/399
f 484/543/398 485/544/440 268/305/439 315/357/395
f 268/305/439 267/304/438 316/358/393 315/357/395
f 267/304/438 266/303/437 317/359/391 316/358/393
f 266/303/437 265/302/436 318/360/387 317/359/391
f 265/302/436 264/301/435 319/361/388 318/360/387
f 320/362/383 520/581/386 521/582/434 263/299/433
f 263/300/433 262/298/432 321/364/381 320/363/383
f 262/298/432 261/297/431 322/365/379 321/364/381
f 261/297/431 260/296/430 323/366/377 322/365/379
f 260/296/430 259/295/429 324/367/376 323/366/377
f 325/368/373 324/367/376 259/295/429 258/294/428
f 258/294/428 257/293/427 326/369/371 325/368/373
f 257/293/427 256/292/426 327/370/369 326/369/371
f 256/292/426 255/291/425 328/371/367 327/370/369
f 255/291/425 254/290/424 329/372/366 328/371/367
f 330/373/361 329/372/366 254/290/424 253/288/423
f 253/289/423 499/560/422 500/561/362 330/374/361
f 252/287/421 251/286/420 332/376/357 331/375/359
f 251/286/420 250/285/419 333/377/355 332/376/357
f 250/285/419 249/284/418 334/378/353 333/377/355
f 249/284/418 248/283/417 335/379/349 334/378/353
f 248/283/417 463/522/416 464/523/350 335/379/349
f 247/282/415 246/281/414 337/381/345 336/380/347
f 246/281/414 245/280/413 338/383/343 337/381/345
f 245/279/413 244/278/412 339/384/341 338/382/343
f 244/278/412 243/277/411 340/385/339 339/384/341
f 243/277/411 242/276/410 341/386/337 340/385/339
f 242/276/410 241/275/409 342/387/335 341/386/337
f 241/275/409 240/274/408 307/348/333 342/387/335
f 164/194/332 419/473/443 420/474/444 26/38/334
f 144/173/330 418/472/445 419/473/443 164/194/332
f 44/60/328 417/471/446 418/472/445 144/173/330
f 134/162/324 416/470/447 417/471/446 44/60/328
f 415/468/448 416/470/447 134/162/324 25/36/323
f 96/121/402 450/507/449 415/469/448 25/37/323
f 114/141/401 449/506/450 450/507/449 96/121/402
f 448/505/451 482/541/452 483/542/397 34/49/396
f 58/75/394 447/504/453 448/505/451 34/49/396
f 82/103/392 446/503/454 447/504/453 58/75/394
f 33/48/390 445/502/455 446/503/454 82/103/392
f 78/99/389 444/501/456 445/502/455 33/48/390
f 443/499/457 518/579/458 519/580/385 32/46/384
f 124/152/382 442/498/459 443/500/457 32/47/384
f 39/55/380 441/497/460 442/498/459 124/152/382
f 154/183/378 440/496/461 441/497/460 39/55/380
f 174/204/375 439/495/462 440/496/461 154/183/378
f 438/494/463 439/495/462 174/204/375 31/45/374
f 178/209/372 437/493/464 438/494/463 31/45/374
f 214/246/370 436/492/465 437/493/464 178/209/372
f 54/71/368 435/491/466 436/492/465 214/246/370
f 234/267/365 434/490/467 435/491/466 54/71/368
f 433/488/468 434/490/467 234/267/365 30/43/364
f 501/562/363 502/563/469 433/489/468 30/44/364
f 431/486/470 432/487/471 72/93/360 29/42/358
f 88/111/356 430/485/472 431/486/470 29/42/358
f 64/83/354 429/484/473 430/485/472 88/111/356
f 428/483/474 429/484/473 64/83/354 28/41/352
f 465/524/351 466/525/475 428/483/474 28/41/352
f 102/127/346 426/481/476 427/482/477 108/135/348
f 27/40/344 425/480/478 426/481/476 102/127/346
f 224/257/342 424/478/479 425/479/478 27/39/344
f 49/66/340 423/477/480 424/478/479 224/257/342
f 204/236/338 422/476/481 423/477/480 49/66/340
f 188/219/336 421/475/482 422/476/481 204/236/338
f 26/38/334 420/474/444 421/475/482 188/219/336
f 343/388/483 344/389/484 380/429/110 379/428/109
f 344/389/484 345/390/485 381/430/257 380/429/110
f 345/390/485 346/391/486 382/431/243 381/430/257
f 346/391/486 347/392/487 383/432/19 382/431/243
f 384/433/20 383/432/19 347/392/487 348/393/488
f 348/394/488 349/395/489 385/435/39 384/434/20
f 349/395/489 350/396/490 386/436/217 385/435/39
f 387/437/137 480/539/192 481/540/491 351/397/492
f 351/397/492 352/398/493 388/438/138 387/437/137
f 352/398/493 353/399/494 389/439/57 388/438/138
f 353/399/494 354/400/495 390/440/58 389/439/57
f 354/400/495 355/401/496 391/441/181 390/440/58
f 392/442/33 516/577/38 517/578/497 356/402/498
f 356/403/498 357/404/499 393/444/34 392/443/33
f 357/404/499 358/405/500 394/445/231 393/444/34
f 358/405/500 359/406/501 395/446/269 394/445/231
f 359/406/501 360/407/502 396/447/97 395/446/269
f 397/448/98 396/447/97 360/407/502 361/408/503
f 361/408/503 362/409/504 398/449/127 397/448/98
f 362/409/504 363/410/505 399/450/281 398/449/127
f 363/410/505 364/411/506 400/451/282 399/450/281
f 364/411/506 365/412/507 401/452/32 400/451/282
f 402/453/27 401/452/32 365/412/507 366/413/508
f 366/414/508 503/564/509 504/565/28 402/454/27
f 404/456/63 403/455/174 367/415/510 368/416/511
f 368/416/511 369/417/512 405/457/64 404/456/63
f 369/417/512 370/418/513 406/458/159 405/457/64
f 407/459/160 406/458/159 370/418/513 371/419/514
f 371/419/514 467/526/515 468/527/199 407/459/160
f 372/420/516 373/421/517 409/461/25 408/460/209
f 373/421/517 374/423/518 410/463/21 409/461/25
f 374/422/518 375/424/519 411/464/22 410/462/21
f 375/424/519 376/425/520 412/465/305 411/464/22
f 376/425/520 377/426/521 413/466/306 412/465/305
f 377/426/521 378/427/522 414/467/120 413/466/306
f 378/427/522 343/388/483 379/428/109 414/467/120
f 348/393/488 347/392/487 416/470/447 415/468/448
f 417/471/446 416/470/447 347/392/487 346/391/486
f 418/472/445 417/471/446 346/391/486 345/390/485
f 419/473/443 418/472/445 345/390/485 344/389/484
f 420/474/444 419/473/443 344/389/484 343/388/483
f 421/475/482 420/474/444 343/388/483 378/427/522
f 422/476/481 421/475/482 378/427/522 377/426/521
f 423/477/480 422/476/481 377/426/521 376/425/520
f 424/478/479 423/477/480 376/425/520 375/424/519
f 425/479/478 424/478/479 375/424/519 374/422/518
f 426/481/476 425/480/478 374/423/518 373/421/517
f 427/482/477 426/481/476 373/421/517 372/420/516
f 428/483/474 466/525/475 467/526/515 371/419/514
f 371/419/514 370/418/513 429/484/473 428/483/474
f 430/485/472 429/484/473 370/418/513 369/417/512
f 431/486/470 430/485/472 369/417/512 368/416/511
f 368/416/511 367/415/510 432/487/471 431/486/470
f 433/489/468 502/563/469 503/564/509 366/414/508
f 366/413/508 365/412/507 434/490/467 433/488/468
f 435/491/466 434/490/467 365/412/507 364/411/506
f 436/492/465 435/491/466 364/411/506 363/410/505
f 437/493/464 436/492/465 363/410/505 362/409/504
f 438/494/463 437/493/464 362/409/504 361/408/503
f 361/408/503 360/407/502 439/495/462 438/494/463
f 440/496/461 439/495/462 360/407/502 359/406/501
f 441/497/460 440/496/461 359/406/501 358/405/500
f 442/498/459 441/497/460 358/405/500 357/404/499
f 443/500/457 442/498/459 357/404/499 356/403/498
f 356/402/498 517/578/497 518/579/458 443/499/457
f 445/502/455 444/501/456 355/401/496 354/400/495
f 446/503/454 445/502/455 354/400/495 353/399/494
f 447/504/453 446/503/454 353/399/494 352/398/493
f 448/505/451 447/504/453 352/398/493 351/397/492
f 351/397/492 481/540/491 482/541/452 448/505/451
f 450/507/449 449/506/450 350/396/490 349/395/489
f 415/469/448 450/507/449 349/395/489 348/394/488
f 103/128/202 117/144/201 452/510/189 451/508/188
f 453/511/222 452/510/189 117/144/201 104/130/221
f 454/512/252 453/511/222 104/130/221 141/170/254
f 455/513/187 454/512/252 141/170/254 161/191/204
f 456/514/185 455/513/187 161/191/204 105/131/203
f 105/131/203 191/222/205 457/515/186 456/514/185
f 458/516/316 457/515/186 191/222/205 201/233/313
f 459/517/317 458/516/316 201/233/313 106/132/314
f 460/518/183 459/517/317 106/132/314 221/254/207
f 461/519/184 460/518/183 221/254/207 107/133/206
f 107/134/206 283/322/208 462/521/200 461/520/184
f 463/522/416 462/521/200 283/322/208 247/282/415
f 464/523/350 463/522/416 247/282/415 336/380/347
f 465/524/351 464/523/350 336/380/347 108/135/348
f 108/135/348 427/482/477 466/525/475 465/524/351
f 467/526/515 466/525/475 427/482/477 372/420/516
f 468/527/199 467/526/515 372/420/516 408/460/209
f 469/528/197 468/527/199 408/460/209 109/136/210
f 109/136/210 227/260/211 470/529/198 469/528/197
f 471/530/297 470/529/198 227/260/211 110/137/301
f 472/531/298 471/530/297 110/137/301 207/239/300
f 473/532/196 472/531/298 207/239/300 185/216/213
f 474/533/194 473/532/196 185/216/213 111/138/212
f 111/138/212 167/197/214 475/534/195 474/533/194
f 476/535/262 475/534/195 167/197/214 147/176/260
f 477/536/239 476/535/262 147/176/260 112/139/240
f 478/537/193 477/536/239 112/139/240 131/159/216
f 479/538/191 478/537/193 131/159/216 113/140/215
f 480/539/192 479/538/191 113/140/215 386/436/217
f 481/540/491 480/539/192 386/436/217 350/396/490
f 482/541/452 481/540/491 350/396/490 449/506/450
f 483/542/397 482/541/452 449/506/450 114/141/401
f 314/356/400 484/543/398 483/542/397 114/141/401
f 269/306/441 485/544/440 484/543/398 314/356/400
f 305/346/218 486/545/190 485/544/440 269/306/441
f 451/509/188 486/545/190 305/346/218 103/129/202
f 67/86/166 122/149/165 488/548/2 487/546/1
f 489/549/228 488/548/2 122/149/165 68/88/227
f 136/165/248 490/550/245 489/549/228 68/88/227
f 156/186/168 491/551/91 490/550/245 136/165/248
f 492/552/92 491/551/91 156/186/168 69/89/167
f 69/89/167 176/206/169 493/553/113 492/552/92
f 494/554/276 493/553/113 176/206/169 196/228/273
f 495/555/277 494/554/276 196/228/273 70/90/272
f 216/249/171 496/556/7 495/555/277 70/90/272
f 497/557/8 496/556/7 216/249/171 71/91/170
f 71/92/170 288/327/172 498/559/75 497/558/8
f 499/560/422 498/559/75 288/327/172 252/287/421
f 500/561/362 499/560/422 252/287/421 331/375/359
f 501/562/363 500/561/362 331/375/359 72/93/360
f 72/93/360 432/487/471 502/563/469 501/562/363
f 503/564/509 502/563/469 432/487/471 367/415/510
f 504/565/28 503/564/509 367/415/510 403/455/174
f 505/566/29 504/565/28 403/455/174 73/94/173
f 73/94/173 232/265/175 506/567/43 505/566/29
f 507/568/285 506/567/43 232/265/175 74/95/289
f 212/244/288 508/569/286 507/568/285 74/95/289
f 180/211/177 509/570/126 508/569/286 212/244/288
f 510/571/99 509/570/126 180/211/177 75/96/176
f 75/96/176 172/202/178 511/572/100 510/571/99
f 512/573/268 511/572/100 172/202/178 152/181/266
f 513/574/233 512/573/268 152/181/266 76/97/234
f 126/154/180 514/575/42 513/574/233 76/97/234
f 515/576/37 514/575/42 126/154/180 77/98/179
f 516/577/38 515/576/37 77/98/179 391/441/181
f 517/578/497 516/577/38 391/441/181 355/401/496
f 518/579/458 517/578/497 355/401/496 444/501/456
f 519/580/385 518/579/458 444/501/456 78/99/389
f 520/581/386 519/580/385 78/99/389 319/361/388
f 521/582/434 520/581/386 319/361/388 264/301/435
f 522/583/71 521/582/434 264/301/435 300/341/182
f 487/547/1 522/583/71 300/341/182 67/87/166
