# Blender 5.1.1
# www.blender.org
mtllib TutorialMap.mtl
o Cube
v 19.943150 13.044579 120.131340
v 19.943150 -0.960000 120.131340
v 15.441443 15.610659 138.624893
v 15.441443 -0.960000 138.624893
v -17.289379 13.044579 119.625114
v -17.289379 -0.960000 119.625114
v -15.640112 15.610659 138.231888
v -15.640112 -0.960000 138.231888
v 5.563341 10.514175 90.481163
v 5.563341 -0.960000 90.481163
v -9.148776 10.514175 91.849541
v -9.148776 -0.960000 91.849541
v 3.169123 9.463641 70.878876
v 3.169123 -0.960000 70.878876
v -15.049388 9.463641 66.367966
v -15.049388 -0.960000 66.367966
v 13.114448 9.463641 57.786324
v 13.114448 -0.960000 57.786324
v -0.158498 9.463641 49.337376
v -0.158498 -0.960000 49.337376
v 26.649794 9.463641 55.532101
v 26.649794 -0.960000 55.532101
v 20.485683 9.463641 40.706417
v 20.485683 -0.960000 40.706417
v 44.730778 9.463641 53.072376
v 44.730778 -0.960000 53.072376
v 39.227158 8.752359 38.875286
v 39.227158 -0.960000 38.875286
v 66.456680 8.752359 42.810303
v 66.456680 -0.960000 42.810303
v 53.472973 5.840337 34.931564
v 53.472973 -0.960000 34.931564
v 69.358383 7.211630 27.536377
v 69.358383 -0.960000 27.536377
v 52.892654 4.952338 21.399796
v 52.892654 -0.960000 21.399796
v 64.742310 7.065671 8.489893
v 64.742310 -0.960000 8.489893
v 53.249249 7.065671 -6.208623
v 53.249249 -0.960000 -6.208623
v 42.954582 7.065671 9.120333
v 42.954582 -0.960000 9.120333
v 28.593895 5.233649 -16.664200
v 28.593895 -0.960000 -16.664200
v 26.314608 7.065671 2.358711
v 26.314608 -0.960000 2.358711
v 11.128923 5.233649 -14.447314
v 11.128923 -0.960000 -14.447314
v 2.284267 7.065671 5.589106
v 2.284267 -0.960000 5.589106
v -9.270377 5.233649 -10.444571
v -9.270377 -0.960000 -10.444571
v -22.719622 7.065671 0.165664
v -22.719622 -0.960000 0.165664
v -20.922760 3.397538 -26.514267
v -20.922760 -0.960000 -26.514267
v -33.346077 3.397538 -20.378593
v -33.346077 -0.960000 -20.378593
v -24.050215 3.978365 -40.554035
v -24.050215 -0.960000 -40.554035
v -44.946911 3.978365 -37.438927
v -44.946911 -0.960000 -37.438927
v -30.996468 2.854572 -57.451698
v -30.996468 -0.960000 -57.451698
v -48.917278 3.565855 -66.698723
v -48.917278 -0.960000 -66.698723
v -17.789789 3.565855 -62.794857
v -17.789789 -0.960000 -62.794857
v -22.482670 3.632993 -78.648453
v -22.482670 -0.960000 -78.648453
v 12.572221 3.565855 -61.108791
v 12.572221 -0.960000 -61.108791
v 12.110970 3.632993 -76.338898
v 12.110970 -0.960000 -76.338898
v 37.139687 3.565855 -64.694176
v 37.139687 -0.960000 -64.694176
v 30.832863 3.333199 -82.997414
v 30.832863 -0.960000 -82.997414
v 52.039761 3.333199 -78.443962
v 52.039761 -0.960000 -78.443962
v 42.814964 3.333199 -93.239990
v 42.814964 -0.960000 -93.239990
v 65.115112 3.789427 -92.264496
v 65.115112 -0.960000 -92.264496
v 48.678123 3.789427 -105.042702
v 48.678123 -0.960000 -105.042702
v 67.144592 3.789427 -104.991173
v 67.144592 -0.960000 -104.991173
v 44.886902 3.789427 -125.041946
v 44.886902 -0.960000 -125.041946
v 38.538750 3.789427 -118.629692
v 38.538750 -0.960000 -118.629692
v 28.729616 3.102247 -136.979599
v 28.729616 -0.818293 -136.979599
v 19.969646 3.423008 -123.542686
v 19.969646 -0.818293 -123.542686
v 9.076200 3.102247 -144.989380
v 9.076200 -0.818293 -144.989380
v -10.114223 3.102247 -136.254959
v -10.114223 -0.818293 -136.254959
v -26.907494 3.243954 -166.887390
v -26.907494 -0.960000 -166.887390
v -45.390015 3.243954 -157.612839
v -45.390015 -0.960000 -157.612839
v -59.065441 3.564713 -179.368256
v -59.065441 -0.960000 -179.368256
v -80.136497 3.243954 -171.031052
v -80.136497 -2.792021 -171.031052
v -69.240379 4.773209 -191.562302
v -69.240379 -0.960000 -191.562302
v -98.377510 4.773209 -191.874069
v -98.377510 -2.792021 -191.874069
v -81.177017 4.773209 -210.303391
v -81.177017 -2.792021 -210.303391
v -53.147720 4.773209 -208.261215
v -53.147720 -0.960000 -208.261215
v -59.447994 5.176040 -226.949387
v -59.447994 -0.960000 -226.949387
v -29.463488 4.706070 -239.085236
v -29.463488 -0.960000 -239.085236
v -42.652420 4.706070 -250.055939
v -42.652420 -0.960000 -250.055939
v -10.213488 5.422257 -258.647552
v -10.213488 -0.960000 -258.647552
v -23.225714 5.422257 -265.715790
v -23.225714 -0.960000 -265.715790
v 7.654848 5.329720 -280.374817
v 7.654848 -0.960000 -280.374817
v -12.416524 5.329720 -281.439270
v -12.416524 -0.960000 -281.439270
v 12.231669 4.023311 -317.372314
v 12.231669 -1.011298 -317.372314
v -8.749953 4.023311 -316.024567
v -8.749953 -1.011298 -316.024567
v 13.426785 4.023311 -333.316650
v 13.426785 -1.011298 -333.316650
v -11.365625 4.023311 -332.901550
v -11.365625 -1.011298 -332.901550
v 11.783877 4.023311 -343.383575
v 11.783877 -1.011298 -343.383575
v -13.008535 4.023311 -342.968414
v -13.008535 -1.011298 -342.968414
v 6.110475 4.023311 -349.407745
v 6.110475 -1.011298 -349.407745
v -6.782219 4.023311 -349.168304
v -6.782219 -1.011298 -349.168304
v 1.830527 4.023311 -350.903992
v 1.830527 -1.011298 -350.903992
v -2.977727 4.023311 -350.783844
v -2.977727 -1.011298 -350.783844
v -48.029442 3.632993 -78.518822
v -48.029442 -0.960000 -78.518822
v -36.163773 3.632993 -90.451233
v -36.163773 -0.960000 -90.451233
v -67.641983 3.148162 -80.667145
v -67.641983 -2.606996 -80.667145
v -62.510929 3.148162 -97.256851
v -62.510929 -0.774974 -97.256851
v -99.055923 3.158843 -88.367050
v -99.055923 -2.617676 -88.367050
v -90.056435 3.158843 -105.539101
v -90.056435 -2.617676 -105.539101
v -133.498428 3.516779 -97.712601
v -133.498428 -2.792027 -97.712601
v -108.651405 3.516779 -108.450737
v -108.651405 -2.792027 -108.450737
v -142.019196 3.516779 -110.947121
v -142.019196 -2.792027 -110.947121
v -121.132065 3.516779 -117.565750
v -121.132065 -2.792027 -117.565750
v -139.891113 3.516779 -125.371521
v -139.891113 -2.792027 -125.371521
v -136.234604 5.120579 -145.037949
v -136.234604 -2.792027 -145.037949
v -118.726097 5.120579 -140.971909
v -118.726097 -2.492233 -140.971909
v -125.014740 5.090920 -164.662079
v -124.460281 -2.819379 -164.720139
v -102.738487 4.195942 -158.089874
v -102.461258 -2.777195 -158.118881
v -112.718369 4.773209 -180.667221
v -112.718369 -2.792022 -180.667221
v 41.524586 3.687527 -162.479599
v 41.524586 -1.403572 -162.479599
v 25.225437 3.687527 -161.157776
v 25.225437 -1.403572 -161.157776
v 19.816158 5.619613 -234.475830
v 19.816158 -1.403572 -234.475830
v 9.714700 5.619613 -228.270706
v 9.714700 -1.403572 -228.270706
v 16.533337 6.941308 -266.629700
v 16.533337 -0.647030 -266.629700
v 1.852303 5.109287 -254.576935
v 1.852303 -0.647030 -254.576935
v 41.524586 3.687527 -162.479599
v 41.524586 -1.403572 -162.479599
v 25.225437 3.687527 -161.157776
v 25.225437 -1.403572 -161.157776
v 38.924046 5.216782 -192.017715
v 38.924046 -1.403572 -192.017715
v 23.522430 5.216782 -187.828735
v 23.522430 -1.403572 -187.828735
v 28.852247 5.216782 -214.425690
v 28.852247 -1.403572 -214.425690
v 13.802898 5.216782 -209.085480
v 13.802898 -1.403572 -209.085480
v 19.816158 5.619613 -234.475830
v 19.816158 -1.403572 -234.475830
v 9.714700 5.619613 -228.270706
v 9.714700 -1.403572 -228.270706
v 10.924397 15.610659 144.279037
v 61.489708 3.789427 -113.507019
v 61.489708 -0.960000 -113.507019
v 10.924397 -0.960000 144.279037
v -11.203491 15.610659 143.886047
v -11.203491 -0.960000 143.886047
vn 0.0018 0.9906 -0.1369
vn -0.7867 -0.0000 0.6173
vn -0.9961 -0.0000 0.0883
vn -0.0000 -1.0000 -0.0000
vn 0.9716 -0.0000 0.2365
vn -0.0015 0.9962 -0.0876
vn 0.9926 -0.0000 -0.1212
vn 0.8998 -0.0000 -0.4364
vn -0.9596 -0.0000 -0.2813
vn -0.9742 -0.0000 0.2256
vn 0.0045 0.9989 -0.0474
vn -0.0000 1.0000 -0.0000
vn -0.3857 -0.0000 -0.9226
vn 0.7963 -0.0000 0.6049
vn -0.7528 -0.0000 -0.6582
vn -0.0972 -0.0000 -0.9953
vn 0.1643 -0.0000 0.9864
vn 0.0265 0.9827 -0.1835
vn 0.0157 0.9994 -0.0308
vn 0.1348 -0.0000 0.9909
vn -0.1288 0.9872 -0.0936
vn 0.4271 -0.0000 0.9042
vn -0.2668 -0.0000 -0.9638
vn 0.9824 -0.0000 0.1866
vn -0.9991 -0.0000 0.0428
vn -0.1461 0.9889 0.0278
vn 0.9719 -0.0000 -0.2355
vn 0.3904 -0.0000 -0.9206
vn 0.0022 0.9971 0.0764
vn 0.7878 -0.0000 -0.6160
vn -0.7773 -0.0000 0.6291
vn 0.1332 -0.0000 0.9911
vn -0.3765 -0.0000 0.9264
vn -0.0192 0.9980 -0.0602
vn 0.0036 0.9932 -0.1161
vn -0.0127 0.9952 -0.0970
vn -0.1259 -0.0000 -0.9920
vn -0.8882 -0.0000 0.4594
vn -0.1925 -0.0000 -0.9813
vn -0.2120 -0.0000 0.9773
vn -0.8269 -0.0000 0.5623
vn -0.0188 0.9903 -0.1374
vn 0.8096 -0.0000 -0.5870
vn 0.0245 0.9989 -0.0390
vn 0.0092 0.9994 0.0330
vn 0.9761 -0.0000 -0.2174
vn -0.0000 1.0000 0.0028
vn 0.9249 -0.0000 -0.3802
vn -0.9909 -0.0000 0.1345
vn -0.0044 0.9994 0.0349
vn 0.3750 -0.0000 0.9270
vn -0.0003 1.0000 0.0044
vn -0.0554 -0.0000 0.9985
vn 0.0666 -0.0000 -0.9978
vn -0.3351 -0.0000 -0.9422
vn 0.0017 1.0000 -0.0078
vn 0.0055 1.0000 -0.0060
vn 0.1444 -0.0000 0.9895
vn 0.7264 -0.0000 0.6873
vn 0.6782 -0.0000 0.7349
vn -0.6498 -0.0000 -0.7601
vn -0.8956 -0.0000 -0.4449
vn -0.0213 0.9996 0.0198
vn 0.9875 -0.0000 0.1575
vn -0.2558 -0.0000 0.9667
vn 0.5706 -0.0000 -0.8212
vn -0.8014 -0.0000 0.5981
vn -0.3892 -0.0000 0.9211
vn -0.0060 -1.0000 -0.0045
vn -0.0164 0.9995 -0.0287
vn 0.5942 -0.0000 -0.8043
vn 0.0018 1.0000 0.0037
vn -0.0003 0.9999 -0.0148
vn -0.3602 -0.0000 0.9329
vn 0.5199 -0.0000 -0.8543
vn -0.5179 -0.0000 0.8554
vn 0.0018 -1.0000 0.0037
vn 0.0639 -0.9964 -0.0550
vn 0.0362 -0.9991 -0.0227
vn -0.0012 0.9999 0.0155
vn 0.3618 -0.0000 -0.9322
vn 0.0060 0.9970 0.0774
vn 0.7678 -0.0000 -0.6407
vn -0.6157 -0.0000 -0.7879
vn -0.7311 -0.0000 -0.6823
vn -0.0008 0.9999 0.0112
vn 0.0620 -0.9964 0.0579
vn 0.7930 -0.0000 0.6093
vn 0.7201 -0.0000 0.6939
vn -0.6081 -0.0000 -0.7938
vn 0.0639 -0.9978 0.0177
vn -0.6276 -0.0000 -0.7785
vn -0.8089 -0.0000 -0.5880
vn 0.0167 0.9999 0.0026
vn -0.0159 0.9996 0.0231
vn 0.7128 -0.0000 0.7014
vn -0.0003 0.9993 -0.0365
vn 0.9972 -0.0000 0.0747
vn 0.9924 -0.0000 0.1228
vn -0.9944 -0.0000 -0.1054
vn -0.0000 -1.0000 0.0014
vn -0.9869 -0.0000 0.1611
vn -0.9882 -0.0000 0.1532
vn 0.9869 -0.0000 -0.1611
vn 0.7280 -0.0000 -0.6856
vn -0.7056 -0.0000 -0.7086
vn -0.0250 -0.0000 -0.9997
vn 0.3300 -0.0000 -0.9440
vn -0.3909 -0.0000 -0.9204
vn -0.0189 0.9998 -0.0113
vn 0.6532 -0.0000 -0.7572
vn -0.9972 -0.0000 -0.0749
vn 0.0003 1.0000 0.0001
vn -0.1089 -0.0000 0.9941
vn 0.0396 -0.9984 -0.0405
vn 0.2501 -0.0000 -0.9682
vn 0.0051 -1.0000 0.0062
vn -0.2381 -0.0000 0.9712
vn 0.0414 -0.9985 -0.0369
vn 0.2879 -0.0000 -0.9576
vn 0.1547 -0.0000 -0.9880
vn 0.0105 0.9999 0.0128
vn -0.2619 -0.0000 0.9651
vn -0.9893 -0.0000 -0.1460
vn -0.8408 -0.0000 0.5413
vn 0.5898 -0.0000 -0.8076
vn 0.0101 -0.9999 -0.0055
vn 0.0246 0.9997 -0.0078
vn 0.9948 -0.0000 0.1023
vn -0.0232 0.9972 0.0710
vn -0.9832 -0.0000 -0.1828
vn 0.0020 -1.0000 -0.0002
vn -0.8628 -0.0284 -0.5047
vn 0.0053 -0.9999 0.0125
vn 0.7283 0.0125 0.6851
vn -0.0001 -1.0000 0.0004
vn 0.0375 0.9993 0.0090
vn -0.7989 -0.0264 -0.6008
vn 0.0403 0.9989 0.0223
vn 0.4989 0.0087 0.8666
vn -0.0046 -0.9997 0.0249
vn 0.8938 -0.0000 0.4485
vn -0.0046 0.9997 0.0249
vn -0.7075 -0.0000 -0.7067
vn -0.0167 -0.9996 -0.0227
vn -0.8241 -0.0000 -0.5665
vn 0.8400 -0.0000 -0.5426
vn 0.0010 1.0000 -0.0042
vn -0.0580 0.9983 -0.0045
vn 0.9948 -0.0000 -0.1016
vn -0.0558 0.9981 0.0245
vn -0.9581 -0.0000 0.2864
vn 0.0164 -0.9997 0.0158
vn -0.3197 -0.0000 0.9475
vn 0.0093 0.9985 0.0536
vn -0.9094 -0.0000 0.4158
vn -0.9980 -0.0000 0.0637
vn 0.9961 -0.0000 -0.0877
vn 0.0082 0.9998 0.0178
vn 0.9121 -0.0000 -0.4100
vn -0.9780 -0.0000 0.2084
vn 0.9117 -0.0000 -0.4109
vn -0.0178 -0.0000 0.9998
vn 0.8331 -0.0000 -0.5532
vn 0.7813 -0.0000 0.6242
vt 0.625000 0.500000
vt 0.875000 0.500000
vt 0.875000 0.750000
vt 0.625000 0.750000
vt 0.625000 0.000000
vt 0.375000 0.000000
vt 0.625000 0.250000
vt 0.375000 0.250000
vt 0.125000 0.500000
vt 0.375000 0.500000
vt 0.375000 0.750000
vt 0.125000 0.750000
vt 0.622099 0.500000
vt 0.377901 0.500000
vt 0.375000 0.500000
vt 0.625000 0.500000
vt 0.625000 1.000000
vt 0.375000 1.000000
s 0
usemtl Material
f 1/1/1 5/2/1 7/3/1 3/4/1
f 7/5/2 8/6/2 216/6/2 215/5/2
f 8/6/3 7/5/3 5/7/3 6/8/3
f 6/9/4 2/10/4 4/11/4 8/12/4
f 2/10/5 1/1/5 3/4/5 4/11/5
f 5/2/6 1/1/6 9/1/6 11/2/6
f 9/1/7 10/10/7 14/10/7 13/1/7
f 1/1/8 2/10/8 10/10/8 9/1/8
f 6/8/9 5/7/9 11/7/9 12/8/9
f 2/10/4 6/9/4 12/9/4 10/10/4
f 12/8/10 11/7/10 15/7/10 16/8/10
f 10/10/4 12/9/4 16/9/4 14/10/4
f 11/2/11 9/1/11 13/1/11 15/2/11
f 15/2/12 13/1/12 17/1/12 19/2/12
f 20/8/13 19/7/13 23/7/13 24/8/13
f 13/1/14 14/10/14 18/10/14 17/1/14
f 16/8/15 15/7/15 19/7/15 20/8/15
f 14/10/4 16/9/4 20/9/4 18/10/4
f 24/8/16 23/7/16 27/7/16 28/8/16
f 18/10/4 20/9/4 24/9/4 22/10/4
f 19/2/12 17/1/12 21/1/12 23/2/12
f 17/1/17 18/10/17 22/10/17 21/1/17
f 27/2/18 25/1/18 29/1/18 31/2/18
f 22/10/4 24/9/4 28/9/4 26/10/4
f 23/2/19 21/1/19 25/1/19 27/2/19
f 21/1/20 22/10/20 26/10/20 25/1/20
f 31/2/21 29/1/21 33/1/21 35/2/21
f 25/1/22 26/10/22 30/10/22 29/1/22
f 28/8/23 27/7/23 31/7/23 32/8/23
f 26/10/4 28/9/4 32/9/4 30/10/4
f 29/1/24 30/10/24 34/10/24 33/1/24
f 32/8/25 31/7/25 35/7/25 36/8/25
f 30/10/4 32/9/4 36/9/4 34/10/4
f 38/10/4 36/9/4 42/9/4 40/10/4
f 34/10/4 36/9/4 38/10/4
f 35/2/26 33/1/26 37/1/26
f 33/1/27 34/10/27 38/10/27 37/1/27
f 39/1/28 40/10/28 44/10/28 43/1/28
f 35/2/29 37/1/29 39/1/29 41/2/29
f 37/1/30 38/10/30 40/10/30 39/1/30
f 36/8/31 35/7/31 41/7/31 42/8/31
f 46/8/32 45/7/32 49/7/32 50/8/32
f 42/8/33 41/7/33 45/7/33 46/8/33
f 40/10/4 42/9/4 46/9/4 44/10/4
f 41/2/34 39/1/34 43/1/34 45/2/34
f 49/2/35 47/1/35 51/1/35 53/2/35
f 44/10/4 46/9/4 50/9/4 48/10/4
f 45/2/36 43/1/36 47/1/36 49/2/36
f 43/1/37 44/10/37 48/10/37 47/1/37
f 54/8/38 53/7/38 57/7/38 58/8/38
f 47/1/39 48/10/39 52/10/39 51/1/39
f 50/8/40 49/7/40 53/7/40 54/8/40
f 48/10/4 50/9/4 54/9/4 52/10/4
f 58/8/41 57/7/41 61/7/41 62/8/41
f 52/10/4 54/9/4 58/9/4 56/10/4
f 53/2/42 51/1/42 55/1/42 57/2/42
f 51/1/43 52/10/43 56/10/43 55/1/43
f 61/2/44 59/1/44 63/1/44 65/2/44
f 56/10/4 58/9/4 62/9/4 60/10/4
f 57/2/45 55/1/45 59/1/45 61/2/45
f 55/1/46 56/10/46 60/10/46 59/1/46
f 65/2/47 69/2/47 153/2/47 151/2/47
f 59/1/48 60/10/48 64/10/48 63/1/48
f 62/8/49 61/7/49 65/7/49 66/8/49
f 60/10/4 62/9/4 66/9/4 64/10/4
f 68/10/4 70/9/4 74/9/4 72/10/4
f 64/10/4 66/9/4 70/9/4 68/10/4
f 65/2/50 63/1/50 67/1/50 69/2/50
f 63/1/51 64/10/51 68/10/51 67/1/51
f 69/2/52 67/1/52 71/1/52 73/2/52
f 67/1/53 68/10/53 72/10/53 71/1/53
f 70/8/54 69/7/54 73/7/54 74/8/54
f 74/8/55 73/7/55 77/7/55 78/8/55
f 77/2/56 75/1/56 79/1/56 81/2/56
f 72/10/4 74/9/4 78/9/4 76/10/4
f 73/2/57 71/1/57 75/1/57 77/2/57
f 71/1/58 72/10/58 76/10/58 75/1/58
f 79/1/59 80/10/59 84/10/59 83/1/59
f 75/1/60 76/10/60 80/10/60 79/1/60
f 78/8/61 77/7/61 81/7/61 82/8/61
f 76/10/4 78/9/4 82/9/4 80/10/4
f 82/8/62 81/7/62 85/7/62 86/8/62
f 80/10/4 82/9/4 86/9/4 84/10/4
f 81/2/63 79/1/63 83/1/63 85/2/63
f 85/2/12 212/13/12 89/1/12 91/2/12
f 84/10/4 86/9/4 88/10/4
f 85/2/12 83/1/12 87/1/12
f 83/1/64 84/10/64 88/10/64 87/1/64
f 92/8/65 91/7/65 95/7/65 96/8/65
f 212/13/66 213/14/66 90/10/66 89/1/66
f 86/8/67 85/7/67 91/7/67 92/8/67
f 213/14/4 86/9/4 92/9/4 90/10/4
f 96/8/68 95/7/68 99/7/68 100/8/68
f 90/10/69 92/9/69 96/9/69 94/10/69
f 91/2/70 89/1/70 93/1/70 95/2/70
f 89/1/71 90/10/71 94/10/71 93/1/71
f 99/2/72 97/1/72 101/1/72 103/2/72
f 94/10/4 96/9/4 100/9/4 98/10/4
f 95/2/73 93/1/73 97/1/73 99/2/73
f 104/8/74 103/7/74 107/7/74 108/8/74
f 97/1/75 98/10/75 102/10/75 101/1/75
f 100/8/76 99/7/76 103/7/76 104/8/76
f 98/10/77 100/9/77 104/9/77 102/10/77
f 106/10/78 108/9/78 112/9/78 110/10/78
f 102/10/79 104/9/79 108/9/79 106/10/79
f 103/2/80 101/1/80 105/1/80 107/2/80
f 101/1/81 102/10/81 106/10/81 105/1/81
f 107/2/82 105/1/82 109/1/82 111/2/82
f 105/1/83 106/10/83 110/10/83 109/1/83
f 182/8/84 181/7/84 111/7/84 112/8/84
f 112/8/85 111/7/85 113/7/85 114/8/85
f 113/2/86 109/1/86 115/1/86 117/2/86
f 110/10/87 112/9/87 114/9/87
f 111/2/12 109/1/12 113/2/12
f 115/1/88 116/10/88 120/10/88 119/1/88
f 109/1/89 110/10/89 116/10/89 115/1/89
f 114/8/90 113/7/90 117/7/90 118/8/90
f 110/10/91 114/9/91 118/9/91 116/10/91
f 122/8/92 121/7/92 125/7/92 126/8/92
f 118/8/93 117/7/93 121/7/93 122/8/93
f 116/10/4 118/9/4 122/9/4 120/10/4
f 117/2/94 115/1/94 119/1/94 121/2/94
f 120/10/4 122/9/4 126/9/4 124/10/4
f 121/2/95 119/1/95 123/1/95 125/2/95
f 119/1/96 120/10/96 124/10/96 123/1/96
f 129/2/97 127/1/97 131/1/97 133/2/97
f 131/1/98 132/10/98 136/10/98 135/1/98
f 127/1/99 128/10/99 132/10/99 131/1/99
f 130/8/100 129/7/100 133/7/100 134/8/100
f 128/10/101 130/9/101 134/9/101 132/10/101
f 138/8/102 137/7/102 141/7/102 142/8/102
f 134/8/103 133/7/103 137/7/103 138/8/103
f 132/10/4 134/9/4 138/9/4 136/10/4
f 133/2/12 131/1/12 135/1/12 137/2/12
f 141/2/12 139/1/12 143/1/12 145/2/12
f 136/10/4 138/9/4 142/9/4 140/10/4
f 137/2/12 135/1/12 139/1/12 141/2/12
f 135/1/104 136/10/104 140/10/104 139/1/104
f 145/2/12 143/1/12 147/1/12 149/2/12
f 139/1/105 140/10/105 144/10/105 143/1/105
f 142/8/106 141/7/106 145/7/106 146/8/106
f 140/10/4 142/9/4 146/9/4 144/10/4
f 150/8/107 149/7/107 147/1/107 148/10/107
f 143/1/108 144/10/108 148/10/108 147/1/108
f 146/8/109 145/7/109 149/7/109 150/8/109
f 144/10/4 146/9/4 150/9/4 148/10/4
f 151/2/110 153/2/110 157/2/110 155/2/110
f 69/7/111 70/8/111 154/8/111 153/7/111
f 66/8/112 65/7/112 151/7/112 152/8/112
f 70/9/4 66/9/4 152/9/4 154/9/4
f 155/2/113 157/2/113 161/2/113 159/2/113
f 152/8/114 151/7/114 155/7/114 156/8/114
f 154/9/115 152/9/115 156/9/115 158/9/115
f 153/7/116 154/8/116 158/8/116 157/7/116
f 162/9/117 160/9/117 164/9/117 166/9/117
f 156/8/118 155/7/118 159/7/118 160/8/118
f 158/9/119 156/9/119 160/9/119 162/9/119
f 157/7/120 158/8/120 162/8/120 161/7/120
f 163/2/12 165/2/12 169/2/12 167/2/12
f 161/7/121 162/8/121 166/8/121 165/7/121
f 159/2/122 161/2/122 165/2/122 163/2/122
f 160/8/123 159/7/123 163/7/123 164/8/123
f 168/8/124 167/7/124 171/7/124 172/8/124
f 164/8/125 163/7/125 167/7/125 168/8/125
f 166/9/4 164/9/4 168/9/4 170/9/4
f 165/7/126 166/8/126 170/8/126 169/7/126
f 170/9/127 172/9/127 174/9/127 176/9/127
f 170/9/4 168/9/4 172/9/4
f 167/2/12 169/2/12 171/2/12
f 173/2/128 175/2/128 179/2/128 177/2/128
f 169/7/129 170/8/129 176/8/129 175/7/129
f 171/2/130 169/2/130 175/2/130 173/2/130
f 172/8/131 171/7/131 173/7/131 174/8/131
f 180/9/132 178/9/132 182/9/132
f 174/8/133 173/7/133 177/7/133 178/8/133
f 176/9/134 174/9/134 178/9/134 180/9/134
f 175/7/135 176/8/135 180/8/135 179/7/135
f 180/9/136 182/9/136 112/9/136 108/9/136
f 177/2/137 179/2/137 181/2/137
f 178/8/138 177/7/138 181/7/138 182/8/138
f 181/2/139 179/2/139 107/2/139 111/2/139
f 179/7/140 180/8/140 108/8/140 107/7/140
f 94/10/141 98/10/141 186/10/141 184/10/141
f 93/1/142 94/10/142 184/10/142 183/1/142
f 97/1/143 93/1/143 183/1/143 185/1/143
f 98/10/144 97/1/144 185/1/144 186/10/144
f 188/10/145 190/10/145 194/10/145 192/10/145
f 124/10/4 126/9/4 130/9/4 128/15/4
f 126/8/146 125/7/146 129/7/146 130/8/146
f 191/1/147 192/10/147 128/15/147 127/16/147
f 125/2/148 123/1/148 127/16/148 129/2/148
f 193/1/149 191/1/149 127/16/149 123/1/149
f 187/1/150 188/10/150 192/10/150 191/1/150
f 189/1/151 187/1/151 191/1/151 193/1/151
f 190/10/152 189/1/152 193/1/152 194/10/152
f 192/10/153 194/10/153 124/10/153 128/15/153
f 194/10/154 193/1/154 123/1/154 124/10/154
f 197/1/155 195/1/155 199/1/155 201/1/155
f 202/10/156 201/1/156 205/1/156 206/10/156
f 198/10/157 197/1/157 201/1/157 202/10/157
f 196/10/4 198/10/4 202/10/4 200/10/4
f 195/1/158 196/10/158 200/10/158 199/1/158
f 205/1/159 203/1/159 207/1/159 209/1/159
f 200/10/4 202/10/4 206/10/4 204/10/4
f 199/1/160 200/10/160 204/10/160 203/1/160
f 201/1/12 199/1/12 203/1/12 205/1/12
f 206/10/161 205/1/161 209/1/161 210/10/161
f 204/10/4 206/10/4 210/10/4 208/10/4
f 203/1/162 204/10/162 208/10/162 207/1/162
f 88/10/4 86/9/4 213/14/4
f 214/11/163 211/4/163 215/17/163 216/18/163
f 87/1/164 88/10/164 213/14/164 212/13/164
f 85/2/12 87/1/12 212/13/12
f 8/12/4 4/11/4 214/11/4 216/12/4
f 3/4/12 7/3/12 215/3/12 211/4/12
f 4/11/165 3/4/165 211/4/165 214/11/165
