# Blender 5.1.1
# www.blender.org
mtllib Level3Redo.mtl
o Cube
v 25.085312 81.986206 -120.331909
v 25.085312 -4.364694 -120.331909
v 8.877216 56.963928 -0.187343
v 7.758541 -4.238488 -0.917877
v 17.141773 81.986206 -119.403717
v 17.141773 -4.364694 -119.403717
v -2.039678 55.374756 0.023270
v -1.707281 -4.112283 0.157108
v 4.181090 -3.676300 -48.676929
v 13.245924 63.323341 -48.580387
v 4.181090 62.907234 -48.676929
v 13.245924 -3.440858 -48.580387
v 20.000870 90.144455 -140.906937
v 20.000870 -4.364694 -140.906937
v 9.644016 90.144455 -143.397583
v 9.644016 -4.364694 -143.397583
v 16.292238 -3.440858 -55.288239
v 2.530410 -3.762348 -64.259155
v 16.292238 64.700577 -55.288239
v -51.846123 -4.550732 -76.700607
v -57.164669 -4.550732 -70.562935
v -57.164669 69.519028 -70.562935
v -51.846123 69.519028 -76.700607
v -55.496635 -3.785605 -86.462166
v -62.354324 -3.785605 -87.008362
v -62.354324 71.037338 -87.008362
v -55.496635 71.037338 -86.462166
v -54.853386 -3.785605 -101.689438
v -60.879684 -3.785605 -98.371277
v -60.879684 68.949654 -98.371277
v -54.853386 69.234962 -101.689438
v -61.348217 -3.785605 -112.143356
v -64.303406 -3.785605 -105.931030
v -64.303406 71.037338 -105.931030
v -61.348217 71.904800 -112.143356
v -72.333801 -3.785605 -116.741547
v -71.385880 -3.785605 -109.927757
v -71.385880 74.848671 -109.927757
v -72.333801 76.843262 -116.741547
v -81.971008 -3.785605 -115.298859
v -86.148628 -3.785605 -108.469193
v -86.148628 77.947784 -108.469193
v -81.971008 77.947784 -115.298859
v -94.308685 -3.785605 -129.678711
v -102.715454 -3.785605 -127.567314
v -102.715454 82.574257 -127.567314
v -94.503769 82.574257 -129.544769
v -98.172852 -3.785605 -135.949829
v -105.755516 -3.785605 -136.923996
v -105.755516 81.528107 -136.923996
v -98.172852 81.528107 -135.949829
v -95.468254 -3.785605 -144.543686
v -100.359344 -3.785605 -148.749054
v -100.359344 83.349800 -148.749054
v -95.468254 83.349800 -144.543686
v -85.293427 -3.785605 -161.702621
v -94.468445 -3.785605 -158.658325
v -94.468445 83.285591 -158.658325
v -85.293427 83.285591 -161.702621
v -87.449730 -3.785605 -170.010544
v -94.831543 -3.785605 -166.307678
v -94.831543 87.409874 -166.307678
v -87.449730 87.409874 -170.010544
v -96.757812 -3.785605 -182.589157
v -106.097420 -3.785605 -185.835983
v -106.097420 91.304054 -185.835983
v -96.757812 91.419853 -182.589157
v -94.598755 -3.785605 -191.549866
v -101.189827 -3.785605 -195.699921
v -101.189827 91.867104 -195.699921
v -94.598755 91.867104 -191.549866
v 16.468998 91.067444 -164.313873
v 16.468998 -4.364694 -164.313873
v 7.114964 91.067444 -167.911667
v 7.114964 -4.364694 -167.911667
v 42.945236 98.204437 -198.913361
v 42.945236 -4.364694 -198.913361
v 28.545170 98.204437 -200.281174
v 28.545170 -4.364694 -200.281174
v 45.918098 101.455826 -220.516708
v 47.650482 -3.114548 -220.516708
v 26.619347 98.204437 -220.190155
v 26.619347 -4.364694 -220.190155
v 28.313568 103.635391 -241.604797
v 25.470261 -4.364694 -241.604797
v 18.027809 99.975945 -233.045105
v 18.027809 -4.364694 -233.045105
v 9.097474 50.736633 19.084473
v 8.997780 -5.327877 19.084473
v -3.360221 50.587097 19.084473
v -3.360221 -5.327877 19.084473
v -0.501134 52.212135 8.970005
v 15.635416 55.615356 5.693050
v 15.126368 -5.327877 5.693050
v -0.810442 -4.944898 8.836201
v -11.038543 54.796700 -0.883379
v -11.038543 -4.364694 0.378979
v -13.796485 54.988022 9.577711
v -13.796485 -5.710858 7.938001
v 18.205139 56.877617 -8.907131
v 18.205139 -4.889465 -8.907131
v 25.672817 56.313965 -8.587406
v 25.672817 -6.663443 -8.587406
v 25.272245 52.724342 -25.449841
v 25.272245 -4.364694 -25.449841
v 36.101906 54.070503 -25.207249
v 36.101906 -5.710856 -25.207249
v 24.798769 55.131775 -34.879467
v 24.798769 -4.364694 -34.879467
v 34.207207 56.477936 -41.307251
v 34.207207 -5.710856 -41.307251
v 21.894823 58.981499 -44.598236
v 21.894823 -3.825405 -44.598236
v 28.139290 59.981224 -51.673119
v 29.843622 -4.825127 -51.673119
v -87.172318 60.579796 -68.614349
v -87.172318 -4.364694 -68.614349
v -95.547035 61.925957 -68.868279
v -95.547035 -5.710856 -68.868279
v -80.715469 62.296143 -87.670677
v -80.715469 -4.250104 -87.670677
v -86.749878 63.580025 -93.157249
v -86.749878 -5.533988 -93.157249
v -71.338257 65.644226 -93.543587
v -71.338257 -5.404710 -93.543587
v -73.713104 67.555626 -100.357437
v -73.713104 -4.013575 -100.357437
v -86.903381 59.325333 -76.595963
v -92.709953 60.671494 -79.943138
v -92.709953 -5.710856 -79.943138
v -86.903381 -4.364694 -76.595963
v -28.900227 54.835083 -11.540030
v -52.691196 58.205338 -22.356934
v -72.680313 61.083038 -46.786800
v -87.850517 61.433937 -49.586845
v -87.850517 -5.710856 -49.586845
v -72.680313 -5.710858 -46.786800
v -52.691193 -5.710858 -22.356934
v -28.900227 -5.710858 -13.179706
v -25.850166 55.995949 -18.129843
v -47.767349 58.327034 -28.451454
v -66.155945 61.787987 -52.164566
v -81.259171 60.087776 -56.942127
v -81.259171 -4.364694 -56.942127
v -66.155945 -4.364694 -52.164604
v -47.767349 -4.364694 -28.451454
v -25.850161 -4.364694 -16.867485
v -10.860286 -4.411202 -68.665436
v -20.965084 -4.457708 -64.668716
v -36.187904 -4.504217 -74.358559
v -36.187904 64.146378 -74.358559
v -20.965088 63.062233 -64.668732
v -10.860287 62.399666 -68.665451
v -11.812424 62.399666 -57.745323
v -21.133215 63.062233 -54.533257
v -38.943634 64.146378 -67.300110
v -38.943634 -4.504217 -67.300110
v -21.133215 -4.457708 -54.533257
v -11.812426 -4.411202 -57.745323
v -86.086128 1.204542 -202.353027
v -93.968903 -3.785605 -205.268768
v -94.974594 90.685036 -205.268768
v -86.086128 90.685036 -202.353027
v -79.371765 -3.785605 -215.363312
v -86.536552 -3.785605 -222.847412
v -86.536552 94.001862 -222.847412
v -79.371765 94.001862 -215.363312
v -71.844749 -3.785605 -222.714264
v -76.870186 -3.785605 -232.917709
v -76.870186 94.644371 -232.917709
v -71.844749 93.336914 -222.714264
v -52.845367 -3.785605 -236.897003
v -60.668827 -3.785605 -241.753571
v -60.668827 94.090805 -241.753571
v -52.845367 94.090805 -236.897003
v 32.820950 96.139542 -182.127090
v 24.348885 97.234009 -184.471085
v 32.820950 2.852417 -182.127090
v 24.348885 -3.501517 -184.471085
v 13.529898 -4.364694 -134.888763
v 23.097433 -4.364694 -132.912552
v 23.097433 88.077148 -132.912552
v 13.529898 88.077148 -134.888763
v -8.341453 79.382011 -147.354630
v -8.341453 -3.886614 -147.354630
v -12.931071 -3.886614 -140.456390
v -12.931071 81.475899 -140.456390
v -40.496693 82.819260 -169.433807
v -40.496693 -3.886614 -169.433807
v -36.171951 -3.886614 -155.667786
v -36.171951 79.382011 -155.667786
v -62.867920 79.382011 -175.146912
v -62.867920 -3.886614 -175.146912
v -61.708752 -3.886614 -164.017029
v -61.708752 79.382011 -164.017029
v 19.841816 104.292397 -261.813416
v 18.420162 -4.364694 -261.813416
v 3.858296 102.255203 -258.651733
v 3.766671 -4.364694 -258.651733
v -42.102486 -3.785605 -257.986145
v -49.507885 -3.785605 -264.912689
v -49.507885 95.957298 -264.912689
v -42.102486 95.957298 -257.986145
v -5.844632 -3.785605 -285.452271
v -17.047070 -3.785605 -289.740601
v -17.047070 106.576111 -289.740601
v -5.844632 106.576111 -285.452271
v 5.606009 -3.785605 -298.818848
v -6.438107 -3.785605 -307.679169
v -6.438107 108.658279 -307.679169
v 5.606009 108.658279 -298.818848
v 13.226615 75.160461 -87.537964
v 7.547859 82.055618 -103.548218
v 15.655352 -3.671817 -63.685806
v 25.758572 -3.902776 -86.923737
v 19.403395 -4.133735 -103.705185
v 7.547859 -4.192592 -103.548218
v 13.226615 -4.020495 -87.537964
v 19.403389 81.996750 -103.705185
v 25.758572 75.042725 -86.923721
v 18.691740 66.129173 -63.475838
v 12.042074 104.846146 -280.016663
v 12.621383 -4.364694 -272.825165
v 2.805674 104.846146 -276.986481
v 2.805674 -4.364694 -276.986481
v 18.358345 -3.785605 -322.088806
v 6.706656 -3.785605 -325.159821
v 6.706656 113.144981 -325.159821
v 18.358345 113.144981 -322.088806
v 16.251556 -3.785605 -341.494537
v 8.015945 -3.785605 -341.461426
v 8.015945 121.958763 -341.461426
v 16.251556 121.958763 -341.494537
v 13.533165 -3.785605 -363.758148
v -1.104312 -3.785605 -365.552765
v -1.104312 131.183167 -365.552765
v 13.533165 131.183167 -363.758148
v 14.635686 -3.785606 -397.409973
v 0.120884 -3.785606 -398.108948
v 0.120884 150.829453 -395.285675
v 14.635686 150.829453 -394.586670
v 13.801998 145.318954 -387.343048
v -0.697563 145.318954 -389.137726
v -0.697563 -3.785605 -391.960968
v 13.801998 -3.785605 -390.166321
v 14.058584 45.158112 33.870667
v 14.058584 -1.707776 33.561195
v -12.742603 44.999466 37.091187
v -12.742603 -1.707776 36.785606
v 23.896122 -3.785605 -403.684631
v -8.277924 -3.785605 -404.734161
v -8.277924 154.887863 -404.734161
v 23.896122 154.887863 -403.684631
v 24.535406 -3.785605 -431.546478
v -7.638641 -3.785605 -432.596039
v -7.638641 155.718643 -432.596039
v 24.535406 155.718643 -431.546478
v 84.713280 44.879120 72.387672
v 84.713280 4.156975 78.565552
v 56.669891 44.879120 72.387672
v 56.669891 4.156975 78.565552
v 104.033157 41.195160 137.446762
v 104.033157 -1.707777 137.234848
v 73.538231 41.195160 137.446762
v 73.538231 -1.707777 137.234848
v 8.687691 46.668953 52.383648
v 45.816330 44.386780 37.258072
v 8.687691 -1.707777 52.092403
v 45.816330 -1.707777 36.967598
v 71.538239 35.563011 250.944458
v 71.538239 -1.707777 250.871185
v 45.338219 35.563011 250.944458
v 45.338219 -1.707777 250.871185
v 78.169212 36.216728 215.383957
v 78.169212 -1.707777 215.294586
v 51.966476 36.216728 215.383957
v 51.966476 -1.707777 215.294586
v 22.513893 -1.707776 333.765686
v 22.513893 24.755669 333.791260
v 55.404457 24.747601 350.669189
v 55.404457 -1.715842 350.643585
v -37.991543 -1.723907 345.766663
v -37.991543 24.739532 345.792297
v -82.906021 -10.619436 363.742249
v -82.906021 24.715370 363.767883
v 79.625771 24.715370 363.767883
v 79.625771 -1.748069 363.742249
v -82.906021 -10.649978 450.178864
v -82.906021 24.684830 450.204437
v 79.625771 24.684830 450.204437
v 79.625771 -1.778610 450.178864
v 2.926322 67.411812 -64.004959
v -61.127998 44.657776 90.526405
v -61.127998 -2.049465 90.167610
v -35.800079 46.327263 104.383080
v -35.800079 -2.049465 104.041130
v -84.531616 37.944099 148.185211
v -84.704391 -8.763145 147.898865
v -49.608456 39.613586 148.968994
v -49.773117 -8.763145 148.696091
v -86.435455 37.437622 241.000443
v -86.684540 -9.269623 240.822708
v -60.927925 39.107109 233.051208
v -61.165321 -9.269623 232.881805
v -72.778236 19.991230 347.164429
v -73.089905 -4.473269 346.986694
v -52.293556 21.660717 339.215179
v -52.590599 -4.473269 339.045776
vn -0.0983 0.9866 0.1304
vn -0.0939 0.9685 0.2304
vn -0.8556 -0.0000 -0.5177
vn 0.0053 -0.9999 -0.0122
vn 0.9948 -0.0093 0.1014
vn -0.0000 -1.0000 -0.0000
vn -0.0818 -0.9966 0.0070
vn 0.0223 -0.9997 0.0053
vn -0.9923 -0.0027 -0.1234
vn -0.9947 -0.0000 0.1026
vn -0.0597 0.9620 0.2663
vn 0.9325 -0.0000 -0.3612
vn -0.0213 -0.9998 -0.0010
vn 0.0057 -0.9996 0.0271
vn 0.9943 -0.0220 0.1041
vn 0.1479 -0.0000 -0.9890
vn -0.9536 -0.0000 0.3009
vn -0.1763 -0.0000 0.9843
vn 0.0025 -1.0000 0.0015
vn 0.2729 0.9475 0.1670
vn 0.9991 -0.0000 0.0422
vn 0.0458 0.9940 0.0997
vn -0.0232 -0.9985 -0.0505
vn 0.9366 -0.0000 -0.3503
vn 0.0934 0.9741 0.2058
vn -0.9917 -0.0000 -0.1287
vn -0.0539 0.9874 -0.1487
vn 0.8494 -0.0000 -0.5277
vn -0.5096 -0.0000 -0.8604
vn -0.1481 -0.0000 -0.9890
vn 0.3861 -0.0000 -0.9225
vn -0.4915 -0.0000 0.8709
vn 0.3229 0.9127 0.2503
vn 0.1191 0.9786 0.1676
vn 0.0983 -0.0000 0.9952
vn 0.1882 0.9644 0.1856
vn 0.8596 0.0014 -0.5110
vn 0.7550 0.0014 -0.6557
vn -0.7554 -0.0000 0.6553
vn -0.9098 -0.0000 -0.4152
vn -0.9511 -0.0000 0.3090
vn -0.0081 0.9917 -0.1282
vn 0.8601 -0.0000 0.5100
vn -0.0628 0.9865 0.1511
vn 0.9539 -0.0000 0.3002
vn 0.1753 0.8856 0.4301
vn -0.8596 -0.0000 -0.5110
vn 0.0004 1.0000 -0.0045
vn -0.0002 0.9710 0.2392
vn -0.2045 -0.0000 -0.9789
vn -0.9989 -0.0000 0.0474
vn 0.9722 -0.0000 0.2342
vn 0.8038 -0.0000 -0.5948
vn -0.8662 -0.0000 0.4997
vn 0.7855 -0.0000 0.6189
vn -0.8953 -0.0000 -0.4454
vn -0.0274 0.9987 0.0433
vn 0.0304 0.9939 0.1059
vn -0.0124 0.9991 0.0401
vn 0.9888 -0.0000 -0.1492
vn 0.9844 0.0082 0.1758
vn 0.8563 -0.0000 0.5165
vn -0.9665 -0.0000 -0.2565
vn 0.2052 -0.9251 0.3195
vn -0.8314 -0.0000 0.5557
vn -0.9954 -0.0000 0.0963
vn 0.0361 -0.9990 -0.0277
vn -0.0981 0.9923 0.0752
vn -0.1510 0.9789 0.1374
vn 0.0431 -0.9991 -0.0023
vn -0.1549 0.9605 0.2313
vn 0.7274 -0.0038 -0.6862
vn 0.9043 -0.0047 0.4268
vn -0.9666 0.0029 -0.2565
vn -0.0160 -0.9996 -0.0221
vn -0.0373 -0.9938 -0.1048
vn 0.0948 0.9831 0.1565
vn -0.1257 0.9273 0.3525
vn -0.9287 -0.0000 0.3707
vn -0.0122 -0.0150 0.9998
vn 0.0491 -0.9907 -0.1273
vn 0.0379 -0.0117 -0.9992
vn 0.8112 -0.0033 0.5847
vn -0.1628 -0.9781 -0.1295
vn 0.0890 0.9909 0.1013
vn -0.1605 -0.9850 -0.0634
vn -0.6452 0.0104 -0.7640
vn -0.9987 -0.0000 0.0501
vn -0.9196 -0.0000 -0.3929
vn 0.8470 -0.0000 0.5315
vn -0.0354 0.9776 -0.2073
vn 0.8942 0.0120 -0.4474
vn 0.9931 -0.0000 -0.1169
vn -0.0718 0.9789 0.1913
vn -0.1283 -0.9917 0.0119
vn 0.2746 0.0035 -0.9616
vn 0.1136 0.9483 0.2964
vn -0.1469 -0.9890 -0.0170
vn -0.9581 -0.0000 0.2863
vn -0.4182 -0.0000 0.9083
vn 0.2725 0.9005 0.3390
vn 0.0293 0.9681 0.2490
vn 0.1591 0.9865 -0.0386
vn 0.1469 -0.9870 -0.0646
vn 0.8921 -0.0000 -0.4519
vn 0.0080 -0.9999 -0.0142
vn 0.1655 -0.9836 0.0710
vn 0.8730 -0.0000 0.4878
vn -0.9116 -0.0000 -0.4112
vn 0.0347 -0.9933 -0.1101
vn 0.5308 -0.0000 0.8475
vn -0.4835 -0.0000 -0.8754
vn -0.1176 0.9386 0.3242
vn -0.1513 0.9349 0.3211
vn -0.9687 -0.0000 -0.2482
vn 0.9994 -0.0000 0.0337
vn 0.1793 -0.9834 0.0292
vn 0.2087 0.9734 -0.0941
vn 0.7583 -0.0138 -0.6517
vn 0.4466 -0.0092 -0.8947
vn 0.7902 -0.0000 -0.6128
vn 0.3016 -0.0000 -0.9534
vn 0.1798 -0.9737 -0.1402
vn 0.0891 -0.9765 -0.1961
vn 0.1289 -0.9863 -0.1028
vn 0.0415 -0.9853 -0.1656
vn -0.0264 0.9985 0.0478
vn 0.0597 0.9887 0.1375
vn 0.0330 0.9940 0.1046
vn -0.0253 0.9968 -0.0763
vn -0.8132 -0.0157 0.5817
vn -0.3881 -0.0121 0.9215
vn -0.7739 -0.0000 0.6333
vn -0.1815 -0.0000 0.9834
vn 0.0694 0.9976 0.0037
vn 0.0587 0.9982 0.0100
vn 0.0461 -0.9989 0.0020
vn 0.0049 -1.0000 0.0003
vn 0.0025 -1.0000 0.0004
vn -0.4932 -0.0000 0.8699
vn 0.3258 -0.0000 0.9454
vn -0.5826 -0.0000 0.8128
vn -0.3678 -0.0000 -0.9299
vn 0.5370 -0.0000 -0.8436
vn 0.8886 -0.0000 0.4586
vn -0.8186 -0.0043 -0.5744
vn 0.0396 0.9954 -0.0869
vn 0.3195 -0.9475 0.0147
vn 0.0448 0.9981 0.0429
vn -0.9113 -0.0048 -0.4118
vn -0.1044 0.9814 0.1611
vn 0.1592 -0.9600 0.2303
vn 0.5982 -0.0000 0.8014
vn 0.6987 -0.0000 0.7154
vn -0.7214 -0.0000 -0.6925
vn -0.9008 -0.0000 -0.4341
vn -0.4788 -0.0000 -0.8779
vn 0.0327 0.9977 0.0587
vn 0.3106 -0.9471 0.0809
vn -0.6929 -0.0000 -0.7211
vn 0.7367 -0.0000 0.6762
vn -0.0344 0.9594 0.2800
vn -0.9739 -0.0000 0.2272
vn 0.9877 -0.0000 -0.1561
vn -0.0241 0.9153 0.4021
vn -0.0193 0.9977 0.0646
vn -0.2059 -0.0000 0.9786
vn 0.2149 -0.0000 -0.9766
vn -0.3605 0.9326 -0.0181
vn -0.3108 -0.0000 0.9505
vn 0.5660 -0.0000 -0.8244
vn -0.5476 -0.0000 0.8367
vn 0.2604 0.9525 0.1577
vn -0.1176 0.9799 0.1612
vn 0.2474 -0.0000 -0.9689
vn -0.0041 -1.0000 0.0007
vn 0.0977 -0.0000 0.9952
vn 0.9333 -0.0184 -0.3587
vn -0.8743 0.0004 0.4854
vn -0.0559 0.9935 0.0991
vn -0.1320 0.9667 0.2191
vn -0.0471 0.9970 0.0608
vn 0.8911 -0.0000 0.4539
vn -0.0535 0.9941 0.0946
vn 0.6038 -0.0000 0.7971
vn -0.6075 -0.0000 -0.7943
vn -0.0826 0.9830 0.1640
vn 0.0413 0.9833 0.1770
vn -0.8607 -0.0000 -0.5090
vn 0.9463 -0.0000 0.3234
vn 0.9352 -0.0000 -0.3542
vn 0.9395 -0.0197 0.3419
vn 0.0037 -0.9999 0.0142
vn 0.0071 -0.9999 0.0097
vn 0.0075 -0.9999 0.0139
vn 0.0029 1.0000 -0.0011
vn -0.0006 0.9211 0.3893
vn -0.9425 -0.0000 0.3343
vn 0.9575 -0.0068 -0.2882
vn 0.9063 -0.0174 -0.4222
vn -0.9985 0.0004 0.0549
vn -0.0676 0.8940 0.4429
vn 0.8769 -0.0000 0.4806
vn -0.7992 -0.0000 -0.6010
vn -0.0122 -0.9995 -0.0281
vn -0.6994 -0.0000 0.7147
vn 0.9926 -0.0000 -0.1212
vn 0.9942 -0.0000 -0.1079
vn -0.9968 -0.0000 -0.0801
vn -0.9352 -0.0000 0.3540
vn -0.0290 0.9262 0.3760
vn -0.0542 0.7743 0.6305
vn -0.9914 0.0024 -0.1309
vn -0.0150 0.9163 0.4003
vn -0.9999 0.0002 -0.0162
vn 0.9935 -0.0021 0.1135
vn -0.0631 0.8564 0.5124
vn 0.9999 -0.0001 0.0107
vn 0.0183 -0.9749 0.2218
vn 0.0296 0.9993 -0.0232
vn 0.9461 0.0001 -0.3240
vn 0.0192 0.9457 0.3246
vn -0.8852 0.0014 -0.4651
vn -0.9997 -0.0000 -0.0229
vn -0.6922 -0.0065 0.7217
vn 0.6396 -0.0069 0.7687
vn 0.0326 -0.0000 -0.9995
vn 0.9997 -0.0000 0.0229
vn -0.0010 0.9996 0.0298
vn -0.9642 0.0189 0.2644
vn -0.4372 0.0593 0.8974
vn 0.0306 -0.9908 0.1317
vn 0.7034 -0.0481 -0.7092
vn 0.1064 0.0064 -0.9943
vn -0.0000 -0.9950 -0.0995
vn 0.9538 -0.0214 -0.2995
vn -0.0000 0.9984 0.0565
vn 0.0107 0.9969 -0.0783
vn -0.0001 -1.0000 -0.0001
vn -0.0000 0.9998 0.0184
vn -0.9638 0.0010 -0.2665
vn -0.0000 0.9980 0.0637
vn 0.9492 -0.0012 0.3147
vn -0.0001 1.0000 0.0007
vn 0.9872 -0.0002 0.1597
vn -0.0315 0.9933 0.1109
vn -0.9641 0.0004 -0.2655
vn -0.0001 1.0000 0.0018
vn -0.1946 0.0009 -0.9809
vn -0.0000 1.0000 0.0004
vn -0.8584 0.0062 -0.5129
vn 0.4757 0.0009 -0.8796
vn -0.0000 -0.0008 1.0000
vn -1.0000 -0.0000 -0.0000
vn 0.0545 -0.9985 -0.0004
vn 1.0000 -0.0000 -0.0000
vn -0.9126 0.0031 -0.4088
vn 0.0325 0.9381 0.3447
vn -0.2534 0.9529 0.1665
vn 0.3163 0.0008 -0.9487
vn -0.0024 0.9662 0.2577
vn 0.0732 0.9786 0.1922
vn -0.7411 0.0048 -0.6714
vn -0.9831 0.0004 -0.1832
vn 0.9831 -0.0004 0.1833
vn 0.0291 -0.9924 -0.1195
vn 0.7597 -0.0043 0.6503
vn 0.0026 -1.0000 -0.0042
vn -0.0486 0.9982 -0.0364
vn -0.9998 0.0046 -0.0209
vn -0.9263 0.0043 -0.3767
vn 0.9549 -0.0035 0.2968
vn -0.0796 0.9917 0.1013
vn 0.9967 -0.0068 -0.0812
vn 0.9910 -0.0047 0.1337
vn -0.0550 0.9985 0.0016
vn -0.0007 -1.0000 -0.0058
vn -0.1406 0.9457 -0.2930
vn -0.0150 0.9864 0.1637
vn 0.0150 -0.9989 0.0436
vn -0.9918 0.0072 0.1277
vn 0.0717 -0.9850 -0.1571
vn 0.4178 0.0010 -0.9085
vn 0.0384 -0.9669 -0.2523
vn 0.0001 -1.0000 -0.0007
vt 0.625000 0.663164
vt 0.875000 0.663164
vt 0.875000 0.750000
vt 0.625000 0.750000
vt 0.375000 0.212104
vt 0.625000 0.212104
vt 0.625000 0.250000
vt 0.375000 0.250000
vt 0.125000 0.663164
vt 0.375000 0.663164
vt 0.375000 0.750000
vt 0.125000 0.750000
vt 0.375000 0.500000
vt 0.125000 0.500000
vt 0.375000 0.500000
vt 0.375000 0.651584
vt 0.125000 0.651584
vt 0.375000 0.000000
vt 0.625000 0.000000
vt 0.625000 0.086836
vt 0.375000 0.086836
vt 0.875000 0.500000
vt 0.625000 0.500000
vt 0.625000 0.500000
vt 0.125000 0.613688
vt 0.375000 0.613688
vt 0.625000 0.613688
vt 0.625000 0.651584
vt 0.625000 0.098416
vt 0.375000 0.098416
vt 0.375000 0.098416
vt 0.625000 0.098416
vt 0.625000 0.086836
vt 0.125000 0.663164
vt 0.875000 0.663164
vt 0.875000 0.651584
vt 0.875000 0.750000
vt 0.875000 0.750000
vt 0.125000 0.750000
vt 0.125000 0.750000
vt 0.125000 0.750000
vt 0.125000 0.750000
vt 0.875000 0.651584
vt 0.375000 0.086835
vt 0.625000 0.537896
vt 0.375000 0.537896
vt 0.625000 0.575792
vt 0.375000 0.575792
vt 0.125000 0.537896
vt 0.125000 0.575792
vt 0.875000 0.537896
vt 0.875000 0.575792
vt 0.375000 0.174208
vt 0.625000 0.174208
vt 0.625000 1.000000
vt 0.375000 1.000000
vt 0.000000 0.000000
s 0
usemtl Material
f 10/1/1 11/2/1 7/3/1 3/4/1
f 93/4/2 92/3/2 90/3/2 88/4/2
f 217/5/3 213/6/3 5/7/3 6/8/3
f 9/9/4 12/10/4 4/11/4 8/12/4
f 12/10/5 10/1/5 3/4/5 4/11/5
f 181/13/6 180/14/6 16/14/6 14/15/6
f 115/11/7 113/11/7 12/10/7 17/16/7
f 18/17/8 17/16/8 12/10/8 9/9/8
f 8/18/9 7/19/9 11/20/9 9/21/9
f 16/8/10 15/7/10 74/7/10 75/8/10
f 183/22/11 182/23/11 13/24/11 15/22/11
f 182/23/12 181/13/12 14/15/12 13/24/12
f 16/14/13 180/14/13 186/14/13 185/14/13
f 18/25/14 214/26/14 17/16/14
f 214/26/15 221/27/15 19/28/15 17/16/15
f 151/29/16 150/30/16 20/31/16 23/32/16
f 21/21/17 22/20/17 26/20/17 25/21/17
f 157/21/18 156/33/18 22/20/18 21/21/18
f 150/17/19 157/34/19 21/9/19 20/17/19
f 156/35/20 151/36/20 23/36/20 22/2/20
f 27/32/21 24/31/21 28/31/21 31/32/21
f 22/2/22 23/36/22 27/36/22 26/2/22
f 20/17/23 21/9/23 25/9/23 24/17/23
f 23/32/24 20/31/24 24/31/24 27/32/24
f 30/2/25 31/36/25 35/36/25 34/2/25
f 25/21/26 26/20/26 30/20/26 29/21/26
f 26/2/27 27/36/27 31/36/27 30/2/27
f 24/17/6 25/9/6 29/9/6 28/17/6
f 32/17/6 33/9/6 37/9/6 36/17/6
f 28/17/6 29/9/6 33/9/6 32/17/6
f 31/32/28 28/31/28 32/31/28 35/32/28
f 127/18/29 126/19/29 34/20/29 33/21/29
f 39/32/30 36/31/30 40/31/30 43/32/30
f 35/32/31 32/31/31 36/31/31 39/32/31
f 33/21/32 34/20/32 38/20/32 37/21/32
f 34/2/33 35/36/33 39/36/33 38/2/33
f 42/2/34 43/36/34 47/36/34 46/2/34
f 37/21/35 38/20/35 42/20/35 41/21/35
f 38/2/36 39/36/36 43/36/36 42/2/36
f 36/17/6 37/9/6 41/9/6 40/17/6
f 47/32/37 44/31/37 48/31/37 51/32/37
f 40/17/6 41/9/6 45/9/6 44/17/6
f 43/32/38 40/31/38 44/31/38 47/32/38
f 41/21/39 42/20/39 46/20/39 45/21/39
f 49/21/40 50/20/40 54/20/40 53/21/40
f 45/21/41 46/20/41 50/20/41 49/21/41
f 46/2/42 47/36/42 51/36/42 50/2/42
f 44/17/6 45/9/6 49/9/6 48/17/6
f 55/32/43 52/31/43 56/31/43 59/32/43
f 50/2/44 51/36/44 55/36/44 54/2/44
f 48/17/6 49/9/6 53/9/6 52/17/6
f 51/32/45 48/31/45 52/31/45 55/32/45
f 58/2/46 59/36/46 63/36/46 62/2/46
f 53/21/47 54/20/47 58/20/47 57/21/47
f 54/2/48 55/36/48 59/36/48 58/2/48
f 52/17/6 53/9/6 57/9/6 56/17/6
f 62/2/49 63/36/49 67/36/49 66/2/49
f 56/17/6 57/9/6 61/9/6 60/17/6
f 192/7/50 193/8/50 60/31/50 63/32/50
f 57/21/51 58/20/51 62/20/51 61/21/51
f 67/32/52 64/31/52 68/31/52 71/32/52
f 60/17/6 61/9/6 65/9/6 64/17/6
f 63/32/53 60/31/53 64/31/53 67/32/53
f 61/21/54 62/20/54 66/20/54 65/21/54
f 71/32/55 68/31/55 160/31/55 163/32/55
f 65/21/56 66/20/56 70/20/56 69/21/56
f 66/2/57 67/36/57 71/36/57 70/2/57
f 64/17/6 65/9/6 69/9/6 68/17/6
f 177/22/58 176/24/58 76/24/58 78/22/58
f 14/15/6 16/14/6 75/14/6 73/15/6
f 15/22/59 13/24/59 72/24/59 74/22/59
f 13/24/60 14/15/60 73/15/60 72/24/60
f 76/24/61 77/15/61 81/15/61 80/24/61
f 176/24/62 178/15/62 77/15/62 76/24/62
f 179/8/63 177/7/63 78/7/63 79/8/63
f 178/15/64 179/14/64 79/14/64 77/15/64
f 83/8/65 82/7/65 86/7/65 87/8/65
f 79/8/66 78/7/66 82/7/66 83/8/66
f 77/15/67 79/14/67 83/14/67 81/15/67
f 78/22/68 76/24/68 80/24/68 82/22/68
f 86/22/69 84/24/69 196/24/69 198/22/69
f 81/15/70 83/14/70 87/14/70 85/15/70
f 82/22/71 80/24/71 84/24/71 86/22/71
f 80/24/72 81/15/72 85/15/72 84/24/72
f 94/11/73 93/4/73 88/4/73 89/11/73
f 92/19/74 95/18/74 91/18/74 90/19/74
f 95/12/75 94/11/75 89/11/75 91/12/75
f 8/12/76 4/11/76 94/11/76 95/12/76
f 92/3/77 7/3/77 96/3/77 98/3/77
f 3/4/78 7/3/78 92/3/78 93/4/78
f 136/18/79 135/19/79 118/19/79 119/18/79
f 95/18/80 92/19/80 98/19/80 99/18/80
f 8/12/81 95/12/81 99/12/81 97/12/81
f 7/19/82 8/18/82 97/18/82 96/19/82
f 93/4/83 94/11/83 103/11/83 102/4/83
f 103/11/84 101/11/84 105/11/84 107/11/84
f 3/4/85 93/4/85 102/4/85 100/4/85
f 94/11/86 4/11/86 101/11/86 103/11/86
f 4/11/87 3/4/87 100/4/87 101/11/87
f 105/11/88 104/4/88 108/4/88 109/11/88
f 101/11/89 100/4/89 104/4/89 105/11/89
f 102/4/90 103/11/90 107/11/90 106/4/90
f 100/4/91 102/4/91 106/4/91 104/4/91
f 110/4/92 111/11/92 115/11/92 114/4/92
f 106/4/93 107/11/93 111/11/93 110/4/93
f 104/4/94 106/4/94 110/4/94 108/4/94
f 107/11/95 105/11/95 109/11/95 111/11/95
f 114/4/96 115/11/96 17/16/96 19/28/96
f 108/4/97 110/4/97 114/4/97 112/4/97
f 111/11/98 109/11/98 113/11/98 115/11/98
f 109/11/99 108/4/99 112/4/99 113/11/99
f 113/11/100 112/4/100 10/1/100 12/10/100
f 112/4/101 114/4/101 19/28/101 10/1/101
f 129/3/102 128/37/102 120/3/102 122/3/102
f 135/38/103 143/37/103 116/3/103 118/3/103
f 144/12/104 136/39/104 119/12/104 117/12/104
f 143/19/105 144/18/105 117/18/105 116/19/105
f 121/12/106 123/12/106 127/12/106 125/12/106
f 131/40/107 130/12/107 123/12/107 121/12/107
f 128/19/108 131/18/108 121/18/108 120/19/108
f 130/18/109 129/19/109 122/19/109 123/18/109
f 125/12/110 127/12/110 33/9/110 29/9/110
f 120/19/111 121/18/111 125/18/111 124/19/111
f 123/18/112 122/19/112 126/19/112 127/18/112
f 122/3/113 120/3/113 124/3/113 126/3/113
f 126/3/114 124/3/114 30/2/114 34/2/114
f 119/18/115 118/19/115 129/19/115 130/18/115
f 116/19/116 117/18/116 131/18/116 128/19/116
f 117/12/117 119/12/117 130/12/117 131/40/117
f 118/3/118 116/3/118 128/37/118 129/3/118
f 96/19/119 97/18/119 147/18/119 140/19/119
f 140/19/120 147/18/120 146/18/120 141/19/120
f 141/19/121 146/18/121 145/18/121 142/19/121
f 142/19/122 145/18/122 144/18/122 143/19/122
f 97/12/123 99/12/123 139/12/123 147/12/123
f 147/12/124 139/12/124 138/12/124 146/41/124
f 146/41/125 138/12/125 137/12/125 145/42/125
f 145/42/126 137/12/126 136/39/126 144/12/126
f 98/3/127 96/3/127 140/3/127 132/37/127
f 132/37/128 140/3/128 141/3/128 133/3/128
f 133/3/129 141/3/129 142/3/129 134/3/129
f 134/3/130 142/3/130 143/37/130 135/38/130
f 99/18/131 98/19/131 132/19/131 139/18/131
f 139/18/132 132/19/132 133/19/132 138/18/132
f 138/18/133 133/19/133 134/19/133 137/18/133
f 137/18/134 134/19/134 135/19/134 136/18/134
f 154/2/135 153/43/135 152/36/135 155/2/135
f 155/2/136 152/36/136 151/36/136 156/35/136
f 18/17/137 9/9/137 159/9/137 148/17/137
f 148/17/138 159/9/138 158/9/138 149/17/138
f 149/17/139 158/9/139 157/34/139 150/17/139
f 9/21/140 11/20/140 154/20/140 159/44/140
f 159/44/141 154/20/141 155/33/141 158/21/141
f 158/21/142 155/33/142 156/33/142 157/21/142
f 153/32/143 148/31/143 149/31/143 152/32/143
f 152/32/144 149/31/144 150/30/144 151/29/144
f 163/32/145 160/31/145 164/31/145 167/32/145
f 69/21/146 70/20/146 162/20/146 161/21/146
f 70/2/147 71/36/147 163/36/147 162/2/147
f 68/17/148 69/9/148 161/9/148 160/17/148
f 166/2/149 167/36/149 171/36/149 170/2/149
f 161/21/150 162/20/150 166/20/150 165/21/150
f 162/2/151 163/36/151 167/36/151 166/2/151
f 160/17/152 161/9/152 165/9/152 164/17/152
f 171/32/153 168/31/153 172/31/153 175/32/153
f 164/17/6 165/9/6 169/9/6 168/17/6
f 167/32/154 164/31/154 168/31/154 171/32/154
f 165/21/155 166/20/155 170/20/155 169/21/155
f 173/21/156 174/20/156 202/20/156 201/21/156
f 169/21/157 170/20/157 174/20/157 173/21/157
f 170/2/158 171/36/158 175/36/158 174/2/158
f 168/17/6 169/9/6 173/9/6 172/17/6
f 73/15/159 75/14/159 179/14/159 178/15/159
f 75/8/160 74/7/160 177/7/160 179/8/160
f 72/24/161 73/15/161 178/15/161 176/24/161
f 74/22/162 72/24/162 176/24/162 177/22/162
f 6/8/163 5/7/163 183/7/163 180/8/163
f 1/24/164 2/15/164 181/13/164 182/23/164
f 5/22/165 1/24/165 182/23/165 183/22/165
f 2/15/6 6/14/6 180/14/6 181/13/6
f 187/22/166 184/22/166 188/22/166 191/22/166
f 180/8/167 183/7/167 187/7/167 186/8/167
f 15/7/168 16/8/168 185/8/168 184/7/168
f 183/22/169 15/22/169 184/22/169 187/22/169
f 190/8/170 191/7/170 195/7/170 194/8/170
f 184/7/171 185/8/171 189/8/171 188/7/171
f 186/8/172 187/7/172 191/7/172 190/8/172
f 185/14/6 186/14/6 190/14/6 189/14/6
f 195/22/173 192/22/173 63/36/173 59/36/173
f 189/14/6 190/14/6 194/14/6 193/14/6
f 191/22/174 188/22/174 192/22/174 195/22/174
f 188/7/175 189/8/175 193/8/175 192/7/175
f 193/14/176 194/14/176 56/17/176 60/17/176
f 194/8/177 195/7/177 59/32/177 56/31/177
f 84/24/178 85/15/178 197/15/178 196/24/178
f 87/8/179 86/7/179 198/7/179 199/8/179
f 85/15/6 87/14/6 199/14/6 197/15/6
f 198/22/180 196/24/180 222/24/180 224/22/180
f 202/2/181 203/36/181 207/36/181 206/2/181
f 174/2/182 175/36/182 203/36/182 202/2/182
f 172/17/6 173/9/6 201/9/6 200/17/6
f 175/32/183 172/31/183 200/31/183 203/32/183
f 206/2/184 207/36/184 211/36/184 210/2/184
f 200/17/6 201/9/6 205/9/6 204/17/6
f 203/32/185 200/31/185 204/31/185 207/32/185
f 201/21/186 202/20/186 206/20/186 205/21/186
f 210/2/187 211/36/187 229/36/187 228/2/187
f 204/17/6 205/9/6 209/9/6 208/17/6
f 224/22/188 222/24/188 211/36/188 207/36/188
f 205/21/189 206/20/189 210/20/189 209/21/189
f 2/15/190 1/24/190 219/45/190 216/46/190
f 216/46/191 219/45/191 220/47/191 215/48/191
f 215/48/192 220/47/192 221/27/192 214/26/192
f 6/14/193 2/15/193 216/46/193 217/49/193
f 217/49/194 216/46/194 215/48/194 218/50/194
f 218/50/195 215/48/195 214/26/195 18/25/195
f 1/24/196 5/22/196 213/51/196 219/45/196
f 219/45/197 213/51/197 212/52/197 220/47/197
f 218/53/198 212/54/198 213/6/198 217/5/198
f 222/24/199 223/15/199 208/31/199 211/32/199
f 196/24/200 197/15/200 223/15/200 222/24/200
f 199/8/201 198/7/201 224/7/201 225/8/201
f 197/15/6 199/14/6 225/14/6 223/15/6
f 228/2/202 229/36/202 233/36/202 232/2/202
f 208/17/6 209/9/6 227/9/6 226/17/6
f 211/32/203 208/31/203 226/31/203 229/32/203
f 209/21/204 210/20/204 228/20/204 227/21/204
f 223/15/205 225/14/205 204/17/205 208/17/205
f 225/8/206 224/7/206 207/32/206 204/31/206
f 233/32/207 230/31/207 234/31/207 237/32/207
f 226/17/6 227/9/6 231/9/6 230/17/6
f 229/32/208 226/31/208 230/31/208 233/32/208
f 227/21/209 228/20/209 232/20/209 231/21/209
f 231/21/210 232/20/210 236/20/210 235/21/210
f 232/2/211 233/36/211 237/36/211 236/2/211
f 230/17/6 231/9/6 235/9/6 234/17/6
f 243/2/212 242/36/212 241/36/212 240/2/212
f 244/21/213 243/20/213 240/20/213 239/21/213
f 240/2/214 241/36/214 253/36/214 252/2/214
f 235/21/215 236/20/215 243/20/215 244/21/215
f 242/32/216 245/31/216 238/31/216 241/32/216
f 236/2/217 237/36/217 242/36/217 243/2/217
f 237/32/218 234/31/218 245/31/218 242/32/218
f 234/17/6 235/9/6 244/9/6 245/17/6
f 245/17/6 244/9/6 239/9/6 238/17/6
f 91/12/219 89/11/219 247/11/219 249/12/219
f 267/4/220 266/3/220 260/3/220 258/4/220
f 89/11/221 88/4/221 246/4/221 247/11/221
f 88/4/222 90/3/222 248/3/222 246/4/222
f 90/19/223 91/18/223 249/18/223 248/19/223
f 251/21/224 252/20/224 256/20/224 255/21/224
f 239/21/225 240/20/225 252/20/225 251/21/225
f 238/17/6 239/9/6 251/9/6 250/17/6
f 241/32/226 238/31/226 250/31/226 253/32/226
f 254/31/227 255/21/227 256/2/227 257/32/227
f 253/32/228 250/31/228 254/31/228 257/32/228
f 250/17/6 251/9/6 255/9/6 254/17/6
f 252/2/229 253/36/229 257/36/229 256/2/229
f 260/19/230 261/18/230 265/18/230 264/19/230
f 266/19/231 268/18/231 261/18/231 260/19/231
f 268/12/232 269/11/232 259/11/232 261/12/232
f 269/11/233 267/4/233 258/4/233 259/11/233
f 247/11/234 246/4/234 267/4/234 269/11/234
f 261/12/235 259/11/235 263/11/235 265/12/235
f 259/11/236 258/4/236 262/4/236 263/11/236
f 258/4/237 260/3/237 264/3/237 262/4/237
f 249/12/6 247/11/6 269/11/6 268/12/6
f 246/4/238 248/3/238 266/3/238 267/4/238
f 273/12/239 271/11/239 281/11/239 278/12/239
f 274/4/240 276/3/240 272/3/240 270/4/240
f 277/12/6 275/11/6 271/11/6 273/12/6
f 265/12/6 263/11/6 275/11/6 277/12/6
f 264/19/241 265/18/241 277/18/241 276/19/241
f 262/4/242 264/3/242 276/3/242 274/4/242
f 263/11/243 262/4/243 274/4/243 275/11/243
f 280/4/244 279/3/244 283/3/244
f 271/11/245 270/4/245 280/4/245 281/11/245
f 270/4/246 272/3/246 279/3/246 280/4/246
f 272/19/247 273/18/247 278/18/247 279/19/247
f 280/4/248 283/3/248 285/3/248 286/4/248
f 279/19/249 278/18/249 282/18/249 283/19/249
f 286/4/250 285/3/250 289/3/250 290/4/250
f 305/19/251 306/18/251 284/18/251 285/19/251
f 281/11/252 280/4/252 286/4/252 287/11/252
f 291/11/253 290/4/253 289/55/253 288/56/253
f 285/19/254 284/18/254 288/18/254 289/19/254
f 284/18/255 287/11/255 291/11/255 288/56/255
f 287/11/256 286/4/256 290/4/256 291/11/256
f 18/25/257 292/57/257 212/54/257 218/50/257
f 221/27/258 220/47/258 212/54/258 292/57/258
f 11/20/259 292/57/259 153/43/259 154/2/259
f 18/25/260 148/31/260 153/43/260 292/57/260
f 19/28/261 292/57/261 11/20/261 10/1/261
f 19/28/262 221/27/262 292/57/262
f 248/19/263 249/18/263 294/18/263 293/19/263
f 272/3/264 276/3/264 277/18/264 273/12/264
f 271/11/265 275/11/265 274/4/265 270/4/265
f 294/12/266 296/12/266 300/12/266 298/12/266
f 268/18/267 266/19/267 295/19/267 296/18/267
f 249/12/268 268/12/268 296/12/268 294/12/268
f 266/3/269 248/3/269 293/3/269 295/3/269
f 297/19/270 298/18/270 302/18/270 301/19/270
f 293/19/271 294/18/271 298/18/271 297/19/271
f 296/18/272 295/19/272 299/19/272 300/18/272
f 295/3/273 293/3/273 297/3/273 299/3/273
f 304/18/274 303/19/274 307/19/274 308/18/274
f 300/18/275 299/19/275 303/19/275 304/18/275
f 299/3/276 297/3/276 301/3/276 303/3/276
f 298/12/277 300/12/277 304/12/277 302/12/277
f 307/3/278 305/3/278 285/3/278 283/3/278
f 303/3/279 301/3/279 305/3/279 307/3/279
f 302/12/280 304/12/280 308/12/280 306/12/280
f 301/19/281 302/18/281 306/18/281 305/19/281
f 306/12/282 308/12/282 282/12/282 284/12/282
f 308/18/283 307/19/283 283/19/283 282/18/283
f 287/11/284 284/18/284 282/12/284 281/11/284
f 281/11/285 282/12/285 278/18/285
