# Blender 5.1.1
# www.blender.org
mtllib TutorialMap.mtl
o Cube
v 19.943150 10.506739 120.131340
v 19.943150 -0.960000 120.131340
v 15.441443 13.072818 138.624893
v 15.441443 -0.960000 138.624893
v -17.289379 10.506739 119.625114
v -17.289379 -0.960000 119.625114
v -15.640112 13.072818 138.231888
v -15.640112 -0.960000 138.231888
v 5.563341 7.976336 90.481163
v 5.563341 -0.960000 90.481163
v -9.148776 7.976336 91.849541
v -9.148776 -0.960000 91.849541
v 3.169123 8.297095 70.878876
v 3.169123 -0.960000 70.878876
v -15.049388 8.297095 66.367966
v -15.049388 -0.960000 66.367966
v 13.114448 8.297095 57.786324
v 13.114448 -0.960000 57.786324
v -0.158498 8.297095 49.337376
v -0.158498 -0.960000 49.337376
v 26.649794 8.297095 55.532101
v 26.649794 -0.960000 55.532101
v 20.485683 8.297095 40.706417
v 20.485683 -0.960000 40.706417
v 44.730778 8.297095 53.072376
v 44.730778 -0.960000 53.072376
v 39.227158 7.585813 38.875286
v 39.227158 -0.960000 38.875286
v 66.456680 7.585813 42.810303
v 66.456680 -0.960000 42.810303
v 53.472973 7.585813 34.931564
v 53.472973 -0.960000 34.931564
v 69.358383 7.585813 27.536377
v 69.358383 -0.960000 27.536377
v 52.892654 7.585813 21.399796
v 52.892654 -0.960000 21.399796
v 64.742310 9.699145 8.489893
v 64.742310 -0.960000 8.489893
v 53.249249 9.699145 -6.208623
v 53.249249 -0.960000 -6.208623
v 42.954582 9.699145 9.120333
v 42.954582 -0.960000 9.120333
v 28.593895 9.699145 -16.664200
v 28.593895 -0.960000 -16.664200
v 26.314608 9.699145 2.358711
v 26.314608 -0.960000 2.358711
v 11.128923 9.699145 -14.447314
v 11.128923 -0.960000 -14.447314
v 2.284267 9.699145 5.589106
v 2.284267 -0.960000 5.589106
v -9.270377 9.699145 -10.444571
v -9.270377 -0.960000 -10.444571
v -22.719622 9.699145 0.165664
v -22.719622 -0.960000 0.165664
v -20.922760 7.863033 -26.514267
v -20.922760 -0.960000 -26.514267
v -33.346077 7.863033 -20.378593
v -33.346077 -0.960000 -20.378593
v -24.050215 7.863033 -40.554035
v -24.050215 -0.960000 -40.554035
v -44.946911 7.863033 -37.438927
v -44.946911 -0.960000 -37.438927
v -30.996468 6.230782 -57.451698
v -30.996468 -0.960000 -57.451698
v -48.917278 6.942066 -66.698723
v -48.917278 -0.960000 -66.698723
v -17.789789 6.942066 -62.794857
v -17.789789 -0.960000 -62.794857
v -22.482670 6.942066 -78.648453
v -22.482670 -0.960000 -78.648453
v 12.572221 6.942066 -61.108791
v 12.572221 -0.960000 -61.108791
v 12.110970 6.942066 -76.338898
v 12.110970 -0.960000 -76.338898
v 37.139687 6.942066 -64.694176
v 37.139687 -0.960000 -64.694176
v 30.832863 6.642272 -82.997414
v 30.832863 -0.960000 -82.997414
v 52.039761 6.642272 -78.443962
v 52.039761 -0.960000 -78.443962
v 42.814964 6.642272 -93.239990
v 42.814964 -0.960000 -93.239990
v 65.115112 7.098499 -92.264496
v 65.115112 -0.960000 -92.264496
v 48.678123 7.098499 -105.042702
v 48.678123 -0.960000 -105.042702
v 67.144592 7.098499 -104.991173
v 67.144592 -0.960000 -104.991173
v 44.886902 7.098499 -125.041946
v 44.886902 -0.960000 -125.041946
v 38.538750 7.098499 -118.629692
v 38.538750 -0.960000 -118.629692
v 28.729616 6.411319 -136.979599
v 28.729616 -0.818293 -136.979599
v 19.969646 6.732080 -123.542686
v 19.969646 -0.818293 -123.542686
v 9.076200 6.411319 -144.989380
v 9.076200 -0.818293 -144.989380
v -10.114223 6.411319 -136.254959
v -10.114223 -0.818293 -136.254959
v -26.907494 6.553026 -166.887390
v -26.907494 -0.960000 -166.887390
v -45.390015 6.553026 -157.612839
v -45.390015 -0.960000 -157.612839
v -59.065441 6.873785 -179.368256
v -59.065441 -0.960000 -179.368256
v -80.136497 6.553026 -171.031052
v -80.136497 -0.960000 -171.031052
v -69.240379 6.873785 -191.562302
v -69.240379 -0.960000 -191.562302
v -98.377510 6.873785 -191.874069
v -98.377510 -0.960000 -191.874069
v -81.177017 6.873785 -210.303391
v -81.177017 -0.960000 -210.303391
v -53.147720 6.873785 -208.261215
v -53.147720 -0.960000 -208.261215
v -59.447994 6.873785 -226.949387
v -59.447994 -0.960000 -226.949387
v -29.463488 6.873785 -239.085236
v -29.463488 -0.960000 -239.085236
v -42.652420 6.873785 -250.055939
v -42.652420 -0.960000 -250.055939
v -10.213488 5.911506 -258.647552
v -10.213488 -0.960000 -258.647552
v -23.225714 5.911506 -265.715790
v -23.225714 -0.960000 -265.715790
v 7.654848 3.986947 -280.374817
v 7.654848 -0.960000 -280.374817
v -12.416524 3.986947 -281.439270
v -12.416524 -0.960000 -281.439270
v 12.231669 4.359004 -317.372314
v 12.231669 -1.011298 -317.372314
v -8.749953 4.359004 -316.024567
v -8.749953 -1.011298 -316.024567
v 13.426785 4.359004 -333.316650
v 13.426785 -1.011298 -333.316650
v -11.365625 4.359004 -332.901550
v -11.365625 -1.011298 -332.901550
v 11.783877 4.359004 -343.383575
v 11.783877 -1.011298 -343.383575
v -13.008535 4.359004 -342.968414
v -13.008535 -1.011298 -342.968414
v 6.110475 4.359004 -349.407745
v 6.110475 -1.011298 -349.407745
v -6.782219 4.359004 -349.168304
v -6.782219 -1.011298 -349.168304
v 1.830527 4.359004 -350.903992
v 1.830527 -1.011298 -350.903992
v -2.977727 4.359004 -350.783844
v -2.977727 -1.011298 -350.783844
v -48.029442 6.942066 -78.518822
v -48.029442 -0.960000 -78.518822
v -36.163773 6.942066 -90.451233
v -36.163773 -0.960000 -90.451233
v -67.641983 6.457234 -80.667145
v -67.641983 -0.774974 -80.667145
v -62.510929 6.457234 -97.256851
v -62.510929 -0.774974 -97.256851
v -99.055923 6.467915 -88.367050
v -99.055923 -0.785654 -88.367050
v -90.056435 6.467915 -105.539101
v -90.056435 -0.785654 -105.539101
v -133.498428 6.825851 -97.712601
v -133.498428 -0.960006 -97.712601
v -108.651405 6.825851 -108.450737
v -108.651405 -0.960006 -108.450737
v -142.019196 6.825851 -110.947121
v -142.019196 -0.960006 -110.947121
v -121.132065 6.825851 -117.565750
v -121.132065 -0.960006 -117.565750
v -139.891113 6.825851 -125.371521
v -139.891113 -0.960006 -125.371521
v -136.234604 8.429650 -145.037949
v -136.234604 -0.960006 -145.037949
v -118.726097 8.429650 -140.971909
v -118.726097 -0.660212 -140.971909
v -125.014740 8.399992 -164.662079
v -124.460281 -0.987357 -164.720139
v -102.738487 7.505013 -158.089874
v -102.461258 -0.945174 -158.118881
v -112.718369 6.873785 -180.667221
v -112.718369 -0.960000 -180.667221
v 41.524586 6.996598 -162.479599
v 41.524586 -1.403572 -162.479599
v 25.225437 6.996598 -161.157776
v 25.225437 -1.403572 -161.157776
v 19.816158 7.317358 -234.475830
v 19.816158 -1.403572 -234.475830
v 9.714700 7.317358 -228.270706
v 9.714700 -1.403572 -228.270706
v 16.533337 5.598536 -266.629700
v 16.533337 -0.647030 -266.629700
v 1.852303 5.598536 -254.576935
v 1.852303 -0.647030 -254.576935
v 41.524586 6.996598 -162.479599
v 41.524586 -1.403572 -162.479599
v 25.225437 6.996598 -161.157776
v 25.225437 -1.403572 -161.157776
v 38.924046 7.317358 -192.017715
v 38.924046 -1.403572 -192.017715
v 23.522430 7.317358 -187.828735
v 23.522430 -1.403572 -187.828735
v 28.852247 7.317358 -214.425690
v 28.852247 -1.403572 -214.425690
v 13.802898 7.317358 -209.085480
v 13.802898 -1.403572 -209.085480
v 19.816158 7.317358 -234.475830
v 19.816158 -1.403572 -234.475830
v 9.714700 7.317358 -228.270706
v 9.714700 -1.403572 -228.270706
v 10.924397 13.072818 144.279037
v 61.489708 7.098499 -113.507019
v 61.489708 -0.960000 -113.507019
v 10.924397 -0.960000 144.279037
v -11.203491 13.072818 143.886047
v -11.203491 -0.960000 143.886047
vn 0.0018 0.9906 -0.1369
vn -0.7867 -0.0000 0.6173
vn -0.9961 -0.0000 0.0883
vn -0.0000 -1.0000 -0.0000
vn 0.9716 -0.0000 0.2365
vn -0.0015 0.9962 -0.0876
vn 0.9926 -0.0000 -0.1212
vn 0.8998 -0.0000 -0.4364
vn -0.9596 -0.0000 -0.2813
vn -0.9742 -0.0000 0.2256
vn -0.0014 0.9999 0.0145
vn -0.0000 1.0000 -0.0000
vn -0.3857 -0.0000 -0.9226
vn 0.7963 -0.0000 0.6049
vn -0.7528 -0.0000 -0.6582
vn -0.0972 -0.0000 -0.9953
vn 0.1643 -0.0000 0.9864
vn 0.0053 0.9993 -0.0366
vn 0.0157 0.9994 -0.0308
vn 0.1348 -0.0000 0.9909
vn 0.4271 -0.0000 0.9042
vn -0.2668 -0.0000 -0.9638
vn 0.9824 -0.0000 0.1866
vn -0.9991 -0.0000 0.0428
vn -0.0451 0.9916 0.1210
vn 0.9719 -0.0000 -0.2355
vn 0.3904 -0.0000 -0.9206
vn 0.0022 0.9971 0.0764
vn 0.7878 -0.0000 -0.6160
vn -0.7773 -0.0000 0.6291
vn 0.1332 -0.0000 0.9911
vn -0.3765 -0.0000 0.9264
vn -0.1259 -0.0000 -0.9920
vn -0.8882 -0.0000 0.4594
vn -0.1925 -0.0000 -0.9813
vn -0.2120 -0.0000 0.9773
vn -0.8269 -0.0000 0.5623
vn -0.0464 0.9963 -0.0717
vn 0.8096 -0.0000 -0.5870
vn 0.0280 0.9977 -0.0618
vn 0.9761 -0.0000 -0.2174
vn 0.9249 -0.0000 -0.3802
vn -0.9909 -0.0000 0.1345
vn -0.0040 0.9995 0.0319
vn 0.3750 -0.0000 0.9270
vn -0.0554 -0.0000 0.9985
vn 0.0666 -0.0000 -0.9978
vn -0.3351 -0.0000 -0.9422
vn 0.0022 0.9999 -0.0101
vn 0.0046 0.9999 -0.0099
vn 0.1444 -0.0000 0.9895
vn 0.7264 -0.0000 0.6873
vn 0.6782 -0.0000 0.7349
vn -0.6498 -0.0000 -0.7601
vn -0.8956 -0.0000 -0.4449
vn -0.0213 0.9996 0.0198
vn 0.9875 -0.0000 0.1575
vn -0.2558 -0.0000 0.9667
vn 0.5706 -0.0000 -0.8212
vn -0.8014 -0.0000 0.5981
vn -0.3892 -0.0000 0.9211
vn -0.0060 -1.0000 -0.0045
vn -0.0164 0.9995 -0.0287
vn 0.5942 -0.0000 -0.8043
vn 0.0018 1.0000 0.0037
vn -0.0003 0.9999 -0.0148
vn -0.3602 -0.0000 0.9329
vn 0.5199 -0.0000 -0.8543
vn -0.5179 -0.0000 0.8554
vn 0.0018 -1.0000 0.0037
vn -0.0012 0.9999 0.0155
vn 0.3618 -0.0000 -0.9322
vn -0.0043 0.9999 0.0134
vn 0.7678 -0.0000 -0.6407
vn -0.6157 -0.0000 -0.7879
vn -0.7311 -0.0000 -0.6823
vn 0.7930 -0.0000 0.6093
vn 0.7201 -0.0000 0.6939
vn -0.6081 -0.0000 -0.7938
vn -0.6276 -0.0000 -0.7785
vn -0.8089 -0.0000 -0.5880
vn 0.0214 0.9993 -0.0311
vn 0.7128 -0.0000 0.7014
vn 0.0001 0.9999 0.0104
vn 0.9972 -0.0000 0.0747
vn 0.9924 -0.0000 0.1228
vn -0.9944 -0.0000 -0.1054
vn -0.0000 -1.0000 0.0014
vn -0.9869 -0.0000 0.1611
vn -0.9882 -0.0000 0.1532
vn 0.9869 -0.0000 -0.1611
vn 0.7280 -0.0000 -0.6856
vn -0.7056 -0.0000 -0.7086
vn -0.0250 -0.0000 -0.9997
vn 0.3300 -0.0000 -0.9440
vn -0.3909 -0.0000 -0.9204
vn -0.0189 0.9998 -0.0113
vn 0.6532 -0.0000 -0.7572
vn -0.9972 -0.0000 -0.0749
vn 0.0003 1.0000 0.0001
vn -0.1089 -0.0000 0.9941
vn -0.0072 -1.0000 -0.0043
vn 0.2501 -0.0000 -0.9682
vn 0.0051 -1.0000 0.0062
vn -0.2381 -0.0000 0.9712
vn 0.0003 -1.0000 0.0001
vn 0.2879 -0.0000 -0.9576
vn 0.1547 -0.0000 -0.9880
vn 0.0105 0.9999 0.0128
vn -0.2619 -0.0000 0.9651
vn -0.9893 -0.0000 -0.1460
vn -0.8408 -0.0000 0.5413
vn 0.5898 -0.0000 -0.8076
vn 0.0101 -0.9999 -0.0055
vn 0.0246 0.9997 -0.0078
vn 0.9948 -0.0000 0.1023
vn -0.0232 0.9972 0.0710
vn -0.9832 -0.0000 -0.1828
vn 0.0020 -1.0000 -0.0002
vn -0.8629 -0.0239 -0.5048
vn 0.0053 -0.9999 0.0125
vn 0.7283 0.0104 0.6852
vn -0.0001 -1.0000 0.0004
vn 0.0555 0.9971 -0.0524
vn -0.7994 -0.0237 -0.6003
vn 0.0148 0.9997 -0.0168
vn 0.4989 0.0071 0.8666
vn -0.0046 -0.9997 0.0249
vn 0.8938 -0.0000 0.4485
vn -0.0046 0.9997 0.0249
vn -0.7075 -0.0000 -0.7067
vn -0.0167 -0.9996 -0.0227
vn -0.8241 -0.0000 -0.5665
vn 0.8400 -0.0000 -0.5426
vn 0.0212 0.9961 -0.0862
vn -0.0074 0.9979 -0.0640
vn 0.9948 -0.0000 -0.1016
vn -0.0379 0.9980 -0.0515
vn -0.9581 -0.0000 0.2864
vn 0.0164 -0.9997 0.0158
vn -0.3197 -0.0000 0.9475
vn 0.0020 0.9999 0.0113
vn -0.9094 -0.0000 0.4158
vn -0.9980 -0.0000 0.0637
vn 0.9961 -0.0000 -0.0877
vn 0.9121 -0.0000 -0.4100
vn -0.9780 -0.0000 0.2084
vn 0.9117 -0.0000 -0.4109
vn -0.0178 -0.0000 0.9998
vn 0.8331 -0.0000 -0.5532
vn 0.7813 -0.0000 0.6242
vt 0.625000 0.500000
vt 0.875000 0.500000
vt 0.875000 0.750000
vt 0.625000 0.750000
vt 0.625000 0.000000
vt 0.375000 0.000000
vt 0.625000 0.250000
vt 0.375000 0.250000
vt 0.125000 0.500000
vt 0.375000 0.500000
vt 0.375000 0.750000
vt 0.125000 0.750000
vt 0.622099 0.500000
vt 0.377901 0.500000
vt 0.375000 0.500000
vt 0.625000 0.500000
vt 0.625000 1.000000
vt 0.375000 1.000000
s 0
usemtl Material
f 1/1/1 5/2/1 7/3/1 3/4/1
f 7/5/2 8/6/2 216/6/2 215/5/2
f 8/6/3 7/5/3 5/7/3 6/8/3
f 6/9/4 2/10/4 4/11/4 8/12/4
f 2/10/5 1/1/5 3/4/5 4/11/5
f 5/2/6 1/1/6 9/1/6 11/2/6
f 9/1/7 10/10/7 14/10/7 13/1/7
f 1/1/8 2/10/8 10/10/8 9/1/8
f 6/8/9 5/7/9 11/7/9 12/8/9
f 2/10/4 6/9/4 12/9/4 10/10/4
f 12/8/10 11/7/10 15/7/10 16/8/10
f 10/10/4 12/9/4 16/9/4 14/10/4
f 11/2/11 9/1/11 13/1/11 15/2/11
f 15/2/12 13/1/12 17/1/12 19/2/12
f 20/8/13 19/7/13 23/7/13 24/8/13
f 13/1/14 14/10/14 18/10/14 17/1/14
f 16/8/15 15/7/15 19/7/15 20/8/15
f 14/10/4 16/9/4 20/9/4 18/10/4
f 24/8/16 23/7/16 27/7/16 28/8/16
f 18/10/4 20/9/4 24/9/4 22/10/4
f 19/2/12 17/1/12 21/1/12 23/2/12
f 17/1/17 18/10/17 22/10/17 21/1/17
f 27/2/18 25/1/18 29/1/18 31/2/18
f 22/10/4 24/9/4 28/9/4 26/10/4
f 23/2/19 21/1/19 25/1/19 27/2/19
f 21/1/20 22/10/20 26/10/20 25/1/20
f 31/2/12 29/1/12 33/1/12 35/2/12
f 25/1/21 26/10/21 30/10/21 29/1/21
f 28/8/22 27/7/22 31/7/22 32/8/22
f 26/10/4 28/9/4 32/9/4 30/10/4
f 29/1/23 30/10/23 34/10/23 33/1/23
f 32/8/24 31/7/24 35/7/24 36/8/24
f 30/10/4 32/9/4 36/9/4 34/10/4
f 38/10/4 36/9/4 42/9/4 40/10/4
f 34/10/4 36/9/4 38/10/4
f 35/2/25 33/1/25 37/1/25
f 33/1/26 34/10/26 38/10/26 37/1/26
f 39/1/27 40/10/27 44/10/27 43/1/27
f 35/2/28 37/1/28 39/1/28 41/2/28
f 37/1/29 38/10/29 40/10/29 39/1/29
f 36/8/30 35/7/30 41/7/30 42/8/30
f 46/8/31 45/7/31 49/7/31 50/8/31
f 42/8/32 41/7/32 45/7/32 46/8/32
f 40/10/4 42/9/4 46/9/4 44/10/4
f 41/2/12 39/1/12 43/1/12 45/2/12
f 49/2/12 47/1/12 51/1/12 53/2/12
f 44/10/4 46/9/4 50/9/4 48/10/4
f 45/2/12 43/1/12 47/1/12 49/2/12
f 43/1/33 44/10/33 48/10/33 47/1/33
f 54/8/34 53/7/34 57/7/34 58/8/34
f 47/1/35 48/10/35 52/10/35 51/1/35
f 50/8/36 49/7/36 53/7/36 54/8/36
f 48/10/4 50/9/4 54/9/4 52/10/4
f 58/8/37 57/7/37 61/7/37 62/8/37
f 52/10/4 54/9/4 58/9/4 56/10/4
f 53/2/38 51/1/38 55/1/38 57/2/38
f 51/1/39 52/10/39 56/10/39 55/1/39
f 61/2/40 59/1/40 63/1/40 65/2/40
f 56/10/4 58/9/4 62/9/4 60/10/4
f 57/2/12 55/1/12 59/1/12 61/2/12
f 55/1/41 56/10/41 60/10/41 59/1/41
f 65/2/12 69/2/12 153/2/12 151/2/12
f 59/1/42 60/10/42 64/10/42 63/1/42
f 62/8/43 61/7/43 65/7/43 66/8/43
f 60/10/4 62/9/4 66/9/4 64/10/4
f 68/10/4 70/9/4 74/9/4 72/10/4
f 64/10/4 66/9/4 70/9/4 68/10/4
f 65/2/44 63/1/44 67/1/44 69/2/44
f 63/1/45 64/10/45 68/10/45 67/1/45
f 69/2/12 67/1/12 71/1/12 73/2/12
f 67/1/46 68/10/46 72/10/46 71/1/46
f 70/8/47 69/7/47 73/7/47 74/8/47
f 74/8/48 73/7/48 77/7/48 78/8/48
f 77/2/49 75/1/49 79/1/49 81/2/49
f 72/10/4 74/9/4 78/9/4 76/10/4
f 73/2/50 71/1/50 75/1/50 77/2/50
f 71/1/51 72/10/51 76/10/51 75/1/51
f 79/1/52 80/10/52 84/10/52 83/1/52
f 75/1/53 76/10/53 80/10/53 79/1/53
f 78/8/54 77/7/54 81/7/54 82/8/54
f 76/10/4 78/9/4 82/9/4 80/10/4
f 82/8/55 81/7/55 85/7/55 86/8/55
f 80/10/4 82/9/4 86/9/4 84/10/4
f 81/2/56 79/1/56 83/1/56 85/2/56
f 85/2/12 212/13/12 89/1/12 91/2/12
f 84/10/4 86/9/4 88/10/4
f 85/2/12 83/1/12 87/1/12
f 83/1/57 84/10/57 88/10/57 87/1/57
f 92/8/58 91/7/58 95/7/58 96/8/58
f 212/13/59 213/14/59 90/10/59 89/1/59
f 86/8/60 85/7/60 91/7/60 92/8/60
f 213/14/4 86/9/4 92/9/4 90/10/4
f 96/8/61 95/7/61 99/7/61 100/8/61
f 90/10/62 92/9/62 96/9/62 94/10/62
f 91/2/63 89/1/63 93/1/63 95/2/63
f 89/1/64 90/10/64 94/10/64 93/1/64
f 99/2/65 97/1/65 101/1/65 103/2/65
f 94/10/4 96/9/4 100/9/4 98/10/4
f 95/2/66 93/1/66 97/1/66 99/2/66
f 104/8/67 103/7/67 107/7/67 108/8/67
f 97/1/68 98/10/68 102/10/68 101/1/68
f 100/8/69 99/7/69 103/7/69 104/8/69
f 98/10/70 100/9/70 104/9/70 102/10/70
f 106/10/4 108/9/4 112/9/4 110/10/4
f 102/10/4 104/9/4 108/9/4 106/10/4
f 103/2/71 101/1/71 105/1/71 107/2/71
f 101/1/72 102/10/72 106/10/72 105/1/72
f 107/2/73 105/1/73 109/1/73 111/2/73
f 105/1/74 106/10/74 110/10/74 109/1/74
f 182/8/75 181/7/75 111/7/75 112/8/75
f 112/8/76 111/7/76 113/7/76 114/8/76
f 113/2/12 109/1/12 115/1/12 117/2/12
f 110/10/4 112/9/4 114/9/4
f 111/2/12 109/1/12 113/2/12
f 115/1/77 116/10/77 120/10/77 119/1/77
f 109/1/78 110/10/78 116/10/78 115/1/78
f 114/8/79 113/7/79 117/7/79 118/8/79
f 110/10/4 114/9/4 118/9/4 116/10/4
f 122/8/80 121/7/80 125/7/80 126/8/80
f 118/8/81 117/7/81 121/7/81 122/8/81
f 116/10/4 118/9/4 122/9/4 120/10/4
f 117/2/12 115/1/12 119/1/12 121/2/12
f 120/10/4 122/9/4 126/9/4 124/10/4
f 121/2/82 119/1/82 123/1/82 125/2/82
f 119/1/83 120/10/83 124/10/83 123/1/83
f 129/2/84 127/1/84 131/1/84 133/2/84
f 131/1/85 132/10/85 136/10/85 135/1/85
f 127/1/86 128/10/86 132/10/86 131/1/86
f 130/8/87 129/7/87 133/7/87 134/8/87
f 128/10/88 130/9/88 134/9/88 132/10/88
f 138/8/89 137/7/89 141/7/89 142/8/89
f 134/8/90 133/7/90 137/7/90 138/8/90
f 132/10/4 134/9/4 138/9/4 136/10/4
f 133/2/12 131/1/12 135/1/12 137/2/12
f 141/2/12 139/1/12 143/1/12 145/2/12
f 136/10/4 138/9/4 142/9/4 140/10/4
f 137/2/12 135/1/12 139/1/12 141/2/12
f 135/1/91 136/10/91 140/10/91 139/1/91
f 145/2/12 143/1/12 147/1/12 149/2/12
f 139/1/92 140/10/92 144/10/92 143/1/92
f 142/8/93 141/7/93 145/7/93 146/8/93
f 140/10/4 142/9/4 146/9/4 144/10/4
f 150/8/94 149/7/94 147/1/94 148/10/94
f 143/1/95 144/10/95 148/10/95 147/1/95
f 146/8/96 145/7/96 149/7/96 150/8/96
f 144/10/4 146/9/4 150/9/4 148/10/4
f 151/2/97 153/2/97 157/2/97 155/2/97
f 69/7/98 70/8/98 154/8/98 153/7/98
f 66/8/99 65/7/99 151/7/99 152/8/99
f 70/9/4 66/9/4 152/9/4 154/9/4
f 155/2/100 157/2/100 161/2/100 159/2/100
f 152/8/101 151/7/101 155/7/101 156/8/101
f 154/9/102 152/9/102 156/9/102 158/9/102
f 153/7/103 154/8/103 158/8/103 157/7/103
f 162/9/104 160/9/104 164/9/104 166/9/104
f 156/8/105 155/7/105 159/7/105 160/8/105
f 158/9/106 156/9/106 160/9/106 162/9/106
f 157/7/107 158/8/107 162/8/107 161/7/107
f 163/2/12 165/2/12 169/2/12 167/2/12
f 161/7/108 162/8/108 166/8/108 165/7/108
f 159/2/109 161/2/109 165/2/109 163/2/109
f 160/8/110 159/7/110 163/7/110 164/8/110
f 168/8/111 167/7/111 171/7/111 172/8/111
f 164/8/112 163/7/112 167/7/112 168/8/112
f 166/9/4 164/9/4 168/9/4 170/9/4
f 165/7/113 166/8/113 170/8/113 169/7/113
f 170/9/114 172/9/114 174/9/114 176/9/114
f 170/9/4 168/9/4 172/9/4
f 167/2/12 169/2/12 171/2/12
f 173/2/115 175/2/115 179/2/115 177/2/115
f 169/7/116 170/8/116 176/8/116 175/7/116
f 171/2/117 169/2/117 175/2/117 173/2/117
f 172/8/118 171/7/118 173/7/118 174/8/118
f 180/9/119 178/9/119 182/9/119
f 174/8/120 173/7/120 177/7/120 178/8/120
f 176/9/121 174/9/121 178/9/121 180/9/121
f 175/7/122 176/8/122 180/8/122 179/7/122
f 180/9/123 182/9/123 112/9/123 108/9/123
f 177/2/124 179/2/124 181/2/124
f 178/8/125 177/7/125 181/7/125 182/8/125
f 181/2/126 179/2/126 107/2/126 111/2/126
f 179/7/127 180/8/127 108/8/127 107/7/127
f 94/10/128 98/10/128 186/10/128 184/10/128
f 93/1/129 94/10/129 184/10/129 183/1/129
f 97/1/130 93/1/130 183/1/130 185/1/130
f 98/10/131 97/1/131 185/1/131 186/10/131
f 188/10/132 190/10/132 194/10/132 192/10/132
f 124/10/4 126/9/4 130/9/4 128/15/4
f 126/8/133 125/7/133 129/7/133 130/8/133
f 191/1/134 192/10/134 128/15/134 127/16/134
f 125/2/135 123/1/135 127/16/135 129/2/135
f 193/1/136 191/1/136 127/16/136 123/1/136
f 187/1/137 188/10/137 192/10/137 191/1/137
f 189/1/138 187/1/138 191/1/138 193/1/138
f 190/10/139 189/1/139 193/1/139 194/10/139
f 192/10/140 194/10/140 124/10/140 128/15/140
f 194/10/141 193/1/141 123/1/141 124/10/141
f 197/1/142 195/1/142 199/1/142 201/1/142
f 202/10/143 201/1/143 205/1/143 206/10/143
f 198/10/144 197/1/144 201/1/144 202/10/144
f 196/10/4 198/10/4 202/10/4 200/10/4
f 195/1/145 196/10/145 200/10/145 199/1/145
f 205/1/12 203/1/12 207/1/12 209/1/12
f 200/10/4 202/10/4 206/10/4 204/10/4
f 199/1/146 200/10/146 204/10/146 203/1/146
f 201/1/12 199/1/12 203/1/12 205/1/12
f 206/10/147 205/1/147 209/1/147 210/10/147
f 204/10/4 206/10/4 210/10/4 208/10/4
f 203/1/148 204/10/148 208/10/148 207/1/148
f 88/10/4 86/9/4 213/14/4
f 214/11/149 211/4/149 215/17/149 216/18/149
f 87/1/150 88/10/150 213/14/150 212/13/150
f 85/2/12 87/1/12 212/13/12
f 8/12/4 4/11/4 214/11/4 216/12/4
f 3/4/12 7/3/12 215/3/12 211/4/12
f 4/11/151 3/4/151 211/4/151 214/11/151
