# This file uses centimeters as units for non-parametric coordinates.

mtllib Mud.mtl
g default
v -1.941776 0.148540 1.965608
v 0.288574 0.290876 2.554669
v -0.188182 0.584053 0.117185
v -2.531863 0.275569 0.275501
v 2.147032 0.259985 -0.132555
v 2.117496 0.145919 1.853815
v 1.416375 0.084521 -1.990853
v -0.464833 0.222223 -2.117496
v -2.278888 0.151069 -1.322531
v -1.058395 0.213016 2.210696
v -1.447086 0.499709 0.206741
v -1.569004 0.256864 -1.844562
v 0.668236 0.147856 -2.289829
v 1.040922 0.466736 0.007703
v 1.360226 0.251500 2.206635
v 1.734094 0.201069 -1.197479
v 0.832627 0.399903 -1.156352
v -0.359350 0.527073 -1.111207
v -1.507074 0.371065 -0.865168
v -2.584930 0.163076 -0.652927
v 2.411343 0.224442 1.047757
v 1.230326 0.395564 1.175187
v -0.002596 0.501574 1.322003
v -1.321255 0.391289 1.313944
v -2.373202 0.195605 1.248998
v 1.328745 -0.431694 2.065168
v 0.198705 -0.426684 2.316257
v -0.996783 -0.395622 2.157718
v -1.871230 -0.346257 1.917613
v -2.328225 -0.411776 1.226150
v -2.638413 -0.359337 0.226947
v -2.490299 -0.361742 -0.615634
v -2.212819 -0.307457 -1.259785
v -1.528756 -0.404733 -1.685667
v -0.434272 -0.432446 -1.915767
v 0.647562 -0.399856 -1.994926
v 1.391633 -0.297973 -1.872454
v 1.825949 -0.363934 -1.165979
v 2.148849 -0.407171 -0.126869
v 2.227952 -0.441481 0.998886
v 2.030654 -0.334793 1.748352
v 0.013030 -0.549341 1.248496
v 1.200974 -0.526191 1.110681
v -1.232699 -0.544427 1.255883
v -1.413814 -0.572429 0.214090
v -0.146577 -0.612277 0.163335
v 1.113739 -0.587508 0.042516
v 0.873423 -0.603707 -1.049896
v -0.300589 -0.576521 -0.945650
v -1.461646 -0.511508 -0.771317
v 0.862237 0.279170 2.375091
v 0.639600 0.520470 1.291850
v 0.442046 0.541177 0.058954
v 0.261028 0.500162 -1.131395
v 0.080738 0.195729 -2.183777
v 0.118796 -0.430044 -1.961592
v 0.298099 -0.573099 -0.996817
v 0.487787 -0.636136 0.112051
v 0.622653 -0.581281 1.188472
v 0.789942 -0.452843 2.216648
v 1.575332 0.376664 -0.052012
v 1.808220 0.333364 1.107589
v 1.824373 0.163959 1.978067
v 1.769957 -0.409060 1.893546
v 1.760795 -0.520372 1.049421
v 1.663613 -0.500205 -0.043161
v 1.440103 -0.519951 -1.117154
v 1.100540 -0.346000 -1.928924
v 1.107916 0.088046 -2.094901
v 1.336691 0.368691 -1.165712
v -0.824564 0.541867 0.163526
v -0.670841 0.481407 1.326331
v -0.414275 0.241158 2.361862
v -0.416055 -0.418541 2.273150
v -0.605988 -0.579199 1.266146
v -0.783206 -0.626353 0.195519
v -0.891601 -0.564001 -0.860006
v -0.990358 -0.454578 -1.829206
v -1.040987 0.224612 -2.060551
v -0.949765 0.479416 -1.013144
v -1.593256 0.182366 2.072024
v -1.898743 0.338859 1.274166
v -2.040477 0.407270 0.247455
v -2.064374 0.299939 -0.752071
v -1.998903 0.164033 -1.559333
v -1.950179 -0.367315 -1.449884
v -2.013039 -0.453598 -0.695853
v -2.081715 -0.524081 0.221175
v -1.808052 -0.482745 1.231968
v -1.505814 -0.362961 2.026335
v -2.470066 0.273260 0.770470
v -1.963237 0.386277 0.756328
v -1.380889 0.464078 0.766326
v -0.762682 0.491017 0.743233
v -0.093448 0.557092 0.710463
v 0.540611 0.545312 0.664988
v 1.140887 0.459960 0.596162
v 1.747037 0.373008 0.522829
v 2.320965 0.250323 0.440349
v 2.248008 -0.469527 0.407860
v 1.734164 -0.559079 0.506476
v 1.166615 -0.614415 0.587144
v 0.555041 -0.629220 0.661116
v -0.067340 -0.605263 0.723540
v -0.700722 -0.586153 0.729696
v -1.331597 -0.567299 0.729966
v -1.964726 -0.502463 0.722544
v -2.514801 -0.362549 0.725503
v 0.121277 0.398721 1.904591
v -0.543778 0.374506 1.868911
v -1.206055 0.318869 1.850438
v -1.774042 0.261006 1.732631
v -2.160887 0.170598 1.679788
v -2.050376 -0.369521 1.628156
v -1.657662 -0.435988 1.686442
v -1.115311 -0.476545 1.773441
v -0.510389 -0.506277 1.827069
v 0.104046 -0.537519 1.806132
v 0.695367 -0.537878 1.713252
v 1.250249 -0.510583 1.608493
v 1.759182 -0.472438 1.517233
v 2.128040 -0.370434 1.448924
v 2.243350 0.197946 1.556684
v 1.820910 0.321447 1.623266
v 1.291543 0.382726 1.731934
v 0.741657 0.393820 1.836793
v 1.953479 0.208970 -0.700964
v 1.446503 0.357221 -0.619007
v 0.930703 0.437364 -0.576152
v 0.343394 0.497443 -0.535525
v -0.277037 0.531974 -0.480725
v -0.883158 0.483177 -0.412950
v -1.492598 0.428059 -0.335975
v -2.100014 0.330491 -0.263334
v -2.619616 0.235430 -0.185182
v -2.606624 -0.342051 -0.203483
v -2.105660 -0.488395 -0.249814
v -1.462319 -0.538269 -0.288367
v -0.842503 -0.624753 -0.344646
v -0.223775 -0.631784 -0.391619
v 0.395470 -0.592174 -0.445747
v 1.011234 -0.576516 -0.513159
v 1.568807 -0.477482 -0.599935
v 2.027714 -0.383542 -0.690840
v -0.419961 0.412776 -1.696634
v 0.182127 0.398706 -1.707273
v 0.731670 0.334826 -1.695730
v 1.212051 0.269759 -1.673189
v 1.565943 0.170477 -1.667516
v 1.560126 -0.320826 -1.581607
v 1.229839 -0.462655 -1.569720
v 0.750413 -0.512065 -1.565778
v 0.197482 -0.495973 -1.539502
v -0.370588 -0.519916 -1.468738
v -0.938918 -0.533995 -1.365168
v -1.480590 -0.476466 -1.243817
v -1.947254 -0.419878 -1.102953
v -2.327116 -0.341200 -1.008044
v -2.422016 0.165615 -1.061996
v -2.003662 0.257968 -1.192394
v -1.534983 0.350107 -1.379480
v -0.988219 0.390850 -1.594794
v 1.405339 -0.141986 2.492735
v 0.900395 -0.095350 2.679561
v 0.363946 -0.063928 2.863732
v -0.368141 -0.103407 2.712753
v -0.942698 -0.110992 2.459548
v -1.490816 -0.121501 2.281568
v -1.996121 -0.153373 2.048991
v -2.375245 -0.147095 1.685585
v -2.662593 -0.155986 1.254767
v -2.858083 -0.148388 0.778657
v -2.905555 -0.146363 0.260300
v -2.937125 -0.135287 -0.165451
v -2.816759 -0.126857 -0.628990
v -2.618866 -0.112760 -0.973924
v -2.368598 -0.121334 -1.372988
v -2.063062 -0.151342 -1.751492
v -1.624759 -0.183544 -2.106543
v -1.056556 -0.201380 -2.291162
v -0.487763 -0.206708 -2.291467
v 0.038545 -0.218230 -2.412828
v 0.582717 -0.192039 -2.420752
v 1.063465 -0.186900 -2.217489
v 1.448348 -0.153856 -2.034467
v 1.781052 -0.139618 -1.693468
v 2.094637 -0.139218 -1.249066
v 2.300403 -0.130968 -0.747336
v 2.434760 -0.100601 -0.168148
v 2.696080 -0.157120 0.405424
v 2.707057 -0.198770 1.031079
v 2.421318 -0.198546 1.509681
v 2.161839 -0.171915 1.911073
v 1.814049 -0.126887 2.207724
v 1.382168 -0.291858 2.340196
v 0.864555 -0.284381 2.540342
v 0.279146 -0.267871 2.689826
v -0.349210 -0.274436 2.619493
v -0.946009 -0.245942 2.416390
v -1.481880 -0.252188 2.191880
v -1.951760 -0.276279 1.963090
v -2.259318 -0.279887 1.647098
v -2.527541 -0.300549 1.235843
v -2.711810 -0.294995 0.750944
v -2.815235 -0.267826 0.256336
v -2.821364 -0.254422 -0.180535
v -2.694115 -0.272295 -0.605793
v -2.519239 -0.253582 -0.977631
v -2.288096 -0.249149 -1.314476
v -1.995893 -0.287479 -1.630063
v -1.549872 -0.342145 -1.884165
v -1.019833 -0.342367 -2.066764
v -0.471626 -0.326803 -2.146587
v 0.060250 -0.378390 -2.229052
v 0.591700 -0.329428 -2.207095
v 1.052278 -0.274799 -2.117190
v 1.422803 -0.247796 -1.952477
v 1.698561 -0.253031 -1.625777
v 1.988135 -0.282201 -1.196560
v 2.199635 -0.260877 -0.710056
v 2.369950 -0.293905 -0.163142
v 2.540471 -0.328252 0.393269
v 2.487484 -0.351760 1.011407
v 2.266771 -0.315083 1.441085
v 2.080622 -0.288241 1.816479
v 1.797939 -0.269738 2.123923
v 0.335895 0.112469 2.779414
v 0.908788 0.106171 2.612756
v 1.416890 0.040614 2.515702
v 1.806942 0.042259 2.156030
v 2.169102 -0.005812 1.980485
v 2.475309 0.012759 1.513247
v 2.721836 0.024975 1.042752
v 2.670413 0.039075 0.422714
v 2.388905 0.046111 -0.167341
v 2.267153 0.074382 -0.761403
v 2.005476 0.044793 -1.237817
v 1.757520 -0.004026 -1.720741
v 1.474224 -0.018274 -2.045018
v 1.111997 -0.016261 -2.255542
v 0.643130 0.022162 -2.522132
v 0.076386 0.041111 -2.360999
v -0.473836 0.060666 -2.281619
v -1.067989 0.072782 -2.320630
v -1.605015 0.061462 -2.077506
v -2.055400 0.052040 -1.717724
v -2.350036 0.020109 -1.375429
v -2.593260 0.016671 -0.997340
v -2.787860 0.035304 -0.636016
v -2.884067 0.073164 -0.163759
v -2.831516 0.087000 0.243729
v -2.814978 0.067347 0.759279
v -2.654602 0.066450 1.283464
v -2.349988 0.071691 1.680856
v -1.978699 0.046257 2.036338
v -1.534982 0.053018 2.251966
v -0.968508 0.071844 2.386897
v -0.364396 0.089479 2.610370
vt 0.478710 0.418166
vt 0.269619 0.501946
vt 0.284118 0.261921
vt 0.511845 0.246539
vt 0.083538 0.459823
vt 0.055265 0.268010
vt 0.099782 0.077269
vt 0.281648 0.040468
vt 0.468314 0.094935
vt 0.396521 0.453863
vt 0.405344 0.254274
vt 0.391467 0.055329
vt 0.169199 0.038957
vt 0.164826 0.266991
vt 0.162165 0.483349
vt 0.079899 0.159139
vt 0.169760 0.152818
vt 0.284636 0.142605
vt 0.398397 0.150353
vt 0.506712 0.155470
vt 0.046063 0.385151
vt 0.161480 0.381308
vt 0.282089 0.379340
vt 0.408498 0.362187
vt 0.510913 0.343018
vt 0.479115 0.936735
vt 0.573086 0.875462
vt 0.365129 0.963185
vt 0.277312 0.970993
vt 0.212922 0.922768
vt 0.149704 0.843188
vt 0.134557 0.761444
vt 0.136430 0.693085
vt 0.185742 0.631341
vt 0.277540 0.572783
vt 0.373483 0.528525
vt 0.446102 0.512384
vt 0.509805 0.563323
vt 0.574099 0.647489
vt 0.618664 0.747961
vt 0.627988 0.823603
vt 0.425844 0.845434
vt 0.528930 0.792954
vt 0.313425 0.887896
vt 0.261853 0.799725
vt 0.374747 0.752345
vt 0.484751 0.698724
vt 0.425706 0.608586
vt 0.323059 0.657046
vt 0.223610 0.712207
vt 0.212340 0.492934
vt 0.220428 0.384260
vt 0.223158 0.264337
vt 0.225364 0.148467
vt 0.227647 0.040803
vt 0.326417 0.549793
vt 0.375439 0.632286
vt 0.430348 0.726314
vt 0.478881 0.819237
vt 0.529125 0.907141
vt 0.112176 0.268100
vt 0.105239 0.382425
vt 0.112982 0.469542
vt 0.607184 0.844916
vt 0.577408 0.768334
vt 0.532184 0.671934
vt 0.474625 0.582933
vt 0.417223 0.518025
vt 0.127629 0.061774
vt 0.121562 0.158496
vt 0.345424 0.258152
vt 0.345899 0.371346
vt 0.335933 0.476769
vt 0.421816 0.953733
vt 0.370406 0.867619
vt 0.318327 0.776670
vt 0.272501 0.684904
vt 0.230279 0.600286
vt 0.338389 0.039233
vt 0.342229 0.144049
vt 0.446479 0.433193
vt 0.463477 0.350723
vt 0.462982 0.250415
vt 0.453630 0.153673
vt 0.438573 0.074932
vt 0.155196 0.667101
vt 0.175972 0.737828
vt 0.201766 0.823029
vt 0.260403 0.905507
vt 0.314312 0.968912
vt 0.512206 0.294962
vt 0.462515 0.300167
vt 0.406576 0.308619
vt 0.347328 0.314495
vt 0.282763 0.319631
vt 0.221723 0.323300
vt 0.162981 0.324497
vt 0.103578 0.325483
vt 0.046417 0.325553
vt 0.600033 0.693735
vt 0.556348 0.720061
vt 0.507596 0.746354
vt 0.454907 0.773672
vt 0.400798 0.800371
vt 0.343769 0.822308
vt 0.286731 0.843606
vt 0.228995 0.864571
vt 0.177753 0.884568
vt 0.277859 0.437360
vt 0.341348 0.425952
vt 0.404934 0.415644
vt 0.458248 0.396910
vt 0.496155 0.387606
vt 0.251175 0.950896
vt 0.289231 0.941956
vt 0.341425 0.931380
vt 0.398066 0.915621
vt 0.452920 0.892733
vt 0.503224 0.864356
vt 0.550028 0.836327
vt 0.593247 0.810909
vt 0.626206 0.792675
vt 0.068427 0.431850
vt 0.111203 0.431873
vt 0.163319 0.435411
vt 0.217339 0.438776
vt 0.065147 0.210055
vt 0.116951 0.211999
vt 0.167680 0.209732
vt 0.224735 0.206276
vt 0.284924 0.203704
vt 0.343927 0.202095
vt 0.403421 0.201423
vt 0.463190 0.200206
vt 0.514658 0.201011
vt 0.137403 0.803018
vt 0.183198 0.781398
vt 0.240104 0.755935
vt 0.294729 0.729919
vt 0.348929 0.704782
vt 0.403082 0.678904
vt 0.456665 0.652066
vt 0.504878 0.624585
vt 0.544004 0.600153
vt 0.282894 0.085055
vt 0.225174 0.091692
vt 0.172212 0.099343
vt 0.126167 0.107522
vt 0.090880 0.111606
vt 0.471893 0.533013
vt 0.440721 0.548513
vt 0.397320 0.565355
vt 0.347898 0.585905
vt 0.298871 0.611810
vt 0.251107 0.640847
vt 0.205720 0.670043
vt 0.167731 0.698634
vt 0.135565 0.720153
vt 0.485125 0.118412
vt 0.442311 0.111809
vt 0.393994 0.100833
vt 0.338576 0.087376
vt 0.625505 0.351081
vt 0.634697 0.300080
vt 0.646413 0.247955
vt 0.673513 0.183625
vt 0.694031 0.126901
vt 0.713547 0.074531
vt 0.735393 0.025366
vt 0.819856 0.721528
vt 0.800236 0.676255
vt 0.782870 0.630611
vt 0.768913 0.583108
vt 0.756889 0.544409
vt 0.746156 0.500501
vt 0.739314 0.463204
vt 0.733665 0.418198
vt 0.731035 0.371844
vt 0.730621 0.318862
vt 0.736153 0.263134
vt 0.749495 0.210134
vt 0.759060 0.158950
vt 0.768786 0.107900
vt 0.794191 0.064522
vt 0.813890 0.028244
vt 0.738710 0.795479
vt 0.713640 0.749964
vt 0.689666 0.704100
vt 0.662779 0.653061
vt 0.640870 0.596751
vt 0.624125 0.540428
vt 0.621224 0.488258
vt 0.616827 0.442513
vt 0.617079 0.398222
vt 0.589531 0.900911
vt 0.657049 0.307005
vt 0.672997 0.248620
vt 0.691539 0.188985
vt 0.707489 0.129692
vt 0.728601 0.077518
vt 0.855612 0.756669
vt 0.836870 0.718129
vt 0.819219 0.673345
vt 0.802200 0.625181
vt 0.783272 0.579286
vt 0.771524 0.537926
vt 0.763662 0.494772
vt 0.754239 0.455686
vt 0.749169 0.416296
vt 0.749602 0.374032
vt 0.757280 0.323224
vt 0.761708 0.267508
vt 0.767557 0.213859
vt 0.782164 0.163451
vt 0.792930 0.112323
vt 0.806510 0.068464
vt 0.772256 0.823756
vt 0.751592 0.787740
vt 0.729679 0.742045
vt 0.704214 0.696670
vt 0.681367 0.646104
vt 0.662531 0.592547
vt 0.648655 0.532238
vt 0.640771 0.484884
vt 0.633163 0.444583
vt 0.632233 0.403887
vt 0.268667 0.529822
vt 0.614356 0.297031
vt 0.608086 0.347358
vt 0.599914 0.398211
vt 0.600199 0.437467
vt 0.600109 0.491914
vt 0.603251 0.544384
vt 0.622709 0.603223
vt 0.649947 0.660686
vt 0.672609 0.714976
vt 0.698050 0.762022
vt 0.729326 0.805259
vt 0.803786 0.019456
vt 0.780966 0.053001
vt 0.749134 0.094749
vt 0.734764 0.150669
vt 0.724044 0.203711
vt 0.709929 0.259967
vt 0.706605 0.318317
vt 0.711452 0.375254
vt 0.719907 0.418695
vt 0.726406 0.461859
vt 0.730387 0.501871
vt 0.736758 0.549113
vt 0.745667 0.588629
vt 0.762295 0.636502
vt 0.781405 0.687053
vt 0.801361 0.731941
vt 0.716875 0.019460
vt 0.699428 0.063953
vt 0.678067 0.116162
vt 0.654735 0.174163
vt 0.336050 0.505540
vt 0.629216 0.239961
vt 0.392705 0.477131
vt 0.445921 0.455407
vt 0.486658 0.427986
vt 0.516873 0.386609
vt 0.541149 0.343513
vt 0.550678 0.290077
vt 0.545356 0.239150
vt 0.544428 0.198304
vt 0.529899 0.152804
vt 0.507978 0.118731
vt 0.479239 0.084133
vt 0.444148 0.056021
vt 0.394851 0.026060
vt 0.338510 0.010069
vt 0.280091 0.018202
vt 0.224812 0.018249
vt 0.166912 0.013445
vt 0.123106 0.043751
vt 0.089949 0.069299
vt 0.066114 0.105563
vt 0.049484 0.157081
vt 0.031655 0.207595
vt 0.023875 0.266861
vt 0.007040 0.329253
vt 0.011015 0.390538
vt 0.039527 0.435067
vt 0.075557 0.477984
vt 0.114390 0.490541
vt 0.158210 0.519731
vt 0.209686 0.521660
vt 0.621004 0.867166
vt 0.644229 0.359870
vt 0.635994 0.828538
vt 0.639766 0.787506
vt 0.644105 0.740156
vt 0.628693 0.681213
vt 0.595011 0.635029
vt 0.561808 0.590024
vt 0.524690 0.553539
vt 0.483708 0.522940
vt 0.446586 0.502763
vt 0.406597 0.501036
vt 0.361149 0.509992
vt 0.311929 0.527102
vt 0.265178 0.551273
vt 0.218076 0.577902
vt 0.176183 0.613476
vt 0.143169 0.651662
vt 0.126156 0.690304
vt 0.116926 0.729153
vt 0.114531 0.769390
vt 0.117079 0.812792
vt 0.132748 0.852628
vt 0.159826 0.894074
vt 0.193153 0.932471
vt 0.231803 0.961685
vt 0.270986 0.980309
vt 0.321862 0.986815
vt 0.378641 0.989231
vt 0.440216 0.985683
vt 0.500154 0.970673
vt 0.548850 0.937175
vt 0.752801 0.839832
vt 0.764584 0.833445
vt 0.824930 0.033698
vt 0.826541 0.775187
vt 0.843650 0.765973
vt 0.749331 0.031265
vn -0.310786 0.842577 0.439860
vn -0.196382 0.875660 0.441197
vn -0.173493 0.958684 0.225443
vn -0.331423 0.899363 0.285141
vn 0.423961 0.797443 0.429351
vn 0.385725 0.897614 0.213320
vn 0.196850 0.970163 0.141543
vn 0.299696 0.867727 0.396525
vn 0.335784 0.934238 -0.120200
vn 0.337246 0.929981 -0.146288
vn 0.197386 0.976630 -0.085051
vn 0.180061 0.981396 -0.066639
vn -0.189360 0.981678 -0.021252
vn -0.195381 0.975124 -0.104690
vn -0.349649 0.932815 -0.087193
vn -0.348855 0.937141 0.008232
vn -0.022850 0.979474 0.200269
vn -0.080580 0.971220 0.224138
vn -0.130986 0.920324 0.368574
vn -0.017897 0.932163 0.361597
vn -0.014184 0.998924 -0.044151
vn -0.098153 0.993533 -0.057081
vn -0.074670 0.997186 -0.006641
vn -0.015128 0.999708 -0.018854
vn 0.082356 0.995667 -0.043173
vn 0.084448 0.994807 -0.056817
vn 0.115858 0.939623 0.322001
vn 0.068173 0.982647 0.172504
vn 0.239680 0.875641 -0.419293
vn 0.192907 0.943056 -0.270984
vn 0.387387 0.869259 -0.307115
vn 0.322163 0.823676 -0.466657
vn -0.029474 0.961344 -0.273768
vn 0.059255 0.960483 -0.271957
vn 0.004108 0.891530 -0.452944
vn -0.028651 0.881974 -0.470426
vn -0.102965 0.898576 -0.426567
vn -0.105066 0.970261 -0.218069
vn -0.398255 0.891829 -0.214556
vn -0.233107 0.963524 -0.131463
vn -0.371103 0.872413 -0.318086
vn -0.431966 0.835652 -0.339252
vn 0.171132 0.985226 0.006552
vn 0.346947 0.936165 -0.056778
vn -0.023865 0.998273 0.053687
vn 0.085496 0.995982 0.026658
vn -0.071283 0.994521 0.076462
vn -0.350221 0.929675 0.114238
vn -0.180815 0.978183 0.102295
vn -0.003483 -0.954894 0.296926
vn 0.066497 -0.957255 0.281498
vn 0.145812 -0.819035 0.554906
vn 0.014034 -0.804176 0.594226
vn -0.133394 -0.784481 0.605636
vn -0.074026 -0.947302 0.311671
vn -0.161283 -0.916703 0.365572
vn -0.263234 -0.690343 0.673895
vn -0.405133 -0.704605 0.582579
vn -0.227263 -0.904061 0.361974
vn -0.502020 -0.752099 0.426994
vn -0.231833 -0.943226 0.237862
vn -0.314297 -0.949257 0.011359
vn -0.283520 -0.956426 0.069758
vn -0.559323 -0.818077 0.133818
vn -0.580203 -0.813701 0.035427
vn -0.586391 -0.805525 -0.085291
vn -0.313161 -0.947526 -0.064230
vn -0.350450 -0.905377 -0.239744
vn -0.291330 -0.939480 -0.180291
vn -0.582114 -0.733807 -0.350244
vn -0.572011 -0.714460 -0.402928
vn -0.422389 -0.808131 -0.410501
vn -0.237786 -0.950228 -0.201307
vn -0.018567 -0.969796 -0.243209
vn -0.072182 -0.966654 -0.245704
vn -0.104607 -0.874978 -0.472727
vn -0.075062 -0.877041 -0.474516
vn -0.027948 -0.891765 -0.451635
vn 0.001775 -0.975580 -0.219638
vn 0.304299 -0.888822 -0.342634
vn 0.177466 -0.924397 -0.337634
vn 0.232291 -0.839391 -0.491390
vn 0.411573 -0.766847 -0.492497
vn 0.496195 -0.769225 -0.402597
vn 0.343274 -0.888393 -0.304830
vn 0.270053 -0.953744 -0.132073
vn 0.312674 -0.943141 -0.112787
vn 0.651052 -0.724749 -0.225546
vn 0.643570 -0.727015 -0.239306
vn 0.587773 -0.798949 -0.127294
vn 0.263530 -0.962933 -0.057556
vn 0.283240 -0.941729 0.181446
vn 0.442074 -0.848394 0.291200
vn 0.485486 -0.766379 0.420673
vn 0.361170 -0.899322 0.246528
vn 0.376886 -0.754360 0.537492
vn 0.215217 -0.941235 0.260305
vn -0.011697 -0.991282 0.131235
vn 0.033820 -0.993279 0.110694
vn 0.146699 -0.981379 0.123992
vn -0.038703 -0.987290 0.154142
vn -0.126843 -0.974652 0.184294
vn -0.173820 -0.984774 0.002515
vn -0.156293 -0.986206 0.054500
vn -0.015899 -0.998398 0.054309
vn -0.023023 -0.998658 0.046400
vn -0.039985 -0.998933 0.023126
vn -0.005231 -0.999900 0.013138
vn 0.016672 -0.999625 -0.021736
vn 0.011665 -0.998529 0.052950
vn 0.128887 -0.991582 -0.012371
vn 0.150610 -0.984589 -0.088892
vn 0.189188 -0.980969 -0.043691
vn 0.005471 -0.998998 -0.044411
vn 0.017993 -0.999232 -0.034808
vn -0.063030 -0.996905 -0.046997
vn -0.170352 -0.982958 -0.069096
vn -0.179064 -0.976160 -0.122671
vn 0.001063 -0.990332 -0.138714
vn -0.061759 -0.991316 -0.116094
vn -0.008476 -0.987010 -0.160436
vn 0.190321 -0.947257 -0.257841
vn 0.216081 0.908341 0.358087
vn 0.142628 0.978161 0.151189
vn 0.149476 0.988607 0.017679
vn 0.134532 0.989713 -0.048674
vn 0.123631 0.990367 -0.062361
vn 0.127873 0.955904 -0.264381
vn 0.116233 0.897528 -0.425363
vn 0.073521 -0.959920 -0.270459
vn 0.120318 -0.884429 -0.450898
vn 0.035521 -0.978165 -0.204773
vn 0.089147 -0.995782 -0.021687
vn 0.090211 -0.994293 -0.056951
vn 0.075053 -0.996735 0.029773
vn 0.078093 -0.991799 0.101177
vn 0.133768 -0.953176 0.271222
vn 0.248094 -0.800185 0.546033
vn -0.110668 0.993678 -0.018864
vn -0.097031 0.991138 0.090718
vn -0.119717 0.964083 0.237091
vn -0.143765 0.895363 0.421494
vn -0.238974 -0.727532 0.643109
vn -0.128001 -0.930783 0.342430
vn -0.084624 -0.979972 0.180260
vn -0.084416 -0.996426 0.002981
vn -0.073529 -0.996021 0.050348
vn -0.102374 -0.992938 -0.059953
vn -0.131511 -0.985716 -0.105205
vn -0.168450 -0.962337 -0.213384
vn -0.249381 -0.865457 -0.434504
vn -0.185790 0.971447 -0.147553
vn -0.237202 0.904733 -0.353828
vn -0.138177 0.986271 -0.090422
vn -0.335806 0.920879 0.198030
vn -0.182304 0.969496 0.163840
vn -0.108486 0.984058 0.140926
vn -0.076919 0.988503 0.130175
vn -0.024580 0.991416 0.128417
vn 0.076887 0.991437 0.105555
vn 0.142995 0.987970 0.058886
vn 0.167621 0.984745 0.046690
vn 0.369700 0.926544 0.069558
vn 0.261994 -0.960498 0.093822
vn 0.492836 -0.862231 0.116922
vn 0.125326 -0.987595 0.094604
vn 0.068616 -0.993711 0.088484
vn 0.022728 -0.996373 0.082008
vn -0.011029 -0.997253 0.073249
vn -0.022726 -0.996539 0.079960
vn -0.075715 -0.992687 0.094026
vn -0.136210 -0.985451 0.101650
vn -0.256439 -0.957948 0.128744
vn -0.534692 -0.799417 0.273928
vn 0.376934 0.906533 -0.190053
vn 0.201509 0.971688 -0.123358
vn 0.121478 0.986839 -0.106731
vn 0.085749 0.991378 -0.099076
vn -0.022286 0.995709 -0.089822
vn -0.117595 0.990547 -0.070622
vn -0.159216 0.984779 -0.069721
vn -0.202408 0.974410 -0.097756
vn -0.367538 0.915764 -0.162148
vn -0.293023 -0.949151 -0.115112
vn -0.568393 -0.794447 -0.213970
vn -0.158937 -0.983212 -0.089629
vn -0.115578 -0.990470 -0.074912
vn -0.066790 -0.994334 -0.082695
vn 0.000115 -0.995338 -0.096449
vn -0.005232 -0.996494 -0.083504
vn 0.049495 -0.996347 -0.069590
vn 0.217563 -0.969490 -0.112944
vn 0.340072 -0.922063 -0.184798
vn 0.564483 -0.764756 -0.310657
vn 0.246249 0.639216 0.728535
vn 0.389156 0.548614 0.739987
vn -0.003320 0.647832 0.761776
vn -0.242674 0.632300 0.735735
vn -0.261785 0.581945 0.769941
vn -0.309514 0.449778 0.837795
vn -0.532157 0.334810 0.777631
vn -0.669647 0.491477 0.556797
vn -0.724720 0.580698 0.370905
vn -0.753652 0.637242 0.161033
vn -0.738199 0.671647 0.062871
vn -0.770723 0.634073 -0.062751
vn -0.765423 0.578509 -0.281877
vn -0.773036 0.460896 -0.435878
vn -0.744568 0.370010 -0.555618
vn -0.609239 0.467497 -0.640527
vn -0.427189 0.481172 -0.765495
vn -0.157460 0.437683 -0.885235
vn -0.053334 0.447296 -0.892794
vn -0.130261 0.459240 -0.878710
vn 0.125430 0.352538 -0.927354
vn 0.464372 0.265136 -0.845022
vn 0.602278 0.295950 -0.741401
vn 0.688738 0.539367 -0.484483
vn 0.636812 0.682835 -0.358058
vn 0.685406 0.680216 -0.259855
vn 0.709923 0.662766 -0.238223
vn 0.766290 0.622480 -0.159116
vn 0.828210 0.539615 0.151275
vn 0.804688 0.385473 0.451539
vn 0.675796 0.272778 0.684757
vn 0.513370 0.526121 0.677974
vn 0.404967 -0.329373 0.852945
vn 0.276390 -0.278420 0.919832
vn 0.056172 -0.136306 0.989073
vn -0.269315 -0.039716 0.962233
vn -0.348791 -0.006331 0.937179
vn -0.345756 -0.138821 0.927999
vn -0.549360 -0.229115 0.803561
vn -0.740627 -0.255284 0.621532
vn -0.852809 -0.298238 0.428685
vn -0.950849 -0.222691 0.215162
vn -0.986207 -0.145642 0.078641
vn -0.983635 -0.160953 -0.080973
vn -0.911063 -0.243392 -0.332754
vn -0.827765 -0.273726 -0.489775
vn -0.779723 -0.274046 -0.562966
vn -0.651788 -0.324449 -0.685496
vn -0.439191 -0.416102 -0.796223
vn -0.159067 -0.442711 -0.882443
vn -0.091132 -0.383316 -0.919110
vn -0.121660 -0.390870 -0.912370
vn 0.100535 -0.510889 -0.853748
vn 0.357105 -0.563247 -0.745137
vn 0.548671 -0.423665 -0.720741
vn 0.772086 -0.268907 -0.575823
vn 0.863508 -0.190544 -0.466955
vn 0.937254 -0.152804 -0.313377
vn 0.934552 -0.140019 -0.327120
vn 0.925825 -0.320425 -0.200442
vn 0.867926 -0.463856 0.177600
vn 0.727210 -0.518876 0.449371
vn 0.677338 -0.427626 0.598623
vn 0.563829 -0.298166 0.770191
s 1
g Mud_LOW MudMushrooms
usemtl initialShadingGroup
f 1/1/1 81/81/2 112/112/3 113/113/4
f 6/5/5 123/123/6 124/124/7 63/63/8
f 5/6/9 127/127/10 128/128/11 61/61/12
f 83/83/13 134/134/14 135/135/15 4/4/16
f 109/109/17 110/110/18 73/73/19 2/2/20
f 131/131/21 132/132/22 71/71/23 3/3/24
f 53/53/25 130/130/26 131/131/21 3/3/24
f 51/51/27 126/126/28 109/109/17 2/2/20
f 69/69/29 148/148/30 149/149/31 7/7/32
f 145/145/33 146/146/34 55/55/35 8/8/36
f 8/8/36 79/79/37 162/162/38 145/145/33
f 159/159/39 160/160/40 85/85/41 9/9/42
f 61/61/12 98/98/43 99/99/44 5/6/9
f 95/95/45 96/96/46 53/53/25 3/3/24
f 71/71/23 94/94/47 95/95/45 3/3/24
f 91/91/48 92/92/49 83/83/13 4/4/16
f 27/26/50 60/60/51 196/322/52 197/321/53
f 197/321/53 198/320/54 74/74/55 27/26/50
f 90/90/56 200/318/57 201/317/58 29/29/59
f 201/317/58 202/316/60 114/114/61 29/29/59
f 31/31/62 108/108/63 204/314/64 205/313/65
f 205/313/65 206/312/66 136/136/67 31/31/62
f 33/33/68 158/158/69 208/310/70 209/309/71
f 209/309/71 210/308/72 86/86/73 33/33/68
f 35/35/74 78/78/75 212/306/76 213/305/77
f 213/305/77 214/304/78 56/56/79 35/35/74
f 37/37/80 68/68/81 216/302/82 217/301/83
f 217/301/83 218/300/84 150/150/85 37/37/80
f 39/39/86 144/144/87 220/298/88 221/297/89
f 221/297/89 222/296/90 100/100/91 39/39/86
f 122/122/92 224/294/93 225/293/94 41/41/95
f 225/293/94 226/291/96 64/64/97 41/41/95
f 27/26/50 118/118/98 119/119/99 60/60/51
f 121/121/100 122/122/92 41/41/95 64/64/97
f 74/74/55 117/117/101 118/118/98 27/26/50
f 114/114/61 115/115/102 90/90/56 29/29/59
f 31/31/62 88/88/103 107/107/104 108/108/63
f 104/104/105 105/105/106 76/76/107 46/46/108
f 58/58/109 103/103/110 104/104/105 46/46/108
f 100/100/91 101/101/111 66/66/112 39/39/86
f 39/39/86 66/66/112 143/143/113 144/144/87
f 140/140/114 141/141/115 58/58/109 46/46/108
f 76/76/107 139/139/116 140/140/114 46/46/108
f 136/136/67 137/137/117 88/88/103 31/31/62
f 33/33/68 86/86/73 157/157/118 158/158/69
f 154/154/119 155/155/120 78/78/75 35/35/74
f 153/153/121 154/154/119 35/35/74 56/56/79
f 37/37/80 150/150/85 151/151/122 68/68/81
f 15/15/123 125/125/124 126/126/28 51/51/27
f 53/53/25 96/96/46 97/97/125 14/14/126
f 14/14/126 129/129/127 130/130/26 53/53/25
f 55/55/35 146/146/34 147/147/128 13/13/129
f 36/36/130 56/56/79 214/304/78 215/303/131
f 152/152/132 153/153/121 56/56/79 36/36/130
f 58/58/109 141/141/115 142/142/133 47/47/134
f 102/102/135 103/103/110 58/58/109 47/47/134
f 60/60/51 119/119/99 120/120/136 26/27/137
f 195/195/138 196/322/52 60/60/51 26/27/137
f 97/97/125 98/98/43 61/61/12 14/14/126
f 63/63/8 124/124/7 125/125/124 15/15/123
f 26/27/137 64/64/97 226/291/96 195/195/138
f 120/120/136 121/121/100 64/64/97 26/27/137
f 66/66/112 101/101/111 102/102/135 47/47/134
f 142/142/133 143/143/113 66/66/112 47/47/134
f 68/68/81 151/151/122 152/152/132 36/36/130
f 215/303/131 216/302/82 68/68/81 36/36/130
f 147/147/128 148/148/30 69/69/29 13/13/129
f 61/61/12 128/128/11 129/129/127 14/14/126
f 11/11/139 93/93/140 94/94/47 71/71/23
f 73/73/19 110/110/18 111/111/141 10/10/142
f 74/74/55 198/320/54 199/319/143 28/28/144
f 116/116/145 117/117/101 74/74/55 28/28/144
f 45/45/146 76/76/107 105/105/106 106/106/147
f 138/138/148 139/139/116 76/76/107 45/45/146
f 78/78/75 155/155/120 156/156/149 34/34/150
f 211/307/151 212/306/76 78/78/75 34/34/150
f 161/161/152 162/162/38 79/79/37 12/12/153
f 71/71/23 132/132/22 133/133/154 11/11/139
f 111/111/141 112/112/3 81/81/2 10/10/142
f 83/83/13 92/92/49 93/93/140 11/11/139
f 11/11/139 133/133/154 134/134/14 83/83/13
f 85/85/41 160/160/40 161/161/152 12/12/153
f 34/34/150 86/86/73 210/308/72 211/307/151
f 156/156/149 157/157/118 86/86/73 34/34/150
f 45/45/146 88/88/103 137/137/117 138/138/148
f 106/106/147 107/107/104 88/88/103 45/45/146
f 28/28/144 90/90/56 115/115/102 116/116/145
f 199/319/143 200/318/57 90/90/56 28/28/144
f 25/25/155 82/82/156 92/92/49 91/91/48
f 93/93/140 92/92/49 82/82/156 24/24/157
f 94/94/47 93/93/140 24/24/157 72/72/158
f 95/95/45 94/94/47 72/72/158 23/23/159
f 23/23/159 52/52/160 96/96/46 95/95/45
f 97/97/125 96/96/46 52/52/160 22/22/161
f 22/22/161 62/62/162 98/98/43 97/97/125
f 99/99/44 98/98/43 62/62/162 21/21/163
f 40/40/164 100/100/91 222/296/90 223/295/165
f 40/40/164 65/65/166 101/101/111 100/100/91
f 102/102/135 101/101/111 65/65/166 43/43/167
f 43/43/167 59/59/168 103/103/110 102/102/135
f 104/104/105 103/103/110 59/59/168 42/42/169
f 75/75/170 105/105/106 104/104/105 42/42/169
f 106/106/147 105/105/106 75/75/170 44/44/171
f 89/89/172 107/107/104 106/106/147 44/44/171
f 108/108/63 107/107/104 89/89/172 30/30/173
f 203/315/174 204/314/64 108/108/63 30/30/173
f 23/23/159 72/72/158 110/110/18 109/109/17
f 111/111/141 110/110/18 72/72/158 24/24/157
f 82/82/156 112/112/3 111/111/141 24/24/157
f 113/113/4 112/112/3 82/82/156 25/25/155
f 30/30/173 114/114/61 202/316/60 203/315/174
f 89/89/172 115/115/102 114/114/61 30/30/173
f 116/116/145 115/115/102 89/89/172 44/44/171
f 44/44/171 75/75/170 117/117/101 116/116/145
f 118/118/98 117/117/101 75/75/170 42/42/169
f 119/119/99 118/118/98 42/42/169 59/59/168
f 120/120/136 119/119/99 59/59/168 43/43/167
f 65/65/166 121/121/100 120/120/136 43/43/167
f 40/40/164 122/122/92 121/121/100 65/65/166
f 223/295/165 224/294/93 122/122/92 40/40/164
f 124/124/7 123/123/6 21/21/163 62/62/162
f 125/125/124 124/124/7 62/62/162 22/22/161
f 126/126/28 125/125/124 22/22/161 52/52/160
f 109/109/17 126/126/28 52/52/160 23/23/159
f 128/128/11 127/127/10 16/16/175 70/70/176
f 129/129/127 128/128/11 70/70/176 17/17/177
f 130/130/26 129/129/127 17/17/177 54/54/178
f 131/131/21 130/130/26 54/54/178 18/18/179
f 18/18/179 80/80/180 132/132/22 131/131/21
f 133/133/154 132/132/22 80/80/180 19/19/181
f 134/134/14 133/133/154 19/19/181 84/84/182
f 135/135/15 134/134/14 84/84/182 20/20/183
f 32/32/184 136/136/67 206/312/66 207/311/185
f 87/87/186 137/137/117 136/136/67 32/32/184
f 138/138/148 137/137/117 87/87/186 50/50/187
f 50/50/187 77/77/188 139/139/116 138/138/148
f 140/140/114 139/139/116 77/77/188 49/49/189
f 49/49/189 57/57/190 141/141/115 140/140/114
f 142/142/133 141/141/115 57/57/190 48/48/191
f 67/67/192 143/143/113 142/142/133 48/48/191
f 144/144/87 143/143/113 67/67/192 38/38/193
f 219/299/194 220/298/88 144/144/87 38/38/193
f 18/18/179 54/54/178 146/146/34 145/145/33
f 147/147/128 146/146/34 54/54/178 17/17/177
f 17/17/177 70/70/176 148/148/30 147/147/128
f 149/149/31 148/148/30 70/70/176 16/16/175
f 38/38/193 150/150/85 218/300/84 219/299/194
f 151/151/122 150/150/85 38/38/193 67/67/192
f 152/152/132 151/151/122 67/67/192 48/48/191
f 57/57/190 153/153/121 152/152/132 48/48/191
f 49/49/189 154/154/119 153/153/121 57/57/190
f 49/49/189 77/77/188 155/155/120 154/154/119
f 156/156/149 155/155/120 77/77/188 50/50/187
f 87/87/186 157/157/118 156/156/149 50/50/187
f 158/158/69 157/157/118 87/87/186 32/32/184
f 207/311/185 208/310/70 158/158/69 32/32/184
f 20/20/183 84/84/182 160/160/40 159/159/39
f 161/161/152 160/160/40 84/84/182 19/19/181
f 80/80/180 162/162/38 161/161/152 19/19/181
f 145/145/33 162/162/38 80/80/180 18/18/179
f 51/51/27 228/290/195 229/289/196 15/15/123
f 227/227/197 228/290/195 51/51/27 2/2/20
f 2/2/20 73/73/19 258/259/198 227/227/197
f 257/261/199 258/259/198 73/73/19 10/10/142
f 10/10/142 81/81/2 256/262/200 257/261/199
f 255/263/201 256/262/200 81/81/2 1/1/1
f 113/113/4 254/264/202 255/263/201 1/1/1
f 253/265/203 254/264/202 113/113/4 25/25/155
f 91/91/48 252/266/204 253/265/203 25/25/155
f 251/267/205 252/266/204 91/91/48 4/4/16
f 135/135/15 250/268/206 251/267/205 4/4/16
f 249/269/207 250/268/206 135/135/15 20/20/183
f 159/159/39 248/270/208 249/269/207 20/20/183
f 247/271/209 248/270/208 159/159/39 9/9/42
f 85/85/41 246/272/210 247/271/209 9/9/42
f 245/273/211 246/272/210 85/85/41 12/12/153
f 79/79/37 244/274/212 245/273/211 12/12/153
f 243/275/213 244/274/212 79/79/37 8/8/36
f 55/55/35 242/276/214 243/275/213 8/8/36
f 241/277/215 242/276/214 55/55/35 13/13/129
f 69/69/29 240/278/216 241/277/215 13/13/129
f 239/279/217 240/278/216 69/69/29 7/7/32
f 149/149/31 238/280/218 239/279/217 7/7/32
f 237/281/219 238/280/218 149/149/31 16/16/175
f 127/127/10 236/282/220 237/281/219 16/16/175
f 235/283/221 236/282/220 127/127/10 5/6/9
f 99/99/44 234/284/222 235/283/221 5/6/9
f 233/285/223 234/284/222 99/99/44 21/21/163
f 21/21/163 123/123/6 232/286/224 233/285/223
f 231/287/225 232/286/224 123/123/6 6/5/5
f 63/63/8 230/288/226 231/287/225 6/5/5
f 229/289/196 230/288/226 63/63/8 15/15/123
f 163/163/227 164/164/228 196/196/52 195/292/138
f 197/197/53 196/196/52 164/164/228 165/165/229
f 165/165/229 166/166/230 198/198/54 197/197/53
f 199/199/143 198/198/54 166/166/230 167/167/231
f 167/167/231 168/168/232 200/200/57 199/199/143
f 201/328/58 200/200/57 168/168/232 169/169/233
f 169/327/233 170/170/234 202/202/60 201/201/58
f 203/203/174 202/202/60 170/170/234 171/171/235
f 171/171/235 172/172/236 204/204/64 203/203/174
f 205/205/65 204/204/64 172/172/236 173/173/237
f 173/173/237 174/174/238 206/206/66 205/205/65
f 207/207/185 206/206/66 174/174/238 175/175/239
f 175/175/239 176/176/240 208/208/70 207/207/185
f 209/209/71 208/208/70 176/176/240 177/177/241
f 177/177/241 178/178/242 210/210/72 209/209/71
f 211/211/151 210/210/72 178/178/242 179/179/243
f 179/179/243 180/180/244 212/212/76 211/211/151
f 213/213/77 212/212/76 180/180/244 181/181/245
f 181/181/245 182/182/246 214/214/78 213/213/77
f 215/215/131 214/214/78 182/182/246 183/183/247
f 183/183/247 184/184/248 216/216/82 215/215/131
f 217/325/83 216/216/82 184/184/248 185/185/249
f 185/324/249 186/186/250 218/218/84 217/217/83
f 219/219/194 218/218/84 186/186/250 187/187/251
f 187/187/251 188/188/252 220/220/88 219/219/194
f 221/221/89 220/220/88 188/188/252 189/189/253
f 189/189/253 190/190/254 222/222/90 221/221/89
f 223/223/165 222/222/90 190/190/254 191/191/255
f 191/191/255 192/192/256 224/224/93 223/223/165
f 225/225/94 224/224/93 192/192/256 193/193/257
f 193/193/257 194/194/258 226/226/96 225/225/94
f 195/292/138 226/226/96 194/194/258 163/163/227
f 165/165/229 164/164/228 228/228/195 227/260/197
f 229/229/196 228/228/195 164/164/228 163/163/227
f 163/163/227 194/194/258 230/230/226 229/229/196
f 231/231/225 230/230/226 194/194/258 193/193/257
f 193/193/257 192/192/256 232/232/224 231/231/225
f 233/233/223 232/232/224 192/192/256 191/191/255
f 191/191/255 190/190/254 234/234/222 233/233/223
f 235/235/221 234/234/222 190/190/254 189/189/253
f 189/189/253 188/188/252 236/236/220 235/235/221
f 237/237/219 236/236/220 188/188/252 187/187/251
f 187/187/251 186/186/250 238/238/218 237/237/219
f 239/323/217 238/238/218 186/186/250 185/324/249
f 185/185/249 184/184/248 240/240/216 239/239/217
f 241/241/215 240/240/216 184/184/248 183/183/247
f 183/183/247 182/182/246 242/242/214 241/241/215
f 243/243/213 242/242/214 182/182/246 181/181/245
f 181/181/245 180/180/244 244/244/212 243/243/213
f 245/245/211 244/244/212 180/180/244 179/179/243
f 179/179/243 178/178/242 246/246/210 245/245/211
f 247/247/209 246/246/210 178/178/242 177/177/241
f 177/177/241 176/176/240 248/248/208 247/247/209
f 249/249/207 248/248/208 176/176/240 175/175/239
f 175/175/239 174/174/238 250/250/206 249/249/207
f 251/251/205 250/250/206 174/174/238 173/173/237
f 173/173/237 172/172/236 252/252/204 251/251/205
f 253/253/203 252/252/204 172/172/236 171/171/235
f 171/171/235 170/170/234 254/254/202 253/253/203
f 255/326/201 254/254/202 170/170/234 169/327/233
f 169/169/233 168/168/232 256/256/200 255/255/201
f 257/257/199 256/256/200 168/168/232 167/167/231
f 167/167/231 166/166/230 258/258/198 257/257/199
f 227/260/197 258/258/198 166/166/230 165/165/229
