# This file uses centimeters as units for non-parametric coordinates.

mtllib Mushroom_Tall.mtl
g default
v 0.004720 -0.060941 0.069013
v 0.003398 -0.069537 0.003200
v 0.077168 -0.057279 0.005211
v 0.057349 -0.058245 0.058275
v -0.071077 -0.057250 0.009896
v -0.046815 -0.055506 0.059455
v -0.053145 -0.053120 -0.046131
v 0.000656 -0.055397 -0.059432
v 0.060243 -0.052363 -0.047821
v 0.092854 -0.005266 0.098233
v 0.131782 -0.003428 0.002428
v 0.010839 -0.003394 0.128316
v -0.090196 0.006391 0.097982
v -0.123520 0.007718 0.006558
v -0.089907 0.009971 -0.080445
v 0.000120 0.000327 -0.113912
v 0.088796 0.000017 -0.091179
v -0.107665 0.140040 0.108210
v -0.143251 0.138816 0.003321
v 0.011311 0.132570 0.151799
v 0.110275 0.133441 0.116061
v 0.159882 0.136165 0.007841
v 0.106871 0.130636 -0.105140
v 0.002803 0.129546 -0.139539
v -0.106315 0.130384 -0.096734
v 0.000399 0.684259 0.065522
v -0.047192 0.689607 0.039566
v 0.054502 0.682810 0.052219
v 0.081626 0.682392 0.014204
v 0.065574 0.686918 -0.055167
v 0.018160 0.686114 -0.078319
v -0.034551 0.690297 -0.063476
v -0.062748 0.691705 -0.014701
v -0.009751 0.628151 -0.280797
v -0.232916 0.616190 -0.188690
v 0.203829 0.616474 -0.204939
v 0.290085 0.622522 0.003688
v 0.204571 0.613546 0.203469
v 0.011937 0.620842 0.275713
v -0.177454 0.640417 0.199956
v -0.288231 0.626607 0.006966
v 0.017803 0.712019 0.296654
v -0.206315 0.727753 0.212796
v -0.328335 0.718494 0.016599
v -0.265059 0.709929 -0.217050
v -0.008500 0.714007 -0.312331
v 0.220195 0.703198 -0.241437
v 0.325265 0.711494 -0.010812
v 0.231570 0.700544 0.224658
v -0.136228 0.889222 0.139332
v -0.215793 0.890620 -0.011646
v 0.014864 0.894756 0.209676
v 0.163230 0.890191 0.146716
v 0.229368 0.889582 -0.006088
v 0.156433 0.874371 -0.163920
v -0.004655 0.882138 -0.218745
v -0.163736 0.887676 -0.161860
v 0.072247 1.118629 -0.076570
v 0.104636 1.120367 -0.001206
v 0.001471 1.124734 -0.105821
v -0.061710 1.125409 -0.083560
v -0.092903 1.123382 -0.005505
v -0.063553 1.116795 0.068354
v 0.008315 1.117296 0.100822
v 0.081644 1.121349 0.068852
v -0.032054 1.170567 0.033206
v 0.003549 1.175269 0.044224
v -0.042704 1.174013 -0.003286
v -0.028646 1.176049 -0.040428
v 0.002263 1.180224 -0.048532
v 0.034812 1.178467 -0.035417
v 0.051474 1.174766 -0.000395
v 0.035293 1.176779 0.030526
v 0.001360 1.189418 -0.000061
v -0.051686 1.142179 0.054967
v 0.005790 1.145420 0.079682
v 0.064017 1.148772 0.054614
v 0.084219 1.146410 -0.001058
v 0.058998 1.147771 -0.061299
v 0.001947 1.152192 -0.084873
v -0.049303 1.149876 -0.066684
v -0.073354 1.147386 -0.004393
v -0.292642 0.785628 0.007109
v -0.185087 0.791641 0.190212
v 0.016567 0.777342 0.262702
v 0.205004 0.775778 0.195704
v 0.292137 0.783261 -0.009084
v 0.195167 0.780445 -0.205908
v -0.008390 0.784821 -0.278176
v -0.234223 0.780932 -0.202253
v -0.202918 0.690315 0.217394
v 0.016246 0.678689 0.301268
v 0.231144 0.666633 0.228301
v 0.326770 0.676148 -0.005407
v 0.226557 0.665454 -0.241500
v -0.007143 0.676786 -0.312092
v -0.266673 0.672834 -0.218402
v -0.331579 0.681279 0.017305
v 0.014338 0.650178 0.298803
v -0.194719 0.662547 0.214460
v -0.320440 0.645130 0.016559
v -0.261361 0.641442 -0.213796
v -0.008759 0.647970 -0.302715
v 0.219699 0.630010 -0.229023
v 0.317012 0.643438 -0.003946
v 0.225275 0.638208 0.224701
v 0.004696 0.655162 -0.174188
v -0.133915 0.662783 -0.127481
v -0.173640 0.667587 -0.003985
v -0.109558 0.664029 0.116216
v 0.005773 0.651464 0.165854
v 0.126051 0.646585 0.124022
v 0.182929 0.656058 0.009350
v 0.135779 0.655523 -0.131058
v 0.098936 0.219483 0.102584
v 0.008723 0.216767 0.132495
v -0.096129 0.217713 0.092559
v -0.133773 0.216793 -0.001885
v -0.100734 0.213177 -0.094190
v 0.005445 0.212688 -0.139868
v 0.098669 0.216010 -0.099242
v 0.145706 0.219388 0.006319
v 0.006338 0.387137 0.097970
v -0.069141 0.388906 0.061915
v -0.108032 0.391364 -0.006559
v -0.078493 0.388875 -0.085353
v 0.009739 0.386127 -0.112345
v 0.079589 0.388122 -0.076455
v 0.107348 0.387799 0.007370
v 0.071002 0.388489 0.075809
v -0.064018 -0.057969 -0.015587
v 0.002192 -0.066672 -0.025314
v 0.070235 -0.056655 -0.018767
v 0.121678 -0.001487 -0.042248
v 0.147177 0.133393 -0.047072
v 0.136163 0.221068 -0.045340
v 0.104994 0.388978 -0.032919
v 0.082208 0.686286 -0.018250
v 0.164379 0.662665 -0.053939
v 0.270651 0.618660 -0.102587
v 0.298539 0.641083 -0.114462
v 0.305569 0.669749 -0.122996
v 0.301705 0.711531 -0.122365
v 0.264380 0.786782 -0.109964
v 0.210499 0.886984 -0.082363
v 0.094704 1.122699 -0.036592
v 0.075906 1.149725 -0.028820
v 0.044856 1.177825 -0.016215
v 0.001590 1.188494 -0.022191
v -0.037424 1.176637 -0.020158
v -0.066159 1.152013 -0.033221
v -0.084564 1.128901 -0.042065
v -0.206403 0.892389 -0.086975
v -0.290460 0.781811 -0.094550
v -0.325032 0.718267 -0.102198
v -0.329431 0.668042 -0.101288
v -0.319463 0.637359 -0.099229
v -0.287439 0.619638 -0.090472
v -0.157486 0.670959 -0.059658
v -0.054429 0.691879 -0.038910
v -0.104561 0.393079 -0.046432
v -0.128086 0.216210 -0.045771
v -0.135346 0.134823 -0.043714
v -0.114529 0.006683 -0.034293
v 0.003934 -0.068518 0.032776
v 0.069144 -0.060056 0.029013
v 0.126960 -0.005805 0.048517
v 0.148263 0.133532 0.063451
v 0.133038 0.219829 0.057946
v 0.097199 0.388958 0.040636
v 0.072544 0.683471 0.033046
v 0.158999 0.656012 0.061287
v 0.273096 0.618549 0.101831
v 0.304208 0.642257 0.107137
v 0.309754 0.672767 0.112030
v 0.307290 0.707266 0.110117
v 0.275335 0.785325 0.091073
v 0.218505 0.891467 0.068873
v 0.099103 1.124279 0.031189
v 0.078052 1.150419 0.024429
v 0.045090 1.177154 0.013575
v 0.002194 1.185793 0.020491
v -0.038793 1.173954 0.013289
v -0.066642 1.147876 0.023128
v -0.084524 1.124005 0.029222
v -0.188438 0.895509 0.060760
v -0.260243 0.788218 0.095029
v -0.288266 0.727493 0.112360
v -0.292390 0.685174 0.117521
v -0.286612 0.650719 0.113984
v -0.258117 0.630556 0.100917
v -0.146403 0.670426 0.050201
v -0.061429 0.691707 0.010628
v -0.097947 0.391690 0.027713
v -0.125463 0.219191 0.042738
v -0.139012 0.140520 0.053158
v -0.117780 0.002494 0.050329
v -0.061144 -0.058650 0.032347
v 0.037242 -0.067500 0.003963
v 0.033770 -0.067306 0.031302
v 0.028759 -0.061596 0.064734
v 0.054822 -0.003396 0.120876
v 0.063217 0.133061 0.145135
v 0.051815 0.220920 0.127429
v 0.037662 0.388518 0.094157
v 0.026288 0.683525 0.064687
v 0.060602 0.651370 0.147680
v 0.103692 0.614982 0.256158
v 0.115003 0.638414 0.281308
v 0.118856 0.673327 0.285660
v 0.119749 0.710562 0.286320
v 0.107229 0.780870 0.244682
v 0.085929 0.891727 0.187856
v 0.043676 1.123597 0.092334
v 0.033159 1.150706 0.071848
v 0.018135 1.177578 0.038881
v 0.022295 1.184604 0.018019
v 0.025340 1.186745 0.000071
v 0.021994 1.186999 -0.019708
v 0.017469 1.181207 -0.043339
v 0.029282 1.153376 -0.077474
v 0.035647 1.125177 -0.097324
v 0.074443 0.884215 -0.203357
v 0.102653 0.795308 -0.266906
v 0.108076 0.713436 -0.292684
v 0.103599 0.678715 -0.295846
v 0.100301 0.641985 -0.285181
v 0.094860 0.624249 -0.260640
v 0.064641 0.660475 -0.157022
v 0.040026 0.684960 -0.071564
v 0.044758 0.387965 -0.103084
v 0.050625 0.215196 -0.129542
v 0.054642 0.130358 -0.131688
v 0.044221 -0.000407 -0.111412
v 0.027899 -0.056640 -0.055171
v 0.033426 -0.064979 -0.022874
v -0.029165 -0.067800 0.006086
v -0.024465 -0.066765 0.032940
v -0.017763 -0.060076 0.065409
v -0.036248 -0.003301 0.121610
v -0.046400 0.136574 0.143009
v -0.045010 0.219274 0.120098
v -0.028641 0.388747 0.087423
v -0.023993 0.687105 0.059128
v -0.044097 0.660497 0.145710
v -0.078220 0.631962 0.250831
v -0.086100 0.653854 0.275827
v -0.094038 0.681394 0.281001
v -0.097652 0.722492 0.279366
v -0.083459 0.782631 0.255335
v -0.052567 0.895815 0.186610
v -0.024541 1.119932 0.091241
v -0.020218 1.146817 0.071900
v -0.012311 1.174831 0.040358
v -0.016250 1.183192 0.018106
v -0.018658 1.185883 -0.001345
v -0.015940 1.185651 -0.021661
v -0.011440 1.179811 -0.045608
v -0.021099 1.153988 -0.079660
v -0.026890 1.128163 -0.100453
v -0.082182 0.886543 -0.208092
v -0.115618 0.787437 -0.266023
v -0.135206 0.711630 -0.301801
v -0.133667 0.668960 -0.301471
v -0.128733 0.638753 -0.292406
v -0.117325 0.616871 -0.260108
v -0.055405 0.663207 -0.156153
v -0.005721 0.688566 -0.076679
v -0.037606 0.389947 -0.106599
v -0.048557 0.214540 -0.130460
v -0.052317 0.127140 -0.132137
v -0.040872 0.000813 -0.106199
v -0.022774 -0.055988 -0.054432
v -0.026718 -0.065741 -0.021621
v 0.077291 -0.039046 0.080401
v 0.100985 -0.041268 0.039726
v 0.107384 -0.037469 0.003241
v 0.098334 -0.036052 -0.031683
v 0.076364 -0.032244 -0.070946
v 0.036438 -0.036549 -0.086709
v -0.000207 -0.034255 -0.089535
v -0.032488 -0.034249 -0.082895
v -0.074100 -0.028198 -0.066240
v -0.094295 -0.034379 -0.026844
v -0.102305 -0.032241 0.008261
v -0.092648 -0.035845 0.042640
v -0.070470 -0.031826 0.081291
v -0.028852 -0.037673 0.098147
v 0.007461 -0.040506 0.102972
v 0.043220 -0.040890 0.098411
v -0.099264 0.040441 0.104789
v -0.129751 0.037967 0.053779
v -0.132347 0.041780 0.005124
v -0.121786 0.040049 -0.037634
v -0.098130 0.040690 -0.087677
v -0.044073 0.031678 -0.119020
v 0.001758 0.030742 -0.125403
v 0.047202 0.031243 -0.121116
v 0.097204 0.033474 -0.100044
v 0.133792 0.033283 -0.045911
v 0.146164 0.034355 0.003047
v 0.140150 0.030139 0.054578
v 0.101729 0.029995 0.107867
v 0.059090 0.028478 0.132301
v 0.011053 0.031124 0.141543
v -0.039600 0.030149 0.134531
v -0.139730 0.088111 0.003941
v -0.138124 0.086740 0.054614
v -0.107182 0.087711 0.109863
v -0.046789 0.077181 0.142751
v 0.011155 0.079470 0.150310
v 0.063665 0.078668 0.142467
v 0.108902 0.079134 0.115336
v 0.148626 0.079308 0.060752
v 0.156919 0.082607 0.004738
v 0.142403 0.081107 -0.047281
v 0.103573 0.079935 -0.104626
v 0.051236 0.078652 -0.128058
v 0.002357 0.077851 -0.134955
v -0.048989 0.076937 -0.129249
v -0.104830 0.083348 -0.094099
v -0.129852 0.085301 -0.040989
vt 0.906135 0.393532
vt 0.900917 0.397077
vt 0.897180 0.391159
vt 0.902607 0.389387
vt 0.908605 0.398268
vt 0.905267 0.402639
vt 0.899775 0.404777
vt 0.895976 0.400663
vt 0.893221 0.395174
vt 0.892879 0.385498
vt 0.902044 0.381159
vt 0.912381 0.388844
vt 0.916318 0.403081
vt 0.909216 0.409389
vt 0.895587 0.412247
vt 0.889878 0.404770
vt 0.885708 0.392262
vt 0.924918 0.414165
vt 0.915698 0.419957
vt 0.923358 0.382049
vt 0.918241 0.373150
vt 0.885687 0.374487
vt 0.876159 0.382057
vt 0.879603 0.411683
vt 0.886460 0.420980
vt 0.970048 0.354964
vt 0.973507 0.359105
vt 0.858411 0.328136
vt 0.854902 0.331052
vt 0.831837 0.438350
vt 0.835136 0.442297
vt 0.938471 0.469606
vt 0.942998 0.466418
vt 0.874069 0.433551
vt 0.897975 0.434053
vt 0.914624 0.449198
vt 0.914110 0.471524
vt 0.898761 0.486507
vt 0.878551 0.485622
vt 0.864372 0.471209
vt 0.861575 0.449348
vt 0.829151 0.963426
vt 0.851997 0.965792
vt 0.897481 0.931249
vt 0.904887 0.909519
vt 0.863315 0.857213
vt 0.841325 0.851143
vt 0.791879 0.892349
vt 0.785689 0.915658
vt 0.879972 0.922172
vt 0.850842 0.946679
vt 0.834568 0.944796
vt 0.807742 0.915177
vt 0.810016 0.898652
vt 0.840938 0.871256
vt 0.857492 0.874749
vt 0.883396 0.906693
vt 0.833874 0.906911
vt 0.841901 0.897804
vt 0.849274 0.899201
vt 0.857098 0.905766
vt 0.855997 0.913930
vt 0.849105 0.922470
vt 0.841443 0.921943
vt 0.832883 0.914074
vt 0.843936 0.914722
vt 0.847706 0.915159
vt 0.849620 0.911821
vt 0.849701 0.907810
vt 0.846824 0.906294
vt 0.843280 0.906179
vt 0.840728 0.909141
vt 0.841150 0.912620
vt 0.845401 0.910657
vt 0.850262 0.918508
vt 0.842548 0.918837
vt 0.837246 0.915496
vt 0.836838 0.907866
vt 0.840268 0.902469
vt 0.848243 0.902243
vt 0.852927 0.904825
vt 0.853231 0.913025
vt 0.891057 0.927973
vt 0.879795 0.944871
vt 0.831039 0.956652
vt 0.812887 0.949543
vt 0.798933 0.894793
vt 0.808539 0.875726
vt 0.861108 0.864404
vt 0.882620 0.873210
vt 0.888573 0.951875
vt 0.828467 0.966570
vt 0.807578 0.960369
vt 0.788524 0.891751
vt 0.797666 0.868838
vt 0.864262 0.853746
vt 0.889189 0.863399
vt 0.900687 0.932689
vt 0.827933 0.969261
vt 0.849904 0.972248
vt 0.903917 0.934221
vt 0.911682 0.911850
vt 0.865282 0.850996
vt 0.842733 0.843701
vt 0.785408 0.890861
vt 0.779389 0.914510
vt 0.895142 0.444364
vt 0.880931 0.443480
vt 0.872698 0.453022
vt 0.873748 0.466235
vt 0.882173 0.475237
vt 0.894582 0.476097
vt 0.903950 0.467779
vt 0.905146 0.453368
vt 0.889070 0.361405
vt 0.930514 0.378057
vt 0.936790 0.387072
vt 0.919350 0.426475
vt 0.911156 0.431663
vt 0.873096 0.416081
vt 0.866736 0.408430
vt 0.880962 0.368157
vt 0.945071 0.369598
vt 0.949884 0.376219
vt 0.928149 0.441056
vt 0.921120 0.445707
vt 0.859173 0.425689
vt 0.854103 0.419809
vt 0.871292 0.354546
vt 0.877128 0.349607
vt 0.902848 0.403542
vt 0.898686 0.398688
vt 0.895454 0.392945
vt 0.889499 0.388205
vt 0.881468 0.377843
vt 0.876691 0.370902
vt 0.868030 0.356743
vt 0.895826 0.461380
vt 0.904621 0.461375
vt 0.785965 0.879375
vt 0.789313 0.880611
vt 0.792173 0.881213
vt 0.795877 0.882653
vt 0.803245 0.885818
vt 0.812914 0.891512
vt 0.835614 0.903805
vt 0.838375 0.905493
vt 0.841840 0.907830
vt 0.846044 0.908688
vt 0.849672 0.910050
vt 0.853468 0.910107
vt 0.856390 0.910300
vt 0.882085 0.914974
vt 0.894709 0.919120
vt 0.901203 0.921167
vt 0.905583 0.922890
vt 0.908405 0.923908
vt 0.865359 0.440453
vt 0.876313 0.448723
vt 0.940975 0.467845
vt 0.924984 0.443299
vt 0.915729 0.428782
vt 0.911633 0.422102
vt 0.905650 0.411173
vt 0.903275 0.395478
vt 0.899572 0.390426
vt 0.896679 0.383274
vt 0.890230 0.371553
vt 0.885015 0.364972
vt 0.873883 0.352361
vt 0.893076 0.465527
vt 0.899846 0.471537
vt 0.778972 0.901057
vt 0.782617 0.901332
vt 0.785432 0.902336
vt 0.788609 0.903061
vt 0.796713 0.904169
vt 0.808278 0.905872
vt 0.833487 0.910087
vt 0.836726 0.910438
vt 0.840908 0.910664
vt 0.844736 0.912487
vt 0.848787 0.913289
vt 0.851874 0.915426
vt 0.854351 0.916949
vt 0.875874 0.928635
vt 0.886637 0.935626
vt 0.892208 0.939104
vt 0.895663 0.941260
vt 0.898654 0.942810
vt 0.860654 0.459099
vt 0.873076 0.458886
vt 0.945090 0.465138
vt 0.931168 0.439366
vt 0.923235 0.424359
vt 0.919783 0.417468
vt 0.912353 0.406545
vt 0.906701 0.400716
vt 0.899201 0.394357
vt 0.901605 0.393103
vt 0.904520 0.391704
vt 0.909894 0.385391
vt 0.920812 0.377780
vt 0.928734 0.374210
vt 0.943640 0.366885
vt 0.887845 0.466599
vt 0.887790 0.475697
vt 0.817487 0.970710
vt 0.818199 0.967398
vt 0.818993 0.964137
vt 0.820069 0.960775
vt 0.822763 0.953400
vt 0.827732 0.942286
vt 0.838399 0.920119
vt 0.840203 0.917288
vt 0.842688 0.913790
vt 0.842927 0.911719
vt 0.843245 0.909974
vt 0.844114 0.908243
vt 0.845229 0.906237
vt 0.845519 0.901915
vt 0.845931 0.898613
vt 0.849720 0.873131
vt 0.850765 0.862408
vt 0.852629 0.854441
vt 0.853923 0.851323
vt 0.854887 0.847758
vt 0.906801 0.439897
vt 0.899757 0.448328
vt 0.833858 0.440488
vt 0.856876 0.423023
vt 0.870236 0.412666
vt 0.876620 0.407572
vt 0.887615 0.401213
vt 0.894791 0.398195
vt 0.897148 0.396060
vt 0.902832 0.399512
vt 0.904847 0.397753
vt 0.907157 0.395565
vt 0.914567 0.392847
vt 0.926561 0.386585
vt 0.933630 0.382425
vt 0.947164 0.372467
vt 0.883641 0.464234
vt 0.878487 0.471410
vt 0.837272 0.974359
vt 0.837707 0.971185
vt 0.838794 0.968610
vt 0.839906 0.964847
vt 0.840436 0.958594
vt 0.841502 0.945614
vt 0.844740 0.922126
vt 0.845179 0.918978
vt 0.845545 0.914918
vt 0.846499 0.912900
vt 0.847243 0.911159
vt 0.847659 0.909235
vt 0.848056 0.906939
vt 0.850238 0.903384
vt 0.851728 0.900557
vt 0.864578 0.877810
vt 0.870643 0.868101
vt 0.874368 0.860967
vt 0.875655 0.857202
vt 0.876533 0.854362
vt 0.887380 0.431435
vt 0.889018 0.443824
vt 0.836296 0.444313
vt 0.861550 0.429678
vt 0.875999 0.420491
vt 0.882967 0.415889
vt 0.892372 0.407886
vt 0.897597 0.402399
vt 0.900465 0.400876
vt 0.904255 0.386002
vt 0.898397 0.387063
vt 0.895157 0.388566
vt 0.892579 0.390908
vt 0.889628 0.395724
vt 0.891447 0.399493
vt 0.893164 0.402612
vt 0.895261 0.405014
vt 0.900034 0.408905
vt 0.903947 0.407115
vt 0.907107 0.405799
vt 0.909441 0.403302
vt 0.912858 0.398342
vt 0.910878 0.394383
vt 0.909056 0.391347
vt 0.906970 0.388563
vt 0.921266 0.396695
vt 0.914547 0.409290
vt 0.910844 0.412199
vt 0.907060 0.414130
vt 0.893453 0.414870
vt 0.889929 0.409911
vt 0.887294 0.406346
vt 0.884851 0.402716
vt 0.882737 0.389938
vt 0.887157 0.385575
vt 0.890791 0.382449
vt 0.895105 0.380037
vt 0.909484 0.379588
vt 0.912399 0.383312
vt 0.915257 0.387016
vt 0.917599 0.391322
vt 0.913116 0.415936
vt 0.917126 0.413152
vt 0.925904 0.394790
vt 0.921780 0.389535
vt 0.919124 0.384621
vt 0.916324 0.380369
vt 0.898461 0.372586
vt 0.892917 0.375885
vt 0.888298 0.378671
vt 0.884308 0.381937
vt 0.877839 0.400337
vt 0.880859 0.404971
vt 0.883583 0.408881
vt 0.886612 0.412806
vt 0.904188 0.420603
vt 0.909168 0.418013
vt 0.890319 0.452995
vt 0.892480 0.453725
vt 0.877802 0.850855
vt 0.866224 0.848254
vt 0.871343 0.479779
vt 0.893592 0.955187
vt 0.971607 0.356855
vt 0.882349 0.461645
vt 0.894141 0.455129
vt 0.895750 0.457529
vt 0.855491 0.844895
vt 0.790703 0.867896
vt 0.887607 0.487477
vt 0.827310 0.972844
vt 0.968689 0.352864
vt 0.885537 0.465727
vt 0.882196 0.458576
vt 0.883021 0.456310
vt 0.901573 0.944869
vt 0.907362 0.935310
vt 0.908818 0.479833
vt 0.806567 0.967080
vt 0.856420 0.329716
vt 0.890781 0.466558
vt 0.884654 0.454504
vt 0.887310 0.453086
vt 0.911542 0.925179
vt 0.890659 0.855752
vt 0.916624 0.461129
vt 0.782081 0.890542
vt 0.852152 0.332598
vt 0.894602 0.464241
vt 0.890262 0.418025
vt 0.906480 0.424821
vt 0.879335 0.386331
vt 0.873408 0.402973
vt 0.913524 0.376245
vt 0.895229 0.367880
vt 0.922080 0.409625
vt 0.930524 0.392032
vt 0.900792 0.377353
vt 0.882173 0.398231
vt 0.902304 0.416545
vt 0.918928 0.405776
vt 0.917662 0.397719
vt 0.912431 0.400182
vt 0.901135 0.413363
vt 0.898066 0.408428
vt 0.885647 0.396958
vt 0.889573 0.394104
vt 0.902707 0.385525
vt 0.941956 0.363605
vt 0.967189 0.350290
vt 0.863934 0.359420
vt 0.848880 0.334735
vt 0.864046 0.433386
vt 0.837837 0.446969
vt 0.934931 0.437207
vt 0.947742 0.463486
vt 0.871488 0.374640
vt 0.879484 0.425556
vt 0.928105 0.421537
vt 0.926324 0.369615
vt 0.915617 0.914293
vt 0.806932 0.963248
vt 0.775933 0.912989
vt 0.793903 0.867918
vt 0.844029 0.840882
vt 0.890173 0.860296
vt 0.890977 0.953555
vt 0.848621 0.975127
vt 0.908611 0.910586
vt 0.841661 0.847326
vt 0.782241 0.915212
vt 0.850946 0.969499
vt 0.896864 0.907791
vt 0.887626 0.866853
vt 0.840347 0.860109
vt 0.817165 0.882848
vt 0.794425 0.916113
vt 0.820054 0.938558
vt 0.851968 0.958618
vt 0.870975 0.936496
vt 0.853859 0.906467
vt 0.855079 0.902236
vt 0.842215 0.901464
vt 0.837733 0.899880
vt 0.836517 0.913677
vt 0.834584 0.918107
vt 0.848674 0.919277
vt 0.852444 0.920851
vt 0.872517 0.882447
vt 0.801322 0.870215
vt 0.808594 0.957067
vt 0.885527 0.949456
vt 0.906783 0.382487
vn -0.027922 -0.915844 0.400561
vn -0.008367 -0.992902 0.118645
vn 0.125495 -0.987380 0.096600
vn 0.123640 -0.925804 0.357212
vn -0.332427 -0.861757 0.383232
vn -0.401748 -0.892304 0.205895
vn -0.144025 -0.979941 0.137745
vn -0.173259 -0.900982 0.397760
vn -0.144120 -0.972521 -0.182845
vn -0.157718 -0.987406 -0.012470
vn -0.475051 -0.879924 0.007702
vn -0.420593 -0.885290 -0.198401
vn 0.143506 -0.971135 -0.190535
vn 0.156860 -0.986447 -0.048140
vn 0.003102 -0.999425 -0.033761
vn -0.000578 -0.978654 -0.205514
vn 0.820163 -0.475678 0.317905
vn 0.619769 -0.468076 0.629914
vn 0.509363 -0.687065 0.518162
vn 0.665452 -0.703163 0.250470
vn 0.298836 -0.459762 0.836251
vn 0.004712 -0.462832 0.886434
vn -0.017455 -0.688236 0.725277
vn 0.226378 -0.691288 0.686202
vn -0.297628 -0.460359 0.836353
vn -0.612923 -0.437377 0.658048
vn -0.511821 -0.650576 0.561062
vn -0.257223 -0.674422 0.692092
vn -0.843727 -0.437167 0.311463
vn -0.692961 -0.657971 0.294755
vn -0.923077 -0.381157 -0.051466
vn -0.862363 -0.378899 -0.335808
vn -0.729708 -0.614208 -0.300458
vn -0.793064 -0.608884 -0.017617
vn -0.658621 -0.412082 -0.629609
vn -0.341027 -0.461944 -0.818724
vn -0.278956 -0.653765 -0.703402
vn -0.558740 -0.600709 -0.571803
vn -0.052314 -0.469280 -0.881499
vn 0.226232 -0.463292 -0.856843
vn 0.178479 -0.696858 -0.694647
vn -0.055265 -0.675802 -0.735009
vn 0.804639 -0.455412 -0.380994
vn 0.881718 -0.466313 -0.071599
vn 0.722239 -0.688019 -0.070713
vn 0.661339 -0.679534 -0.317591
vn -0.666838 -0.243920 0.704153
vn -0.922764 -0.232072 0.307650
vn -0.310562 -0.258610 0.914698
vn 0.328979 -0.264060 0.906667
vn 0.012631 -0.255082 0.966837
vn 0.889755 -0.274694 0.364525
vn 0.670963 -0.268870 0.691027
vn 0.876210 -0.245146 -0.414921
vn 0.963305 -0.260225 -0.065777
vn -0.016349 -0.255822 -0.966586
vn 0.260403 -0.229487 -0.937831
vn -0.712202 -0.257790 -0.652926
vn -0.350604 -0.280755 -0.893450
vn -0.975137 -0.207347 -0.078195
vn -0.917139 -0.218607 -0.333268
vn 0.330921 0.120853 0.935888
vn 0.308229 0.214315 0.926857
vn -0.067092 0.214717 0.974369
vn -0.025592 0.124786 0.991854
vn 0.902067 0.097349 0.420474
vn 0.876675 0.209669 0.432989
vn 0.650512 0.215299 0.728341
vn 0.676136 0.112595 0.728122
vn 0.905500 0.055471 -0.420705
vn 0.906640 0.171126 -0.385643
vn 0.979955 0.195190 0.039854
vn 0.996481 0.083819 -0.000997
vn 0.015901 0.101613 -0.994697
vn 0.390321 0.117356 -0.913169
vn 0.338617 0.001649 -0.940923
vn 0.004327 -0.021832 -0.999752
vn -0.728142 0.006779 -0.685393
vn -0.708409 0.103399 -0.698187
vn -0.356079 0.104412 -0.928604
vn -0.375920 -0.007677 -0.926620
vn -0.998266 0.051986 -0.027621
vn -0.989432 0.142143 0.028643
vn -0.931354 0.114830 -0.345535
vn -0.939452 0.015470 -0.342332
vn -0.663326 0.224187 0.713960
vn -0.901249 0.189420 0.389705
vn -0.937349 0.109774 0.330646
vn -0.681103 0.142857 0.718116
vn -0.327593 0.142930 0.933945
vn -0.363070 0.223769 0.904493
vn 0.026472 -0.999061 0.034302
vn 0.034502 -0.998814 0.034369
vn 0.107057 -0.944687 0.310007
vn 0.217502 -0.937578 0.271367
vn -0.059032 -0.997367 0.042117
vn -0.121150 -0.951948 0.281278
vn 0.002106 -0.955341 0.295500
vn 0.028631 -0.999586 0.002860
vn -0.300656 -0.953106 -0.034562
vn -0.294543 -0.949249 0.110321
vn -0.042039 -0.998267 0.041189
vn -0.008176 -0.999897 -0.011765
vn -0.186434 -0.951843 -0.243389
vn -0.244031 -0.953952 -0.174428
vn 0.047733 -0.998500 -0.026829
vn 0.036508 -0.999247 0.013162
vn -0.091851 -0.992693 0.078256
vn -0.076372 -0.957018 -0.279791
vn -0.132019 -0.952110 -0.275786
vn -0.031649 -0.998915 0.034169
vn -0.035202 -0.998411 0.043997
vn 0.144788 -0.969697 -0.196784
vn 0.010866 -0.964370 -0.264335
vn -0.104482 -0.994273 0.022476
vn 0.079355 -0.996105 0.038428
vn 0.054132 -0.996791 0.058964
vn 0.283212 -0.949727 0.133455
vn 0.307404 -0.951538 -0.008815
vn 0.041782 -0.998397 0.038194
vn 0.245557 -0.962471 -0.115550
vn -0.337394 -0.483227 0.807872
vn -0.540882 -0.512078 0.667250
vn -0.694214 -0.550954 0.463159
vn -0.766165 -0.613921 -0.189978
vn -0.788948 -0.591019 0.168099
vn -0.570787 -0.595885 -0.564910
vn -0.264719 -0.594748 -0.759077
vn 0.220642 -0.557049 -0.800633
vn 0.033880 -0.544456 -0.838105
vn 0.764513 -0.577002 -0.287383
vn 0.834883 -0.550166 -0.016934
vn 0.794077 -0.532948 0.292248
vn 0.574687 -0.521883 0.630376
vn 0.271596 -0.477584 0.835554
vn -0.047122 -0.430663 0.901282
vn -0.641516 -0.072739 0.763653
vn -0.363525 -0.066329 0.929220
vn -0.324579 0.294941 0.898698
vn -0.628276 0.305055 0.715689
vn -0.809773 0.335787 0.481160
vn -0.841878 -0.056485 0.536704
vn -0.909376 0.323124 -0.261967
vn -0.964324 -0.087559 -0.249824
vn -0.984483 -0.065333 0.162866
vn -0.933080 0.331249 0.140132
vn -0.690273 0.296739 -0.659900
vn -0.336051 0.289416 -0.896275
vn -0.338119 -0.127479 -0.932429
vn -0.719529 -0.092702 -0.688248
vn 0.311318 0.285606 -0.906372
vn 0.281658 -0.133166 -0.950229
vn 0.033849 -0.129384 -0.991017
vn 0.013715 0.279393 -0.960079
vn 0.996457 -0.082473 -0.016489
vn 0.909190 -0.100218 -0.404141
vn 0.851137 0.335967 -0.403352
vn 0.949120 0.313061 -0.034123
vn 0.924004 -0.075190 0.374918
vn 0.866792 0.327154 0.376353
vn 0.644361 0.335907 0.686997
vn 0.668915 -0.078440 0.739189
vn 0.323342 -0.051797 0.944863
vn 0.318633 0.356444 0.878306
vn 0.009017 0.325344 0.945553
vn -0.022838 -0.023660 0.999459
vn -0.768646 0.502984 0.395210
vn -0.733970 0.543687 0.407054
vn -0.563174 0.528599 0.635152
vn -0.589199 0.497270 0.636841
vn -0.292558 0.490394 0.820928
vn -0.349822 0.463531 0.814103
vn 0.029041 0.464192 0.885259
vn 0.317121 0.478203 0.818997
vn 0.345309 0.440609 0.828628
vn 0.015378 0.448008 0.893897
vn 0.603831 0.465307 0.647207
vn 0.591108 0.480655 0.647736
vn 0.809573 0.469553 0.352295
vn 0.809252 0.481877 0.336014
vn 0.779184 0.488337 -0.392936
vn 0.783469 0.484059 -0.389698
vn 0.870389 0.489137 -0.056292
vn 0.882025 0.469701 -0.037590
vn 0.021342 0.479012 -0.877549
vn 0.311423 0.486492 -0.816297
vn 0.302102 0.488173 -0.818793
vn 0.003274 0.474006 -0.880515
vn -0.793664 0.537175 -0.285551
vn -0.802652 0.544654 -0.243108
vn -0.826536 0.552345 0.108414
vn -0.841993 0.534040 0.076475
vn -0.281554 0.491718 -0.823978
vn -0.291453 0.499492 -0.815820
vn -0.603935 0.521662 -0.602603
vn -0.588592 0.528457 -0.611795
vn 0.874118 0.481870 -0.060989
vn 0.792095 0.470747 -0.388565
vn 0.042112 0.433878 -0.899987
vn 0.328295 0.438025 -0.836873
vn -0.600297 0.481291 -0.638751
vn -0.283323 0.454563 -0.844453
vn -0.879326 0.471007 0.070274
vn -0.815564 0.491779 -0.304974
vn -0.628651 0.418622 0.655403
vn -0.806040 0.437759 0.398331
vn -0.391517 0.417631 0.819938
vn 0.817085 0.478085 0.322192
vn 0.619771 0.454159 0.640018
vn 0.356450 0.438054 0.825259
vn -0.007953 0.440234 0.897848
vn -0.317958 0.663135 0.677610
vn -0.276002 0.796123 0.538527
vn -0.469364 0.759544 0.450322
vn -0.539988 0.643251 0.542809
vn -0.554992 0.792877 0.251655
vn -0.675715 0.672109 0.302786
vn -0.541541 0.823772 -0.167727
vn -0.663747 0.711604 -0.230346
vn -0.726269 0.686073 0.042868
vn -0.594552 0.802773 0.045425
vn -0.227359 0.853406 -0.469049
vn -0.251224 0.720604 -0.646233
vn -0.512916 0.707943 -0.485524
vn -0.438961 0.816487 -0.375050
vn 0.249471 0.842844 -0.476841
vn 0.320195 0.686748 -0.652574
vn 0.047672 0.694385 -0.718023
vn 0.018952 0.849529 -0.527202
vn 0.683074 0.674998 -0.278903
vn 0.549261 0.812249 -0.196375
vn 0.593591 0.804707 -0.009777
vn 0.733206 0.678617 -0.043443
vn 0.510770 0.710768 0.483656
vn 0.663538 0.713254 0.225801
vn 0.516453 0.832136 0.202056
vn 0.399587 0.825149 0.399324
vn -0.048379 0.811319 0.582599
vn -0.046451 0.673196 0.738004
vn 0.244235 0.712707 0.657570
vn 0.183614 0.836115 0.516911
vn -0.289231 0.920120 0.264052
vn 0.195841 0.954360 0.225484
vn -0.042634 0.958858 0.280667
vn 0.257147 0.965186 0.047867
vn 0.223029 0.965679 -0.133124
vn -0.025650 0.986723 -0.160374
vn -0.031681 0.997435 0.064189
vn -0.315990 0.946931 0.058924
vn -0.272416 0.951050 -0.145923
vn -0.290306 -0.361383 -0.886073
vn -0.606714 -0.412377 -0.679590
vn -0.844148 -0.388196 -0.369754
vn -0.928481 -0.371224 -0.010787
vn -0.845065 -0.396979 0.358153
vn -0.682168 -0.382968 0.622882
vn -0.466584 -0.377973 0.799647
vn 0.232696 -0.437514 0.868582
vn -0.154117 -0.374443 0.914353
vn 0.785617 -0.436353 0.438636
vn 0.574342 -0.438616 0.691192
vn 0.867486 -0.420765 -0.265377
vn 0.911707 -0.396558 0.107387
vn 0.429317 -0.394449 -0.812464
vn 0.053568 -0.352410 -0.934311
vn 0.293399 0.151341 0.943935
vn -0.094085 0.149926 0.984210
vn -0.412737 0.149160 0.898554
vn -0.684613 0.156301 0.711951
vn -0.898198 0.154485 0.411552
vn -0.988390 0.149996 0.024223
vn -0.911426 0.146783 -0.384393
vn -0.664567 0.138208 -0.734336
vn -0.310325 0.132317 -0.941377
vn 0.048299 0.130762 -0.990237
vn 0.432064 0.124207 -0.893249
vn 0.940569 0.132065 -0.312872
vn 0.983981 0.145566 0.102913
vn 0.865618 0.151511 0.477232
vn 0.632300 0.154459 0.759170
vn -0.171637 -0.877341 -0.448122
vn -0.355597 -0.840841 -0.408089
vn 0.127549 -0.899617 -0.417638
vn -0.028754 -0.887311 -0.460274
vn 0.584407 -0.458549 -0.669478
vn 0.492147 -0.674767 -0.549983
vn 0.643171 -0.231854 -0.729777
vn 0.699061 0.143717 -0.700471
vn 0.683299 0.035901 -0.729256
vn 0.742245 0.125391 -0.658293
vn 0.699422 -0.451512 -0.554028
vn -0.238046 -0.942241 0.235620
vn -0.056682 -0.997367 0.045245
vn 0.513431 -0.602982 -0.610575
vn 0.648653 -0.129194 -0.750039
vn 0.632019 0.311347 -0.709659
vn 0.602079 0.485850 -0.633601
vn 0.598692 0.490736 -0.633045
vn 0.606552 0.452744 -0.653542
vn 0.562036 0.657486 -0.501824
vn 0.465159 0.797810 -0.383570
vn 0.369543 -0.920702 0.125482
vn 0.423432 -0.903888 -0.060766
vn 0.308420 -0.898660 0.311910
vn 0.385206 -0.898152 -0.211987
vn 0.331030 -0.869748 -0.366003
vn -0.947681 -0.091124 0.305935
vn -0.689127 -0.077974 0.720433
vn -0.991164 -0.113456 -0.068710
vn -0.933897 -0.136365 -0.330517
vn -0.731146 -0.144877 -0.666660
vn -0.354635 -0.148242 -0.923178
vn 0.004672 -0.133250 -0.991071
vn 0.286706 -0.117431 -0.950794
vn 0.662147 -0.113699 -0.740698
vn 0.896979 -0.118505 -0.425894
vn 0.992076 -0.116803 -0.046292
vn 0.910851 -0.116320 0.396006
vn 0.688326 -0.114603 0.716291
vn 0.340787 -0.114793 0.933106
vn -0.000534 -0.099497 0.995038
vn -0.335088 -0.094225 0.937463
s 1
g MushroomTall_LOW MudMushrooms
usemtl initialShadingGroup
f 1/1/1 165/165/2 200/200/3 201/201/4
f 6/5/5 198/198/6 238/238/7 239/239/8
f 274/274/9 237/237/10 5/6/11 131/131/12
f 236/236/13 199/199/14 2/2/15 132/132/16
f 167/167/17 10/11/18 275/373/19 276/276/20
f 202/202/21 12/12/22 289/289/23 290/290/24
f 240/240/25 13/367/26 287/287/27 288/288/28
f 13/13/26 197/197/29 286/286/30 287/368/27
f 14/14/31 164/164/32 284/284/33 285/285/34
f 15/15/35 272/272/36 282/282/37 283/370/38
f 16/16/39 234/234/40 280/280/41 281/281/42
f 134/134/43 11/10/44 277/277/45 278/278/46
f 13/13/26 291/366/47 292/292/48 197/197/29
f 240/240/25 306/306/49 291/291/47 13/367/26
f 202/202/21 304/304/50 305/305/51 12/12/22
f 167/167/17 302/302/52 303/363/53 10/11/18
f 134/134/43 300/300/54 301/301/55 11/10/44
f 16/16/39 297/297/56 298/298/57 234/234/40
f 295/295/58 296/296/59 272/272/36 15/15/35
f 14/14/31 293/293/60 294/294/61 164/164/32
f 203/203/62 204/204/63 116/116/64 20/20/65
f 168/168/66 169/169/67 115/115/68 21/360/69
f 135/135/70 136/136/71 122/122/72 22/22/73
f 120/120/74 232/232/75 233/233/76 24/24/77
f 25/25/78 119/383/79 270/270/80 271/271/81
f 19/19/82 118/118/83 162/162/84 163/163/85
f 117/384/86 195/195/87 196/196/88 18/18/89
f 241/241/90 242/242/91 117/117/86 18/362/89
f 35/34/92 266/266/93 267/267/94 108/108/95
f 228/228/96 229/229/97 107/107/98 34/35/99
f 113/113/100 139/139/101 140/351/102 37/37/103
f 112/112/104 172/172/105 173/343/106 38/38/107
f 39/39/108 111/111/109 207/207/110 208/335/111
f 40/40/112 110/110/113 245/245/114 246/327/115
f 41/41/116 158/158/117 159/159/118 109/109/119
f 40/40/112 191/191/120 192/192/121 110/110/113
f 40/393/112 246/246/115 247/247/122 100/100/123
f 190/190/124 191/341/120 40/328/112 100/392/123
f 157/157/125 158/349/117 41/342/116 101/101/126
f 102/391/127 265/265/128 266/325/93 35/350/92
f 227/227/129 228/333/96 34/326/99 103/103/130
f 37/352/103 140/140/102 141/141/131 105/105/132
f 173/173/106 174/174/133 106/106/134 38/388/107
f 208/208/111 209/209/135 99/99/136 39/336/108
f 91/397/137 248/248/138 249/249/139 43/43/140
f 188/188/141 189/189/142 91/91/137 43/417/140
f 155/155/143 156/156/144 98/98/145 44/44/146
f 45/399/147 263/263/148 264/264/149 97/97/150
f 225/225/151 226/226/152 96/96/153 46/46/154
f 94/94/155 142/142/156 143/143/157 48/48/158
f 175/175/159 176/176/160 49/49/161 93/396/162
f 210/210/163 211/211/164 42/42/165 92/92/166
f 186/186/167 187/187/168 84/84/169 50/405/170
f 50/51/170 84/404/169 250/250/171 251/251/172
f 85/85/173 212/212/174 213/213/175 52/52/176
f 53/53/177 86/402/178 177/177/179 178/178/180
f 144/144/181 145/145/182 54/54/183 87/87/184
f 56/56/185 223/223/186 224/224/187 89/89/188
f 153/153/189 154/154/190 83/83/191 51/50/192
f 261/261/193 262/262/194 90/90/195 57/414/196
f 59/58/197 54/54/183 145/145/182 146/146/198
f 56/56/185 60/60/199 222/222/200 223/223/186
f 57/414/196 61/407/201 260/260/202 261/261/193
f 51/50/192 62/62/203 152/152/204 153/153/189
f 50/405/170 63/413/205 185/185/206 186/186/167
f 251/251/172 252/252/207 63/63/205 50/51/170
f 178/178/180 179/179/208 65/65/209 53/53/177
f 213/213/175 214/214/210 64/64/211 52/52/176
f 253/253/212 254/254/213 66/67/214 75/412/215
f 183/183/216 184/184/217 75/75/215 66/67/214
f 150/150/218 151/151/219 82/82/220 68/68/221
f 258/258/222 259/259/223 81/81/224 69/69/225
f 220/220/226 221/221/227 80/80/228 70/70/229
f 147/147/230 148/148/231 72/72/232 78/78/233
f 77/410/234 180/180/235 181/181/236 73/73/237
f 67/66/238 76/76/239 215/215/240 216/216/241
f 254/254/213 255/255/242 183/183/216 66/67/214
f 67/66/238 216/216/241 217/217/243 182/182/244
f 218/218/245 219/219/246 149/149/247 74/74/248
f 256/256/249 257/257/250 150/150/218 68/68/221
f 252/252/207 253/253/212 75/412/215 63/63/205
f 214/214/210 215/215/240 76/76/239 64/64/211
f 65/65/209 179/179/208 180/180/235 77/410/234
f 146/146/198 147/147/230 78/78/233 59/58/197
f 60/60/199 80/80/228 221/221/227 222/222/200
f 61/407/201 81/81/224 259/259/223 260/260/202
f 82/82/220 151/151/219 152/152/204 62/62/203
f 75/75/215 184/184/217 185/185/206 63/413/205
f 84/84/169 187/187/168 188/188/141 43/417/140
f 249/249/139 250/250/171 84/404/169 43/43/140
f 211/211/164 212/212/174 85/85/173 42/42/165
f 176/176/160 177/177/179 86/402/178 49/49/161
f 143/143/157 144/144/181 87/87/184 48/48/158
f 89/89/188 224/224/187 225/225/151 46/46/154
f 262/262/194 263/263/148 45/399/147 90/90/195
f 44/44/146 83/83/191 154/154/190 155/155/143
f 100/100/123 247/247/122 248/248/138 91/397/137
f 189/189/142 190/190/124 100/392/123 91/91/137
f 156/156/144 157/157/125 101/101/126 98/98/145
f 264/264/149 265/265/128 102/391/127 97/97/150
f 226/226/152 227/227/129 103/103/130 96/96/153
f 105/105/132 141/141/131 142/142/156 94/94/155
f 106/106/134 174/174/133 175/175/159 93/396/162
f 92/92/166 99/99/136 209/209/135 210/210/163
f 108/108/95 267/267/94 268/323/251 32/348/252
f 109/109/119 159/159/118 160/347/253 33/340/254
f 110/110/113 192/192/121 193/339/255 27/330/256
f 244/244/257 245/245/114 110/110/113 27/330/256
f 206/206/258 207/207/110 111/111/109 26/338/259
f 171/171/260 172/172/105 112/112/104 28/346/261
f 138/138/262 139/139/101 113/113/100 29/354/263
f 107/107/98 229/229/97 230/331/264 31/324/265
f 116/116/64 204/204/63 205/205/266 123/123/267
f 242/242/91 243/243/268 124/124/269 117/117/86
f 124/380/269 194/194/270 195/195/87 117/384/86
f 125/125/271 161/161/272 162/162/84 118/118/83
f 126/378/273 269/269/274 270/270/80 119/383/79
f 127/127/275 231/231/276 232/232/75 120/120/74
f 136/136/71 137/137/277 129/129/278 122/122/72
f 169/169/67 170/170/279 130/130/280 115/115/68
f 27/27/256 124/124/269 243/243/268 244/329/257
f 193/193/255 194/194/270 124/380/269 27/381/256
f 160/160/253 161/161/272 125/125/271 33/33/254
f 268/268/251 269/269/274 126/378/273 32/379/252
f 230/230/264 231/231/276 127/127/275 31/31/265
f 29/29/263 129/129/278 137/137/277 138/353/262
f 28/28/261 130/130/280 170/170/279 171/345/260
f 123/123/267 205/205/266 206/337/258 26/26/259
f 273/273/281 274/274/9 131/131/12 7/7/282
f 235/235/283 236/236/13 132/132/16 8/8/284
f 17/17/285 134/134/43 278/278/46 279/372/286
f 17/17/285 299/299/287 300/300/54 134/134/43
f 121/382/288 136/136/71 135/135/70 23/23/289
f 128/376/290 137/137/277 136/136/71 121/382/288
f 138/353/262 137/137/277 128/376/290 30/377/291
f 30/332/291 114/114/292 139/139/101 138/138/262
f 140/351/102 139/139/101 114/114/292 36/36/293
f 141/141/131 140/140/102 36/334/293 104/389/294
f 142/142/156 141/141/131 104/389/294 95/95/295
f 143/143/157 142/142/156 95/95/295 47/415/296
f 88/88/297 144/144/181 143/143/157 47/415/296
f 55/401/298 145/145/182 144/144/181 88/88/297
f 146/146/198 145/145/182 55/401/298 58/409/299
f 79/79/300 147/147/230 146/146/198 58/409/299
f 71/71/301 148/148/231 147/147/230 79/79/300
f 149/149/247 219/219/246 220/220/226 70/70/229
f 69/69/225 150/150/218 257/257/250 258/258/222
f 69/69/225 81/406/224 151/151/219 150/150/218
f 152/152/204 151/151/219 81/406/224 61/61/201
f 153/153/189 152/152/204 61/61/201 57/57/196
f 90/398/195 154/154/190 153/153/189 57/57/196
f 155/155/143 154/154/190 90/398/195 45/45/147
f 97/394/150 156/156/144 155/155/143 45/45/147
f 102/102/127 157/157/125 156/156/144 97/394/150
f 35/386/92 158/349/117 157/157/125 102/102/127
f 159/159/118 158/158/117 35/34/92 108/108/95
f 160/347/253 159/159/118 108/108/95 32/348/252
f 32/32/252 126/126/273 161/161/272 160/160/253
f 162/162/84 161/161/272 126/126/273 119/119/79
f 163/163/85 162/162/84 119/119/79 25/356/78
f 164/164/32 294/294/61 295/365/58 15/369/35
f 164/164/32 15/369/35 283/283/38 284/284/33
f 199/199/14 200/200/3 165/165/2 2/2/15
f 11/10/44 167/167/17 276/276/20 277/277/45
f 11/10/44 301/301/55 302/302/52 167/167/17
f 122/122/72 169/169/67 168/168/66 22/22/73
f 129/129/278 170/170/279 169/169/67 122/122/72
f 171/345/260 170/170/279 129/129/278 29/29/263
f 29/354/263 113/113/100 172/172/105 171/171/260
f 173/343/106 172/172/105 113/113/100 37/37/103
f 105/105/132 174/174/133 173/173/106 37/352/103
f 175/175/159 174/174/133 105/105/132 94/94/155
f 48/48/158 176/176/160 175/175/159 94/94/155
f 87/87/184 177/177/179 176/176/160 48/48/158
f 178/178/180 177/177/179 87/87/184 54/54/183
f 54/54/183 59/58/197 179/179/208 178/178/180
f 180/180/235 179/179/208 59/58/197 78/78/233
f 181/181/236 180/180/235 78/78/233 72/72/232
f 182/182/244 217/217/243 218/218/245 74/74/248
f 68/68/221 183/183/216 255/255/242 256/256/249
f 68/68/221 82/82/220 184/184/217 183/183/216
f 185/185/206 184/184/217 82/82/220 62/62/203
f 186/186/167 185/185/206 62/62/203 51/50/192
f 51/50/192 83/83/191 187/187/168 186/186/167
f 188/188/141 187/187/168 83/83/191 44/44/146
f 98/98/145 189/189/142 188/188/141 44/44/146
f 101/101/126 190/190/124 189/189/142 98/98/145
f 41/342/116 191/341/120 190/190/124 101/101/126
f 192/192/121 191/191/120 41/41/116 109/109/119
f 193/339/255 192/192/121 109/109/119 33/340/254
f 33/33/254 125/125/271 194/194/270 193/193/255
f 195/195/87 194/194/270 125/125/271 118/118/83
f 196/196/88 195/195/87 118/118/83 19/19/82
f 197/197/29 292/292/48 293/293/60 14/14/31
f 197/197/29 14/14/31 285/285/34 286/286/30
f 237/237/10 238/238/7 198/198/6 5/6/11
f 166/166/302 200/200/3 199/199/14 3/3/303
f 201/201/4 200/200/3 166/166/302 4/4/304
f 275/275/19 10/418/18 202/202/21 290/290/24
f 10/418/18 303/303/53 304/304/50 202/202/21
f 21/21/69 115/385/68 204/204/63 203/203/62
f 205/205/266 204/204/63 115/385/68 130/374/280
f 206/337/258 205/205/266 130/374/280 28/375/261
f 112/112/104 207/207/110 206/206/258 28/346/261
f 208/335/111 207/207/110 112/112/104 38/38/107
f 106/387/134 209/209/135 208/208/111 38/344/107
f 210/210/163 209/209/135 106/387/134 93/93/162
f 49/416/161 211/211/164 210/210/163 93/93/162
f 49/416/161 86/86/178 212/212/174 211/211/164
f 213/213/175 212/212/174 86/86/178 53/403/177
f 53/403/177 65/411/209 214/214/210 213/213/175
f 77/77/234 215/215/240 214/214/210 65/411/209
f 216/216/241 215/215/240 77/77/234 73/73/237
f 217/217/243 216/216/241 73/73/237 181/181/236
f 218/218/245 217/217/243 181/181/236 72/72/232
f 72/72/232 148/148/231 219/219/246 218/218/245
f 220/220/226 219/219/246 148/148/231 71/71/301
f 79/408/300 221/221/227 220/220/226 71/71/301
f 222/222/200 221/221/227 79/408/300 58/59/299
f 223/223/186 222/222/200 58/59/299 55/55/298
f 224/224/187 223/223/186 55/55/298 88/400/297
f 225/225/151 224/224/187 88/400/297 47/47/296
f 95/395/295 226/226/152 225/225/151 47/47/296
f 104/104/294 227/227/129 226/226/152 95/395/295
f 36/390/293 228/333/96 227/227/129 104/104/294
f 36/36/293 114/114/292 229/229/97 228/228/96
f 230/331/264 229/229/97 114/114/292 30/332/291
f 30/30/291 128/128/290 231/231/276 230/230/264
f 232/232/75 231/231/276 128/128/290 121/121/288
f 233/233/76 232/232/75 121/121/288 23/358/289
f 234/234/40 298/298/57 299/364/287 17/371/285
f 234/234/40 17/371/285 279/279/286 280/280/41
f 133/133/305 236/236/13 235/235/283 9/9/306
f 3/3/303 199/199/14 236/236/13 133/133/305
f 165/165/2 238/238/7 237/237/10 2/2/15
f 239/239/8 238/238/7 165/165/2 1/1/1
f 12/12/22 240/240/25 288/288/28 289/289/23
f 12/12/22 305/305/51 306/306/49 240/240/25
f 116/116/64 242/242/91 241/241/90 20/20/65
f 123/123/267 243/243/268 242/242/91 116/116/64
f 244/329/257 243/243/268 123/123/267 26/26/259
f 111/111/109 245/245/114 244/244/257 26/338/259
f 246/327/115 245/245/114 111/111/109 39/39/108
f 247/247/122 246/246/115 39/336/108 99/99/136
f 248/248/138 247/247/122 99/99/136 92/92/166
f 249/249/139 248/248/138 92/92/166 42/42/165
f 85/85/173 250/250/171 249/249/139 42/42/165
f 251/251/172 250/250/171 85/85/173 52/52/176
f 52/52/176 64/64/211 252/252/207 251/251/172
f 76/76/239 253/253/212 252/252/207 64/64/211
f 67/66/238 254/254/213 253/253/212 76/76/239
f 182/182/244 255/255/242 254/254/213 67/66/238
f 256/256/249 255/255/242 182/182/244 74/74/248
f 149/149/247 257/257/250 256/256/249 74/74/248
f 258/258/222 257/257/250 149/149/247 70/70/229
f 80/80/228 259/259/223 258/258/222 70/70/229
f 260/260/202 259/259/223 80/80/228 60/60/199
f 261/261/193 260/260/202 60/60/199 56/56/185
f 89/89/188 262/262/194 261/261/193 56/56/185
f 46/46/154 263/263/148 262/262/194 89/89/188
f 264/264/149 263/263/148 46/46/154 96/96/153
f 103/103/130 265/265/128 264/264/149 96/96/153
f 266/325/93 265/265/128 103/103/130 34/326/99
f 267/267/94 266/266/93 34/35/99 107/107/98
f 268/323/251 267/267/94 107/107/98 31/324/265
f 31/31/265 127/127/275 269/269/274 268/268/251
f 270/270/80 269/269/274 127/127/275 120/120/74
f 271/271/81 270/270/80 120/120/74 24/24/77
f 272/272/36 296/296/59 297/297/56 16/16/39
f 272/272/36 16/16/39 281/281/42 282/282/37
f 132/132/16 274/274/9 273/273/281 8/8/284
f 2/2/15 237/237/10 274/274/9 132/132/16
f 166/166/302 276/276/20 275/373/19 4/4/304
f 277/277/45 276/276/20 166/166/302 3/3/303
f 3/3/303 133/133/305 278/278/46 277/277/45
f 279/372/286 278/278/46 133/133/305 9/9/306
f 9/9/306 235/235/283 280/280/41 279/279/286
f 281/281/42 280/280/41 235/235/283 8/8/284
f 8/8/284 273/273/281 282/282/37 281/281/42
f 283/370/38 282/282/37 273/273/281 7/7/282
f 7/7/282 131/131/12 284/284/33 283/283/38
f 285/285/34 284/284/33 131/131/12 5/6/11
f 198/198/6 286/286/30 285/285/34 5/6/11
f 287/368/27 286/286/30 198/198/6 6/5/5
f 239/239/8 288/288/28 287/287/27 6/5/5
f 289/289/23 288/288/28 239/239/8 1/1/1
f 201/201/4 290/290/24 289/289/23 1/1/1
f 275/275/19 290/290/24 201/201/4 4/4/304
f 196/196/88 308/308/307 309/361/308 18/18/89
f 19/19/82 307/307/309 308/308/307 196/196/88
f 163/163/85 322/322/310 307/307/309 19/19/82
f 25/356/78 321/321/311 322/322/310 163/163/85
f 271/271/81 320/320/312 321/355/311 25/25/78
f 24/24/77 319/319/313 320/320/312 271/271/81
f 233/233/76 318/318/314 319/319/313 24/24/77
f 23/358/289 317/317/315 318/318/314 233/233/76
f 135/135/70 316/316/316 317/357/315 23/23/289
f 22/22/73 315/315/317 316/316/316 135/135/70
f 168/168/66 314/314/318 315/315/317 22/22/73
f 21/360/69 313/313/319 314/314/318 168/168/66
f 203/203/62 312/312/320 313/359/319 21/21/69
f 20/20/65 311/311/321 312/312/320 203/203/62
f 241/241/90 310/310/322 311/311/321 20/20/65
f 18/362/89 309/309/308 310/310/322 241/241/90
f 308/308/307 307/307/309 293/293/60 292/292/48
f 309/361/308 308/308/307 292/292/48 291/366/47
f 310/310/322 309/309/308 291/291/47 306/306/49
f 311/311/321 310/310/322 306/306/49 305/305/51
f 312/312/320 311/311/321 305/305/51 304/304/50
f 313/359/319 312/312/320 304/304/50 303/303/53
f 314/314/318 313/313/319 303/363/53 302/302/52
f 315/315/317 314/314/318 302/302/52 301/301/55
f 316/316/316 315/315/317 301/301/55 300/300/54
f 317/357/315 316/316/316 300/300/54 299/299/287
f 318/318/314 317/317/315 299/364/287 298/298/57
f 319/319/313 318/318/314 298/298/57 297/297/56
f 320/320/312 319/319/313 297/297/56 296/296/59
f 321/355/311 320/320/312 296/296/59 295/295/58
f 322/322/310 321/321/311 295/365/58 294/294/61
f 307/307/309 322/322/310 294/294/61 293/293/60
