# This file uses centimeters as units for non-parametric coordinates.

mtllib Mushroom.mtl
g default
v -0.061644 -0.038590 0.069538
v -0.077617 -0.048422 0.004334
v 0.012885 -0.065507 0.009035
v 0.019790 -0.049141 0.085453
v -0.068974 -0.039837 -0.055236
v 0.009969 -0.056419 -0.058831
v 0.083767 -0.044339 -0.056359
v 0.106249 -0.045441 0.009230
v 0.094418 -0.030978 0.080544
v 0.017217 0.163737 -0.138694
v 0.113744 0.159844 -0.094885
v -0.077524 0.159360 -0.109199
v -0.127615 0.163102 -0.013777
v -0.099067 0.166212 0.086861
v 0.012497 0.160814 0.137742
v 0.110968 0.159680 0.106815
v 0.157218 0.162643 0.002035
v 0.062446 0.449691 -0.068012
v 0.095340 0.447461 -0.004848
v 0.015334 0.451817 -0.077486
v -0.027849 0.453722 -0.054006
v -0.051264 0.454967 -0.008534
v -0.036226 0.452004 0.040982
v 0.020876 0.445570 0.064994
v 0.079655 0.444027 0.047165
v 0.241497 0.380838 -0.185703
v 0.307896 0.388489 0.001628
v 0.013679 0.391478 -0.278606
v -0.180787 0.377399 -0.236939
v -0.305565 0.391627 -0.027622
v -0.214049 0.405076 0.180993
v 0.015879 0.381414 0.267212
v 0.219471 0.386262 0.226003
v 0.155287 0.415748 -0.129247
v 0.203626 0.414078 -0.001650
v 0.148647 0.402121 0.135119
v 0.018341 0.412938 0.169400
v -0.126720 0.422966 0.111857
v -0.183047 0.424212 -0.018366
v -0.110934 0.416750 -0.153589
v 0.014515 0.415009 -0.177971
v -0.325128 0.483492 -0.040975
v -0.194080 0.481664 -0.266926
v -0.224721 0.493189 0.188553
v 0.012201 0.466488 0.301987
v 0.219488 0.473850 0.239343
v 0.332676 0.475116 0.001487
v 0.258299 0.476920 -0.207898
v 0.017438 0.479333 -0.309703
v -0.329649 0.435786 -0.034059
v -0.198474 0.414501 -0.263350
v 0.016495 0.422570 -0.304299
v 0.263179 0.420085 -0.208183
v 0.332930 0.429133 0.001708
v 0.226005 0.429290 0.241638
v 0.013384 0.420796 0.303420
v -0.227071 0.448089 0.192614
v -0.042765 0.792614 0.044609
v 0.016871 0.788285 0.072757
v 0.068518 0.788708 0.055523
v 0.089992 0.793706 0.004589
v 0.080007 0.789685 -0.057966
v 0.021018 0.799766 -0.076817
v -0.038828 0.798831 -0.065651
v -0.057045 0.800683 -0.007983
v 0.016609 0.823376 0.001985
v 0.008038 0.549406 0.258372
v -0.189577 0.567409 0.163561
v -0.267295 0.573942 -0.031712
v -0.164212 0.567393 -0.224687
v 0.018625 0.567350 -0.270417
v 0.221023 0.559458 -0.188028
v 0.283664 0.562295 0.003169
v 0.184028 0.555827 0.198470
v -0.082231 0.740279 0.079016
v 0.010949 0.735829 0.122910
v 0.101155 0.740064 0.098720
v 0.147228 0.744369 0.005169
v 0.124273 0.735451 -0.092954
v 0.020726 0.753244 -0.136223
v -0.079688 0.753440 -0.111931
v -0.119644 0.764128 -0.012478
v -0.030372 -0.063048 0.006972
v -0.020504 -0.048540 0.077496
v -0.043333 0.167579 0.123007
v -0.008916 0.450040 0.058601
v -0.050033 0.423668 0.144488
v -0.091951 0.395633 0.226955
v -0.112210 0.443850 0.272578
v -0.117450 0.495166 0.269878
v -0.089914 0.573149 0.229940
v -0.034512 0.741197 0.106272
v -0.011651 0.792980 0.061242
v -0.018052 0.813072 -0.002669
v -0.007328 0.802061 -0.072805
v -0.027477 0.759230 -0.130315
v -0.069700 0.574497 -0.259916
v -0.083951 0.483764 -0.305275
v -0.084728 0.413526 -0.300305
v -0.077489 0.381420 -0.259284
v -0.044567 0.418773 -0.168052
v -0.006383 0.453049 -0.069228
v -0.029913 0.162419 -0.133743
v -0.027910 -0.053169 -0.059148
v 0.043751 -0.054879 -0.058961
v 0.055890 -0.062494 0.009222
v 0.051323 -0.048879 0.080509
v 0.059109 0.164326 0.133901
v 0.047788 0.445540 0.057874
v 0.077479 0.410344 0.154804
v 0.095352 0.378501 0.239993
v 0.113205 0.423767 0.292181
v 0.101665 0.466500 0.291085
v 0.089220 0.558705 0.238847
v 0.052757 0.742095 0.117345
v 0.040565 0.790679 0.066297
v 0.052670 0.814735 0.003618
v 0.048400 0.797852 -0.069537
v 0.070212 0.750372 -0.122047
v 0.131453 0.566884 -0.253205
v 0.133748 0.476832 -0.287956
v 0.133512 0.419454 -0.283387
v 0.116138 0.384323 -0.236544
v 0.078845 0.422024 -0.159334
v 0.037221 0.451272 -0.077291
v 0.064074 0.163440 -0.126982
v -0.072028 -0.046906 0.034260
v -0.026504 -0.060066 0.039288
v 0.014898 -0.062610 0.042011
v 0.054391 -0.059947 0.041732
v 0.102943 -0.043187 0.043193
v 0.146954 0.164401 0.053308
v 0.089057 0.446184 0.018789
v 0.180831 0.414199 0.060835
v 0.268136 0.380048 0.101460
v 0.312519 0.428189 0.127442
v 0.307811 0.485021 0.118708
v 0.257625 0.567256 0.095672
v 0.132763 0.748408 0.050011
v 0.081491 0.793880 0.028157
v 0.047579 0.805263 0.032077
v 0.016855 0.810862 0.036770
v -0.016122 0.807964 0.027239
v -0.051656 0.799397 0.016155
v -0.106591 0.760237 0.034069
v -0.251687 0.578965 0.042969
v -0.300919 0.495682 0.070218
v -0.305330 0.438596 0.078848
v -0.264587 0.391134 0.066081
v -0.159223 0.428142 0.040559
v -0.049416 0.454264 0.014898
v -0.123073 0.166746 0.033078
v -0.074779 -0.046647 -0.027184
v -0.029577 -0.061207 -0.027867
v 0.011383 -0.063997 -0.026615
v 0.049968 -0.061075 -0.026545
v 0.095797 -0.047137 -0.025318
v 0.143675 0.163921 -0.052593
v 0.087026 0.450083 -0.042191
v 0.180860 0.420690 -0.068717
v 0.273473 0.380349 -0.095633
v 0.311752 0.415983 -0.112934
v 0.311164 0.477772 -0.115216
v 0.265740 0.565109 -0.100003
v 0.140098 0.743927 -0.047411
v 0.086390 0.794461 -0.028353
v 0.051108 0.808363 -0.034795
v 0.019008 0.812884 -0.039314
v -0.012993 0.811888 -0.040015
v -0.048818 0.802782 -0.038416
v -0.102627 0.763336 -0.066033
v -0.230039 0.584210 -0.140910
v -0.280059 0.494616 -0.172321
v -0.285706 0.419911 -0.176019
v -0.240463 0.382982 -0.136070
v -0.147794 0.428178 -0.090211
v -0.042620 0.455001 -0.034025
v -0.111435 0.162573 -0.068640
v 0.112912 -0.002968 -0.081778
v 0.135969 0.000108 -0.041274
v 0.149708 0.009386 0.005331
v 0.144136 0.014049 0.057023
v 0.114137 0.020105 0.101977
v 0.068223 0.004227 0.122829
v 0.014327 0.007995 0.134381
v -0.040008 0.004417 0.123047
v -0.094212 0.015913 0.094065
v -0.118450 0.007630 0.041207
v -0.118232 0.007766 -0.005048
v -0.102780 0.004550 -0.054079
v -0.083163 0.009585 -0.089066
v -0.035524 -0.003507 -0.111245
v 0.011650 -0.007493 -0.117570
v 0.063521 -0.008664 -0.111581
v 0.166306 0.074485 0.002909
v 0.148266 0.057941 -0.052496
v 0.122805 0.062892 -0.095772
v 0.069621 0.063631 -0.127138
v 0.014601 0.063957 -0.136943
v -0.035496 0.065477 -0.133242
v -0.088488 0.071910 -0.107455
v -0.115553 0.069519 -0.066391
v -0.131483 0.073393 -0.010051
v -0.133650 0.077487 0.046581
v -0.108186 0.080442 0.100497
v -0.047858 0.075239 0.140863
v 0.012349 0.074698 0.150401
v 0.070641 0.071210 0.142864
v 0.121831 0.080472 0.112056
v 0.157669 0.078987 0.060451
vt 0.880671 0.524936
vt 0.886215 0.529201
vt 0.880071 0.535109
vt 0.874416 0.530737
vt 0.890676 0.533542
vt 0.884806 0.539263
vt 0.879887 0.545144
vt 0.873916 0.541420
vt 0.868637 0.536006
vt 0.901321 0.555211
vt 0.866296 0.563847
vt 0.907957 0.548009
vt 0.901859 0.515256
vt 0.895291 0.507349
vt 0.859602 0.515830
vt 0.852158 0.522877
vt 0.859362 0.556008
vt 0.839300 0.575728
vt 0.918862 0.578026
vt 0.922138 0.574585
vt 0.926402 0.498123
vt 0.922607 0.494817
vt 0.842238 0.491355
vt 0.838849 0.496499
vt 0.835671 0.571864
vt 0.896045 0.625143
vt 0.877148 0.629594
vt 0.907813 0.603849
vt 0.905479 0.584371
vt 0.886104 0.570611
vt 0.865083 0.577249
vt 0.854104 0.598828
vt 0.856435 0.618682
vt 0.891413 0.615920
vt 0.878575 0.619365
vt 0.865743 0.612805
vt 0.863794 0.599827
vt 0.870825 0.586404
vt 0.884030 0.582418
vt 0.896462 0.590564
vt 0.897852 0.602904
vt 0.863537 0.806077
vt 0.870276 0.830663
vt 0.884244 0.765499
vt 0.908611 0.756694
vt 0.948515 0.774353
vt 0.956002 0.799037
vt 0.939377 0.840187
vt 0.914907 0.847369
vt 0.887349 0.565907
vt 0.909528 0.582115
vt 0.911621 0.604708
vt 0.899141 0.628785
vt 0.876439 0.634172
vt 0.852599 0.620745
vt 0.849130 0.597641
vt 0.862319 0.573783
vt 0.910418 0.794676
vt 0.904309 0.797296
vt 0.915768 0.796005
vt 0.917615 0.801337
vt 0.917271 0.807743
vt 0.911153 0.809323
vt 0.905048 0.808783
vt 0.903476 0.802856
vt 0.910451 0.801838
vt 0.908661 0.765696
vt 0.888327 0.772989
vt 0.873801 0.805130
vt 0.879217 0.826035
vt 0.913805 0.838217
vt 0.934432 0.832410
vt 0.946441 0.799592
vt 0.940030 0.779082
vt 0.897539 0.793419
vt 0.909662 0.787833
vt 0.918717 0.789293
vt 0.924684 0.800938
vt 0.924585 0.810846
vt 0.911692 0.816355
vt 0.901572 0.815858
vt 0.896778 0.803355
vt 0.882984 0.532247
vt 0.877568 0.528139
vt 0.862877 0.511247
vt 0.875030 0.598269
vt 0.866922 0.593453
vt 0.858906 0.588526
vt 0.895817 0.756317
vt 0.896391 0.761238
vt 0.899339 0.769448
vt 0.905179 0.789391
vt 0.907575 0.795869
vt 0.907163 0.802321
vt 0.908318 0.809084
vt 0.906968 0.816026
vt 0.905271 0.838118
vt 0.905223 0.847902
vt 0.912110 0.594295
vt 0.906987 0.594603
vt 0.897304 0.597084
vt 0.923887 0.573149
vt 0.904385 0.551801
vt 0.887475 0.536604
vt 0.882575 0.541789
vt 0.877286 0.538061
vt 0.872512 0.533212
vt 0.856170 0.518821
vt 0.874535 0.603624
vt 0.864575 0.605688
vt 0.855724 0.606742
vt 0.918629 0.752831
vt 0.917271 0.756859
vt 0.916589 0.767134
vt 0.913745 0.788507
vt 0.912804 0.795257
vt 0.913783 0.801587
vt 0.913880 0.808646
vt 0.916566 0.815164
vt 0.924471 0.836169
vt 0.926054 0.845204
vt 0.908084 0.616292
vt 0.902758 0.613652
vt 0.895127 0.608858
vt 0.920640 0.576103
vt 0.898193 0.558679
vt 0.883779 0.527355
vt 0.880552 0.530298
vt 0.877730 0.533125
vt 0.875131 0.535836
vt 0.871585 0.538925
vt 0.855700 0.552518
vt 0.877850 0.607880
vt 0.872766 0.616531
vt 0.867710 0.624930
vt 0.958201 0.785867
vt 0.953094 0.787948
vt 0.944021 0.790668
vt 0.923199 0.796602
vt 0.916807 0.798965
vt 0.913463 0.798707
vt 0.910428 0.798519
vt 0.907205 0.799352
vt 0.903818 0.800393
vt 0.897373 0.798732
vt 0.875016 0.797887
vt 0.865714 0.795402
vt 0.875062 0.567189
vt 0.876679 0.573249
vt 0.878108 0.584109
vt 0.921014 0.493178
vt 0.898985 0.511713
vt 0.888494 0.531444
vt 0.885361 0.534550
vt 0.882540 0.537304
vt 0.880044 0.540104
vt 0.876947 0.543328
vt 0.862882 0.560179
vt 0.883634 0.608256
vt 0.885267 0.617700
vt 0.887079 0.627558
vt 0.961456 0.810516
vt 0.955565 0.810352
vt 0.946043 0.809628
vt 0.924605 0.806095
vt 0.917446 0.804649
vt 0.913902 0.805289
vt 0.910773 0.805735
vt 0.907713 0.805906
vt 0.904259 0.805913
vt 0.897877 0.808643
vt 0.876706 0.815899
vt 0.866980 0.818899
vt 0.901230 0.572418
vt 0.896449 0.577362
vt 0.890562 0.586522
vt 0.924557 0.496561
vt 0.905835 0.519066
vt 0.882017 0.550988
vt 0.873694 0.548449
vt 0.869610 0.546043
vt 0.866015 0.542512
vt 0.862700 0.533388
vt 0.866753 0.530225
vt 0.869798 0.525842
vt 0.873947 0.522476
vt 0.883715 0.518313
vt 0.887884 0.522130
vt 0.891158 0.525174
vt 0.894201 0.529156
vt 0.896503 0.536864
vt 0.892905 0.540610
vt 0.889825 0.543979
vt 0.886219 0.547401
vt 0.865306 0.550349
vt 0.870359 0.553183
vt 0.886534 0.556503
vt 0.890895 0.552589
vt 0.894682 0.548745
vt 0.897979 0.545191
vt 0.902919 0.528538
vt 0.899425 0.525287
vt 0.895742 0.520985
vt 0.892108 0.516915
vt 0.873902 0.512084
vt 0.869399 0.517334
vt 0.865350 0.521468
vt 0.861817 0.525804
vt 0.857280 0.542212
vt 0.861265 0.546538
vt 0.859979 0.820792
vt 0.893720 0.854595
vt 0.888562 0.632760
vt 0.960482 0.798652
vt 0.860409 0.793820
vt 0.858906 0.805621
vt 0.863817 0.630563
vt 0.930490 0.755145
vt 0.927713 0.850446
vt 0.959618 0.821014
vt 0.848861 0.608300
vt 0.908453 0.752283
vt 0.905474 0.854634
vt 0.915734 0.852882
vt 0.853249 0.584848
vt 0.865198 0.781038
vt 0.884102 0.596048
vt 0.885860 0.597619
vt 0.841534 0.578711
vt 0.880026 0.608697
vt 0.879552 0.594925
vt 0.881780 0.594984
vt 0.837660 0.573995
vt 0.875249 0.606738
vt 0.887430 0.603933
vt 0.886318 0.606206
vt 0.836831 0.498304
vt 0.874096 0.601018
vt 0.887088 0.599779
vt 0.887675 0.601888
vt 0.840505 0.494004
vt 0.876949 0.595880
vt 0.857427 0.529363
vt 0.851318 0.548003
vt 0.888157 0.512918
vt 0.866973 0.506319
vt 0.901892 0.541176
vt 0.909615 0.522484
vt 0.873495 0.556881
vt 0.894268 0.562888
vt 0.897022 0.531915
vt 0.877966 0.517927
vt 0.862696 0.538472
vt 0.877535 0.550798
vt 0.898735 0.813639
vt 0.922567 0.813788
vt 0.921446 0.791185
vt 0.900134 0.791179
vt 0.877488 0.785001
vt 0.926434 0.768572
vt 0.944878 0.819057
vt 0.895514 0.838132
vt 0.869383 0.782409
vt 0.894061 0.848045
vt 0.953998 0.820513
vt 0.929420 0.759384
vt 0.882836 0.761249
vt 0.952652 0.772916
vt 0.941565 0.845273
vt 0.863912 0.832354
vt 0.834448 0.500548
vt 0.919139 0.491032
vt 0.925914 0.571587
vt 0.843536 0.581523
vn -0.503002 -0.698390 0.509156
vn -0.607550 -0.758750 0.234908
vn -0.184787 -0.958848 0.215556
vn -0.221890 -0.775744 0.590750
vn -0.654947 -0.755303 -0.023694
vn -0.631116 -0.745706 -0.213577
vn -0.190936 -0.969961 -0.150731
vn -0.189855 -0.981580 0.021339
vn -0.000411 -0.991650 -0.128955
vn 0.190603 -0.973090 -0.129489
vn 0.214687 -0.976608 0.012075
vn 0.003351 -0.999809 0.019243
vn -0.007360 -0.979103 0.203232
vn 0.214482 -0.955365 0.203166
vn 0.219709 -0.778886 0.587423
vn -0.007898 -0.768285 0.640059
vn 0.645999 -0.763327 0.004156
vn 0.573577 -0.797476 -0.187196
vn 0.842005 -0.445388 -0.304396
vn 0.911543 -0.410403 -0.025664
vn -0.003051 -0.503193 -0.864169
vn 0.288527 -0.472966 -0.832499
vn 0.165852 -0.838920 -0.518369
vn -0.025885 -0.840221 -0.541627
vn -0.603354 -0.403198 -0.688038
vn -0.280303 -0.491466 -0.824555
vn -0.224598 -0.802447 -0.552842
vn -0.506730 -0.691580 -0.514725
vn -0.920060 -0.376046 -0.109902
vn -0.860982 -0.377055 -0.341379
vn -0.670260 -0.384691 0.634637
vn -0.883197 -0.405987 0.234814
vn -0.325942 -0.442372 0.835505
vn 0.295325 -0.432824 0.851732
vn -0.015610 -0.430318 0.902542
vn 0.520279 -0.651349 0.552317
vn 0.616208 -0.745682 0.253469
vn 0.862133 -0.377625 0.337826
vn 0.642915 -0.348841 0.681887
vn 0.666155 -0.314500 0.676259
vn 0.655156 0.209499 0.725866
vn 0.907683 0.195217 0.371486
vn 0.915895 -0.236975 0.324006
vn -0.104775 -0.211201 0.971811
vn -0.050976 0.218458 0.974514
vn 0.290296 0.217126 0.931979
vn 0.270368 -0.209708 0.939640
vn -0.740365 -0.262814 0.618699
vn -0.723930 0.236112 0.648210
vn -0.381128 0.230675 0.895282
vn -0.428028 -0.213843 0.878102
vn -0.924111 -0.301918 0.234233
vn -0.942658 0.219242 0.251652
vn -0.841516 -0.345217 -0.415543
vn -0.870399 0.192376 -0.453207
vn -0.972248 0.192450 -0.133026
vn -0.932020 -0.338484 -0.129488
vn -0.380114 -0.267919 -0.885287
vn -0.333003 0.161966 -0.928911
vn -0.627416 0.180133 -0.757563
vn -0.650061 -0.308237 -0.694558
vn 0.343700 -0.284492 -0.894949
vn 0.361005 0.134246 -0.922851
vn 0.015377 0.138877 -0.990190
vn -0.016438 -0.274671 -0.961398
vn 0.957233 -0.280826 -0.069577
vn 0.983606 0.175450 -0.041677
vn 0.893874 0.159034 -0.419162
vn 0.847629 -0.308068 -0.431994
vn -0.296005 -0.948004 0.116913
vn -0.287613 -0.957414 -0.025258
vn -0.009084 -0.951319 0.308075
vn -0.131431 -0.941311 0.310900
vn 0.179091 -0.940645 0.288295
vn 0.090678 -0.946589 0.309431
vn 0.274460 -0.960372 0.048554
vn 0.247047 -0.949606 0.192915
vn 0.150126 -0.974052 -0.169368
vn 0.242567 -0.966464 -0.084312
vn 0.026021 -0.959799 -0.279479
vn -0.106208 -0.953215 -0.283021
vn -0.068665 -0.947152 -0.313351
vn -0.246044 -0.957882 -0.148070
vn -0.153519 -0.968597 -0.195579
vn 0.088431 -0.996081 0.001270
vn 0.285307 -0.958370 0.011281
vn 0.198356 -0.978558 0.055486
vn 0.254780 -0.925072 0.281655
vn 0.033088 -0.989599 0.140000
vn -0.101532 -0.963275 0.248580
vn -0.167667 -0.972238 0.163220
vn -0.238249 -0.932389 0.271825
vn -0.153409 -0.981845 0.111560
vn -0.085741 -0.996099 0.020871
vn -0.283445 -0.958512 0.030242
vn 0.029023 -0.997683 -0.061533
vn -0.095951 -0.988402 -0.117707
vn 0.039967 -0.983189 -0.178162
vn 0.015084 -0.995694 -0.091471
vn -0.821114 -0.321656 -0.471497
vn -0.957385 -0.280888 -0.067198
vn -0.884503 -0.225496 0.408419
vn -0.686637 -0.255960 0.680451
vn -0.406963 -0.325194 0.853598
vn 0.265453 -0.356567 0.895765
vn -0.117797 -0.434634 0.892870
vn 0.878351 -0.259455 0.401476
vn 0.619698 -0.272487 0.736019
vn 0.897038 -0.324036 -0.300540
vn 0.952984 -0.302489 0.017927
vn 0.339732 -0.387021 -0.857203
vn 0.079935 -0.378708 -0.922058
vn -0.533994 -0.339818 -0.774192
vn -0.173141 -0.351711 -0.919957
vn -0.804974 0.362049 -0.470040
vn -0.929594 0.352564 -0.107486
vn -0.521951 0.289259 -0.802432
vn -0.202896 0.254492 -0.945551
vn 0.364939 0.209938 -0.907053
vn 0.069749 0.216131 -0.973870
vn 0.898169 0.311064 -0.310695
vn 0.945349 0.326041 0.003467
vn 0.828531 0.396106 0.395774
vn 0.570554 0.403516 0.715292
vn 0.254993 0.369221 0.893675
vn -0.042586 0.311677 0.949233
vn -0.382216 0.344859 0.857312
vn -0.688493 0.367642 0.625154
vn -0.849086 0.393631 0.352290
vn -0.299744 0.627173 0.718893
vn -0.250970 0.752442 0.608971
vn -0.388542 0.756481 0.526091
vn -0.554977 0.619365 0.555327
vn 0.219172 0.595726 0.772706
vn 0.182078 0.775525 0.604490
vn -0.060026 0.746805 0.662329
vn -0.033760 0.604055 0.796228
vn 0.695672 0.612052 0.376075
vn 0.518712 0.797834 0.307243
vn 0.386779 0.774775 0.500125
vn 0.500771 0.596062 0.627645
vn 0.746031 0.625694 -0.227915
vn 0.578925 0.796764 -0.173243
vn 0.600202 0.798997 0.036897
vn 0.783701 0.620061 0.036574
vn 0.108282 0.831939 -0.544199
vn 0.310249 0.809834 -0.497910
vn 0.328971 0.632951 -0.700821
vn 0.075735 0.617117 -0.783219
vn -0.329571 0.840690 -0.429679
vn -0.108269 0.853783 -0.509246
vn -0.181604 0.630707 -0.754473
vn -0.458142 0.633754 -0.623267
vn -0.425779 0.881630 -0.203570
vn -0.671665 0.657845 -0.340744
vn -0.754165 0.655363 -0.041651
vn -0.467481 0.883818 0.018088
vn -0.439652 0.842845 0.310353
vn -0.688286 0.634281 0.352065
vn -0.305833 0.573359 0.760083
vn -0.594700 0.573676 0.563230
vn 0.233760 0.546529 0.804153
vn -0.020483 0.539229 0.841910
vn 0.730859 0.569019 0.376911
vn 0.510303 0.561321 0.651544
vn 0.788308 0.555665 -0.264211
vn 0.829393 0.558320 0.019640
vn 0.070020 0.519473 -0.851613
vn 0.358869 0.522508 -0.773433
vn -0.468451 0.567335 -0.677263
vn -0.194234 0.546717 -0.814478
vn -0.806611 0.587347 -0.066350
vn -0.705296 0.593786 -0.387267
vn -0.747922 0.580230 0.322408
vn -0.241458 0.969696 0.037263
vn -0.164274 0.968021 -0.189605
vn -0.239299 0.916719 0.319941
vn 0.260662 0.895238 0.361393
vn -0.005961 0.914780 0.403909
vn 0.326616 0.944017 0.046406
vn 0.297697 0.930291 -0.214322
vn 0.054908 0.968622 -0.242398
vn 0.006193 0.999066 0.042760
vn 0.499926 0.765411 -0.405240
vn 0.593618 0.624561 -0.507486
vn 0.622449 0.530381 -0.575546
vn 0.691961 0.252195 -0.676453
vn 0.648736 -0.345415 -0.678108
vn 0.132913 -0.976390 -0.170282
vn -0.231744 -0.939659 0.251667
vn 0.606897 -0.293056 -0.738779
vn 0.656071 0.140759 -0.741456
vn 0.625884 -0.440552 -0.643570
vn 0.448267 -0.774685 -0.446005
vn 0.914839 -0.073194 -0.397131
vn 0.688999 -0.062610 -0.722053
vn 0.997043 -0.031885 -0.069920
vn 0.925234 -0.007837 0.379315
vn 0.679743 0.004301 0.733437
vn 0.322647 -0.045939 0.945404
vn -0.037336 -0.025870 0.998968
vn -0.382971 -0.004098 0.923751
vn -0.738331 0.012205 0.674328
vn -0.969844 -0.021246 0.242799
vn -0.987868 -0.058285 -0.143942
vn -0.905821 -0.071705 -0.417550
vn -0.637051 -0.077566 -0.766909
vn -0.288819 -0.116845 -0.950227
vn 0.045945 -0.117074 -0.992060
vn 0.369094 -0.089528 -0.925070
s 1
g Mushroom_LOW MudMushrooms
usemtl initialShadingGroup
f 1/1/1 127/127/2 128/128/3 84/84/4
f 2/2/5 153/153/6 154/154/7 83/83/8
f 155/155/9 156/156/10 106/106/11 3/3/12
f 129/129/13 130/130/14 107/107/15 4/4/16
f 8/8/17 157/157/18 180/180/19 181/181/20
f 193/193/21 194/194/22 105/105/23 6/6/24
f 191/191/25 192/192/26 104/104/27 5/5/28
f 189/189/29 190/190/30 153/153/6 2/2/5
f 187/187/31 188/188/32 127/127/2 1/1/1
f 1/1/1 84/84/4 186/186/33 187/252/31
f 107/107/15 184/184/34 185/185/35 4/4/16
f 9/9/36 131/131/37 182/182/38 183/253/39
f 25/25/40 16/244/41 132/132/42 133/233/43
f 24/24/44 15/15/45 108/108/46 109/237/47
f 23/23/48 14/246/49 85/85/50 86/241/51
f 151/151/52 152/152/53 14/14/49 23/272/48
f 177/177/54 178/178/55 13/13/56 22/22/57
f 102/102/58 103/103/59 12/12/60 21/273/61
f 125/125/62 126/126/63 10/10/64 20/20/65
f 19/18/66 17/17/67 158/158/68 159/229/69
f 159/159/69 160/160/70 35/35/71 19/230/66
f 41/41/72 124/124/73 125/235/62 20/240/65
f 40/40/74 101/101/75 102/239/58 21/228/61
f 39/39/76 176/176/77 177/227/54 22/232/57
f 38/38/78 150/150/79 151/231/52 23/242/48
f 23/242/48 86/86/51 87/87/80 38/38/78
f 24/238/44 109/109/47 110/110/81 37/37/82
f 25/234/40 133/133/43 134/134/83 36/36/84
f 35/35/71 160/160/70 161/161/85 27/27/86
f 36/36/84 134/134/83 135/135/87 33/33/88
f 37/37/82 110/110/81 111/111/89 32/32/90
f 38/38/78 87/87/80 88/88/91 31/31/92
f 149/149/93 150/150/79 38/38/78 31/31/92
f 175/175/94 176/176/77 39/39/76 30/30/95
f 100/100/96 101/101/75 40/40/74 29/29/97
f 28/28/98 123/123/99 124/124/73 41/41/72
f 174/174/100 175/175/94 30/30/95 50/50/101
f 148/148/102 149/149/93 31/31/92 57/57/103
f 88/88/91 89/225/104 57/57/103 31/31/92
f 32/32/90 111/111/89 112/221/105 56/56/106
f 135/135/87 136/217/107 55/55/108 33/33/88
f 27/27/86 161/161/85 162/213/109 54/54/110
f 122/122/111 123/123/99 28/28/98 52/52/112
f 51/51/113 99/99/114 100/100/96 29/29/97
f 173/173/115 174/211/100 50/216/101 42/42/116
f 43/264/117 98/98/118 99/223/114 51/212/113
f 121/121/119 122/219/111 52/224/112 49/49/120
f 54/214/110 162/162/109 163/163/121 47/47/122
f 136/136/107 137/137/123 46/46/124 55/268/108
f 56/222/106 112/112/105 113/113/125 45/45/126
f 89/89/104 90/90/127 44/44/128 57/267/103
f 147/147/129 148/215/102 57/226/103 44/263/128
f 92/92/130 93/93/131 58/59/132 75/258/133
f 115/115/134 116/116/135 59/58/136 76/76/137
f 139/139/138 140/140/139 60/60/140 77/257/141
f 165/165/142 166/166/143 61/61/144 78/78/145
f 63/63/146 118/118/147 119/119/148 80/80/149
f 64/64/150 95/95/151 96/96/152 81/81/153
f 170/170/154 171/171/155 82/82/156 65/65/157
f 58/59/132 144/144/158 145/145/159 75/75/133
f 90/90/127 91/91/160 68/68/161 44/44/128
f 113/113/125 114/114/162 67/67/163 45/45/126
f 137/137/123 138/138/164 74/74/165 46/46/124
f 163/163/121 164/164/166 73/73/167 47/47/122
f 71/71/168 120/120/169 121/121/119 49/49/120
f 70/262/170 97/97/171 98/98/118 43/264/117
f 42/42/116 69/69/172 172/172/173 173/173/115
f 68/259/161 146/146/174 147/147/129 44/263/128
f 94/94/175 169/169/176 170/170/154 65/65/157
f 58/59/132 93/93/131 143/143/177 144/144/158
f 116/116/135 141/141/178 142/142/179 59/58/136
f 117/117/180 167/167/181 168/168/182 66/66/183
f 91/91/160 92/92/130 75/258/133 68/68/161
f 114/114/162 115/115/134 76/76/137 67/67/163
f 138/138/164 139/139/138 77/257/141 74/74/165
f 164/164/166 165/165/142 78/78/145 73/73/167
f 80/80/149 119/119/148 120/120/169 71/71/168
f 81/81/153 96/96/152 97/97/171 70/262/170
f 82/82/156 171/171/155 172/172/173 69/69/172
f 68/259/161 75/75/133 145/145/159 146/146/174
f 84/84/4 128/128/3 129/129/13 4/4/16
f 185/185/35 186/186/33 84/84/4 4/4/16
f 85/85/50 15/15/45 24/24/44 86/241/51
f 87/87/80 86/86/51 24/238/44 37/37/82
f 88/88/91 87/87/80 37/37/82 32/32/90
f 56/56/106 89/225/104 88/88/91 32/32/90
f 45/45/126 90/90/127 89/89/104 56/222/106
f 67/67/163 91/91/160 90/90/127 45/45/126
f 76/76/137 92/92/130 91/91/160 67/67/163
f 59/58/136 93/93/131 92/92/130 76/76/137
f 142/142/179 143/143/177 93/93/131 59/58/136
f 168/168/182 169/169/176 94/94/175 66/66/183
f 96/96/152 95/95/151 63/63/146 80/80/149
f 97/97/171 96/96/152 80/80/149 71/71/168
f 98/98/118 97/97/171 71/71/168 49/49/120
f 99/223/114 98/98/118 49/49/120 52/224/112
f 100/100/96 99/99/114 52/52/112 28/28/98
f 28/28/98 41/41/72 101/101/75 100/100/96
f 102/239/58 101/101/75 41/41/72 20/240/65
f 20/20/65 10/10/64 103/103/59 102/102/58
f 6/6/24 104/104/27 192/192/26 193/193/21
f 83/83/8 154/154/7 155/155/9 3/3/12
f 106/106/11 156/156/10 157/157/18 8/8/17
f 130/130/14 131/131/37 9/9/36 107/107/15
f 183/183/39 184/184/34 107/107/15 9/9/36
f 108/108/46 16/16/41 25/271/40 109/237/47
f 110/110/81 109/109/47 25/234/40 36/36/84
f 111/111/89 110/110/81 36/36/84 33/33/88
f 112/221/105 111/111/89 33/33/88 55/55/108
f 113/113/125 112/112/105 55/218/108 46/266/124
f 74/260/165 114/114/162 113/113/125 46/266/124
f 77/77/141 115/115/134 114/114/162 74/260/165
f 60/60/140 116/116/135 115/115/134 77/77/141
f 60/60/140 140/140/139 141/141/178 116/116/135
f 166/166/143 167/167/181 117/117/180 61/61/144
f 119/119/148 118/118/147 62/62/184 79/256/185
f 120/120/169 119/119/148 79/256/185 72/72/186
f 121/121/119 120/120/169 72/72/186 48/48/187
f 53/269/188 122/219/111 121/121/119 48/48/187
f 26/26/189 123/123/99 122/122/111 53/53/188
f 124/124/73 123/123/99 26/26/189 34/34/190
f 125/235/62 124/124/73 34/34/190 18/236/191
f 18/19/191 11/250/192 126/126/63 125/125/62
f 105/105/23 194/194/22 179/179/193 7/7/194
f 128/128/3 127/127/2 2/2/5 83/83/8
f 129/129/13 128/128/3 83/83/8 3/3/12
f 106/106/11 130/130/14 129/129/13 3/3/12
f 8/8/17 131/131/37 130/130/14 106/106/11
f 181/181/20 182/182/38 131/131/37 8/8/17
f 132/132/42 17/17/67 19/18/66 133/233/43
f 134/134/83 133/133/43 19/230/66 35/35/71
f 135/135/87 134/134/83 35/35/71 27/27/86
f 54/54/110 136/217/107 135/135/87 27/27/86
f 47/47/122 137/137/123 136/136/107 54/214/110
f 73/73/167 138/138/164 137/137/123 47/47/122
f 78/78/145 139/139/138 138/138/164 73/73/167
f 61/61/144 140/140/139 139/139/138 78/78/145
f 141/141/178 140/140/139 61/61/144 117/117/180
f 142/142/179 141/141/178 117/117/180 66/66/183
f 94/94/175 143/143/177 142/142/179 66/66/183
f 144/144/158 143/143/177 94/94/175 65/65/157
f 145/145/159 144/144/158 65/65/157 82/82/156
f 146/146/174 145/145/159 82/82/156 69/69/172
f 147/147/129 146/146/174 69/69/172 42/42/116
f 50/216/101 148/215/102 147/147/129 42/42/116
f 30/30/95 149/149/93 148/148/102 50/50/101
f 30/30/95 39/39/76 150/150/79 149/149/93
f 151/231/52 150/150/79 39/39/76 22/232/57
f 22/22/57 13/13/56 152/152/53 151/151/52
f 2/2/5 127/127/2 188/188/32 189/189/29
f 154/154/7 153/153/6 5/5/28 104/104/27
f 155/155/9 154/154/7 104/104/27 6/6/24
f 6/6/24 105/105/23 156/156/10 155/155/9
f 157/157/18 156/156/10 105/105/23 7/7/194
f 179/254/193 180/180/19 157/157/18 7/7/194
f 158/158/68 11/11/192 18/274/191 159/229/69
f 18/236/191 34/34/190 160/160/70 159/159/69
f 161/161/85 160/160/70 34/34/190 26/26/189
f 162/213/109 161/161/85 26/26/189 53/53/188
f 163/163/121 162/162/109 53/220/188 48/265/187
f 72/261/186 164/164/166 163/163/121 48/265/187
f 79/79/185 165/165/142 164/164/166 72/261/186
f 62/62/184 166/166/143 165/165/142 79/79/185
f 62/62/184 118/118/147 167/167/181 166/166/143
f 168/168/182 167/167/181 118/118/147 63/63/146
f 63/63/146 95/95/151 169/169/176 168/168/182
f 170/170/154 169/169/176 95/95/151 64/64/150
f 81/255/153 171/171/155 170/170/154 64/64/150
f 172/172/173 171/171/155 81/255/153 70/70/170
f 173/173/115 172/172/173 70/70/170 43/43/117
f 51/270/113 174/211/100 173/173/115 43/43/117
f 29/29/97 175/175/94 174/174/100 51/51/113
f 29/29/97 40/40/74 176/176/77 175/175/94
f 177/227/54 176/176/77 40/40/74 21/228/61
f 21/21/61 12/248/60 178/178/55 177/177/54
f 5/5/28 153/153/6 190/190/30 191/251/25
f 158/158/68 196/196/195 197/249/196 11/11/192
f 195/195/197 196/196/195 158/158/68 17/17/67
f 132/132/42 210/210/198 195/195/197 17/17/67
f 16/244/41 209/209/199 210/210/198 132/132/42
f 108/108/46 208/208/200 209/243/199 16/16/41
f 15/15/45 207/207/201 208/208/200 108/108/46
f 85/85/50 206/206/202 207/207/201 15/15/45
f 14/246/49 205/205/203 206/206/202 85/85/50
f 204/204/204 205/245/203 14/14/49 152/152/53
f 13/13/56 203/203/205 204/204/204 152/152/53
f 202/202/206 203/203/205 13/13/56 178/178/55
f 12/248/60 201/201/207 202/202/206 178/178/55
f 200/200/208 201/247/207 12/12/60 103/103/59
f 10/10/64 199/199/209 200/200/208 103/103/59
f 198/198/210 199/199/209 10/10/64 126/126/63
f 11/250/192 197/197/196 198/198/210 126/126/63
f 196/196/195 195/195/197 181/181/20 180/180/19
f 197/249/196 196/196/195 180/180/19 179/254/193
f 198/198/210 197/197/196 179/179/193 194/194/22
f 194/194/22 193/193/21 199/199/209 198/198/210
f 200/200/208 199/199/209 193/193/21 192/192/26
f 192/192/26 191/191/25 201/247/207 200/200/208
f 202/202/206 201/201/207 191/251/25 190/190/30
f 190/190/30 189/189/29 203/203/205 202/202/206
f 204/204/204 203/203/205 189/189/29 188/188/32
f 188/188/32 187/187/31 205/245/203 204/204/204
f 206/206/202 205/205/203 187/252/31 186/186/33
f 207/207/201 206/206/202 186/186/33 185/185/35
f 208/208/200 207/207/201 185/185/35 184/184/34
f 209/243/199 208/208/200 184/184/34 183/183/39
f 210/210/198 209/209/199 183/253/39 182/182/38
f 195/195/197 210/210/198 182/182/38 181/181/20
