# Blender 5.1.1
# www.blender.org
mtllib Level3.mtl
o Cube
v 50.162876 107.674286 6.463811
v 50.162876 -1.000002 6.463811
v 26.132521 109.347031 10.451738
v 26.132521 -1.000004 10.451738
v 39.639099 107.831055 -1.462911
v 39.639099 -1.000002 -1.462911
v 22.118059 109.347031 2.779130
v 22.118059 -1.000004 2.779130
v 57.113716 105.635605 -11.118237
v 57.113716 -1.000002 -11.118237
v 52.761009 105.635605 -15.785103
v 52.761009 -1.000002 -15.785103
v 77.023079 99.413162 -17.685589
v 77.023079 -1.000000 -17.685589
v 71.793915 99.413162 -24.211708
v 71.793915 -1.000000 -24.211708
v 54.017685 -1.000002 1.413024
v 54.017685 107.061783 1.413024
v 48.669304 107.061783 -6.113077
v 48.669304 -1.000002 -6.113077
v 77.445343 107.061783 23.449856
v 77.445343 -1.000000 23.449856
v 80.608215 -1.000000 14.723930
v 80.608215 107.061783 14.723930
v 91.458916 105.635605 29.968147
v 91.458916 -1.000000 29.968147
v 91.449776 -1.000000 20.876617
v 91.449776 105.635605 20.876617
v 107.380531 99.413162 26.299801
v 107.380531 -1.000000 26.299801
v 101.858994 -1.000000 15.478212
v 101.858994 98.677628 15.478212
v 117.877808 94.551804 -6.760853
v 117.877808 -1.000000 -6.760853
v 109.959312 -1.000000 -11.102798
v 109.959312 94.551804 -11.102798
v 122.786476 93.850006 -24.797451
v 122.786476 -1.000000 -24.797451
v 113.889122 -1.000000 -24.697418
v 113.889122 93.850006 -24.697418
v 124.292686 93.850006 -47.984573
v 124.292686 -1.000000 -47.984573
v 115.485512 -1.000000 -43.780342
v 115.485512 93.850006 -43.780342
v 117.136887 93.180969 -65.713181
v 117.136887 -1.000000 -65.713181
v 112.548157 -1.000000 -59.851143
v 112.548157 93.180969 -59.851143
v 81.105774 94.551804 -37.575745
v 81.105774 -1.000000 -37.575745
v 74.824471 94.551804 -42.587189
v 74.824471 -1.000000 -42.587189
v 97.189209 91.521240 -58.212944
v 97.189209 -1.000000 -58.212944
v 87.780640 91.521240 -57.521854
v 87.780640 -1.000000 -57.521854
v 100.426300 90.774483 -63.836075
v 100.426300 -1.000000 -63.836075
v 90.167725 90.774483 -63.528175
v 90.167725 -1.000000 -63.528175
v 109.367226 90.442955 -74.258659
v 109.367226 -1.000000 -74.258659
v 92.702377 90.774483 -70.860489
v 92.702377 -1.000000 -70.860489
v 106.757797 89.814560 -89.575775
v 106.757797 -1.000000 -89.575775
v 98.906342 89.814560 -89.100990
v 98.906342 -1.000000 -89.100990
v 107.033035 86.784332 -110.822083
v 107.033035 -1.000000 -110.822083
v 95.313431 86.784332 -111.175316
v 95.313431 -1.000000 -111.175316
v 103.718948 86.784332 -118.549026
v 103.718948 -1.000000 -118.549026
v 92.895752 86.784332 -117.476311
v 92.895752 -1.000000 -117.476311
v 94.571762 84.985794 -143.527466
v 94.571762 -1.000000 -143.527466
v 85.179680 84.985794 -143.046295
v 85.179680 -1.000000 -143.046295
v 122.497658 86.784332 -120.005409
v 122.497658 -1.000000 -120.005409
v 113.867409 86.784332 -125.135490
v 113.867409 -1.000000 -125.135490
v 128.313812 86.784332 -126.720680
v 128.313812 -1.000000 -126.720680
v 119.166183 86.784332 -129.095245
v 119.166183 -1.000000 -129.095245
v 130.936279 86.784332 -133.257538
v 130.936279 -1.000000 -133.257538
v 123.151131 86.784332 -132.680908
v 123.151131 -1.000000 -132.680908
v 131.050415 86.784332 -140.895447
v 131.050415 -1.000000 -140.895447
v 123.456741 86.784332 -140.445404
v 123.456741 -1.000000 -140.445404
v 111.636742 82.876358 -158.258270
v 111.636742 -1.000000 -158.258270
v 101.278633 82.876358 -162.602875
v 101.278633 -1.000000 -162.602875
v 130.131195 84.674896 -150.962311
v 130.131195 -1.000000 -150.962311
v 123.390007 84.674896 -149.021912
v 123.390007 -1.000000 -149.021912
v 113.158730 82.876358 -169.793488
v 113.158730 -1.000000 -169.793488
v 102.385254 82.876358 -166.671753
v 102.385254 -1.000000 -166.671753
v 99.318138 78.590279 -187.644562
v 99.318138 -1.000000 -187.644562
v 96.763252 78.590279 -179.889679
v 96.763252 -1.000000 -179.889679
v 81.863991 80.868683 -187.941833
v 81.863991 -1.000000 -187.941833
v 82.987343 80.190598 -176.946716
v 82.987343 -1.000000 -176.946716
v 66.684723 78.747223 -176.204315
v 66.684723 -1.000000 -176.204315
v 69.239815 78.747223 -165.076904
v 69.239815 -1.000000 -165.076904
v 84.264404 84.985794 -137.328705
v 84.264404 -1.000000 -137.328705
v 93.545341 -1.000000 -137.848816
v 93.545341 84.985794 -137.848816
v 45.123283 76.468826 -145.807465
v 45.123283 -1.000000 -145.807465
v 52.271698 76.468826 -142.837158
v 52.271698 -1.000000 -142.837158
v 38.070267 76.468826 -134.744751
v 38.070267 -1.000000 -134.744751
v 45.218697 76.468826 -132.584564
v 45.218697 -1.000000 -132.584564
v 91.306694 82.876358 -154.102386
v 91.306694 -1.000000 -154.102386
v 101.064865 -1.000000 -152.863892
v 101.064865 82.876358 -152.863892
v 88.827255 -1.000000 -126.548561
v 95.584938 -1.000000 -128.658234
v 88.827255 86.784332 -126.548561
v 95.584938 86.784332 -128.658234
v 29.275450 76.468826 -114.814461
v 29.275450 -1.000000 -114.814461
v 36.191574 76.468826 -109.767326
v 36.191574 -1.000000 -109.767326
v 4.836432 74.976151 -96.837173
v 4.836432 -1.000000 -96.837173
v 5.552888 74.976151 -87.334625
v 5.552888 -1.000000 -87.334625
v -15.062050 74.976151 -97.858879
v -15.062050 -1.000000 -97.858879
v -21.341707 74.976151 -92.071800
v -21.341707 -1.000000 -92.071800
v -37.116699 74.976151 -106.129265
v -37.116699 -1.000000 -106.129265
v -41.153542 74.976151 -99.359222
v -41.153542 -1.000000 -99.359222
v -56.701477 74.976151 -106.735817
v -56.701477 -1.000000 -106.735817
v -51.995804 74.976151 -98.423737
v -51.995804 -1.000000 -98.423737
v -70.095169 69.139465 -87.972328
v -70.095169 -1.000000 -87.972328
v -61.482498 69.139465 -84.860130
v -61.482498 -1.000000 -84.860130
v -75.277557 69.139465 -74.635887
v -75.277557 -1.000000 -74.635887
v -70.218018 69.139465 -66.979660
v -70.218018 -1.000000 -66.979660
v -88.688210 64.477051 -60.100601
v -88.688210 -1.000000 -60.100601
v -87.927483 64.477051 -48.468315
v -87.927483 -1.000000 -48.468315
v -105.754463 64.477051 -57.565918
v -105.754463 -1.000000 -57.565918
v -111.065392 64.477051 -46.329712
v -111.065392 -1.000000 -46.329712
v -112.951416 62.518909 -91.506187
v -112.951416 -1.000000 -91.506187
v -122.557175 62.518909 -94.478607
v -122.557175 -1.000000 -94.478607
v 31.617247 78.044647 -94.535667
v 31.617247 -1.000000 -94.535667
v 24.542358 -1.000000 -103.085579
v 24.542358 78.044647 -103.085579
v -104.932739 62.518909 -113.366417
v -104.932739 -1.000000 -113.366417
v -110.085022 62.518909 -120.499039
v -110.085022 -1.000000 -120.499039
v -71.802956 62.518909 -148.233658
v -71.802956 -1.000000 -148.233658
v -76.177078 62.518909 -155.530563
v -76.177078 -1.000000 -155.530563
v -49.277813 55.755127 -157.416885
v -49.277813 -7.763783 -157.416885
v -51.438320 55.755127 -170.204102
v -51.438320 -7.763783 -170.204102
v -26.678806 55.755131 -176.230728
v -26.678806 -7.763783 -176.230728
v -29.237663 55.755131 -185.094666
v -29.237663 -7.763783 -185.094666
v 3.013063 52.025204 -201.329727
v 3.013063 -7.763783 -201.329727
v -2.243831 52.025204 -208.223892
v -2.243831 -7.763783 -208.223892
v 29.602982 43.635784 -217.603714
v 29.602982 -9.941442 -217.603714
v 32.181713 43.635784 -229.825958
v 32.181713 -9.941442 -229.825958
v -124.679321 -1.000000 -64.870651
v -114.498398 -1.000000 -67.550476
v -114.498398 62.518909 -67.550476
v -124.679321 62.518909 -64.870651
v 5.741755 115.564606 10.380297
v 5.741755 -1.000004 10.380297
v 3.797972 115.564606 1.441513
v 3.797972 -1.000004 1.441513
v 92.881203 -1.000000 -207.531555
v 92.881203 43.911186 -207.531555
v 92.662178 -1.000000 -202.668900
v 92.662178 43.911186 -202.668900
v 61.106586 43.635784 -213.940765
v 61.106586 -6.911412 -213.940765
v 59.979523 43.635784 -223.444366
v 59.979523 -6.911412 -223.444366
v -58.039539 57.084576 -185.218079
v -58.039539 -7.763783 -185.218079
v -37.752960 53.354649 -204.145294
v -37.752960 -7.763783 -204.145294
v -8.354380 53.354649 -217.214172
v -8.354380 -9.941443 -217.214172
v 111.595535 -4.733754 -206.245636
v 111.595535 43.911186 -206.245636
v 113.197037 -1.000000 -201.312286
v 113.197037 43.911186 -201.312286
v 128.995941 -4.733754 -210.648575
v 128.995941 43.911186 -210.648575
v 134.012939 -4.733754 -204.630463
v 134.012939 43.911186 -204.630463
v 145.163498 -4.733754 -233.599899
v 145.163498 39.941628 -233.599899
v 152.897415 -4.733754 -234.480515
v 152.897415 39.941628 -234.480515
v 132.767273 -4.733754 -259.037476
v 132.767273 37.843544 -259.037476
v 140.554260 -4.733754 -263.047180
v 140.554260 37.843544 -263.047180
v 112.279243 -5.821592 -268.584808
v 112.279243 33.586525 -268.584808
v 120.133087 -5.821592 -273.779144
v 120.133087 33.586525 -273.779144
v 49.939636 43.635784 -224.980972
v 49.939636 -6.911412 -224.980972
v 49.942848 -6.911412 -217.921692
v 49.942848 43.635784 -217.921692
v 59.493176 42.830833 -229.971436
v 59.493176 -6.911412 -229.971436
v 54.736259 42.830833 -234.157715
v 54.736259 -6.911412 -234.157715
v 69.954231 42.830833 -240.042068
v 69.954231 -6.911412 -240.042068
v 65.988861 42.830833 -248.183105
v 65.988861 -6.911412 -248.183105
v 98.577782 39.662235 -242.015930
v 98.577782 -4.733754 -242.015930
v 98.330498 39.662235 -250.369110
v 98.330498 -4.733754 -250.369110
v 127.365799 39.941628 -244.390305
v 127.365799 -4.733754 -244.390305
v 122.563278 39.941628 -252.875320
v 122.563278 -4.733754 -252.875320
v 138.526199 -4.733754 -244.651764
v 147.460449 -4.733754 -247.156891
v 147.460449 39.941628 -247.156891
v 138.526199 39.941628 -244.651764
v 102.175949 -5.821592 -290.656464
v 102.175949 29.131359 -290.656464
v 114.324646 -5.821592 -298.643097
v 114.324646 29.131359 -298.643097
v 38.793976 76.468826 -116.345222
v 38.793976 -1.000000 -116.345222
v 31.810888 -1.000000 -120.560081
v 31.810888 76.468826 -120.560081
v 1.384775 76.468826 -120.432388
v 1.384775 -1.000000 -120.432388
v -1.248183 -1.000000 -126.836464
v -1.248183 76.468826 -126.836464
v -11.794453 74.473495 -112.008759
v -11.794453 -1.000000 -112.008759
v -19.368618 -1.000000 -113.701302
v -19.368618 74.473495 -113.701302
v -32.507668 74.976151 -97.054214
v -32.507668 -1.000000 -97.054214
v -27.349428 -1.000000 -103.332771
v -27.349428 74.976151 -103.332771
v -4.980709 119.933777 20.329700
v -4.980709 -1.000000 20.329700
v -11.564505 119.933777 -4.453932
v -11.564505 -1.000000 -4.453932
v -26.970421 119.933777 27.716232
v -26.970421 -1.000000 27.716232
v -33.554184 119.933777 2.932631
v -33.554184 -1.000000 2.932631
v 88.438026 -5.821592 -302.065796
v 88.438026 25.911478 -302.065796
v 95.069733 -10.351366 -309.172485
v 95.069733 25.911478 -309.172485
v 52.462463 -5.821592 -316.338318
v 52.462463 27.656490 -316.338318
v 55.593575 -5.821592 -327.116638
v 55.593575 27.656490 -327.116638
v 22.992865 77.749512 -92.152924
v 18.021906 77.749512 -101.018051
v 22.992865 -1.000000 -92.152924
v 18.021906 -1.000000 -101.018051
v 21.496180 -2.087838 -315.868591
v 21.496180 23.646646 -315.868591
v 17.706324 -2.087838 -327.713562
v 17.706324 23.646646 -327.713562
v 3.236079 -1.076212 -297.178558
v 3.236079 27.608803 -297.178558
v -8.124952 -1.076212 -332.977264
v -8.124952 27.608803 -332.977264
v -31.487131 -1.076212 -285.103577
v -31.487131 27.608803 -285.103577
v -42.848160 -1.076212 -320.902344
v -42.848160 27.608803 -320.902344
vn -0.0035 -0.0000 1.0000
vn -0.2353 -0.0000 -0.9719
vn -0.0000 -1.0000 -0.0000
vn 0.1637 -0.0000 0.9865
vn 0.9708 -0.0000 0.2399
vn 0.3133 -0.0000 0.9497
vn -0.9210 -0.0000 -0.3896
vn -0.9867 -0.0000 -0.1627
vn -0.4048 -0.0000 -0.9144
vn -0.4578 -0.0000 -0.8890
vn -0.5285 -0.0000 0.8489
vn 0.4476 -0.0000 -0.8942
vn -0.4217 -0.0000 0.9067
vn 0.4936 -0.0000 -0.8697
vn -0.9566 -0.0000 -0.2915
vn 0.2245 -0.0000 0.9745
vn -0.4604 -0.0000 -0.8877
vn 0.9531 -0.0000 0.3026
vn 0.9979 -0.0000 0.0648
vn 0.9649 -0.0000 0.2626
vn -0.9607 -0.0000 -0.2777
vn -0.9837 -0.0000 0.1798
vn -0.9965 -0.0000 -0.0834
vn 0.9273 -0.0000 -0.3743
vn 0.9796 -0.0000 0.2011
vn 0.8667 -0.0000 0.4989
vn 0.7888 -0.0000 0.6147
vn -0.7554 -0.0000 -0.6553
vn -0.9451 -0.0000 -0.3267
vn -0.9293 -0.0000 -0.3693
vn -0.3123 -0.0000 0.9500
vn -0.9870 -0.0000 0.1607
vn 0.9858 -0.0000 -0.1679
vn -0.9467 -0.0000 -0.3220
vn 0.7399 -0.0000 -0.6727
vn 0.9999 -0.0000 0.0130
vn -0.9874 -0.0000 -0.1581
vn -0.9336 -0.0000 0.3582
vn -0.6487 -0.0000 -0.7610
vn 0.9841 -0.0000 0.1779
vn 0.5106 -0.0000 0.8598
vn -0.5444 -0.0000 -0.8388
vn 0.7559 -0.0000 0.6547
vn -0.5986 -0.0000 -0.8010
vn -0.6689 -0.0000 -0.7434
vn 0.9281 -0.0000 0.3723
vn 0.9999 -0.0000 0.0149
vn -0.9992 -0.0000 -0.0393
vn -0.9649 -0.0000 -0.2624
vn 0.4545 -0.0000 0.8907
vn 0.7428 -0.0000 -0.6695
vn 0.9959 -0.0000 -0.0909
vn -1.0000 -0.0000 0.0078
vn 0.7903 -0.0000 -0.6127
vn 0.2089 -0.0000 0.9779
vn -0.9202 -0.0000 0.3914
vn -0.6179 -0.0000 0.7863
vn 0.0170 -0.0000 -0.9999
vn -0.8156 -0.0000 -0.5786
vn -0.6117 -0.0000 -0.7911
vn 0.6535 -0.0000 0.7569
vn 0.9762 -0.0000 -0.2167
vn -0.9209 -0.0000 0.3898
vn 0.7950 -0.0000 0.6066
vn 0.9299 -0.0000 0.3679
vn -0.8432 -0.0000 -0.5376
vn 0.8239 -0.0000 0.5668
vn 0.8210 -0.0000 0.5710
vn -0.8747 -0.0000 -0.4847
vn -0.9124 -0.0000 0.4092
vn 0.7791 -0.0000 -0.6269
vn 0.2663 -0.0000 0.9639
vn -0.0000 1.0000 -0.0000
vn -0.3023 -0.0000 -0.9532
vn -0.2576 -0.0000 0.9663
vn 0.0127 0.9993 -0.0352
vn -0.1735 -0.0000 0.9848
vn 0.0310 -0.0000 -0.9995
vn 0.0860 -0.0000 0.9963
vn 0.8985 -0.0000 0.4390
vn -0.8139 -0.0000 -0.5810
vn 0.8195 -0.0000 0.5731
vn -0.9321 -0.0000 -0.3622
vn 0.0920 -0.0000 0.9958
vn -0.7350 -0.0000 -0.6781
vn 0.7226 -0.0000 0.6913
vn -0.1469 -0.0000 -0.9892
vn 0.9979 -0.0000 0.0644
vn -0.9974 -0.0000 -0.0715
vn 0.0662 0.9965 -0.0517
vn 0.1136 0.9894 -0.0903
vn 0.2292 0.9534 -0.1962
vn 0.0645 0.9963 -0.0562
vn 0.0282 0.9991 -0.0300
vn 0.1047 0.9943 0.0185
vn 0.4025 0.9039 -0.1452
vn 0.0843 0.9889 -0.1227
vn 0.0104 0.9991 -0.0414
vn -0.1575 0.9760 -0.1507
vn -0.0243 0.9992 -0.0323
vn 0.0379 0.9897 -0.1377
vn 0.2054 0.9570 -0.2050
vn -0.0066 0.9914 -0.1305
vn 0.0061 0.9989 -0.0466
vn 0.0107 0.9999 -0.0118
vn -0.0009 0.9904 -0.1385
vn -0.0365 0.9751 -0.2187
vn -0.0780 0.9958 -0.0478
vn -0.1450 0.9733 -0.1777
vn -0.0861 0.9953 0.0448
vn 0.1269 0.9909 0.0455
vn -0.0276 0.9853 -0.1684
vn -0.0608 0.9973 0.0418
vn 0.0078 0.9802 -0.1979
vn -0.1636 0.9852 0.0506
vn -0.1848 0.9589 0.2154
vn -0.2208 0.9730 0.0666
vn 0.0844 0.9926 -0.0869
vn -0.9273 -0.0000 -0.3742
vn 0.9577 -0.0000 0.2876
vn -0.7185 -0.0000 -0.6955
vn 0.9388 -0.0000 0.3444
vn -0.9018 -0.0000 -0.4322
vn -0.5102 -0.0000 -0.8601
vn 0.7249 -0.0000 0.6888
vn 0.6398 -0.0000 0.7685
vn -0.2380 -0.9682 0.0774
vn 0.2380 0.9682 -0.0774
vn 0.3775 -0.0000 0.9260
vn 0.0084 -0.9973 0.0731
vn 0.2451 0.9689 -0.0343
vn 0.0921 0.9947 -0.0457
vn 0.6456 -0.0000 0.7637
vn 0.5220 -0.0000 0.8529
vn -0.5315 -0.0000 -0.8470
vn -0.0655 -0.9978 0.0092
vn -0.0720 0.9942 -0.0801
vn -0.8060 -0.0000 0.5919
vn 0.7523 -0.0000 -0.6588
vn 0.0728 -0.0000 -0.9973
vn 0.3076 0.9451 -0.1103
vn 0.1852 -0.9826 -0.0117
vn -0.3364 -0.0000 0.9417
vn 0.0513 -0.0000 -0.9987
vn -0.0659 -0.0000 0.9978
vn 0.4354 -0.0000 -0.9002
vn -0.0088 1.0000 0.0006
vn -0.3359 -0.0000 0.9419
vn -0.4062 -0.0000 -0.9138
vn -0.6822 -0.0000 -0.7312
vn -0.9154 -0.0000 0.4025
vn 0.0311 0.9980 -0.0544
vn 0.8270 -0.0000 -0.5621
vn 0.0463 0.9976 -0.0519
vn -0.0242 -0.9417 0.3357
vn 0.0686 -0.0000 -0.9976
vn -0.1126 -0.9231 0.3677
vn 0.8451 -0.0000 0.5346
vn -0.2453 -0.0000 -0.9694
vn 0.1574 -0.0000 0.9875
vn 0.0474 0.9919 -0.1177
vn -0.8175 -0.0000 -0.5759
vn -0.4224 -0.0000 0.9064
vn -0.0461 0.9919 -0.1182
vn 0.0234 -0.0000 0.9997
vn 0.9171 -0.0000 -0.3986
vn -0.9093 -0.0000 0.4162
vn 0.4652 -0.0000 -0.8852
vn 0.0288 -0.9984 0.0490
vn -0.1103 0.9761 -0.1874
vn 0.0156 -0.0000 0.9999
vn 0.1547 -0.9878 0.0207
vn 0.2632 -0.0000 -0.9647
vn 0.0357 0.9951 -0.0922
vn 0.9972 -0.0000 -0.0743
vn -0.8862 -0.0000 -0.4632
vn 0.0700 -0.9974 -0.0179
vn 0.6935 -0.0000 0.7204
vn -0.7800 -0.0000 -0.6258
vn 0.0688 -0.0000 0.9976
vn -0.0674 -0.0000 -0.9977
vn 0.1016 0.9945 -0.0259
vn 0.0615 0.9910 -0.1193
vn 0.0822 -0.0000 0.9966
vn -0.1029 -0.0000 -0.9947
vn -0.0103 0.9999 0.0031
vn 0.9190 -0.0000 -0.3942
vn -0.8573 -0.0000 0.5148
vn -0.5169 -0.0000 -0.8560
vn -0.6389 -0.0000 0.7693
vn 0.9738 -0.0000 -0.2275
vn -0.1005 0.9832 -0.1526
vn -0.9149 -0.0000 -0.4037
vn -0.5869 -0.0000 -0.8097
vn 0.1865 -0.0000 -0.9825
vn -0.1975 -0.0000 0.9803
vn 0.9744 -0.0000 0.2250
vn -0.0678 0.9940 0.0855
vn 0.5386 -0.0000 0.8426
vn 0.2753 -0.0000 -0.9614
vn -0.4075 -0.0000 0.9132
vn -0.7924 -0.0000 -0.6100
vn 0.6802 -0.0000 0.7330
vn 0.3059 0.9489 -0.0773
vn 0.3583 -0.0000 -0.9336
vn -0.9665 -0.0000 0.2567
vn -0.3184 -0.0000 -0.9479
vn 0.3184 -0.0000 0.9479
vn -0.1331 -0.9756 0.1745
vn 0.4798 -0.0000 -0.8774
vn -0.0330 -0.9678 0.2494
vn -0.1053 0.9858 -0.1310
vn -0.1078 -0.9942 0.0031
vn 0.0375 0.9991 0.0205
vn -0.3688 -0.0000 0.9295
vn 0.4138 -0.0000 -0.9104
vn -0.0324 0.9992 0.0224
vn 0.1997 -0.0000 -0.9799
vn -0.1157 0.9933 0.0034
vn 0.0152 -0.0000 0.9999
vn 0.0158 -0.0000 -0.9999
vn 0.3285 -0.0000 0.9445
vn -0.0418 -0.9990 0.0133
vn 0.1615 0.9855 -0.0514
vn 0.7153 -0.0000 0.6988
vn -0.9532 -0.0000 0.3025
vn -0.3285 -0.0000 -0.9445
vt 0.375000 0.750000
vt 0.625000 0.750000
vt 0.375000 0.000000
vt 0.625000 0.000000
vt 0.625000 0.250000
vt 0.375000 0.250000
vt 0.125000 0.500000
vt 0.375000 0.500000
vt 0.125000 0.750000
vt 0.625000 0.500000
vt 0.625000 0.500000
vt 0.375000 0.500000
vt 0.375000 0.500000
vt 0.375000 0.250000
vt 0.116116 0.500000
vt 0.625000 0.250000
vt 0.123162 0.500000
vt 0.625000 0.500000
vt 0.375000 0.500000
vt 0.875000 0.500000
vt 0.625000 0.500000
vt 0.875000 0.750000
vt 0.875000 0.500000
vt 0.883884 0.500000
vt 0.871278 0.500000
vt 0.875000 0.500000
vt 0.874218 0.500000
vt 0.625000 1.000000
vt 0.375000 1.000000
s 0
usemtl Material
f 4/1/1 3/2/1 213/2/1 214/1/1
f 8/3/2 7/4/2 5/5/2 6/6/2
f 6/7/3 2/8/3 4/1/3 8/9/3
f 2/8/4 1/10/4 3/2/4 4/1/4
f 18/11/5 17/12/5 10/8/5 9/10/5
f 9/10/6 10/8/6 14/8/6 13/10/6
f 20/6/7 19/5/7 11/5/7 12/6/7
f 17/12/3 20/7/3 12/7/3 10/8/3
f 16/6/8 15/5/8 51/5/8 52/6/8
f 12/6/9 11/5/9 15/5/9 16/6/9
f 10/8/3 12/7/3 16/7/3 14/8/3
f 2/8/3 6/7/3 20/7/3 17/12/3
f 6/6/10 5/5/10 19/5/10 20/6/10
f 1/10/11 2/8/11 22/8/11 21/10/11
f 22/8/3 23/12/3 27/12/3 26/8/3
f 17/12/12 18/11/12 24/11/12 23/12/12
f 2/8/3 17/12/3 23/12/3 22/8/3
f 26/8/3 27/12/3 31/13/3 30/8/3
f 21/10/13 22/8/13 26/8/13 25/10/13
f 23/12/14 24/11/14 28/11/14 27/12/14
f 31/13/15 32/11/15 36/11/15 35/12/15
f 25/10/16 26/8/16 30/8/16 29/10/16
f 27/12/17 28/11/17 32/11/17 31/13/17
f 34/8/3 35/12/3 39/12/3 38/8/3
f 30/8/3 31/13/3 35/12/3 34/8/3
f 29/10/18 30/8/18 34/8/18 33/10/18
f 37/10/19 38/8/19 42/8/19 41/10/19
f 33/10/20 34/8/20 38/8/20 37/10/20
f 35/12/21 36/11/21 40/11/21 39/12/21
f 43/12/22 44/11/22 48/11/22 47/12/22
f 39/12/23 40/11/23 44/11/23 43/12/23
f 38/8/3 39/12/3 43/12/3 42/8/3
f 42/8/3 43/12/3 47/12/3 46/8/3
f 41/10/24 42/8/24 46/8/24 45/10/24
f 14/8/3 16/7/3 52/7/3 50/8/3
f 13/10/25 14/8/25 50/8/25 49/10/25
f 53/10/26 54/8/26 58/8/26 57/10/26
f 49/10/27 50/8/27 54/8/27 53/10/27
f 52/6/28 51/5/28 55/5/28 56/6/28
f 50/8/3 52/7/3 56/7/3 54/8/3
f 60/6/29 59/5/29 63/5/29 64/6/29
f 56/6/30 55/5/30 59/5/30 60/6/30
f 54/8/3 56/7/3 60/7/3 58/8/3
f 58/8/3 60/7/3 64/7/3 62/8/3
f 57/10/31 58/8/31 47/12/31 48/11/31
f 68/6/32 67/5/32 71/5/32 72/6/32
f 61/10/33 62/8/33 66/8/33 65/10/33
f 64/6/34 63/5/34 67/5/34 68/6/34
f 62/8/3 64/7/3 68/7/3 66/8/3
f 58/8/3 62/8/3 46/8/3 47/12/3
f 62/8/35 61/10/35 45/10/35 46/8/35
f 66/8/3 68/7/3 72/7/3 70/8/3
f 65/10/36 66/8/36 70/8/36 69/10/36
f 122/14/37 121/5/37 79/5/37 80/6/37
f 70/8/3 74/8/3 84/8/3 82/8/3
f 72/6/38 71/5/38 75/5/38 76/6/38
f 70/8/3 72/7/3 76/7/3 74/8/3
f 134/6/39 133/5/39 99/5/39 100/6/39
f 123/8/3 122/7/3 80/7/3 78/8/3
f 124/10/40 123/8/40 78/8/40 77/10/40
f 69/10/41 70/8/41 82/8/41 81/10/41
f 74/8/42 73/10/42 83/10/42 84/8/42
f 86/8/3 88/8/3 92/8/3 90/8/3
f 81/10/43 82/8/43 86/8/43 85/10/43
f 82/8/3 84/8/3 88/8/3 86/8/3
f 84/8/44 83/10/44 87/10/44 88/8/44
f 88/8/45 87/10/45 91/10/45 92/8/45
f 85/10/46 86/8/46 90/8/46 89/10/46
f 89/10/47 90/8/47 94/8/47 93/10/47
f 90/8/3 92/8/3 96/8/3 94/8/3
f 92/8/48 91/10/48 95/10/48 96/8/48
f 100/6/49 99/5/49 107/5/49 108/6/49
f 135/8/3 134/15/3 100/7/3 98/8/3
f 136/11/50 135/8/50 98/8/50 97/10/50
f 101/10/51 102/8/51 106/8/51 105/10/51
f 93/10/52 94/8/52 102/8/52 101/10/52
f 94/8/3 96/8/3 104/8/3 102/8/3
f 96/8/53 95/10/53 103/10/53 104/8/53
f 105/10/54 106/8/54 110/8/54 109/10/54
f 98/8/3 100/7/3 108/7/3 106/8/3
f 112/6/55 111/5/55 115/5/55 116/6/55
f 108/6/56 107/5/56 111/5/56 112/6/56
f 106/8/3 108/7/3 112/7/3 110/8/3
f 102/8/3 104/8/3 98/8/3 106/8/3
f 104/8/57 103/10/57 97/10/57 98/8/57
f 110/8/3 112/7/3 116/7/3 114/8/3
f 109/10/58 110/8/58 114/8/58 113/10/58
f 117/10/59 118/8/59 126/8/59 125/10/59
f 113/10/60 114/8/60 118/8/60 117/10/60
f 116/6/61 115/5/61 119/5/61 120/6/61
f 114/8/3 116/7/3 120/7/3 118/8/3
f 140/10/62 138/8/62 123/8/62 124/10/62
f 138/8/3 137/7/3 122/7/3 123/8/3
f 137/6/63 139/5/63 121/5/63 122/14/63
f 120/6/64 119/5/64 127/5/64 128/6/64
f 118/8/3 120/7/3 128/7/3 126/8/3
f 280/6/65 279/16/65 143/5/65 144/6/65
f 125/10/66 126/8/66 130/8/66 129/10/66
f 128/6/67 127/5/67 131/5/67 132/6/67
f 126/8/3 128/7/3 132/7/3 130/8/3
f 77/10/68 78/8/68 135/8/68 136/11/68
f 78/8/3 80/7/3 134/15/3 135/8/3
f 80/6/69 79/5/69 133/5/69 134/6/69
f 76/6/70 75/5/70 139/5/70 137/6/70
f 74/8/3 76/7/3 137/7/3 138/8/3
f 73/10/71 74/8/71 138/8/71 140/10/71
f 313/6/72 311/5/72 147/5/72 148/6/72
f 281/8/3 280/17/3 144/7/3 142/8/3
f 141/10/73 282/18/73 286/18/73 283/10/73
f 314/8/3 313/7/3 148/7/3 146/8/3
f 312/10/74 314/8/74 146/8/74 145/10/74
f 292/6/75 291/5/75 155/5/75 156/6/75
f 287/10/76 290/18/76 294/10/76 149/10/76
f 148/6/77 147/5/77 151/5/77 152/6/77
f 146/8/3 148/7/3 152/7/3 150/8/3
f 154/8/3 156/7/3 160/7/3 158/8/3
f 293/8/3 292/7/3 156/7/3 154/8/3
f 153/10/78 154/8/78 158/8/78 157/10/78
f 156/6/79 155/5/79 159/5/79 160/6/79
f 164/6/80 163/5/80 167/5/80 168/6/80
f 157/10/81 158/8/81 162/8/81 161/10/81
f 160/6/82 159/5/82 163/5/82 164/6/82
f 158/8/3 160/7/3 164/7/3 162/8/3
f 162/8/3 164/7/3 168/7/3 166/8/3
f 161/10/83 162/8/83 166/8/83 165/10/83
f 172/6/84 171/5/84 175/5/84 176/6/84
f 165/10/85 166/8/85 170/8/85 169/10/85
f 168/6/86 167/5/86 171/5/86 172/6/86
f 166/8/3 168/7/3 172/7/3 170/8/3
f 210/19/3 209/7/3 180/7/3 178/8/3
f 170/8/3 172/7/3 176/7/3 174/8/3
f 169/10/87 170/8/87 174/8/87 173/10/87
f 179/20/73 177/10/73 185/10/73 187/20/73
f 211/21/88 210/19/88 178/8/88 177/10/88
f 209/6/89 212/5/89 179/5/89 180/6/89
f 1/10/90 5/20/90 7/22/90 3/2/90
f 19/20/91 18/11/91 9/10/91 11/20/91
f 11/20/92 9/10/92 13/10/92 15/20/92
f 5/20/93 1/10/93 18/11/93 19/20/93
f 18/11/94 1/10/94 21/10/94 24/11/94
f 24/11/95 21/10/95 25/10/95 28/11/95
f 28/11/96 25/10/96 29/10/96 32/11/96
f 32/11/97 29/10/97 33/10/97 36/11/97
f 36/11/98 33/10/98 37/10/98 40/11/98
f 40/11/73 37/10/73 41/10/73 44/11/73
f 61/10/99 57/10/99 48/11/99 45/10/99
f 44/11/100 41/10/100 45/10/100 48/11/100
f 51/20/101 49/10/101 53/10/101 55/20/101
f 15/20/102 13/10/102 49/10/102 51/20/102
f 55/20/103 53/10/103 57/10/103 59/20/103
f 63/20/104 61/10/104 65/10/104 67/20/104
f 59/20/105 57/10/105 61/10/105 63/20/105
f 71/20/73 69/10/73 73/10/73 75/20/73
f 67/20/106 65/10/106 69/10/106 71/20/106
f 121/23/73 124/10/73 77/10/73 79/20/73
f 83/10/73 81/10/73 85/10/73 87/10/73
f 73/10/73 69/10/73 81/10/73 83/10/73
f 91/10/73 89/10/73 93/10/73 95/10/73
f 87/10/73 85/10/73 89/10/73 91/10/73
f 95/10/107 93/10/107 101/10/107 103/10/107
f 133/24/73 136/11/73 97/10/73 99/20/73
f 99/20/73 97/10/73 105/10/73 107/20/73
f 103/10/108 101/10/108 105/10/108 97/10/108
f 107/20/109 105/10/109 109/10/109 111/20/109
f 115/20/110 113/10/110 117/10/110 119/20/110
f 111/20/111 109/10/111 113/10/111 115/20/111
f 139/25/112 140/10/112 124/10/112 121/23/112
f 127/20/73 125/10/73 129/10/73 131/20/73
f 119/20/113 117/10/113 125/10/113 127/20/113
f 79/20/114 77/10/114 136/11/114 133/24/114
f 75/20/73 73/10/73 140/10/73 139/25/73
f 279/20/73 282/18/73 141/10/73 143/20/73
f 147/20/73 145/10/73 149/10/73 151/20/73
f 311/26/115 312/10/115 145/10/115 147/20/115
f 291/20/73 294/10/73 153/10/73 155/20/73
f 159/20/116 157/10/116 161/10/116 163/20/116
f 155/20/73 153/10/73 157/10/73 159/20/73
f 167/20/117 165/10/117 169/10/117 171/20/117
f 163/20/73 161/10/73 165/10/73 167/20/73
f 171/20/73 169/10/73 173/10/73 175/20/73
f 212/20/73 211/21/73 177/10/73 179/20/73
f 143/20/118 141/10/118 184/10/118 181/20/118
f 141/10/119 142/8/119 183/8/119 184/10/119
f 142/8/3 144/7/3 182/7/3 183/8/3
f 144/6/120 143/5/120 181/5/120 182/6/120
f 188/6/121 187/5/121 191/5/121 192/6/121
f 177/10/122 178/8/122 186/8/122 185/10/122
f 180/6/123 179/5/123 187/5/123 188/6/123
f 178/8/3 180/7/3 188/7/3 186/8/3
f 192/6/124 191/5/124 195/5/124 196/6/124
f 186/8/3 188/7/3 192/7/3 190/8/3
f 187/20/73 185/10/73 189/10/73 191/20/73
f 185/10/125 186/8/125 190/8/125 189/10/125
f 193/10/126 194/8/126 198/8/126 197/10/126
f 190/8/127 192/7/127 196/7/127 194/8/127
f 191/20/128 189/10/128 193/10/128 195/20/128
f 189/10/129 190/8/129 194/8/129 193/10/129
f 200/7/3 196/7/3 226/7/3 228/7/3
f 204/7/130 200/7/130 228/7/130 230/7/130
f 194/8/3 196/7/3 200/7/3 198/8/3
f 195/20/73 193/10/73 197/10/73 199/20/73
f 203/20/131 201/10/131 205/10/131 207/20/131
f 198/8/3 200/7/3 204/7/3 202/8/3
f 199/20/132 197/10/132 201/10/132 203/20/132
f 197/10/133 198/8/133 202/8/133 201/10/133
f 224/7/3 252/7/3 258/7/3 256/7/3
f 201/10/134 202/8/134 206/8/134 205/10/134
f 204/6/135 203/5/135 207/5/135 208/6/135
f 202/8/136 204/7/136 208/7/136 206/8/136
f 175/20/137 173/10/137 211/21/137 212/20/137
f 176/6/138 175/5/138 212/5/138 209/6/138
f 173/10/139 174/8/139 210/19/139 211/21/139
f 174/8/3 176/7/3 209/7/3 210/19/3
f 216/9/3 214/1/3 296/1/3 298/9/3
f 7/4/140 8/3/140 216/3/140 215/4/140
f 8/9/3 4/1/3 214/1/3 216/9/3
f 3/2/141 7/22/141 215/22/141 213/2/141
f 222/8/142 224/7/142 217/7/142 219/8/142
f 221/10/143 222/8/143 219/8/143 220/10/143
f 146/8/144 150/8/144 149/10/144 145/10/144
f 220/10/145 219/8/145 233/8/145 234/10/145
f 224/6/146 223/5/146 218/5/146 217/6/146
f 223/20/147 221/10/147 220/10/147 218/20/147
f 253/8/3 252/7/3 224/7/3 222/8/3
f 251/27/73 254/10/73 221/10/73 223/20/73
f 254/10/148 253/8/148 222/8/148 221/10/148
f 228/6/149 227/5/149 229/5/149 230/6/149
f 226/6/150 225/5/150 227/5/150 228/6/150
f 196/6/151 195/5/151 225/5/151 226/6/151
f 199/20/152 203/20/152 229/20/152 227/20/152
f 203/5/153 204/6/153 230/6/153 229/5/153
f 195/20/154 199/20/154 227/20/154 225/20/154
f 233/8/155 231/7/155 235/7/155 237/8/155
f 217/6/156 218/5/156 232/5/156 231/6/156
f 218/20/73 220/10/73 234/10/73 232/20/73
f 219/8/157 217/7/157 231/7/157 233/8/157
f 238/10/158 237/8/158 241/8/158 242/10/158
f 232/20/73 234/10/73 238/10/73 236/20/73
f 231/6/159 232/5/159 236/5/159 235/6/159
f 234/10/160 233/8/160 237/8/160 238/10/160
f 272/8/3 271/7/3 243/7/3 245/8/3
f 237/8/3 235/7/3 239/7/3 241/8/3
f 236/20/161 238/10/161 242/10/161 240/20/161
f 235/6/162 236/5/162 240/5/162 239/6/162
f 243/6/163 244/5/163 248/5/163 247/6/163
f 274/20/164 273/10/164 246/10/164 244/20/164
f 267/5/165 268/6/165 271/6/165 274/5/165
f 273/10/166 272/8/166 245/8/166 246/10/166
f 247/6/167 248/5/167 276/5/167 275/6/167
f 246/10/168 245/8/168 249/8/168 250/10/168
f 245/8/169 243/7/169 247/7/169 249/8/169
f 244/20/170 246/10/170 250/10/170 248/20/170
f 205/10/171 206/8/171 253/8/171 254/10/171
f 207/20/73 205/10/73 254/10/73 251/27/73
f 206/8/172 208/7/172 252/7/172 253/8/172
f 208/6/173 207/5/173 251/5/173 252/6/173
f 256/7/3 258/7/3 262/7/3 260/7/3
f 251/27/174 223/20/174 255/20/174 257/27/174
f 223/5/175 224/6/175 256/6/175 255/5/175
f 252/6/176 251/5/176 257/5/176 258/6/176
f 260/7/177 262/7/177 266/7/177 264/7/177
f 255/5/178 256/6/178 260/6/178 259/5/178
f 258/6/179 257/5/179 261/5/179 262/6/179
f 257/27/73 255/20/73 259/20/73 261/27/73
f 264/7/3 266/7/3 270/7/3 268/7/3
f 259/5/180 260/6/180 264/6/180 263/5/180
f 262/6/181 261/5/181 265/5/181 266/6/181
f 261/27/182 259/20/182 263/20/182 265/27/182
f 269/27/183 267/20/183 274/20/183 244/20/183
f 263/5/184 264/6/184 268/6/184 267/5/184
f 266/6/185 265/5/185 269/5/185 270/6/185
f 265/27/186 263/20/186 267/20/186 269/27/186
f 242/10/187 241/8/187 272/8/187 273/10/187
f 239/6/188 240/5/188 274/5/188 271/6/188
f 240/20/73 242/10/73 273/10/73 274/20/73
f 241/8/3 239/7/3 271/7/3 272/8/3
f 268/7/3 270/7/3 243/7/3 271/7/3
f 270/6/189 269/5/189 244/5/189 243/6/189
f 275/6/190 276/5/190 304/5/190 303/6/190
f 250/10/191 249/8/191 277/8/191 278/10/191
f 249/8/3 247/7/3 275/7/3 277/8/3
f 248/20/192 250/10/192 278/10/192 276/20/192
f 131/20/73 129/10/73 282/18/73 279/20/73
f 129/10/193 130/8/193 281/8/193 282/18/193
f 130/8/3 132/7/3 280/17/3 281/8/3
f 132/6/65 131/5/65 279/16/65 280/6/65
f 286/18/194 285/8/194 289/8/194 290/18/194
f 282/18/195 281/8/195 285/8/195 286/18/195
f 142/8/196 141/10/196 283/10/196 284/8/196
f 281/8/3 142/8/3 284/8/3 285/8/3
f 288/8/197 287/10/197 149/10/197 150/8/197
f 283/10/198 286/18/198 290/18/198 287/10/198
f 285/8/3 284/8/3 288/8/3 289/8/3
f 284/8/199 283/10/199 287/10/199 288/8/199
f 151/20/73 149/10/73 294/10/73 291/20/73
f 150/8/3 152/7/3 292/7/3 293/8/3
f 154/8/200 153/10/200 294/10/200 293/8/200
f 152/6/201 151/5/201 291/5/201 292/6/201
f 290/18/202 289/8/202 293/8/202 294/10/202
f 289/8/3 288/8/3 150/8/3 293/8/3
f 295/2/73 297/22/73 301/22/73 299/2/73
f 214/1/203 213/2/203 295/2/203 296/1/203
f 213/2/204 215/22/204 297/22/204 295/2/204
f 215/4/205 216/3/205 298/3/205 297/4/205
f 300/1/206 299/2/206 301/28/206 302/29/206
f 297/4/207 298/3/207 302/3/207 301/4/207
f 298/9/3 296/1/3 300/1/3 302/9/3
f 296/1/208 295/2/208 299/2/208 300/1/208
f 305/8/209 303/7/209 307/7/209 309/8/209
f 278/10/210 277/8/210 305/8/210 306/10/210
f 277/8/211 275/7/211 303/7/211 305/8/211
f 276/20/212 278/10/212 306/10/212 304/20/212
f 309/8/213 307/7/213 315/7/213 317/8/213
f 304/20/214 306/10/214 310/10/214 308/20/214
f 303/6/215 304/5/215 308/5/215 307/6/215
f 306/10/216 305/8/216 309/8/216 310/10/216
f 181/20/217 184/10/217 312/10/217 311/26/217
f 184/10/74 183/8/74 314/8/74 312/10/74
f 183/8/3 182/7/3 313/7/3 314/8/3
f 182/6/72 181/5/72 311/5/72 313/6/72
f 318/10/218 317/8/218 321/8/218 322/10/218
f 308/20/219 310/10/219 318/10/219 316/20/219
f 307/6/220 308/5/220 316/5/220 315/6/220
f 310/10/221 309/8/221 317/8/221 318/10/221
f 319/6/222 320/5/222 324/5/222 323/6/222
f 317/8/223 315/7/223 319/7/223 321/8/223
f 316/20/224 318/10/224 322/10/224 320/20/224
f 315/6/225 316/5/225 320/5/225 319/6/225
f 323/6/226 324/5/226 326/10/226 325/8/226
f 322/10/227 321/8/227 325/8/227 326/10/227
f 321/8/3 319/7/3 323/7/3 325/8/3
f 320/20/73 322/10/73 326/10/73 324/20/73
