# This file uses centimeters as units for non-parametric coordinates.

mtllib FlagPost_LOW.mtl
g default
v -0.510538 10.909524 3.172431
v -0.528265 11.809038 3.172266
v -0.413744 12.708553 3.172101
v -0.316973 13.608068 3.171936
v -0.355845 14.507583 3.171771
v -0.245355 15.407097 3.171606
v -0.540251 10.803581 2.272727
v -0.528388 11.703095 2.272562
v -0.417915 12.602611 2.272397
v -0.278064 13.502125 2.272232
v -0.286886 14.401640 2.272067
v -0.151106 15.289413 2.271902
v -0.387928 10.803307 1.373024
v -0.356730 11.702822 1.372858
v -0.272347 12.602336 1.372693
v -0.205230 13.501851 1.372529
v -0.266250 14.401365 1.372363
v -0.156870 15.248046 1.372198
v -0.291716 10.955665 0.473320
v -0.271387 11.855179 0.473155
v -0.251807 12.754694 0.472990
v -0.242015 13.654208 0.472825
v -0.318970 14.553722 0.472660
v -0.229025 15.335829 0.472495
v -0.174583 15.538850 1.275124
v -0.057144 15.538850 1.275124
v -0.174583 15.692364 1.088276
v -0.057144 15.692364 1.088276
v -0.080300 14.344317 -0.078850
v 0.072747 14.344317 -0.078850
v -0.077107 14.037206 -0.078850
v 0.075940 14.037206 -0.078850
v -0.082609 14.979284 0.409864
v -0.080920 14.744521 0.497875
v 0.055355 14.744521 0.497875
v 0.053666 14.979284 0.409864
v -0.301120 15.508104 3.261712
v -0.148073 15.508104 3.261712
v -0.301120 15.730167 3.261712
v -0.148073 15.730167 3.261712
v -0.301120 15.631028 -0.730881
v -0.148073 15.631028 -0.730881
v -0.301120 15.408965 -0.730881
v -0.148073 15.408965 -0.730881
v -0.301120 15.584657 0.592200
v -0.301120 15.362594 0.592200
v -0.148073 15.362594 0.592200
v -0.148073 15.584657 0.592200
v -0.301120 15.630867 2.105667
v -0.301120 15.408803 2.105667
v -0.148073 15.408803 2.105667
v -0.148073 15.630867 2.105667
v -0.136141 -0.512091 0.229535
v 0.147625 -0.512091 0.260518
v -0.154732 16.217857 0.101870
v 0.129034 16.217857 0.132854
v -0.172933 16.166918 -0.417510
v 0.051677 16.166918 -0.414203
v -0.154342 -0.512091 -0.229535
v 0.070268 -0.512091 -0.226228
v 0.180582 7.968994 0.111887
v -0.103184 7.968994 0.080904
v -0.121385 7.968994 -0.378166
v 0.103225 7.968994 -0.374859
v 0.105300 10.649066 0.078527
v -0.178466 10.649066 0.047543
v -0.196667 10.649066 -0.411526
v 0.027943 10.649066 -0.408220
v 0.092689 13.205202 0.026068
v -0.191077 13.205202 -0.004915
v -0.209278 13.205202 -0.463985
v 0.015332 13.205202 -0.460679
v 0.171604 5.257940 0.260518
v -0.112162 5.257940 0.229535
v -0.130363 5.257940 -0.229535
v 0.094247 5.257940 -0.226228
v 0.245704 2.655327 0.310815
v -0.038062 2.655327 0.279832
v -0.056263 2.655327 -0.179238
v 0.168347 2.655327 -0.175931
v 0.242125 1.690350 -0.014805
v 0.121247 -0.410136 -1.450598
v 0.242125 2.212512 -0.014805
v 0.121247 0.199476 -1.589923
v -0.095379 2.212512 -0.005478
v -0.216257 0.199476 -1.580596
v -0.095379 1.690350 -0.005478
v -0.216257 -0.410136 -1.441271
v 0.243931 1.282327 -0.738236
v -0.093574 1.282327 -0.728909
v -0.168058 0.676976 -0.758960
v 0.169447 0.676976 -0.768287
v -0.101629 1.310337 0.065102
v -0.224448 -0.351029 1.549225
v -0.101629 1.832500 0.065102
v -0.224448 0.112026 1.680106
v 0.248236 1.832500 0.075382
v 0.125417 0.112026 1.690386
v 0.248236 1.310337 0.075382
v 0.125417 -0.351029 1.559505
v 0.122751 0.813067 0.890820
v 0.122751 0.290904 0.890820
v -0.227114 0.290904 0.880541
v -0.227114 0.813067 0.880541
v -0.044184 1.260204 -0.088320
v -1.828466 -0.298466 -0.039989
v -0.044184 1.959499 -0.088320
v -1.982494 0.112026 -0.039989
v -0.032078 1.959499 0.154359
v -1.970388 0.112026 0.202690
v -0.032078 1.260204 0.154359
v -1.816360 -0.298466 0.202690
v -1.413989 0.690017 0.160156
v -1.413989 0.152452 0.160156
v -1.426095 0.152452 -0.082523
v -1.426095 0.690017 -0.082523
v -0.774117 1.121671 0.203740
v -0.848601 0.599508 0.173688
v -0.860707 0.599508 -0.068990
v -0.786223 1.121671 -0.038939
v 0.125245 1.221996 0.159329
v 1.686706 -0.410136 -0.050242
v 0.125245 1.744159 0.159329
v 1.829182 0.112026 -0.050242
v 0.103659 1.744159 -0.037375
v 1.807596 0.112026 -0.246946
v 0.103659 1.221996 -0.037375
v 1.665120 -0.410136 -0.246946
v 0.800244 1.168616 0.013162
v 0.778658 1.168616 -0.183543
v 0.704174 0.646453 -0.213594
v 0.725760 0.646453 -0.016889
v -0.222468 -0.512095 0.166041
v 0.210635 -0.512095 0.180817
v -0.215798 7.099296 0.015676
v 0.247907 7.099296 0.031496
v -0.203964 7.099296 -0.331182
v 0.259740 7.099296 -0.315362
v -0.210635 -0.512095 -0.180817
v 0.222468 -0.512095 -0.166041
v -0.208041 7.217960 -0.211686
v -0.214712 -0.512095 -0.061321
v 0.218392 -0.512095 -0.046545
v 0.255663 7.217960 -0.195867
v -0.211059 7.217960 -0.123212
v -0.217730 -0.512095 0.027153
v 0.215373 -0.512095 0.041929
v 0.252645 7.217960 -0.107392
v 0.244018 5.164984 0.181206
v -0.211909 5.164984 0.165652
v -0.207171 5.253492 0.026764
v -0.204153 5.253492 -0.061710
v -0.200076 5.164984 -0.181206
v 0.255852 5.164984 -0.165652
v 0.251775 5.253492 -0.046156
v 0.248757 5.253492 0.042318
v 0.280582 2.534124 0.243152
v -0.164769 2.534124 0.227958
v -0.160030 2.581615 0.089070
v -0.157012 2.581615 0.000596
v -0.152935 2.534124 -0.118900
v 0.292415 2.534124 -0.103707
v 0.288338 2.581615 0.015789
v 0.285320 2.581615 0.104264
vt 0.000000 1.000000
vt 0.000000 0.800000
vt 0.000000 0.600000
vt 0.000000 0.400000
vt 0.000000 0.200000
vt 0.000000 0.000000
vt 0.200000 1.000000
vt 0.200000 0.800000
vt 0.200000 0.600000
vt 0.200000 0.400000
vt 0.200000 0.200000
vt 0.200000 0.000000
vt 0.400000 1.000000
vt 0.400000 0.800000
vt 0.400000 0.600000
vt 0.400000 0.400000
vt 0.400000 0.200000
vt 0.400000 0.000000
vt 0.600000 1.000000
vt 0.600000 0.800000
vt 0.600000 0.600000
vt 0.600000 0.400000
vt 0.600000 0.200000
vt 0.600000 0.000000
vt 0.895062 0.228589
vt 0.900779 0.229125
vt 0.899683 0.240887
vt 0.893945 0.240361
vt 0.900472 0.289004
vt 0.893892 0.288639
vt 0.893524 0.327498
vt 0.901076 0.327587
vt 0.901032 0.342596
vt 0.893545 0.342511
vt 0.883157 0.294519
vt 0.876511 0.294959
vt 0.876405 0.240115
vt 0.882100 0.239534
vt 0.911553 0.239836
vt 0.911239 0.294704
vt 0.884348 0.339320
vt 0.876869 0.339533
vt 0.910348 0.339349
vt 0.908329 0.012711
vt 0.915366 0.012753
vt 0.915299 0.022970
vt 0.908274 0.022926
vt 0.914995 0.076470
vt 0.907947 0.076430
vt 0.907144 0.207425
vt 0.914168 0.207472
vt 0.914106 0.217688
vt 0.907068 0.217641
vt 0.897749 0.076935
vt 0.890708 0.076884
vt 0.891078 0.023665
vt 0.898119 0.023722
vt 0.925445 0.023892
vt 0.925187 0.077095
vt 0.896964 0.207018
vt 0.897291 0.146296
vt 0.907527 0.146368
vt 0.889923 0.206986
vt 0.890250 0.146255
vt 0.914579 0.146410
vt 0.924814 0.146467
vt 0.924352 0.207192
vt 0.727075 0.029253
vt 0.743131 0.029878
vt 0.741829 0.207716
vt 0.725773 0.207544
vt 0.690415 0.996917
vt 0.674410 0.998290
vt 0.679463 0.967480
vt 0.692103 0.967581
vt 0.699873 0.207377
vt 0.687225 0.207335
vt 0.688629 0.028919
vt 0.701256 0.028626
vt 0.683249 0.001710
vt 0.699270 0.002853
vt 0.770864 0.029517
vt 0.769570 0.207930
vt 0.723533 0.506508
vt 0.739643 0.506373
vt 0.738504 0.657426
vt 0.722492 0.657609
vt 0.697640 0.507179
vt 0.696693 0.657873
vt 0.684065 0.657570
vt 0.684996 0.506922
vt 0.767370 0.507535
vt 0.766186 0.658140
vt 0.737625 0.801779
vt 0.721516 0.801633
vt 0.695615 0.801286
vt 0.682972 0.801150
vt 0.765422 0.801635
vt 0.737188 0.971804
vt 0.721165 0.971518
vt 0.768090 0.967890
vt 0.724701 0.353731
vt 0.740724 0.353595
vt 0.698947 0.354502
vt 0.686323 0.354240
vt 0.768382 0.354867
vt 0.977046 0.573403
vt 0.979917 0.653976
vt 0.957181 0.622415
vt 0.956116 0.547516
vt 0.935561 0.623235
vt 0.934583 0.547499
vt 0.913134 0.655434
vt 0.914559 0.574259
vt 0.891582 0.653569
vt 0.893018 0.572943
vt 0.960383 0.750259
vt 0.938863 0.751881
vt 0.936120 0.711979
vt 0.957601 0.710388
vt 0.934646 0.514097
vt 0.956223 0.514147
vt 0.905487 0.737487
vt 0.884119 0.735059
vt 0.988761 0.735409
vt 0.973783 0.827904
vt 0.982405 0.913253
vt 0.956269 0.889826
vt 0.950659 0.802573
vt 0.932009 0.890481
vt 0.927645 0.801968
vt 0.908332 0.917082
vt 0.907713 0.829967
vt 0.884764 0.918285
vt 0.884423 0.831800
vt 0.962630 0.993557
vt 0.939329 0.995549
vt 0.936768 0.963319
vt 0.959430 0.961529
vt 0.928264 0.767025
vt 0.951683 0.767526
vt 0.909401 0.979399
vt 0.886204 0.979675
vt 0.989053 0.974228
vt 0.887765 0.369485
vt 0.881640 0.437731
vt 0.856835 0.410861
vt 0.858410 0.334151
vt 0.839538 0.410029
vt 0.842307 0.333850
vt 0.814126 0.436492
vt 0.810768 0.367005
vt 0.797766 0.437573
vt 0.794384 0.368038
vt 0.854351 0.545488
vt 0.837930 0.545374
vt 0.838617 0.515663
vt 0.855212 0.515953
vt 0.843032 0.286605
vt 0.859447 0.286877
vt 0.840030 0.462379
vt 0.812268 0.528017
vt 0.813360 0.486487
vt 0.796813 0.486473
vt 0.796080 0.527131
vt 0.855531 0.463186
vt 0.881173 0.487815
vt 0.881958 0.528897
vt 0.778597 0.267871
vt 0.780214 0.205253
vt 0.809724 0.229075
vt 0.806820 0.293761
vt 0.823844 0.229467
vt 0.821230 0.293358
vt 0.854862 0.208289
vt 0.851897 0.270139
vt 0.869023 0.209612
vt 0.866003 0.272493
vt 0.817765 0.083997
vt 0.832027 0.084990
vt 0.828222 0.123891
vt 0.813892 0.122904
vt 0.822241 0.331059
vt 0.807948 0.331457
vt 0.863010 0.105715
vt 0.877300 0.106226
vt 0.781015 0.101777
vt 0.805089 0.553828
vt 0.828874 0.554293
vt 0.829355 0.720935
vt 0.804953 0.720864
vt 0.804673 0.970828
vt 0.830222 0.970754
vt 0.830200 0.980783
vt 0.804722 0.980832
vt 0.872746 0.720718
vt 0.848336 0.720903
vt 0.847935 0.553885
vt 0.871683 0.553291
vt 0.805247 0.546212
vt 0.829013 0.546678
vt 0.836512 0.554126
vt 0.836963 0.723519
vt 0.797462 0.553680
vt 0.797337 0.723470
vt 0.786055 0.553461
vt 0.792608 0.553589
vt 0.792486 0.723476
vt 0.785938 0.720868
vt 0.805475 0.534807
vt 0.829233 0.535274
vt 0.829105 0.541826
vt 0.805345 0.541360
vt 0.841805 0.723516
vt 0.841373 0.554024
vt 0.804738 0.985682
vt 0.830199 0.985638
vt 0.830207 0.994873
vt 0.804756 0.994914
vt 0.804824 0.864882
vt 0.829765 0.864595
vt 0.797457 0.870065
vt 0.797556 0.977875
vt 0.792618 0.870286
vt 0.792707 0.978235
vt 0.785858 0.865722
vt 0.785660 0.972232
vt 0.874675 0.971938
vt 0.849231 0.972093
vt 0.848761 0.865411
vt 0.873772 0.865503
vt 0.842203 0.978130
vt 0.842002 0.869985
vt 0.837356 0.977785
vt 0.837156 0.869771
vn -0.999851 -0.003256 0.016963
vn -0.997850 0.065523 0.001222
vn -0.994398 0.060589 -0.086607
vn -0.996323 0.010801 -0.084990
vn -0.990635 0.053528 -0.125605
vn -0.989937 0.025860 -0.139127
vn -0.996564 0.044619 -0.069782
vn -0.995015 0.028481 -0.095571
vn -0.993211 0.080810 -0.083671
vn -0.998696 0.049397 -0.012880
vn -0.999439 0.013716 -0.030559
vn -0.999346 -0.023370 0.027594
vn -0.999510 0.028833 0.012180
vn -0.997641 0.028430 0.062484
vn -0.990757 0.130831 0.035827
vn -0.989019 0.121049 0.084790
vn -0.997186 0.049421 -0.056377
vn -0.988509 0.137840 -0.062053
vn -0.994629 0.060972 -0.083634
vn -0.985039 0.135709 -0.106210
vn -0.996676 0.048095 -0.065757
vn -0.997829 0.046619 -0.046512
vn -0.989301 0.118553 -0.085018
vn -0.991550 0.127446 -0.024194
vn -0.874562 -0.317517 0.366502
vn 0.822139 -0.241239 0.515647
vn 0.873628 0.446251 -0.193994
vn -0.901225 0.312803 -0.299914
vn 0.882245 0.358506 -0.305149
vn -0.859750 0.288889 -0.421157
vn -0.873160 0.217579 -0.436178
vn 0.876974 0.232898 -0.420328
vn 0.609100 -0.653905 0.448782
vn -0.599896 -0.667719 0.440767
vn -0.825639 -0.400881 0.397007
vn 0.832732 -0.330580 0.444156
vn -0.827567 -0.540858 0.150351
vn 0.827567 -0.540858 0.150351
vn 0.806507 0.587918 0.062432
vn -0.806507 0.587918 0.062432
vn 0.826298 0.562398 -0.030655
vn -0.826298 0.562398 -0.030655
vn -0.814954 0.574483 -0.076286
vn 0.814954 0.574483 -0.076286
vn 0.823887 -0.555439 -0.112691
vn -0.823886 -0.555439 -0.112691
vn -0.819602 -0.572084 0.031183
vn 0.819602 -0.572084 0.031183
vn -0.817760 -0.575559 -0.000033
vn -0.828780 0.559575 0.000032
vn 0.817760 -0.575559 -0.000033
vn 0.828780 0.559575 0.000032
vn -0.856549 -0.053099 0.513327
vn 0.905050 -0.095991 0.414332
vn 0.912319 -0.003811 0.409464
vn -0.844711 0.003530 0.535211
vn -0.843979 0.078279 0.530634
vn 0.903449 0.049637 0.425812
vn 0.872062 0.075888 -0.483476
vn -0.923541 0.094136 -0.371768
vn -0.909699 0.003759 -0.415252
vn 0.856969 -0.003545 -0.515355
vn 0.842114 -0.090447 -0.531660
vn -0.911782 -0.038868 -0.408830
vn -0.852297 0.007343 0.523007
vn 0.915103 0.024561 0.402472
vn 0.908819 0.022191 0.416600
vn -0.852427 -0.005812 0.522813
vn -0.906665 -0.025618 -0.421073
vn -0.912339 -0.021918 -0.408849
vn 0.850219 0.005538 -0.526400
vn 0.850960 -0.006968 -0.525185
vn 0.917367 -0.008936 0.397943
vn -0.862999 -0.000784 0.505206
vn -0.915796 0.003537 -0.401629
vn 0.856569 -0.003723 -0.516018
vn -0.850745 0.009030 0.525501
vn 0.906347 0.027226 0.421657
vn -0.914153 -0.026054 -0.404531
vn 0.851361 -0.009528 -0.524493
vn 0.731393 -0.326006 0.598987
vn 0.761469 -0.402794 0.507861
vn 0.726503 0.402332 -0.557066
vn 0.519817 0.741837 -0.423637
vn -0.678256 0.472243 -0.562988
vn -0.512777 0.749862 -0.418051
vn -0.772217 -0.318784 0.549598
vn -0.752385 -0.263384 0.603776
vn 0.620217 -0.691137 0.371027
vn -0.647093 -0.644956 0.406574
vn -0.784876 0.282273 -0.551626
vn 0.755168 0.213025 -0.619953
vn -0.668035 -0.308685 -0.677084
vn -0.706313 -0.460802 -0.537385
vn -0.779114 0.472067 0.412474
vn -0.485611 0.768338 0.416939
vn 0.681858 0.459177 0.569408
vn 0.479418 0.726314 0.492572
vn 0.714692 -0.477476 -0.511109
vn 0.806751 -0.322061 -0.495408
vn -0.690053 -0.704899 -0.164146
vn 0.705069 -0.693384 -0.148653
vn 0.739973 0.334706 0.583448
vn -0.744714 0.332681 0.578553
vn 0.385975 -0.246155 -0.889062
vn 0.333614 -0.397460 -0.854826
vn -0.358201 0.365907 -0.858956
vn -0.167754 0.660482 -0.731862
vn -0.256340 0.303967 0.917548
vn -0.073585 0.642619 0.762645
vn 0.338832 -0.441796 0.830668
vn 0.492392 -0.282185 0.823360
vn -0.011580 -0.603760 -0.797082
vn 0.098239 -0.574651 0.812481
vn -0.501478 0.235758 0.832429
vn -0.612024 0.220553 -0.759462
vn -0.374333 0.428687 0.822254
vn 0.373961 -0.361414 0.854127
vn 0.279595 -0.344444 -0.896206
vn -0.360195 0.442236 -0.821394
vn -0.167432 -0.236841 0.957013
vn -0.221862 -0.292537 0.930161
vn 0.449110 0.325024 0.832262
vn 0.198857 0.510562 0.836530
vn 0.207490 0.369931 -0.905593
vn -0.102720 0.601723 -0.792072
vn -0.308323 -0.217553 -0.926071
vn -0.551262 -0.178564 -0.815000
vn -0.188074 -0.467332 0.863846
vn -0.259181 -0.455784 -0.851520
vn 0.317926 0.215856 -0.923217
vn 0.357294 0.163401 0.919588
vn -0.342902 -0.055788 0.937713
vn 0.270926 -0.067987 0.960196
vn 0.271078 -0.002542 0.962554
vn -0.329502 0.002113 0.944152
vn -0.404870 0.128181 0.905345
vn 0.340579 0.129913 0.931197
vn 0.927301 0.317987 0.197478
vn -0.940280 0.313569 0.132469
vn -0.233588 0.001275 -0.972335
vn 0.305325 -0.003232 -0.952243
vn 0.289807 -0.023912 -0.956786
vn -0.230132 -0.013670 -0.973063
vn -0.992193 -0.120572 -0.031860
vn 0.986294 -0.162008 0.031266
vn 0.999363 -0.003391 0.035521
vn -0.999338 -0.000600 -0.036383
vn -0.992067 -0.120425 -0.036073
vn -0.999503 -0.000797 -0.031526
vn 0.986117 -0.162030 0.036311
vn 0.999468 -0.003167 0.032454
vn -0.933720 0.295915 -0.201497
vn 0.943711 0.300165 -0.138965
vn 0.387495 -0.013086 -0.921779
vn -0.325272 -0.014668 -0.945507
vn -0.333801 0.039770 0.941804
vn 0.264629 0.047424 0.963183
vn -0.999232 -0.011295 -0.037521
vn -0.999474 -0.010729 -0.030613
vn -0.249396 -0.048854 -0.967169
vn 0.310996 -0.041289 -0.949514
vn 0.999457 0.006851 0.032229
vn 0.999328 0.007218 0.035927
s 1
g FlagPost_LOW
usemtl lambert1SG
f 1/1/1 2/2/2 8/8/3 7/7/4
f 8/8/3 14/14/5 13/13/6 7/7/4
f 13/13/6 14/14/5 20/20/7 19/19/8
f 20/20/7 14/14/5 15/15/9 21/21/10
f 15/15/9 16/16/11 22/22/12 21/21/10
f 22/22/12 16/16/11 17/17/13 23/23/14
f 17/17/13 18/18/15 24/24/16 23/23/14
f 17/17/13 11/11/17 12/12/18 18/18/15
f 12/12/18 11/11/17 5/5/19 6/6/20
f 5/5/19 11/11/17 10/10/21 4/4/22
f 10/10/21 9/9/23 3/3/24 4/4/22
f 3/3/24 9/9/23 8/8/3 2/2/2
f 8/8/3 9/9/23 15/15/9 14/14/5
f 15/15/9 9/9/23 10/10/21 16/16/11
f 10/10/21 11/11/17 17/17/13 16/16/11
s 2
f 25/25/25 26/26/26 28/27/27 27/28/28
f 27/28/28 28/27/27 36/29/29 33/30/30
f 29/31/31 30/32/32 32/33/33 31/34/34
f 34/35/35 35/36/36 26/37/26 25/38/25
f 26/39/26 35/40/36 36/29/29 28/27/27
f 34/35/35 25/38/25 27/28/28 33/30/30
f 31/41/34 34/35/35 33/30/30 29/31/31
f 31/41/34 32/42/33 35/36/36 34/35/35
f 36/29/29 35/40/36 32/43/33 30/32/32
f 33/30/30 36/29/29 30/32/32 29/31/31
s 3
f 37/44/37 38/45/38 40/46/39 39/47/40
f 39/47/40 40/46/39 52/48/41 49/49/42
f 41/50/43 42/51/44 44/52/45 43/53/46
f 50/54/47 51/55/48 38/56/38 37/57/37
f 38/58/38 51/59/48 52/48/41 40/46/39
f 50/54/47 37/57/37 39/47/40 49/49/42
f 43/60/46 46/61/49 45/62/50 41/50/43
f 43/60/46 44/63/45 47/64/51 46/61/49
f 48/65/52 47/66/51 44/67/45 42/51/44
f 45/62/50 48/65/52 42/51/44 41/50/43
f 46/61/49 50/54/47 49/49/42 45/62/50
f 46/61/49 47/64/51 51/55/48 50/54/47
f 52/48/41 51/59/48 47/66/51 48/65/52
f 49/49/42 52/48/41 48/65/52 45/62/50
s 5
f 53/68/53 54/69/54 77/70/55 78/71/56
f 55/72/57 56/73/58 58/74/59 57/75/60
f 79/76/61 80/77/62 60/78/63 59/79/64
f 59/79/64 60/78/63 54/80/54 53/81/53
f 54/69/54 60/82/63 80/83/62 77/70/55
f 59/79/64 53/68/53 78/71/56 79/76/61
f 62/84/65 61/85/66 65/86/67 66/87/68
f 63/88/69 62/84/65 66/87/68 67/89/70
f 67/89/70 68/90/71 64/91/72 63/88/69
f 61/85/66 64/92/72 68/93/71 65/86/67
f 66/87/68 65/86/67 69/94/73 70/95/74
f 67/89/70 66/87/68 70/95/74 71/96/75
f 71/96/75 72/97/76 68/90/71 67/89/70
f 65/86/67 68/93/71 72/98/76 69/94/73
f 70/95/74 69/94/73 56/99/58 55/100/57
f 71/96/75 70/95/74 55/100/57 57/75/60
f 57/75/60 58/74/59 72/97/76 71/96/75
f 69/94/73 72/98/76 58/101/59 56/99/58
f 74/102/77 73/103/78 61/85/66 62/84/65
f 75/104/79 74/102/77 62/84/65 63/88/69
f 63/88/69 64/91/72 76/105/80 75/104/79
f 73/103/78 76/106/80 64/92/72 61/85/66
f 78/71/56 77/70/55 73/103/78 74/102/77
f 79/76/61 78/71/56 74/102/77 75/104/79
f 75/104/79 76/105/80 80/77/62 79/76/61
f 77/70/55 80/83/62 76/106/80 73/103/78
s 9
f 81/107/81 92/108/82 89/109/83 83/110/84
f 83/110/84 89/109/83 90/111/85 85/112/86
f 85/112/86 90/111/85 91/113/87 87/114/88
f 87/114/88 91/113/87 92/115/82 81/116/81
f 82/117/89 88/118/90 86/119/91 84/120/92
f 87/121/88 81/122/81 83/110/84 85/112/86
f 89/109/83 84/120/92 86/119/91 90/111/85
f 91/113/87 90/111/85 86/119/91 88/123/90
f 92/115/82 91/113/87 88/123/90 82/124/89
f 89/109/83 92/108/82 82/125/89 84/120/92
s 10
f 93/126/93 103/127/94 104/128/95 95/129/96
f 95/129/96 104/128/95 101/130/97 97/131/98
f 97/131/98 101/130/97 102/132/99 99/133/100
f 99/133/100 102/132/99 103/134/94 93/135/93
f 94/136/101 100/137/102 98/138/103 96/139/104
f 99/140/100 93/141/93 95/129/96 97/131/98
f 101/130/97 98/138/103 100/142/102 102/132/99
f 103/134/94 102/132/99 100/142/102 94/143/101
f 104/128/95 103/127/94 94/144/101 96/139/104
f 101/130/97 104/128/95 96/139/104 98/138/103
s 11
f 105/145/105 119/146/106 120/147/107 107/148/108
f 107/148/108 120/147/107 117/149/109 109/150/110
f 109/150/110 117/149/109 118/151/111 111/152/112
f 111/152/112 118/151/111 119/153/106 105/154/105
f 106/155/113 112/156/114 110/157/115 108/158/116
f 111/159/112 105/160/105 107/148/108 109/150/110
f 113/161/117 110/157/115 112/162/114 114/163/118
f 115/164/119 114/163/118 112/162/114 106/165/113
f 116/166/120 115/167/119 106/168/113 108/158/116
f 113/161/117 116/166/120 108/158/116 110/157/115
f 117/149/109 113/161/117 114/163/118 118/151/111
f 119/153/106 118/151/111 114/163/118 115/164/119
f 120/147/107 119/146/106 115/167/119 116/166/120
f 117/149/109 120/147/107 116/166/120 113/161/117
s 13
f 121/169/121 132/170/122 129/171/123 123/172/124
f 123/172/124 129/171/123 130/173/125 125/174/126
f 125/174/126 130/173/125 131/175/127 127/176/128
f 127/176/128 131/175/127 132/177/122 121/178/121
f 122/179/129 128/180/130 126/181/131 124/182/132
f 127/183/128 121/184/121 123/172/124 125/174/126
f 129/171/123 124/182/132 126/181/131 130/173/125
f 131/175/127 130/173/125 126/181/131 128/185/130
f 132/177/122 131/175/127 128/185/130 122/186/129
f 129/171/123 132/170/122 122/187/129 124/182/132
s 14
f 133/188/133 134/189/134 157/190/135 158/191/136
f 135/192/137 136/193/138 148/194/139 145/195/140
f 161/196/141 162/197/142 140/198/143 139/199/144
f 146/200/145 147/201/146 134/189/134 133/188/133
f 134/189/134 147/202/146 164/203/147 157/190/135
f 146/204/145 133/188/133 158/191/136 159/205/148
f 139/206/144 142/207/149 160/208/150 161/209/141
f 139/210/144 140/211/143 143/212/151 142/213/149
f 163/214/152 143/215/151 140/198/143 162/197/142
f 141/216/153 144/217/154 138/218/155 137/219/156
f 142/207/149 146/204/145 159/205/148 160/208/150
f 142/213/149 143/212/151 147/201/146 146/200/145
f 164/203/147 147/202/146 143/215/151 163/214/152
f 145/195/140 148/194/139 144/217/154 141/216/153
f 150/220/157 149/221/158 136/193/138 135/192/137
f 151/222/159 150/220/157 135/192/137 145/223/140
f 152/224/160 151/222/159 145/223/140 141/225/153
f 153/226/161 152/224/160 141/225/153 137/227/156
f 137/228/156 138/229/155 154/230/162 153/231/161
f 144/232/154 155/233/163 154/230/162 138/229/155
f 148/234/139 156/235/164 155/233/163 144/232/154
f 149/221/158 156/235/164 148/234/139 136/193/138
f 158/191/136 157/190/135 149/221/158 150/220/157
f 159/205/148 158/191/136 150/220/157 151/222/159
f 160/208/150 159/205/148 151/222/159 152/224/160
f 161/209/141 160/208/150 152/224/160 153/226/161
f 153/231/161 154/230/162 162/197/142 161/196/141
f 155/233/163 163/214/152 162/197/142 154/230/162
f 156/235/164 164/203/147 163/214/152 155/233/163
f 157/190/135 164/203/147 156/235/164 149/221/158
