# This file uses centimeters as units for non-parametric coordinates.

g default
v -0.320785 0.680335 0.181204
v -0.130717 0.675872 0.275283
v -0.115637 0.674184 0.015877
v -0.409800 0.677689 -0.014150
v 0.156792 0.640825 0.023011
v 0.044590 0.654880 0.214659
v -0.328728 0.674018 -0.209025
v -0.150556 0.676954 -0.274992
v 0.071318 0.673375 -0.216633
v -0.400564 0.670802 -0.137059
v -0.130788 0.700059 -0.145514
v 0.141088 0.662012 -0.109140
v 0.120512 0.639716 0.124968
v -0.120256 0.683418 0.129593
v -0.380440 0.683129 0.089148
v -0.028434 0.679910 -0.258338
v 0.002696 0.696352 -0.137383
v 0.017986 0.687451 0.021880
v 0.003714 0.684998 0.127464
v -0.038758 0.673325 0.256362
v -0.232468 0.683189 0.240855
v -0.249180 0.686731 0.110534
v -0.257782 0.677967 0.005914
v -0.260078 0.690176 -0.136638
v -0.252162 0.679078 -0.249509
v 0.062295 0.639404 0.233925
v -0.028256 0.663427 0.285446
v -0.134732 0.662471 0.305173
v -0.232509 0.638996 0.270547
v -0.330583 0.613786 0.202486
v -0.405590 0.641249 0.103171
v -0.439785 0.668371 -0.017780
v -0.423162 0.657741 -0.137958
v -0.332922 0.641209 -0.213257
v -0.255214 0.645994 -0.264616
v -0.153756 0.659487 -0.299302
v -0.022935 0.662492 -0.294389
v 0.074579 0.659519 -0.251614
v 0.146028 0.623920 -0.110817
v 0.157173 0.604859 0.026116
v 0.126492 0.606278 0.128705
v 0.089328 0.608074 0.268908
v -0.030137 0.627790 0.316057
v -0.126722 0.624661 0.328825
v -0.215858 0.596733 0.318160
v -0.315810 0.568225 0.260994
v -0.455946 0.602365 0.127250
v -0.483348 0.630564 0.014054
v -0.465932 0.629133 -0.133211
v -0.381666 0.610911 -0.233938
v -0.267902 0.618420 -0.297607
v -0.155040 0.639629 -0.327164
v -0.019480 0.635266 -0.322890
v 0.095232 0.632578 -0.280032
v 0.194857 0.592058 -0.135885
v 0.191113 0.578543 0.132323
v 0.217515 0.566761 0.034874
v 0.192976 0.527211 0.132868
v 0.254041 0.503949 0.043378
v 0.199179 0.559799 -0.142168
v 0.098671 0.607788 -0.277070
v -0.025508 0.605760 -0.308392
v -0.150475 0.599128 -0.303149
v -0.270977 0.574746 -0.298698
v -0.386975 0.577282 -0.236824
v -0.414061 0.582165 -0.123170
v -0.435005 0.587022 0.022771
v -0.442296 0.570905 0.129298
v -0.307533 0.533351 0.251605
v -0.194462 0.563205 0.309444
v -0.113030 0.595415 0.319168
v -0.026463 0.604802 0.305862
v 0.097896 0.573556 0.240950
v 0.066515 0.553214 -0.208854
v 0.109679 0.519433 -0.116526
v 0.125043 0.476367 0.028251
v 0.105656 0.500106 0.113617
v 0.064289 0.541499 0.187142
v -0.021711 0.552577 0.217046
v -0.114818 0.552052 0.231925
v -0.204955 0.536950 0.226671
v -0.288178 0.520482 0.206493
v -0.328577 0.527204 0.118543
v -0.350737 0.542478 0.026417
v -0.345911 0.544715 -0.107788
v -0.336143 0.539402 -0.196805
v -0.249204 0.547776 -0.225895
v -0.136670 0.555037 -0.226568
v -0.020793 0.556013 -0.225936
v -0.116733 0.510386 0.026466
v -0.124272 0.522684 -0.118772
v -0.248046 0.507128 -0.115554
v -0.242170 0.516734 0.028965
v -0.004425 0.525082 -0.117286
v 0.005911 0.498580 0.027657
v -0.004746 0.503540 0.122362
v -0.114099 0.525001 0.121274
v -0.224902 0.536332 0.119353
v 0.202959 0.547817 0.135144
v 0.242097 0.544342 0.037859
v 0.203620 0.576865 -0.142961
v 0.098529 0.619700 -0.280004
v -0.022010 0.616247 -0.320843
v -0.152720 0.611815 -0.321733
v -0.270803 0.595790 -0.305114
v -0.388950 0.595551 -0.240788
v -0.447859 0.602752 -0.120942
v -0.482149 0.614415 0.014825
v -0.454453 0.585186 0.130786
v -0.312698 0.548273 0.260441
v -0.205843 0.578133 0.316505
v -0.119279 0.608958 0.325979
v -0.027484 0.613475 0.314317
v 0.095185 0.587122 0.257536
v 0.081955 0.576004 -0.244124
v 0.155602 0.536568 -0.125322
v 0.197174 0.468543 0.031107
v 0.172463 0.499547 0.107030
v 0.083665 0.555534 0.214867
v -0.024197 0.579842 0.262727
v -0.111519 0.568266 0.281126
v -0.200671 0.546774 0.271464
v -0.298452 0.524407 0.234953
v -0.383269 0.541871 0.124760
v -0.399344 0.568771 0.026472
v -0.383524 0.562421 -0.113324
v -0.362266 0.559263 -0.217285
v -0.260221 0.565953 -0.271963
v -0.145457 0.581041 -0.271055
v -0.023475 0.582476 -0.274451
v -0.123525 0.686382 -0.090212
v -0.260087 0.680874 -0.086689
v -0.407818 0.676660 -0.091681
v -0.436112 0.669426 -0.092177
v -0.475116 0.626249 -0.101114
v -0.451567 0.600944 -0.072945
v -0.422391 0.579305 -0.059914
v -0.387806 0.564520 -0.064858
v -0.346563 0.547468 -0.060827
v -0.250030 0.509952 -0.060456
v -0.120776 0.518867 -0.062525
v -0.000335 0.516006 -0.066519
v 0.118005 0.506050 -0.064258
v 0.170645 0.524185 -0.060962
v 0.218990 0.541921 -0.054427
v 0.231446 0.546860 -0.053654
v 0.219414 0.588429 -0.056175
v 0.159912 0.618594 -0.068229
v 0.156993 0.654484 -0.065307
v 0.011131 0.695057 -0.082071
v -0.399301 0.682773 0.024306
v -0.254407 0.680228 0.056018
v -0.116455 0.675327 0.070176
v 0.014420 0.682743 0.072892
v 0.148422 0.635859 0.078355
v 0.150338 0.611154 0.073130
v 0.201823 0.569630 0.076339
v 0.226428 0.547537 0.083419
v 0.228064 0.516674 0.098571
v 0.190337 0.482130 0.058090
v 0.119228 0.481165 0.070980
v 0.000497 0.493306 0.072313
v -0.116297 0.510730 0.073118
v -0.234964 0.527371 0.071881
v -0.344982 0.531651 0.069576
v -0.394802 0.558279 0.068488
v -0.435447 0.586399 0.066686
v -0.455765 0.598552 0.064949
v -0.472522 0.614488 0.060115
v -0.428694 0.662255 0.036477
v -0.124530 0.690211 0.196688
v -0.245523 0.688918 0.166563
v -0.354981 0.687293 0.128894
v -0.373329 0.630279 0.146247
v -0.400040 0.587070 0.191401
v -0.394407 0.567980 0.187733
v -0.382784 0.558009 0.180717
v -0.343655 0.539433 0.175565
v -0.308272 0.525806 0.166759
v -0.215601 0.540541 0.170741
v -0.113542 0.540371 0.170299
v -0.010150 0.525477 0.167229
v 0.082355 0.523269 0.154784
v 0.140690 0.511467 0.163891
v 0.155343 0.532854 0.192524
v 0.172245 0.566452 0.198734
v 0.152556 0.595817 0.192478
v 0.102240 0.617368 0.166909
v 0.096480 0.647822 0.156801
v -0.010975 0.680946 0.186602
v -0.360569 0.673972 -0.178627
v -0.258453 0.688680 -0.198482
v -0.137684 0.697185 -0.210994
v -0.011903 0.691640 -0.197790
v 0.102027 0.669679 -0.170392
v 0.112715 0.647103 -0.193001
v 0.136574 0.613211 -0.217535
v 0.145620 0.601874 -0.221640
v 0.147261 0.585520 -0.223362
v 0.122937 0.554206 -0.193985
v 0.095042 0.535307 -0.168399
v -0.012518 0.535753 -0.173325
v -0.128890 0.528178 -0.176660
v -0.245347 0.519745 -0.174436
v -0.345048 0.537233 -0.155798
v -0.383254 0.554322 -0.162163
v -0.412215 0.573359 -0.175981
v -0.429175 0.602301 -0.197123
v -0.418686 0.620661 -0.191796
v -0.369448 0.649760 -0.178154
v 0.086769 0.671271 0.022466
v 0.079913 0.670789 0.071920
v 0.068076 0.672011 0.124423
v 0.051442 0.670951 0.168699
v 0.009095 0.668768 0.235535
v 0.021473 0.652805 0.258906
v 0.036594 0.618428 0.298015
v 0.037977 0.595591 0.287376
v 0.039497 0.586664 0.272207
v 0.030859 0.568830 0.237165
v 0.022013 0.548513 0.200317
v 0.035146 0.526987 0.160589
v 0.049049 0.504243 0.118062
v 0.058048 0.487688 0.073768
v 0.063670 0.489067 0.028657
v 0.058693 0.508139 -0.065951
v 0.053435 0.518519 -0.115854
v 0.040572 0.532217 -0.171176
v 0.025975 0.558778 -0.216712
v 0.032130 0.581767 -0.256902
v 0.041529 0.602079 -0.293953
v 0.045809 0.618964 -0.311751
v 0.044619 0.638438 -0.310234
v 0.029714 0.667447 -0.273655
v 0.024892 0.678625 -0.236808
v 0.049102 0.683423 -0.184670
v 0.072129 0.687103 -0.125547
v 0.082304 0.685935 -0.074783
v -0.186494 0.674621 0.012054
v -0.185378 0.677185 0.065182
v -0.184378 0.685672 0.122311
v -0.183799 0.688886 0.185546
v -0.181569 0.679461 0.258055
v -0.185979 0.654837 0.290404
v -0.172081 0.610621 0.332945
v -0.161932 0.590957 0.326556
v -0.153074 0.577231 0.316950
v -0.153849 0.550419 0.280131
v -0.160028 0.545911 0.229903
v -0.164925 0.543894 0.171657
v -0.169895 0.532974 0.120378
v -0.175375 0.520123 0.072869
v -0.179146 0.510809 0.027287
v -0.183060 0.506215 -0.064315
v -0.182998 0.506499 -0.119932
v -0.188058 0.523480 -0.176359
v -0.194177 0.550634 -0.224647
v -0.203004 0.576677 -0.269614
v -0.211981 0.591799 -0.298235
v -0.211725 0.604550 -0.312346
v -0.210552 0.627695 -0.310198
v -0.205643 0.653832 -0.284505
v -0.201414 0.679683 -0.262705
v -0.197097 0.694775 -0.207892
v -0.193721 0.694550 -0.143386
v -0.191450 0.679478 -0.090175
v -0.080314 0.673982 0.264842
v -0.067198 0.686341 0.195537
v -0.055824 0.685894 0.129046
v -0.045590 0.679922 0.069963
v -0.048020 0.682397 0.018062
v -0.056898 0.695950 -0.086800
v -0.063868 0.701671 -0.143856
v -0.074230 0.697645 -0.205799
v -0.083423 0.681739 -0.267260
v -0.081897 0.665089 -0.299074
v -0.080395 0.640152 -0.331939
v -0.081045 0.614668 -0.321004
v -0.081972 0.604927 -0.304702
v -0.078464 0.583651 -0.271698
v -0.076608 0.553790 -0.228055
v -0.069871 0.536045 -0.173382
v -0.062461 0.528326 -0.116638
v -0.059706 0.520373 -0.065427
v -0.053563 0.506328 0.025160
v -0.055902 0.501318 0.071178
v -0.057809 0.513288 0.121474
v -0.057130 0.530457 0.167319
v -0.063652 0.550611 0.224449
v -0.064143 0.576476 0.269851
v -0.065830 0.601937 0.310907
v -0.068892 0.611318 0.319813
v -0.073794 0.626359 0.321180
v -0.076001 0.665399 0.295797
v -0.271998 0.684274 0.212189
v -0.296363 0.688284 0.149064
v -0.312959 0.688368 0.099786
v -0.324982 0.684892 0.042335
v -0.331693 0.682614 -0.002618
v -0.332745 0.682550 -0.084850
v -0.328035 0.686411 -0.133016
v -0.305959 0.682514 -0.189356
v -0.287954 0.677418 -0.231042
v -0.292564 0.643797 -0.243160
v -0.322229 0.621451 -0.271063
v -0.330522 0.600113 -0.290124
v -0.328983 0.567924 -0.273422
v -0.309768 0.550230 -0.250988
v -0.294523 0.537431 -0.216429
v -0.298464 0.521816 -0.165226
v -0.299371 0.525626 -0.111144
v -0.299712 0.528517 -0.060463
v -0.298067 0.526335 0.028898
v -0.292079 0.529633 0.071826
v -0.279086 0.532730 0.118534
v -0.262724 0.531139 0.167443
v -0.247428 0.528204 0.215705
v -0.246039 0.544081 0.250525
v -0.247762 0.557790 0.274340
v -0.254478 0.569876 0.286056
v -0.259280 0.583135 0.287212
v -0.277090 0.625730 0.237927
v 0.079680 0.628288 0.255183
v 0.031993 0.638586 0.282521
v -0.028393 0.646925 0.305417
v -0.074113 0.646668 0.314609
v -0.130423 0.643992 0.321564
v -0.181008 0.635703 0.321104
v -0.227872 0.619809 0.300629
v -0.270019 0.605305 0.269106
v -0.326462 0.593302 0.239554
v -0.393743 0.619756 0.181797
v -0.444172 0.633932 0.124659
v -0.462351 0.648233 0.054021
v -0.467393 0.652431 -0.001411
v -0.464103 0.657882 -0.090118
v -0.451182 0.649082 -0.138673
v -0.395828 0.630251 -0.183334
v -0.360332 0.625746 -0.225099
v -0.308778 0.631147 -0.258349
v -0.263093 0.632956 -0.284386
v -0.208668 0.640251 -0.299471
v -0.155082 0.650713 -0.315770
v -0.080984 0.653253 -0.318307
v -0.020707 0.649726 -0.311750
v 0.038843 0.654639 -0.296325
v 0.087155 0.646597 -0.267902
v 0.121261 0.624753 -0.207586
v 0.169963 0.599146 -0.123703
v 0.185510 0.600137 -0.056390
v 0.184737 0.585633 0.029516
v 0.176133 0.587409 0.074021
v 0.157910 0.595647 0.125842
v 0.129234 0.609616 0.178853
v -0.119145 0.677949 -0.037176
v -0.189216 0.675729 -0.038603
v -0.259908 0.677812 -0.040096
v -0.334907 0.681883 -0.044317
v -0.415884 0.675213 -0.049808
v -0.441005 0.669876 -0.049735
v -0.469184 0.653758 -0.046203
v -0.471085 0.630529 -0.037602
v -0.457108 0.608531 -0.032139
v -0.435008 0.584601 -0.016069
v -0.395329 0.567239 -0.014883
v -0.349920 0.547963 -0.013635
v -0.300242 0.527638 -0.013898
v -0.247271 0.511381 -0.012829
v -0.181810 0.507469 -0.015772
v -0.118233 0.514384 -0.016010
v -0.056703 0.513070 -0.018187
v 0.003287 0.507253 -0.018302
v 0.062993 0.498648 -0.017597
v 0.123827 0.487956 -0.017955
v 0.190712 0.493582 -0.015076
v 0.252754 0.513086 0.004366
v 0.245745 0.550277 0.001074
v 0.223348 0.574345 -0.006502
v 0.187706 0.593908 -0.013901
v 0.164655 0.614080 -0.027700
v 0.162632 0.646911 -0.028517
v 0.087002 0.679031 -0.026657
v 0.016431 0.692215 -0.030028
v -0.052245 0.687838 -0.033707
v 0.051346 0.643741 0.222195
v 0.014570 0.662841 0.245348
v -0.034303 0.670652 0.268648
v -0.078383 0.672215 0.277743
v -0.132428 0.671768 0.287972
v -0.183752 0.670913 0.272348
v -0.235026 0.667209 0.258672
v -0.279925 0.659520 0.230584
v -0.323834 0.653130 0.189102
v -0.364244 0.664057 0.136943
v -0.388632 0.665374 0.093802
v -0.412860 0.676906 0.029827
v -0.422190 0.674256 -0.015678
v -0.426221 0.673221 -0.049768
v -0.419654 0.673627 -0.092611
v -0.409318 0.664138 -0.136887
v -0.367090 0.666211 -0.180978
v -0.334343 0.661558 -0.215684
v -0.293785 0.666599 -0.241842
v -0.255538 0.670033 -0.260012
v -0.204050 0.672537 -0.274829
v -0.151862 0.670408 -0.285436
v -0.082770 0.675693 -0.280700
v -0.026078 0.673772 -0.273520
v 0.026872 0.674068 -0.251914
v 0.072747 0.667915 -0.231045
v 0.108452 0.662543 -0.180684
v 0.151360 0.645560 -0.112936
v 0.164375 0.634418 -0.069748
v 0.166304 0.628277 -0.027633
v 0.155746 0.619876 0.024408
v 0.151271 0.623051 0.074030
v 0.121462 0.621942 0.124325
v 0.099358 0.636254 0.158728
vt 0.732172 0.484785
vt 0.579970 0.483597
vt 0.656189 0.308328
vt 0.854864 0.390934
vt 0.480532 0.383388
vt 0.469270 0.218764
vt 0.783544 0.129562
vt 0.872122 0.237513
vt 0.612876 0.093094
vt 0.892066 0.308468
vt 0.722399 0.207768
vt 0.530344 0.142017
vt 0.457837 0.297020
vt 0.620637 0.383689
vt 0.799834 0.445880
vt 0.695172 0.099217
vt 0.632690 0.168738
vt 0.567280 0.266664
vt 0.541116 0.340088
vt 0.525785 0.439732
vt 0.657460 0.494129
vt 0.709598 0.414677
vt 0.750717 0.350049
vt 0.801852 0.258716
vt 0.839141 0.183632
vt 0.508633 0.456114
vt 0.458986 0.391348
vt 0.571803 0.506189
vt 0.648609 0.532905
vt 0.741892 0.535594
vt 0.819866 0.476856
vt 0.876590 0.399297
vt 0.909218 0.316565
vt 0.896492 0.229578
vt 0.861434 0.165916
vt 0.796686 0.111599
vt 0.704627 0.070699
vt 0.622047 0.066987
vt 0.508311 0.121973
vt 0.443250 0.213416
vt 0.432549 0.297051
vt 0.489296 0.486175
vt 0.422599 0.408929
vt 0.552754 0.534008
vt 0.617547 0.571191
vt 0.714787 0.588023
vt 0.857161 0.518788
vt 0.901722 0.439691
vt 0.941394 0.338162
vt 0.942719 0.236257
vt 0.888296 0.145177
vt 0.809147 0.089734
vt 0.713993 0.042033
vt 0.617415 0.034674
vt 0.479169 0.085094
vt 0.383251 0.279130
vt 0.392886 0.197169
vt 0.341443 0.278751
vt 0.337845 0.183662
vt 0.462922 0.063590
vt 0.608332 0.018489
vt 0.724030 0.016845
vt 0.829444 0.058732
vt 0.917926 0.126054
vt 0.970452 0.231399
vt 0.992754 0.342616
vt 0.939541 0.472321
vt 0.863656 0.543867
vt 0.718229 0.616111
vt 0.600888 0.597070
vt 0.532890 0.549369
vt 0.471471 0.495381
vt 0.389077 0.400489
vt 0.493988 0.757304
vt 0.517075 0.671940
vt 0.425738 0.861828
vt 0.366629 0.907757
vt 0.295496 0.938290
vt 0.224110 0.911132
vt 0.157578 0.868911
vt 0.103732 0.814291
vt 0.063166 0.755338
vt 0.085051 0.678969
vt 0.117976 0.606330
vt 0.192028 0.522843
vt 0.248228 0.473744
vt 0.321685 0.497155
vt 0.396034 0.553740
vt 0.469635 0.615296
vt 0.271323 0.733030
vt 0.343901 0.634798
vt 0.261489 0.573808
vt 0.188770 0.668148
vt 0.420558 0.697259
vt 0.350205 0.797980
vt 0.292607 0.853754
vt 0.220497 0.796602
vt 0.150288 0.736003
vt 0.358417 0.275517
vt 0.369285 0.189109
vt 0.471350 0.073483
vt 0.612790 0.026163
vt 0.719419 0.028314
vt 0.820549 0.072766
vt 0.903269 0.134807
vt 0.956397 0.233544
vt 0.964540 0.346363
vt 0.910595 0.446203
vt 0.860537 0.531048
vt 0.715456 0.602940
vt 0.609318 0.584491
vt 0.542546 0.542001
vt 0.479846 0.491698
vt 0.405045 0.404958
vt 0.549247 0.653705
vt 0.532432 0.772869
vt 0.467397 0.899893
vt 0.413060 0.939950
vt 0.291277 0.968482
vt 0.194506 0.943880
vt 0.131480 0.904009
vt 0.082249 0.845720
vt 0.041599 0.767313
vt 0.046224 0.652501
vt 0.083219 0.575932
vt 0.169255 0.496587
vt 0.241402 0.442686
vt 0.339070 0.459004
vt 0.417510 0.515956
vt 0.497270 0.578626
vt 0.698086 0.242217
vt 0.784219 0.291433
vt 0.879444 0.340159
vt 0.897181 0.350298
vt 0.939014 0.361381
vt 0.957437 0.387044
vt 0.113781 0.507705
vt 0.140049 0.524820
vt 0.165852 0.551693
vt 0.231127 0.607284
vt 0.316404 0.673155
vt 0.396177 0.732752
vt 0.472111 0.796536
vt 0.510721 0.823691
vt 0.400322 0.112530
vt 0.405577 0.121082
vt 0.434181 0.134903
vt 0.482512 0.147573
vt 0.504144 0.164032
vt 0.608202 0.201869
vt 0.834538 0.411603
vt 0.731369 0.381001
vt 0.638175 0.343518
vt 0.552124 0.300878
vt 0.455037 0.257021
vt 0.437008 0.250220
vt 0.388917 0.233282
vt 0.363973 0.228224
vt 0.454578 0.968179
vt 0.449691 0.915852
vt 0.399450 0.885756
vt 0.323354 0.824446
vt 0.246886 0.763637
vt 0.169646 0.699923
vt 0.100467 0.639029
vt 0.065717 0.607378
vt 0.911054 0.504615
vt 0.900133 0.490357
vt 0.890775 0.475009
vt 0.853027 0.432854
vt 0.601521 0.429267
vt 0.688968 0.449941
vt 0.770015 0.461619
vt 0.787024 0.502922
vt 0.799503 0.557442
vt 0.802810 0.571991
vt 0.011929 0.686094
vt 0.042556 0.705266
vt 0.071643 0.719920
vt 0.128545 0.773724
vt 0.192551 0.829501
vt 0.262016 0.881781
vt 0.326584 0.924593
vt 0.362703 0.958585
vt 0.345681 0.341021
vt 0.371984 0.332917
vt 0.397747 0.335398
vt 0.441989 0.331614
vt 0.465032 0.326408
vt 0.530915 0.383808
vt 0.881481 0.267894
vt 0.823108 0.218633
vt 0.750312 0.168041
vt 0.662912 0.134203
vt 0.575827 0.112168
vt 0.570833 0.086914
vt 0.556847 0.052169
vt 0.549902 0.043111
vt 0.585727 0.698554
vt 0.546620 0.710039
vt 0.512111 0.714934
vt 0.445389 0.656068
vt 0.370897 0.594253
vt 0.294250 0.536779
vt 0.220710 0.494836
vt 0.198982 0.467925
vt 0.988778 0.292204
vt 0.959914 0.282931
vt 0.943561 0.281543
vt 0.901458 0.267670
vt 0.520416 0.243667
vt 0.508396 0.277923
vt 0.499284 0.315961
vt 0.495399 0.350430
vt 0.500773 0.409246
vt 0.482048 0.421434
vt 0.450452 0.446488
vt 0.432620 0.452214
vt 0.228654 0.985364
vt 0.244064 0.955941
vt 0.260846 0.924663
vt 0.293340 0.903386
vt 0.328129 0.880479
vt 0.359302 0.855538
vt 0.386664 0.829312
vt 0.433948 0.764639
vt 0.456803 0.729048
vt 0.477862 0.685718
vt 0.496211 0.644474
vt 0.524829 0.618361
vt 0.662721 0.002910
vt 0.663534 0.021064
vt 0.663222 0.035034
vt 0.660956 0.069970
vt 0.651479 0.096119
vt 0.617376 0.121959
vt 0.583073 0.153463
vt 0.559483 0.183575
vt 0.702964 0.329737
vt 0.684116 0.363574
vt 0.664267 0.400690
vt 0.643266 0.441827
vt 0.618999 0.489587
vt 0.610542 0.518303
vt 0.583139 0.555910
vt 0.572558 0.568491
vt 0.085068 0.906076
vt 0.106837 0.875808
vt 0.130636 0.841612
vt 0.159402 0.802350
vt 0.184705 0.766366
vt 0.208154 0.732279
vt 0.230639 0.700612
vt 0.276100 0.639805
vt 0.304847 0.604157
vt 0.332360 0.564232
vt 0.357372 0.525617
vt 0.378626 0.487505
vt 0.873614 0.093433
vt 0.862551 0.102707
vt 0.849476 0.114833
vt 0.830841 0.136564
vt 0.812150 0.156087
vt 0.787553 0.190567
vt 0.762100 0.230850
vt 0.741573 0.265786
vt 0.549934 0.459935
vt 0.564747 0.409002
vt 0.579086 0.361556
vt 0.592324 0.319440
vt 0.611573 0.286652
vt 0.653827 0.221187
vt 0.678420 0.186620
vt 0.706886 0.150089
vt 0.735106 0.112179
vt 0.746158 0.088296
vt 0.758776 0.060593
vt 0.767954 0.042310
vt 0.479902 0.523550
vt 0.461315 0.550440
vt 0.434464 0.585321
vt 0.408442 0.626152
vt 0.383082 0.667382
vt 0.357426 0.702447
vt 0.313062 0.765059
vt 0.287379 0.794086
vt 0.257989 0.825906
vt 0.231443 0.857154
vt 0.194206 0.891841
vt 0.166280 0.925315
vt 0.497682 0.522021
vt 0.506424 0.516798
vt 0.516430 0.509974
vt 0.536199 0.479926
vt 0.691511 0.488878
vt 0.726790 0.455301
vt 0.753639 0.429025
vt 0.781096 0.396652
vt 0.800908 0.370344
vt 0.829900 0.317939
vt 0.843550 0.285270
vt 0.849944 0.241693
vt 0.854591 0.208679
vt 0.879488 0.194485
vt 0.912506 0.187489
vt 0.930556 0.176499
vt 0.292979 0.422632
vt 0.293174 0.451039
vt 0.285153 0.482753
vt 0.255735 0.515517
vt 0.225111 0.547885
vt 0.197434 0.579210
vt 0.152016 0.637839
vt 0.133177 0.668795
vt 0.116608 0.705685
vt 0.100534 0.745256
vt 0.083045 0.783749
vt 0.063666 0.809043
vt 0.658539 0.606692
vt 0.659164 0.592790
vt 0.661669 0.582011
vt 0.691764 0.538287
vt 0.439997 0.401169
vt 0.465205 0.434700
vt 0.498452 0.472492
vt 0.525093 0.496586
vt 0.561308 0.521102
vt 0.595401 0.539369
vt 0.633275 0.554162
vt 0.675441 0.562174
vt 0.728224 0.565063
vt 0.793247 0.533093
vt 0.841534 0.500326
vt 0.871754 0.455769
vt 0.892043 0.420213
vt 0.914993 0.362020
vt 0.926174 0.328412
vt 0.924902 0.275066
vt 0.921600 0.233213
vt 0.897655 0.190332
vt 0.876111 0.154373
vt 0.841140 0.124669
vt 0.803693 0.099896
vt 0.752982 0.073208
vt 0.709777 0.055231
vt 0.662475 0.050638
vt 0.619383 0.049462
vt 0.564408 0.066657
vt 0.491680 0.101716
vt 0.457444 0.146114
vt 0.419875 0.205589
vt 0.411718 0.240834
vt 0.410954 0.284738
vt 0.419607 0.332821
vt 0.676768 0.275367
vt 0.722181 0.298166
vt 0.767935 0.321332
vt 0.817268 0.344802
vt 0.870685 0.370172
vt 0.887199 0.379280
vt 0.908084 0.392608
vt 0.922333 0.405888
vt 0.939919 0.417198
vt 0.081733 0.528055
vt 0.108253 0.552295
vt 0.138658 0.579914
vt 0.172774 0.608887
vt 0.207901 0.638846
vt 0.251613 0.671569
vt 0.293088 0.704610
vt 0.334072 0.734948
vt 0.372853 0.766272
vt 0.410968 0.798418
vt 0.449924 0.831043
vt 0.491704 0.866924
vt 0.354641 0.155277
vt 0.382426 0.161777
vt 0.407423 0.165708
vt 0.437438 0.174733
vt 0.463140 0.174935
vt 0.485753 0.184344
vt 0.538642 0.212620
vt 0.586551 0.233763
vt 0.632243 0.254393
vt 0.469891 0.386252
vt 0.493025 0.414164
vt 0.518801 0.446458
vt 0.544372 0.467945
vt 0.576723 0.492804
vt 0.615714 0.501500
vt 0.653564 0.511082
vt 0.691958 0.512286
vt 0.735729 0.505372
vt 0.777539 0.478777
vt 0.807795 0.458103
vt 0.841990 0.420441
vt 0.863728 0.394472
vt 0.877385 0.373942
vt 0.887158 0.343886
vt 0.899475 0.311541
vt 0.889076 0.268099
vt 0.882458 0.233946
vt 0.865007 0.202960
vt 0.847375 0.177050
vt 0.819676 0.148271
vt 0.789034 0.122183
vt 0.739667 0.102418
vt 0.699045 0.087624
vt 0.655315 0.085346
vt 0.616430 0.082364
vt 0.573523 0.101803
vt 0.519847 0.132953
vt 0.492569 0.153614
vt 0.472808 0.179083
vt 0.454116 0.215424
vt 0.445960 0.251976
vt 0.444766 0.296058
vt 0.456275 0.326873
vt 0.525439 0.913308
vt 0.544653 0.851721
vt 0.956539 0.439192
vt 0.060104 0.551815
vt 0.047897 0.825428
vt 0.064408 0.875498
vt 0.956213 0.170170
vt 0.235042 0.413401
vt 0.140443 0.956104
vt 0.167136 0.974636
vt 0.774688 0.029806
vt 0.433622 0.489681
vt 0.389602 0.461899
vt 0.345552 0.434811
vt 0.562775 0.578461
vt 0.107308 0.934513
vt 0.553293 0.596465
vt 0.517899 0.551432
vt 0.419064 0.453398
vt 0.283269 0.995996
vt 0.185894 0.440040
vt 0.151987 0.470402
vt 0.543351 0.032498
vt 0.584999 0.635167
vt 0.353681 0.988771
vt 0.412124 0.975600
vt 0.803958 0.584537
vt 0.025243 0.773118
vt 0.036136 0.579036
vt 0.002082 0.620666
vt 0.338868 0.235564
vt 0.501617 0.940308
vt 0.575007 0.781425
vt 0.981095 0.402859
vn -0.425743 0.797220 0.427999
vn -0.246800 0.913573 0.323226
vn -0.044679 0.997755 0.049884
vn -0.344875 0.912344 0.220658
vn 0.552570 0.739601 0.384262
vn 0.593690 0.737409 0.322120
vn 0.334110 0.920124 0.204308
vn 0.258774 0.942307 0.212354
vn -0.261687 0.941293 -0.213279
vn -0.140019 0.982890 -0.119674
vn -0.230776 0.920445 -0.315475
vn -0.307223 0.881434 -0.358732
vn 0.164857 0.963520 -0.210834
vn 0.203411 0.969192 -0.138891
vn 0.403143 0.896741 -0.182566
vn 0.292912 0.937607 -0.187340
vn 0.010454 0.998865 -0.046460
vn -0.015089 0.999881 0.003142
vn -0.098531 0.995099 -0.008361
vn -0.093723 0.994569 -0.045255
vn 0.569541 0.808976 0.145542
vn 0.558839 0.819582 0.126428
vn 0.289127 0.950135 0.116827
vn 0.318682 0.940917 0.114529
vn 0.334199 0.938316 0.088741
vn 0.601160 0.775892 0.191305
vn -0.140515 0.990016 -0.011112
vn 0.010665 0.998448 -0.054655
vn -0.031063 0.986933 -0.158110
vn 0.039532 0.986088 -0.161456
vn 0.030692 0.955647 -0.292911
vn -0.028213 0.946045 -0.322805
vn -0.092568 0.993291 0.069316
vn -0.097703 0.988351 0.116692
vn -0.091559 0.989972 0.107579
vn -0.056799 0.997924 0.030367
vn -0.020749 0.997007 -0.074480
vn -0.056336 0.997947 -0.030458
vn 0.075533 0.980401 0.181958
vn 0.055896 0.995168 0.080719
vn 0.020333 0.997882 0.061796
vn 0.014221 0.979463 0.201123
vn 0.004669 0.999330 0.036316
vn -0.038621 0.976904 0.210160
vn 0.022418 0.999725 -0.006962
vn 0.040716 0.995001 -0.091183
vn -0.005801 0.998070 0.061822
vn -0.076028 0.947974 -0.309137
vn -0.071649 0.989484 -0.125650
vn 0.629535 0.700249 0.336655
vn 0.398430 0.869731 0.291240
vn 0.384227 0.859305 0.337587
vn 0.462898 0.875273 0.140079
vn 0.094887 0.814268 0.572682
vn 0.068943 0.947509 0.312207
vn -0.073626 0.896334 0.437223
vn -0.095573 0.783676 0.613773
vn -0.245014 0.746662 0.618436
vn -0.349536 0.703050 0.619311
vn -0.402789 0.702356 0.586904
vn -0.573435 0.485696 0.659751
vn -0.584723 0.364743 0.724611
vn -0.663975 0.345675 0.663058
vn -0.719841 0.405174 0.563616
vn -0.377009 0.784201 0.492843
vn -0.383597 0.885614 0.261804
vn -0.574425 0.777210 0.256866
vn -0.389427 0.918875 0.063369
vn -0.424632 0.900496 0.093777
vn -0.242800 0.970032 -0.009295
vn -0.399717 0.916592 0.009210
vn -0.514061 0.592817 -0.619926
vn -0.488028 0.596136 -0.637534
vn -0.659097 0.340933 -0.670340
vn -0.621966 0.200565 -0.756923
vn -0.502152 0.312649 -0.806284
vn -0.456715 0.570724 -0.682412
vn -0.292749 0.653260 -0.698247
vn -0.227130 0.631263 -0.741566
vn -0.088175 0.802839 -0.589640
vn -0.136517 0.804585 -0.577933
vn 0.023725 0.875985 -0.481755
vn 0.016199 0.853020 -0.521627
vn 0.198420 0.893859 -0.402051
vn 0.190382 0.928232 -0.319595
vn 0.478851 0.816523 -0.322478
vn 0.520486 0.793463 -0.315453
vn 0.782237 0.492662 -0.381299
vn 0.779795 0.559564 -0.280727
vn 0.765932 0.627999 0.137714
vn 0.817079 0.566311 0.108042
vn 0.996903 0.045431 0.064192
vn 0.988792 0.036062 0.144876
vn 0.953580 0.073638 0.291999
vn 0.736903 0.648789 0.189859
vn 0.526454 0.843986 0.102638
vn 0.768624 0.464296 0.440053
vn 0.491423 0.826811 0.273656
vn 0.396912 0.731017 0.555045
vn 0.407789 0.190602 0.892961
vn 0.626445 0.406824 0.664877
vn 0.067462 0.167295 0.983596
vn 0.130029 0.185769 0.973952
vn 0.115688 0.572040 0.812026
vn -0.030088 0.581439 0.813033
vn -0.324254 0.575862 0.750495
vn -0.176493 0.102855 0.978913
vn -0.565552 0.108686 0.817520
vn -0.533141 0.129412 0.836070
vn -0.540797 0.542393 0.642921
vn -0.464083 0.574313 0.674382
vn -0.374444 0.712584 0.593310
vn -0.658668 0.144279 0.738471
vn -0.989899 0.132571 0.050256
vn -0.963163 0.112545 0.244237
vn -0.541272 0.793461 0.278288
vn -0.666350 0.740377 0.088429
vn -0.800827 0.598800 -0.010772
vn -0.985105 -0.155923 -0.072505
vn -0.650281 0.475202 -0.592721
vn -0.350792 0.763228 -0.542612
vn -0.348916 0.838862 -0.417814
vn -0.456792 0.717775 -0.525491
vn -0.317461 0.845478 -0.429401
vn -0.374749 0.714844 -0.590391
vn -0.262039 0.323359 -0.909271
vn -0.296165 0.742081 -0.601334
vn -0.163316 0.779582 -0.604632
vn -0.143550 0.182061 -0.972752
vn 0.026585 0.784845 -0.619122
vn 0.029622 0.141167 -0.989543
vn 0.321364 0.398295 -0.859120
vn 0.252906 0.784027 -0.566869
vn 0.575526 0.747544 -0.331585
vn 0.634918 0.563089 -0.528971
vn 0.651214 0.743668 -0.151258
vn 0.615044 0.765388 -0.189479
vn 0.679781 0.638482 0.360886
vn 0.463556 0.882600 0.078314
vn 0.534647 0.833124 0.141622
vn 0.543165 0.836967 0.066766
vn 0.626628 0.769830 0.121239
vn 0.573170 0.800153 0.176722
vn 0.668870 0.737938 0.089781
vn 0.485727 0.855783 0.178057
vn 0.842003 0.439429 0.312942
vn 0.856964 0.467721 0.216450
vn 0.928878 0.365478 -0.060101
vn 0.804343 0.308489 -0.507806
vn 0.679009 0.005289 -0.734111
vn 0.290457 -0.354420 -0.888831
vn 0.020615 -0.544673 -0.838395
vn -0.048982 -0.488903 -0.870962
vn -0.103228 -0.295123 -0.949867
vn -0.467127 0.106423 -0.877762
vn -0.702470 -0.008683 -0.711660
vn -0.837362 -0.357087 -0.413900
vn -0.717535 -0.693252 -0.067411
vn -0.731543 -0.678163 -0.070277
vn -0.679657 -0.733021 -0.027327
vn -0.666709 -0.434872 0.605299
vn -0.494533 -0.475734 0.727403
vn -0.327989 -0.458392 0.826015
vn 0.016968 -0.356975 0.933960
vn 0.149054 -0.271984 0.950688
vn 0.149452 -0.313458 0.937768
vn 0.250525 -0.554686 0.793449
vn 0.574839 -0.182746 0.797599
vn 0.776938 -0.021518 0.629209
vn 0.289761 -0.836532 -0.465029
vn 0.142351 -0.917914 -0.370364
vn 0.067471 -0.869236 -0.489772
vn 0.183621 -0.814544 -0.550273
vn -0.086712 -0.990249 -0.109029
vn -0.012438 -0.935578 -0.352902
vn 0.263451 -0.835574 -0.482090
vn 0.240319 -0.968409 -0.066569
vn 0.196146 -0.903548 0.380956
vn -0.037543 -0.964185 0.262561
vn -0.088897 -0.875240 0.475450
vn -0.096981 -0.897426 0.430374
vn 0.077371 -0.901993 0.424762
vn -0.060913 -0.846642 0.528665
vn 0.036233 -0.872473 0.487317
vn 0.055270 -0.870660 0.488771
vn 0.079290 -0.967873 0.238611
vn 0.035700 -0.926444 0.374737
vn 0.164950 -0.859186 0.484346
vn 0.238060 -0.867931 0.435917
vn 0.196965 -0.920679 0.336979
vn 0.119980 -0.988114 0.096106
vn -0.021952 -0.999225 0.032666
vn 0.168067 -0.983517 0.066688
vn 0.046476 -0.916591 0.397116
vn -0.171801 -0.952322 0.252127
vn -0.368922 -0.917606 0.147974
vn -0.096920 -0.995271 -0.006522
vn -0.363797 -0.926385 -0.097276
vn -0.267867 -0.959670 -0.085322
vn -0.463087 -0.873090 -0.152527
vn -0.464828 -0.881889 -0.078785
vn -0.411363 -0.911252 -0.020005
vn -0.383037 -0.922754 -0.042520
vn -0.320573 -0.914849 -0.245529
vn -0.370914 -0.928497 -0.017777
vn -0.481818 -0.875349 -0.040194
vn -0.388412 -0.876664 -0.283896
vn -0.122570 -0.911691 -0.392168
vn -0.069492 -0.932495 -0.354434
vn 0.040151 -0.873415 -0.485318
vn 0.066756 -0.871021 -0.486688
vn 0.101930 -0.871690 -0.479341
vn 0.036774 -0.855685 -0.516188
vn 0.004121 -0.846605 -0.532206
vn 0.022399 -0.892481 -0.450528
vn 0.060465 -0.878986 -0.472999
vn 0.109798 -0.850269 -0.514770
vn -0.199685 -0.968471 -0.148960
vn -0.318163 -0.948031 -0.003240
vn -0.207339 -0.977895 0.027041
vn 0.103343 -0.946458 -0.305838
vn 0.072324 -0.931514 -0.356443
vn -0.051087 -0.992543 0.110677
vn 0.019334 -0.999581 0.021535
vn 0.040764 -0.996394 -0.074415
vn -0.048107 -0.998664 -0.018865
vn 0.045605 -0.966604 -0.252184
vn -0.060262 -0.988023 -0.142052
vn -0.099256 -0.988341 -0.115460
vn -0.003309 -0.944137 -0.329537
vn -0.155825 -0.980522 -0.119561
vn -0.140254 -0.966824 -0.213494
vn -0.143915 -0.986848 0.073624
vn -0.128335 -0.980017 0.151975
vn -0.105210 -0.971280 0.213413
vn -0.095853 -0.983989 0.150259
vn -0.050327 -0.997191 0.055481
vn 0.013417 -0.992527 0.121284
vn -0.080491 -0.967930 0.237976
vn 0.151808 -0.985219 -0.079354
vn -0.096257 -0.935247 0.340657
vn 0.040654 -0.877243 0.478323
vn 0.670276 -0.514895 0.534428
vn 0.797081 -0.592208 0.118120
vn 0.704329 -0.584194 -0.403284
vn 0.501102 -0.632643 -0.590475
vn 0.379629 -0.650368 -0.657955
vn 0.157673 -0.793122 -0.588300
vn 0.015841 -0.840153 -0.542118
vn 0.045795 -0.844724 -0.533239
vn 0.106335 -0.801041 -0.589089
vn -0.357158 -0.688247 -0.631470
vn -0.562958 -0.671112 -0.482376
vn -0.620490 -0.771454 -0.140891
vn -0.522129 -0.852239 -0.032694
vn -0.507346 -0.860747 -0.041424
vn -0.523256 -0.840723 -0.139243
vn -0.477780 -0.823531 0.305815
vn -0.310508 -0.844163 0.437005
vn -0.123121 -0.797473 0.590659
vn 0.189577 -0.730400 0.656183
vn 0.247346 -0.710880 0.658384
vn 0.191146 -0.782034 0.593200
vn 0.056577 -0.854703 0.516026
vn 0.177272 -0.718185 0.672893
vn 0.335129 -0.703608 0.626598
vn -0.061471 0.994298 0.087132
vn -0.062232 0.992052 0.109365
vn -0.034230 0.984314 0.173073
vn -0.096936 0.978745 0.180724
vn -0.138471 0.989994 -0.027147
vn -0.050273 0.998081 0.036147
vn -0.109316 0.993817 -0.019433
vn -0.229168 0.964177 -0.133586
vn -0.348439 0.785326 -0.511717
vn -0.346623 0.922827 -0.168054
vn -0.295911 0.941579 -0.160826
vn -0.510342 0.694352 -0.507372
vn -0.965207 -0.224507 -0.134061
vn -0.724759 0.676404 -0.131157
vn -0.487130 0.727259 -0.483527
vn -0.897466 0.069285 -0.435607
vn -0.716255 -0.676981 -0.169338
vn -0.674462 -0.737176 -0.040896
vn -0.583671 -0.811679 -0.022473
vn -0.507260 -0.860686 -0.043670
vn -0.466718 -0.882887 0.051809
vn -0.415651 -0.909396 -0.015252
vn -0.385060 -0.919791 0.075589
vn -0.385161 -0.922796 0.009934
vn -0.313010 -0.949392 0.026083
vn -0.353605 -0.935126 0.022418
vn 0.113538 -0.990366 -0.079271
vn 0.073623 -0.997264 -0.006629
vn 0.096648 -0.987898 -0.121312
vn 0.147171 -0.981771 -0.120273
vn 0.019778 -0.990163 -0.138517
vn -0.022012 -0.990116 -0.138511
vn 0.108960 -0.940144 -0.322889
vn -0.087438 -0.973552 -0.211070
vn -0.039785 -0.974314 -0.221654
vn 0.160071 -0.946252 -0.281043
vn 0.319906 -0.857958 -0.401955
vn 0.337467 -0.880636 -0.332561
vn 0.505481 -0.730063 -0.459889
vn 0.513443 -0.750293 -0.416457
vn 0.953965 0.114377 -0.277253
vn 0.903403 0.181536 -0.388468
vn 0.707512 0.702548 -0.076508
vn 0.656933 0.735234 -0.166946
vn 0.527920 0.843484 -0.099171
vn 0.453269 0.891367 0.003322
vn 0.897864 0.261326 -0.354330
vn 0.977114 0.080542 -0.196881
vn 0.837786 0.522641 -0.157993
vn 0.837009 0.480926 -0.261010
vn 0.244863 0.967055 -0.069624
vn 0.259904 0.964740 0.041563
vn 0.520554 0.853464 0.024982
vn 0.478444 0.871476 -0.107804
vn -0.055723 0.990549 0.125333
vn 0.010092 0.999715 0.021624
vn -0.241904 0.966272 0.088317
vn 0.002341 0.998783 -0.049265
vn 0.032832 0.994637 -0.098082
vn 0.005394 0.995307 -0.096622
vn -0.000642 0.998563 -0.053589
vn 0.331774 0.937890 0.101428
vn 0.599320 0.761165 0.247877
vn 0.583322 0.797455 0.154276
vn 0.861329 0.183993 0.473560
vn 0.474822 0.878292 0.056093
vn 0.695695 0.698429 0.167947
vn 0.886443 0.143404 0.440062
vn 0.597338 -0.624969 0.502593
vn 0.183202 -0.893755 0.409438
vn -0.045692 -0.933953 0.354462
vn -0.017250 -0.922016 0.386767
vn -0.160503 -0.943810 0.288898
vn -0.147820 -0.948845 0.279003
vn -0.086615 -0.969102 0.230952
vn 0.068483 -0.997578 0.012161
vn -0.149258 -0.988796 -0.002175
vn -0.406095 -0.913222 0.033366
vn -0.533980 -0.845124 0.025116
vn -0.791388 -0.532758 0.299788
vn -0.871888 0.108710 0.477487
vn -0.522449 0.727198 0.445230
vn -0.680453 0.595457 0.427101
vn -0.297125 0.882989 0.363382
vn 0.074306 0.993013 0.091667
vn 0.085767 0.996127 0.019381
vn 0.103932 0.994408 0.018751
vn 0.128931 0.985015 0.114553
vn 0.122856 0.976829 0.175246
vn 0.266898 0.835243 0.480765
vn 0.205517 0.930510 0.303174
vn 0.246545 0.223922 0.942908
vn 0.266426 0.653923 0.708097
vn 0.188793 -0.420048 0.887647
vn 0.086607 -0.835237 0.543027
vn 0.085971 -0.864998 0.494355
vn 0.071637 -0.880908 0.467835
vn 0.005222 -0.897840 0.440290
vn -0.067657 -0.942124 0.328366
vn -0.113667 -0.991079 0.069587
vn -0.129143 -0.981546 -0.141028
vn -0.118759 -0.978181 -0.170467
vn -0.100590 -0.980664 -0.167870
vn -0.073791 -0.981969 -0.174047
vn -0.011859 -0.959929 -0.279994
vn 0.053042 -0.896450 -0.439959
vn 0.053761 -0.853732 -0.517929
vn 0.043161 -0.823414 -0.565797
vn 0.096199 -0.489258 -0.866818
vn 0.137385 0.239317 -0.961173
vn 0.114797 0.755739 -0.644733
vn 0.099915 0.912345 -0.397043
vn 0.093191 0.867427 -0.488759
vn 0.111054 0.960661 -0.254553
vn 0.120099 0.980905 -0.152977
vn 0.105321 0.993683 -0.038754
vn 0.070264 0.995770 0.059208
vn 0.062952 0.992820 0.101713
vn 0.055200 0.998091 -0.027710
vn 0.059386 0.994665 -0.084350
vn 0.038432 0.996019 -0.080433
vn -0.000405 0.999714 0.023928
vn -0.113610 0.960355 0.254581
vn -0.443286 0.511998 0.735768
vn -0.532379 0.535724 0.655418
vn -0.464079 0.061471 0.883658
vn -0.548284 0.510768 0.662194
vn -0.269920 -0.471765 0.839393
vn -0.060110 -0.793748 0.605270
vn 0.004943 -0.943495 0.331349
vn 0.115744 -0.990596 0.072953
vn 0.112270 -0.993661 0.005707
vn 0.007929 -0.991625 0.128909
vn -0.069375 -0.979011 0.191638
vn -0.122115 -0.981479 0.147603
vn -0.161783 -0.985340 0.054137
vn -0.177242 -0.983776 0.027740
vn -0.125588 -0.989574 -0.070501
vn -0.026014 -0.949458 -0.312816
vn 0.076899 -0.895855 -0.437643
vn 0.115940 -0.888358 -0.444272
vn -0.039014 -0.712229 -0.700862
vn -0.206512 -0.047601 -0.977286
vn -0.253652 0.539981 -0.802546
vn -0.283285 0.784743 -0.551297
vn -0.363041 0.458993 -0.810880
vn -0.366489 0.592229 -0.717601
vn -0.147860 0.942358 -0.300166
vn -0.102894 0.989482 -0.101675
vn -0.047669 0.996082 0.074489
vn 0.012070 0.992641 0.120495
vn 0.040452 0.998831 0.026479
s 1
g Stupm_Snow_LOW Stump_group
f 1/1/1 295/295/2 296/296/3 173/173/4
f 6/5/5 189/189/6 214/214/7 215/215/8
f 191/191/9 302/302/10 303/303/11 7/8/12
f 235/235/13 236/236/14 195/195/15 9/9/16
f 299/299/17 358/358/18 359/359/19 4/4/20
f 5/6/21 381/381/22 382/382/23 211/211/24
f 211/211/24 212/212/25 155/155/26 5/6/21
f 151/151/27 298/298/28 299/299/17 4/4/20
f 193/193/29 274/274/30 275/275/31 8/7/32
f 271/271/33 384/384/34 355/355/35 3/3/36
f 153/153/37 270/270/38 271/271/33 3/3/36
f 267/267/39 268/268/40 171/171/41 2/2/42
f 171/171/41 242/242/43 243/243/44 2/2/42
f 239/239/45 240/240/46 153/153/37 3/3/36
f 355/355/35 356/356/47 239/239/45 3/3/36
f 8/7/32 263/263/48 264/264/49 193/193/29
f 385/385/50 386/386/51 216/216/52 26/27/53
f 294/294/54 388/388/55 389/389/56 28/28/57
f 389/389/56 390/390/58 244/244/59 28/28/57
f 30/30/60 322/322/61 392/392/62 393/393/63
f 393/393/63 394/394/64 174/174/65 30/30/60
f 170/170/66 396/396/67 397/397/68 32/32/69
f 397/397/68 398/398/70 360/360/71 32/32/69
f 34/34/72 210/210/73 401/401/74 402/402/75
f 402/402/75 403/403/76 304/304/77 34/34/72
f 262/262/78 405/405/79 406/406/80 36/36/81
f 406/406/80 407/407/82 276/276/83 36/36/81
f 234/234/84 409/409/85 410/410/86 38/38/87
f 410/410/86 411/411/88 196/196/89 38/38/87
f 40/40/90 380/380/91 414/414/92 415/415/93
f 415/415/93 416/416/94 156/156/95 40/40/90
f 188/188/96 418/418/97 385/385/50 26/27/53
f 323/323/98 324/324/99 217/217/100 42/43/101
f 44/44/102 293/293/103 326/326/104 327/327/105
f 327/327/105 328/328/106 245/245/107 44/44/102
f 46/46/108 321/321/109 330/330/110 331/331/111
f 331/331/111 332/332/112 175/175/113 46/46/108
f 48/48/114 169/169/115 334/334/116 335/335/117
f 335/335/117 361/361/118 362/362/119 48/48/114
f 209/209/120 338/338/121 339/339/122 50/50/123
f 339/339/122 340/340/124 305/305/125 50/50/123
f 261/261/126 342/342/127 343/343/128 52/52/129
f 343/343/128 344/344/130 277/277/131 52/52/129
f 233/233/132 346/346/133 347/347/134 54/54/135
f 347/347/134 348/348/136 197/197/137 54/54/135
f 42/43/101 187/187/138 354/354/139 323/323/98
f 351/351/140 352/352/141 157/157/142 57/57/143
f 378/378/144 379/379/145 351/351/140 57/57/143
f 57/57/143 157/157/142 158/158/146 100/100/147
f 100/100/147 377/377/148 378/378/144 57/57/143
f 197/197/137 198/198/149 102/102/150 54/54/135
f 102/102/150 232/232/151 233/233/132 54/54/135
f 277/277/131 278/278/152 104/104/153 52/52/129
f 104/104/153 260/260/154 261/261/126 52/52/129
f 305/305/125 306/306/155 106/106/156 50/50/123
f 106/106/156 208/208/157 209/209/120 50/50/123
f 362/362/119 363/363/158 108/108/159 48/48/114
f 108/108/159 168/168/160 169/169/115 48/48/114
f 175/175/113 176/176/161 110/110/162 46/46/108
f 110/110/162 320/320/163 321/321/109 46/46/108
f 44/44/102 245/245/107 246/246/164 112/112/165
f 112/112/165 292/292/166 293/293/103 44/44/102
f 217/217/100 218/218/167 114/114/168 42/43/101
f 186/186/169 187/187/138 42/43/101 114/114/168
f 200/200/170 201/201/171 74/75/172 115/115/173
f 76/76/174 374/374/175 375/375/176 117/117/177
f 160/160/178 161/161/179 76/76/174 117/117/177
f 78/78/180 183/183/181 184/184/182 119/119/183
f 220/220/184 221/221/185 78/78/180 119/119/183
f 80/80/186 289/289/187 290/290/188 121/121/189
f 248/248/190 249/249/191 80/80/186 121/121/189
f 82/82/192 317/317/193 318/318/194 123/123/195
f 178/178/196 179/179/197 82/82/192 123/123/195
f 84/84/198 165/165/199 166/166/200 125/125/201
f 365/365/202 366/366/203 84/84/198 125/125/201
f 86/86/204 205/205/205 206/206/206 127/127/207
f 308/308/208 309/309/209 86/86/204 127/127/207
f 88/88/210 257/257/211 258/258/212 129/129/213
f 280/280/214 281/281/215 88/88/210 129/129/213
f 74/75/172 229/229/216 230/230/217 115/115/173
f 86/86/204 309/309/209 310/310/218 205/205/205
f 366/366/203 367/367/219 313/313/220 84/84/198
f 203/203/221 256/256/222 257/257/211 88/88/210
f 253/253/223 369/369/224 370/370/225 90/90/226
f 281/281/215 282/282/227 203/203/221 88/88/210
f 370/370/225 371/371/228 285/285/229 90/90/226
f 201/201/171 228/228/230 229/229/216 74/75/172
f 225/225/231 373/373/232 374/374/175 76/76/174
f 90/90/226 285/285/229 286/286/233 163/163/234
f 252/252/235 253/253/223 90/90/226 163/163/234
f 161/161/179 224/224/236 225/225/231 76/76/174
f 313/313/220 314/314/237 165/165/199 84/84/198
f 249/249/191 250/250/238 181/181/239 80/80/186
f 179/179/197 316/316/240 317/317/193 82/82/192
f 181/181/239 288/288/241 289/289/187 80/80/186
f 78/78/180 221/221/185 222/222/242 183/183/181
f 100/100/147 158/158/146 159/449/243 59/59/244
f 59/59/244 376/376/245 377/377/148 100/100/147
f 198/198/149 199/441/246 61/61/247 102/102/150
f 61/61/247 231/231/248 232/232/151 102/102/150
f 278/278/152 279/429/249 63/63/250 104/104/153
f 63/63/250 259/259/251 260/260/154 104/104/153
f 306/306/155 307/425/252 65/65/253 106/106/156
f 65/65/253 207/207/254 208/208/157 106/106/156
f 363/363/158 364/421/255 67/67/256 108/108/159
f 67/67/256 167/167/257 168/168/160 108/108/159
f 176/176/161 177/445/258 69/69/259 110/110/162
f 69/69/259 319/319/260 320/320/163 110/110/162
f 112/112/165 246/246/164 247/433/261 71/71/262
f 71/71/262 291/291/263 292/292/166 112/112/165
f 218/218/167 219/437/264 73/73/265 114/114/168
f 185/185/266 186/186/169 114/114/168 73/73/265
f 199/199/246 200/200/170 115/115/173 61/442/247
f 117/117/177 375/375/176 376/419/245 59/450/244
f 159/159/243 160/160/178 117/117/177 59/450/244
f 119/119/183 184/184/182 185/443/266 73/438/265
f 219/219/264 220/220/184 119/119/183 73/438/265
f 121/121/189 290/290/188 291/427/263 71/434/262
f 247/247/261 248/248/190 121/121/189 71/434/262
f 123/123/195 318/318/194 319/423/260 69/446/259
f 177/177/258 178/178/196 123/123/195 69/446/259
f 125/125/201 166/166/200 167/447/257 67/422/256
f 364/364/255 365/365/202 125/125/201 67/422/256
f 127/127/207 206/206/206 207/439/254 65/426/253
f 307/307/252 308/308/208 127/127/207 65/426/253
f 129/129/213 258/258/212 259/431/251 63/430/250
f 279/279/249 280/280/214 129/129/213 63/430/250
f 115/115/173 230/230/217 231/435/248 61/442/247
f 11/11/267 265/265/268 266/266/269 131/131/270
f 133/133/271 300/300/272 301/301/273 10/10/274
f 33/33/275 134/134/276 399/399/277 400/400/278
f 135/135/279 336/336/280 337/337/281 49/49/282
f 107/107/283 136/136/284 135/135/279 49/49/282
f 66/66/285 137/452/286 136/136/284 107/107/283
f 126/126/287 138/138/288 137/137/286 66/440/285
f 85/85/289 139/139/290 138/138/288 126/126/287
f 85/85/289 311/311/291 312/312/292 139/139/290
f 141/141/293 254/254/294 255/255/295 91/91/296
f 283/283/297 284/284/298 141/141/293 91/91/296
f 143/143/299 226/226/300 227/227/301 75/74/302
f 144/144/303 143/143/299 75/74/302 116/116/304
f 145/420/305 144/144/303 116/116/304 60/451/306
f 146/146/307 145/145/305 60/60/306 101/101/308
f 147/147/309 146/146/307 101/101/308 55/55/310
f 349/349/311 350/350/312 147/147/309 55/55/310
f 412/412/313 413/413/314 148/148/315 39/39/316
f 237/237/317 238/238/318 149/149/319 12/12/320
f 131/131/270 272/272/321 273/273/322 11/11/267
f 15/15/323 297/297/324 298/298/28 151/151/27
f 153/153/37 240/240/46 241/241/325 14/14/326
f 14/14/326 269/269/327 270/270/38 153/153/37
f 155/155/26 212/212/25 213/213/328 13/13/329
f 41/41/330 156/156/95 416/416/94 417/417/331
f 157/157/142 352/352/141 353/353/332 56/56/333
f 158/158/146 157/157/142 56/56/333 99/99/334
f 159/449/243 158/158/146 99/99/334 58/58/335
f 118/118/336 160/160/178 159/159/243 58/444/335
f 77/77/337 161/161/179 160/160/178 118/118/336
f 77/77/337 223/223/338 224/224/236 161/161/179
f 163/163/234 286/286/233 287/287/339 97/97/340
f 251/251/341 252/252/235 163/163/234 97/97/340
f 314/314/237 315/315/342 83/83/343 165/165/199
f 166/166/200 165/165/199 83/83/343 124/124/344
f 167/447/257 166/166/200 124/124/344 68/448/345
f 168/168/160 167/167/257 68/68/345 109/109/346
f 169/169/115 168/168/160 109/109/346 47/47/347
f 333/333/348 334/334/116 169/169/115 47/47/347
f 395/395/349 396/396/67 170/170/66 31/31/350
f 241/241/325 242/242/43 171/171/41 14/14/326
f 173/173/4 296/296/3 297/297/324 15/15/323
f 31/31/350 174/174/65 394/394/64 395/395/349
f 175/175/113 332/332/112 333/333/348 47/47/347
f 109/109/346 176/176/161 175/175/113 47/47/347
f 68/68/345 177/445/258 176/176/161 109/109/346
f 124/124/344 178/178/196 177/177/258 68/448/345
f 83/83/343 179/179/197 178/178/196 124/124/344
f 315/315/342 316/316/240 179/179/197 83/83/343
f 181/181/239 250/250/238 251/251/341 97/97/340
f 287/287/339 288/288/241 181/181/239 97/97/340
f 183/183/181 222/222/242 223/223/338 77/77/337
f 184/184/182 183/183/181 77/77/337 118/118/336
f 185/443/266 184/184/182 118/118/336 58/444/335
f 99/99/334 186/186/169 185/185/266 58/58/335
f 56/56/333 187/187/138 186/186/169 99/99/334
f 353/353/332 354/354/139 187/187/138 56/56/333
f 417/417/331 418/418/97 188/188/96 41/41/330
f 213/213/328 214/214/7 189/189/6 13/13/329
f 171/171/41 268/268/40 269/269/327 14/14/326
f 301/301/273 302/302/10 191/191/9 10/10/274
f 193/193/29 264/264/49 265/265/268 11/11/267
f 11/11/267 273/273/322 274/274/30 193/193/29
f 195/195/15 236/236/14 237/237/317 12/12/320
f 196/196/89 411/411/88 412/412/313 39/39/316
f 55/55/310 197/197/137 348/348/136 349/349/311
f 101/101/308 198/198/149 197/197/137 55/55/310
f 60/60/306 199/441/246 198/198/149 101/101/308
f 116/116/304 200/200/170 199/199/246 60/451/306
f 75/74/302 201/201/171 200/200/170 116/116/304
f 227/227/301 228/228/230 201/201/171 75/74/302
f 91/91/296 203/203/221 282/282/227 283/283/297
f 255/255/295 256/256/222 203/203/221 91/91/296
f 205/205/205 310/310/218 311/311/291 85/85/289
f 206/206/206 205/205/205 85/85/289 126/126/287
f 207/439/254 206/206/206 126/126/287 66/440/285
f 208/208/157 207/207/254 66/66/285 107/107/283
f 209/209/120 208/208/157 107/107/283 49/49/282
f 337/337/281 338/338/121 209/209/120 49/49/282
f 400/400/278 401/401/74 210/210/73 33/33/275
f 18/18/351 154/154/352 212/212/25 211/211/24
f 213/213/328 212/212/25 154/154/352 19/19/353
f 190/190/354 214/214/7 213/213/328 19/19/353
f 215/215/8 214/214/7 190/190/354 20/20/355
f 27/26/356 216/216/52 386/386/51 387/387/357
f 43/42/358 217/217/100 324/324/99 325/325/359
f 113/113/360 218/218/167 217/217/100 43/42/358
f 72/72/361 219/437/264 218/218/167 113/113/360
f 120/120/362 220/220/184 219/219/264 72/428/361
f 79/79/363 221/221/185 220/220/184 120/120/362
f 222/222/242 221/221/185 79/79/363 182/182/364
f 223/223/338 222/222/242 182/182/364 96/96/365
f 224/224/236 223/223/338 96/96/365 162/162/366
f 225/225/231 224/224/236 162/162/366 95/95/367
f 95/95/367 372/372/368 373/373/232 225/225/231
f 227/227/301 226/226/300 142/142/369 94/94/370
f 94/94/370 202/202/371 228/228/230 227/227/301
f 229/229/216 228/228/230 202/202/371 89/89/372
f 230/230/217 229/229/216 89/89/372 130/130/373
f 231/435/248 230/230/217 130/130/373 62/436/374
f 232/232/151 231/231/248 62/62/374 103/103/375
f 233/233/132 232/232/151 103/103/375 53/53/376
f 345/345/377 346/346/133 233/233/132 53/53/376
f 408/408/378 409/409/85 234/234/84 37/37/379
f 16/16/380 194/194/381 236/236/14 235/235/13
f 237/237/317 236/236/14 194/194/381 17/17/382
f 150/150/383 238/238/318 237/237/317 17/17/382
f 211/211/24 382/382/23 383/383/384 18/18/351
f 23/23/385 152/152/386 240/240/46 239/239/45
f 241/241/325 240/240/46 152/152/386 22/22/387
f 22/22/387 172/172/388 242/242/43 241/241/325
f 243/243/44 242/242/43 172/172/388 21/21/389
f 244/244/59 390/390/58 391/391/390 29/29/391
f 45/45/392 245/245/107 328/328/106 329/329/393
f 246/246/164 245/245/107 45/45/392 111/111/394
f 247/433/261 246/246/164 111/111/394 70/70/395
f 122/122/396 248/248/190 247/247/261 70/424/395
f 81/81/397 249/249/191 248/248/190 122/122/396
f 81/81/397 180/180/398 250/250/238 249/249/191
f 251/251/341 250/250/238 180/180/398 98/98/399
f 164/164/400 252/252/235 251/251/341 98/98/399
f 93/93/401 253/253/223 252/252/235 164/164/400
f 93/93/401 368/368/402 369/369/224 253/253/223
f 255/255/295 254/254/294 140/140/403 92/92/404
f 92/92/404 204/204/405 256/256/222 255/255/295
f 257/257/211 256/256/222 204/204/405 87/87/406
f 258/258/212 257/257/211 87/87/406 128/128/407
f 259/431/251 258/258/212 128/128/407 64/432/408
f 260/260/154 259/259/251 64/64/408 105/105/409
f 261/261/126 260/260/154 105/105/409 51/51/410
f 341/341/411 342/342/127 261/261/126 51/51/410
f 404/404/412 405/405/79 262/262/78 35/35/413
f 264/264/49 263/263/48 25/25/414 192/192/415
f 265/265/268 264/264/49 192/192/415 24/24/416
f 266/266/269 265/265/268 24/24/416 132/132/417
f 239/239/45 356/356/47 357/357/418 23/23/385
f 20/20/355 190/190/354 268/268/40 267/267/39
f 269/269/327 268/268/40 190/190/354 19/19/353
f 270/270/38 269/269/327 19/19/353 154/154/352
f 271/271/33 270/270/38 154/154/352 18/18/351
f 18/18/351 383/383/384 384/384/34 271/271/33
f 273/273/322 272/272/321 150/150/383 17/17/382
f 274/274/30 273/273/322 17/17/382 194/194/381
f 275/275/31 274/274/30 194/194/381 16/16/380
f 37/37/379 276/276/83 407/407/82 408/408/378
f 277/277/131 344/344/130 345/345/377 53/53/376
f 103/103/375 278/278/152 277/277/131 53/53/376
f 62/62/374 279/429/249 278/278/152 103/103/375
f 130/130/373 280/280/214 279/279/249 62/436/374
f 89/89/372 281/281/215 280/280/214 130/130/373
f 202/202/371 282/282/227 281/281/215 89/89/372
f 283/283/297 282/282/227 202/202/371 94/94/370
f 142/142/369 284/284/298 283/283/297 94/94/370
f 95/95/367 285/285/229 371/371/228 372/372/368
f 286/286/233 285/285/229 95/95/367 162/162/366
f 287/287/339 286/286/233 162/162/366 96/96/365
f 96/96/365 182/182/364 288/288/241 287/287/339
f 289/289/187 288/288/241 182/182/364 79/79/363
f 290/290/188 289/289/187 79/79/363 120/120/362
f 291/427/263 290/290/188 120/120/362 72/428/361
f 292/292/166 291/291/263 72/72/361 113/113/360
f 293/293/103 292/292/166 113/113/360 43/42/358
f 325/325/359 326/326/104 293/293/103 43/42/358
f 387/387/357 388/388/55 294/294/54 27/26/356
f 296/296/3 295/295/2 21/21/389 172/172/388
f 297/297/324 296/296/3 172/172/388 22/22/387
f 298/298/28 297/297/324 22/22/387 152/152/386
f 299/299/17 298/298/28 152/152/386 23/23/385
f 23/23/385 357/357/418 358/358/18 299/299/17
f 301/301/273 300/300/272 132/132/417 24/24/416
f 24/24/416 192/192/415 302/302/10 301/301/273
f 303/303/11 302/302/10 192/192/415 25/25/414
f 35/35/413 304/304/77 403/403/76 404/404/412
f 305/305/125 340/340/124 341/341/411 51/51/410
f 105/105/409 306/306/155 305/305/125 51/51/410
f 64/64/408 307/425/252 306/306/155 105/105/409
f 128/128/407 308/308/208 307/307/252 64/432/408
f 87/87/406 309/309/209 308/308/208 128/128/407
f 310/310/218 309/309/209 87/87/406 204/204/405
f 311/311/291 310/310/218 204/204/405 92/92/404
f 312/312/292 311/311/291 92/92/404 140/140/403
f 313/313/220 367/367/219 368/368/402 93/93/401
f 164/164/400 314/314/237 313/313/220 93/93/401
f 98/98/399 315/315/342 314/314/237 164/164/400
f 98/98/399 180/180/398 316/316/240 315/315/342
f 317/317/193 316/316/240 180/180/398 81/81/397
f 318/318/194 317/317/193 81/81/397 122/122/396
f 319/423/260 318/318/194 122/122/396 70/424/395
f 320/320/163 319/319/260 70/70/395 111/111/394
f 321/321/109 320/320/163 111/111/394 45/45/392
f 329/329/393 330/330/110 321/321/109 45/45/392
f 391/391/390 392/392/62 322/322/61 29/29/391
f 216/216/52 324/324/99 323/323/98 26/27/53
f 325/325/359 324/324/99 216/216/52 27/26/356
f 294/294/54 326/326/104 325/325/359 27/26/356
f 327/327/105 326/326/104 294/294/54 28/28/57
f 244/244/59 328/328/106 327/327/105 28/28/57
f 329/329/393 328/328/106 244/244/59 29/29/391
f 322/322/61 330/330/110 329/329/393 29/29/391
f 331/331/111 330/330/110 322/322/61 30/30/60
f 30/30/60 174/174/65 332/332/112 331/331/111
f 333/333/348 332/332/112 174/174/65 31/31/350
f 170/170/66 334/334/116 333/333/348 31/31/350
f 335/335/117 334/334/116 170/170/66 32/32/69
f 32/32/69 360/360/71 361/361/118 335/335/117
f 337/337/281 336/336/280 134/134/276 33/33/275
f 33/33/275 210/210/73 338/338/121 337/337/281
f 339/339/122 338/338/121 210/210/73 34/34/72
f 34/34/72 304/304/77 340/340/124 339/339/122
f 341/341/411 340/340/124 304/304/77 35/35/413
f 35/35/413 262/262/78 342/342/127 341/341/411
f 343/343/128 342/342/127 262/262/78 36/36/81
f 36/36/81 276/276/83 344/344/130 343/343/128
f 345/345/377 344/344/130 276/276/83 37/37/379
f 37/37/379 234/234/84 346/346/133 345/345/377
f 347/347/134 346/346/133 234/234/84 38/38/87
f 196/196/89 348/348/136 347/347/134 38/38/87
f 349/349/311 348/348/136 196/196/89 39/39/316
f 39/39/316 148/148/315 350/350/312 349/349/311
f 351/351/140 379/379/145 380/380/91 40/40/90
f 40/40/90 156/156/95 352/352/141 351/351/140
f 353/353/332 352/352/141 156/156/95 41/41/330
f 188/188/96 354/354/139 353/353/332 41/41/330
f 323/323/98 354/354/139 188/188/96 26/27/53
f 131/131/270 266/266/269 356/356/47 355/355/35
f 357/357/418 356/356/47 266/266/269 132/132/417
f 358/358/18 357/357/418 132/132/417 300/300/272
f 359/359/19 358/358/18 300/300/272 133/133/271
f 398/398/70 399/399/277 134/134/276 360/360/71
f 361/361/118 360/360/71 134/134/276 336/336/280
f 362/362/119 361/361/118 336/336/280 135/135/279
f 135/135/279 136/136/284 363/363/158 362/362/119
f 136/136/284 137/452/286 364/421/255 363/363/158
f 137/137/286 138/138/288 365/365/202 364/364/255
f 138/138/288 139/139/290 366/366/203 365/365/202
f 139/139/290 312/312/292 367/367/219 366/366/203
f 368/368/402 367/367/219 312/312/292 140/140/403
f 369/369/224 368/368/402 140/140/403 254/254/294
f 370/370/225 369/369/224 254/254/294 141/141/293
f 284/284/298 371/371/228 370/370/225 141/141/293
f 372/372/368 371/371/228 284/284/298 142/142/369
f 373/373/232 372/372/368 142/142/369 226/226/300
f 374/374/175 373/373/232 226/226/300 143/143/299
f 375/375/176 374/374/175 143/143/299 144/144/303
f 376/419/245 375/375/176 144/144/303 145/420/305
f 377/377/148 376/376/245 145/145/305 146/146/307
f 378/378/144 377/377/148 146/146/307 147/147/309
f 147/147/309 350/350/312 379/379/145 378/378/144
f 380/380/91 379/379/145 350/350/312 148/148/315
f 413/413/314 414/414/92 380/380/91 148/148/315
f 382/382/23 381/381/22 149/149/319 238/238/318
f 383/383/384 382/382/23 238/238/318 150/150/383
f 384/384/34 383/383/384 150/150/383 272/272/321
f 355/355/35 384/384/34 272/272/321 131/131/270
f 215/215/8 386/386/51 385/385/50 6/5/5
f 387/387/357 386/386/51 215/215/8 20/20/355
f 20/20/355 267/267/39 388/388/55 387/387/357
f 389/389/56 388/388/55 267/267/39 2/2/42
f 2/2/42 243/243/44 390/390/58 389/389/56
f 391/391/390 390/390/58 243/243/44 21/21/389
f 295/295/2 392/392/62 391/391/390 21/21/389
f 393/393/63 392/392/62 295/295/2 1/1/1
f 173/173/4 394/394/64 393/393/63 1/1/1
f 395/395/349 394/394/64 173/173/4 15/15/323
f 15/15/323 151/151/27 396/396/67 395/395/349
f 397/397/68 396/396/67 151/151/27 4/4/20
f 359/359/19 398/398/70 397/397/68 4/4/20
f 133/133/271 399/399/277 398/398/70 359/359/19
f 400/400/278 399/399/277 133/133/271 10/10/274
f 191/191/9 401/401/74 400/400/278 10/10/274
f 402/402/75 401/401/74 191/191/9 7/8/12
f 303/303/11 403/403/76 402/402/75 7/8/12
f 404/404/412 403/403/76 303/303/11 25/25/414
f 25/25/414 263/263/48 405/405/79 404/404/412
f 406/406/80 405/405/79 263/263/48 8/7/32
f 275/275/31 407/407/82 406/406/80 8/7/32
f 408/408/378 407/407/82 275/275/31 16/16/380
f 16/16/380 235/235/13 409/409/85 408/408/378
f 410/410/86 409/409/85 235/235/13 9/9/16
f 9/9/16 195/195/15 411/411/88 410/410/86
f 412/412/313 411/411/88 195/195/15 12/12/320
f 149/149/319 413/413/314 412/412/313 12/12/320
f 381/381/22 414/414/92 413/413/314 149/149/319
f 415/415/93 414/414/92 381/381/22 5/6/21
f 155/155/26 416/416/94 415/415/93 5/6/21
f 417/417/331 416/416/94 155/155/26 13/13/329
f 13/13/329 189/189/6 418/418/97 417/417/331
f 385/385/50 418/418/97 189/189/6 6/5/5
