# This file uses centimeters as units for non-parametric coordinates.

g default
v 0.056858 0.658094 -0.233099
v -0.156221 0.658929 -0.298785
v -0.130837 0.656402 -0.013296
v 0.178006 0.638876 0.003032
v -0.100403 0.651880 0.281686
v 0.095833 0.644660 0.191265
v -0.440600 0.660172 0.000767
v -0.346995 0.660870 -0.217358
v -0.326099 0.662084 0.216009
v -0.424732 0.669628 0.078379
v -0.124743 0.652208 0.077690
v 0.162469 0.635200 0.072635
v 0.133061 0.635244 0.140707
v -0.116559 0.652561 0.173876
v -0.385648 0.673089 0.148248
v -0.076032 0.661622 -0.291717
v -0.039036 0.644702 -0.016749
v -0.036665 0.642883 0.071252
v -0.040484 0.650917 0.158143
v -0.022667 0.653067 0.265395
v -0.007376 0.661163 -0.271511
v 0.061423 0.631800 -0.018726
v 0.054018 0.635587 0.061134
v 0.035655 0.640090 0.134364
v 0.044998 0.652980 0.232635
v -0.183498 0.654848 0.278369
v -0.203384 0.657211 0.171668
v -0.215195 0.656088 0.081187
v -0.222047 0.662162 -0.008370
v -0.226797 0.657912 -0.287512
v -0.261155 0.660386 0.255588
v -0.290206 0.666859 0.158908
v -0.310270 0.661310 0.079275
v -0.325168 0.656825 -0.000009
v -0.293389 0.660860 -0.256004
v -0.432321 0.660035 -0.081609
v -0.317718 0.658472 -0.098514
v -0.227017 0.663110 -0.098531
v -0.138527 0.661165 -0.105072
v -0.048950 0.653926 -0.104953
v 0.045832 0.639614 -0.103780
v 0.166381 0.642734 -0.089050
v -0.392122 0.660384 -0.164088
v -0.309033 0.660064 -0.171725
v -0.225116 0.657928 -0.192835
v -0.145964 0.660139 -0.198898
v -0.065645 0.657625 -0.195397
v 0.014088 0.656474 -0.186364
v 0.111925 0.652447 -0.182029
v -0.435893 0.652157 -0.077083
v -0.393210 0.589280 -0.173363
v -0.447308 0.645488 -0.000752
v -0.432339 0.636592 0.072829
v -0.395477 0.604563 0.149859
v -0.338018 0.571384 0.225040
v -0.245464 0.593855 0.268184
v -0.176650 0.600987 0.285270
v -0.093011 0.623822 0.287382
v -0.020346 0.625642 0.268411
v 0.043445 0.619938 0.238503
v 0.100476 0.593977 0.190115
v 0.136864 0.561655 0.144400
v 0.169283 0.551204 0.056802
v 0.177878 0.560308 -0.018118
v 0.167244 0.574861 -0.087983
v 0.118521 0.589022 -0.182856
v 0.067375 0.627345 -0.232383
v -0.006761 0.633742 -0.277098
v -0.081873 0.630329 -0.299656
v -0.164497 0.630795 -0.302744
v -0.231807 0.605566 -0.288256
v -0.299918 0.600009 -0.258010
v -0.356018 0.594496 -0.215205
v -0.509327 0.645396 -0.104169
v -0.522433 0.636602 -0.025765
v -0.455298 0.590009 -0.206761
v -0.391938 0.589996 -0.259089
v -0.315422 0.590124 -0.297797
v -0.233289 0.593916 -0.312212
v -0.163961 0.622134 -0.323546
v -0.072194 0.625514 -0.335619
v -0.000613 0.632225 -0.307842
v 0.102673 0.610440 -0.275278
v 0.155845 0.584294 -0.218192
v 0.218182 0.566589 -0.107887
v 0.253793 0.561557 -0.039316
v 0.227523 0.510595 0.063721
v 0.181584 0.549790 0.183127
v 0.137543 0.596984 0.238110
v 0.077926 0.615012 0.295259
v -0.006048 0.617097 0.328456
v -0.092020 0.620581 0.333084
v -0.177927 0.595363 0.324131
v -0.247177 0.592058 0.297402
v -0.370800 0.559761 0.251013
v -0.443011 0.592731 0.172842
v -0.502262 0.626480 0.082969
v -0.539678 0.434952 -0.154214
v -0.538877 0.433323 -0.058394
v -0.528013 0.435890 0.056307
v -0.473350 0.433865 0.170552
v -0.358772 0.420535 0.267467
v -0.265132 0.420609 0.311600
v -0.167037 0.423593 0.337501
v -0.085097 0.433832 0.344098
v -0.007518 0.436326 0.326975
v 0.066587 0.433287 0.299867
v 0.142420 0.437162 0.257618
v 0.218904 0.432541 0.159770
v 0.252515 0.424740 0.080240
v 0.285037 0.419203 -0.025848
v 0.258487 0.416383 -0.108812
v 0.178851 0.423395 -0.223393
v 0.130205 0.425874 -0.298721
v 0.041872 0.429745 -0.373669
v -0.478117 0.435351 -0.251196
v -0.402052 0.425544 -0.298621
v -0.317765 0.428846 -0.341464
v -0.243819 0.425557 -0.360721
v -0.159729 0.422782 -0.370603
v -0.059860 0.429309 -0.383976
v -0.424354 0.205351 0.177028
v -0.323226 0.213744 0.305805
v -0.480054 0.207078 0.059483
v -0.510581 0.214994 -0.094138
v -0.497959 0.208486 -0.175981
v -0.465988 0.212668 -0.294047
v -0.374562 0.215841 -0.340349
v -0.296678 0.215542 -0.360302
v -0.224643 0.218291 -0.393672
v -0.132058 0.219060 -0.414911
v -0.027961 0.200906 -0.429698
v 0.089108 0.175660 -0.419652
v 0.161727 0.168683 -0.337050
v 0.261767 0.174182 -0.254728
v 0.320377 0.184297 -0.130543
v 0.355095 0.207942 -0.024979
v 0.298866 0.206063 0.061557
v 0.270879 0.208538 0.148225
v 0.189305 0.201836 0.233621
v 0.109861 0.201856 0.295379
v 0.023730 0.216180 0.365116
v -0.255104 0.209908 0.348017
v -0.168025 0.213733 0.383455
v -0.065124 0.204491 0.390643
v -0.641730 0.018386 -0.209875
v -0.653586 0.014731 -0.137807
v -0.373528 0.024861 -0.359098
v -0.476138 0.020785 -0.295595
v 0.137506 0.065145 -0.525948
v 0.018104 0.072707 -0.552793
v 0.126073 -0.000835 -0.692599
v 0.069142 -0.001131 -0.696122
v -0.082433 0.056934 -0.479619
v -0.269177 0.037832 -0.412866
v -0.182948 0.040772 -0.429664
v 0.171436 0.021184 -0.383822
v 0.362046 0.019268 -0.334107
v 0.477880 -0.013187 -0.185077
v 0.405411 0.011330 0.068201
v 0.411671 0.004916 0.166277
v 0.295275 0.000752 0.203705
v 0.178905 0.004783 0.305357
v 0.127786 0.009669 0.449007
v -0.030238 0.015961 0.549121
v -0.160400 0.077534 0.563440
v -0.222895 0.010958 0.465689
v -0.333234 0.043143 0.415099
v -0.469860 0.023021 0.241940
v -0.539886 0.018298 0.060415
v -0.299682 -0.299442 0.383906
v -0.203082 -0.304421 0.454349
v -0.443994 -0.296330 0.214728
v -0.512969 -0.306263 0.041024
v -0.585004 -0.281907 -0.113256
v -0.559917 -0.272524 -0.201087
v -0.442148 -0.279394 -0.276465
v -0.325772 -0.278385 -0.308842
v -0.217640 -0.259070 -0.367251
v -0.140490 -0.268211 -0.423571
v -0.060023 -0.259271 -0.490270
v 0.014250 -0.287532 -0.514847
v 0.054673 -0.262976 -0.558028
v 0.110128 -0.279397 -0.470773
v 0.098422 -0.260111 -0.545268
v 0.159753 -0.272830 -0.383205
v 0.315710 -0.275894 -0.292280
v 0.466171 -0.290266 -0.107729
v 0.374496 -0.288342 0.051116
v 0.319180 -0.291779 0.119242
v 0.254610 -0.291635 0.192850
v 0.166416 -0.286455 0.282283
v 0.097423 -0.287539 0.413475
v -0.028294 -0.302608 0.469871
v -0.171543 -0.231943 0.613402
v -0.162272 -0.004081 0.722099
v -0.096200 -0.214964 0.595129
v -0.073830 -0.018715 0.700967
v -0.115753 0.007239 0.722294
v -0.131139 -0.312541 0.490462
v -0.133625 -0.218989 0.637024
v -0.227661 -0.069422 0.471849
v -0.346897 -0.045745 0.423890
v -0.472879 -0.058810 0.242124
v -0.542036 -0.062733 0.083045
v -0.653647 -0.062570 -0.122623
v -0.637853 -0.058779 -0.226571
v -0.471672 -0.055993 -0.301865
v -0.362611 -0.052694 -0.348770
v -0.258088 -0.039190 -0.405720
v -0.174973 -0.038452 -0.435199
v -0.082623 -0.023482 -0.490912
v -0.002328 -0.008642 -0.558353
v 0.052840 -0.073209 -0.678007
v 0.141467 -0.070025 -0.663014
v 0.157210 -0.020868 -0.508901
v 0.173813 -0.053694 -0.388817
v 0.367902 -0.058350 -0.350043
v 0.475299 -0.113211 -0.178824
v 0.408731 -0.084469 0.071728
v 0.411929 -0.080001 0.161323
v 0.286013 -0.073832 0.205226
v 0.181195 -0.069952 0.300707
v 0.129910 -0.067860 0.451030
v -0.012575 -0.069022 0.540594
v -0.065124 -0.073314 0.681870
v -0.117893 -0.060012 0.733036
v -0.174825 -0.053898 0.713446
v -0.226028 -0.183385 0.469316
v -0.332717 -0.171498 0.414245
v -0.466657 -0.175279 0.234870
v -0.533070 -0.181762 0.064359
v -0.628760 -0.171241 -0.113084
v -0.606454 -0.165523 -0.223604
v -0.463251 -0.165166 -0.300987
v -0.355348 -0.168017 -0.343760
v -0.239729 -0.146405 -0.390049
v -0.160209 -0.150060 -0.432400
v -0.073481 -0.138061 -0.493519
v -0.003813 -0.129304 -0.547498
v 0.048068 -0.167597 -0.625718
v 0.135693 -0.168226 -0.611456
v 0.147199 -0.180529 -0.518518
v 0.174410 -0.159204 -0.392341
v 0.351336 -0.169286 -0.333912
v 0.486789 -0.215796 -0.143589
v 0.400939 -0.193985 0.067517
v 0.368606 -0.183536 0.141949
v 0.273342 -0.179769 0.206068
v 0.175198 -0.175101 0.292185
v 0.116813 -0.175388 0.435674
v -0.014917 -0.184126 0.514011
v -0.082143 -0.146153 0.643608
v -0.128193 -0.145282 0.701834
v -0.183540 -0.127226 0.685925
v -0.096419 -0.336382 0.381090
v -0.019692 -0.336109 0.369545
v -0.172109 -0.335831 0.367518
v -0.255723 -0.336827 0.285593
v -0.360988 -0.337340 0.136393
v -0.428957 -0.337466 0.001723
v -0.466535 -0.336164 -0.081989
v -0.451625 -0.334429 -0.138446
v -0.390804 -0.333044 -0.196190
v -0.286554 -0.318309 -0.256170
v -0.189567 -0.311264 -0.312737
v -0.115967 -0.317373 -0.379007
v -0.064324 -0.320024 -0.427679
v -0.001190 -0.326662 -0.427979
v 0.066853 -0.320789 -0.402183
v 0.135742 -0.318469 -0.324363
v 0.249845 -0.325820 -0.234451
v 0.338670 -0.332134 -0.134753
v 0.358289 -0.331885 -0.044410
v 0.312860 -0.330164 0.012167
v 0.269733 -0.327936 0.077687
v 0.202500 -0.330458 0.151750
v 0.124228 -0.332565 0.231855
v 0.045418 -0.336472 0.328653
v -0.064940 -0.337758 -0.062302
v 0.086841 -0.336633 -0.236485
v 0.001396 -0.337758 -0.131907
v -0.125467 -0.337758 0.029568
v -0.190910 -0.337758 0.135521
v -0.010595 -0.337723 0.261403
v 0.056944 -0.337665 0.173984
v 0.126551 -0.337547 0.096412
v 0.184790 -0.337528 0.026228
v 0.228870 -0.337643 -0.076316
v 0.155772 -0.337148 -0.164639
v 0.068344 -0.337758 -0.068990
v 0.003734 -0.337758 -0.003052
v -0.051615 -0.337758 0.090714
v -0.115139 -0.337757 0.194393
v -0.269245 -0.337758 0.042370
v -0.196299 -0.337758 -0.045186
v -0.128111 -0.337688 -0.122597
v -0.062827 -0.337624 -0.192997
v 0.002291 -0.337454 -0.283338
v -0.061710 -0.336112 -0.324053
v -0.127434 -0.331591 -0.249397
v -0.199257 -0.335026 -0.182696
v -0.262856 -0.337751 -0.116515
v -0.334083 -0.337757 -0.056624
v -0.556987 0.093697 -0.187542
v -0.568590 0.095790 -0.117004
v -0.501024 0.106216 0.057256
v -0.450141 0.112427 0.211487
v -0.326293 0.124208 0.360038
v -0.239420 0.108034 0.409799
v -0.162220 0.134079 0.469558
v -0.048554 0.101978 0.466135
v 0.074087 0.106308 0.404714
v 0.145296 0.100205 0.300452
v 0.242981 0.098060 0.216223
v 0.326231 0.092475 0.149483
v 0.351323 0.104201 0.063665
v 0.424816 0.096930 -0.119232
v 0.322123 0.080049 -0.298277
v 0.170496 0.080955 -0.365707
v 0.107295 0.111759 -0.472148
v -0.002466 0.131242 -0.489356
v -0.104076 0.131323 -0.438531
v -0.201377 0.126447 -0.408282
v -0.281193 0.122020 -0.381286
v -0.377451 0.118638 -0.357877
v -0.459384 0.113361 -0.287660
v -0.334797 0.314038 0.280989
v -0.442357 0.317925 0.170633
v -0.496153 0.320014 0.056058
v -0.518984 0.321880 -0.077374
v -0.511781 0.319445 -0.164175
v -0.468543 0.319581 -0.270036
v -0.386829 0.317147 -0.318398
v -0.307674 0.318788 -0.353570
v -0.234383 0.318734 -0.379004
v -0.145515 0.317945 -0.394833
v -0.043062 0.310946 -0.399850
v 0.065825 0.297922 -0.395347
v 0.144434 0.279041 -0.318857
v 0.215814 0.271955 -0.235893
v 0.259402 0.298996 -0.130517
v 0.307168 0.303540 -0.025029
v 0.269409 0.310861 0.068400
v 0.239608 0.315898 0.149524
v 0.163587 0.315520 0.242028
v 0.085351 0.313636 0.291761
v 0.003860 0.319735 0.334573
v -0.067590 0.295758 0.355952
v -0.165330 0.312670 0.347441
v -0.256382 0.310942 0.320200
v 0.479535 -0.206452 0.018207
v 0.504221 -0.110284 0.026272
v 0.506322 -0.005642 0.030007
v -0.185850 -0.261972 0.553497
v -0.208192 -0.149464 0.603983
v -0.209441 -0.060198 0.622776
v -0.207224 0.004496 0.627353
v -0.132644 0.042775 0.664155
v -0.056731 -0.005230 0.642555
v -0.049471 -0.070612 0.626218
v -0.066664 -0.156681 0.588502
v -0.074895 -0.245316 0.541866
v -0.132205 -0.256348 0.581463
v 0.438740 -0.293978 -0.011242
v 0.442289 0.106579 -0.024667
v 0.639252 0.004003 -0.016837
v 0.641878 -0.006046 -0.082839
v 0.631398 -0.062216 -0.093780
v 0.585762 -0.149578 -0.091394
v 0.546910 -0.218070 -0.081260
v 0.589134 -0.143935 -0.006810
v 0.541159 -0.210621 -0.016978
v 0.628625 -0.056413 0.001142
v 0.514906 -0.258914 -0.076342
v 0.505206 -0.256634 -0.025788
v -0.537954 0.584251 -0.030541
v -0.527342 0.594539 -0.121279
v -0.467844 0.554411 -0.228700
v -0.401593 0.550487 -0.278145
v -0.316888 0.550203 -0.318464
v -0.238935 0.553548 -0.333715
v -0.169075 0.576397 -0.343033
v -0.065998 0.579175 -0.364344
v 0.012152 0.581710 -0.332942
v 0.115206 0.563365 -0.286189
v 0.169142 0.542828 -0.223412
v 0.238336 0.529868 -0.113509
v 0.268856 0.526361 -0.029292
v 0.240307 0.492889 0.069220
v 0.197674 0.520413 0.180618
v 0.144899 0.555566 0.248902
v 0.077783 0.567250 0.303323
v -0.003418 0.568445 0.334135
v -0.090148 0.572185 0.346642
v -0.180413 0.553643 0.336052
v -0.258795 0.546213 0.306022
v -0.367829 0.524150 0.261694
v -0.462003 0.554139 0.182249
v -0.526187 0.579023 0.080436
vt 0.699406 0.698366
vt 0.808787 0.658804
vt 0.801116 0.805338
vt 0.646716 0.820210
vt 0.792253 0.957236
vt 0.689570 0.913649
vt 0.905869 0.698066
vt 0.959891 0.807420
vt 0.904194 0.917399
vt 0.951169 0.847398
vt 0.799558 0.851995
vt 0.654202 0.854654
vt 0.669240 0.888944
vt 0.797419 0.901479
vt 0.931716 0.882188
vt 0.767064 0.664137
vt 0.754636 0.805850
vt 0.754857 0.850703
vt 0.758591 0.895049
vt 0.751492 0.950302
vt 0.731935 0.676509
vt 0.704163 0.807479
vt 0.708829 0.847517
vt 0.719134 0.883957
vt 0.716379 0.933939
vt 0.834907 0.952597
vt 0.841068 0.897632
vt 0.845242 0.851502
vt 0.847347 0.805847
vt 0.845031 0.664014
vt 0.872239 0.937666
vt 0.884743 0.889101
vt 0.893239 0.848364
vt 0.900239 0.808101
vt 0.878905 0.679457
vt 0.953530 0.764444
vt 0.894006 0.758569
vt 0.847944 0.760052
vt 0.803063 0.758224
vt 0.757808 0.760333
vt 0.709877 0.764024
vt 0.650156 0.774932
vt 0.929078 0.723554
vt 0.887604 0.721704
vt 0.845011 0.712089
vt 0.804768 0.710090
vt 0.763902 0.713682
vt 0.723368 0.720475
vt 0.673885 0.726467
vt 0.357055 0.420480
vt 0.409895 0.442834
vt 0.449978 0.445787
vt 0.488313 0.447288
vt 0.531634 0.441752
vt 0.576414 0.435053
vt 0.153030 0.883995
vt 0.184334 0.880411
vt 0.224050 0.881521
vt 0.259549 0.878129
vt 0.292719 0.871477
vt 0.328802 0.858656
vt 0.355774 0.844441
vt 0.395736 0.839835
vt 0.427649 0.850450
vt 0.460209 0.860110
vt 0.501267 0.880495
vt 0.523762 0.904534
vt 0.171545 0.435597
vt 0.204325 0.427046
vt 0.238599 0.418303
vt 0.267973 0.408626
vt 0.300342 0.410097
vt 0.331664 0.414879
vt 0.413922 0.412146
vt 0.442926 0.415264
vt 0.366432 0.393472
vt 0.333274 0.392010
vt 0.298477 0.392644
vt 0.264684 0.397959
vt 0.235836 0.409731
vt 0.198861 0.413031
vt 0.170141 0.423290
vt 0.540164 0.887430
vt 0.515744 0.864848
vt 0.470036 0.840500
vt 0.444478 0.825908
vt 0.400811 0.810269
vt 0.346282 0.821881
vt 0.316959 0.838584
vt 0.286133 0.846657
vt 0.252618 0.853837
vt 0.220607 0.863034
vt 0.184111 0.864464
vt 0.154652 0.872294
vt 0.576007 0.417422
vt 0.529696 0.420404
vt 0.484813 0.420386
vt 0.444420 0.333237
vt 0.407061 0.329272
vt 0.488831 0.343213
vt 0.538226 0.353524
vt 0.598532 0.362750
vt 0.127078 0.805822
vt 0.169035 0.793829
vt 0.204447 0.788335
vt 0.238599 0.782813
vt 0.272039 0.776270
vt 0.309477 0.774703
vt 0.362629 0.772606
vt 0.399475 0.771063
vt 0.447119 0.770671
vt 0.483885 0.778704
vt 0.538266 0.801290
vt 0.572036 0.815593
vt 0.140964 0.339795
vt 0.362483 0.325939
vt 0.326985 0.322159
vt 0.288979 0.324481
vt 0.258068 0.324905
vt 0.223554 0.326392
vt 0.182351 0.332804
vt 0.635480 0.283007
vt 0.566658 0.263446
vt 0.511144 0.252265
vt 0.442211 0.244488
vt 0.405009 0.237890
vt 0.352425 0.236172
vt 0.309982 0.236855
vt 0.276602 0.238173
vt 0.243551 0.240274
vt 0.203347 0.243080
vt 0.156648 0.239750
vt 0.100590 0.238964
vt 0.056567 0.254521
vt 0.574111 0.698271
vt 0.514879 0.687553
vt 0.463323 0.680524
vt 0.417224 0.680865
vt 0.377433 0.678149
vt 0.326529 0.677245
vt 0.283311 0.680192
vt 0.234507 0.690167
vt 0.104099 0.720585
vt 0.145585 0.708010
vt 0.192382 0.693671
vt 0.416823 0.147485
vt 0.439851 0.149040
vt 0.352534 0.155924
vt 0.305730 0.157602
vt 0.134583 0.176246
vt 0.082090 0.179761
vt 0.099236 0.140983
vt 0.114280 0.137258
vt 0.181846 0.173663
vt 0.259699 0.163119
vt 0.225558 0.165800
vt 0.025365 0.190971
vt 0.606457 0.623477
vt 0.550452 0.591171
vt 0.428239 0.590225
vt 0.397770 0.580531
vt 0.357593 0.584853
vt 0.301931 0.588575
vt 0.249103 0.588237
vt 0.189487 0.596749
vt 0.139787 0.628403
vt 0.087620 0.628971
vt 0.054983 0.653972
vt 0.590570 0.184525
vt 0.518332 0.170284
vt 0.635142 0.427506
vt 0.630379 0.380529
vt 0.642902 0.293946
vt 0.677234 0.228696
vt 0.704183 0.165728
vt 0.736846 0.149314
vt 0.790690 0.163966
vt 0.831774 0.189078
vt 0.878460 0.201710
vt 0.914722 0.211522
vt 0.956635 0.218019
vt 0.117722 0.030361
vt 0.102459 0.051292
vt 0.994647 0.280208
vt 0.081333 0.054162
vt 0.985025 0.318831
vt 0.996197 0.388933
vt 0.542123 0.467194
vt 0.905281 0.498393
vt 0.870622 0.499154
vt 0.832099 0.499417
vt 0.782748 0.498270
vt 0.725163 0.509339
vt 0.168928 0.457575
vt 0.110653 0.519307
vt 0.133117 0.580413
vt 0.156590 0.574338
vt 0.141607 0.510548
vt 0.144321 0.579819
vt 0.125998 0.520403
vt 0.105506 0.469077
vt 0.069702 0.595358
vt 0.672820 0.170416
vt 0.595712 0.149708
vt 0.531936 0.136657
vt 0.448961 0.121187
vt 0.412702 0.119873
vt 0.348594 0.122808
vt 0.303393 0.123669
vt 0.257362 0.130109
vt 0.223864 0.130475
vt 0.184877 0.137827
vt 0.151068 0.143513
vt 0.116973 0.116584
vt 0.090317 0.122257
vt 0.051921 0.153551
vt 0.687931 0.627207
vt 0.620220 0.594590
vt 0.562042 0.549463
vt 0.426291 0.544400
vt 0.397299 0.548796
vt 0.353727 0.550870
vt 0.303156 0.553874
vt 0.248388 0.555317
vt 0.195291 0.557790
vt 0.159817 0.558530
vt 0.141104 0.564438
vt 0.125033 0.570010
vt 0.056877 0.544525
vt 0.687927 0.117908
vt 0.604138 0.100835
vt 0.533746 0.085489
vt 0.455831 0.079473
vt 0.411407 0.079145
vt 0.349066 0.076528
vt 0.303021 0.074634
vt 0.253241 0.083009
vt 0.217873 0.081251
vt 0.178807 0.087375
vt 0.149794 0.091611
vt 0.112160 0.087275
vt 0.080040 0.091973
vt 0.052258 0.085788
vt 0.703750 0.580141
vt 0.636806 0.551592
vt 0.552216 0.503013
vt 0.429779 0.495213
vt 0.397142 0.503340
vt 0.352470 0.503985
vt 0.302079 0.507147
vt 0.243647 0.509553
vt 0.185785 0.506435
vt 0.153343 0.534341
vt 0.134364 0.543715
vt 0.117349 0.552220
vt 0.686107 0.439739
vt 0.709202 0.459274
vt 0.670684 0.413984
vt 0.673328 0.368392
vt 0.690108 0.299116
vt 0.712270 0.244741
vt 0.727312 0.212644
vt 0.747424 0.202481
vt 0.779716 0.205181
vt 0.824942 0.218573
vt 0.867361 0.231617
vt 0.905860 0.238011
vt 0.932765 0.242048
vt 0.949073 0.260190
vt 0.955263 0.326991
vt 0.959533 0.286469
vt 0.956831 0.383946
vt 0.949349 0.435362
vt 0.869734 0.470140
vt 0.900079 0.465784
vt 0.830568 0.469321
vt 0.786703 0.466937
vt 0.737872 0.467888
vt 0.825062 0.334952
vt 0.928216 0.464161
vt 0.915660 0.335119
vt 0.862616 0.336597
vt 0.782395 0.340891
vt 0.734266 0.348915
vt 0.743468 0.434273
vt 0.786584 0.431956
vt 0.827299 0.432518
vt 0.862898 0.431585
vt 0.904268 0.418011
vt 0.911911 0.373820
vt 0.861179 0.372587
vt 0.825171 0.370538
vt 0.783315 0.378414
vt 0.736408 0.386313
vt 0.741548 0.302019
vt 0.786247 0.300781
vt 0.826643 0.300672
vt 0.864136 0.301815
vt 0.907558 0.298269
vt 0.902955 0.268986
vt 0.864240 0.267792
vt 0.826042 0.263996
vt 0.790109 0.262814
vt 0.753990 0.257692
vt 0.409721 0.187463
vt 0.440642 0.191531
vt 0.514682 0.210427
vt 0.578955 0.223140
vt 0.063494 0.692359
vt 0.099625 0.673255
vt 0.140920 0.663060
vt 0.190665 0.644537
vt 0.243985 0.636792
vt 0.293959 0.634137
vt 0.344528 0.630461
vt 0.386603 0.625681
vt 0.423079 0.634708
vt 0.513541 0.636836
vt 0.594032 0.653979
vt 0.039285 0.218168
vt 0.090780 0.206498
vt 0.143148 0.205492
vt 0.190977 0.207225
vt 0.233246 0.202647
vt 0.267858 0.199547
vt 0.308009 0.196592
vt 0.352575 0.195673
vt 0.079182 0.775657
vt 0.553555 0.308005
vt 0.500550 0.296962
vt 0.443381 0.287883
vt 0.406478 0.282792
vt 0.358276 0.279276
vt 0.318368 0.278332
vt 0.282433 0.279911
vt 0.250182 0.281228
vt 0.212386 0.283519
vt 0.168736 0.285346
vt 0.121906 0.287350
vt 0.600078 0.760153
vt 0.559011 0.740781
vt 0.507033 0.737099
vt 0.455402 0.723581
vt 0.409246 0.724244
vt 0.370791 0.724241
vt 0.317975 0.725129
vt 0.276657 0.727435
vt 0.235279 0.734972
vt 0.199840 0.731975
vt 0.157316 0.749453
vt 0.115677 0.761655
vt 0.467745 0.495160
vt 0.458888 0.532057
vt 0.457050 0.575616
vt 0.094423 0.506242
vt 0.095409 0.548968
vt 0.104375 0.580150
vt 0.117733 0.599156
vt 0.143901 0.597620
vt 0.169473 0.582836
vt 0.173261 0.558479
vt 0.164413 0.523997
vt 0.147653 0.490808
vt 0.120553 0.502927
vt 0.480559 0.455415
vt 0.472949 0.629692
vt 0.489452 0.567914
vt 0.507904 0.570362
vt 0.514975 0.554370
vt 0.519800 0.526408
vt 0.519252 0.502295
vt 0.493151 0.500628
vt 0.491287 0.525578
vt 0.487220 0.551141
vt 0.520701 0.485289
vt 0.496724 0.481382
vt 0.445074 0.393428
vt 0.410557 0.391352
vt 0.363643 0.375569
vt 0.331667 0.373645
vt 0.294609 0.374540
vt 0.262989 0.378721
vt 0.235571 0.389474
vt 0.194005 0.392134
vt 0.161906 0.401304
vt 0.549037 0.868820
vt 0.521738 0.847925
vt 0.475357 0.823982
vt 0.442336 0.811667
vt 0.400546 0.800493
vt 0.350585 0.808611
vt 0.315881 0.821757
vt 0.282238 0.828191
vt 0.248779 0.834401
vt 0.215576 0.843701
vt 0.178746 0.847086
vt 0.145341 0.854776
vt 0.583573 0.403575
vt 0.532875 0.402620
vt 0.486297 0.399861
vt 0.931858 0.676388
vt 0.955025 0.698264
vt 0.897101 0.654180
vt 0.856595 0.639432
vt 0.814095 0.644308
vt 0.767369 0.647357
vt 0.725754 0.663324
vt 0.684150 0.690545
vt 0.643037 0.714711
vt 0.617413 0.771071
vt 0.607080 0.812030
vt 0.610267 0.856791
vt 0.634664 0.904991
vt 0.666948 0.926722
vt 0.708160 0.949265
vt 0.746558 0.963177
vt 0.788305 0.971766
vt 0.836973 0.980112
vt 0.878137 0.972796
vt 0.933607 0.952123
vt 0.960325 0.902102
vt 0.968682 0.849578
vt 0.968076 0.806359
vt 0.958337 0.765480
vt 0.116331 0.408238
vt 0.125682 0.427220
vt 0.076542 0.296271
vt 0.624517 0.717577
vt 0.651528 0.683554
vt 0.670059 0.659325
vt 0.002494 0.096751
vt 0.009206 0.151901
vt 0.096090 0.353967
vt 0.138264 0.448002
vt 0.054034 0.037725
vt 0.981030 0.240524
vt 0.941076 0.498718
vt 0.435022 0.455433
vt 0.977117 0.481257
vt 0.058444 0.489735
vt 0.644109 0.458117
vt 0.676266 0.484489
vt 0.236478 0.460442
vt 0.300175 0.460234
vt 0.352320 0.457038
vt 0.394608 0.454137
vt 0.649952 0.504215
vt 0.720696 0.534591
vt 0.009652 0.043268
vt 0.160232 0.036531
vt 0.206616 0.032358
vt 0.247511 0.034236
vt 0.298970 0.026161
vt 0.350495 0.028355
vt 0.413904 0.032501
vt 0.459635 0.033455
vt 0.534958 0.033578
vt 0.612646 0.050545
vt 0.707877 0.063509
vt 0.097302 0.862513
vt 0.099059 0.878193
vt 0.618614 0.322062
vt 0.086105 0.820500
vt 0.653604 0.244858
vt 0.668679 0.208544
vt 0.018694 0.568717
vt 0.003788 0.512725
vt 0.036478 0.620379
vt 0.070563 0.733999
vt 0.109516 0.892394
vn 0.330136 0.880481 -0.340241
vn 0.154441 0.946600 -0.283011
vn 0.033187 0.995014 0.094052
vn 0.459130 0.866307 -0.196751
vn 0.556431 0.829412 0.049598
vn 0.025606 0.998884 0.039698
vn 0.045338 0.998761 -0.020536
vn 0.608948 0.774449 0.171495
vn -0.492732 0.687484 -0.533462
vn -0.447001 0.846640 -0.288777
vn 0.005035 0.999987 -0.000260
vn -0.276188 0.819941 -0.501414
vn -0.290922 0.953923 0.073454
vn 0.049099 0.997207 -0.056277
vn 0.008916 0.999782 -0.018891
vn -0.127175 0.991710 -0.018389
vn -0.471492 0.604642 0.641953
vn -0.209203 0.773055 0.598849
vn 0.067335 0.997684 -0.009607
vn -0.452045 0.827350 0.333387
vn 0.588535 0.769826 0.246971
vn 0.058773 0.995739 -0.071065
vn 0.245750 0.947111 0.206365
vn 0.448351 0.855504 0.259027
vn 0.006567 0.999971 -0.003961
vn 0.034210 0.998726 0.037101
vn 0.054358 0.960693 -0.272238
vn -0.028972 0.944853 -0.326210
vn 0.095686 0.995194 -0.020797
vn 0.117129 0.992237 0.041795
vn 0.080652 0.995754 0.044382
vn 0.070282 0.997510 0.005825
vn 0.045692 0.997804 -0.047947
vn 0.037295 0.999224 -0.012640
vn 0.106343 0.970443 0.216636
vn 0.032183 0.943947 0.328525
vn 0.065923 0.997806 -0.006077
vn -0.031091 0.896189 0.442582
vn 0.048025 0.998845 -0.001327
vn 0.010042 0.999628 0.025339
vn -0.152770 0.885789 -0.438223
vn -0.000714 0.999908 -0.013531
vn -0.009054 0.999941 0.006051
vn -0.281587 0.951447 -0.124328
vn -0.008157 0.999966 -0.001557
vn 0.050523 0.998575 0.017198
vn 0.096832 0.993252 0.063826
vn 0.034624 0.993815 0.105509
vn 0.545668 0.828945 -0.122868
vn -0.238842 0.840315 -0.486647
vn -0.227933 0.922081 -0.312752
vn -0.291215 0.949558 0.116331
vn -0.429236 0.824671 0.368340
vn -0.493969 0.627550 0.601810
vn -0.470073 0.622166 0.626052
vn -0.400841 0.527452 0.749080
vn -0.239049 0.649252 0.722030
vn -0.048502 0.816264 0.575639
vn 0.175682 0.888388 0.424149
vn 0.376191 0.869438 0.320246
vn 0.670699 0.721708 0.171172
vn 0.767637 0.629843 0.118456
vn 0.761470 0.605915 0.230283
vn 0.760276 0.623251 0.183135
vn 0.741481 0.652560 -0.156111
vn 0.675528 0.696406 -0.242241
vn 0.563458 0.729249 -0.388215
vn 0.280688 0.818198 -0.501763
vn 0.059197 0.762425 -0.644363
vn -0.171359 0.556278 -0.813136
vn -0.355832 0.514383 -0.780252
vn -0.421199 0.605654 -0.675111
vn -0.501248 0.705994 -0.500323
vn -0.348459 0.879539 -0.324018
vn -0.621514 0.778798 0.084820
vn -0.265532 0.810406 -0.522241
vn -0.302871 0.838632 -0.452732
vn -0.245896 0.752348 -0.611153
vn -0.257730 0.657793 -0.707731
vn -0.209356 0.671880 -0.710456
vn 0.028240 0.696868 -0.716643
vn 0.273354 0.764009 -0.584438
vn 0.501528 0.714870 -0.487268
vn 0.615374 0.754701 -0.227466
vn 0.524061 0.836088 -0.162226
vn 0.524128 0.843652 0.116370
vn 0.577940 0.781136 0.236247
vn 0.663843 0.746336 0.047900
vn 0.589568 0.794034 0.148054
vn 0.413861 0.777944 0.472782
vn 0.182822 0.724541 0.664542
vn -0.084129 0.747106 0.659360
vn -0.283740 0.650172 0.704817
vn -0.357880 0.678623 0.641399
vn -0.385415 0.616175 0.686865
vn -0.384445 0.719661 0.578178
vn -0.534588 0.768791 0.350964
vn -0.995113 -0.088392 0.044020
vn -0.994500 0.097648 0.037880
vn -0.926966 0.209295 -0.311335
vn -0.952003 0.009936 -0.305927
vn -0.942230 0.093380 0.321686
vn -0.954357 -0.117588 0.274548
vn -0.797200 -0.100904 0.595224
vn -0.766220 0.074895 0.638199
vn -0.576349 -0.035241 0.816443
vn -0.538153 0.065979 0.840260
vn -0.363266 0.093634 0.926968
vn -0.357075 0.037747 0.933313
vn -0.186497 0.039191 0.981674
vn -0.216824 0.064883 0.974052
vn 0.047833 0.030443 0.998391
vn 0.018872 0.054140 0.998355
vn 0.288922 0.010832 0.957291
vn 0.256854 0.012896 0.966364
vn 0.475272 0.023892 0.879514
vn 0.455990 -0.004692 0.889973
vn 0.699060 0.075847 0.711029
vn 0.668204 0.023777 0.743598
vn 0.855423 0.098516 0.508475
vn 0.856301 0.164525 0.489571
vn 0.931746 0.150443 0.330479
vn 0.915142 0.252295 0.314423
vn 0.988032 0.153552 -0.014680
vn 0.966623 0.256033 -0.009368
vn 0.885113 0.138672 -0.444235
vn 0.870556 0.180308 -0.457844
vn 0.821473 0.170200 -0.544256
vn 0.822325 0.149159 -0.549121
vn 0.699531 0.192707 -0.688128
vn 0.627805 0.238227 -0.741018
vn 0.377480 0.290019 -0.879430
vn 0.406921 0.210236 -0.888941
vn -0.728412 0.242561 -0.640765
vn -0.752985 0.084326 -0.652612
vn -0.487644 0.245262 -0.837884
vn -0.482176 0.125175 -0.867086
vn -0.330724 0.250308 -0.909927
vn -0.352389 0.139302 -0.925428
vn -0.187825 0.251430 -0.949476
vn -0.196463 0.168896 -0.965855
vn -0.179726 0.239743 -0.954056
vn -0.141074 0.165266 -0.976107
vn 0.005128 0.173083 -0.984894
vn 0.022050 0.251896 -0.967503
vn -0.665394 0.263231 0.698542
vn -0.635653 -0.003295 0.771968
vn -0.809319 -0.122262 0.574503
vn -0.839777 0.151580 0.521343
vn -0.940908 -0.178786 0.287625
vn -0.944955 0.100981 0.311227
vn -0.983886 -0.164300 0.070523
vn -0.982843 0.147008 0.111391
vn -0.960294 -0.095153 -0.262263
vn -0.938410 0.157390 -0.307596
vn -0.777731 0.027394 -0.628000
vn -0.757031 0.109763 -0.644094
vn -0.443982 0.109225 -0.889354
vn -0.412733 0.113732 -0.903724
vn -0.356163 0.086850 -0.930379
vn -0.324341 0.111314 -0.939368
vn -0.246307 0.126389 -0.960916
vn -0.298243 0.111157 -0.947995
vn -0.121864 0.176634 -0.976703
vn -0.180766 0.206607 -0.961581
vn 0.013782 0.196666 -0.980374
vn -0.004086 0.362471 -0.931986
vn 0.435001 0.226152 -0.871567
vn 0.517395 0.420836 -0.745117
vn 0.715505 0.238597 -0.656601
vn 0.639019 0.370809 -0.673911
vn 0.783151 0.296119 -0.546798
vn 0.648181 0.516496 -0.559546
vn 0.852477 0.289935 -0.434995
vn 0.725264 0.571710 -0.383587
vn 0.957137 0.288834 -0.021528
vn 0.834186 0.545673 0.079846
vn 0.914782 0.202849 0.349323
vn 0.829796 0.377739 0.410794
vn 0.840037 0.144754 0.522862
vn 0.798326 0.279568 0.533402
vn 0.675434 0.088920 0.732040
vn 0.655188 0.194005 0.730131
vn 0.524822 0.107908 0.844345
vn 0.633321 0.265628 0.726875
vn 0.365572 0.170039 0.915120
vn 0.451702 0.405392 0.794747
vn -0.424866 0.377233 0.822912
vn -0.373600 0.142369 0.916599
vn -0.198809 0.489773 0.848880
vn -0.178908 0.187728 0.965790
vn 0.077748 0.233580 0.969224
vn 0.160138 0.514402 0.842464
vn -0.739443 0.487323 -0.464479
vn -0.841873 0.506303 0.186835
vn -0.453951 0.105834 -0.884719
vn -0.670224 0.218075 -0.709397
vn 0.562578 0.622686 -0.543846
vn -0.094360 0.614181 -0.783504
vn -0.308454 0.672074 -0.673182
vn 0.713676 0.599923 -0.361607
vn 0.602231 0.584205 -0.544079
vn -0.334088 0.623082 -0.707216
vn -0.343919 0.304628 -0.888213
vn -0.318113 0.158556 -0.934700
vn -0.313310 0.182389 -0.931972
vn 0.590679 0.470042 -0.655866
vn 0.563969 0.590600 -0.577175
vn 0.608905 0.689444 -0.392302
vn 0.707800 0.441867 0.551155
vn 0.724307 0.514720 0.458741
vn 0.612793 0.269856 0.742740
vn 0.713339 0.351743 0.606155
vn 0.557433 0.538367 0.632004
vn 0.310859 0.654747 0.688965
vn -0.227561 0.667544 0.708943
vn -0.505866 0.477126 0.718644
vn -0.620514 0.428307 0.656898
vn -0.813167 0.362325 0.455499
vn -0.873658 0.367756 0.318556
vn -0.517826 -0.691853 0.503185
vn -0.783769 -0.184561 0.592996
vn -0.685379 -0.190458 0.702839
vn -0.566038 -0.606847 0.557976
vn -0.844213 -0.187163 0.502269
vn -0.681461 -0.600868 0.417814
vn -0.892265 -0.190401 0.409403
vn -0.727517 -0.612163 0.309799
vn -0.935728 -0.255099 0.243592
vn -0.814740 -0.563598 0.136221
vn -0.699018 -0.263071 -0.664957
vn -0.598956 -0.594792 -0.536167
vn -0.416316 -0.196622 -0.887705
vn -0.357995 -0.588108 -0.725237
vn -0.361027 -0.211289 -0.908304
vn -0.275151 -0.579434 -0.767169
vn -0.418426 -0.201029 -0.885724
vn -0.417368 -0.478044 -0.772838
vn -0.528675 -0.131263 -0.838614
vn -0.557609 -0.385232 -0.735302
vn -0.562542 -0.098854 -0.820838
vn -0.515276 -0.321129 -0.794586
vn -0.737929 -0.140434 -0.660106
vn -0.336270 -0.654098 -0.677554
vn -0.366790 -0.622686 -0.691178
vn -0.518179 -0.390355 -0.760995
vn 0.963016 -0.194385 -0.186586
vn 0.689962 -0.645798 -0.326951
vn 0.551058 -0.689040 -0.470701
vn 0.813361 -0.346592 -0.467246
vn 0.666797 -0.185410 -0.721807
vn 0.557410 -0.571421 -0.602306
vn 0.567877 -0.247370 -0.785063
vn 0.485698 -0.596374 -0.639090
vn 0.692736 -0.358688 -0.625667
vn 0.566912 -0.730218 -0.381304
vn 0.566065 -0.635577 0.524988
vn 0.707322 -0.300150 0.640004
vn 0.698768 -0.288123 0.654758
vn 0.603823 -0.584713 0.541764
vn 0.605429 -0.182481 0.774698
vn 0.588584 -0.505567 0.630850
vn 0.818404 -0.139033 0.557571
vn 0.703022 -0.500734 0.505000
vn 0.734261 -0.207593 0.646348
vn 0.630852 -0.503410 0.590427
vn 0.579017 -0.273395 0.768111
vn 0.375384 -0.681760 0.627925
vn -0.786902 -0.505278 0.354230
vn -0.961593 -0.148713 0.230702
vn 0.815588 -0.305330 0.491518
vn 0.547631 -0.547965 0.632325
vn -0.000481 0.940846 0.338835
vn 0.740713 0.596883 0.308343
vn 0.548135 0.547968 0.631885
vn -0.222009 0.849354 0.478863
vn -0.882079 0.401817 0.245926
vn -0.731126 0.319868 0.602610
vn 0.143570 -0.815014 0.561374
vn 0.013489 -0.906170 0.422699
vn 0.193035 -0.520173 0.831960
vn -0.741959 -0.286184 0.606297
vn -0.651821 -0.553811 0.518096
vn 0.171238 -0.680925 0.712052
vn 0.769287 -0.420531 0.480990
vn 0.703029 -0.511461 0.494124
vn -0.690649 -0.003280 0.723183
vn -0.806116 0.002189 0.591754
vn -0.620467 0.295345 0.726493
vn -0.865183 -0.023564 0.500903
vn -0.842155 0.240691 0.482538
vn -0.902753 -0.030219 0.429096
vn -0.868914 0.299834 0.393813
vn -0.898256 0.360864 0.250824
vn -0.952950 -0.071341 0.294612
vn -0.712203 0.348121 -0.609573
vn -0.705509 -0.070329 -0.705203
vn -0.430172 -0.030694 -0.902225
vn -0.515603 0.187532 -0.836053
vn -0.417167 -0.101918 -0.903097
vn -0.473665 -0.002180 -0.880702
vn -0.388694 -0.123983 -0.912987
vn -0.345679 0.045973 -0.937226
vn -0.365920 0.136404 -0.920596
vn -0.447304 -0.048281 -0.893078
vn -0.573372 0.019774 -0.819057
vn -0.512934 0.244889 -0.822756
vn -0.791217 0.063077 -0.608273
vn -0.627657 -0.180148 -0.757359
vn 0.878157 -0.127800 -0.460984
vn 0.987878 0.053834 -0.145596
vn 0.676068 0.025001 -0.736415
vn 0.650187 0.316584 -0.690675
vn 0.602000 0.363135 -0.711146
vn 0.576751 -0.020575 -0.816661
vn 0.724122 -0.136621 -0.676005
vn 0.670117 0.311138 -0.673896
vn 0.763553 -0.133618 0.631770
vn 0.781484 -0.098559 0.616091
vn 0.725785 0.398723 0.560585
vn 0.774918 0.273241 0.569949
vn 0.535845 -0.098520 0.838549
vn 0.517921 0.146579 0.842776
vn 0.832901 -0.069227 0.549074
vn 0.795699 0.204899 0.569982
vn 0.701651 0.332510 0.630177
vn 0.758080 -0.082822 0.646881
vn 0.669980 -0.095388 0.736225
vn 0.920029 -0.109492 0.376242
vn 0.163951 0.668663 0.725265
vn 0.235137 -0.236758 0.942686
vn 0.816391 -0.235939 0.527103
vn 0.763539 0.350244 0.542529
vn -0.631375 0.425882 0.648067
vn -0.747463 -0.068348 0.660779
vn -0.978802 0.006297 0.204711
vn 0.003284 -0.992324 0.123619
vn 0.130610 -0.967277 0.217523
vn -0.096639 -0.987877 0.121494
vn -0.146581 -0.981490 0.123255
vn -0.158450 -0.981908 0.103689
vn -0.190763 -0.979198 0.069142
vn -0.267507 -0.963445 -0.014618
vn -0.215468 -0.958241 -0.188011
vn -0.131297 -0.956064 -0.262110
vn -0.096993 -0.938342 -0.331822
vn -0.217685 -0.915880 -0.337309
vn -0.333997 -0.879828 -0.338154
vn -0.313430 -0.848298 -0.426793
vn 0.007561 -0.955152 -0.296020
vn 0.211025 -0.940301 -0.267026
vn 0.234167 -0.945943 -0.224408
vn 0.206500 -0.938478 -0.276796
vn 0.244913 -0.949589 -0.195699
vn 0.214897 -0.962531 0.165388
vn 0.175994 -0.973113 0.148583
vn 0.220160 -0.954903 0.199223
vn 0.243265 -0.952482 0.183304
vn 0.242462 -0.949416 0.199555
vn 0.025815 -0.999527 0.016746
vn 0.030259 -0.999341 0.020053
vn 0.008388 -0.999940 0.007018
vn -0.001461 -0.999997 0.001804
vn -0.001281 -0.999993 0.003545
vn -0.005822 -0.999836 -0.017169
vn -0.013699 -0.999802 -0.014459
vn 0.002293 -0.999994 -0.002796
vn -0.000158 -1.000000 -0.000374
vn 0.048994 -0.996531 -0.067266
vn 0.038788 -0.997977 -0.050366
vn 0.027699 -0.999531 -0.013068
vn 0.230768 -0.969156 0.086505
vn -0.000011 -1.000000 -0.000086
vn -0.000100 -0.999992 -0.004123
vn 0.018919 -0.999778 0.009326
vn -0.001701 -0.999987 0.004702
vn 0.000522 -1.000000 0.000076
vn 0.000666 -1.000000 0.000296
vn 0.001153 -0.999998 -0.001937
vn 0.027859 -0.998281 -0.051575
vn -0.006112 -0.999927 -0.010435
vn -0.003397 -0.998454 -0.055488
vn -0.024759 -0.994008 -0.106470
vn -0.083532 -0.991814 -0.096581
vn -0.067974 -0.994278 -0.082400
vn 0.455219 -0.285687 0.843303
vn 0.353641 -0.114598 0.928335
vn 0.354151 0.264242 0.897080
vn 0.469991 -0.787965 0.397768
vn 0.612570 0.753455 0.238880
vn 0.575972 0.736417 0.354889
vn 0.603250 0.648638 -0.464067
vn 0.733555 0.035855 -0.678683
vn 0.739724 -0.345277 -0.577574
vn 0.758533 -0.472912 -0.448310
vn 0.637237 -0.475031 0.606856
vn 0.670072 -0.369689 0.643687
vn 0.621334 0.001812 0.783544
vn 0.671961 -0.714925 -0.193264
vn 0.560943 -0.689201 0.458634
s 1
g StumpLOW Stump_group
f 1/1/1 21/21/2 48/48/3 49/49/4
f 4/4/5 22/22/6 23/23/7 12/12/8
f 8/7/9 43/43/10 44/44/11 35/35/12
f 10/10/13 33/33/14 34/34/15 7/8/16
f 9/9/17 31/31/18 32/32/19 15/15/20
f 13/13/21 24/24/22 25/25/23 6/6/24
f 12/12/8 23/23/7 24/24/22 13/13/21
f 15/15/20 32/32/19 33/33/14 10/10/13
f 46/46/25 47/47/26 16/16/27 2/2/28
f 18/18/29 17/17/30 3/3/31 11/11/32
f 19/19/33 18/18/29 11/11/32 14/14/34
f 20/20/35 19/19/33 14/14/34 5/5/36
f 47/47/26 48/48/3 21/21/2 16/16/27
f 23/23/7 22/22/6 17/17/30 18/18/29
f 24/24/22 23/23/7 18/18/29 19/19/33
f 25/25/23 24/24/22 19/19/33 20/20/35
f 27/27/37 26/26/38 5/5/36 14/14/34
f 28/28/39 27/27/37 14/14/34 11/11/32
f 29/29/40 28/28/39 11/11/32 3/3/31
f 30/30/41 45/45/42 46/46/25 2/2/28
f 32/32/19 31/31/18 26/26/38 27/27/37
f 33/33/14 32/32/19 27/27/37 28/28/39
f 34/34/15 33/33/14 28/28/39 29/29/40
f 35/35/12 44/44/11 45/45/42 30/30/41
f 37/37/43 36/36/44 7/8/16 34/34/15
f 38/38/45 37/37/43 34/34/15 29/29/40
f 39/39/46 38/38/45 29/29/40 3/3/31
f 17/17/30 40/40/47 39/39/46 3/3/31
f 22/22/6 41/41/48 40/40/47 17/17/30
f 42/42/49 41/41/48 22/22/6 4/4/5
f 44/44/11 43/43/10 36/36/44 37/37/43
f 45/45/42 44/44/11 37/37/43 38/38/45
f 46/46/25 45/45/42 38/38/45 39/39/46
f 39/39/46 40/40/47 47/47/26 46/46/25
f 40/40/47 41/41/48 48/48/3 47/47/26
f 49/49/4 48/48/3 41/41/48 42/42/49
f 51/402/50 50/424/51 36/36/44 43/43/10
f 7/8/16 36/36/44 50/424/51 52/423/52
f 52/423/52 53/422/53 10/10/13 7/8/16
f 53/422/53 54/421/54 15/15/20 10/10/13
f 9/9/17 15/15/20 54/421/54 55/420/55
f 56/419/56 31/31/18 9/9/17 55/420/55
f 56/419/56 57/418/57 26/26/38 31/31/18
f 57/418/57 58/417/58 5/5/36 26/26/38
f 58/417/58 59/416/59 20/20/35 5/5/36
f 59/416/59 60/415/60 25/25/23 20/20/35
f 60/415/60 61/414/61 6/6/24 25/25/23
f 62/413/62 13/13/21 6/6/24 61/414/61
f 62/413/62 63/412/63 12/12/8 13/13/21
f 63/412/63 64/411/64 4/4/5 12/12/8
f 64/411/64 65/410/65 42/42/49 4/4/5
f 65/410/65 66/409/66 49/49/4 42/42/49
f 1/1/1 49/49/4 66/409/66 67/408/67
f 21/21/2 1/1/1 67/408/67 68/407/68
f 68/407/68 69/406/69 16/16/27 21/21/2
f 69/406/69 70/405/70 2/2/28 16/16/27
f 30/30/41 2/2/28 70/405/70 71/404/71
f 71/404/71 72/403/72 35/35/12 30/30/41
f 72/403/72 73/401/73 8/7/9 35/35/12
f 73/401/73 51/402/50 43/43/10 8/7/9
f 52/52/52 50/51/51 74/74/74 75/75/75
f 50/51/51 51/50/50 76/76/76 74/74/74
f 77/77/77 76/76/76 51/50/50 73/73/73
f 73/73/73 72/72/72 78/78/78 77/77/77
f 79/79/79 78/78/78 72/72/72 71/71/71
f 71/71/71 70/70/70 80/80/80 79/79/79
f 70/70/70 69/69/69 81/81/81 80/80/80
f 82/82/82 81/81/81 69/69/69 68/68/68
f 83/426/83 82/82/82 68/68/68 67/434/67
f 84/84/84 83/83/83 67/67/67 66/66/66
f 66/66/66 65/65/65 85/85/85 84/84/84
f 65/65/65 64/64/64 86/86/86 85/85/85
f 64/64/64 63/63/63 87/87/87 86/86/86
f 88/88/88 87/87/87 63/63/63 62/62/62
f 89/89/89 88/88/88 62/62/62 61/61/61
f 90/90/90 89/89/89 61/61/61 60/60/60
f 91/91/91 90/90/90 60/60/60 59/59/59
f 59/59/59 58/58/58 92/92/92 91/91/91
f 93/93/93 92/92/92 58/58/58 57/57/57
f 57/57/57 56/56/56 94/94/94 93/93/93
f 95/461/95 94/94/94 56/56/56 55/470/55
f 55/55/55 54/54/54 96/96/96 95/95/95
f 97/97/97 96/96/96 54/54/54 53/53/53
f 75/75/75 97/97/97 53/53/53 52/52/52
f 99/98/98 377/377/99 378/378/100 98/99/101
f 400/400/102 377/377/99 99/98/98 100/100/103
f 101/101/104 399/399/105 400/400/102 100/100/103
f 102/102/106 398/398/107 399/399/105 101/101/104
f 397/397/108 398/460/107 102/463/106 103/103/109
f 104/104/110 396/396/111 397/397/108 103/103/109
f 105/105/112 395/395/113 396/396/111 104/104/110
f 106/106/114 394/394/115 395/395/113 105/105/112
f 393/393/116 394/394/115 106/106/114 107/107/117
f 392/392/118 393/393/116 107/107/117 108/108/119
f 109/109/120 391/391/121 392/392/118 108/108/119
f 109/109/120 110/110/122 390/390/123 391/391/121
f 111/111/124 389/389/125 390/390/123 110/110/122
f 112/112/126 388/388/127 389/389/125 111/111/124
f 387/387/128 388/388/127 112/112/126 113/113/129
f 114/114/130 386/386/131 387/387/128 113/113/129
f 385/385/132 386/425/131 114/433/130 115/115/133
f 98/99/101 378/378/100 379/379/134 116/116/135
f 116/116/135 379/379/134 380/380/136 117/117/137
f 117/117/137 380/380/136 381/381/138 118/118/139
f 118/118/139 381/381/138 382/382/140 119/119/141
f 382/382/140 383/383/142 120/120/143 119/119/141
f 121/121/144 384/384/145 385/385/132 115/115/133
f 120/120/143 383/383/142 384/384/145 121/121/144
f 123/122/146 328/462/147 329/329/148 122/123/149
f 122/123/149 329/329/148 330/330/150 124/124/151
f 124/124/151 330/330/150 331/331/152 125/125/153
f 125/125/153 331/331/152 332/332/154 126/126/155
f 126/126/155 332/332/154 333/333/156 127/127/157
f 127/127/157 333/333/156 334/334/158 128/128/159
f 128/128/159 334/334/158 335/335/160 129/129/161
f 129/129/161 335/335/160 336/336/162 130/130/163
f 130/130/163 336/336/162 337/337/164 131/131/165
f 337/337/164 338/338/166 132/132/167 131/131/165
f 132/132/167 338/338/166 339/339/168 133/133/169
f 133/133/169 339/339/168 340/427/170 134/134/171
f 340/340/170 341/341/172 135/135/173 134/428/171
f 135/135/173 341/341/172 342/342/174 136/136/175
f 136/136/175 342/342/174 343/343/176 137/137/177
f 343/343/176 344/344/178 138/138/179 137/137/177
f 138/138/179 344/344/178 345/345/180 139/139/181
f 139/139/181 345/345/180 346/346/182 140/140/183
f 346/346/182 347/347/184 141/141/185 140/140/183
f 141/141/185 347/347/184 348/348/186 142/142/187
f 143/143/188 351/351/189 328/328/147 123/469/146
f 144/144/190 350/350/191 351/351/189 143/143/188
f 349/349/192 350/350/191 144/144/190 145/145/193
f 142/142/187 348/348/186 349/349/192 145/145/193
f 126/126/155 305/305/194 306/306/195 125/125/153
f 326/326/196 327/327/197 127/127/157 128/128/159
f 127/127/157 327/327/197 305/305/194 126/126/155
f 321/321/198 322/322/199 132/132/167 133/133/169
f 151/150/200 150/151/201 152/152/202 153/153/203
f 322/322/199 323/323/204 131/131/165 132/132/167
f 129/129/161 325/325/205 326/326/196 128/128/159
f 324/324/206 325/325/205 129/129/161 130/130/163
f 323/323/204 324/324/206 130/130/163 131/131/165
f 320/320/207 321/321/198 133/133/169 134/134/171
f 319/319/208 320/429/207 134/428/171 135/135/173
f 136/136/175 318/318/209 319/319/208 135/135/173
f 316/316/210 317/317/211 138/138/179 139/139/181
f 315/315/212 316/316/210 139/139/181 140/140/183
f 141/141/185 314/314/213 315/315/212 140/140/183
f 313/313/214 314/314/213 141/141/185 142/142/187
f 145/145/193 312/312/215 313/313/214 142/142/187
f 144/144/190 311/311/216 312/312/215 145/145/193
f 143/143/188 310/310/217 311/311/216 144/144/190
f 123/469/146 309/309/218 310/310/217 143/143/188
f 308/308/219 309/464/218 123/122/146 122/123/149
f 307/307/220 308/308/219 122/123/149 124/124/151
f 306/306/195 307/307/220 124/124/151 125/125/153
f 172/440/221 229/229/222 230/466/223 171/467/224
f 171/459/224 230/230/223 231/231/225 173/458/226
f 173/458/226 231/231/225 232/232/227 174/457/228
f 232/232/227 233/233/229 175/456/230 174/457/228
f 233/233/229 234/234/231 176/455/232 175/456/230
f 176/455/232 234/234/231 235/235/233 177/454/234
f 177/454/234 235/235/233 236/236/235 178/453/236
f 178/453/236 236/236/235 237/237/237 179/452/238
f 237/237/237 238/238/239 180/451/240 179/452/238
f 180/451/240 238/238/239 239/239/241 181/450/242
f 239/239/241 240/240/243 182/182/244 181/450/242
f 183/183/245 182/182/244 240/240/243 241/241/246
f 243/243/247 184/435/248 185/185/249 242/242/250
f 241/241/246 242/242/250 185/185/249 183/183/245
f 184/435/248 243/243/247 244/431/251 186/449/252
f 244/244/251 245/245/253 187/447/254 186/448/252
f 187/447/254 245/245/253 246/246/255 188/188/256
f 189/438/257 247/247/258 248/248/259 190/446/260
f 190/446/260 248/248/259 249/249/261 191/445/262
f 191/445/262 249/249/261 250/250/263 192/444/264
f 250/250/263 251/251/265 193/443/266 192/444/264
f 193/443/266 251/251/265 252/252/267 194/194/268
f 355/355/269 356/356/270 229/229/222 172/440/221
f 252/252/267 362/362/271 363/363/272 194/194/268
f 359/359/273 360/360/274 165/165/275 166/166/276
f 358/358/277 359/359/273 166/166/276 167/167/278
f 363/363/272 364/364/279 200/201/280 194/194/268
f 200/201/280 364/364/279 355/355/269 172/440/221
f 254/254/281 255/255/282 195/195/283 201/200/284
f 253/253/285 254/254/281 201/200/284 197/198/286
f 203/468/287 202/202/288 167/167/278 168/168/289
f 204/204/290 203/203/287 168/465/289 169/169/291
f 205/205/292 204/204/290 169/169/291 170/170/293
f 147/147/294 206/206/295 205/205/292 170/170/293
f 146/146/296 207/207/297 206/206/295 147/147/294
f 208/208/298 207/207/297 146/146/296 149/148/299
f 209/209/300 208/208/298 149/148/299 148/149/301
f 210/210/302 209/209/300 148/149/301 155/155/303
f 156/156/304 211/211/305 210/210/302 155/155/303
f 212/212/306 211/211/305 156/156/304 154/154/307
f 151/150/200 213/213/308 212/212/306 154/154/307
f 213/213/308 151/150/200 153/153/203 214/214/309
f 152/152/202 215/215/310 214/214/309 153/153/203
f 152/152/202 150/151/201 216/216/311 215/215/310
f 217/432/312 216/216/311 150/151/201 157/157/313
f 158/158/314 218/218/315 217/217/312 157/430/313
f 219/219/316 218/218/315 158/158/314 159/159/317
f 221/221/318 220/220/319 160/160/320 161/161/321
f 222/222/322 221/221/318 161/161/321 162/162/323
f 223/223/324 222/222/322 162/162/323 163/163/325
f 164/164/326 224/224/327 223/223/324 163/163/325
f 225/225/328 224/224/327 164/164/326 165/165/275
f 360/360/274 361/361/329 225/225/328 165/165/275
f 199/199/330 227/227/331 226/226/332 198/197/333
f 196/196/334 228/228/335 227/227/331 199/199/330
f 167/167/278 202/202/288 357/357/336 358/358/277
f 230/466/223 229/229/222 202/202/288 203/468/287
f 231/231/225 230/230/223 203/203/287 204/204/290
f 232/232/227 231/231/225 204/204/290 205/205/292
f 205/205/292 206/206/295 233/233/229 232/232/227
f 206/206/295 207/207/297 234/234/231 233/233/229
f 235/235/233 234/234/231 207/207/297 208/208/298
f 236/236/235 235/235/233 208/208/298 209/209/300
f 237/237/237 236/236/235 209/209/300 210/210/302
f 210/210/302 211/211/305 238/238/239 237/237/237
f 239/239/241 238/238/239 211/211/305 212/212/306
f 212/212/306 213/213/308 240/240/243 239/239/241
f 240/240/243 213/213/308 214/214/309 241/241/246
f 214/214/309 215/215/310 242/242/250 241/241/246
f 216/216/311 243/243/247 242/242/250 215/215/310
f 244/431/251 243/243/247 216/216/311 217/432/312
f 217/217/312 218/218/315 245/245/253 244/244/251
f 246/246/255 245/245/253 218/218/315 219/219/316
f 248/248/259 247/247/258 220/220/319 221/221/318
f 249/249/261 248/248/259 221/221/318 222/222/322
f 250/250/263 249/249/261 222/222/322 223/223/324
f 223/223/324 224/224/327 251/251/265 250/250/263
f 252/252/267 251/251/265 224/224/327 225/225/328
f 225/225/328 361/361/329 362/362/271 252/252/267
f 226/226/332 227/227/331 254/254/281 253/253/285
f 227/227/331 228/228/335 255/255/282 254/254/281
f 356/356/270 357/357/336 202/202/288 229/229/222
f 200/441/280 256/256/337 257/257/338 194/442/268
f 172/171/221 258/258/339 256/256/337 200/441/280
f 259/259/340 258/258/339 172/171/221 171/172/224
f 260/260/341 259/259/340 171/172/224 173/173/226
f 173/173/226 174/174/228 261/261/342 260/260/341
f 175/175/230 262/262/343 261/261/342 174/174/228
f 262/262/343 175/175/230 176/176/232 263/263/344
f 177/177/234 264/264/345 263/263/344 176/176/232
f 265/265/346 264/264/345 177/177/234 178/178/236
f 266/266/347 265/265/346 178/178/236 179/179/238
f 180/180/240 267/267/348 266/266/347 179/179/238
f 268/268/349 267/267/348 180/180/240 181/181/242
f 268/268/349 181/181/242 182/436/244 269/269/350
f 271/270/351 270/271/352 184/184/248 186/186/252
f 272/272/353 271/270/351 186/186/252 187/187/254
f 273/273/354 272/272/353 187/187/254 188/439/256
f 276/274/355 275/275/356 189/189/257 190/190/260
f 277/276/357 276/274/355 190/190/260 191/191/262
f 191/191/262 192/192/264 278/277/358 277/276/357
f 279/278/359 278/277/358 192/192/264 193/193/266
f 194/442/268 257/257/338 279/278/359 193/193/266
f 277/276/357 287/287/360 288/288/361 276/274/355
f 257/257/338 256/256/337 285/285/362 279/278/359
f 259/259/340 260/260/341 295/295/363 284/284/364
f 297/297/365 298/298/366 282/282/367 280/279/368
f 271/270/351 281/281/369 299/299/370 270/271/352
f 275/275/356 289/289/371 273/273/354 274/280/372
f 298/298/366 299/299/370 281/281/369 282/282/367
f 276/274/355 288/288/361 289/289/371 275/275/356
f 283/283/373 296/296/374 297/297/365 280/279/368
f 278/277/358 286/286/375 287/287/360 277/276/357
f 284/284/364 295/295/363 296/296/374 283/283/373
f 279/278/359 285/285/362 286/286/375 278/277/358
f 294/294/376 258/258/339 259/259/340 284/284/364
f 293/293/377 294/294/376 284/284/364 283/283/373
f 292/292/378 293/293/377 283/283/373 280/279/368
f 291/291/379 292/292/378 280/279/368 282/282/367
f 290/290/380 291/291/379 282/282/367 281/281/369
f 272/272/353 290/290/380 281/281/369 271/270/351
f 273/273/354 289/289/371 290/290/380 272/272/353
f 289/289/371 288/288/361 291/291/379 290/290/380
f 288/288/361 287/287/360 292/292/378 291/291/379
f 287/287/360 286/286/375 293/293/377 292/292/378
f 286/286/375 285/285/362 294/294/376 293/293/377
f 285/285/362 256/256/337 258/258/339 294/294/376
f 304/304/381 261/261/342 262/262/343 263/263/344
f 303/303/382 304/304/381 263/263/344 264/264/345
f 302/302/383 303/303/382 264/264/345 265/265/346
f 266/266/347 301/301/384 302/302/383 265/265/346
f 267/267/348 300/300/385 301/301/384 266/266/347
f 269/269/350 300/300/385 267/267/348 268/268/349
f 270/271/352 299/299/370 300/300/385 269/269/350
f 301/301/384 300/300/385 299/299/370 298/298/366
f 302/302/383 301/301/384 298/298/366 297/297/365
f 297/297/365 296/296/374 303/303/382 302/302/383
f 296/296/374 295/295/363 304/304/381 303/303/382
f 295/295/363 260/260/341 261/261/342 304/304/381
f 306/306/195 305/305/194 146/146/296 147/147/294
f 147/147/294 170/170/293 307/307/220 306/306/195
f 170/170/293 169/169/291 308/308/219 307/307/220
f 169/169/291 168/465/289 309/464/218 308/308/219
f 310/310/217 309/309/218 168/168/289 167/167/278
f 311/311/216 310/310/217 167/167/278 166/166/276
f 312/312/215 311/311/216 166/166/276 165/165/275
f 313/313/214 312/312/215 165/165/275 164/164/326
f 163/163/325 314/314/213 313/313/214 164/164/326
f 315/315/212 314/314/213 163/163/325 162/162/323
f 161/161/321 316/316/210 315/315/212 162/162/323
f 160/160/320 317/317/211 316/316/210 161/161/321
f 319/319/208 318/318/209 159/159/317 158/158/314
f 158/158/314 157/430/313 320/429/207 319/319/208
f 150/151/201 321/321/198 320/320/207 157/157/313
f 151/150/200 322/322/199 321/321/198 150/151/201
f 154/154/307 323/323/204 322/322/199 151/150/200
f 156/156/304 324/324/206 323/323/204 154/154/307
f 155/155/303 325/325/205 324/324/206 156/156/304
f 326/326/196 325/325/205 155/155/303 148/149/301
f 149/148/299 327/327/197 326/326/196 148/149/301
f 305/305/194 327/327/197 149/148/299 146/146/296
f 329/329/148 328/462/147 102/102/106 101/101/104
f 330/330/150 329/329/148 101/101/104 100/100/103
f 331/331/152 330/330/150 100/100/103 99/98/98
f 332/332/154 331/331/152 99/98/98 98/99/101
f 333/333/156 332/332/154 98/99/101 116/116/135
f 334/334/158 333/333/156 116/116/135 117/117/137
f 335/335/160 334/334/158 117/117/137 118/118/139
f 336/336/162 335/335/160 118/118/139 119/119/141
f 337/337/164 336/336/162 119/119/141 120/120/143
f 121/121/144 338/338/166 337/337/164 120/120/143
f 339/339/168 338/338/166 121/121/144 115/115/133
f 340/427/170 339/339/168 115/115/133 114/433/130
f 113/113/129 341/341/172 340/340/170 114/114/130
f 342/342/174 341/341/172 113/113/129 112/112/126
f 343/343/176 342/342/174 112/112/126 111/111/124
f 110/110/122 344/344/178 343/343/176 111/111/124
f 345/345/180 344/344/178 110/110/122 109/109/120
f 346/346/182 345/345/180 109/109/120 108/108/119
f 107/107/117 347/347/184 346/346/182 108/108/119
f 348/348/186 347/347/184 107/107/117 106/106/114
f 349/349/192 348/348/186 106/106/114 105/105/112
f 104/104/110 350/350/191 349/349/192 105/105/112
f 351/351/189 350/350/191 104/104/110 103/103/109
f 328/328/147 351/351/189 103/103/109 102/463/106
f 247/247/258 352/352/386 353/353/387 220/220/319
f 354/354/388 160/160/320 220/220/319 353/353/387
f 255/255/282 356/356/270 355/355/269 195/195/283
f 228/228/335 357/357/336 356/356/270 255/255/282
f 358/358/277 357/357/336 228/228/335 196/196/334
f 199/199/330 359/359/273 358/358/277 196/196/334
f 198/197/333 360/360/274 359/359/273 199/199/330
f 198/197/333 226/226/332 361/361/329 360/360/274
f 362/362/271 361/361/329 226/226/332 253/253/285
f 363/363/272 362/362/271 253/253/285 197/198/286
f 201/200/284 364/364/279 363/363/272 197/198/286
f 355/355/269 364/364/279 201/200/284 195/195/283
f 273/273/354 188/439/256 365/437/389 274/280/372
f 274/280/372 365/437/389 189/189/257 275/275/356
f 352/352/386 247/247/258 189/438/257 365/365/389
f 318/318/209 136/136/175 137/137/177 366/366/390
f 138/138/179 317/317/211 366/366/390 137/137/177
f 160/160/320 354/354/388 366/366/390 317/317/211
f 366/366/390 367/367/391 368/368/392 318/318/209
f 369/369/393 159/159/317 318/318/209 368/368/392
f 219/219/316 370/370/394 371/371/395 246/246/255
f 159/159/317 369/369/393 370/370/394 219/219/316
f 373/372/396 372/373/397 353/353/387 352/352/386
f 353/353/387 372/373/397 374/374/398 354/354/388
f 354/354/388 374/374/398 367/367/391 366/366/390
f 369/369/393 374/374/398 372/373/397 370/370/394
f 368/368/392 367/367/391 374/374/398 369/369/393
f 372/373/397 373/372/396 371/371/395 370/370/394
f 188/188/256 375/375/399 376/376/400 365/365/389
f 376/376/400 375/375/399 371/371/395 373/372/396
f 371/371/395 375/375/399 188/188/256 246/246/255
f 376/376/400 373/372/396 352/352/386 365/365/389
f 185/185/249 184/435/248 182/182/244 183/183/245
f 182/436/244 184/184/248 270/271/352 269/269/350
f 378/378/100 377/377/99 75/75/75 74/74/74
f 379/379/134 378/378/100 74/74/74 76/76/76
f 380/380/136 379/379/134 76/76/76 77/77/77
f 381/381/138 380/380/136 77/77/77 78/78/78
f 382/382/140 381/381/138 78/78/78 79/79/79
f 80/80/80 383/383/142 382/382/140 79/79/79
f 384/384/145 383/383/142 80/80/80 81/81/81
f 385/385/132 384/384/145 81/81/81 82/82/82
f 83/426/83 386/425/131 385/385/132 82/82/82
f 387/387/128 386/386/131 83/83/83 84/84/84
f 85/85/85 388/388/127 387/387/128 84/84/84
f 389/389/125 388/388/127 85/85/85 86/86/86
f 390/390/123 389/389/125 86/86/86 87/87/87
f 391/391/121 390/390/123 87/87/87 88/88/88
f 392/392/118 391/391/121 88/88/88 89/89/89
f 90/90/90 393/393/116 392/392/118 89/89/89
f 91/91/91 394/394/115 393/393/116 90/90/90
f 395/395/113 394/394/115 91/91/91 92/92/92
f 396/396/111 395/395/113 92/92/92 93/93/93
f 397/397/108 396/396/111 93/93/93 94/94/94
f 95/461/95 398/460/107 397/397/108 94/94/94
f 399/399/105 398/398/107 95/95/95 96/96/96
f 400/400/102 399/399/105 96/96/96 97/97/97
f 75/75/75 377/377/99 400/400/102 97/97/97
