# Blender 5.1.1
# www.blender.org
mtllib Level3.mtl
o Cube
v 50.162876 122.109093 15.796530
v 50.162876 -1.000000 15.796530
v 19.495071 123.781837 19.193745
v 19.495071 -1.000004 19.193745
v 18.528774 122.265862 -10.204915
v 18.528774 -1.000002 -10.204915
v 9.166935 123.781837 -5.962878
v 9.166935 -1.000004 -5.962878
v 64.236832 120.070412 -11.118237
v 64.236832 -1.000002 -11.118237
v 46.220699 120.070412 -21.613104
v 46.220699 -1.000002 -21.613104
v 77.023079 113.847969 -17.685589
v 77.023079 -1.000000 -17.685589
v 60.720711 113.847969 -32.953712
v 60.720711 -1.000000 -32.953712
v 54.017685 -1.000000 -7.120544
v 54.017685 121.496590 -7.120544
v 37.596100 121.496590 -14.855082
v 37.596100 -1.000002 -14.855082
v 77.445343 121.496590 33.536057
v 77.445343 -1.000000 33.536057
v 80.608215 -1.000000 17.437260
v 80.608215 121.496590 17.437260
v 91.458916 120.070412 29.968147
v 91.458916 -1.000000 29.968147
v 91.449776 -1.000000 16.505615
v 91.449776 120.070412 16.505615
v 107.380531 113.847969 26.299801
v 107.380531 -1.000000 26.299801
v 101.858994 -1.000000 11.107209
v 101.858994 113.112434 11.107209
v 118.074242 108.986610 -6.760853
v 118.074242 -1.000000 -6.760853
v 107.019707 -1.000000 -11.102798
v 107.019707 108.986610 -11.102798
v 124.926933 108.284813 -24.797451
v 124.926933 -1.000000 -24.797451
v 112.505875 -1.000000 -24.697418
v 112.505875 108.284813 -24.697418
v 127.029663 108.284813 -47.984573
v 127.029663 -1.000000 -47.984573
v 114.734497 -1.000000 -43.780342
v 114.734497 108.284813 -43.780342
v 125.343765 107.615776 -71.559174
v 125.343765 -1.000000 -71.559174
v 112.548157 -1.000000 -59.851143
v 112.548157 107.615776 -59.851143
v 81.105774 108.986610 -37.575745
v 81.105774 -1.000000 -37.575745
v 63.751266 108.986610 -51.329193
v 63.751266 -1.000000 -51.329193
v 97.189209 105.956047 -52.708717
v 97.189209 -1.000000 -52.708717
v 76.707436 105.956047 -60.759632
v 76.707436 -1.000000 -60.759632
v 100.426300 103.905937 -63.836075
v 100.426300 -1.000000 -63.836075
v 79.094521 103.905937 -72.270180
v 79.094521 -1.000000 -72.270180
v 111.952957 103.574409 -76.731964
v 111.952957 -1.000000 -76.731964
v 81.629173 103.905937 -79.602493
v 81.629173 -1.000000 -79.602493
v 106.757797 102.946014 -89.575775
v 106.757797 -1.000000 -89.575775
v 94.184578 102.946014 -89.100990
v 94.184578 -1.000000 -89.100990
v 129.761658 98.264549 -121.126465
v 129.761658 -1.000000 -121.126465
v 116.478882 98.264549 -118.074684
v 116.478882 -1.000000 -118.074684
v 124.092216 98.264549 -129.439575
v 124.092216 -1.000000 -129.439575
v 112.124687 98.264549 -123.231102
v 112.124687 -1.000000 -123.231102
v 106.359398 96.466011 -156.808426
v 106.359398 -1.000000 -156.808426
v 98.297417 96.466011 -156.688400
v 98.297417 -1.000000 -156.688400
v 161.589951 98.264549 -146.810699
v 161.589951 -1.000000 -146.810699
v 140.522064 98.264549 -145.395813
v 140.522064 -1.000000 -145.395813
v 169.383377 98.264549 -157.942505
v 169.383377 -1.000000 -157.942505
v 144.661240 98.264549 -151.743271
v 144.661240 -1.000000 -151.743271
v 169.469543 98.264549 -165.219055
v 169.469543 -1.000000 -165.219055
v 147.513580 98.264549 -157.065918
v 147.513580 -1.000000 -157.065918
v 166.320496 98.264549 -172.178970
v 166.320496 -1.000000 -172.178970
v 147.466568 98.264549 -165.638153
v 147.466568 -1.000000 -165.638153
v 127.843803 94.356575 -192.457550
v 127.843803 -1.000000 -192.457550
v 109.837502 94.356575 -183.412964
v 109.837502 -1.000000 -183.412964
v 160.991745 96.155113 -180.793060
v 160.991745 -1.000000 -180.793060
v 143.715866 96.155113 -173.351501
v 143.715866 -1.000000 -173.351501
v 132.858810 94.356575 -206.659836
v 132.858810 -1.000000 -206.659836
v 107.849525 94.356575 -187.271133
v 107.849525 -1.000000 -187.271133
v 102.395325 87.994972 -214.779755
v 102.395325 -1.000000 -214.779755
v 93.499565 87.994972 -199.844772
v 93.499565 -1.000000 -199.844772
v 58.922485 86.016548 -214.474884
v 58.922485 -1.000000 -214.474884
v 67.230881 85.338463 -197.737076
v 67.230881 -1.000000 -197.737076
v 33.166862 83.895088 -187.928818
v 33.166862 -1.000000 -187.928818
v 52.716770 83.895088 -183.128738
v 52.716770 -1.000000 -183.128738
v 99.785301 96.466011 -145.391693
v 99.785301 -1.000000 -145.391693
v 106.783028 -1.000000 -148.933090
v 106.783028 96.466011 -148.933090
v 45.643745 84.571281 -160.576309
v 45.643745 -1.000000 -160.576309
v 61.487881 84.571281 -170.718536
v 61.487881 -1.000000 -170.718536
v 48.217045 84.571281 -137.661255
v 48.217045 -1.000000 -137.661255
v 72.924545 84.571281 -136.987274
v 72.924545 -1.000000 -136.987274
v 103.808495 94.356575 -168.583481
v 103.808495 -1.000000 -168.583481
v 111.567085 -1.000000 -170.620789
v 111.567085 94.356575 -170.620789
v 106.839203 -1.000000 -136.709930
v 112.528175 -1.000000 -140.923309
v 106.839203 98.264549 -136.709930
v 112.528175 98.264549 -140.923309
v 25.720284 80.166473 -114.657173
v 25.720284 -1.000000 -114.657173
v 46.213318 80.166473 -108.185593
v 46.213318 -1.000000 -108.185593
v 4.574846 78.673798 -93.007011
v 4.574846 -1.000000 -93.007011
v 5.552888 78.673798 -79.508469
v 5.552888 -1.000000 -79.508469
v -22.585390 78.673798 -109.965942
v -22.585390 -1.000000 -109.965942
v -22.208899 78.673798 -83.789154
v -22.208899 -1.000000 -83.789154
v -42.369667 78.673798 -117.013557
v -42.369667 -1.000000 -117.013557
v -55.501308 78.673798 -88.698593
v -55.501308 -1.000000 -88.698593
v -74.861526 70.551270 -89.834595
v -74.861526 -1.000000 -89.834595
v -70.155853 70.551270 -63.898628
v -70.155853 -1.000000 -63.898628
v -93.489777 66.892105 -107.472885
v -93.489777 -1.000000 -107.472885
v -94.229881 66.892105 -85.031494
v -94.229881 -1.000000 -85.031494
v -117.696648 66.892105 -83.901382
v -117.696648 -1.000000 -83.901382
v -108.677628 66.892105 -59.012150
v -108.677628 -1.000000 -59.012150
v -138.474289 62.229687 -92.818939
v -138.474289 -1.000000 -92.818939
v -140.084412 62.229687 -63.597202
v -140.084412 -1.000000 -63.597202
v -159.465363 62.229687 -57.565918
v -159.465363 -1.000000 -57.565918
v -175.033569 62.229687 -21.479095
v -175.033569 -1.000000 -21.479095
v -166.662308 56.987316 -91.506187
v -166.662308 -1.000000 -91.506187
v -203.934769 56.987316 -103.206627
v -203.934769 -1.000000 -103.206627
v 34.638485 81.742294 -89.194420
v 34.638485 -1.000000 -89.194420
v 24.542358 -1.000000 -100.694710
v 24.542358 81.742294 -100.694710
v -155.410324 56.987316 -115.768074
v -155.410324 -1.000000 -115.768074
v -176.792297 56.987316 -145.288528
v -176.792297 -1.000000 -145.288528
v -125.513847 56.987316 -140.512711
v -125.513847 -1.000000 -140.512711
v -129.887970 56.987316 -162.781540
v -129.887970 -1.000000 -162.781540
v -65.546532 39.303989 -149.705917
v -65.546532 -7.763783 -149.705917
v -70.199326 39.303989 -195.812042
v -70.199326 -7.763783 -195.812042
v -45.019276 39.303997 -167.903549
v -45.019276 -7.763783 -167.903549
v -49.986744 39.303997 -213.306320
v -49.986744 -7.763783 -213.306320
v -18.306740 35.574059 -193.900864
v -18.306740 -7.763783 -193.900864
v -26.024712 35.574059 -239.563690
v -26.024712 -7.763783 -239.563690
v 6.453190 27.184643 -241.719101
v 6.453190 -9.941442 -241.719101
v 1.469289 27.184643 -258.274170
v 1.469289 -9.941442 -258.274170
v -203.725723 -1.000000 -73.598671
v -168.209290 -1.000000 -67.550476
v -168.209290 60.271549 -67.550476
v -203.725723 56.987316 -73.598671
v -0.895695 129.999420 19.122303
v -0.895695 -1.000004 19.122303
v -9.153151 129.999420 -7.300494
v -9.153151 -1.000004 -7.300494
v 56.654175 -1.000000 -272.674500
v 56.654175 27.460045 -272.674500
v 68.718483 -1.000000 -254.493317
v 68.718483 27.460045 -254.493317
v 36.598667 27.184643 -242.563538
v 36.598667 -6.911413 -242.563538
v 28.348289 27.184643 -267.811615
v 28.348289 -6.911413 -267.811615
v -78.587448 40.633434 -209.905838
v -78.587448 -7.763783 -209.905838
v -60.768322 36.903511 -231.172333
v -60.768322 -7.763783 -231.172333
v -33.189037 36.903511 -247.739029
v -33.189037 -9.941444 -247.739029
v 75.203232 -4.733755 -287.555359
v 75.203232 27.460045 -287.555359
v 85.733635 -1.000000 -272.799194
v 85.733635 27.460045 -272.799194
v 86.644135 -4.733755 -307.723267
v 86.644135 27.460045 -307.723267
v 99.882759 -4.733755 -300.017700
v 99.882759 27.460045 -300.017700
v 90.217522 -4.733755 -321.545349
v 90.217522 23.490486 -321.545349
v 105.603821 -4.733755 -334.245178
v 105.603821 23.490486 -334.245178
v 70.654198 -4.733755 -336.913971
v 70.654198 21.392403 -336.913971
v 79.855339 -4.390459 -351.721588
v 79.855339 21.392403 -351.721588
v 48.243237 -5.821592 -333.971375
v 48.243237 17.135384 -333.971375
v 56.069870 -5.821592 -349.912140
v 56.069870 17.135384 -349.912140
v 19.052647 27.184643 -263.718750
v 19.052647 -6.911413 -263.718750
v 25.042732 -6.911413 -239.929703
v 25.042732 27.184643 -239.929703
v 26.895948 26.379692 -275.318298
v 26.895948 -6.911413 -275.318298
v 18.173615 26.379692 -274.036072
v 18.173615 -6.911413 -274.036072
v 27.854557 26.379692 -287.169678
v 27.854557 -6.911413 -287.169678
v 20.138872 26.379692 -291.909790
v 20.138872 -6.911413 -291.909790
v 50.945099 23.211094 -304.199951
v 50.945099 -4.733755 -304.199951
v 46.252541 23.211094 -311.114929
v 46.252541 -4.733755 -311.114929
v 73.959419 23.490486 -321.656433
v 73.959419 -4.733755 -321.656433
v 65.352753 23.490486 -326.237427
v 65.352753 -4.733755 -326.237427
v 83.235252 -4.733755 -327.867889
v 94.211983 -4.733755 -342.021912
v 94.211983 23.490486 -342.021912
v 83.235252 23.490486 -327.867889
v 28.322710 -5.821592 -343.505249
v 28.322710 12.680218 -343.505249
v 33.833900 -5.821592 -360.429932
v 33.833900 12.680218 -360.429932
v 50.766575 80.166473 -116.619957
v 50.766575 -1.000000 -116.619957
v 30.156378 -1.000000 -122.024376
v 30.156378 80.166473 -122.024376
v 7.030435 80.166473 -125.591637
v 7.030435 -1.000000 -125.591637
v 9.470657 -1.000000 -133.798370
v 9.470657 80.166473 -133.798370
v -7.355679 78.171143 -123.141525
v -7.355679 -1.000000 -123.141525
v -11.264997 -1.000000 -129.158295
v -11.264997 78.171143 -129.158295
v -41.816750 78.673798 -99.946602
v -41.816750 -1.000000 -99.946602
v -26.414299 -1.000000 -126.129593
v -26.414299 78.673798 -126.129593
v -23.112280 140.247894 20.329700
v -23.112280 -1.000000 20.329700
v -29.696075 140.247894 -4.453932
v -29.696075 -1.000000 -4.453932
v -45.101990 140.247894 27.716232
v -45.101990 -1.000000 27.716232
v -51.685753 140.247894 2.932631
v -51.685753 -1.000000 2.932631
v 10.607378 -5.821592 -345.757080
v 10.607378 9.460335 -345.757080
v 11.936156 -10.351366 -358.977814
v 11.936156 9.460335 -358.977814
v -27.407093 -5.821592 -338.487549
v -27.407093 11.205349 -338.487549
v -31.447552 -5.821592 -356.536377
v -31.447552 11.205349 -356.536377
v 20.643011 81.447159 -79.275581
v 18.283493 81.447159 -97.196838
v 20.643011 -1.000000 -79.275581
v 18.283493 -1.000000 -97.196838
v -46.750744 -2.087839 -317.876617
v -46.750744 7.195503 -317.876617
v -63.289173 -2.087839 -333.093079
v -63.289173 7.195503 -333.093079
v -59.106960 -1.076212 -299.562744
v -59.106960 11.157661 -299.562744
v -87.908897 -1.076212 -323.668060
v -87.908897 11.157661 -323.668060
v -81.921654 -1.076212 -270.735718
v -81.921654 11.157661 -270.735718
v -110.723618 -1.076212 -294.841125
v -110.723618 11.157661 -294.841125
vn -0.0035 -0.0000 1.0000
vn -0.4127 -0.0000 -0.9109
vn -0.0000 -1.0000 -0.0000
vn 0.1101 -0.0000 0.9939
vn 0.3643 -0.0000 0.9313
vn 0.4569 -0.0000 0.8895
vn -0.6168 -0.0000 -0.7871
vn -0.9867 -0.0000 -0.1627
vn -0.6161 -0.0000 -0.7877
vn -0.2369 -0.0000 -0.9715
vn -0.5451 -0.0000 0.8384
vn 0.6785 -0.0000 -0.7346
vn 0.2467 -0.0000 0.9691
vn -0.0856 -0.0000 -0.9963
vn -0.9741 -0.0000 -0.2263
vn 0.2245 -0.0000 0.9745
vn -0.4604 -0.0000 -0.8877
vn 0.9515 -0.0000 0.3078
vn 0.9959 -0.0000 0.0903
vn 0.9348 -0.0000 0.3552
vn -0.9273 -0.0000 -0.3742
vn -0.9909 -0.0000 0.1348
vn -0.9932 -0.0000 -0.1160
vn 0.9975 -0.0000 -0.0713
vn 0.9796 -0.0000 0.2011
vn 0.9602 -0.0000 0.2793
vn 0.6853 -0.0000 0.7283
vn -0.5885 -0.0000 -0.8085
vn -0.9451 -0.0000 -0.3267
vn -0.9792 -0.0000 -0.2031
vn -0.3123 -0.0000 0.9500
vn -0.7925 -0.0000 -0.6098
vn 0.9270 -0.0000 -0.3750
vn -0.6033 -0.0000 -0.7975
vn 0.3603 -0.0000 -0.9328
vn 0.8080 -0.0000 0.5891
vn -0.9914 -0.0000 0.1306
vn -0.7640 -0.0000 0.6452
vn -0.9264 -0.0000 -0.3766
vn 0.9986 -0.0000 -0.0537
vn 0.6280 -0.0000 0.7782
vn -0.6967 -0.0000 -0.7174
vn 0.8192 -0.0000 0.5735
vn -0.8376 -0.0000 -0.5462
vn -0.8814 -0.0000 -0.4723
vn 0.9999 -0.0000 0.0118
vn 0.9111 -0.0000 -0.4122
vn -1.0000 -0.0000 0.0055
vn -0.8889 -0.0000 0.4580
vn 0.8018 -0.0000 0.5976
vn 0.6768 -0.0000 -0.7361
vn 0.8504 -0.0000 -0.5261
vn -0.8993 -0.0000 0.4373
vn 0.2576 -0.0000 -0.9663
vn 0.0800 -0.0000 0.9968
vn -0.6590 -0.0000 0.7521
vn -0.7692 -0.0000 0.6390
vn -0.0070 -0.0000 -1.0000
vn -0.9098 -0.0000 0.4150
vn -0.7177 -0.0000 -0.6963
vn 0.7094 -0.0000 0.7048
vn 0.8126 -0.0000 -0.5828
vn -0.7761 -0.0000 0.6306
vn 0.8166 -0.0000 -0.5772
vn 0.8800 -0.0000 0.4750
vn -0.9938 -0.0000 0.1116
vn 0.9470 -0.0000 -0.3211
vn 0.9357 -0.0000 0.3528
vn -0.9073 -0.0000 -0.4204
vn -0.9310 -0.0000 0.3651
vn 0.7046 -0.0000 -0.7096
vn -0.0154 -0.0000 0.9999
vn -0.0000 1.0000 -0.0000
vn -0.2923 -0.0000 -0.9563
vn 0.6350 -0.0000 0.7725
vn 0.0279 0.9996 -0.0097
vn -0.1524 -0.0000 0.9883
vn -0.6416 -0.0000 -0.7670
vn 0.8609 -0.0000 0.5087
vn 0.8743 -0.0000 0.4855
vn 0.6875 -0.0000 -0.7261
vn -0.6597 -0.0000 0.7515
vn -0.6976 -0.0000 -0.7164
vn 0.7696 -0.0000 0.6386
vn 0.3944 -0.0000 -0.9189
vn -0.1445 -0.0000 0.9895
vn -0.8592 -0.0000 -0.5116
vn 0.9979 -0.0000 0.0644
vn -1.0000 -0.0000 0.0071
vn 0.0691 0.9962 -0.0536
vn 0.0720 0.9881 -0.1360
vn 0.2255 0.9268 -0.3004
vn 0.0243 0.9993 -0.0299
vn 0.0208 0.9997 -0.0120
vn 0.1162 0.9931 0.0124
vn 0.4165 0.9032 -0.1036
vn 0.1085 0.9857 -0.1292
vn 0.0075 0.9991 -0.0414
vn -0.2102 0.9524 -0.2206
vn -0.0201 0.9993 -0.0318
vn 0.0834 0.9860 -0.1447
vn 0.1814 0.9606 -0.2104
vn 0.0640 0.9846 -0.1624
vn 0.0115 0.9977 -0.0671
vn 0.0087 0.9999 -0.0104
vn -0.0232 0.9852 -0.1697
vn -0.0802 0.9750 -0.2073
vn -0.0398 0.9984 -0.0409
vn -0.1880 0.9644 -0.1858
vn -0.0242 0.9977 0.0627
vn -0.0656 0.9976 0.0201
vn -0.0884 0.9855 -0.1446
vn -0.0047 0.9995 -0.0315
vn -0.0234 0.9849 -0.1714
vn -0.1865 0.9823 0.0198
vn -0.1820 0.9832 0.0149
vn -0.3832 0.9217 -0.0595
vn -0.1821 0.9830 0.0249
vn -0.0299 0.9976 -0.0619
vn 0.0456 0.9959 -0.0776
vn -0.9965 -0.0000 -0.0841
vn 0.8539 -0.0000 0.5204
vn -0.3494 -0.0000 -0.9370
vn 0.9072 -0.0000 0.4207
vn -0.8404 -0.0000 -0.5420
vn -0.4842 -0.0000 -0.8750
vn 0.6376 -0.0000 0.7704
vn 0.6634 -0.0000 0.7483
vn -0.1074 -0.9941 0.0142
vn 0.2716 0.9617 -0.0359
vn 0.1515 -0.0000 0.9885
vn 0.0173 -0.9973 0.0715
vn 0.2467 0.9678 -0.0504
vn 0.1276 0.9917 -0.0178
vn 0.6974 -0.0000 0.7166
vn 0.8880 -0.0000 0.4598
vn -0.5626 -0.0000 -0.8267
vn -0.0660 -0.9977 0.0135
vn -0.0972 0.9937 -0.0566
vn -0.8760 -0.0000 0.4823
vn 0.7523 -0.0000 -0.6588
vn 0.0728 -0.0000 -0.9973
vn 0.3076 0.9450 -0.1108
vn 0.1701 -0.9822 -0.0796
vn 0.3482 -0.0000 0.9374
vn 0.5296 -0.0000 -0.8482
vn 0.7325 -0.0000 0.6808
vn -0.1693 -0.0000 -0.9856
vn -0.0081 1.0000 0.0038
vn 0.2222 -0.0000 0.9750
vn -0.5149 -0.0000 -0.8572
vn -0.7665 -0.0000 -0.6422
vn -0.8593 -0.0000 0.5114
vn 0.0242 0.9980 -0.0578
vn 0.7521 -0.0000 -0.6591
vn 0.0396 0.9976 -0.0572
vn 0.0543 -0.9927 0.1075
vn -0.6258 -0.0000 -0.7800
vn 0.0005 -0.9937 0.1123
vn 0.9863 -0.0000 0.1649
vn -0.8698 -0.0000 -0.4934
vn 0.8873 -0.0000 0.4612
vn -0.0030 -0.9999 -0.0140
vn -0.0294 0.9853 -0.1685
vn -0.9682 -0.0000 -0.2503
vn 0.1302 -0.0000 0.9915
vn -0.1041 0.9919 -0.0725
vn 0.5564 -0.0000 0.8309
vn 0.5598 -0.0000 -0.8286
vn -0.4317 -0.0000 0.9020
vn -0.0759 -0.0000 -0.9971
vn 0.0565 -0.9982 0.0201
vn -0.1907 0.9759 -0.1056
vn -0.0958 -0.0000 0.9954
vn 0.1608 -0.9860 -0.0437
vn -0.2958 -0.0000 -0.9553
vn -0.0258 0.9959 -0.0866
vn 0.9818 -0.0000 -0.1900
vn -0.9964 -0.0000 0.0849
vn 0.0495 -0.9974 -0.0527
vn 0.9967 -0.0000 0.0806
vn -0.9940 -0.0000 -0.1093
vn 0.5936 -0.0000 0.8048
vn -0.5925 -0.0000 -0.8056
vn 0.0718 0.9945 -0.0764
vn -0.0122 0.9910 -0.1336
vn 0.6043 -0.0000 0.7967
vn -0.6207 -0.0000 -0.7840
vn -0.0070 0.9999 0.0081
vn 0.5638 -0.0000 -0.8259
vn -0.6712 -0.0000 0.7413
vn -0.8957 -0.0000 -0.4447
vn -0.1261 -0.0000 0.9920
vn 0.4276 -0.0000 -0.9040
vn -0.1740 0.9822 -0.0706
vn -0.0279 0.9777 0.2081
vn -0.6546 -0.0000 -0.7560
vn 0.6767 -0.0000 0.7362
vn -0.2184 -0.0000 -0.9759
vn 0.4947 -0.0000 -0.8691
vn -0.5050 -0.0000 0.8631
vn 0.6543 -0.0000 0.7563
vn -0.1106 0.9938 0.0114
vn 0.1679 -0.0000 0.9858
vn -0.4961 -0.0000 -0.8683
vn -0.6359 -0.0000 0.7717
vn -0.1960 -0.0000 -0.9806
vn 0.0543 -0.0000 0.9985
vn 0.4196 0.8995 -0.1216
vn -0.1373 -0.0000 -0.9905
vn -0.9665 -0.0000 0.2567
vn -0.3184 -0.0000 -0.9479
vn 0.3184 -0.0000 0.9479
vn -0.0375 -0.9885 0.1465
vn -0.0662 -0.0000 -0.9978
vn 0.1085 -0.9791 0.1717
vn -0.1596 0.9865 -0.0362
vn -0.0946 -0.9938 0.0585
vn 0.0424 0.9991 -0.0037
vn 0.1878 -0.0000 0.9822
vn -0.0562 -0.0000 -0.9984
vn -0.0228 0.9997 0.0096
vn -0.4879 -0.0000 -0.8729
vn 0.5782 -0.0000 0.8159
vn -0.3575 -0.0000 -0.9339
vn -0.1015 0.9929 0.0628
vn 0.7292 -0.0000 0.6843
vn -0.5929 -0.0000 -0.8053
vn 0.7841 -0.0000 0.6206
vn -0.0293 -0.9990 0.0338
vn 0.1132 0.9850 -0.1305
vn 0.8290 -0.0000 0.5593
vn -0.6418 -0.0000 0.7669
vn -0.7841 -0.0000 -0.6206
vt 0.375000 0.750000
vt 0.625000 0.750000
vt 0.375000 0.000000
vt 0.625000 0.000000
vt 0.625000 0.250000
vt 0.375000 0.250000
vt 0.125000 0.500000
vt 0.375000 0.500000
vt 0.125000 0.750000
vt 0.625000 0.500000
vt 0.625000 0.500000
vt 0.375000 0.500000
vt 0.375000 0.500000
vt 0.375000 0.250000
vt 0.116116 0.500000
vt 0.625000 0.250000
vt 0.123162 0.500000
vt 0.625000 0.500000
vt 0.375000 0.500000
vt 0.875000 0.500000
vt 0.625000 0.500000
vt 0.875000 0.750000
vt 0.875000 0.500000
vt 0.883884 0.500000
vt 0.871278 0.500000
vt 0.875000 0.500000
vt 0.874218 0.500000
vt 0.625000 1.000000
vt 0.375000 1.000000
s 0
usemtl Material
f 4/1/1 3/2/1 213/2/1 214/1/1
f 8/3/2 7/4/2 5/5/2 6/6/2
f 6/7/3 2/8/3 4/1/3 8/9/3
f 2/8/4 1/10/4 3/2/4 4/1/4
f 18/11/5 17/12/5 10/8/5 9/10/5
f 9/10/6 10/8/6 14/8/6 13/10/6
f 20/6/7 19/5/7 11/5/7 12/6/7
f 17/12/3 20/7/3 12/7/3 10/8/3
f 16/6/8 15/5/8 51/5/8 52/6/8
f 12/6/9 11/5/9 15/5/9 16/6/9
f 10/8/3 12/7/3 16/7/3 14/8/3
f 2/8/3 6/7/3 20/7/3 17/12/3
f 6/6/10 5/5/10 19/5/10 20/6/10
f 1/10/11 2/8/11 22/8/11 21/10/11
f 22/8/3 23/12/3 27/12/3 26/8/3
f 17/12/12 18/11/12 24/11/12 23/12/12
f 2/8/3 17/12/3 23/12/3 22/8/3
f 26/8/3 27/12/3 31/13/3 30/8/3
f 21/10/13 22/8/13 26/8/13 25/10/13
f 23/12/14 24/11/14 28/11/14 27/12/14
f 31/13/15 32/11/15 36/11/15 35/12/15
f 25/10/16 26/8/16 30/8/16 29/10/16
f 27/12/17 28/11/17 32/11/17 31/13/17
f 34/8/3 35/12/3 39/12/3 38/8/3
f 30/8/3 31/13/3 35/12/3 34/8/3
f 29/10/18 30/8/18 34/8/18 33/10/18
f 37/10/19 38/8/19 42/8/19 41/10/19
f 33/10/20 34/8/20 38/8/20 37/10/20
f 35/12/21 36/11/21 40/11/21 39/12/21
f 43/12/22 44/11/22 48/11/22 47/12/22
f 39/12/23 40/11/23 44/11/23 43/12/23
f 38/8/3 39/12/3 43/12/3 42/8/3
f 42/8/3 43/12/3 47/12/3 46/8/3
f 41/10/24 42/8/24 46/8/24 45/10/24
f 14/8/3 16/7/3 52/7/3 50/8/3
f 13/10/25 14/8/25 50/8/25 49/10/25
f 53/10/26 54/8/26 58/8/26 57/10/26
f 49/10/27 50/8/27 54/8/27 53/10/27
f 52/6/28 51/5/28 55/5/28 56/6/28
f 50/8/3 52/7/3 56/7/3 54/8/3
f 60/6/29 59/5/29 63/5/29 64/6/29
f 56/6/30 55/5/30 59/5/30 60/6/30
f 54/8/3 56/7/3 60/7/3 58/8/3
f 58/8/3 60/7/3 64/7/3 62/8/3
f 57/10/31 58/8/31 47/12/31 48/11/31
f 68/6/32 67/5/32 71/5/32 72/6/32
f 61/10/33 62/8/33 66/8/33 65/10/33
f 64/6/34 63/5/34 67/5/34 68/6/34
f 62/8/3 64/7/3 68/7/3 66/8/3
f 58/8/3 62/8/3 46/8/3 47/12/3
f 62/8/35 61/10/35 45/10/35 46/8/35
f 66/8/3 68/7/3 72/7/3 70/8/3
f 65/10/36 66/8/36 70/8/36 69/10/36
f 122/14/37 121/5/37 79/5/37 80/6/37
f 70/8/3 74/8/3 84/8/3 82/8/3
f 72/6/38 71/5/38 75/5/38 76/6/38
f 70/8/3 72/7/3 76/7/3 74/8/3
f 134/6/39 133/5/39 99/5/39 100/6/39
f 123/8/3 122/7/3 80/7/3 78/8/3
f 124/10/40 123/8/40 78/8/40 77/10/40
f 69/10/41 70/8/41 82/8/41 81/10/41
f 74/8/42 73/10/42 83/10/42 84/8/42
f 86/8/3 88/8/3 92/8/3 90/8/3
f 81/10/43 82/8/43 86/8/43 85/10/43
f 82/8/3 84/8/3 88/8/3 86/8/3
f 84/8/44 83/10/44 87/10/44 88/8/44
f 88/8/45 87/10/45 91/10/45 92/8/45
f 85/10/46 86/8/46 90/8/46 89/10/46
f 89/10/47 90/8/47 94/8/47 93/10/47
f 90/8/3 92/8/3 96/8/3 94/8/3
f 92/8/48 91/10/48 95/10/48 96/8/48
f 100/6/49 99/5/49 107/5/49 108/6/49
f 135/8/3 134/15/3 100/7/3 98/8/3
f 136/11/50 135/8/50 98/8/50 97/10/50
f 101/10/51 102/8/51 106/8/51 105/10/51
f 93/10/52 94/8/52 102/8/52 101/10/52
f 94/8/3 96/8/3 104/8/3 102/8/3
f 96/8/53 95/10/53 103/10/53 104/8/53
f 105/10/54 106/8/54 110/8/54 109/10/54
f 98/8/3 100/7/3 108/7/3 106/8/3
f 112/6/55 111/5/55 115/5/55 116/6/55
f 108/6/56 107/5/56 111/5/56 112/6/56
f 106/8/3 108/7/3 112/7/3 110/8/3
f 102/8/3 104/8/3 98/8/3 106/8/3
f 104/8/57 103/10/57 97/10/57 98/8/57
f 110/8/3 112/7/3 116/7/3 114/8/3
f 109/10/58 110/8/58 114/8/58 113/10/58
f 117/10/59 118/8/59 126/8/59 125/10/59
f 113/10/60 114/8/60 118/8/60 117/10/60
f 116/6/61 115/5/61 119/5/61 120/6/61
f 114/8/3 116/7/3 120/7/3 118/8/3
f 140/10/62 138/8/62 123/8/62 124/10/62
f 138/8/3 137/7/3 122/7/3 123/8/3
f 137/6/63 139/5/63 121/5/63 122/14/63
f 120/6/64 119/5/64 127/5/64 128/6/64
f 118/8/3 120/7/3 128/7/3 126/8/3
f 280/6/65 279/16/65 143/5/65 144/6/65
f 125/10/66 126/8/66 130/8/66 129/10/66
f 128/6/67 127/5/67 131/5/67 132/6/67
f 126/8/3 128/7/3 132/7/3 130/8/3
f 77/10/68 78/8/68 135/8/68 136/11/68
f 78/8/3 80/7/3 134/15/3 135/8/3
f 80/6/69 79/5/69 133/5/69 134/6/69
f 76/6/70 75/5/70 139/5/70 137/6/70
f 74/8/3 76/7/3 137/7/3 138/8/3
f 73/10/71 74/8/71 138/8/71 140/10/71
f 313/6/72 311/5/72 147/5/72 148/6/72
f 281/8/3 280/17/3 144/7/3 142/8/3
f 141/10/73 282/18/73 286/18/73 283/10/73
f 314/8/3 313/7/3 148/7/3 146/8/3
f 312/10/74 314/8/74 146/8/74 145/10/74
f 292/6/75 291/5/75 155/5/75 156/6/75
f 287/10/76 290/18/76 294/10/76 149/10/76
f 148/6/77 147/5/77 151/5/77 152/6/77
f 146/8/3 148/7/3 152/7/3 150/8/3
f 154/8/3 156/7/3 160/7/3 158/8/3
f 293/8/3 292/7/3 156/7/3 154/8/3
f 153/10/78 154/8/78 158/8/78 157/10/78
f 156/6/79 155/5/79 159/5/79 160/6/79
f 164/6/80 163/5/80 167/5/80 168/6/80
f 157/10/81 158/8/81 162/8/81 161/10/81
f 160/6/82 159/5/82 163/5/82 164/6/82
f 158/8/3 160/7/3 164/7/3 162/8/3
f 162/8/3 164/7/3 168/7/3 166/8/3
f 161/10/83 162/8/83 166/8/83 165/10/83
f 172/6/84 171/5/84 175/5/84 176/6/84
f 165/10/85 166/8/85 170/8/85 169/10/85
f 168/6/86 167/5/86 171/5/86 172/6/86
f 166/8/3 168/7/3 172/7/3 170/8/3
f 210/19/3 209/7/3 180/7/3 178/8/3
f 170/8/3 172/7/3 176/7/3 174/8/3
f 169/10/87 170/8/87 174/8/87 173/10/87
f 179/20/73 177/10/73 185/10/73 187/20/73
f 211/21/88 210/19/88 178/8/88 177/10/88
f 209/6/89 212/5/89 179/5/89 180/6/89
f 1/10/90 5/20/90 7/22/90 3/2/90
f 19/20/91 18/11/91 9/10/91 11/20/91
f 11/20/92 9/10/92 13/10/92 15/20/92
f 5/20/93 1/10/93 18/11/93 19/20/93
f 18/11/94 1/10/94 21/10/94 24/11/94
f 24/11/95 21/10/95 25/10/95 28/11/95
f 28/11/96 25/10/96 29/10/96 32/11/96
f 32/11/97 29/10/97 33/10/97 36/11/97
f 36/11/98 33/10/98 37/10/98 40/11/98
f 40/11/73 37/10/73 41/10/73 44/11/73
f 61/10/99 57/10/99 48/11/99 45/10/99
f 44/11/100 41/10/100 45/10/100 48/11/100
f 51/20/101 49/10/101 53/10/101 55/20/101
f 15/20/102 13/10/102 49/10/102 51/20/102
f 55/20/103 53/10/103 57/10/103 59/20/103
f 63/20/104 61/10/104 65/10/104 67/20/104
f 59/20/105 57/10/105 61/10/105 63/20/105
f 71/20/73 69/10/73 73/10/73 75/20/73
f 67/20/106 65/10/106 69/10/106 71/20/106
f 121/23/73 124/10/73 77/10/73 79/20/73
f 83/10/73 81/10/73 85/10/73 87/10/73
f 73/10/73 69/10/73 81/10/73 83/10/73
f 91/10/73 89/10/73 93/10/73 95/10/73
f 87/10/73 85/10/73 89/10/73 91/10/73
f 95/10/107 93/10/107 101/10/107 103/10/107
f 133/24/73 136/11/73 97/10/73 99/20/73
f 99/20/73 97/10/73 105/10/73 107/20/73
f 103/10/108 101/10/108 105/10/108 97/10/108
f 107/20/109 105/10/109 109/10/109 111/20/109
f 115/20/110 113/10/110 117/10/110 119/20/110
f 111/20/111 109/10/111 113/10/111 115/20/111
f 139/25/112 140/10/112 124/10/112 121/23/112
f 127/20/73 125/10/73 129/10/73 131/20/73
f 119/20/113 117/10/113 125/10/113 127/20/113
f 79/20/114 77/10/114 136/11/114 133/24/114
f 75/20/73 73/10/73 140/10/73 139/25/73
f 279/20/73 282/18/73 141/10/73 143/20/73
f 147/20/73 145/10/73 149/10/73 151/20/73
f 311/26/115 312/10/115 145/10/115 147/20/115
f 291/20/73 294/10/73 153/10/73 155/20/73
f 159/20/116 157/10/116 161/10/116 163/20/116
f 155/20/117 153/10/117 157/10/117 159/20/117
f 167/20/118 165/10/118 169/10/118 171/20/118
f 163/20/73 161/10/73 165/10/73 167/20/73
f 171/20/73 169/10/73 173/10/73 175/20/73
f 212/20/119 211/21/119 177/10/119 179/20/119
f 143/20/120 141/10/120 184/10/120 181/20/120
f 141/10/121 142/8/121 183/8/121 184/10/121
f 142/8/3 144/7/3 182/7/3 183/8/3
f 144/6/122 143/5/122 181/5/122 182/6/122
f 188/6/123 187/5/123 191/5/123 192/6/123
f 177/10/124 178/8/124 186/8/124 185/10/124
f 180/6/125 179/5/125 187/5/125 188/6/125
f 178/8/3 180/7/3 188/7/3 186/8/3
f 192/6/126 191/5/126 195/5/126 196/6/126
f 186/8/3 188/7/3 192/7/3 190/8/3
f 187/20/73 185/10/73 189/10/73 191/20/73
f 185/10/127 186/8/127 190/8/127 189/10/127
f 193/10/128 194/8/128 198/8/128 197/10/128
f 190/8/129 192/7/129 196/7/129 194/8/129
f 191/20/130 189/10/130 193/10/130 195/20/130
f 189/10/131 190/8/131 194/8/131 193/10/131
f 200/7/3 196/7/3 226/7/3 228/7/3
f 204/7/132 200/7/132 228/7/132 230/7/132
f 194/8/3 196/7/3 200/7/3 198/8/3
f 195/20/73 193/10/73 197/10/73 199/20/73
f 203/20/133 201/10/133 205/10/133 207/20/133
f 198/8/3 200/7/3 204/7/3 202/8/3
f 199/20/134 197/10/134 201/10/134 203/20/134
f 197/10/135 198/8/135 202/8/135 201/10/135
f 224/7/3 252/7/3 258/7/3 256/7/3
f 201/10/136 202/8/136 206/8/136 205/10/136
f 204/6/137 203/5/137 207/5/137 208/6/137
f 202/8/138 204/7/138 208/7/138 206/8/138
f 175/20/139 173/10/139 211/21/139 212/20/139
f 176/6/140 175/5/140 212/5/140 209/6/140
f 173/10/141 174/8/141 210/19/141 211/21/141
f 174/8/3 176/7/3 209/7/3 210/19/3
f 216/9/3 214/1/3 296/1/3 298/9/3
f 7/4/142 8/3/142 216/3/142 215/4/142
f 8/9/3 4/1/3 214/1/3 216/9/3
f 3/2/143 7/22/143 215/22/143 213/2/143
f 222/8/144 224/7/144 217/7/144 219/8/144
f 221/10/145 222/8/145 219/8/145 220/10/145
f 146/8/146 150/8/146 149/10/146 145/10/146
f 220/10/147 219/8/147 233/8/147 234/10/147
f 224/6/148 223/5/148 218/5/148 217/6/148
f 223/20/149 221/10/149 220/10/149 218/20/149
f 253/8/3 252/7/3 224/7/3 222/8/3
f 251/27/73 254/10/73 221/10/73 223/20/73
f 254/10/150 253/8/150 222/8/150 221/10/150
f 228/6/151 227/5/151 229/5/151 230/6/151
f 226/6/152 225/5/152 227/5/152 228/6/152
f 196/6/153 195/5/153 225/5/153 226/6/153
f 199/20/154 203/20/154 229/20/154 227/20/154
f 203/5/155 204/6/155 230/6/155 229/5/155
f 195/20/156 199/20/156 227/20/156 225/20/156
f 233/8/157 231/7/157 235/7/157 237/8/157
f 217/6/158 218/5/158 232/5/158 231/6/158
f 218/20/73 220/10/73 234/10/73 232/20/73
f 219/8/159 217/7/159 231/7/159 233/8/159
f 238/10/160 237/8/160 241/8/160 242/10/160
f 232/20/73 234/10/73 238/10/73 236/20/73
f 231/6/161 232/5/161 236/5/161 235/6/161
f 234/10/162 233/8/162 237/8/162 238/10/162
f 272/8/163 271/7/163 243/7/163 245/8/163
f 237/8/3 235/7/3 239/7/3 241/8/3
f 236/20/164 238/10/164 242/10/164 240/20/164
f 235/6/165 236/5/165 240/5/165 239/6/165
f 243/6/166 244/5/166 248/5/166 247/6/166
f 274/20/167 273/10/167 246/10/167 244/20/167
f 267/5/168 268/6/168 271/6/168 274/5/168
f 273/10/169 272/8/169 245/8/169 246/10/169
f 247/6/170 248/5/170 276/5/170 275/6/170
f 246/10/171 245/8/171 249/8/171 250/10/171
f 245/8/172 243/7/172 247/7/172 249/8/172
f 244/20/173 246/10/173 250/10/173 248/20/173
f 205/10/174 206/8/174 253/8/174 254/10/174
f 207/20/73 205/10/73 254/10/73 251/27/73
f 206/8/175 208/7/175 252/7/175 253/8/175
f 208/6/176 207/5/176 251/5/176 252/6/176
f 256/7/3 258/7/3 262/7/3 260/7/3
f 251/27/177 223/20/177 255/20/177 257/27/177
f 223/5/178 224/6/178 256/6/178 255/5/178
f 252/6/179 251/5/179 257/5/179 258/6/179
f 260/7/180 262/7/180 266/7/180 264/7/180
f 255/5/181 256/6/181 260/6/181 259/5/181
f 258/6/182 257/5/182 261/5/182 262/6/182
f 257/27/73 255/20/73 259/20/73 261/27/73
f 264/7/3 266/7/3 270/7/3 268/7/3
f 259/5/183 260/6/183 264/6/183 263/5/183
f 262/6/184 261/5/184 265/5/184 266/6/184
f 261/27/185 259/20/185 263/20/185 265/27/185
f 269/27/186 267/20/186 274/20/186 244/20/186
f 263/5/187 264/6/187 268/6/187 267/5/187
f 266/6/188 265/5/188 269/5/188 270/6/188
f 265/27/189 263/20/189 267/20/189 269/27/189
f 242/10/190 241/8/190 272/8/190 273/10/190
f 239/6/191 240/5/191 274/5/191 271/6/191
f 240/20/73 242/10/73 273/10/73 274/20/73
f 241/8/3 239/7/3 271/7/3 272/8/3
f 268/7/3 270/7/3 243/7/3 271/7/3
f 270/6/192 269/5/192 244/5/192 243/6/192
f 275/6/193 276/5/193 304/5/193 303/6/193
f 250/10/194 249/8/194 277/8/194 278/10/194
f 249/8/3 247/7/3 275/7/3 277/8/3
f 248/20/195 250/10/195 278/10/195 276/20/195
f 131/20/196 129/10/196 282/18/196 279/20/196
f 129/10/197 130/8/197 281/8/197 282/18/197
f 130/8/3 132/7/3 280/17/3 281/8/3
f 132/6/198 131/5/198 279/16/198 280/6/198
f 286/18/199 285/8/199 289/8/199 290/18/199
f 282/18/200 281/8/200 285/8/200 286/18/200
f 142/8/201 141/10/201 283/10/201 284/8/201
f 281/8/3 142/8/3 284/8/3 285/8/3
f 288/8/202 287/10/202 149/10/202 150/8/202
f 283/10/203 286/18/203 290/18/203 287/10/203
f 285/8/3 284/8/3 288/8/3 289/8/3
f 284/8/204 283/10/204 287/10/204 288/8/204
f 151/20/73 149/10/73 294/10/73 291/20/73
f 150/8/3 152/7/3 292/7/3 293/8/3
f 154/8/205 153/10/205 294/10/205 293/8/205
f 152/6/206 151/5/206 291/5/206 292/6/206
f 290/18/207 289/8/207 293/8/207 294/10/207
f 289/8/3 288/8/3 150/8/3 293/8/3
f 295/2/73 297/22/73 301/22/73 299/2/73
f 214/1/208 213/2/208 295/2/208 296/1/208
f 213/2/209 215/22/209 297/22/209 295/2/209
f 215/4/210 216/3/210 298/3/210 297/4/210
f 300/1/211 299/2/211 301/28/211 302/29/211
f 297/4/212 298/3/212 302/3/212 301/4/212
f 298/9/3 296/1/3 300/1/3 302/9/3
f 296/1/213 295/2/213 299/2/213 300/1/213
f 305/8/214 303/7/214 307/7/214 309/8/214
f 278/10/215 277/8/215 305/8/215 306/10/215
f 277/8/216 275/7/216 303/7/216 305/8/216
f 276/20/217 278/10/217 306/10/217 304/20/217
f 309/8/218 307/7/218 315/7/218 317/8/218
f 304/20/219 306/10/219 310/10/219 308/20/219
f 303/6/220 304/5/220 308/5/220 307/6/220
f 306/10/221 305/8/221 309/8/221 310/10/221
f 181/20/222 184/10/222 312/10/222 311/26/222
f 184/10/223 183/8/223 314/8/223 312/10/223
f 183/8/3 182/7/3 313/7/3 314/8/3
f 182/6/224 181/5/224 311/5/224 313/6/224
f 318/10/225 317/8/225 321/8/225 322/10/225
f 308/20/226 310/10/226 318/10/226 316/20/226
f 307/6/227 308/5/227 316/5/227 315/6/227
f 310/10/228 309/8/228 317/8/228 318/10/228
f 319/6/229 320/5/229 324/5/229 323/6/229
f 317/8/230 315/7/230 319/7/230 321/8/230
f 316/20/231 318/10/231 322/10/231 320/20/231
f 315/6/232 316/5/232 320/5/232 319/6/232
f 323/6/233 324/5/233 326/10/233 325/8/233
f 322/10/234 321/8/234 325/8/234 326/10/234
f 321/8/3 319/7/3 323/7/3 325/8/3
f 320/20/73 322/10/73 326/10/73 324/20/73
