# Blender 5.1.1
# www.blender.org
mtllib Map3.mtl
o Cube
v 25.085312 63.438690 -120.331909
v 25.085312 -4.364694 -120.331909
v 8.877216 38.416416 -0.187343
v 7.758541 -4.238488 -0.917877
v 17.141773 63.438690 -119.403717
v 17.141773 -4.364694 -119.403717
v -2.039678 36.827240 0.023270
v -1.707281 -4.112283 0.157108
v 4.181090 -3.676300 -48.676929
v 13.245924 44.775826 -48.580387
v 4.181090 44.359718 -48.676929
v 13.245924 -3.440858 -48.580387
v 20.000870 71.596939 -140.906937
v 20.000870 -4.364694 -140.906937
v 9.644016 71.596939 -143.397583
v 9.644016 -4.364694 -143.397583
v 16.292238 -3.440858 -55.288239
v 2.530410 -3.762348 -64.259155
v 16.292238 46.153061 -55.288239
v -51.846123 -4.550732 -76.700607
v -57.164669 -4.550732 -70.562935
v -57.164669 50.971512 -70.562935
v -51.846123 50.971512 -76.700607
v -55.496635 -3.785605 -86.462166
v -62.354324 -3.785605 -87.008362
v -62.354324 52.489822 -87.008362
v -55.496635 52.489822 -86.462166
v -54.853386 -3.785605 -101.689438
v -60.879684 -3.785605 -98.371277
v -60.879684 50.402138 -98.371277
v -54.853386 50.687447 -101.689438
v -61.348217 -3.785605 -112.143356
v -64.303406 -3.785605 -105.931030
v -64.303406 52.489822 -105.931030
v -61.348217 53.357288 -112.143356
v -72.333801 -3.785605 -116.741547
v -71.385880 -3.785605 -109.927757
v -71.385880 56.301155 -109.927757
v -72.333801 58.295746 -116.741547
v -81.971008 -3.785605 -115.298859
v -86.148628 -3.785605 -108.469193
v -86.148628 59.400272 -108.469193
v -81.971008 59.400272 -115.298859
v -94.308685 -3.785605 -129.678711
v -102.715454 -3.785605 -127.567314
v -102.715454 64.026741 -127.567314
v -94.503769 64.026741 -129.544769
v -98.172852 -3.785605 -135.949829
v -105.755516 -3.785605 -136.923996
v -105.755516 62.980591 -136.923996
v -98.172852 62.980591 -135.949829
v -95.468254 -3.785605 -144.543686
v -100.359344 -3.785605 -148.749054
v -100.359344 64.802284 -148.749054
v -95.468254 64.802284 -144.543686
v -85.293427 -3.785605 -161.702621
v -94.468445 -3.785605 -158.658325
v -94.468445 64.738075 -158.658325
v -85.293427 64.738075 -161.702621
v -87.449730 -3.785605 -170.010544
v -94.831543 -3.785605 -166.307678
v -94.831543 68.862358 -166.307678
v -87.449730 68.862358 -170.010544
v -96.757812 -3.785605 -182.589157
v -106.097420 -3.785605 -185.835983
v -106.097420 72.756538 -185.835983
v -96.757812 72.872337 -182.589157
v -94.598755 -3.785605 -191.549866
v -101.189827 -3.785605 -195.699921
v -101.189827 73.319588 -195.699921
v -94.598755 73.319588 -191.549866
v 16.468998 72.519928 -164.313873
v 16.468998 -4.364694 -164.313873
v 7.114964 72.519928 -167.911667
v 7.114964 -4.364694 -167.911667
v 42.945236 79.656921 -198.913361
v 42.945236 -4.364694 -198.913361
v 28.545170 79.656921 -200.281174
v 28.545170 -4.364694 -200.281174
v 45.918098 82.908310 -220.516708
v 47.650482 -3.114548 -220.516708
v 26.619347 79.656921 -220.190155
v 26.619347 -4.364694 -220.190155
v 28.313568 85.087875 -241.604797
v 25.470261 -4.364694 -241.604797
v 18.027809 81.428429 -233.045105
v 18.027809 -4.364694 -233.045105
v 9.097474 32.189121 19.084473
v 8.997780 -5.327877 19.084473
v -3.360221 32.039585 19.084473
v -3.360221 -5.327877 19.084473
v -0.501134 33.664619 8.970005
v 15.635416 37.067841 5.693050
v 15.126368 -5.327877 5.693050
v -0.810442 -4.944898 8.836201
v -11.038543 36.249184 -0.883379
v -11.038543 -4.364694 0.378979
v -13.796485 36.440506 9.577711
v -13.796485 -5.710858 7.938001
v 18.205139 38.330101 -8.907131
v 18.205139 -4.889465 -8.907131
v 25.672817 37.766449 -8.587406
v 25.672817 -6.663443 -8.587406
v 25.272245 34.176826 -25.449841
v 25.272245 -4.364694 -25.449841
v 36.101906 35.522991 -25.207249
v 36.101906 -5.710856 -25.207249
v 24.798769 36.584259 -34.879467
v 24.798769 -4.364694 -34.879467
v 34.207207 37.930424 -41.307251
v 34.207207 -5.710856 -41.307251
v 21.894823 40.433983 -44.598236
v 21.894823 -3.825405 -44.598236
v 28.139290 41.433708 -51.673119
v 29.843622 -4.825127 -51.673119
v -87.172318 42.032280 -68.614349
v -87.172318 -4.364694 -68.614349
v -95.547035 43.378445 -68.868279
v -95.547035 -5.710856 -68.868279
v -80.715469 43.748627 -87.670677
v -80.715469 -4.250104 -87.670677
v -86.749878 45.032509 -93.157249
v -86.749878 -5.533988 -93.157249
v -71.338257 47.096710 -93.543587
v -71.338257 -5.404710 -93.543587
v -73.713104 49.008110 -100.357437
v -73.713104 -4.013575 -100.357437
v -86.903381 40.777817 -76.595963
v -92.709953 42.123978 -79.943138
v -92.709953 -5.710856 -79.943138
v -86.903381 -4.364694 -76.595963
v -28.900227 36.287567 -11.540030
v -52.691196 39.657825 -22.356934
v -72.680313 42.535522 -46.786800
v -87.850517 42.886421 -49.586845
v -87.850517 -5.710856 -49.586845
v -72.680313 -5.710858 -46.786800
v -52.691193 -5.710858 -22.356934
v -28.900227 -5.710858 -13.179706
v -25.850166 37.448433 -18.129843
v -47.767349 39.779522 -28.451454
v -66.155945 43.240471 -52.164566
v -81.259171 41.540260 -56.942127
v -81.259171 -4.364694 -56.942127
v -66.155945 -4.364694 -52.164604
v -47.767349 -4.364694 -28.451454
v -25.850161 -4.364694 -16.867485
v -10.860286 -4.411202 -68.665436
v -20.965084 -4.457708 -64.668716
v -36.187904 -4.504217 -74.358559
v -36.187904 45.598862 -74.358559
v -20.965088 44.514721 -64.668732
v -10.860287 43.852150 -68.665451
v -11.812424 43.852150 -57.745323
v -21.133215 44.514721 -54.533257
v -38.943634 45.598862 -67.300110
v -38.943634 -4.504217 -67.300110
v -21.133215 -4.457708 -54.533257
v -11.812426 -4.411202 -57.745323
v -86.086128 1.204542 -202.353027
v -93.968903 -3.785605 -205.268768
v -94.974594 72.137520 -205.268768
v -86.086128 72.137520 -202.353027
v -79.371765 -3.785605 -215.363312
v -86.536552 -3.785605 -222.847412
v -86.536552 75.454346 -222.847412
v -79.371765 75.454346 -215.363312
v -71.844749 -3.785605 -222.714264
v -76.870186 -3.785605 -232.917709
v -76.870186 76.096855 -232.917709
v -71.844749 74.789398 -222.714264
v -52.845367 -3.785605 -236.897003
v -60.668827 -3.785605 -241.753571
v -60.668827 75.543289 -241.753571
v -52.845367 75.543289 -236.897003
v 32.820950 77.592026 -182.127090
v 24.348885 78.686493 -184.471085
v 32.820950 2.852417 -182.127090
v 24.348885 -3.501517 -184.471085
v 13.529898 -4.364694 -134.888763
v 23.097433 -4.364694 -132.912552
v 23.097433 69.529633 -132.912552
v 13.529898 69.529633 -134.888763
v -8.341453 60.834496 -147.354630
v -8.341453 -3.886614 -147.354630
v -12.931071 -3.886614 -140.456390
v -12.931071 62.928383 -140.456390
v -40.496693 64.271744 -169.433807
v -40.496693 -3.886614 -169.433807
v -36.171951 -3.886614 -155.667786
v -36.171951 60.834496 -155.667786
v -62.867920 60.834496 -175.146912
v -62.867920 -3.886614 -175.146912
v -61.708752 -3.886614 -164.017029
v -61.708752 60.834496 -164.017029
v 19.841816 85.744881 -261.813416
v 18.420162 -4.364694 -261.813416
v 3.858296 83.707687 -258.651733
v 3.766671 -4.364694 -258.651733
v -42.102486 -3.785605 -257.986145
v -49.507885 -3.785605 -264.912689
v -49.507885 77.409782 -264.912689
v -42.102486 77.409782 -257.986145
v -5.844632 -3.785605 -285.452271
v -17.047070 -3.785605 -289.740601
v -17.047070 88.028595 -289.740601
v -5.844632 88.028595 -285.452271
v 5.606009 -3.785605 -298.818848
v -6.438107 -3.785605 -307.679169
v -6.438107 90.110764 -307.679169
v 5.606009 90.110764 -298.818848
v 13.226615 56.612946 -87.537964
v 7.547859 63.508102 -103.548218
v 15.655352 -3.671817 -63.685806
v 25.758572 -3.902776 -86.923737
v 19.403395 -4.133735 -103.705185
v 7.547859 -4.192592 -103.548218
v 13.226615 -4.020495 -87.537964
v 19.403389 63.449238 -103.705185
v 25.758572 56.495213 -86.923721
v 18.691740 47.581661 -63.475838
v 12.042074 86.298630 -280.016663
v 12.621383 -4.364694 -272.825165
v 2.805674 86.298630 -276.986481
v 2.805674 -4.364694 -276.986481
v 18.358345 -3.785605 -322.088806
v 6.706656 -3.785605 -325.159821
v 6.706656 94.597466 -325.159821
v 18.358345 94.597466 -322.088806
v 16.251556 -3.785605 -341.494537
v 8.015945 -3.785605 -341.461426
v 8.015945 103.411247 -341.461426
v 16.251556 103.411247 -341.494537
v 13.533165 -3.785605 -363.758148
v -1.104312 -3.785605 -365.552765
v -1.104312 112.635658 -365.552765
v 13.533165 112.635658 -363.758148
v 14.635686 -3.785606 -397.409973
v 0.120884 -3.785606 -398.108948
v 0.120884 132.281937 -395.285675
v 14.635686 132.281937 -394.586670
v 13.801998 126.771446 -387.343048
v -0.697563 126.771446 -389.137726
v -0.697563 -3.785605 -391.960968
v 13.801998 -3.785605 -390.166321
v 0.860116 26.610596 33.870667
v 0.860116 -1.707776 33.561195
v -12.742603 26.451954 37.091187
v -12.742603 -1.707776 36.785606
v 23.896122 -3.785605 -403.684631
v -8.277924 -3.785605 -404.734161
v -8.277924 136.340347 -404.734161
v 23.896122 136.340347 -403.684631
v 24.535406 -3.785605 -431.546478
v -7.638641 -3.785605 -432.596039
v -7.638641 137.171127 -432.596039
v 24.535406 137.171127 -431.546478
v 7.086578 26.331606 72.387672
v 7.086578 4.156975 78.565552
v -15.320997 26.331606 72.387672
v -15.320997 4.156975 78.565552
v 7.086578 22.647648 100.663773
v 7.086578 -1.707777 100.451859
v -15.320997 22.647648 100.663773
v -15.320997 -1.707777 100.451859
v -16.488501 28.121441 48.893089
v 4.606015 25.839266 49.528923
v -16.488501 -1.707777 48.601845
v 4.606015 -1.707777 49.238449
v -46.762112 26.271748 44.791931
v -46.762112 -1.707776 44.506241
v -45.417778 25.881969 52.298836
v -45.417778 -1.707776 52.022255
v 28.319586 26.188774 58.491291
v 28.319586 -1.707776 58.256275
v 24.934443 25.820072 64.372833
v 24.934443 -1.707776 64.144958
v 44.370354 25.447247 70.320168
v 44.370354 -1.707776 70.099487
v 40.985199 25.078545 76.201706
v 40.985199 -1.707776 75.988159
v -87.825066 25.817698 53.536659
v -87.825066 -1.707776 53.261574
v -86.480728 25.427921 61.043568
v -86.480728 -1.707776 60.777592
v -98.224579 25.675224 56.280613
v -98.224579 -1.707776 56.008854
v -93.598839 25.376698 62.030144
v -93.598839 -1.707776 61.765369
v -112.543312 24.915249 70.917442
v -112.543312 -1.707776 70.663437
v -105.720284 24.823215 72.689957
v -105.720284 -1.707776 72.438103
v -115.868202 24.089039 86.829857
v -115.868202 -1.707776 86.595139
v -108.865570 24.111599 86.395386
v -108.865570 -1.707776 86.160156
v -114.852921 23.078630 106.289871
v -114.852921 -1.707776 106.078751
v -107.850281 23.101189 105.855408
v -107.850281 -1.707776 105.643761
v 78.635719 24.165442 90.767578
v 78.635719 0.834000 89.776466
v 72.882660 23.942270 94.327637
v 72.882660 0.610828 93.336525
v 90.357483 22.926741 110.527428
v 90.357483 -0.404701 109.536316
v 83.659340 22.872295 111.395927
v 83.659340 -0.459146 110.404823
v 91.663582 22.001404 125.288406
v 91.663582 -1.330038 124.297295
v 85.630127 22.192848 122.234505
v 85.630127 -1.138594 121.243385
v 82.556213 20.858860 143.514359
v 82.556213 -2.472583 142.523254
v 76.522758 21.050301 140.460480
v 76.522758 -2.281141 139.469360
v 71.340904 19.518167 164.901154
v 71.340904 -3.813274 163.910034
v 67.698593 19.876982 159.177353
v 67.698593 -3.454460 158.186234
v 49.391747 18.633186 179.018372
v 49.391747 -1.707776 178.929504
v 46.478554 19.017601 172.886230
v 46.478554 -1.707776 172.789917
v 10.105186 17.169548 225.527283
v 10.105186 -1.707776 225.450211
v 10.140010 17.595638 216.877487
v 10.140010 -1.707776 216.789917
v 3.283292 17.015497 228.654617
v 3.283292 -1.707776 228.581345
v -6.563556 17.015497 228.654617
v -6.563556 -1.707776 228.581345
v 3.283292 17.669212 215.383957
v 3.283292 -1.707776 215.294586
v -6.563556 17.669212 215.383957
v -6.563556 -1.707776 215.294586
v -6.563556 -1.707776 333.765686
v -6.563556 15.079521 333.791260
v 3.283292 15.079521 333.791260
v 3.283292 -1.707776 333.765686
v -111.455711 -1.707776 139.699066
v -111.455711 21.335102 139.869461
v -104.453064 21.357662 139.434982
v -104.453064 -1.707776 139.264069
v -110.287766 -1.707776 152.898880
v -110.287766 20.650566 153.053284
v -104.443298 20.870136 148.824524
v -104.443298 -1.707776 148.664978
v -84.277374 -1.707776 194.460754
v -84.277374 18.495193 194.564850
v -81.692337 18.864374 187.454559
v -81.692337 -1.707776 187.341858
v -64.793945 -1.707776 198.064972
v -64.793945 18.308281 198.164673
v -62.153999 18.676212 191.078445
v -62.153999 -1.707776 190.970154
v -28.001194 -1.707776 214.384888
v -28.001194 17.461937 214.464844
v -25.361248 17.829872 207.378601
v -25.361248 -1.707776 207.290070
v -14.119169 -1.707776 225.329453
v -14.119169 17.175491 225.406693
v -11.081051 17.543423 217.937485
v -11.081051 -1.707776 217.851212
v -37.991543 -1.723907 345.766663
v -37.991543 15.063387 345.792297
v 34.711273 15.063387 345.792297
v 34.711273 -1.723907 345.766663
v -82.906021 -1.748069 363.742249
v -82.906021 15.039227 363.767883
v 79.625771 15.039227 363.767883
v 79.625771 -1.748069 363.742249
v -82.906021 -1.778610 437.885864
v -82.906021 15.008686 437.911438
v 79.625771 15.008686 437.911438
v 79.625771 -1.778610 437.885864
v 2.926322 48.864296 -64.004959
vn -0.0983 0.9866 0.1304
vn -0.0939 0.9685 0.2304
vn -0.8556 -0.0000 -0.5177
vn 0.0053 -0.9999 -0.0122
vn 0.9948 -0.0131 0.1011
vn -0.0000 -1.0000 -0.0000
vn -0.0818 -0.9966 0.0070
vn 0.0223 -0.9997 0.0053
vn -0.9923 -0.0039 -0.1235
vn -0.9947 -0.0000 0.1026
vn -0.0597 0.9620 0.2663
vn 0.9325 -0.0000 -0.3612
vn -0.0213 -0.9998 -0.0010
vn 0.0057 -0.9996 0.0271
vn 0.9942 -0.0301 0.1035
vn 0.1479 -0.0000 -0.9890
vn -0.9536 -0.0000 0.3009
vn -0.1763 -0.0000 0.9843
vn 0.0025 -1.0000 0.0015
vn 0.2729 0.9475 0.1670
vn 0.9991 -0.0000 0.0422
vn 0.0458 0.9940 0.0997
vn -0.0232 -0.9985 -0.0505
vn 0.9366 -0.0000 -0.3503
vn 0.0934 0.9741 0.2058
vn -0.9917 -0.0000 -0.1287
vn -0.0539 0.9874 -0.1487
vn 0.8494 -0.0000 -0.5277
vn -0.5096 -0.0000 -0.8604
vn -0.1481 -0.0000 -0.9890
vn 0.3861 -0.0000 -0.9225
vn -0.4915 -0.0000 0.8709
vn 0.3229 0.9127 0.2503
vn 0.1191 0.9786 0.1676
vn 0.0983 -0.0000 0.9952
vn 0.1882 0.9644 0.1856
vn 0.8596 0.0018 -0.5110
vn 0.7550 0.0018 -0.6557
vn -0.7554 -0.0000 0.6553
vn -0.9098 -0.0000 -0.4152
vn -0.9511 -0.0000 0.3090
vn -0.0081 0.9917 -0.1282
vn 0.8601 -0.0000 0.5100
vn -0.0628 0.9865 0.1511
vn 0.9539 -0.0000 0.3002
vn 0.1753 0.8856 0.4301
vn -0.8596 -0.0000 -0.5110
vn 0.0004 1.0000 -0.0045
vn -0.0002 0.9710 0.2392
vn -0.2045 -0.0000 -0.9789
vn -0.9989 -0.0000 0.0474
vn 0.9722 -0.0000 0.2342
vn 0.8038 -0.0000 -0.5948
vn -0.8662 -0.0000 0.4997
vn 0.7855 -0.0000 0.6189
vn -0.8953 -0.0000 -0.4454
vn -0.0274 0.9987 0.0433
vn 0.0304 0.9939 0.1059
vn -0.0124 0.9991 0.0401
vn 0.9888 -0.0000 -0.1492
vn 0.9843 0.0100 0.1760
vn 0.8563 -0.0000 0.5165
vn -0.9665 -0.0000 -0.2565
vn 0.2052 -0.9251 0.3195
vn -0.8314 -0.0000 0.5557
vn -0.9954 -0.0000 0.0963
vn 0.0361 -0.9990 -0.0277
vn -0.0981 0.9923 0.0752
vn -0.1510 0.9789 0.1374
vn 0.0431 -0.9991 -0.0023
vn -0.1549 0.9605 0.2313
vn 0.7274 -0.0046 -0.6862
vn 0.9045 -0.0069 0.4265
vn -0.9666 0.0044 -0.2563
vn -0.0160 -0.9996 -0.0221
vn -0.0373 -0.9938 -0.1048
vn 0.0948 0.9831 0.1565
vn -0.1257 0.9273 0.3525
vn -0.9287 -0.0000 0.3707
vn -0.0127 -0.0219 0.9997
vn 0.0491 -0.9907 -0.1273
vn 0.0381 -0.0169 -0.9991
vn 0.8112 -0.0048 0.5847
vn -0.1628 -0.9781 -0.1295
vn 0.0890 0.9909 0.1013
vn -0.1605 -0.9850 -0.0634
vn -0.6450 0.0149 -0.7640
vn -0.9987 -0.0000 0.0501
vn -0.9196 -0.0000 -0.3929
vn 0.8470 -0.0000 0.5315
vn -0.0354 0.9776 -0.2073
vn 0.8946 0.0170 -0.4465
vn 0.9931 -0.0000 -0.1169
vn -0.0718 0.9789 0.1913
vn -0.1283 -0.9917 0.0119
vn 0.2749 0.0049 -0.9615
vn 0.1136 0.9483 0.2964
vn -0.1469 -0.9890 -0.0170
vn -0.9581 -0.0000 0.2863
vn -0.4182 -0.0000 0.9083
vn 0.2725 0.9005 0.3390
vn 0.0293 0.9681 0.2490
vn 0.1591 0.9865 -0.0386
vn 0.1469 -0.9870 -0.0646
vn 0.8921 -0.0000 -0.4519
vn 0.0080 -0.9999 -0.0142
vn 0.1655 -0.9836 0.0710
vn 0.8730 -0.0000 0.4878
vn -0.9116 -0.0000 -0.4112
vn 0.0347 -0.9933 -0.1101
vn 0.5308 -0.0000 0.8475
vn -0.4835 -0.0000 -0.8754
vn -0.1176 0.9386 0.3242
vn -0.1512 0.9349 0.3211
vn -0.9687 -0.0000 -0.2482
vn 0.9994 -0.0000 0.0337
vn 0.1793 -0.9834 0.0292
vn 0.2087 0.9734 -0.0941
vn 0.7581 -0.0200 -0.6518
vn 0.4464 -0.0131 -0.8947
vn 0.7902 -0.0000 -0.6128
vn 0.3016 -0.0000 -0.9534
vn 0.1798 -0.9737 -0.1402
vn 0.0891 -0.9765 -0.1961
vn 0.1289 -0.9863 -0.1028
vn 0.0415 -0.9853 -0.1656
vn -0.0264 0.9985 0.0478
vn 0.0597 0.9887 0.1375
vn 0.0330 0.9940 0.1046
vn -0.0253 0.9968 -0.0763
vn -0.8131 -0.0227 0.5816
vn -0.3884 -0.0173 0.9213
vn -0.7739 -0.0000 0.6333
vn -0.1815 -0.0000 0.9834
vn 0.0694 0.9976 0.0037
vn 0.0587 0.9982 0.0100
vn 0.0461 -0.9989 0.0020
vn 0.0049 -1.0000 0.0003
vn 0.0025 -1.0000 0.0004
vn -0.4932 -0.0000 0.8699
vn 0.3258 -0.0000 0.9454
vn -0.5826 -0.0000 0.8128
vn -0.3678 -0.0000 -0.9299
vn 0.5370 -0.0000 -0.8436
vn 0.8886 -0.0000 0.4586
vn -0.8186 -0.0054 -0.5744
vn 0.0396 0.9954 -0.0869
vn 0.3195 -0.9475 0.0147
vn 0.0448 0.9981 0.0429
vn -0.9112 -0.0059 -0.4119
vn -0.1044 0.9814 0.1611
vn 0.1592 -0.9600 0.2303
vn 0.5982 -0.0000 0.8014
vn 0.6987 -0.0000 0.7154
vn -0.7214 -0.0000 -0.6925
vn -0.9008 -0.0000 -0.4341
vn -0.4788 -0.0000 -0.8779
vn 0.0327 0.9977 0.0587
vn 0.3106 -0.9471 0.0809
vn -0.6929 -0.0000 -0.7211
vn 0.7367 -0.0000 0.6762
vn -0.0344 0.9594 0.2800
vn -0.9739 -0.0000 0.2272
vn 0.9877 -0.0000 -0.1561
vn -0.0241 0.9153 0.4021
vn -0.0193 0.9977 0.0646
vn -0.2059 -0.0000 0.9786
vn 0.2149 -0.0000 -0.9766
vn -0.3605 0.9326 -0.0181
vn -0.3108 -0.0000 0.9505
vn 0.5660 -0.0000 -0.8244
vn -0.5476 -0.0000 0.8367
vn 0.2604 0.9525 0.1577
vn -0.1176 0.9799 0.1612
vn 0.2474 -0.0000 -0.9689
vn -0.0041 -1.0000 0.0007
vn 0.0977 -0.0000 0.9952
vn 0.9332 -0.0222 -0.3587
vn -0.8743 0.0005 0.4854
vn -0.0559 0.9935 0.0991
vn -0.1320 0.9667 0.2191
vn -0.0471 0.9970 0.0608
vn 0.8911 -0.0000 0.4539
vn -0.0535 0.9941 0.0946
vn 0.6038 -0.0000 0.7971
vn -0.6075 -0.0000 -0.7943
vn -0.0826 0.9830 0.1640
vn 0.0413 0.9833 0.1770
vn -0.8607 -0.0000 -0.5090
vn 0.9463 -0.0000 0.3234
vn 0.9352 -0.0000 -0.3542
vn 0.9398 -0.0262 0.3408
vn 0.0037 -0.9999 0.0142
vn 0.0071 -0.9999 0.0097
vn 0.0075 -0.9999 0.0139
vn 0.0029 1.0000 -0.0011
vn -0.0006 0.9211 0.3893
vn -0.9425 -0.0000 0.3343
vn 0.9575 -0.0082 -0.2883
vn 0.9062 -0.0210 -0.4222
vn -0.9985 0.0005 0.0549
vn -0.0677 0.8940 0.4429
vn 0.8769 -0.0000 0.4806
vn -0.7992 -0.0000 -0.6010
vn -0.0122 -0.9995 -0.0281
vn -0.6994 -0.0000 0.7147
vn 0.9926 -0.0000 -0.1212
vn 0.9942 -0.0000 -0.1079
vn -0.9968 -0.0000 -0.0801
vn -0.9352 -0.0000 0.3540
vn -0.0290 0.9262 0.3760
vn -0.0542 0.7743 0.6305
vn -0.9914 0.0028 -0.1307
vn -0.0150 0.9163 0.4003
vn -0.9999 0.0002 -0.0162
vn 0.9935 -0.0024 0.1134
vn -0.0631 0.8564 0.5124
vn 0.9999 -0.0001 0.0107
vn 0.0291 -0.9717 0.2345
vn 0.0520 0.9984 0.0239
vn 0.8728 -0.0036 0.4881
vn 0.0305 0.9411 0.3368
vn -0.8853 0.0022 -0.4651
vn -0.9997 -0.0000 -0.0229
vn -0.6923 -0.0074 0.7216
vn 0.6397 -0.0079 0.7686
vn 0.0326 -0.0000 -0.9995
vn 0.9997 -0.0000 0.0229
vn -0.0010 0.9996 0.0298
vn -1.0000 -0.0000 -0.0000
vn -0.9991 0.0049 0.0433
vn -0.0028 -0.9810 0.1942
vn 0.9956 -0.0110 -0.0933
vn 0.2130 0.0045 -0.9770
vn -0.0000 -0.9659 -0.2588
vn 1.0000 -0.0000 -0.0000
vn -0.0000 0.9916 0.1292
vn 0.6681 0.0072 -0.7440
vn 0.1175 -0.0098 0.9930
vn 0.0586 0.9977 -0.0326
vn -0.2211 0.0103 -0.9752
vn -0.0511 0.9961 -0.0724
vn -0.5936 -0.0065 0.8047
vn -0.5905 -0.0076 0.8070
vn -0.0349 0.9980 0.0534
vn 0.0561 -0.9980 0.0307
vn -0.0000 0.9980 0.0626
vn 0.5936 0.0067 -0.8047
vn -0.2085 0.0099 -0.9780
vn 0.2085 -0.0097 0.9780
vn -0.0000 0.9987 0.0519
vn 0.6607 -0.0072 0.7506
vn -0.2553 0.0096 -0.9668
vn 0.1374 -0.0097 0.9905
vn -0.7151 0.0068 -0.6990
vn -0.9986 -0.0005 0.0521
vn -0.9789 0.0019 -0.2044
vn 0.9747 -0.0021 0.2235
vn 0.9949 0.0008 -0.1006
vn 0.9986 0.0005 -0.0521
vn -0.0000 -0.9980 -0.0626
vn 0.5049 0.0207 -0.8629
vn -0.4856 -0.0210 0.8739
vn -0.9839 -0.0076 0.1784
vn 0.8605 0.0216 -0.5091
vn -0.8460 -0.0226 0.5327
vn 0.9961 0.0037 -0.0879
vn -0.9048 0.0181 -0.4254
vn 0.8949 -0.0189 0.4460
vn -0.8949 0.0189 -0.4460
vn 0.8860 -0.0197 0.4634
vn -0.0795 -0.9967 0.0138
vn 0.5525 -0.0206 0.8333
vn -0.5545 0.0205 -0.8319
vn 0.7640 -0.0027 0.6452
vn -0.7710 0.0029 -0.6368
vn 0.0222 0.9985 0.0504
vn -0.0000 0.9988 0.0492
vn -0.9971 -0.0005 0.0761
vn -0.0000 0.9991 0.0434
vn 0.9995 -0.0002 0.0331
vn 0.4170 -0.0036 0.9089
vn -0.0000 1.0000 0.0013
vn -0.0000 0.9998 0.0184
vn 1.0000 -0.0000 -0.0010
vn -0.9949 -0.0008 0.1006
vn -0.9961 -0.0006 0.0882
vn 0.1825 0.0053 -0.9832
vn -0.8476 -0.0032 0.5307
vn 0.8618 0.0032 -0.5072
vn -0.1818 -0.0050 0.9833
vn -0.6191 -0.0032 0.7853
vn -0.4053 -0.0042 0.9142
vn 0.4053 0.0045 -0.9142
vn -0.4923 0.0040 -0.8704
vn 0.5946 0.0036 -0.8040
vn -0.0141 0.9989 0.0450
vn -0.3952 -0.0037 0.9186
vn -0.3567 0.0014 -0.9342
vn -0.0000 -1.0000 -0.0013
vn 0.3567 0.0014 -0.9342
vn -0.0000 1.0000 0.0004
vn -0.3716 0.0014 -0.9284
vn 0.3716 0.0014 -0.9284
vn -0.0000 -0.0015 1.0000
vn -0.0000 -1.0000 -0.0004
vn -0.9127 0.0041 -0.4087
vn 0.0325 0.9381 0.3447
vn -0.2534 0.9529 0.1665
vn 0.3163 0.0011 -0.9487
vn -0.0024 0.9662 0.2577
vn 0.0732 0.9786 0.1922
vt 0.625000 0.663164
vt 0.875000 0.663164
vt 0.875000 0.750000
vt 0.625000 0.750000
vt 0.375000 0.212104
vt 0.625000 0.212104
vt 0.625000 0.250000
vt 0.375000 0.250000
vt 0.125000 0.663164
vt 0.375000 0.663164
vt 0.375000 0.750000
vt 0.125000 0.750000
vt 0.375000 0.500000
vt 0.125000 0.500000
vt 0.375000 0.500000
vt 0.375000 0.651584
vt 0.125000 0.651584
vt 0.375000 0.000000
vt 0.625000 0.000000
vt 0.625000 0.086836
vt 0.375000 0.086836
vt 0.875000 0.500000
vt 0.625000 0.500000
vt 0.625000 0.500000
vt 0.125000 0.613688
vt 0.375000 0.613688
vt 0.625000 0.613688
vt 0.625000 0.651584
vt 0.625000 0.098416
vt 0.375000 0.098416
vt 0.375000 0.098416
vt 0.625000 0.098416
vt 0.625000 0.086836
vt 0.125000 0.663164
vt 0.875000 0.663164
vt 0.875000 0.651584
vt 0.875000 0.750000
vt 0.875000 0.750000
vt 0.125000 0.750000
vt 0.125000 0.750000
vt 0.125000 0.750000
vt 0.125000 0.750000
vt 0.875000 0.651584
vt 0.375000 0.086835
vt 0.625000 0.537896
vt 0.375000 0.537896
vt 0.625000 0.575792
vt 0.375000 0.575792
vt 0.125000 0.537896
vt 0.125000 0.575792
vt 0.875000 0.537896
vt 0.875000 0.575792
vt 0.375000 0.174208
vt 0.625000 0.174208
vt 0.625000 1.000000
vt 0.375000 1.000000
vt 0.000000 0.000000
s 0
usemtl Material
f 10/1/1 11/2/1 7/3/1 3/4/1
f 93/4/2 92/3/2 90/3/2 88/4/2
f 217/5/3 213/6/3 5/7/3 6/8/3
f 9/9/4 12/10/4 4/11/4 8/12/4
f 12/10/5 10/1/5 3/4/5 4/11/5
f 181/13/6 180/14/6 16/14/6 14/15/6
f 115/11/7 113/11/7 12/10/7 17/16/7
f 18/17/8 17/16/8 12/10/8 9/9/8
f 8/18/9 7/19/9 11/20/9 9/21/9
f 16/8/10 15/7/10 74/7/10 75/8/10
f 183/22/11 182/23/11 13/24/11 15/22/11
f 182/23/12 181/13/12 14/15/12 13/24/12
f 16/14/13 180/14/13 186/14/13 185/14/13
f 18/25/14 214/26/14 17/16/14
f 214/26/15 221/27/15 19/28/15 17/16/15
f 151/29/16 150/30/16 20/31/16 23/32/16
f 21/21/17 22/20/17 26/20/17 25/21/17
f 157/21/18 156/33/18 22/20/18 21/21/18
f 150/17/19 157/34/19 21/9/19 20/17/19
f 156/35/20 151/36/20 23/36/20 22/2/20
f 27/32/21 24/31/21 28/31/21 31/32/21
f 22/2/22 23/36/22 27/36/22 26/2/22
f 20/17/23 21/9/23 25/9/23 24/17/23
f 23/32/24 20/31/24 24/31/24 27/32/24
f 30/2/25 31/36/25 35/36/25 34/2/25
f 25/21/26 26/20/26 30/20/26 29/21/26
f 26/2/27 27/36/27 31/36/27 30/2/27
f 24/17/6 25/9/6 29/9/6 28/17/6
f 32/17/6 33/9/6 37/9/6 36/17/6
f 28/17/6 29/9/6 33/9/6 32/17/6
f 31/32/28 28/31/28 32/31/28 35/32/28
f 127/18/29 126/19/29 34/20/29 33/21/29
f 39/32/30 36/31/30 40/31/30 43/32/30
f 35/32/31 32/31/31 36/31/31 39/32/31
f 33/21/32 34/20/32 38/20/32 37/21/32
f 34/2/33 35/36/33 39/36/33 38/2/33
f 42/2/34 43/36/34 47/36/34 46/2/34
f 37/21/35 38/20/35 42/20/35 41/21/35
f 38/2/36 39/36/36 43/36/36 42/2/36
f 36/17/6 37/9/6 41/9/6 40/17/6
f 47/32/37 44/31/37 48/31/37 51/32/37
f 40/17/6 41/9/6 45/9/6 44/17/6
f 43/32/38 40/31/38 44/31/38 47/32/38
f 41/21/39 42/20/39 46/20/39 45/21/39
f 49/21/40 50/20/40 54/20/40 53/21/40
f 45/21/41 46/20/41 50/20/41 49/21/41
f 46/2/42 47/36/42 51/36/42 50/2/42
f 44/17/6 45/9/6 49/9/6 48/17/6
f 55/32/43 52/31/43 56/31/43 59/32/43
f 50/2/44 51/36/44 55/36/44 54/2/44
f 48/17/6 49/9/6 53/9/6 52/17/6
f 51/32/45 48/31/45 52/31/45 55/32/45
f 58/2/46 59/36/46 63/36/46 62/2/46
f 53/21/47 54/20/47 58/20/47 57/21/47
f 54/2/48 55/36/48 59/36/48 58/2/48
f 52/17/6 53/9/6 57/9/6 56/17/6
f 62/2/49 63/36/49 67/36/49 66/2/49
f 56/17/6 57/9/6 61/9/6 60/17/6
f 192/7/50 193/8/50 60/31/50 63/32/50
f 57/21/51 58/20/51 62/20/51 61/21/51
f 67/32/52 64/31/52 68/31/52 71/32/52
f 60/17/6 61/9/6 65/9/6 64/17/6
f 63/32/53 60/31/53 64/31/53 67/32/53
f 61/21/54 62/20/54 66/20/54 65/21/54
f 71/32/55 68/31/55 160/31/55 163/32/55
f 65/21/56 66/20/56 70/20/56 69/21/56
f 66/2/57 67/36/57 71/36/57 70/2/57
f 64/17/6 65/9/6 69/9/6 68/17/6
f 177/22/58 176/24/58 76/24/58 78/22/58
f 14/15/6 16/14/6 75/14/6 73/15/6
f 15/22/59 13/24/59 72/24/59 74/22/59
f 13/24/60 14/15/60 73/15/60 72/24/60
f 76/24/61 77/15/61 81/15/61 80/24/61
f 176/24/62 178/15/62 77/15/62 76/24/62
f 179/8/63 177/7/63 78/7/63 79/8/63
f 178/15/64 179/14/64 79/14/64 77/15/64
f 83/8/65 82/7/65 86/7/65 87/8/65
f 79/8/66 78/7/66 82/7/66 83/8/66
f 77/15/67 79/14/67 83/14/67 81/15/67
f 78/22/68 76/24/68 80/24/68 82/22/68
f 86/22/69 84/24/69 196/24/69 198/22/69
f 81/15/70 83/14/70 87/14/70 85/15/70
f 82/22/71 80/24/71 84/24/71 86/22/71
f 80/24/72 81/15/72 85/15/72 84/24/72
f 94/11/73 93/4/73 88/4/73 89/11/73
f 92/19/74 95/18/74 91/18/74 90/19/74
f 95/12/75 94/11/75 89/11/75 91/12/75
f 8/12/76 4/11/76 94/11/76 95/12/76
f 92/3/77 7/3/77 96/3/77 98/3/77
f 3/4/78 7/3/78 92/3/78 93/4/78
f 136/18/79 135/19/79 118/19/79 119/18/79
f 95/18/80 92/19/80 98/19/80 99/18/80
f 8/12/81 95/12/81 99/12/81 97/12/81
f 7/19/82 8/18/82 97/18/82 96/19/82
f 93/4/83 94/11/83 103/11/83 102/4/83
f 103/11/84 101/11/84 105/11/84 107/11/84
f 3/4/85 93/4/85 102/4/85 100/4/85
f 94/11/86 4/11/86 101/11/86 103/11/86
f 4/11/87 3/4/87 100/4/87 101/11/87
f 105/11/88 104/4/88 108/4/88 109/11/88
f 101/11/89 100/4/89 104/4/89 105/11/89
f 102/4/90 103/11/90 107/11/90 106/4/90
f 100/4/91 102/4/91 106/4/91 104/4/91
f 110/4/92 111/11/92 115/11/92 114/4/92
f 106/4/93 107/11/93 111/11/93 110/4/93
f 104/4/94 106/4/94 110/4/94 108/4/94
f 107/11/95 105/11/95 109/11/95 111/11/95
f 114/4/96 115/11/96 17/16/96 19/28/96
f 108/4/97 110/4/97 114/4/97 112/4/97
f 111/11/98 109/11/98 113/11/98 115/11/98
f 109/11/99 108/4/99 112/4/99 113/11/99
f 113/11/100 112/4/100 10/1/100 12/10/100
f 112/4/101 114/4/101 19/28/101 10/1/101
f 129/3/102 128/37/102 120/3/102 122/3/102
f 135/38/103 143/37/103 116/3/103 118/3/103
f 144/12/104 136/39/104 119/12/104 117/12/104
f 143/19/105 144/18/105 117/18/105 116/19/105
f 121/12/106 123/12/106 127/12/106 125/12/106
f 131/40/107 130/12/107 123/12/107 121/12/107
f 128/19/108 131/18/108 121/18/108 120/19/108
f 130/18/109 129/19/109 122/19/109 123/18/109
f 125/12/110 127/12/110 33/9/110 29/9/110
f 120/19/111 121/18/111 125/18/111 124/19/111
f 123/18/112 122/19/112 126/19/112 127/18/112
f 122/3/113 120/3/113 124/3/113 126/3/113
f 126/3/114 124/3/114 30/2/114 34/2/114
f 119/18/115 118/19/115 129/19/115 130/18/115
f 116/19/116 117/18/116 131/18/116 128/19/116
f 117/12/117 119/12/117 130/12/117 131/40/117
f 118/3/118 116/3/118 128/37/118 129/3/118
f 96/19/119 97/18/119 147/18/119 140/19/119
f 140/19/120 147/18/120 146/18/120 141/19/120
f 141/19/121 146/18/121 145/18/121 142/19/121
f 142/19/122 145/18/122 144/18/122 143/19/122
f 97/12/123 99/12/123 139/12/123 147/12/123
f 147/12/124 139/12/124 138/12/124 146/41/124
f 146/41/125 138/12/125 137/12/125 145/42/125
f 145/42/126 137/12/126 136/39/126 144/12/126
f 98/3/127 96/3/127 140/3/127 132/37/127
f 132/37/128 140/3/128 141/3/128 133/3/128
f 133/3/129 141/3/129 142/3/129 134/3/129
f 134/3/130 142/3/130 143/37/130 135/38/130
f 99/18/131 98/19/131 132/19/131 139/18/131
f 139/18/132 132/19/132 133/19/132 138/18/132
f 138/18/133 133/19/133 134/19/133 137/18/133
f 137/18/134 134/19/134 135/19/134 136/18/134
f 154/2/135 153/43/135 152/36/135 155/2/135
f 155/2/136 152/36/136 151/36/136 156/35/136
f 18/17/137 9/9/137 159/9/137 148/17/137
f 148/17/138 159/9/138 158/9/138 149/17/138
f 149/17/139 158/9/139 157/34/139 150/17/139
f 9/21/140 11/20/140 154/20/140 159/44/140
f 159/44/141 154/20/141 155/33/141 158/21/141
f 158/21/142 155/33/142 156/33/142 157/21/142
f 153/32/143 148/31/143 149/31/143 152/32/143
f 152/32/144 149/31/144 150/30/144 151/29/144
f 163/32/145 160/31/145 164/31/145 167/32/145
f 69/21/146 70/20/146 162/20/146 161/21/146
f 70/2/147 71/36/147 163/36/147 162/2/147
f 68/17/148 69/9/148 161/9/148 160/17/148
f 166/2/149 167/36/149 171/36/149 170/2/149
f 161/21/150 162/20/150 166/20/150 165/21/150
f 162/2/151 163/36/151 167/36/151 166/2/151
f 160/17/152 161/9/152 165/9/152 164/17/152
f 171/32/153 168/31/153 172/31/153 175/32/153
f 164/17/6 165/9/6 169/9/6 168/17/6
f 167/32/154 164/31/154 168/31/154 171/32/154
f 165/21/155 166/20/155 170/20/155 169/21/155
f 173/21/156 174/20/156 202/20/156 201/21/156
f 169/21/157 170/20/157 174/20/157 173/21/157
f 170/2/158 171/36/158 175/36/158 174/2/158
f 168/17/6 169/9/6 173/9/6 172/17/6
f 73/15/159 75/14/159 179/14/159 178/15/159
f 75/8/160 74/7/160 177/7/160 179/8/160
f 72/24/161 73/15/161 178/15/161 176/24/161
f 74/22/162 72/24/162 176/24/162 177/22/162
f 6/8/163 5/7/163 183/7/163 180/8/163
f 1/24/164 2/15/164 181/13/164 182/23/164
f 5/22/165 1/24/165 182/23/165 183/22/165
f 2/15/6 6/14/6 180/14/6 181/13/6
f 187/22/166 184/22/166 188/22/166 191/22/166
f 180/8/167 183/7/167 187/7/167 186/8/167
f 15/7/168 16/8/168 185/8/168 184/7/168
f 183/22/169 15/22/169 184/22/169 187/22/169
f 190/8/170 191/7/170 195/7/170 194/8/170
f 184/7/171 185/8/171 189/8/171 188/7/171
f 186/8/172 187/7/172 191/7/172 190/8/172
f 185/14/6 186/14/6 190/14/6 189/14/6
f 195/22/173 192/22/173 63/36/173 59/36/173
f 189/14/6 190/14/6 194/14/6 193/14/6
f 191/22/174 188/22/174 192/22/174 195/22/174
f 188/7/175 189/8/175 193/8/175 192/7/175
f 193/14/176 194/14/176 56/17/176 60/17/176
f 194/8/177 195/7/177 59/32/177 56/31/177
f 84/24/178 85/15/178 197/15/178 196/24/178
f 87/8/179 86/7/179 198/7/179 199/8/179
f 85/15/6 87/14/6 199/14/6 197/15/6
f 198/22/180 196/24/180 222/24/180 224/22/180
f 202/2/181 203/36/181 207/36/181 206/2/181
f 174/2/182 175/36/182 203/36/182 202/2/182
f 172/17/6 173/9/6 201/9/6 200/17/6
f 175/32/183 172/31/183 200/31/183 203/32/183
f 206/2/184 207/36/184 211/36/184 210/2/184
f 200/17/6 201/9/6 205/9/6 204/17/6
f 203/32/185 200/31/185 204/31/185 207/32/185
f 201/21/186 202/20/186 206/20/186 205/21/186
f 210/2/187 211/36/187 229/36/187 228/2/187
f 204/17/6 205/9/6 209/9/6 208/17/6
f 224/22/188 222/24/188 211/36/188 207/36/188
f 205/21/189 206/20/189 210/20/189 209/21/189
f 2/15/190 1/24/190 219/45/190 216/46/190
f 216/46/191 219/45/191 220/47/191 215/48/191
f 215/48/192 220/47/192 221/27/192 214/26/192
f 6/14/193 2/15/193 216/46/193 217/49/193
f 217/49/194 216/46/194 215/48/194 218/50/194
f 218/50/195 215/48/195 214/26/195 18/25/195
f 1/24/196 5/22/196 213/51/196 219/45/196
f 219/45/197 213/51/197 212/52/197 220/47/197
f 218/53/198 212/54/198 213/6/198 217/5/198
f 222/24/199 223/15/199 208/31/199 211/32/199
f 196/24/200 197/15/200 223/15/200 222/24/200
f 199/8/201 198/7/201 224/7/201 225/8/201
f 197/15/6 199/14/6 225/14/6 223/15/6
f 228/2/202 229/36/202 233/36/202 232/2/202
f 208/17/6 209/9/6 227/9/6 226/17/6
f 211/32/203 208/31/203 226/31/203 229/32/203
f 209/21/204 210/20/204 228/20/204 227/21/204
f 223/15/205 225/14/205 204/17/205 208/17/205
f 225/8/206 224/7/206 207/32/206 204/31/206
f 233/32/207 230/31/207 234/31/207 237/32/207
f 226/17/6 227/9/6 231/9/6 230/17/6
f 229/32/208 226/31/208 230/31/208 233/32/208
f 227/21/209 228/20/209 232/20/209 231/21/209
f 231/21/210 232/20/210 236/20/210 235/21/210
f 232/2/211 233/36/211 237/36/211 236/2/211
f 230/17/6 231/9/6 235/9/6 234/17/6
f 243/2/212 242/36/212 241/36/212 240/2/212
f 244/21/213 243/20/213 240/20/213 239/21/213
f 240/2/214 241/36/214 253/36/214 252/2/214
f 235/21/215 236/20/215 243/20/215 244/21/215
f 242/32/216 245/31/216 238/31/216 241/32/216
f 236/2/217 237/36/217 242/36/217 243/2/217
f 237/32/218 234/31/218 245/31/218 242/32/218
f 234/17/6 235/9/6 244/9/6 245/17/6
f 245/17/6 244/9/6 239/9/6 238/17/6
f 91/12/219 89/11/219 247/11/219 249/12/219
f 267/4/220 266/3/220 260/3/220 258/4/220
f 89/11/221 88/4/221 246/4/221 247/11/221
f 88/4/222 90/3/222 248/3/222 246/4/222
f 90/19/223 91/18/223 249/18/223 248/19/223
f 251/21/224 252/20/224 256/20/224 255/21/224
f 239/21/225 240/20/225 252/20/225 251/21/225
f 238/17/6 239/9/6 251/9/6 250/17/6
f 241/32/226 238/31/226 250/31/226 253/32/226
f 254/31/227 255/21/227 256/2/227 257/32/227
f 253/32/228 250/31/228 254/31/228 257/32/228
f 250/17/6 251/9/6 255/9/6 254/17/6
f 252/2/229 253/36/229 257/36/229 256/2/229
f 260/19/230 261/18/230 265/18/230 264/19/230
f 266/19/231 268/18/231 261/18/231 260/19/231
f 268/12/232 269/11/232 259/11/232 261/12/232
f 269/11/233 267/4/233 258/4/233 259/11/233
f 335/11/234 334/4/234 328/4/234 329/11/234
f 261/12/235 259/11/235 263/11/235 265/12/235
f 259/11/236 258/4/236 262/4/236 263/11/236
f 258/4/237 260/3/237 264/3/237 262/4/237
f 247/11/238 246/4/238 274/4/238 275/11/238
f 249/12/6 247/11/6 269/11/6 268/12/6
f 268/18/239 266/19/239 272/19/239 273/18/239
f 246/4/240 248/3/240 266/3/240 267/4/240
f 271/12/6 273/12/6 285/12/6 283/12/6
f 248/19/241 249/18/241 271/18/241 270/19/241
f 249/12/6 268/12/6 273/12/6 271/12/6
f 266/3/242 248/3/242 270/3/242 272/3/242
f 276/4/243 277/11/243 281/11/243 280/4/243
f 269/11/6 247/11/6 275/11/6 277/11/6
f 267/4/244 269/11/244 277/11/244 276/4/244
f 246/4/245 267/4/245 276/4/245 274/4/245
f 281/11/246 279/11/246 303/11/246 305/11/246
f 274/4/247 276/4/247 280/4/247 278/4/247
f 277/11/6 275/11/6 279/11/6 281/11/6
f 275/11/248 274/4/248 278/4/248 279/11/248
f 283/12/6 285/12/6 289/12/6 287/12/6
f 270/19/249 271/18/249 283/18/249 282/19/249
f 273/18/250 272/19/250 284/19/250 285/18/250
f 272/3/251 270/3/251 282/3/251 284/3/251
f 289/18/252 288/19/252 292/19/252 293/18/252
f 282/19/253 283/18/253 287/18/253 286/19/253
f 285/18/254 284/19/254 288/19/254 289/18/254
f 284/3/251 282/3/251 286/3/251 288/3/251
f 291/12/6 293/12/6 297/12/6 295/12/6
f 288/3/251 286/3/251 290/3/251 292/3/251
f 287/12/6 289/12/6 293/12/6 291/12/6
f 286/19/255 287/18/255 291/18/255 290/19/255
f 294/19/256 295/18/256 299/18/256 298/19/256
f 290/19/257 291/18/257 295/18/257 294/19/257
f 293/18/258 292/19/258 296/19/258 297/18/258
f 292/3/251 290/3/251 294/3/251 296/3/251
f 301/18/259 300/19/259 344/19/259 345/18/259
f 297/18/260 296/19/260 300/19/260 301/18/260
f 296/3/251 294/3/251 298/3/251 300/3/251
f 295/12/6 297/12/6 301/12/6 299/12/6
f 305/11/261 303/11/261 307/11/261 309/11/261
f 279/11/262 278/4/262 302/4/262 303/11/262
f 280/4/263 281/11/263 305/11/263 304/4/263
f 278/4/247 280/4/247 304/4/247 302/4/247
f 308/4/264 309/11/264 313/11/264 312/4/264
f 303/11/265 302/4/265 306/4/265 307/11/265
f 304/4/266 305/11/266 309/11/266 308/4/266
f 302/4/247 304/4/247 308/4/247 306/4/247
f 313/11/261 311/11/261 315/11/261 317/11/261
f 306/4/247 308/4/247 312/4/247 310/4/247
f 309/11/261 307/11/261 311/11/261 313/11/261
f 307/11/267 306/4/267 310/4/267 311/11/267
f 316/4/268 317/11/268 321/11/268 320/4/268
f 311/11/269 310/4/269 314/4/269 315/11/269
f 312/4/270 313/11/270 317/11/270 316/4/270
f 310/4/247 312/4/247 316/4/247 314/4/247
f 318/4/247 320/4/247 324/4/247 322/4/247
f 314/4/247 316/4/247 320/4/247 318/4/247
f 317/11/261 315/11/261 319/11/261 321/11/261
f 315/11/271 314/4/271 318/4/271 319/11/271
f 325/11/6 323/11/6 327/11/6 329/11/6
f 321/11/272 319/11/272 323/11/272 325/11/272
f 319/11/273 318/4/273 322/4/273 323/11/273
f 320/4/274 321/11/274 325/11/274 324/4/274
f 331/11/6 335/11/6 329/11/6 327/11/6
f 323/11/275 322/4/275 326/4/275 327/11/275
f 324/4/276 325/11/276 329/11/276 328/4/276
f 322/4/277 324/4/277 328/4/277 326/4/277
f 333/12/6 331/11/6 341/11/6 338/12/6
f 334/4/278 336/3/278 332/3/278 330/4/278
f 362/12/6 365/12/6 337/12/6 333/12/6
f 337/12/6 335/11/6 331/11/6 333/12/6
f 265/12/6 263/11/6 335/11/6 337/12/6
f 264/19/279 265/18/279 337/18/279 336/19/279
f 262/4/280 264/3/280 336/3/280 334/4/280
f 263/11/281 262/4/281 334/4/281 335/11/281
f 334/4/278 330/4/278 326/4/278 328/4/278
f 330/4/282 331/11/282 327/11/282 326/4/282
f 340/4/283 339/3/283 367/3/283 368/4/283
f 331/11/236 330/4/236 340/4/236 341/11/236
f 330/4/284 332/3/284 339/3/284 340/4/284
f 332/19/230 333/18/230 338/18/230 339/19/230
f 345/18/285 344/19/285 348/19/285 349/18/285
f 300/3/251 298/3/251 343/3/251 344/3/251
f 299/12/6 301/12/6 345/12/6 342/12/6
f 298/19/286 299/18/286 342/18/286 343/19/286
f 346/12/6 349/12/6 353/12/6 350/12/6
f 344/3/251 343/3/251 347/3/251 348/3/251
f 342/12/6 345/12/6 349/12/6 346/12/6
f 343/19/287 342/18/287 346/18/287 347/19/287
f 353/18/288 352/19/288 356/19/288 357/18/288
f 347/19/289 346/18/289 350/18/289 351/19/289
f 349/18/290 348/19/290 352/19/290 353/18/290
f 348/3/251 347/3/251 351/3/251 352/3/251
f 354/12/6 357/12/6 361/12/6 358/12/6
f 352/3/251 351/3/251 355/3/251 356/3/251
f 350/12/6 353/12/6 357/12/6 354/12/6
f 351/19/291 350/18/291 354/18/291 355/19/291
f 359/19/292 358/18/292 362/18/292 363/19/292
f 355/19/293 354/18/293 358/18/293 359/19/293
f 357/18/294 356/19/294 360/19/294 361/18/294
f 356/3/251 355/3/251 359/3/251 360/3/251
f 365/18/295 364/19/295 336/19/295 337/18/295
f 361/18/296 360/19/296 364/19/296 365/18/296
f 360/3/297 359/3/297 363/3/297 364/3/297
f 358/12/6 361/12/6 365/12/6 362/12/6
f 364/3/278 363/3/278 332/3/278 336/3/278
f 363/19/298 362/18/298 333/18/298 332/19/298
f 368/4/283 367/3/283 371/3/283 372/4/283
f 339/19/299 338/18/299 366/18/299 367/19/299
f 338/12/300 341/11/300 369/11/300 366/12/300
f 341/11/301 340/4/301 368/4/301 369/11/301
f 372/4/302 371/3/302 375/3/302 376/4/302
f 367/19/303 366/18/303 370/18/303 371/19/303
f 366/12/300 369/11/300 373/11/300 370/12/300
f 369/11/304 368/4/304 372/4/304 373/11/304
f 377/11/305 376/4/305 375/55/305 374/56/305
f 371/19/230 370/18/230 374/18/230 375/19/230
f 370/12/306 373/11/306 377/11/306 374/12/306
f 373/11/236 372/4/236 376/4/236 377/11/236
f 18/25/307 378/57/307 212/54/307 218/50/307
f 221/27/308 220/47/308 212/54/308 378/57/308
f 11/20/309 378/57/309 153/43/309 154/2/309
f 18/25/310 148/31/310 153/43/310 378/57/310
f 19/28/311 378/57/311 11/20/311 10/1/311
f 19/28/312 221/27/312 378/57/312
