# This file uses centimeters as units for non-parametric coordinates.

mtllib CakeBox.mtl
g default
v -0.896296 0.945360 0.881481
v 0.896296 0.945360 0.881481
v -0.896296 0.945360 -0.881481
v 0.896296 0.945360 -0.881481
v -1.140741 0.000000 1.211111
v 1.140741 0.000000 1.211111
v -1.140741 1.000000 1.211111
v 1.140741 1.000000 1.211111
v -1.140741 1.000000 -1.211111
v 1.140741 1.000000 -1.211111
v -1.140741 0.000000 -1.211111
v 1.140741 0.000000 -1.211111
v -0.805264 1.000000 0.854939
v 0.805264 1.000000 0.854939
v 0.805264 1.000000 -0.854939
v -0.805264 1.000000 -0.854939
v -1.047255 0.081623 1.111859
v 1.047255 0.081623 1.111859
v 1.047255 0.081623 -1.111859
v -1.047255 0.081623 -1.111859
v -0.805264 0.887254 0.854939
v -0.805264 0.887254 -0.854939
v 0.805264 0.887254 -0.854939
v 0.805264 0.887254 0.854939
v -1.047255 0.881228 1.111859
v -1.047255 0.881228 -1.111859
v 1.047255 0.881228 -1.111859
v 1.047255 0.881228 1.111859
vt 0.261739 0.764571
vt 0.413558 0.764571
vt 0.261739 0.916390
vt 0.413558 0.916390
vt 0.584527 0.085410
vt 0.584522 0.280250
vt 0.499121 0.280248
vt 0.499126 0.085407
vt 0.248918 0.566466
vt 0.070045 0.566483
vt 0.070027 0.376575
vt 0.248900 0.376557
vt 0.292267 0.085401
vt 0.292261 0.280241
vt 0.206860 0.280239
vt 0.206866 0.085398
vt 0.000000 0.280233
vt 0.000006 0.085392
vt 0.499118 0.365649
vt 0.292258 0.365642
vt 0.292269 0.000000
vt 0.499129 0.000006
vt 0.468704 0.251597
vt 0.468708 0.114056
vt 0.322679 0.251592
vt 0.322683 0.114052
vt 0.209587 0.941572
vt 0.209568 0.804032
vt 0.219196 0.804030
vt 0.219216 0.941571
vt 0.220682 0.646482
vt 0.220662 0.792507
vt 0.211033 0.792506
vt 0.211053 0.646481
vt 0.241544 0.647676
vt 0.241563 0.785217
vt 0.231935 0.785218
vt 0.231915 0.647678
vt 0.241389 0.794258
vt 0.241369 0.940283
vt 0.231741 0.940281
vt 0.231760 0.794256
vt 0.337861 0.398491
vt 0.337874 0.544515
vt 0.317205 0.566462
vt 0.317187 0.376548
vt 0.475403 0.398477
vt 0.496071 0.376529
vt 0.475417 0.544503
vt 0.496090 0.566447
vt 0.070020 0.308288
vt 0.248894 0.308270
vt 0.001758 0.566489
vt 0.001740 0.376581
vt 0.248925 0.634753
vt 0.070052 0.634770
vn 0.000000 1.000000 0.000000
vn 0.000000 1.000000 0.000000
vn 0.000000 1.000000 0.000000
vn 0.000000 1.000000 0.000000
vn 0.000000 0.000000 1.000000
vn 0.000000 0.000000 1.000000
vn 0.000000 0.000000 1.000000
vn 0.000000 0.000000 1.000000
vn 0.000000 1.000000 0.000000
vn 0.000000 1.000000 0.000000
vn 0.000000 1.000000 0.000000
vn 0.000000 1.000000 0.000000
vn 0.000000 0.000000 -1.000000
vn 0.000000 0.000000 -1.000000
vn 0.000000 0.000000 -1.000000
vn 0.000000 0.000000 -1.000000
vn 0.000000 -1.000000 0.000000
vn 0.000000 -1.000000 0.000000
vn 0.000000 -1.000000 0.000000
vn 0.000000 -1.000000 0.000000
vn 1.000000 0.000000 0.000000
vn 1.000000 0.000000 0.000000
vn 1.000000 0.000000 0.000000
vn 1.000000 0.000000 0.000000
vn -1.000000 0.000000 0.000000
vn -1.000000 0.000000 0.000000
vn -1.000000 0.000000 0.000000
vn -1.000000 0.000000 0.000000
vn 0.000000 1.000000 0.000000
vn 0.000000 1.000000 0.000000
vn 0.000000 1.000000 0.000000
vn 0.000000 1.000000 0.000000
vn 0.000000 1.000000 0.000000
vn 0.000000 1.000000 0.000000
vn 0.000000 1.000000 0.000000
vn 0.000000 1.000000 0.000000
vn 0.000000 1.000000 -0.000000
vn 0.000000 1.000000 -0.000000
vn 0.000000 1.000000 -0.000000
vn 0.000000 1.000000 -0.000000
vn 0.000000 1.000000 0.000000
vn 0.000000 1.000000 0.000000
vn 0.000000 1.000000 0.000000
vn 0.000000 1.000000 0.000000
vn 0.000000 0.000000 -1.000000
vn 0.000000 0.000000 -1.000000
vn 0.000000 -0.962693 -0.270597
vn 0.000000 -0.962693 -0.270597
vn -1.000000 0.000000 0.000000
vn -1.000000 0.000000 0.000000
vn -0.279912 -0.960026 0.000000
vn -0.279912 -0.960026 0.000000
vn 0.000000 0.000000 1.000000
vn 0.000000 0.000000 1.000000
vn 0.000000 -0.962693 0.270597
vn 0.000000 -0.962693 0.270597
vn 1.000000 0.000000 0.000000
vn 1.000000 0.000000 0.000000
vn 0.279912 -0.960026 0.000000
vn 0.279912 -0.960026 0.000000
vn 0.991863 -0.127310 0.000000
vn 0.991863 -0.127310 0.000000
vn 0.000000 -0.145457 0.989365
vn 0.000000 -0.145457 0.989365
vn -0.991863 -0.127310 0.000000
vn -0.991863 -0.127310 0.000000
vn 0.000000 -0.145457 -0.989365
vn 0.000000 -0.145457 -0.989365
vn 1.000000 0.000000 0.000000
vn 1.000000 0.000000 0.000000
vn 0.000000 0.000000 1.000000
vn 0.000000 0.000000 1.000000
vn -1.000000 0.000000 0.000000
vn -1.000000 0.000000 0.000000
vn 0.000000 0.000000 -1.000000
vn 0.000000 0.000000 -1.000000
s off
g CakeBox
usemtl lambert2SG
f 1/1/1 2/2/2 4/4/3 3/3/4
usemtl lambert1SG
f 5/5/5 6/6/6 8/7/7 7/8/8
f 17/9/9 18/10/10 19/11/11 20/12/12
f 9/13/13 10/14/14 12/15/15 11/16/16
f 11/16/17 12/15/18 6/17/19 5/18/20
f 6/19/21 12/20/22 10/14/23 8/7/24
f 11/21/25 5/22/26 7/8/27 9/13/28
f 7/8/29 8/7/30 14/23/31 13/24/32
f 8/7/33 10/14/34 15/25/35 14/23/36
f 10/14/37 9/13/38 16/26/39 15/25/40
f 9/13/41 7/8/42 13/24/43 16/26/44
s 1
f 13/27/45 14/28/46 24/29/47 21/30/48
s 2
f 14/31/49 15/32/50 23/33/51 24/34/52
s 3
f 15/35/53 16/36/54 22/37/55 23/38/56
s 4
f 16/39/57 13/40/58 21/41/59 22/42/60
f 22/43/60 21/44/59 25/45/61 26/46/62
s 3
f 23/47/56 22/43/55 26/46/63 27/48/64
s 2
f 24/49/52 23/47/51 27/48/65 28/50/66
s 1
f 21/44/48 24/49/47 28/50/67 25/45/68
s 4
f 26/46/62 25/45/61 17/9/69 20/12/70
s 3
f 27/51/64 26/52/63 20/12/71 19/11/72
s 2
f 28/53/66 27/54/65 19/11/73 18/10/74
s 1
f 25/55/68 28/56/67 18/10/75 17/9/76
