# This file uses centimeters as units for non-parametric coordinates.

mtllib CoffeeBox.mtl
g default
v 1.114043 -0.006376 1.012723
v -1.114043 -0.006376 1.012723
v -1.114043 -0.006376 -1.012723
v 1.114043 -0.006376 -1.012723
v -1.114043 0.962651 1.012723
v -1.018225 0.962651 0.923356
v 1.114043 0.962651 1.012723
v 1.019374 0.962651 0.923356
v -1.114043 0.962651 -1.012723
v -1.018225 0.962651 -0.923348
v 1.114043 0.962651 -1.012723
v 1.019374 0.962651 -0.923348
v -1.018225 0.059466 -0.923348
v -1.018225 0.059466 0.923356
v 1.019374 0.059466 0.923356
v 1.019374 0.059466 -0.923348
v 1.114043 1.284521 -0.012017
v 1.114043 -0.006376 -0.012017
v -1.114043 -0.006376 -0.012017
v -1.114043 1.284521 -0.012017
v -1.018225 1.284521 -0.012017
v -1.018225 0.059466 -0.012017
v 1.019374 0.059466 -0.012017
v 1.019374 1.284521 -0.012017
v -1.066659 1.297670 0.046925
v -1.066659 1.297670 -0.046917
v 1.067807 1.297670 -0.046917
v 1.067807 1.297670 0.046925
v -0.428824 2.169584 0.046925
v -0.428824 2.169584 -0.046917
v 0.429972 2.169585 0.046925
v 0.429972 2.169585 -0.046917
v -0.349034 1.823948 -0.046917
v 0.350521 1.823948 -0.046917
v -0.349034 1.823948 0.046925
v 0.350521 1.823948 0.046925
v -0.335534 2.026196 0.046925
v -0.335534 2.026196 -0.046917
v 0.337020 2.026195 0.046925
v 0.337020 2.026195 -0.046917
v -1.066659 0.047010 0.046925
v -1.066659 0.047010 -0.046917
v 1.067807 0.047010 0.046925
v 1.067807 0.047010 -0.046917
vt 0.600290 0.731162
vt 0.600157 0.540881
vt 0.682913 0.540823
vt 0.683046 0.731104
vt 0.682660 0.177568
vt 0.599904 0.177626
vt 0.599844 0.092164
vt 0.710088 0.092088
vt 0.710340 0.453291
vt 0.600096 0.453367
vt 0.600037 0.367906
vt 0.682793 0.367849
vt 0.692983 0.173249
vt 0.717890 0.094557
vt 0.690551 0.548903
vt 0.690672 0.722916
vt 0.693032 0.372182
vt 0.718045 0.450841
vt 0.690298 0.185745
vt 0.690420 0.359758
vt 0.105034 0.658052
vt 0.105076 0.848333
vt 0.019615 0.848352
vt 0.019573 0.658071
vt 0.847664 0.586603
vt 0.743044 0.586605
vt 0.743042 0.508776
vt 0.820175 0.508775
vt 0.743035 0.177053
vt 0.743032 0.003041
vt 0.820165 0.003039
vt 0.820168 0.177052
vt 0.820171 0.334762
vt 0.743039 0.334764
vt 0.743037 0.256935
vt 0.847658 0.256933
vt 0.338088 0.577194
vt 0.338091 0.751206
vt 0.260263 0.751208
vt 0.260259 0.577195
vt 0.693108 0.536387
vt 0.718064 0.455679
vt 0.192548 0.658033
vt 0.192590 0.848314
vt 0.599783 0.004651
vt 0.682539 0.004593
vt 0.692830 0.008986
vt 0.717902 0.089659
vt 0.820178 0.666485
vt 0.743045 0.666487
vt 0.417973 0.751205
vt 0.417969 0.577192
vt 0.681878 0.932203
vt 0.755220 0.932205
vt 0.755219 0.940219
vt 0.681877 0.940217
vt 0.485110 0.936930
vt 0.430640 0.862467
vt 0.437108 0.857735
vt 0.491578 0.932199
vt 0.627408 0.857740
vt 0.675409 0.936934
vt 0.620939 0.862471
vt 0.577049 0.669184
vt 0.577052 0.651873
vt 0.585066 0.651874
vt 0.585063 0.669185
vt 0.577062 0.592130
vt 0.585076 0.592132
vt 0.577065 0.574820
vt 0.585079 0.574821
vt 0.585053 0.726622
vt 0.577039 0.726620
vt 0.498393 0.902681
vt 0.619393 0.857739
vt 0.558136 0.902683
vt 0.809693 0.857744
vt 0.748406 0.902687
vt 0.688663 0.902685
vt 0.689816 0.919957
vt 0.747253 0.919959
vt 0.499545 0.919953
vt 0.556982 0.919955
vt 0.564920 0.932200
vt 0.429094 0.857735
vt 0.429096 0.750928
vt 0.437110 0.750928
vt 0.619396 0.750932
vt 0.627410 0.750932
vt 0.809695 0.750936
vn 0.000000 0.000000 1.000000
vn 0.000000 0.000000 1.000000
vn 0.000000 0.000000 1.000000
vn 0.000000 0.000000 1.000000
vn -1.000000 -0.000000 0.000000
vn -1.000000 -0.000000 0.000000
vn -1.000000 -0.000000 0.000000
vn -1.000000 -0.000000 0.000000
vn 1.000000 -0.000000 0.000000
vn 1.000000 -0.000000 0.000000
vn 1.000000 -0.000000 0.000000
vn 1.000000 -0.000000 0.000000
vn 0.000000 -0.000000 -1.000000
vn 0.000000 -0.000000 -1.000000
vn 0.000000 -0.000000 -1.000000
vn 0.000000 -0.000000 -1.000000
vn 0.147191 0.937406 -0.315603
vn 0.147191 0.937406 -0.315603
vn 0.147191 0.937406 -0.315603
vn 0.147191 0.937406 -0.315603
vn 0.000000 1.000000 -0.000000
vn 0.000000 1.000000 -0.000000
vn 0.000000 1.000000 -0.000000
vn 0.000000 1.000000 -0.000000
vn -0.148937 0.937158 -0.315519
vn -0.148937 0.937158 -0.315519
vn -0.148937 0.937158 -0.315519
vn -0.148937 0.937158 -0.315519
vn 0.000000 1.000000 0.000000
vn 0.000000 1.000000 0.000000
vn 0.000000 1.000000 0.000000
vn 0.000000 1.000000 0.000000
vn 0.000000 -1.000000 0.000000
vn 0.000000 -1.000000 0.000000
vn 0.000000 -1.000000 0.000000
vn 0.000000 -1.000000 0.000000
vn 1.000000 0.000000 0.000000
vn 1.000000 0.000000 0.000000
vn 1.000000 0.000000 0.000000
vn 1.000000 0.000000 0.000000
vn 0.000000 0.000000 -1.000000
vn 0.000000 0.000000 -1.000000
vn 0.000000 0.000000 -1.000000
vn 0.000000 0.000000 -1.000000
vn -1.000000 0.000000 0.000000
vn -1.000000 0.000000 0.000000
vn -1.000000 0.000000 0.000000
vn -1.000000 0.000000 0.000000
vn 0.000000 0.000000 1.000000
vn 0.000000 0.000000 1.000000
vn 0.000000 0.000000 1.000000
vn 0.000000 0.000000 1.000000
vn 0.000000 1.000000 0.000000
vn 0.000000 1.000000 0.000000
vn 0.000000 1.000000 0.000000
vn 0.000000 1.000000 0.000000
vn -0.145702 0.939936 0.308693
vn -0.145702 0.939936 0.308693
vn -0.145702 0.939936 0.308693
vn -0.145702 0.939936 0.308693
vn 1.000000 0.000000 0.000000
vn 1.000000 0.000000 0.000000
vn 1.000000 0.000000 0.000000
vn 1.000000 0.000000 0.000000
vn 0.000000 -1.000000 0.000000
vn 0.000000 -1.000000 0.000000
vn 0.000000 -1.000000 0.000000
vn 0.000000 -1.000000 0.000000
vn -1.000000 -0.000000 -0.000000
vn -1.000000 -0.000000 -0.000000
vn -1.000000 -0.000000 -0.000000
vn -1.000000 -0.000000 -0.000000
vn 0.143991 0.940174 0.308772
vn 0.143991 0.940174 0.308772
vn 0.143991 0.940174 0.308772
vn 0.143991 0.940174 0.308772
vn 1.000000 0.000000 0.000000
vn 1.000000 0.000000 0.000000
vn 1.000000 0.000000 0.000000
vn 1.000000 0.000000 0.000000
vn 0.000000 1.000000 0.000000
vn 0.000000 1.000000 0.000000
vn 0.000000 1.000000 0.000000
vn 0.000000 1.000000 0.000000
vn -1.000000 0.000000 0.000000
vn -1.000000 0.000000 0.000000
vn -1.000000 0.000000 0.000000
vn -1.000000 0.000000 0.000000
vn -0.000000 1.000000 0.000000
vn -0.000000 1.000000 0.000000
vn -0.000000 1.000000 0.000000
vn -0.000000 1.000000 0.000000
vn -0.807097 0.590419 0.000000
vn -0.807097 0.590419 0.000000
vn -0.807097 0.590419 0.000000
vn -0.807097 0.590419 0.000000
vn 0.807097 0.590419 0.000000
vn 0.807097 0.590419 0.000000
vn 0.807097 0.590419 0.000000
vn 0.807097 0.590419 0.000000
vn 0.997780 -0.066600 0.000000
vn 0.997780 -0.066600 0.000000
vn 0.997780 -0.066600 0.000000
vn 0.997780 -0.066600 0.000000
vn 0.000000 1.000000 0.000000
vn 0.000000 1.000000 0.000000
vn 0.000000 1.000000 0.000000
vn 0.000000 1.000000 0.000000
vn -0.997779 -0.066607 0.000000
vn -0.997779 -0.066607 0.000000
vn -0.997779 -0.066607 0.000000
vn -0.997779 -0.066607 0.000000
vn -0.000002 -1.000000 0.000000
vn -0.000002 -1.000000 0.000000
vn -0.000002 -1.000000 0.000000
vn -0.000002 -1.000000 0.000000
vn 0.000000 0.000000 1.000000
vn 0.000000 0.000000 1.000000
vn 0.000000 0.000000 1.000000
vn 0.000000 0.000000 1.000000
vn 0.000000 0.000000 -1.000000
vn 0.000000 0.000000 -1.000000
vn 0.000000 0.000000 -1.000000
vn 0.000000 0.000000 -1.000000
vn 0.000000 0.000000 -1.000000
vn 0.000000 0.000000 -1.000000
vn 0.000000 0.000000 -1.000000
vn 0.000000 0.000000 -1.000000
vn 0.000000 0.000000 1.000000
vn 0.000000 0.000000 1.000000
vn 0.000000 0.000000 1.000000
vn 0.000000 0.000000 1.000000
vn -0.000000 0.000000 -1.000000
vn -0.000000 0.000000 -1.000000
vn -0.000000 0.000000 -1.000000
vn -0.000000 0.000000 -1.000000
vn 0.000000 0.000000 -1.000000
vn 0.000000 0.000000 -1.000000
vn 0.000000 0.000000 -1.000000
vn 0.000000 0.000000 -1.000000
vn 0.000000 0.000000 1.000000
vn 0.000000 0.000000 1.000000
vn 0.000000 0.000000 1.000000
vn 0.000000 0.000000 1.000000
vn 0.000000 0.000000 1.000000
vn 0.000000 0.000000 1.000000
vn 0.000000 0.000000 1.000000
vn 0.000000 0.000000 1.000000
vn -1.000000 0.000000 0.000000
vn -1.000000 0.000000 0.000000
vn -1.000000 0.000000 0.000000
vn -1.000000 0.000000 0.000000
vn 0.000000 0.000000 1.000000
vn 0.000000 0.000000 1.000000
vn 0.000000 0.000000 1.000000
vn 0.000000 0.000000 1.000000
vn 0.000000 0.000000 -1.000000
vn 0.000000 0.000000 -1.000000
vn 0.000000 0.000000 -1.000000
vn 0.000000 0.000000 -1.000000
vn 1.000000 0.000000 0.000000
vn 1.000000 0.000000 0.000000
vn 1.000000 0.000000 0.000000
vn 1.000000 0.000000 0.000000
s off
g CoffeeBox
usemtl initialShadingGroup
f 2/1/1 1/2/2 7/3/3 5/4/4
f 9/5/5 3/6/6 19/7/7 20/8/8
f 17/9/9 18/10/10 4/11/11 11/12/12
f 4/11/13 3/6/14 9/5/15 11/12/16
f 10/13/17 9/5/18 20/8/19 21/14/20
f 8/15/21 6/16/22 5/4/23 7/3/24
f 11/12/25 12/17/26 24/18/27 17/9/28
f 10/19/29 12/20/30 11/12/31 9/5/32
f 18/21/33 19/22/34 3/23/35 4/24/36
f 21/25/37 22/26/38 13/27/39 10/28/40
f 15/29/41 14/30/42 6/31/43 8/32/44
f 12/33/45 16/34/46 23/35/47 24/36/48
f 13/27/49 16/34/50 12/33/51 10/28/52
f 22/37/53 23/38/54 16/39/55 13/40/56
f 8/41/57 7/3/58 17/9/59 24/42/60
f 7/3/61 1/2/62 18/10/63 17/9/64
f 1/43/65 2/44/66 19/22/67 18/21/68
f 19/7/69 2/45/70 5/46/71 20/8/72
f 5/46/73 6/47/74 21/48/75 20/8/76
f 6/49/77 14/50/78 22/26/79 21/25/80
f 15/51/81 23/38/82 22/37/83 14/52/84
f 23/35/85 15/29/86 8/32/87 24/36/88
f 32/53/89 30/54/90 29/55/91 31/56/92
f 30/57/93 26/58/94 25/59/95 29/60/96
f 27/61/97 32/53/98 31/62/99 28/63/100
f 37/64/101 35/65/102 33/66/103 38/67/104
f 35/65/105 36/68/106 34/69/107 33/66/108
f 36/68/109 39/70/110 40/71/111 34/69/112
f 38/67/113 40/72/114 39/73/115 37/64/116
f 35/74/117 25/59/118 28/75/119 36/76/120
f 26/77/121 33/78/122 34/79/123 27/61/124
f 40/80/125 38/81/126 30/54/127 32/53/128
f 29/60/129 25/59/130 35/74/131 37/82/132
f 38/81/133 33/78/134 26/77/135 30/54/136
f 27/61/137 34/79/138 40/80/139 32/53/140
f 39/83/141 36/76/142 28/75/143 31/84/144
f 31/84/145 29/60/146 37/82/147 39/83/148
f 25/59/149 26/85/150 42/86/151 41/87/152
f 28/75/153 25/59/154 41/87/155 43/88/156
f 26/77/157 27/61/158 44/89/159 42/90/160
f 27/61/161 28/75/162 43/88/163 44/89/164
