# This file uses centimeters as units for non-parametric coordinates.

g default
v -0.010554 4.862466 -0.013236
v -0.036018 4.848031 -0.019573
v -0.029760 4.846023 0.006365
v -0.006876 4.843411 0.016373
v 0.011997 4.841037 0.012602
v 0.021444 4.843346 -0.005563
v -0.003841 4.844841 -0.036076
v 0.018393 4.838430 -0.025435
v -0.026451 4.845569 -0.035304
v 0.078226 4.749911 0.012115
v 0.058678 4.751668 -0.057699
v 0.007712 4.747521 -0.081070
v -0.038313 4.752156 -0.069127
v -0.065252 4.741077 -0.040061
v -0.068002 4.742599 0.008359
v -0.019297 4.747208 0.054185
v 0.032099 4.748749 0.057926
v 0.143235 4.614355 0.026295
v 0.119787 4.623908 -0.089889
v 0.261310 4.392024 0.068380
v 0.241161 4.409557 -0.116571
v 0.035842 4.621396 -0.126873
v 0.111681 4.411283 -0.205143
v -0.031340 4.608954 -0.120014
v -0.086048 4.582732 -0.072810
v -0.010656 4.388729 -0.205238
v -0.102154 4.366933 -0.149892
v -0.096143 4.588681 0.004205
v 0.069278 4.609085 0.099605
v -0.026947 4.598989 0.088369
v 0.127748 4.390322 0.161201
v -0.024077 4.384432 0.130283
v -0.122498 4.381444 -0.002775
v 0.453606 4.016595 0.154130
v 0.404397 4.002284 -0.131586
v 0.288339 4.036880 -0.372403
v 0.050303 3.979557 -0.339725
v -0.153943 3.979068 -0.279491
v -0.182355 3.997691 -0.020799
v -0.082896 4.032380 0.198329
v 0.198454 4.057138 0.273075
v 0.303365 4.293327 -0.121341
v 0.149220 4.289011 0.192628
v -0.135400 4.255183 -0.014482
v 0.007688 4.266958 -0.250598
v 0.350245 4.057871 0.246573
v 0.230814 4.318612 0.172052
v 0.058473 4.041869 0.227203
v 0.059017 4.296346 0.170043
v -0.171787 4.037735 0.125716
v -0.122549 4.273031 0.091192
v -0.172172 3.989871 -0.143143
v -0.124114 4.270323 -0.098783
v -0.064125 3.987901 -0.334435
v -0.073650 4.293766 -0.224342
v 0.165387 4.009598 -0.360526
v 0.077612 4.311534 -0.238066
v 0.384325 4.036457 -0.269276
v 0.249636 4.333991 -0.211250
v 0.428052 4.007031 0.005542
v 0.300257 4.305167 -0.005089
v 0.524587 3.752709 0.026860
v 0.573736 3.763985 0.205224
v 0.395567 3.806176 0.345390
v 0.188431 3.815944 0.354268
v -0.008875 3.775722 0.307473
v -0.234816 3.739979 0.259150
v -0.285923 3.765049 0.151388
v -0.246691 3.774128 -0.024784
v -0.267285 3.753398 -0.146530
v -0.266966 3.718538 -0.315473
v -0.126888 3.721709 -0.406111
v 0.056034 3.730204 -0.428686
v 0.200799 3.766143 -0.467586
v 0.347667 3.805236 -0.452205
v 0.461766 3.815579 -0.312930
v 0.475075 3.773188 -0.124075
v -0.266407 3.401762 -0.236727
v -0.222029 3.437999 -0.088043
v -0.210334 3.445368 0.010050
v -0.262474 3.448408 0.156805
v -0.242690 3.443377 0.252024
v -0.009130 3.493078 0.281158
v 0.208521 3.515781 0.332793
v 0.390047 3.513712 0.341779
v 0.560718 3.459512 0.234018
v 0.549518 3.453975 0.037601
v 0.460721 3.466891 -0.094401
v 0.415966 3.443746 -0.314233
v 0.349836 3.393764 -0.424069
v 0.234231 3.423823 -0.474359
v 0.064810 3.466268 -0.376275
v -0.141870 3.445417 -0.354414
v -0.234749 2.969425 -0.434900
v -0.385870 2.988146 -0.296538
v -0.044153 2.992914 -0.567014
v 0.174526 3.056571 -0.586833
v 0.448493 3.008965 -0.513758
v 0.586307 3.030045 -0.358063
v 0.695745 3.050391 -0.139317
v 0.850470 2.986758 0.134195
v 0.724600 2.968512 0.338729
v 0.468731 2.996458 0.439366
v 0.174414 3.104644 0.544230
v -0.103304 3.043019 0.464179
v -0.281125 3.008747 0.359176
v -0.407281 2.986457 0.224241
v -0.388318 2.995811 -0.107349
v -0.382156 3.010009 0.042226
v 0.788664 2.441490 -0.105446
v 0.992039 2.248613 0.194035
v 0.629198 2.560665 -0.334892
v 0.493906 2.458617 -0.548507
v 0.073481 2.324743 -0.750146
v -0.129786 2.452430 -0.620240
v -0.261247 2.484052 -0.469202
v -0.426695 2.379472 -0.204786
v -0.430507 2.503516 -0.030491
v -0.491340 2.523620 0.105859
v -0.500571 2.332850 0.366350
v -0.295101 2.461133 0.434112
v -0.093381 2.579589 0.465775
v 0.222825 2.305953 0.794167
v 0.543938 2.432518 0.447218
v 0.766902 2.300215 0.360801
v 0.850576 2.057581 0.484357
v 1.097971 1.918826 0.268010
v 0.897738 2.032639 -0.115107
v 0.862076 1.996702 -0.412256
v 0.635109 2.120598 -0.646534
v 0.106829 2.060882 -0.764183
v -0.357702 2.102801 -0.774873
v -0.460547 2.074102 -0.537551
v -0.521835 2.067836 -0.235768
v -0.679147 2.041516 0.167833
v -0.684337 1.906907 0.490394
v -0.615602 2.077362 -0.042801
v -0.375134 2.080479 0.596567
v -0.135011 2.182135 0.629448
v 0.180407 2.115849 0.865071
v 0.579819 2.127764 0.598586
v 1.154170 1.279914 0.375357
v 0.985143 1.451969 -0.040838
v 0.847317 1.441281 -0.373024
v 0.636944 1.350865 -0.765643
v 0.117227 1.610558 -0.812607
v -0.629278 1.413107 -0.774113
v -0.641324 1.455873 -0.641043
v -0.572354 1.602784 -0.281275
v -0.688591 1.612794 -0.059763
v -0.727948 1.510476 0.173037
v -0.615287 1.409486 0.542494
v -0.354521 1.622470 0.712233
v -0.137141 1.679890 0.769624
v 0.143497 1.670750 1.069044
v 0.517267 1.670978 0.671404
v 0.875697 1.549565 0.550384
v -0.560300 2.156153 0.395839
v 0.376526 2.015178 -0.727932
v 0.440788 1.493660 -0.805344
v -0.118795 2.068688 -0.822838
v -0.211956 1.506901 -0.894715
v -0.565304 1.921838 0.602438
v -0.514254 1.488457 0.653770
v -0.736042 1.898463 0.364834
v -0.645731 1.435427 0.305742
v 0.378463 2.135326 0.750108
v 0.319344 1.658137 0.903398
v 0.007774 2.133320 0.783993
v 0.040382 1.656871 0.956689
v 0.914192 2.866944 0.137341
v 0.636930 2.928081 -0.362844
v 0.149756 2.930305 -0.659693
v 0.193826 2.929495 0.646748
v 0.005626 2.422577 0.656308
v 0.020112 2.952066 0.593902
v 0.390336 2.368548 0.628340
v 0.345032 2.958148 0.582215
v 1.011527 1.989376 0.407074
v 0.904964 2.268016 0.315135
v 0.845964 2.833133 0.265074
v 1.024930 1.963637 0.074397
v 0.898190 2.333736 0.002124
v 0.864483 2.914087 -0.014886
v 1.040569 1.362700 0.101141
v 1.053872 1.365008 0.503976
v 0.785703 2.067556 -0.575065
v 0.587870 2.513099 -0.439449
v 0.601158 2.928025 -0.458266
v 0.868702 2.012162 -0.264958
v 0.679835 2.508704 -0.240671
v 0.666466 2.923153 -0.230774
v 0.746594 1.335550 -0.604125
v 0.893347 1.492990 -0.212358
v -0.078208 2.385171 -0.720257
v 0.026211 2.924653 -0.669302
v 0.274045 2.386062 -0.657838
v 0.317690 2.877129 -0.624054
v 1.010705 1.777620 -0.140544
v 1.161998 1.695888 0.083533
v 1.237075 1.637495 0.348968
v 1.118736 1.724222 0.522908
v 0.929263 1.836069 0.581188
v 0.606619 1.938217 0.724118
v 0.389297 1.917905 0.939312
v 0.154018 1.898189 1.070366
v -0.021886 1.928287 0.946712
v -0.179605 1.970771 0.748421
v -0.402601 1.879474 0.692898
v -0.583714 1.733822 0.684406
v -0.748290 1.695893 0.583784
v -0.815308 1.723854 0.392330
v -0.804747 1.804154 0.174265
v -0.727276 1.877288 -0.054853
v -0.628433 1.882349 -0.277479
v -0.635400 1.807703 -0.600174
v -0.578283 1.798640 -0.841798
v -0.203025 1.803932 -0.945833
v 0.120007 1.880135 -0.860553
v 0.422175 1.806355 -0.845299
v 0.718418 1.765641 -0.827903
v 0.890017 1.714508 -0.685499
v 0.962106 1.740772 -0.418537
v 0.958698 1.782062 -0.269381
v -0.286695 3.243729 -0.246552
v -0.153269 3.258568 -0.333331
v 0.049253 3.274874 -0.411365
v 0.212301 3.284260 -0.474195
v 0.371757 3.243718 -0.429296
v 0.453708 3.284672 -0.318501
v 0.534271 3.312558 -0.103569
v 0.662708 3.290984 0.070530
v 0.587418 3.260086 0.219972
v 0.385588 3.312848 0.331830
v 0.196178 3.347309 0.403410
v -0.038128 3.311690 0.323583
v -0.202847 3.257137 0.261227
v -0.266930 3.276478 0.162464
v -0.268063 3.288396 0.021552
v -0.282453 3.280555 -0.094745
v 1.056449 1.649853 -0.130584
v 1.220521 1.510902 0.098801
v 1.298297 1.504615 0.362517
v 1.166996 1.568927 0.567933
v 0.939674 1.714741 0.624510
v 0.615530 1.826361 0.752304
v 0.398118 1.809528 0.972882
v 0.149224 1.808815 1.125370
v -0.038919 1.815461 0.995941
v -0.196665 1.852180 0.799571
v -0.412793 1.777303 0.732548
v -0.581840 1.626572 0.724513
v -0.782487 1.577674 0.632320
v -0.830055 1.581793 0.379861
v -0.837012 1.641270 0.167544
v -0.772546 1.766753 -0.054439
v -0.675991 1.773618 -0.299554
v -0.715225 1.667839 -0.631559
v -0.657216 1.628920 -0.860162
v -0.244218 1.665227 -0.988260
v 0.123034 1.780661 -0.903694
v 0.439842 1.685344 -0.890603
v 0.757850 1.594847 -0.911299
v 0.920864 1.535562 -0.742144
v 1.003559 1.597313 -0.433676
v 1.000686 1.676851 -0.276408
v -0.234962 1.447949 -0.603993
v 0.176124 1.575126 0.676496
v -0.463649 1.507295 0.055341
v 0.789849 1.421271 -0.003816
v 1.044077 1.536247 -0.090404
v 1.178705 1.415816 0.118018
v 1.287544 1.362728 0.405384
v 1.142290 1.443042 0.571457
v 0.941527 1.626522 0.626242
v 0.598207 1.753397 0.738201
v 0.375097 1.736191 0.964288
v 0.144995 1.729538 1.121840
v -0.014150 1.730020 0.998701
v -0.183221 1.764652 0.805809
v -0.414516 1.701551 0.743950
v -0.571066 1.549630 0.712083
v -0.752346 1.468678 0.623631
v -0.771889 1.471223 0.383644
v -0.782930 1.544360 0.168475
v -0.764231 1.685752 -0.059131
v -0.664990 1.689304 -0.299955
v -0.730908 1.551584 -0.648388
v -0.691965 1.501480 -0.853367
v -0.260691 1.551649 -0.985469
v 0.122203 1.705398 -0.902523
v 0.449469 1.600411 -0.885417
v 0.774458 1.458941 -0.952349
v 0.880335 1.373551 -0.758287
v 0.956248 1.473379 -0.410480
v 0.988480 1.562411 -0.259947
v -0.410677 1.440089 0.372186
v -0.045031 1.584178 0.587082
v -0.300673 1.494063 0.488954
v -0.168222 1.572224 0.578661
v -0.303301 1.502239 -0.308303
v 0.112642 1.510280 -0.575144
v 0.312710 1.468741 -0.617305
v 0.454303 1.402438 -0.516222
v 0.623309 1.385649 -0.447546
v 0.635983 1.445440 -0.281116
v 0.444669 1.595831 0.509248
v 0.728270 1.534921 0.449573
v 0.799427 1.407168 0.326106
v 0.854065 1.358259 0.185089
v 0.528604 1.499382 0.216085
v 0.311386 1.492462 -0.255122
v -0.100202 1.542810 0.380668
v 0.187307 1.569131 0.384137
v -0.108118 1.537552 -0.146894
v 0.112991 1.543251 -0.114961
v -0.147716 1.544472 -0.002759
v 0.010188 1.563795 0.097354
v 0.164957 1.573022 0.209316
v 0.322829 1.548964 0.126155
v 1.124411 2.466703 0.177885
v 1.017805 2.484199 0.315169
v 0.868542 2.525462 0.418062
v 0.590847 2.649030 0.569861
v 0.431516 2.621462 0.697537
v 0.273877 2.596699 0.828561
v 0.043629 2.713043 0.713156
v -0.114590 2.747010 0.508799
v -0.335884 2.693443 0.483810
v -0.597977 2.570767 0.367567
v -0.476196 2.735497 0.067867
v -0.503245 2.695950 -0.119463
v -0.584284 2.626100 -0.318604
v -0.304915 2.691554 -0.513515
v -0.126309 2.710964 -0.698959
v -0.045538 2.685400 -0.806306
v 0.068852 2.643844 -0.878504
v 0.306833 2.668418 -0.744645
v 0.587578 2.733650 -0.623704
v 0.656442 2.745443 -0.481857
v 0.650854 2.772415 -0.339544
v 0.666603 2.763962 -0.230904
v 0.853220 2.718505 -0.155287
v 1.010007 2.572661 -0.051002
v 0.847274 2.608270 -0.135304
v 0.981678 2.472733 -0.027246
v 1.110502 2.351120 0.187335
v 1.002169 2.384606 0.323101
v 0.843792 2.417227 0.397474
v 0.579340 2.547786 0.538568
v 0.413475 2.518198 0.677286
v 0.266108 2.477660 0.829977
v 0.005550 2.633572 0.744528
v -0.106514 2.674145 0.500375
v -0.326634 2.595548 0.473991
v -0.555136 2.463583 0.377050
v -0.496175 2.649463 0.076415
v -0.492941 2.610711 -0.095559
v -0.547593 2.510424 -0.285479
v -0.299948 2.599591 -0.512848
v -0.165130 2.613213 -0.705480
v -0.096552 2.587059 -0.826323
v 0.068252 2.504394 -0.892807
v 0.325000 2.568931 -0.763945
v 0.572661 2.621700 -0.606404
v 0.630270 2.665270 -0.471578
v 0.632076 2.700962 -0.337232
v 0.662984 2.676147 -0.226988
v 0.551983 3.607520 0.066224
v 0.630026 3.625727 0.261553
v 0.416997 3.663454 0.388502
v 0.187100 3.673295 0.378211
v -0.041758 3.611103 0.325582
v -0.312842 3.567976 0.281553
v -0.325584 3.601806 0.159135
v -0.266481 3.643827 -0.024217
v -0.306480 3.616340 -0.148299
v -0.322777 3.570164 -0.331359
v -0.154814 3.565395 -0.426117
v 0.066861 3.606533 -0.441893
v 0.266843 3.612415 -0.531514
v 0.403238 3.621193 -0.495041
v 0.487171 3.659156 -0.328500
v 0.448229 3.609493 -0.109989
v -0.315515 3.478491 -0.298762
v -0.275809 3.531809 -0.126680
v -0.239414 3.555138 -0.011123
v -0.300157 3.524400 0.160861
v -0.294054 3.491811 0.271334
v -0.033586 3.550316 0.299650
v 0.197510 3.599049 0.354268
v 0.410129 3.584379 0.382102
v 0.615508 3.536591 0.258489
v 0.547699 3.531317 0.065746
v 0.443641 3.535087 -0.101253
v 0.453148 3.561297 -0.324971
v 0.399005 3.503750 -0.478221
v 0.258431 3.515268 -0.528003
v 0.069835 3.539984 -0.413827
v -0.153024 3.500530 -0.397380
vt 0.493272 0.862669
vt 0.495494 0.858024
vt 0.499852 0.861818
vt 0.706681 0.594418
vt 0.698268 0.593545
vt 0.702469 0.595291
vt 0.694120 0.591748
vt 0.486960 0.855959
vt 0.491876 0.856398
vt 0.676621 0.605805
vt 0.688693 0.615570
vt 0.485623 0.832608
vt 0.495577 0.835170
vt 0.504472 0.835804
vt 0.513474 0.841326
vt 0.713187 0.615986
vt 0.702372 0.617814
vt 0.462103 0.805393
vt 0.676196 0.645717
vt 0.656673 0.697372
vt 0.623816 0.673266
vt 0.482020 0.803170
vt 0.468863 0.753293
vt 0.514008 0.801814
vt 0.497109 0.802375
vt 0.521641 0.752383
vt 0.496936 0.750932
vt 0.528565 0.810608
vt 0.698882 0.649816
vt 0.720139 0.648012
vt 0.693796 0.700168
vt 0.728638 0.695047
vt 0.549046 0.769865
vt 0.569389 0.757361
vt 0.625224 0.784180
vt 0.438105 0.662047
vt 0.492067 0.657117
vt 0.540162 0.664184
vt 0.589382 0.692544
vt 0.754878 0.771289
vt 0.690590 0.777393
vt 0.414108 0.735305
vt 0.693478 0.723784
vt 0.780638 0.706204
vt 0.494893 0.722531
vt 0.656988 0.779601
vt 0.674312 0.719328
vt 0.722935 0.773885
vt 0.713311 0.718059
vt 0.779628 0.763935
vt 0.758264 0.713642
vt 0.566330 0.679111
vt 0.542636 0.738714
vt 0.516839 0.660997
vt 0.512395 0.730936
vt 0.465819 0.659957
vt 0.478610 0.731355
vt 0.407837 0.667900
vt 0.439038 0.734163
vt 0.595932 0.770856
vt 0.631417 0.707514
vt 0.573701 0.828415
vt 0.609763 0.840802
vt 0.656797 0.836465
vt 0.698596 0.831094
vt 0.740726 0.833551
vt 0.788491 0.834487
vt 0.810656 0.821903
vt 0.616105 0.644541
vt 0.594575 0.628999
vt 0.564797 0.608787
vt 0.530925 0.602257
vt 0.493336 0.598750
vt 0.462006 0.603233
vt 0.430681 0.610660
vt 0.393540 0.618582
vt 0.545362 0.809838
vt 0.595535 0.545310
vt 0.343020 0.507259
vt 0.361003 0.506350
vt 0.388281 0.500431
vt 0.404904 0.498707
vt 0.446262 0.508949
vt 0.654754 0.255065
vt 0.625807 0.269574
vt 0.594326 0.290700
vt 0.557979 0.293085
vt 0.530484 0.283815
vt 0.489928 0.283346
vt 0.194365 0.559318
vt 0.216152 0.551545
vt 0.252642 0.544239
vt 0.286163 0.524111
vt 0.293045 0.428590
vt 0.257446 0.437680
vt 0.219696 0.455831
vt 0.189381 0.485523
vt 0.140431 0.507638
vt 0.115255 0.535614
vt 0.520947 0.369553
vt 0.573877 0.390714
vt 0.616346 0.386019
vt 0.657293 0.362304
vt 0.702447 0.323947
vt 0.750723 0.299580
vt 0.418572 0.413682
vt 0.385470 0.409408
vt 0.326964 0.424868
vt 0.354250 0.422261
vt 0.583233 0.526584
vt 0.503913 0.489283
vt 0.459875 0.452314
vt 0.064981 0.426821
vt 0.129552 0.354782
vt 0.191212 0.348583
vt 0.702325 0.213075
vt 0.760034 0.212438
vt 0.778939 0.244556
vt 0.802488 0.256194
vt 0.858671 0.250531
vt 0.865576 0.293686
vt 0.868894 0.334036
vt 0.774946 0.456972
vt 0.686511 0.481010
vt 0.302266 0.147614
vt 0.097072 0.874614
vt 0.183691 0.156160
vt 0.238142 0.211523
vt 0.028499 0.834107
vt 0.153852 0.904494
vt 0.134617 0.139447
vt 0.223798 0.936491
vt 0.101134 0.086443
vt 0.606213 0.138266
vt 0.312908 0.891431
vt 0.688166 0.129203
vt 0.407854 0.801208
vt 0.397045 0.781210
vt 0.732094 0.139712
vt 0.353500 0.730758
vt 0.780768 0.159836
vt 0.346420 0.687707
vt 0.815045 0.173125
vt 0.323555 0.651127
vt 0.852501 0.182256
vt 0.270255 0.611021
vt 0.911817 0.187192
vt 0.206318 0.608222
vt 0.922318 0.248675
vt 0.168255 0.621375
vt 0.930684 0.292836
vt 0.436383 0.185903
vt 0.097568 0.615913
vt 0.084653 0.708298
vt 0.351047 0.183074
vt 0.047431 0.765305
vt 0.300490 0.196330
vt 0.878217 0.224705
vt 0.558876 0.140976
vt 0.262502 0.922330
vt 0.645499 0.129255
vt 0.366355 0.861277
vt 0.929858 0.207846
vt 0.242770 0.604786
vt 0.893790 0.173280
vt 0.296798 0.640538
vt 0.395077 0.183587
vt 0.091508 0.656286
vt 0.466974 0.170075
vt 0.123456 0.619832
vt 0.574095 0.413709
vt 0.474029 0.383757
vt 0.178760 0.461310
vt 0.719352 0.356173
vt 0.806696 0.411371
vt 0.742634 0.333677
vt 0.729101 0.471037
vt 0.691073 0.363084
vt 0.269173 0.207403
vt 0.617292 0.520673
vt 0.599895 0.415292
vt 0.210323 0.187317
vt 0.534889 0.514928
vt 0.547105 0.403984
vt 0.072002 0.858949
vt 0.028331 0.804324
vt 0.113885 0.113472
vt 0.049928 0.454175
vt 0.106418 0.511833
vt 0.158785 0.147276
vt 0.476755 0.466144
vt 0.497814 0.389593
vt 0.193786 0.926192
vt 0.128475 0.888469
vt 0.164754 0.346961
vt 0.196027 0.447940
vt 0.093675 0.384948
vt 0.148865 0.470913
vt 0.161534 0.199316
vt 0.192534 0.235374
vt 0.228140 0.265829
vt 0.265243 0.259355
vt 0.297643 0.239830
vt 0.357849 0.222098
vt 0.408662 0.230222
vt 0.452061 0.234641
vt 0.479498 0.212989
vt 0.965534 0.268083
vt 0.955434 0.227505
vt 0.959102 0.188240
vt 0.941912 0.160538
vt 0.911860 0.145999
vt 0.874139 0.141573
vt 0.832470 0.137484
vt 0.793584 0.124087
vt 0.751362 0.087117
vt 0.713913 0.070556
vt 0.649656 0.077455
vt 0.598412 0.103772
vt 0.545156 0.101328
vt 0.047556 0.132522
vt 0.071766 0.163197
vt 0.115349 0.182220
vt 0.141455 0.186477
vt 0.305621 0.477271
vt 0.276906 0.491713
vt 0.238757 0.512077
vt 0.207449 0.527569
vt 0.175756 0.539859
vt 0.486642 0.312128
vt 0.528509 0.314356
vt 0.566387 0.328223
vt 0.599539 0.326317
vt 0.638331 0.303165
vt 0.671830 0.283563
vt 0.442290 0.476041
vt 0.410678 0.464594
vt 0.387372 0.469202
vt 0.359934 0.476006
vt 0.336750 0.478121
vt 0.153417 0.221808
vt 0.181901 0.266807
vt 0.220645 0.289462
vt 0.260897 0.287383
vt 0.299604 0.262269
vt 0.358411 0.242418
vt 0.409906 0.249742
vt 0.456694 0.251368
vt 0.487854 0.232805
vt 0.984141 0.254855
vt 0.971220 0.216503
vt 0.975876 0.177695
vt 0.957881 0.145710
vt 0.922297 0.123871
vt 0.886571 0.116035
vt 0.842388 0.119332
vt 0.800542 0.103883
vt 0.759132 0.059897
vt 0.724113 0.040726
vt 0.652300 0.051733
vt 0.594753 0.085322
vt 0.538542 0.079868
vt 0.022830 0.156005
vt 0.050044 0.186925
vt 0.102191 0.203884
vt 0.132362 0.204267
vt 0.336021 0.817584
vt 0.137712 0.675033
vt 0.297795 0.697139
vt 0.120845 0.845085
vt 0.094467 0.894051
vt 0.172776 0.282779
vt 0.218811 0.314359
vt 0.261274 0.309695
vt 0.299500 0.277736
vt 0.359244 0.255657
vt 0.411673 0.263070
vt 0.460044 0.263846
vt 0.492286 0.247742
vt 0.997657 0.247523
vt 0.982034 0.208544
vt 0.987209 0.169410
vt 0.970701 0.132519
vt 0.935241 0.106461
vt 0.894294 0.098381
vt 0.847034 0.106013
vt 0.806870 0.090362
vt 0.764452 0.039821
vt 0.730778 0.019297
vt 0.652355 0.031881
vt 0.592151 0.072552
vt 0.534395 0.065779
vt 0.006444 0.174986
vt 0.031273 0.208420
vt 0.093454 0.225295
vt 0.124525 0.222987
vt 0.256851 0.655340
vt 0.177894 0.662378
vt 0.227718 0.650158
vt 0.196445 0.650187
vt 0.313837 0.766675
vt 0.283805 0.852817
vt 0.258905 0.880953
vt 0.225723 0.881832
vt 0.194213 0.890718
vt 0.173506 0.866882
vt 0.114682 0.726610
vt 0.080009 0.766049
vt 0.083023 0.799551
vt 0.088675 0.826852
vt 0.134818 0.781868
vt 0.218872 0.827007
vt 0.208859 0.687884
vt 0.166559 0.718630
vt 0.231797 0.783637
vt 0.267365 0.764300
vt 0.257415 0.739130
vt 0.223457 0.741453
vt 0.188917 0.741703
vt 0.175220 0.771280
vt 0.577941 0.486246
vt 0.604198 0.481136
vt 0.630419 0.468976
vt 0.675877 0.433350
vt 0.710332 0.426072
vt 0.743157 0.417828
vt 0.763648 0.375433
vt 0.467007 0.367614
vt 0.431568 0.352771
vt 0.389828 0.330391
vt 0.347740 0.369071
vt 0.316985 0.367534
vt 0.284519 0.362520
vt 0.238044 0.385508
vt 0.200624 0.401305
vt 0.179948 0.403002
vt 0.158203 0.404200
vt 0.128051 0.432649
vt 0.096556 0.470430
vt 0.079869 0.488352
vt 0.469654 0.412419
vt 0.487723 0.418794
vt 0.517587 0.436197
vt 0.540849 0.466684
vt 0.513274 0.456757
vt 0.538814 0.485380
vt 0.580176 0.503469
vt 0.606659 0.498357
vt 0.635164 0.489342
vt 0.681072 0.453327
vt 0.718407 0.444030
vt 0.754730 0.434134
vt 0.775511 0.386468
vt 0.470441 0.352968
vt 0.433670 0.334425
vt 0.390612 0.311785
vt 0.345456 0.352197
vt 0.317293 0.350275
vt 0.282096 0.343915
vt 0.232470 0.368350
vt 0.197772 0.381556
vt 0.176644 0.385030
vt 0.147500 0.384779
vt 0.115519 0.418186
vt 0.083875 0.455378
vt 0.069186 0.477085
vt 0.465030 0.426013
vt 0.483140 0.434972
vt 0.571131 0.863249
vt 0.610007 0.871490
vt 0.656289 0.867702
vt 0.701331 0.862661
vt 0.750002 0.869660
vt 0.803735 0.868133
vt 0.823058 0.855162
vt 0.629855 0.613852
vt 0.606069 0.599158
vt 0.574857 0.579352
vt 0.539793 0.569708
vt 0.493794 0.569789
vt 0.449486 0.569186
vt 0.422285 0.571875
vt 0.387873 0.585365
vt 0.530820 0.847991
vt 0.583626 0.562999
vt 0.616209 0.581186
vt 0.862769 0.856368
vt 0.826911 0.872450
vt 0.806064 0.883046
vt 0.751424 0.884534
vt 0.700741 0.880236
vt 0.656599 0.884638
vt 0.607593 0.888429
vt 0.567587 0.880132
vt 0.338627 0.561848
vt 0.386349 0.562733
vt 0.419818 0.548562
vt 0.450184 0.549322
vt 0.496055 0.553196
vt 0.544765 0.555123
vt 0.117626 0.909102
vt 0.146692 0.242135
vt 0.141876 0.922130
vt 0.190761 0.963227
vt 0.230405 0.980703
vt 0.279091 0.939088
vt 0.326187 0.910727
vt 0.384265 0.871039
vt 0.430419 0.806401
vt 0.415363 0.767104
vt 0.373422 0.718894
vt 0.362892 0.678782
vt 0.333667 0.646061
vt 0.309030 0.615943
vt 0.280547 0.583350
vt 0.241243 0.586895
vt 0.204479 0.589551
vt 0.167264 0.602855
vt 0.124920 0.602248
vt 0.088286 0.605364
vt 0.071949 0.651480
vt 0.061426 0.702136
vt 0.027375 0.754725
vt 0.005910 0.797781
vt 0.002343 0.843295
vt 0.050851 0.876532
vt 0.588687 0.201203
vt 0.622825 0.181021
vt 0.651401 0.186838
vt 0.668383 0.202316
vt 0.196817 0.064190
vt 0.185465 0.047152
vt 0.164750 0.043516
vt 0.551938 0.225409
vt 0.226564 0.120808
vt 0.215051 0.090560
vt 0.277440 0.154620
vt 0.251104 0.152274
vt 0.382220 0.140224
vt 0.343047 0.124712
vt 0.454507 0.116961
vt 0.422122 0.153169
vt 0.646414 0.511899
vt 0.473567 0.333408
vt 0.436207 0.307867
vt 0.389571 0.287555
vt 0.346315 0.328254
vt 0.321304 0.325895
vt 0.281383 0.312152
vt 0.227466 0.344426
vt 0.549740 0.540626
vt 0.313339 0.504518
vt 0.501027 0.535512
vt 0.453858 0.526771
vt 0.420093 0.522755
vt 0.386004 0.534989
vt 0.526249 0.881216
vt 0.558702 0.895238
vt 0.605107 0.906125
vt 0.657279 0.902613
vt 0.699816 0.898877
vt 0.749364 0.898536
vt 0.803530 0.896277
vt 0.829762 0.890516
vt 0.650896 0.568775
vt 0.630450 0.561270
vt 0.474692 0.049966
vt 0.481995 0.073361
vt 0.493901 0.104320
vt 0.518251 0.169722
vt 0.139985 0.034185
vt 0.487974 0.860266
vt 0.489767 0.869328
vt 0.486220 0.865956
vt 0.494382 0.870461
vt 0.498052 0.867843
vt 0.525749 0.217934
vt 0.519103 0.203759
vt 0.509645 0.182842
vt 0.493870 0.144143
vt 0.470294 0.074205
vt 0.055645 0.497688
vt 0.066645 0.508720
vt 0.161919 0.562035
vt 0.477574 0.363654
vt 0.094473 0.525143
vt 0.039327 0.475232
vt 0.183017 0.581380
vt 0.527064 0.865324
vt 0.341455 0.579341
vt 0.351723 0.619518
vt 0.335545 0.546592
vt 0.376474 0.673586
vt 0.607686 0.697768
vt 0.434025 0.759185
vt 0.655742 0.629671
vt 0.473642 0.834710
vt 0.481434 0.855484
vt 0.801777 0.349690
vt 0.791232 0.339794
vt 0.711264 0.260089
vt 0.453817 0.423229
vt 0.818219 0.360581
vt 0.689385 0.235663
vt 0.639918 0.592684
vt 0.857013 0.833390
vt 0.864231 0.883852
vt 0.842972 0.803274
vt 0.813081 0.756457
vt 0.763327 0.683229
vt 0.560654 0.744282
vt 0.743155 0.642151
vt 0.727010 0.611653
vt 0.711763 0.592233
vn 0.057106 0.998349 0.006224
vn -0.890824 0.414558 -0.185940
vn -0.782126 0.392408 0.484041
vn -0.317720 0.441770 0.838984
vn 0.798611 0.578861 0.164744
vn 0.403298 0.518803 0.753787
vn 0.670990 0.525024 -0.523567
vn 0.144193 0.498803 -0.854637
vn -0.463968 0.424079 -0.777747
vn 0.709089 0.466404 -0.528829
vn 0.851338 0.466806 0.239405
vn 0.114408 0.381384 -0.917310
vn -0.493807 0.300994 -0.815817
vn -0.907161 0.227383 -0.354056
vn -0.893272 0.209570 0.397675
vn -0.457325 0.244239 0.855103
vn 0.313309 0.369409 0.874857
vn 0.736056 0.479102 -0.478208
vn 0.826756 0.481158 0.291480
vn 0.819794 0.494697 0.288465
vn 0.780764 0.526196 -0.336936
vn 0.180626 0.384228 -0.905397
vn 0.233215 0.429906 -0.872234
vn -0.880724 0.203252 -0.427800
vn -0.395233 0.305112 -0.866428
vn -0.857415 0.238253 -0.456152
vn -0.311843 0.339852 -0.887274
vn -0.937019 0.132558 0.323147
vn 0.250917 0.335146 0.908140
vn -0.516270 0.172190 0.838938
vn 0.205042 0.371731 0.905414
vn -0.489045 0.211824 0.846148
vn -0.957703 0.171013 0.231431
vn 0.917247 0.360745 -0.168880
vn 0.908231 0.406116 -0.100925
vn 0.860372 0.445112 0.248264
vn 0.804513 0.414531 -0.425351
vn 0.628630 0.503936 -0.592345
vn 0.899016 0.410876 -0.151499
vn 0.932907 0.339962 -0.118789
vn -0.169190 0.334007 -0.927262
vn -0.137577 0.329736 -0.933995
vn 0.289628 0.420576 -0.859786
vn -0.314955 0.320613 -0.893315
vn -0.466197 0.325389 -0.822668
vn -0.142055 0.316751 -0.937811
vn -0.165236 0.314155 -0.934882
vn -0.956723 0.277009 -0.089148
vn -0.977959 0.170895 -0.119961
vn -0.806408 0.339274 -0.484355
vn -0.877100 0.331266 0.347792
vn -0.822678 0.263020 0.504005
vn -0.978860 0.203344 0.022014
vn -0.960524 0.272677 -0.055152
vn -0.260257 0.286441 0.922073
vn -0.232574 0.226586 0.945816
vn -0.397155 0.314558 0.862161
vn 0.456985 0.424912 0.781418
vn 0.494845 0.473849 0.728420
vn -0.042450 0.326686 0.944179
vn -0.072360 0.329610 0.941340
vn 0.919755 0.010071 -0.392364
vn 0.900378 0.175790 0.398018
vn 0.843066 -0.311399 0.438487
vn 0.920534 -0.096174 -0.378639
vn 0.978670 -0.094303 -0.182513
vn 0.969070 -0.083612 -0.232191
vn 0.971652 0.039682 -0.233060
vn 0.962337 -0.225444 -0.151933
vn 0.618935 0.134314 -0.773873
vn 0.691658 -0.353047 -0.630053
vn -0.868172 0.060718 -0.492535
vn -0.302348 -0.029871 -0.952729
vn -0.214984 -0.492464 -0.843363
vn -0.838838 -0.465066 -0.282958
vn -0.254540 -0.006939 -0.967037
vn -0.288921 -0.359048 -0.887474
vn -0.078251 0.114357 -0.990353
vn -0.131998 -0.306296 -0.942740
vn -0.542914 0.046922 0.838476
vn -0.995993 0.075395 -0.048102
vn -0.905161 -0.358656 -0.228143
vn -0.447150 -0.435459 0.781302
vn -0.997175 0.041581 -0.062560
vn -0.944472 -0.318772 -0.079733
vn -0.986292 0.105217 0.127109
vn -0.924606 -0.257668 0.280555
vn -0.189879 0.009484 0.981762
vn -0.099616 -0.320659 0.941942
vn -0.133635 0.051226 0.989706
vn -0.124211 -0.304378 0.944418
vn 0.321334 0.179211 0.929854
vn 0.209207 -0.294660 0.932420
vn 0.886422 0.392365 0.245573
vn 0.931151 0.206402 -0.300593
vn 0.374423 0.373298 0.848797
vn -0.116180 0.289052 0.950237
vn -0.249495 0.260735 0.932614
vn -0.460979 0.315949 0.829261
vn -0.923355 0.349660 0.158600
vn -0.955391 0.286985 -0.069765
vn -0.942355 0.334093 -0.018668
vn -0.796759 0.353774 -0.489918
vn -0.311916 0.263061 -0.912966
vn -0.207038 0.241629 -0.948025
vn -0.172888 0.300568 -0.937960
vn 0.420845 0.371142 -0.827734
vn 0.911258 0.274349 -0.307151
vn 0.977664 0.159797 -0.136519
vn -0.796977 0.421317 -0.432803
vn -0.834587 0.341646 -0.432138
vn -0.485685 0.318197 -0.814163
vn -0.566818 0.410074 -0.714533
vn -0.356676 0.354577 -0.864325
vn -0.471206 0.485010 -0.736703
vn -0.025149 0.354410 -0.934752
vn 0.045032 0.487251 -0.872100
vn 0.502011 0.359172 -0.786753
vn 0.439698 0.452872 -0.775611
vn 0.781118 0.412252 -0.468939
vn 0.747144 0.462665 -0.477198
vn 0.801295 0.443953 -0.401039
vn 0.773304 0.443123 -0.453478
vn 0.857245 0.509956 -0.071254
vn 0.823092 0.555547 0.117846
vn 0.631779 0.427391 0.646677
vn 0.558251 0.429449 0.709880
vn 0.419614 0.307298 0.854103
vn 0.471568 0.424733 0.772804
vn 0.006357 0.413576 0.910447
vn 0.026771 0.527293 0.849261
vn -0.351908 0.389554 0.851122
vn -0.437098 0.404486 0.803328
vn -0.567453 0.366406 0.737390
vn -0.536760 0.414765 0.734751
vn -0.919857 0.335714 0.202880
vn -0.851018 0.442811 0.282290
vn -0.941661 0.334841 0.034006
vn -0.925767 0.376115 0.038645
vn -0.940146 0.340339 -0.017158
vn -0.930116 0.365546 -0.035502
vn 0.709272 0.402529 0.578708
vn 0.873674 0.475779 0.101626
vn -0.527362 0.215860 0.821762
vn -0.480513 0.303306 0.822869
vn -0.185641 -0.193765 0.963324
vn -0.637039 -0.136522 0.758645
vn -0.891098 0.236454 0.387342
vn -0.837240 -0.275258 0.472507
vn -0.952210 0.287974 -0.101822
vn -0.959223 -0.165432 -0.229182
vn -0.944659 0.305615 0.119242
vn -0.875065 0.214788 -0.433736
vn -0.794326 -0.498295 -0.347490
vn -0.938291 -0.247804 0.241252
vn -0.633088 0.281268 -0.721171
vn -0.634074 -0.361772 -0.683426
vn -0.641482 0.411578 -0.647383
vn -0.834028 -0.117214 -0.539128
vn 0.176720 0.528569 -0.830292
vn -0.320351 0.579588 -0.749302
vn 0.298999 0.462421 -0.834725
vn 0.915757 0.264589 -0.302294
vn 0.749266 0.447581 -0.488130
vn 0.770974 0.192623 -0.607038
vn 0.807092 0.452490 -0.379283
vn 0.995816 0.032701 -0.085325
vn 0.802846 -0.018598 -0.595897
vn 0.582894 -0.377321 -0.719628
vn 0.841173 -0.513804 -0.168623
vn 0.790005 0.103963 -0.604222
vn 0.889986 0.256025 -0.377327
vn 0.687776 -0.084311 -0.721011
vn 0.459144 -0.208672 -0.863506
vn 0.839252 0.284853 -0.463158
vn 0.928348 -0.290423 -0.232002
vn 0.978495 -0.130171 -0.160009
vn 0.923983 0.282554 -0.257716
vn 0.507164 0.087156 -0.857431
vn 0.380777 -0.043391 -0.923648
vn 0.511351 -0.306975 -0.802675
vn 0.664808 -0.325729 -0.672258
vn -0.359442 0.101626 -0.927617
vn -0.662711 -0.173876 -0.728410
vn 0.115617 -0.374160 -0.920129
vn 0.190808 -0.085600 -0.977888
vn -0.749283 0.268713 -0.605284
vn -0.840071 0.137393 -0.524790
vn -0.928098 0.186858 -0.322054
vn -0.972670 0.139216 -0.185829
vn -0.973687 0.153319 -0.168605
vn -0.798349 0.295581 0.524663
vn -0.340445 0.232497 0.911067
vn -0.572833 0.092341 0.814454
vn -0.662165 0.118250 0.739969
vn -0.659191 -0.043947 0.750690
vn 0.039544 0.140008 0.989361
vn 0.680710 0.095164 0.726346
vn 0.699055 -0.313193 0.642831
vn 0.046322 -0.218749 0.974681
vn 0.525834 0.033682 0.849920
vn 0.443118 0.227374 0.867149
vn 0.272883 -0.373006 0.886793
vn 0.457169 -0.399712 0.794498
vn 0.646648 0.184893 0.740041
vn 0.570133 -0.330190 0.752278
vn 0.237148 -0.843087 -0.482664
vn 0.631266 -0.533765 -0.562671
vn 0.645258 -0.598274 -0.475090
vn 0.135302 -0.911156 -0.389214
vn 0.766562 -0.639937 0.053507
vn 0.839685 -0.530410 -0.116592
vn 0.289287 -0.951237 -0.107058
vn 0.288326 -0.939463 0.185142
vn -0.229867 -0.901280 -0.367228
vn 0.197792 -0.485717 -0.851444
vn 0.629355 -0.720601 -0.290941
vn 0.119204 -0.989127 0.086124
vn 0.142177 -0.388828 -0.910274
vn -0.204959 -0.372265 -0.905213
vn -0.353766 -0.771055 -0.529456
vn 0.085015 -0.873293 -0.479721
vn -0.528168 -0.433655 -0.730056
vn -0.014549 -0.448919 -0.893454
vn 0.205431 -0.907734 -0.365811
vn -0.078697 -0.973259 -0.215812
vn -0.248141 -0.949669 0.191197
vn -0.930986 -0.336364 0.141859
vn -0.381350 -0.919182 0.098372
vn -0.897975 -0.435049 0.066134
vn -0.412122 -0.867633 -0.278151
vn -0.811434 -0.450046 -0.372872
vn -0.300754 -0.871966 -0.386292
vn -0.738397 -0.609601 -0.288368
vn -0.571681 -0.702584 0.423740
vn -0.662629 -0.748294 -0.031267
vn -0.105953 -0.969977 -0.218904
vn -0.002437 -0.990093 0.140391
vn -0.089674 -0.228211 0.969473
vn -0.092778 -0.454649 0.885826
vn 0.211012 -0.815346 0.539153
vn 0.153607 -0.699760 0.697668
vn -0.230065 -0.862076 0.451548
vn -0.500458 -0.324467 0.802660
vn 0.067629 -0.435665 0.897565
vn -0.655493 -0.399157 0.641094
vn -0.206074 -0.923543 0.323423
vn 0.069386 -0.891805 0.447068
vn 0.335851 -0.554291 0.761555
vn 0.567080 -0.535852 0.625526
vn 0.276369 -0.903252 0.328262
vn 0.166301 -0.888527 0.427626
vn -0.235235 -0.706082 0.667916
vn 0.064167 -0.385754 0.920368
vn 0.787708 -0.596208 0.155088
vn 0.324297 -0.385603 0.863795
vn -0.240112 -0.795833 0.555875
vn 0.101449 -0.993597 0.049738
vn 0.479933 0.492607 0.725949
vn 0.699878 0.476037 0.532503
vn 0.523147 0.475770 0.707078
vn 0.520589 0.471237 0.711985
vn 0.042500 0.576586 0.815930
vn -0.478945 0.416554 0.772719
vn -0.487660 0.480215 0.729096
vn -0.426462 0.458935 0.779429
vn -0.756658 0.456385 0.468168
vn -0.899276 0.437187 -0.013032
vn -0.862731 0.401599 -0.307269
vn -0.854543 0.440107 -0.275796
vn -0.812154 0.514611 -0.274920
vn -0.526441 0.529210 -0.665430
vn 0.195221 0.310492 -0.930314
vn -0.056921 0.387339 -0.920179
vn 0.363852 0.417960 -0.832419
vn 0.188707 0.386702 -0.902691
vn 0.895701 0.380136 -0.230687
vn 0.749100 0.430238 -0.503731
vn 0.853357 0.303671 -0.423751
vn 0.904100 0.356077 -0.236248
vn 0.874868 0.325944 -0.358282
vn 0.907289 0.419677 0.026432
vn -0.716983 0.509273 0.476000
vn -0.495946 0.492419 0.715235
vn -0.854894 0.480801 0.194900
vn 0.716785 0.297585 0.630604
vn 0.548548 0.216841 0.807511
vn 0.855508 0.260558 -0.447454
vn 0.961401 0.264200 0.076853
vn 0.712913 0.067465 -0.698000
vn 0.652395 0.233673 -0.720957
vn 0.895024 0.193581 -0.401820
vn 0.990521 0.013689 -0.136680
vn 0.375888 0.347938 -0.858864
vn 0.501802 0.326095 -0.801160
vn -0.377557 0.491005 -0.785089
vn 0.149142 0.391224 -0.908130
vn -0.427139 0.334751 0.839937
vn 0.559701 0.294505 0.774598
vn 0.192477 0.321961 0.926981
vn 0.525974 0.287050 0.800596
vn 0.082697 0.507435 0.857713
vn 0.470485 0.494332 0.730945
vn -0.472182 0.377333 0.796658
vn 0.878783 0.359837 -0.313461
vn 0.849546 0.367862 -0.378085
vn 0.906774 0.417431 0.059274
vn 0.709704 0.457426 0.535801
vn 0.482564 0.440870 0.756813
vn 0.523081 0.459848 0.717583
vn 0.483358 0.504411 0.715497
vn 0.038381 0.585962 0.809429
vn -0.491006 0.539445 0.684041
vn -0.488954 0.479986 0.728380
vn -0.358999 0.427642 0.829604
vn -0.469884 0.399104 0.787354
vn -0.762064 0.366919 0.533507
vn -0.931955 0.311261 0.185950
vn -0.928591 0.368618 -0.042893
vn -0.861193 0.438703 -0.256683
vn -0.836490 0.506126 -0.210050
vn -0.825523 0.536088 -0.176412
vn -0.563176 0.490767 -0.664817
vn -0.087084 0.369916 -0.924975
vn 0.170826 0.420243 -0.891187
vn 0.121296 0.456206 -0.881569
vn 0.367237 0.457274 -0.809961
vn 0.797526 0.372571 -0.474493
vn 0.917340 0.331390 -0.220609
vn 0.912521 0.364082 -0.186410
vn -0.945163 -0.116197 -0.305229
vn -0.328788 -0.211646 -0.920383
vn -0.314382 -0.110850 -0.942802
vn -0.176111 -0.150321 -0.972825
vn 0.633430 -0.141728 -0.760710
vn 0.949029 0.043657 -0.312150
vn 0.902135 0.246462 -0.354132
vn 0.912128 0.305997 -0.272743
vn 0.775520 -0.054765 0.628943
vn 0.283525 -0.138928 0.948848
vn -0.103084 0.065589 0.992508
vn -0.242394 0.077170 0.967104
vn -0.482828 -0.125044 0.866741
vn -0.989447 -0.133195 -0.057042
vn -0.996557 0.008993 -0.082426
vn -0.981596 0.029365 0.188696
vn 0.903244 -0.001201 -0.429126
vn 0.876546 0.075932 -0.475290
vn 0.994036 0.091556 0.059239
vn 0.668930 0.196231 0.716956
vn 0.393611 0.172513 0.902945
vn 0.548290 0.116130 0.828186
vn 0.620606 0.080284 0.780002
vn 0.044659 0.186795 0.981383
vn -0.665169 0.181456 0.724309
vn -0.567802 0.256384 0.782220
vn -0.323498 0.257738 0.910450
vn -0.363241 0.144139 0.920478
vn -0.831308 -0.020949 0.555418
vn -0.988981 -0.125311 0.078831
vn -0.988602 -0.061917 -0.137230
vn -0.944395 0.149147 -0.293040
vn -0.948739 0.282627 -0.141478
vn -0.948511 0.301117 -0.098260
vn -0.587128 0.251069 -0.769575
vn -0.113515 0.159961 -0.980575
vn 0.148874 0.215994 -0.964978
vn 0.056598 0.267392 -0.961924
vn 0.420067 0.283649 -0.862025
vn 0.912270 0.056058 -0.405735
vn 0.983787 -0.002856 -0.179318
vn 0.975328 0.112668 -0.189845
vn 0.059470 -0.997920 0.024861
vn 0.026442 -0.978896 0.202640
vn -0.055463 -0.987228 -0.149350
vn -0.143568 -0.988362 -0.050292
vn 0.227589 -0.970764 -0.076290
vn -0.034687 -0.976033 0.214840
vn 0.314123 -0.934605 0.166855
vn 0.204725 -0.887616 0.412585
vn -0.074196 -0.989412 0.124738
vn 0.011494 -0.996410 -0.083881
vn -0.338506 -0.925658 -0.169033
vn -0.283295 -0.957692 0.050699
vn -0.072068 -0.962944 0.259895
vn -0.088375 -0.987686 0.129096
vn 0.000069 -0.962510 0.271245
vn -0.271069 -0.853545 0.444952
vn -0.382607 -0.878504 0.286081
vn -0.282673 -0.957696 -0.053977
vn -0.210858 -0.967822 0.137327
vn -0.137317 -0.983639 0.116610
vn 0.152775 -0.988261 -0.000596
vn -0.001396 -0.996327 0.085616
vn -0.086866 -0.978658 0.186234
vn 0.038704 -0.985059 0.167809
vn 0.107705 -0.993744 0.029538
vn 0.060136 -0.997945 0.022132
vn -0.041150 -0.999106 0.009692
vn -0.186674 -0.978130 0.091732
s 1
g Pine_Snow_LOW Pine_Group
f 1/1/1 2/2/2 3/3/3 4/476/4
f 6/473/5 1/1/1 4/476/4 5/475/6
f 8/474/7 7/472/8 1/1/1 6/473/5
f 7/472/8 9/9/9 2/2/2 1/1/1
f 11/10/10 8/7/7 6/5/5 10/11/11
f 8/498/7 11/497/10 12/12/12 7/8/8
f 7/8/8 12/12/12 13/13/13 9/9/9
f 13/13/13 14/14/14 2/2/2 9/9/9
f 3/3/3 2/2/2 14/14/14 15/15/15
f 4/4/4 3/514/3 15/513/15 16/16/16
f 16/16/16 17/17/17 5/6/6 4/4/4
f 17/17/17 10/11/11 6/5/5 5/6/6
f 19/496/18 11/10/10 10/11/11 18/19/19
f 18/19/19 20/20/20 21/21/21 19/496/18
f 22/22/22 12/12/12 11/497/10 19/18/18
f 19/18/18 21/495/21 23/23/23 22/22/22
f 25/24/24 14/14/14 13/13/13 24/25/25
f 24/25/25 13/13/13 12/12/12 22/22/22
f 27/26/26 25/24/24 24/25/25 26/27/27
f 26/27/27 24/25/25 22/22/22 23/23/23
f 28/28/28 15/15/15 14/14/14 25/24/24
f 17/17/17 29/29/29 18/19/19 10/11/11
f 16/16/16 30/30/30 29/29/29 17/17/17
f 30/30/30 16/16/16 15/513/15 28/512/28
f 29/29/29 31/31/31 20/20/20 18/19/19
f 30/30/30 32/32/32 31/31/31 29/29/29
f 32/32/32 30/30/30 28/512/28 33/510/33
f 33/33/33 28/28/28 25/24/24 27/26/26
f 60/60/34 61/61/35 20/20/20 34/35/36
f 58/58/37 59/59/38 42/42/39 35/493/40
f 56/56/41 57/57/42 23/23/23 36/36/43
f 54/54/44 55/55/45 45/45/46 37/37/47
f 52/52/48 53/53/49 27/26/26 38/38/50
f 50/50/51 51/51/52 44/44/53 39/509/54
f 48/48/55 49/49/56 32/32/32 40/40/57
f 46/46/58 47/47/59 43/43/60 41/41/61
f 20/20/20 47/47/59 46/46/58 34/35/36
f 43/43/60 49/49/56 48/48/55 41/41/61
f 47/47/59 20/20/20 31/31/31 43/43/60
f 31/31/31 32/32/32 49/49/56 43/43/60
f 32/32/32 51/51/52 50/50/51 40/40/57
f 44/511/53 53/53/49 52/52/48 39/39/54
f 51/51/52 32/32/32 33/510/33 44/44/53
f 27/26/26 53/53/49 44/511/53 33/33/33
f 27/26/26 55/55/45 54/54/44 38/38/50
f 45/45/46 57/57/42 56/56/41 37/37/47
f 55/55/45 27/26/26 26/27/27 45/45/46
f 23/23/23 57/57/42 45/45/46 26/27/27
f 23/23/23 59/59/38 58/58/37 36/36/43
f 42/494/39 61/61/35 60/60/34 35/34/40
f 61/61/35 42/494/39 21/21/21 20/20/20
f 59/59/38 23/23/23 21/495/21 42/42/39
f 369/369/62 370/370/63 393/393/64 394/394/65
f 384/384/66 369/369/62 394/394/65 395/489/67
f 383/383/68 384/490/66 395/395/67 396/396/69
f 382/382/70 383/383/68 396/396/69 397/397/71
f 378/378/72 379/379/73 400/400/74 385/385/75
f 379/379/73 380/380/76 399/399/77 400/400/74
f 380/380/76 381/381/78 398/398/79 399/399/77
f 381/381/78 382/382/70 397/397/71 398/398/79
f 374/374/80 375/375/81 388/388/82 389/389/83
f 375/375/81 376/506/84 387/387/85 388/388/82
f 376/376/84 377/377/86 386/386/87 387/505/85
f 377/377/86 378/378/72 385/385/75 386/386/87
f 373/373/88 374/374/80 389/389/83 390/390/89
f 372/372/90 373/373/88 390/390/89 391/391/91
f 370/370/63 371/371/92 392/392/93 393/393/64
f 371/371/92 372/372/90 391/391/91 392/392/93
f 63/63/94 62/62/95 60/60/34 34/35/36
f 46/46/58 64/64/96 63/63/94 34/35/36
f 41/41/61 65/65/97 64/64/96 46/46/58
f 66/66/98 65/65/97 41/41/61 48/48/55
f 67/67/99 66/66/98 48/48/55 40/40/57
f 50/50/51 68/68/100 67/67/99 40/40/57
f 39/509/54 69/508/101 68/68/100 50/50/51
f 70/70/102 69/69/101 39/39/54 52/52/48
f 71/71/103 70/70/102 52/52/48 38/38/50
f 54/54/44 72/72/104 71/71/103 38/38/50
f 73/73/105 72/72/104 54/54/44 37/37/47
f 56/56/41 74/74/106 73/73/105 37/37/47
f 75/75/107 74/74/106 56/56/41 36/36/43
f 58/58/37 76/76/108 75/75/107 36/36/43
f 77/491/109 76/76/108 58/58/37 35/493/40
f 60/60/34 62/62/95 77/77/109 35/34/40
f 95/94/110 225/225/111 226/226/112 94/95/113
f 94/95/113 226/226/112 227/227/114 96/96/115
f 96/96/115 227/227/114 228/228/116 97/97/117
f 228/228/116 229/229/118 98/98/119 97/97/117
f 229/229/118 230/484/120 99/99/121 98/98/119
f 99/485/121 230/230/120 231/231/122 100/100/123
f 231/231/122 232/232/124 101/101/125 100/100/123
f 232/232/124 233/233/126 102/102/127 101/101/125
f 233/233/126 234/234/128 103/103/129 102/102/127
f 234/234/128 235/235/130 104/104/131 103/103/129
f 104/104/131 235/235/130 236/501/132 105/105/133
f 236/236/132 237/237/134 106/106/135 105/502/133
f 106/106/135 237/237/134 238/238/136 107/107/137
f 240/240/138 225/225/111 95/94/110 108/108/139
f 107/107/137 238/238/136 239/239/140 109/109/141
f 109/109/141 239/239/140 240/240/138 108/108/139
f 102/102/127 181/181/142 171/171/143 101/101/125
f 328/328/144 329/329/145 355/355/146 354/354/147
f 329/329/145 330/330/148 356/356/149 355/355/146
f 330/330/148 331/331/150 357/357/151 356/356/149
f 332/332/152 333/333/153 359/359/154 358/358/155
f 331/331/150 332/332/152 358/358/155 357/357/151
f 333/333/153 334/334/156 360/360/157 359/359/154
f 334/334/156 335/335/158 361/361/159 360/360/157
f 173/173/160 196/196/161 96/96/115 97/97/117
f 98/98/119 198/198/162 173/173/160 97/97/117
f 99/99/121 172/486/163 189/189/164 98/98/119
f 100/100/123 192/192/165 172/172/163 99/485/121
f 101/101/125 171/171/143 184/184/166 100/100/123
f 111/110/167 183/183/168 346/346/169 347/347/170
f 110/111/171 191/191/172 368/368/173 345/345/174
f 188/188/175 366/366/176 367/482/177 112/487/178
f 113/113/179 197/197/180 364/364/181 365/365/182
f 195/195/183 362/362/184 363/363/185 114/114/186
f 360/360/157 361/361/159 115/115/187 116/450/188
f 116/450/188 117/449/189 359/359/154 360/360/157
f 117/449/189 118/448/190 358/358/155 359/359/154
f 119/447/191 357/357/151 358/358/155 118/448/190
f 356/356/149 357/357/151 119/447/191 120/446/192
f 120/446/192 121/445/193 355/355/146 356/356/149
f 121/445/193 122/444/194 354/354/147 355/355/146
f 122/503/194 175/175/195 353/353/196 354/499/147
f 123/123/197 177/177/198 351/351/199 352/352/200
f 124/124/201 125/443/202 349/349/203 350/350/204
f 125/443/202 180/180/205 348/348/206 349/349/203
f 143/126/207 271/271/208 272/426/209 185/185/210
f 295/403/211 296/401/212 194/194/213 144/130/214
f 145/132/215 293/405/216 294/404/217 193/193/218
f 291/407/219 292/406/220 160/160/221 146/135/222
f 289/409/223 290/408/224 162/162/225 147/137/226
f 148/138/227 288/410/228 289/409/223 147/137/226
f 149/140/229 287/411/230 288/410/228 148/138/227
f 150/142/231 286/412/232 287/411/230 149/140/229
f 151/144/233 285/413/234 286/412/232 150/142/231
f 283/415/235 284/414/236 166/166/237 152/146/238
f 281/417/239 282/416/240 164/164/241 153/148/242
f 154/150/243 280/418/244 281/417/239 153/148/242
f 278/420/245 279/419/246 170/170/247 155/153/248
f 276/422/249 277/421/250 168/168/251 156/154/252
f 156/154/252 157/156/253 275/423/254 276/422/249
f 273/425/255 274/424/256 186/186/257 142/129/258
f 126/157/259 179/179/260 180/437/205 125/125/202
f 141/155/261 126/157/259 125/125/202 124/440/201
f 167/167/262 177/439/198 123/442/197 140/152/263
f 122/481/194 139/480/264 169/169/265 175/441/195
f 138/149/266 139/151/264 122/122/194 121/121/193
f 158/158/267 138/149/266 121/121/193 120/120/192
f 135/145/268 158/158/267 120/120/192 119/119/191
f 137/143/269 135/145/268 119/119/191 118/118/190
f 117/117/189 134/141/270 137/143/269 118/118/190
f 133/139/271 134/141/270 117/117/189 116/116/188
f 132/136/272 133/139/271 116/116/188 115/430/187
f 131/134/273 161/161/274 195/429/183 114/428/186
f 130/470/275 159/159/276 197/427/180 113/434/179
f 129/131/277 187/187/278 188/433/175 112/432/178
f 128/127/279 190/190/280 191/431/172 110/436/171
f 182/182/281 183/435/168 111/438/167 127/128/282
f 160/160/221 292/406/220 293/405/216 145/132/215
f 162/162/225 290/408/224 291/407/219 146/135/222
f 152/146/238 164/164/241 282/416/240 283/415/235
f 284/414/236 285/413/234 151/144/233 166/166/237
f 136/147/283 163/163/284 138/149/266 158/158/267
f 158/158/267 135/145/268 165/165/285 136/147/283
f 155/153/248 168/168/251 277/421/250 278/420/245
f 170/170/247 279/419/246 280/418/244 154/150/243
f 322/322/286 323/323/287 349/349/203 348/348/206
f 344/344/288 321/321/289 347/347/170 346/346/169
f 342/342/290 343/343/291 345/345/174 368/368/173
f 340/340/292 341/483/293 367/482/177 366/366/176
f 338/338/294 339/339/295 365/365/182 364/364/181
f 336/336/296 337/337/297 363/363/185 362/362/184
f 327/327/298 328/500/144 354/499/147 353/353/196
f 325/325/299 326/326/300 352/352/200 351/351/199
f 323/323/287 324/324/301 350/350/204 349/349/203
f 175/441/195 169/169/265 140/152/263 123/442/197
f 352/352/200 353/353/196 175/175/195 123/123/197
f 326/326/300 327/327/298 353/353/196 352/352/200
f 124/440/201 177/439/198 167/167/262 141/155/261
f 350/350/204 351/351/199 177/177/198 124/124/201
f 324/324/301 325/325/299 351/351/199 350/350/204
f 174/174/302 178/178/303 103/103/129 104/104/131
f 176/176/304 174/174/302 104/104/131 105/105/133
f 180/437/205 179/179/260 127/128/282 111/438/167
f 347/347/170 348/348/206 180/180/205 111/110/167
f 347/347/170 321/321/289 322/322/286 348/348/206
f 110/436/171 183/435/168 182/182/281 128/127/279
f 345/345/174 346/346/169 183/183/168 110/111/171
f 343/343/291 344/344/288 346/346/169 345/345/174
f 185/185/210 272/426/209 273/425/255 142/129/258
f 274/424/256 275/423/254 157/156/253 186/186/257
f 188/433/175 187/187/278 130/133/275 113/471/179
f 365/365/182 366/366/176 188/188/175 113/113/179
f 339/339/295 340/340/292 366/366/176 365/365/182
f 191/431/172 190/190/280 129/131/277 112/432/178
f 367/367/177 368/368/173 191/191/172 112/112/178
f 341/341/293 342/342/290 368/368/173 367/367/177
f 193/193/218 294/404/217 295/403/211 144/130/214
f 296/401/212 271/271/208 143/126/207 194/194/213
f 195/429/183 161/161/274 132/136/272 115/430/187
f 361/361/159 362/362/184 195/195/183 115/115/187
f 335/335/158 336/336/296 362/362/184 361/361/159
f 197/427/180 159/159/276 131/134/273 114/428/186
f 363/363/185 364/364/181 197/197/180 114/114/186
f 337/337/297 338/338/294 364/364/181 363/363/185
f 200/200/305 199/199/306 128/127/279 182/182/281
f 201/201/307 200/200/305 182/182/281 127/128/282
f 179/179/260 202/202/308 201/201/307 127/128/282
f 126/157/259 203/203/309 202/202/308 179/179/260
f 204/204/310 203/203/309 126/157/259 141/155/261
f 167/167/262 205/205/311 204/204/310 141/155/261
f 206/206/312 205/205/311 167/167/262 140/152/263
f 140/152/263 169/169/265 207/207/313 206/206/312
f 208/479/314 207/207/313 169/169/265 139/480/264
f 209/209/315 208/208/314 139/151/264 138/149/266
f 163/163/284 210/210/316 209/209/315 138/149/266
f 211/211/317 210/210/316 163/163/284 136/147/283
f 165/165/285 212/212/318 211/211/317 136/147/283
f 135/145/268 213/213/319 212/212/318 165/165/285
f 214/214/320 213/213/319 135/145/268 137/143/269
f 215/215/321 214/214/320 137/143/269 134/141/270
f 216/216/322 215/215/321 134/141/270 133/139/271
f 217/217/323 216/216/322 133/139/271 132/136/272
f 132/136/272 161/161/274 218/218/324 217/217/323
f 219/219/325 218/218/324 161/161/274 131/134/273
f 131/134/273 159/159/276 220/220/326 219/219/325
f 221/469/327 220/220/326 159/159/276 130/470/275
f 222/222/328 221/221/327 130/133/275 187/187/278
f 223/223/329 222/222/328 187/187/278 129/131/277
f 190/190/280 224/224/330 223/223/329 129/131/277
f 128/127/279 199/199/306 224/224/330 190/190/280
f 226/226/112 225/225/111 78/452/331 93/93/332
f 227/227/114 226/226/112 93/93/332 92/92/333
f 228/228/116 227/227/114 92/92/333 91/91/334
f 90/90/335 229/229/118 228/228/116 91/91/334
f 89/488/336 230/484/120 229/229/118 90/90/335
f 231/231/122 230/230/120 89/89/336 88/88/337
f 87/87/338 232/232/124 231/231/122 88/88/337
f 86/86/339 233/233/126 232/232/124 87/87/338
f 85/85/340 234/234/128 233/233/126 86/86/339
f 84/84/341 235/235/130 234/234/128 85/85/340
f 236/501/132 235/235/130 84/84/341 83/504/342
f 82/82/343 237/237/134 236/236/132 83/83/342
f 238/238/136 237/237/134 82/82/343 81/81/344
f 239/239/140 238/238/136 81/81/344 80/80/345
f 240/240/138 239/239/140 80/80/345 79/79/346
f 78/452/331 225/225/111 240/240/138 79/79/346
f 242/242/347 241/241/348 199/199/306 200/200/305
f 243/243/349 242/242/347 200/200/305 201/201/307
f 201/201/307 202/202/308 244/244/350 243/243/349
f 202/202/308 203/203/309 245/245/351 244/244/350
f 246/246/352 245/245/351 203/203/309 204/204/310
f 204/204/310 205/205/311 247/247/353 246/246/352
f 248/248/354 247/247/353 205/205/311 206/206/312
f 206/206/312 207/207/313 249/249/355 248/248/354
f 250/478/356 249/249/355 207/207/313 208/479/314
f 251/251/357 250/250/356 208/208/314 209/209/315
f 209/209/315 210/210/316 252/252/358 251/251/357
f 253/253/359 252/252/358 210/210/316 211/211/317
f 211/211/317 212/212/318 254/254/360 253/253/359
f 212/212/318 213/213/319 255/255/361 254/254/360
f 256/256/362 255/255/361 213/213/319 214/214/320
f 257/257/363 256/256/362 214/214/320 215/215/321
f 258/258/364 257/257/363 215/215/321 216/216/322
f 259/259/365 258/258/364 216/216/322 217/217/323
f 217/217/323 218/218/324 260/260/366 259/259/365
f 261/261/367 260/260/366 218/218/324 219/219/325
f 219/219/325 220/220/326 262/262/368 261/261/367
f 263/468/369 262/262/368 220/220/326 221/469/327
f 264/264/370 263/263/369 221/221/327 222/222/328
f 265/265/371 264/264/370 222/222/328 223/223/329
f 223/223/329 224/224/330 266/266/372 265/265/371
f 224/224/330 199/199/306 241/241/348 266/266/372
f 162/162/225 267/267/373 148/138/227 147/137/226
f 155/153/248 170/170/247 268/268/374 168/168/251
f 151/144/233 150/142/231 269/269/375 166/166/237
f 143/126/207 185/185/210 270/270/376 194/194/213
f 272/272/209 271/402/208 241/241/348 242/242/347
f 273/273/255 272/272/209 242/242/347 243/243/349
f 243/243/349 244/244/350 274/274/256 273/273/255
f 244/244/350 245/245/351 275/275/254 274/274/256
f 276/276/249 275/275/254 245/245/351 246/246/352
f 246/246/352 247/247/353 277/277/250 276/276/249
f 278/278/245 277/277/250 247/247/353 248/248/354
f 248/248/354 249/249/355 279/279/246 278/278/245
f 280/477/244 279/279/246 249/249/355 250/478/356
f 281/281/239 280/280/244 250/250/356 251/251/357
f 251/251/357 252/252/358 282/282/240 281/281/239
f 283/283/235 282/282/240 252/252/358 253/253/359
f 253/253/359 254/254/360 284/284/236 283/283/235
f 254/254/360 255/255/361 285/285/234 284/284/236
f 286/286/232 285/285/234 255/255/361 256/256/362
f 287/287/230 286/286/232 256/256/362 257/257/363
f 288/288/228 287/287/230 257/257/363 258/258/364
f 289/289/223 288/288/228 258/258/364 259/259/365
f 259/259/365 260/260/366 290/290/224 289/289/223
f 291/291/219 290/290/224 260/260/366 261/261/367
f 261/261/367 262/262/368 292/292/220 291/291/219
f 293/467/216 292/292/220 262/262/368 263/468/369
f 294/294/217 293/293/216 263/263/369 264/264/370
f 295/295/211 294/294/217 264/264/370 265/265/371
f 265/265/371 266/266/372 296/296/212 295/295/211
f 266/266/372 241/241/348 271/402/208 296/296/212
f 166/166/237 269/269/375 297/297/377 152/146/238
f 298/298/378 268/268/374 170/170/247 154/150/243
f 299/299/379 164/164/241 152/146/238 297/297/377
f 300/300/380 153/148/242 164/164/241 299/299/379
f 154/150/243 153/148/242 300/300/380 298/298/378
f 301/301/381 269/269/375 150/142/231 149/140/229
f 267/267/373 301/301/381 149/140/229 148/138/227
f 302/302/382 267/267/373 162/162/225 146/135/222
f 303/303/383 302/302/382 146/135/222 160/160/221
f 303/303/383 160/160/221 145/132/215 304/304/384
f 193/193/218 305/305/385 304/304/384 145/132/215
f 306/306/386 305/305/385 193/193/218 144/130/214
f 144/130/214 194/194/213 270/270/376 306/306/386
f 268/268/374 307/307/387 156/154/252 168/168/251
f 307/307/387 308/308/388 157/156/253 156/154/252
f 157/156/253 308/308/388 309/309/389 186/186/257
f 186/186/257 309/309/389 310/310/390 142/129/258
f 185/185/210 142/129/258 310/310/390 270/270/376
f 270/270/376 310/310/390 309/309/389 311/311/391
f 308/308/388 307/307/387 311/311/391 309/309/389
f 305/305/385 306/306/386 312/312/392 304/304/384
f 312/312/392 302/302/382 303/303/383 304/304/384
f 306/306/386 270/270/376 311/311/391 312/312/392
f 267/267/373 302/302/382 312/312/392 301/301/381
f 269/269/375 313/313/393 299/299/379 297/297/377
f 313/313/393 298/298/378 300/300/380 299/299/379
f 311/311/391 307/307/387 268/268/374 314/314/394
f 314/314/394 268/268/374 298/298/378 313/313/393
f 316/315/395 315/316/396 301/301/381 312/312/392
f 301/301/381 315/316/396 317/317/397 269/269/375
f 317/317/397 318/318/398 313/313/393 269/269/375
f 318/318/398 319/319/399 314/314/394 313/313/393
f 316/315/395 312/312/392 311/311/391 320/320/400
f 314/314/394 319/319/399 320/320/400 311/311/391
f 316/315/395 320/320/400 319/319/399 318/318/398
f 315/316/396 316/315/395 318/318/398 317/317/397
f 171/171/143 181/181/142 322/322/286 321/321/289
f 323/323/287 322/322/286 181/181/142 102/102/127
f 102/102/127 103/103/129 324/324/301 323/323/287
f 325/325/299 324/324/301 103/103/129 178/178/303
f 326/326/300 325/325/299 178/178/303 174/174/302
f 176/176/304 327/327/298 326/326/300 174/174/302
f 328/500/144 327/327/298 176/176/304 105/105/133
f 105/502/133 106/106/135 329/329/145 328/328/144
f 106/106/135 107/107/137 330/330/148 329/329/145
f 107/107/137 109/109/141 331/331/150 330/330/148
f 109/109/141 108/108/139 332/332/152 331/331/150
f 108/108/139 95/94/110 333/333/153 332/332/152
f 95/94/110 94/95/113 334/334/156 333/333/153
f 94/95/113 96/96/115 335/335/158 334/334/156
f 336/336/296 335/335/158 96/96/115 196/196/161
f 337/337/297 336/336/296 196/196/161 173/173/160
f 338/338/294 337/337/297 173/173/160 198/198/162
f 339/339/295 338/338/294 198/198/162 98/98/119
f 98/98/119 189/189/164 340/340/292 339/339/295
f 341/483/293 340/340/292 189/189/164 172/486/163
f 342/342/290 341/341/293 172/172/163 192/192/165
f 343/343/291 342/342/290 192/192/165 100/100/123
f 100/100/123 184/184/166 344/344/288 343/343/291
f 321/321/289 344/344/288 184/184/166 171/171/143
f 370/370/63 369/369/62 62/62/95 63/63/94
f 63/63/94 64/64/96 371/371/92 370/370/63
f 64/64/96 65/65/97 372/372/90 371/371/92
f 373/373/88 372/372/90 65/65/97 66/66/98
f 374/374/80 373/373/88 66/66/98 67/67/99
f 67/67/99 68/68/100 375/375/81 374/374/80
f 68/68/100 69/508/101 376/506/84 375/375/81
f 377/377/86 376/376/84 69/69/101 70/70/102
f 378/378/72 377/377/86 70/70/102 71/71/103
f 71/71/103 72/72/104 379/379/73 378/378/72
f 380/380/76 379/379/73 72/72/104 73/73/105
f 73/73/105 74/74/106 381/381/78 380/380/76
f 382/382/70 381/381/78 74/74/106 75/75/107
f 75/75/107 76/76/108 383/383/68 382/382/70
f 384/490/66 383/383/68 76/76/108 77/491/109
f 77/77/109 62/62/95 369/369/62 384/384/66
f 386/386/87 385/385/75 78/78/331 79/466/346
f 80/465/345 387/505/85 386/386/87 79/466/346
f 80/507/345 81/464/344 388/388/82 387/387/85
f 82/463/343 389/389/83 388/388/82 81/464/344
f 82/463/343 83/462/342 390/390/89 389/389/83
f 83/462/342 84/461/341 391/391/91 390/390/89
f 84/461/341 85/460/340 392/392/93 391/391/91
f 85/460/340 86/459/339 393/393/64 392/392/93
f 394/394/65 393/393/64 86/459/339 87/458/338
f 87/458/338 88/457/337 395/489/67 394/394/65
f 88/492/337 89/456/336 396/396/69 395/395/67
f 397/397/71 396/396/69 89/456/336 90/455/335
f 398/398/79 397/397/71 90/455/335 91/454/334
f 399/399/77 398/398/79 91/454/334 92/453/333
f 92/453/333 93/451/332 400/400/74 399/399/77
f 93/451/332 78/78/331 385/385/75 400/400/74
