# This file uses centimeters as units for non-parametric coordinates.

mtllib PineTrunk.mtl
g default
v -0.700535 -0.061833 0.318007
v -0.337454 -0.019737 -0.348716
v 0.667659 -0.029809 -0.246061
v 0.623690 -0.055770 0.593286
v 0.127737 -0.048766 -0.673601
v 0.070740 -0.165821 0.341787
v -0.395532 -0.145826 -0.046324
v 0.080089 -0.287490 -0.137207
v 0.593760 -0.140813 0.271089
v -0.082764 -0.153978 -0.402578
v -0.124977 -0.251294 -0.107652
v -0.339966 -0.107299 0.315385
v 0.328149 -0.129532 0.461524
v 0.338461 -0.269829 0.000257
v 0.404543 -0.098432 -0.397367
v 0.618969 -0.127134 -0.039799
v 0.369805 -0.229887 -0.209045
v 0.108414 -0.220962 -0.399287
v -0.107914 -0.214618 -0.259756
v -0.325415 -0.121526 -0.189715
v -0.755013 -0.043364 0.227077
v -0.174075 -0.245557 0.093002
v 0.072440 -0.289024 0.094697
v 0.335607 -0.245316 0.217553
v 0.716226 -0.046057 0.559321
v 0.136109 0.086037 -0.638028
v 0.373504 0.026176 -0.381629
v 0.628491 0.097618 -0.250634
v 0.625125 0.024471 -0.016346
v 0.584150 0.003704 0.238420
v 0.677803 0.084577 0.494460
v 0.596991 0.080634 0.588223
v 0.275286 0.008398 0.451072
v 0.050613 -0.018617 0.363871
v -0.291366 0.016903 0.347813
v -0.596727 0.094554 0.314231
v -0.640134 0.085513 0.189924
v -0.386326 -0.003932 -0.048814
v -0.360716 0.013163 -0.182031
v -0.302288 0.105035 -0.326163
v -0.092792 -0.011905 -0.407605
v 0.137683 0.035827 -0.669428
v 0.394217 -0.019272 -0.399586
v 0.653659 0.046448 -0.255201
v 0.637769 -0.039894 -0.020873
v 0.591501 -0.057500 0.252116
v 0.713898 0.027267 0.543309
v 0.628127 0.016704 0.613238
v 0.291336 -0.049605 0.465784
v 0.055620 -0.083739 0.366475
v -0.312301 -0.036942 0.338253
v -0.653018 0.049594 0.333683
v -0.701819 0.049730 0.200465
v -0.395931 -0.063138 -0.051002
v -0.354860 -0.045402 -0.186294
v -0.325291 0.057453 -0.342751
v -0.093841 -0.072062 -0.410630
v 0.216361 1.108628 0.155587
v 0.267029 1.083993 0.144346
v 0.331704 1.069826 0.054779
v 0.360703 1.053005 -0.071658
v 0.331808 1.049082 -0.178554
v 0.247062 1.044495 -0.260166
v 0.132366 1.044503 -0.288743
v 0.028601 1.051393 -0.233187
v -0.041467 1.056472 -0.180696
v -0.080229 1.055953 -0.114440
v -0.093396 1.054226 -0.048582
v -0.075415 1.061494 0.031025
v -0.048477 1.071697 0.081774
v -0.004158 1.073270 0.132993
v 0.049722 1.078144 0.149356
v 0.141040 1.074703 0.158529
v 0.288412 0.915136 0.172757
v 0.218064 0.870847 0.206410
v 0.140642 0.911368 0.200394
v 0.042905 0.877085 0.180473
v -0.037570 0.871614 0.161549
v -0.107416 0.877879 0.108583
v -0.131938 0.867893 0.050814
v -0.140742 0.858899 -0.040534
v -0.109447 0.860681 -0.110590
v -0.064592 0.867629 -0.175671
v 0.013973 0.858538 -0.264471
v 0.116537 0.844370 -0.292763
v 0.253955 0.847665 -0.262751
v 0.348669 0.861477 -0.174017
v 0.382920 0.860703 -0.051536
v 0.355769 0.881489 0.074091
v 0.296424 1.003633 0.153374
v 0.345280 0.992305 0.063620
v 0.371977 0.976943 -0.063528
v 0.340513 0.974703 -0.177805
v 0.251170 0.967516 -0.262334
v 0.129187 0.960432 -0.293462
v 0.024123 0.974400 -0.244141
v -0.051664 0.980805 -0.171835
v -0.088830 0.976972 -0.113999
v -0.115115 0.977225 -0.040778
v -0.096056 0.983908 0.038433
v -0.066742 0.993256 0.094145
v -0.016993 0.992958 0.143585
v 0.047053 0.998149 0.161257
v 0.113548 1.000615 0.176953
v 0.342639 0.632702 0.183567
v 0.259737 0.619042 0.219174
v 0.155783 0.606746 0.224389
v 0.035732 0.613150 0.215538
v -0.074837 0.613387 0.191932
v -0.153883 0.627074 0.136739
v -0.182802 0.621320 0.072915
v -0.176197 0.609908 -0.024460
v -0.156966 0.613231 -0.107182
v -0.097411 0.635453 -0.187175
v -0.000575 0.617171 -0.294444
v 0.117955 0.587795 -0.320581
v 0.236065 0.599629 -0.272786
v 0.344379 0.611629 -0.159122
v 0.396739 0.612590 -0.027008
v 0.400688 0.627526 0.105382
v 0.338671 0.189441 -0.369031
v 0.126523 0.210651 -0.528674
v -0.070032 0.175882 -0.384666
v -0.227252 0.244225 -0.270391
v -0.320762 0.194289 -0.160469
v -0.357295 0.187972 -0.038873
v -0.448723 0.176329 0.144747
v -0.402457 0.177707 0.251701
v -0.245556 0.212049 0.349535
v 0.033089 0.174966 0.367815
v 0.225966 0.188004 0.405588
v 0.458185 0.221356 0.446830
v 0.563254 0.231176 0.369759
v 0.568000 0.249585 0.179633
v 0.567976 0.201252 -0.013538
v 0.535380 0.233545 -0.216242
v 0.236142 0.749846 0.191125
v 0.298533 0.754076 0.165905
v 0.376627 0.746473 0.089516
v 0.390010 0.732898 -0.038897
v 0.340721 0.733711 -0.163484
v 0.249908 0.718883 -0.270012
v 0.117469 0.711490 -0.300025
v 0.005167 0.734615 -0.282185
v -0.083197 0.748316 -0.182932
v -0.139926 0.732747 -0.107008
v -0.169213 0.731606 -0.033993
v -0.159399 0.741129 0.062623
v -0.127704 0.748145 0.119241
v -0.053733 0.738027 0.172218
v 0.039184 0.745585 0.195379
v 0.154750 0.748843 0.205060
v 0.197308 1.659259 0.138887
v 0.246800 1.652703 0.119439
v 0.318372 1.644381 0.032199
v 0.325320 1.634663 -0.037674
v 0.286044 1.637296 -0.141869
v 0.211665 1.633226 -0.187534
v 0.135215 1.632306 -0.193190
v 0.064486 1.638057 -0.162804
v 0.012300 1.637812 -0.128134
v -0.013019 1.635676 -0.072603
v -0.022753 1.636996 -0.018198
v -0.009832 1.645384 0.012374
v 0.016527 1.650090 0.060227
v 0.038327 1.648206 0.099541
v 0.071002 1.651843 0.114665
v 0.128733 1.649907 0.132509
v 0.175707 2.083423 0.112273
v 0.215472 2.079829 0.098988
v 0.269281 2.075431 0.035158
v 0.282314 2.073051 -0.017283
v 0.227908 2.071316 -0.082636
v 0.180328 2.069380 -0.115236
v 0.132994 2.068674 -0.116949
v 0.084521 2.072079 -0.101926
v 0.058185 2.069249 -0.076299
v 0.041446 2.068990 -0.035303
v 0.031464 2.074275 0.006095
v 0.033422 2.083993 0.026001
v 0.042583 2.081487 0.057207
v 0.064563 2.081073 0.082505
v 0.085915 2.082713 0.100025
v 0.126227 2.082538 0.112202
v 0.255073 1.435612 0.116989
v 0.203757 1.443359 0.132214
v 0.130640 1.431155 0.140113
v 0.066106 1.433985 0.122557
v 0.034079 1.431531 0.097938
v -0.003757 1.431754 0.063576
v -0.033289 1.424364 0.012036
v -0.048560 1.417232 -0.032866
v -0.035360 1.416361 -0.092154
v -0.006802 1.419706 -0.153357
v 0.050302 1.419535 -0.201619
v 0.136609 1.410934 -0.232838
v 0.224427 1.409835 -0.213250
v 0.304886 1.415394 -0.158825
v 0.348277 1.414947 -0.050105
v 0.341109 1.426158 0.036191
v 0.235895 1.843862 0.117587
v 0.191479 1.849131 0.136116
v 0.123982 1.845642 0.132166
v 0.076391 1.844991 0.110642
v 0.047288 1.842317 0.095726
v 0.021867 1.844033 0.059532
v 0.016801 1.840182 0.017691
v 0.012258 1.830400 -0.008094
v 0.012028 1.829235 -0.055522
v 0.043637 1.827933 -0.090727
v 0.084110 1.828900 -0.120056
v 0.136145 1.825660 -0.153133
v 0.196249 1.827136 -0.149323
v 0.268216 1.831926 -0.123078
v 0.324275 1.832772 -0.038328
v 0.314768 1.841886 0.038029
v 0.158002 2.268600 0.106327
v 0.198968 2.262578 0.082591
v 0.223292 2.256923 0.031398
v 0.226314 2.254827 -0.010854
v 0.204195 2.258029 -0.058772
v 0.165011 2.255765 -0.078205
v 0.131082 2.256271 -0.089512
v 0.088915 2.259144 -0.083476
v 0.058892 2.256945 -0.067940
v 0.037466 2.257498 -0.027807
v 0.021922 2.262288 0.016352
v 0.019641 2.266423 0.038106
v 0.034501 2.263747 0.061711
v 0.061219 2.264725 0.092461
v 0.084296 2.265778 0.107991
v 0.123249 2.266493 0.117441
v 0.144106 2.559278 0.093880
v 0.169361 2.553555 0.065471
v 0.186854 2.523889 0.041780
v 0.183873 2.515396 0.018650
v 0.169492 2.548517 -0.024067
v 0.152842 2.549832 -0.038813
v 0.122367 2.549651 -0.049992
v 0.093663 2.553283 -0.059203
v 0.063042 2.551518 -0.059634
v 0.015243 2.551710 -0.019902
v 0.008332 2.556451 0.023230
v 0.009889 2.559785 0.045926
v 0.040861 2.558454 0.087494
v 0.068474 2.558720 0.097111
v 0.091913 2.558915 0.101967
v 0.124038 2.558494 0.105150
v 0.136640 2.897446 0.082095
v 0.156451 2.893790 0.063860
v 0.168379 2.876707 0.044217
v 0.172868 2.872024 0.025887
v 0.166060 2.890607 -0.008004
v 0.152701 2.891162 -0.023697
v 0.131300 2.890485 -0.041974
v 0.100269 2.892775 -0.052532
v 0.073149 2.893679 -0.051583
v 0.027479 2.894480 -0.010385
v 0.019156 2.900194 0.039594
v 0.027926 2.901123 0.058294
v 0.058530 2.898661 0.086013
v 0.079833 2.898247 0.093907
v 0.100415 2.897767 0.094670
v 0.120771 2.897186 0.090736
v 0.141509 3.096138 0.089713
v 0.156400 3.094116 0.070107
v 0.168383 3.084922 0.049753
v 0.176779 3.082442 0.033010
v 0.166564 3.092335 -0.000502
v 0.156260 3.093061 -0.015925
v 0.137460 3.092627 -0.036081
v 0.103607 3.094068 -0.043229
v 0.081043 3.096870 -0.041911
v 0.046261 3.097519 0.004453
v 0.039395 3.101283 0.036505
v 0.045639 3.100307 0.061762
v 0.065993 3.098675 0.083511
v 0.086832 3.098297 0.093293
v 0.105259 3.097609 0.095249
v 0.122592 3.096395 0.096465
v 0.161000 2.703863 0.062506
v 0.138699 2.708636 0.085895
v 0.122316 2.708254 0.098103
v 0.095665 2.708721 0.098792
v 0.073722 2.708776 0.094595
v 0.049080 2.708807 0.085803
v 0.014198 2.711018 0.052611
v 0.008958 2.708573 0.031358
v 0.017986 2.703695 -0.016869
v 0.066554 2.703135 -0.058728
v 0.097085 2.703876 -0.066482
v 0.131103 2.700779 -0.052663
v 0.151897 2.700663 -0.031376
v 0.165455 2.699623 -0.015400
v 0.170507 2.673321 0.022173
v 0.171171 2.680207 0.042322
v 0.182076 2.414869 0.072430
v 0.153657 2.421456 0.102835
v 0.123909 2.419715 0.115414
v 0.086303 2.419878 0.112534
v 0.061307 2.418281 0.100124
v 0.036599 2.418053 0.076305
v 0.011961 2.419748 0.043494
v 0.009231 2.415685 0.019072
v 0.020529 2.411132 -0.026171
v 0.063887 2.411065 -0.056962
v 0.092087 2.413075 -0.067206
v 0.126189 2.409689 -0.066634
v 0.159059 2.410100 -0.058715
v 0.189591 2.410977 -0.044744
v 0.204575 2.391425 0.004629
v 0.203111 2.396799 0.036799
v 0.131334 0.144773 -0.585494
v 0.347973 0.101260 -0.364968
v 0.585300 0.163463 -0.235712
v 0.595571 0.107910 -0.015460
v 0.582518 0.120322 0.210362
v 0.629633 0.148009 0.437623
v 0.518306 0.160148 0.504144
v 0.252430 0.093672 0.428347
v 0.042295 0.073448 0.365608
v -0.270610 0.107878 0.363653
v -0.505420 0.140821 0.289507
v -0.549666 0.129675 0.168140
v -0.386693 0.088518 -0.051408
v -0.350190 0.101411 -0.172159
v -0.265544 0.170222 -0.298676
v -0.084821 0.078099 -0.398887
v 0.244293 1.037986 0.325772
v 0.206538 1.058424 0.324475
v 0.283540 1.050335 0.310535
v 0.298473 1.089991 0.285621
v 0.273497 1.124484 0.276145
v 0.236493 1.135984 0.277042
v 0.198487 1.122014 0.285539
v 0.192116 1.085591 0.313680
v 0.245221 1.096324 0.312016
v 0.225826 0.936552 0.239596
v 0.168751 0.966342 0.239206
v 0.150357 1.028877 0.222943
v 0.173241 1.078368 0.206040
v 0.224210 1.104281 0.207364
v 0.259918 1.085927 0.198489
v 0.286434 1.032955 0.201200
v 0.276910 0.968471 0.216916
v 0.198083 1.039263 0.307983
v 0.240433 1.018145 0.307434
v 0.281572 1.034109 0.291244
v 0.295674 1.078407 0.268531
v 0.274374 1.120277 0.257270
v 0.233117 1.134522 0.261201
v 0.191278 1.114986 0.269020
v 0.180154 1.074533 0.297127
v 0.399637 0.497268 0.226335
v 0.297425 0.485501 0.278385
v 0.167319 0.477650 0.285837
v 0.026998 0.483250 0.272081
v -0.118783 0.484276 0.251154
v -0.205171 0.496253 0.173074
v -0.232166 0.486207 0.087750
v -0.229432 0.474573 -0.018864
v -0.199195 0.477389 -0.118025
v -0.125190 0.502651 -0.200238
v -0.015961 0.481395 -0.325043
v 0.118621 0.454610 -0.375168
v 0.260543 0.464665 -0.304514
v 0.404605 0.489765 -0.176336
v 0.445715 0.482331 -0.014905
v 0.449587 0.494998 0.127943
v 0.473299 0.351673 0.289445
v 0.511926 0.365059 0.154129
v 0.499325 0.335794 -0.009679
v 0.464121 0.353262 -0.192149
v 0.302826 0.325380 -0.346676
v 0.122260 0.321671 -0.447025
v -0.040543 0.326372 -0.356397
v -0.175886 0.367741 -0.233618
v -0.256175 0.330065 -0.137300
v -0.292816 0.326586 -0.024190
v -0.296303 0.307057 0.099745
v -0.255847 0.311532 0.202630
v -0.178595 0.342721 0.304286
v 0.025971 0.330222 0.329056
v 0.192001 0.332984 0.353581
v 0.365608 0.340523 0.353494
v 0.260405 1.259551 0.129876
v 0.209705 1.275511 0.140549
v 0.136031 1.252779 0.147428
v 0.062857 1.254207 0.125861
v 0.026808 1.249170 0.099911
v -0.018662 1.249573 0.063650
v -0.051201 1.242553 0.021212
v -0.058805 1.234054 -0.042364
v -0.059044 1.236226 -0.103565
v -0.028141 1.238637 -0.169446
v 0.034910 1.236260 -0.228527
v 0.133728 1.228159 -0.265841
v 0.239975 1.228192 -0.246650
v 0.319931 1.232153 -0.169691
v 0.359796 1.233133 -0.060140
v 0.336325 1.247882 0.045471
v 0.149606 3.279205 0.067263
v 0.137169 3.279959 0.075808
v 0.126137 3.280342 0.079872
v 0.116595 3.281497 0.076243
v 0.106468 3.282268 0.070646
v 0.100125 3.282344 0.060888
v 0.095929 3.282770 0.050872
v 0.095011 3.282433 0.040166
v 0.098690 3.281779 0.031284
v 0.106577 3.280035 0.023184
v 0.115165 3.278708 0.017333
v 0.122920 3.277657 0.012658
v 0.136776 3.279057 0.017878
v 0.145863 3.279079 0.024968
v 0.157762 3.277572 0.039663
v 0.158436 3.277763 0.053075
v 0.124892 3.282852 0.046309
v 0.167793 3.263256 0.085654
v 0.164080 3.270498 0.082105
v 0.145546 3.264596 0.101018
v 0.143828 3.271685 0.096012
v 0.124588 3.265320 0.108257
v 0.124838 3.272369 0.102596
v 0.106453 3.267488 0.101861
v 0.108415 3.274324 0.096712
v 0.088021 3.268938 0.092355
v 0.091687 3.275594 0.087957
v 0.075353 3.269259 0.074606
v 0.080277 3.275796 0.071678
v 0.066447 3.270231 0.056030
v 0.072335 3.276582 0.054979
v 0.064233 3.269725 0.035761
v 0.070305 3.276059 0.036627
v 0.070407 3.268701 0.018238
v 0.075862 3.275059 0.020906
v 0.084593 3.265932 0.000988
v 0.088423 3.272427 0.005662
v 0.100894 3.263570 -0.011334
v 0.103160 3.270278 -0.005790
v 0.119646 3.261078 -0.018892
v 0.119928 3.268163 -0.012810
v 0.147925 3.263284 -0.007832
v 0.145737 3.270238 -0.002765
v 0.163401 3.263248 0.005295
v 0.159871 3.270263 0.009225
v 0.184244 3.260350 0.033478
v 0.178989 3.267700 0.034672
v 0.184371 3.260633 0.059648
v 0.179232 3.268037 0.058500
vt 0.690708 0.031223
vt 0.528792 0.176811
vt 0.233048 0.044522
vt 0.002280 0.093530
vt 0.405035 0.049986
vt 0.868050 0.108129
vt 0.566873 0.104978
vt 0.510976 0.506386
vt 0.101441 0.045964
vt 0.489993 0.081056
vt 0.505810 0.458743
vt 0.771833 0.074099
vt 0.928499 0.147136
vt 0.479473 0.565229
vt 0.307951 0.037618
vt 0.177127 0.033415
vt 0.528082 0.573769
vt 0.571991 0.513958
vt 0.542324 0.462270
vt 0.542446 0.132861
vt 0.658431 0.034447
vt 0.459461 0.446821
vt 0.458341 0.504140
vt 0.429186 0.564656
vt 0.025644 0.079863
vt 0.392468 0.083622
vt 0.309313 0.072651
vt 0.239103 0.078246
vt 0.180409 0.074368
vt 0.116303 0.082067
vt 0.050573 0.109945
vt 0.024370 0.128390
vt 0.900222 0.174144
vt 0.846467 0.141431
vt 0.764327 0.109744
vt 0.693669 0.080860
vt 0.664331 0.080539
vt 0.593475 0.132396
vt 0.569302 0.156982
vt 0.552803 0.199158
vt 0.469262 0.112403
vt 0.396954 0.069602
vt 0.308948 0.058385
vt 0.236747 0.063960
vt 0.178209 0.057122
vt 0.110006 0.066551
vt 0.034675 0.096618
vt 0.012212 0.110962
vt 0.911626 0.162794
vt 0.855578 0.126996
vt 0.767735 0.094530
vt 0.691171 0.062871
vt 0.663189 0.062310
vt 0.582307 0.120535
vt 0.558175 0.146578
vt 0.511402 0.161138
vt 0.478473 0.099150
vt 0.166071 0.379956
vt 0.435159 0.273888
vt 0.206865 0.363382
vt 0.239896 0.355125
vt 0.268175 0.352402
vt 0.298046 0.351324
vt 0.327843 0.353382
vt 0.357347 0.359945
vt 0.639600 0.411660
vt 0.659223 0.408188
vt 0.676508 0.405366
vt 0.697691 0.406112
vt 0.712534 0.408735
vt 0.729907 0.409990
vt 0.744030 0.413637
vt 0.767719 0.416637
vt 0.542445 0.220894
vt 0.520042 0.211058
vt 0.496344 0.214557
vt 0.753129 0.361679
vt 0.733312 0.355605
vt 0.711706 0.354496
vt 0.696266 0.352282
vt 0.673276 0.352821
vt 0.654260 0.357765
vt 0.634754 0.364365
vt 0.361565 0.310395
vt 0.334791 0.302127
vt 0.298428 0.299464
vt 0.265003 0.302847
vt 0.232466 0.303792
vt 0.200249 0.313581
vt 0.557649 0.240170
vt 0.204508 0.342672
vt 0.236880 0.334723
vt 0.266802 0.332811
vt 0.297939 0.331176
vt 0.329825 0.331842
vt 0.358851 0.340112
vt 0.639517 0.392440
vt 0.656826 0.387959
vt 0.676467 0.384263
vt 0.697212 0.384690
vt 0.713228 0.387046
vt 0.730950 0.388451
vt 0.747327 0.392905
vt 0.473835 0.228114
vt 0.161345 0.256974
vt 0.139286 0.266583
vt 0.798268 0.303379
vt 0.768133 0.293998
vt 0.739219 0.285184
vt 0.713174 0.284646
vt 0.694358 0.284309
vt 0.668593 0.287363
vt 0.647202 0.294464
vt 0.624165 0.308523
vt 0.373603 0.250848
vt 0.343741 0.234311
vt 0.307571 0.233265
vt 0.262334 0.234914
vt 0.221788 0.238111
vt 0.185757 0.247064
vt 0.311157 0.117399
vt 0.379928 0.123306
vt 0.436452 0.151977
vt 0.581184 0.225202
vt 0.601623 0.191922
vt 0.629272 0.172644
vt 0.670461 0.136243
vt 0.704431 0.134699
vt 0.748074 0.160827
vt 0.818879 0.184315
vt 0.864862 0.208987
vt 0.069410 0.171510
vt 0.093899 0.148247
vt 0.144230 0.143682
vt 0.190969 0.122571
vt 0.245565 0.120977
vt 0.808154 0.344599
vt 0.166450 0.289156
vt 0.193534 0.278152
vt 0.227504 0.270067
vt 0.263726 0.268356
vt 0.301674 0.265205
vt 0.337928 0.267165
vt 0.366285 0.279431
vt 0.629427 0.335063
vt 0.652102 0.324390
vt 0.671544 0.318923
vt 0.696203 0.317524
vt 0.712722 0.319139
vt 0.736159 0.319693
vt 0.759804 0.327914
vt 0.788078 0.337520
vt 0.184651 0.523680
vt 0.198005 0.519412
vt 0.226943 0.512393
vt 0.245099 0.507743
vt 0.274193 0.506102
vt 0.296808 0.505082
vt 0.316617 0.506476
vt 0.336074 0.511258
vt 0.660324 0.560155
vt 0.676096 0.558433
vt 0.690416 0.558103
vt 0.698930 0.560533
vt 0.713014 0.562300
vt 0.724685 0.562252
vt 0.733955 0.563740
vt 0.749645 0.564242
vt 0.210103 0.634562
vt 0.220099 0.630239
vt 0.240567 0.623579
vt 0.254136 0.620395
vt 0.276140 0.620192
vt 0.291078 0.620369
vt 0.303198 0.621996
vt 0.315895 0.625457
vt 0.676524 0.672202
vt 0.688071 0.671995
vt 0.699238 0.673393
vt 0.704488 0.675996
vt 0.713084 0.675400
vt 0.721934 0.675434
vt 0.729215 0.676011
vt 0.740294 0.676242
vt 0.190924 0.462839
vt 0.772876 0.512398
vt 0.754079 0.507568
vt 0.736769 0.506981
vt 0.726368 0.505694
vt 0.713175 0.504950
vt 0.697896 0.502565
vt 0.685655 0.500693
vt 0.669939 0.501311
vt 0.362908 0.457929
vt 0.343869 0.454010
vt 0.320564 0.448374
vt 0.297318 0.446816
vt 0.272315 0.448290
vt 0.242353 0.450257
vt 0.220644 0.455693
vt 0.204248 0.569702
vt 0.762576 0.616996
vt 0.745161 0.614845
vt 0.731700 0.613923
vt 0.723313 0.612738
vt 0.711884 0.612889
vt 0.700986 0.611836
vt 0.694193 0.609274
vt 0.681864 0.609152
vt 0.340116 0.564696
vt 0.327365 0.562116
vt 0.311902 0.557844
vt 0.296386 0.556443
vt 0.276696 0.556422
vt 0.250998 0.558167
vt 0.232072 0.563133
vt 0.223074 0.681032
vt 0.234443 0.676051
vt 0.248737 0.671511
vt 0.259833 0.669394
vt 0.273885 0.669744
vt 0.285470 0.669970
vt 0.294825 0.670986
vt 0.305685 0.673536
vt 0.675928 0.720101
vt 0.687706 0.721000
vt 0.699802 0.722775
vt 0.705429 0.724069
vt 0.712664 0.723326
vt 0.723233 0.723562
vt 0.730449 0.723778
vt 0.740858 0.723809
vt 0.238587 0.753630
vt 0.248157 0.750685
vt 0.254642 0.741918
vt 0.260573 0.739235
vt 0.273006 0.747173
vt 0.278894 0.747552
vt 0.287460 0.747800
vt 0.295332 0.749051
vt 0.672570 0.797815
vt 0.688804 0.797891
vt 0.700160 0.799193
vt 0.706076 0.800085
vt 0.719556 0.799751
vt 0.727161 0.799869
vt 0.733395 0.799994
vt 0.741797 0.800006
vt 0.247090 0.840496
vt 0.254036 0.839127
vt 0.259760 0.834315
vt 0.264591 0.832795
vt 0.273885 0.837055
vt 0.279259 0.836901
vt 0.286582 0.836355
vt 0.295167 0.836612
vt 0.675868 0.888160
vt 0.691823 0.886988
vt 0.705060 0.888046
vt 0.710439 0.888362
vt 0.721211 0.888098
vt 0.727133 0.888265
vt 0.732500 0.888413
vt 0.737901 0.888540
vt 0.681982 0.941740
vt 0.251939 0.789585
vt 0.745467 0.839631
vt 0.740168 0.839202
vt 0.733228 0.839089
vt 0.727413 0.838927
vt 0.720600 0.838747
vt 0.708048 0.839126
vt 0.702346 0.838492
vt 0.689556 0.837385
vt 0.303447 0.787426
vt 0.295284 0.787684
vt 0.285761 0.787015
vt 0.278072 0.787209
vt 0.272640 0.787117
vt 0.262456 0.780768
vt 0.257323 0.782921
vt 0.242263 0.715042
vt 0.750619 0.764181
vt 0.742243 0.763629
vt 0.732488 0.763729
vt 0.725277 0.763426
vt 0.716421 0.763439
vt 0.705843 0.763939
vt 0.699528 0.762802
vt 0.687543 0.761301
vt 0.307421 0.713663
vt 0.299616 0.713103
vt 0.290947 0.711182
vt 0.282227 0.710524
vt 0.273590 0.710155
vt 0.259990 0.705966
vt 0.251932 0.708452
vt 0.386793 0.102191
vt 0.310356 0.094110
vt 0.242068 0.098421
vt 0.185124 0.097336
vt 0.128962 0.111414
vt 0.069889 0.125728
vt 0.051594 0.153214
vt 0.883392 0.190771
vt 0.833340 0.161817
vt 0.755989 0.133579
vt 0.699755 0.105550
vt 0.665828 0.106660
vt 0.610946 0.150667
vt 0.585786 0.172859
vt 0.483580 0.181016
vt 0.454004 0.131655
vt 0.513640 0.271237
vt 0.522906 0.308822
vt 0.525148 0.274509
vt 0.536964 0.281317
vt 0.546924 0.289237
vt 0.474223 0.289299
vt 0.481624 0.280683
vt 0.493444 0.275916
vt 0.534616 0.298198
vt 0.517859 0.232724
vt 0.498682 0.235423
vt 0.480976 0.245515
vt 0.467679 0.257092
vt 0.458562 0.272517
vt 0.560439 0.268162
vt 0.549829 0.254362
vt 0.535823 0.239913
vt 0.501293 0.265105
vt 0.514640 0.263424
vt 0.527402 0.267517
vt 0.539582 0.275853
vt 0.462274 0.294168
vt 0.471046 0.285955
vt 0.478585 0.275963
vt 0.490876 0.269773
vt 0.146210 0.221517
vt 0.843430 0.288688
vt 0.814237 0.271640
vt 0.779779 0.258981
vt 0.743745 0.244899
vt 0.713126 0.244648
vt 0.689708 0.244691
vt 0.662113 0.249425
vt 0.637406 0.260323
vt 0.422240 0.244275
vt 0.387225 0.218270
vt 0.354922 0.196793
vt 0.310890 0.195255
vt 0.256952 0.198162
vt 0.211303 0.202006
vt 0.173404 0.211149
vt 0.121830 0.183316
vt 0.158607 0.175313
vt 0.200620 0.161633
vt 0.251081 0.158175
vt 0.312054 0.154830
vt 0.368021 0.157879
vt 0.409738 0.183566
vt 0.599604 0.249763
vt 0.621796 0.224032
vt 0.649287 0.208579
vt 0.679596 0.192637
vt 0.710405 0.191149
vt 0.745643 0.201108
vt 0.797644 0.220355
vt 0.837716 0.238696
vt 0.096861 0.204229
vt 0.184328 0.416758
vt 0.777918 0.469889
vt 0.759437 0.461734
vt 0.739509 0.459899
vt 0.727945 0.457674
vt 0.712672 0.456780
vt 0.698687 0.454522
vt 0.681855 0.453023
vt 0.665938 0.454508
vt 0.372987 0.411513
vt 0.351132 0.406802
vt 0.324742 0.400716
vt 0.297548 0.398873
vt 0.269651 0.400437
vt 0.240245 0.402778
vt 0.213168 0.409819
vt 0.764459 0.396754
vt 0.775738 0.376394
vt 0.179030 0.349744
vt 0.178590 0.371302
vt 0.151276 0.324819
vt 0.172364 0.329141
vt 0.458192 0.243538
vt 0.447099 0.262720
vt 0.550314 0.284884
vt 0.449185 0.280358
vt 0.572516 0.258933
vt 0.501940 0.272788
vt 0.531428 0.313294
vt 0.545007 0.311600
vt 0.549705 0.300349
vt 0.466914 0.297450
vt 0.523087 0.285626
vt 0.517570 0.297337
vt 0.345270 0.659966
vt 0.336870 0.638215
vt 0.428846 0.304176
vt 0.493444 0.391093
vt 0.530022 0.405722
vt 0.574188 0.396978
vt 0.490401 0.637689
vt 0.414985 0.629066
vt 0.579857 0.589139
vt 0.543830 0.655155
vt 0.366912 0.566119
vt 0.394172 0.501701
vt 0.403792 0.401580
vt 0.406875 0.316537
vt 0.579106 0.466824
vt 0.646847 0.521221
vt 0.171708 0.423284
vt 0.785683 0.427998
vt 0.875905 0.262561
vt 0.915761 0.244947
vt 0.120939 0.237824
vt 0.940991 0.237762
vt 0.975905 0.228410
vt 0.232031 0.718946
vt 0.750337 0.724150
vt 0.243668 0.791612
vt 0.747767 0.800516
vt 0.249024 0.892455
vt 0.742596 0.888864
vt 0.753236 0.676891
vt 0.192523 0.574131
vt 0.767361 0.567927
vt 0.177523 0.467239
vt 0.149435 0.294973
vt 0.822257 0.316293
vt 0.796635 0.372133
vt 0.992005 0.217359
vt 0.997200 0.198631
vt 0.647164 0.457363
vt 0.379442 0.365142
vt 0.443400 0.217979
vt 0.466739 0.194627
vt 0.614650 0.279125
vt 0.567219 0.211034
vt 0.499931 0.169381
vt 0.673825 0.760501
vt 0.314439 0.674731
vt 0.672940 0.837926
vt 0.303325 0.748927
vt 0.302245 0.836706
vt 0.325363 0.626932
vt 0.669593 0.610246
vt 0.352036 0.514422
vt 0.652486 0.503676
vt 0.398367 0.293636
vt 0.407135 0.270020
vt 0.385258 0.347304
vt 0.390931 0.320525
vt 0.542029 0.191066
vt 0.524790 0.146184
vt 0.581104 0.341471
vt 0.583773 0.344662
vt 0.575655 0.348411
vt 0.578471 0.339582
vt 0.575653 0.339871
vt 0.572548 0.340620
vt 0.570150 0.342747
vt 0.568319 0.345113
vt 0.567302 0.347894
vt 0.567645 0.350528
vt 0.569144 0.353304
vt 0.571005 0.355525
vt 0.572745 0.357351
vt 0.576820 0.356849
vt 0.579728 0.355599
vt 0.584002 0.352594
vt 0.585153 0.349074
vt 0.257965 0.937451
vt 0.252633 0.938118
vt 0.258275 0.937405
vt 0.264344 0.936361
vt 0.735172 0.985843
vt 0.735087 0.986578
vt 0.730677 0.986249
vt 0.730175 0.986230
vt 0.726321 0.986259
vt 0.726197 0.986256
vt 0.722038 0.986149
vt 0.721673 0.986139
vt 0.717297 0.985998
vt 0.717136 0.985998
vt 0.713055 0.986108
vt 0.712838 0.986113
vt 0.708760 0.986181
vt 0.708430 0.986193
vt 0.704753 0.986465
vt 0.704472 0.986486
vt 0.700102 0.986821
vt 0.296662 0.936974
vt 0.296437 0.937628
vt 0.292586 0.936239
vt 0.292409 0.936182
vt 0.288553 0.935099
vt 0.288004 0.935081
vt 0.281917 0.935553
vt 0.281714 0.935562
vt 0.277648 0.935744
vt 0.277468 0.935745
vt 0.270457 0.935674
vt 0.269957 0.935691
vt 0.264772 0.936298
vt 0.252390 0.937406
vt 0.255375 0.891487
vt 0.740359 0.940925
vt 0.730482 0.985487
vt 0.735154 0.940568
vt 0.726365 0.985520
vt 0.721934 0.985416
vt 0.730635 0.940498
vt 0.717270 0.985277
vt 0.725841 0.940260
vt 0.712857 0.985401
vt 0.719901 0.939895
vt 0.708494 0.985477
vt 0.712191 0.939906
vt 0.705473 0.940179
vt 0.704526 0.985776
vt 0.699740 0.986161
vt 0.696941 0.939820
vt 0.302011 0.889929
vt 0.292552 0.935500
vt 0.288367 0.934334
vt 0.296162 0.889071
vt 0.281890 0.934850
vt 0.287219 0.888752
vt 0.280129 0.889343
vt 0.277568 0.935046
vt 0.275337 0.889485
vt 0.270071 0.934958
vt 0.266108 0.887631
vt 0.264545 0.935592
vt 0.261322 0.888659
vt 0.258080 0.936695
vt 0.584719 0.336319
vt 0.589220 0.341642
vt 0.580010 0.333127
vt 0.575065 0.333499
vt 0.569846 0.334685
vt 0.565472 0.338223
vt 0.562133 0.342256
vt 0.560269 0.347127
vt 0.560619 0.351830
vt 0.562858 0.356993
vt 0.566033 0.361220
vt 0.570080 0.364400
vt 0.577845 0.363430
vt 0.582626 0.361222
vt 0.589818 0.355729
vt 0.591639 0.349237
vn -0.290583 -0.791520 0.537641
vn -0.603531 -0.795400 -0.055579
vn -0.245183 -0.953675 0.174326
vn -0.168770 -0.795622 0.581809
vn -0.077269 -0.800687 0.594079
vn 0.136044 -0.954610 0.264976
vn 0.550775 -0.804613 0.221914
vn 0.009676 -0.789941 0.613106
vn -0.437199 -0.684626 -0.583219
vn -0.344340 -0.866693 -0.360933
vn -0.564801 -0.738923 -0.367413
vn -0.609718 -0.486203 -0.625980
vn 0.615346 -0.778970 -0.120644
vn 0.351220 -0.893662 -0.279307
vn 0.475903 -0.680630 -0.557009
vn 0.689572 -0.585365 -0.426426
vn 0.088088 -0.897605 -0.431910
vn 0.078719 -0.578174 -0.812108
vn -0.072955 -0.966227 0.247150
vn -0.141278 -0.809174 0.570331
vn 0.562707 -0.825717 0.039406
vn 0.278918 -0.959967 -0.025836
vn -0.008048 -0.991512 -0.129765
vn -0.292917 -0.944638 -0.147847
vn -0.490638 -0.825800 -0.278080
vn 0.048921 0.190317 -0.980503
vn 0.614957 0.160105 -0.772136
vn 0.825895 0.184341 -0.532837
vn 0.989655 0.040987 0.137485
vn 0.990040 0.006286 -0.140649
vn 0.986838 0.139877 -0.081146
vn -0.141639 0.068902 0.987518
vn -0.383511 -0.092692 0.918873
vn -0.211326 -0.185115 0.959726
vn -0.065160 -0.142203 0.987691
vn -0.284330 0.125341 0.950498
vn -0.753541 0.285385 -0.592226
vn -0.703524 0.079926 -0.706163
vn -0.971992 -0.052767 -0.229014
vn -0.623639 0.103992 -0.774764
vn -0.568073 0.052281 -0.821316
vn 0.528328 0.388199 -0.755097
vn 0.016326 0.437043 -0.899292
vn 0.055263 0.379221 -0.923655
vn 0.512733 0.367195 -0.776062
vn 0.766814 0.422896 -0.482862
vn 0.773427 0.383379 -0.504809
vn 0.897317 0.424389 -0.121316
vn 0.916712 0.369997 -0.150805
vn 0.877417 0.476728 0.053569
vn 0.896986 0.422458 0.130178
vn 0.597501 0.508618 0.619920
vn 0.614034 0.626332 0.480281
vn 0.093004 0.529134 0.843426
vn 0.159222 0.469079 0.868685
vn -0.110127 0.373195 0.921194
vn -0.045903 0.411082 0.910442
vn -0.106508 0.320607 0.941205
vn -0.107678 0.392352 0.913491
vn -0.324650 0.424838 0.845053
vn -0.350166 0.417353 0.838571
vn -0.704263 0.574779 0.416704
vn -0.765719 0.396181 0.506671
vn -0.819302 0.570529 0.056936
vn -0.927200 0.354663 0.120478
vn -0.868846 0.464431 -0.171492
vn -0.921809 0.361211 -0.140693
vn -0.825724 0.423235 -0.372897
vn -0.843008 0.354987 -0.404131
vn -0.660176 0.368765 -0.654355
vn -0.713610 0.293650 -0.636028
vn -0.513451 0.345935 -0.785301
vn -0.501194 0.309845 -0.807961
vn -0.020852 0.497289 -0.867334
vn 0.552176 0.422411 -0.718798
vn 0.749031 0.450344 -0.485946
vn 0.958025 0.254288 0.132386
vn 0.981400 0.147537 -0.122825
vn 0.907648 0.413661 -0.071131
vn -0.148538 0.439828 0.885713
vn -0.385781 0.175723 0.905701
vn -0.180360 -0.017955 0.983437
vn -0.072457 0.027088 0.997004
vn -0.276457 0.529577 0.801948
vn -0.623407 0.594431 -0.507953
vn -0.748204 0.259195 -0.610745
vn -0.961767 0.159581 -0.222571
vn -0.595993 0.315514 -0.738406
vn -0.546848 0.251922 -0.798431
vn -0.235230 0.178413 0.955424
vn -0.408965 0.176130 0.895391
vn -0.223276 0.222849 0.948940
vn -0.260515 0.156466 0.952707
vn -0.562515 0.209144 0.799897
vn -0.476455 0.217208 0.851946
vn -0.776880 0.212719 0.592628
vn -0.761666 0.280456 0.584131
vn -0.932315 0.203896 0.298688
vn -0.923718 0.287011 0.253711
vn -0.982539 0.185720 0.011195
vn -0.970680 0.230743 -0.067361
vn -0.889998 0.139745 -0.434022
vn -0.934636 0.130910 -0.330633
vn -0.754106 0.084461 -0.651299
vn -0.757232 0.112174 -0.643441
vn -0.538480 0.117282 -0.834437
vn -0.520246 0.079205 -0.850336
vn -0.095779 0.088586 -0.991453
vn -0.044846 0.057202 -0.997355
vn 0.466675 0.080945 -0.880717
vn 0.470700 0.024439 -0.881955
vn 0.850542 0.061148 -0.522340
vn 0.843155 0.074666 -0.532461
vn 0.993254 0.112412 -0.028460
vn 0.996604 0.065182 -0.050319
vn 0.930327 0.153263 0.333171
vn 0.914877 0.085149 0.394652
vn 0.891645 0.155754 0.425100
vn 0.764949 0.185718 0.616735
vn 0.752092 -0.009165 0.658995
vn 0.920468 0.108721 0.375392
vn 0.995838 0.064587 -0.064314
vn 0.854915 0.000361 -0.518768
vn 0.485111 0.003296 -0.874447
vn -0.000257 0.064116 -0.997943
vn -0.518193 0.132896 -0.844876
vn -0.763010 0.147912 -0.629236
vn -0.868293 0.168565 -0.466533
vn -0.967826 0.219079 -0.123763
vn -0.942913 0.248453 0.221782
vn -0.743860 0.235005 0.625655
vn -0.432540 0.169301 0.885577
vn -0.206845 0.111519 0.971997
vn -0.221519 -0.011080 0.975093
vn 0.208240 -0.132054 0.969122
vn 0.223277 0.100157 0.969596
vn 0.616556 0.156024 0.771697
vn -0.033221 0.093640 0.995052
vn -0.165398 0.120440 0.978845
vn -0.395229 0.168843 0.902932
vn -0.716546 0.203962 0.667055
vn -0.960972 0.195149 0.196085
vn -0.978495 0.158277 -0.132275
vn -0.875512 0.142422 -0.461731
vn -0.765483 0.138251 -0.628429
vn -0.493241 0.129919 -0.860137
vn 0.060534 0.091913 -0.993925
vn 0.521929 0.010350 -0.852926
vn 0.850791 -0.025237 -0.524898
vn 0.988867 0.060354 -0.136015
vn 0.921401 0.163103 0.352729
vn -0.003357 0.478460 -0.878103
vn 0.564981 0.360909 -0.741985
vn -0.533293 0.314031 -0.785483
vn -0.587844 0.373836 -0.717417
vn -0.914055 0.289856 -0.283702
vn -0.794759 0.356330 -0.491312
vn -0.637802 0.646218 -0.419060
vn -0.320863 0.623305 0.713118
vn -0.118593 0.139898 0.983038
vn -0.137958 0.007035 0.990413
vn -0.322931 0.207207 0.923461
vn -0.125302 0.532693 0.836981
vn 0.977218 0.200939 -0.068325
vn 0.880180 0.473994 0.024745
vn 0.954575 0.291539 0.061571
vn 0.744335 0.433052 -0.508361
vn 0.182361 0.348897 0.919247
vn 0.581247 0.379045 0.720053
vn 0.918996 0.317911 0.233191
vn 0.951855 0.249005 -0.178799
vn 0.813824 0.209896 -0.541880
vn 0.527760 0.206560 -0.823894
vn 0.090477 0.245099 -0.965267
vn -0.497198 0.210424 -0.841734
vn -0.753161 0.177931 -0.633316
vn -0.874163 0.217971 -0.433967
vn -0.957695 0.246957 -0.147757
vn -0.949240 0.289457 0.123122
vn -0.703336 0.356437 0.615037
vn -0.345458 0.356136 0.868232
vn -0.124564 0.305492 0.944012
vn -0.017100 0.310965 0.950267
vn 0.618041 0.059059 0.783925
vn 0.144385 0.067538 0.987214
vn 0.103675 0.271315 0.956891
vn 0.894328 0.025509 0.446685
vn 0.996232 0.037594 -0.078160
vn 0.829881 0.092913 -0.550150
vn 0.448310 0.127565 -0.884729
vn -0.089861 0.132799 -0.987061
vn -0.499498 0.116985 -0.858380
vn -0.775111 0.119972 -0.620330
vn -0.949097 0.129938 -0.286932
vn -0.990815 0.129645 0.038441
vn -0.930321 0.128287 0.343578
vn -0.760371 0.133405 0.635641
vn -0.600723 0.132839 0.788344
vn -0.337543 0.084975 0.937467
vn -0.087205 0.066956 0.993938
vn 0.637062 0.077864 0.766870
vn 0.130269 0.062205 0.989525
vn 0.132216 0.006585 0.991199
vn 0.630039 0.028464 0.776041
vn 0.884213 0.048829 0.464525
vn 0.876670 0.090182 0.472565
vn 0.975944 0.082234 -0.201918
vn 0.953201 0.125641 -0.274994
vn 0.762171 0.118406 -0.636455
vn 0.692235 0.161074 -0.703467
vn 0.321313 0.156191 -0.934003
vn 0.263723 0.178464 -0.947946
vn -0.195078 0.172406 -0.965516
vn -0.139464 0.185294 -0.972736
vn -0.506184 0.156631 -0.848083
vn -0.476855 0.193799 -0.857351
vn -0.741760 0.180463 -0.645930
vn -0.727213 0.161158 -0.667225
vn -0.933035 0.148339 -0.327783
vn -0.936813 0.149504 -0.316276
vn -0.990939 0.129946 0.033967
vn -0.991880 0.127173 0.000671
vn -0.970501 0.082343 0.226600
vn -0.922862 0.097449 0.372597
vn -0.905693 0.068629 0.418343
vn -0.866502 0.064069 0.495044
vn -0.692629 0.058562 0.718913
vn -0.684025 0.036826 0.728528
vn -0.410461 0.045941 0.910720
vn -0.376741 0.026459 0.925941
vn -0.158276 0.014006 0.987296
vn -0.193506 0.045328 0.980051
vn 0.152758 0.021231 0.988036
vn 0.612275 0.045212 0.789351
vn -0.110900 0.028657 0.993418
vn -0.385196 0.029931 0.922349
vn -0.651590 0.037026 0.757668
vn -0.796716 0.069418 0.600353
vn -0.911919 0.088298 0.400758
vn -0.994633 0.100973 0.022555
vn -0.947182 0.125122 -0.295280
vn -0.774517 0.150662 -0.614349
vn -0.472469 0.167551 -0.865274
vn -0.083392 0.174218 -0.981170
vn 0.392600 0.152163 -0.907035
vn 0.799295 0.119730 -0.588890
vn 0.983905 0.083689 -0.157882
vn 0.888441 0.058372 0.455264
vn 0.651287 0.136295 0.746491
vn 0.196313 0.083458 0.976983
vn -0.138259 0.046418 0.989308
vn -0.421148 0.024084 0.906672
vn -0.691224 0.026557 0.722153
vn -0.882689 0.024840 0.469300
vn -0.981655 0.007788 0.190508
vn -0.993886 0.041253 -0.102420
vn -0.938804 0.064381 -0.338381
vn -0.765502 0.071210 -0.639481
vn -0.467922 0.092098 -0.878958
vn -0.144002 0.133852 -0.980483
vn 0.293568 0.176902 -0.939427
vn 0.668178 0.207986 -0.714339
vn 0.931986 0.224642 -0.284497
vn 0.871806 0.176982 0.456763
vn 0.725962 0.128935 0.675540
vn 0.384302 0.052552 0.921711
vn 0.916252 0.186661 0.354458
vn 0.943540 0.218917 -0.248611
vn 0.722585 0.190099 -0.664630
vn 0.352432 0.166191 -0.920963
vn 0.013043 0.143313 -0.989591
vn -0.316556 0.104798 -0.942767
vn -0.722196 0.036202 -0.690740
vn -0.906093 -0.022368 -0.422487
vn -0.980911 -0.059239 -0.185213
vn -0.948882 -0.065440 0.308772
vn -0.810320 -0.055184 0.583383
vn -0.666389 -0.044448 0.744278
vn -0.360342 -0.031166 0.932299
vn -0.006086 -0.005629 0.999966
vn 0.782913 0.098447 0.614293
vn 0.565048 0.071159 0.821984
vn 0.953094 0.131826 0.272459
vn 0.972655 0.157331 -0.170851
vn 0.813228 0.170124 -0.556524
vn 0.369983 0.141350 -0.918223
vn 0.152101 0.125437 -0.980373
vn -0.117828 0.086206 -0.989285
vn -0.550513 0.021314 -0.834554
vn -0.846602 -0.029136 -0.531429
vn -0.988678 -0.048733 -0.141920
vn -0.911491 -0.037601 0.409598
vn -0.743403 -0.032123 0.668071
vn -0.558298 -0.010947 0.829568
vn -0.254294 0.023359 0.966845
vn 0.107486 0.037690 0.993492
vn 0.799959 0.033733 0.599105
vn 0.655795 0.038002 0.753982
vn 0.647318 0.074005 0.758619
vn 0.806396 0.080990 0.585804
vn 0.964200 0.107446 0.242433
vn 0.963819 0.047684 0.262257
vn 0.977265 0.138573 -0.160471
vn 0.990562 0.045720 -0.129213
vn 0.897884 0.113699 -0.425297
vn 0.934522 0.023874 -0.355104
vn 0.504594 0.089628 -0.858692
vn 0.673088 0.025221 -0.739132
vn 0.479022 0.014657 -0.877680
vn 0.331158 0.045144 -0.942495
vn 0.127054 0.020185 -0.991690
vn 0.071380 0.006358 -0.997429
vn -0.484818 0.007828 -0.874580
vn -0.505466 0.036144 -0.862089
vn -0.843275 0.042282 -0.535817
vn -0.833600 0.007294 -0.552321
vn -0.996280 0.001563 -0.086167
vn -0.997914 0.038525 -0.051810
vn -0.817174 0.028252 0.575698
vn -0.875556 -0.000125 0.483117
vn -0.594088 0.024613 0.804023
vn -0.662510 0.005010 0.749036
vn -0.253707 0.020717 0.967059
vn -0.362870 0.027108 0.931445
vn -0.054752 0.026499 0.998148
vn -0.152812 0.050944 0.986941
vn 0.177998 0.063916 0.981953
vn 0.261265 0.037785 0.964527
vn 0.781278 -0.064756 0.620816
vn 0.570946 -0.058507 0.818900
vn 0.626636 -0.007252 0.779278
vn 0.789344 -0.005699 0.613925
vn 0.924876 -0.003131 0.380256
vn 0.908757 -0.049132 0.414425
vn 0.998318 -0.004531 -0.057804
vn 0.994206 -0.017986 -0.105977
vn 0.928742 0.005442 -0.370687
vn 0.887584 0.009850 -0.460541
vn 0.727172 0.019586 -0.686176
vn 0.690051 0.044925 -0.722365
vn 0.408191 0.064822 -0.910592
vn 0.492488 0.034467 -0.869636
vn 0.031456 0.091306 -0.995326
vn 0.131752 0.048963 -0.990073
vn -0.540109 0.069558 -0.838715
vn -0.591972 0.121808 -0.796700
vn -0.866571 0.119007 -0.484656
vn -0.856387 0.076820 -0.510589
vn -0.996830 0.077808 -0.016627
vn -0.992633 0.117944 -0.027718
vn -0.855621 0.085138 0.510554
vn -0.799633 0.049525 0.598443
vn -0.644949 0.049360 0.762630
vn -0.575768 0.029469 0.817082
vn -0.354342 0.014027 0.935011
vn -0.240777 0.014158 0.970477
vn -0.119541 -0.018811 0.992651
vn -0.001929 0.008681 0.999961
vn 0.275658 0.002625 0.961252
vn 0.169501 -0.044270 0.984535
vn 0.000655 0.436638 -0.899637
vn 0.558917 0.339206 -0.756671
vn 0.762764 0.427365 -0.485335
vn 0.924075 0.378721 -0.051535
vn 0.919056 0.394046 -0.007974
vn 0.748240 0.607271 0.267130
vn 0.010008 0.549840 0.835210
vn -0.201046 0.283423 0.937684
vn -0.111134 0.175831 0.978127
vn -0.259937 0.397065 0.880211
vn -0.492698 0.745668 0.448585
vn -0.659473 0.738663 -0.139540
vn -0.804798 0.520271 -0.285689
vn -0.844701 0.414664 -0.338427
vn -0.616608 0.392320 -0.682554
vn -0.524754 0.348298 -0.776738
vn 0.159888 -0.561217 0.812078
vn -0.565178 -0.337343 0.752843
vn 0.813609 -0.358705 0.457570
vn 0.994910 0.098075 0.023135
vn 0.744336 0.627495 -0.228502
vn -0.103512 0.968512 -0.226429
vn -0.728212 0.670532 0.141755
vn -0.872949 0.126688 0.471074
vn -0.222519 0.006048 0.974910
vn 0.191729 -0.140343 0.971362
vn 0.182787 0.467459 0.864911
vn -0.368819 0.405421 0.836425
vn 0.611814 -0.017182 0.790815
vn 0.724521 0.354555 0.591067
vn 0.497266 0.724836 0.476801
vn 0.070705 0.826413 0.558607
vn -0.365614 0.726860 0.581379
vn -0.609618 -0.407703 0.679812
vn 0.121911 -0.668062 0.734051
vn -0.931289 0.106049 0.348504
vn -0.753246 0.650558 -0.096924
vn -0.109573 0.906824 -0.407018
vn 0.640224 0.631693 -0.437125
vn 0.985368 0.074012 -0.153529
vn 0.824523 -0.452438 0.339796
vn 0.173433 0.956321 0.235313
vn 0.270508 0.949132 0.161162
vn 0.072822 0.996902 -0.029736
vn 0.077717 0.959544 0.270620
vn -0.013056 0.971537 0.236527
vn -0.115624 0.976632 0.181166
vn -0.166941 0.978465 0.121400
vn -0.179136 0.982254 0.055558
vn -0.182199 0.980890 -0.068255
vn -0.121521 0.971128 -0.205287
vn -0.067839 0.961964 -0.264619
vn -0.036598 0.960132 -0.277142
vn 0.012652 0.948928 -0.315240
vn 0.099793 0.955405 -0.277926
vn 0.264106 0.947854 -0.178383
vn 0.334579 0.936973 -0.100690
vn 0.340834 0.938811 0.049653
vn 0.763205 -0.065663 0.642812
vn 0.453492 0.819331 0.350773
vn 0.287025 0.831952 0.474839
vn 0.525161 -0.049775 0.849546
vn 0.916789 -0.061834 0.394557
vn 0.580648 0.802532 0.137079
vn 0.070555 0.838998 0.539541
vn 0.070187 -0.034387 0.996941
vn -0.126367 0.870946 0.474853
vn -0.262265 0.001693 0.964994
vn -0.293538 0.877168 0.380017
vn -0.493748 0.045751 0.868401
vn -0.388148 0.886563 0.251690
vn -0.734904 0.096572 0.671260
vn -0.420578 0.898910 0.122784
vn -0.906931 0.140544 0.397145
vn -0.426158 0.900514 -0.086389
vn -0.984815 0.164940 -0.054172
vn -0.331924 0.893351 -0.302904
vn -0.862712 0.176021 -0.474072
vn -0.235218 0.882462 -0.407350
vn -0.668712 0.197419 -0.716833
vn -0.153084 0.875054 -0.459179
vn -0.160071 0.198660 -0.966908
vn 0.035883 0.837736 -0.544896
vn 0.270280 0.148408 -0.951275
vn 0.215810 0.849913 -0.480702
vn 0.622869 0.111148 -0.774390
vn 0.442418 0.828178 -0.344074
vn 0.842335 0.044720 -0.537095
vn 0.567094 0.801786 -0.188531
vn 0.975993 -0.003942 -0.217768
s 1
g PineLOW Pine_Group
usemtl lambert4SG
f 1/418/1 21/407/2 22/22/3 12/417/4
f 13/415/5 24/24/6 25/405/7 4/406/8
f 10/419/9 19/19/10 20/409/11 2/410/12
f 16/411/13 17/17/14 15/413/15 3/414/16
f 18/18/17 19/19/10 10/419/9 5/420/18
f 12/417/4 22/22/3 23/23/19 6/416/20
f 6/416/20 23/23/19 24/24/6 13/415/5
f 15/413/15 17/17/14 18/18/17 5/420/18
f 9/412/21 14/14/22 17/17/14 16/411/13
f 18/18/17 17/17/14 14/14/22 8/8/23
f 8/8/23 11/11/24 19/19/10 18/18/17
f 20/409/11 19/19/10 11/11/24 7/408/25
f 22/22/3 21/407/2 7/408/25 11/11/24
f 23/23/19 22/22/3 11/11/24 8/8/23
f 24/24/6 23/23/19 8/8/23 14/14/22
f 25/405/7 24/24/6 14/14/22 9/412/21
f 15/15/15 5/5/18 42/42/26 43/43/27
f 43/43/27 44/44/28 3/3/16 15/15/15
f 44/44/28 45/45/29 16/16/13 3/3/16
f 9/9/21 16/16/13 45/45/29 46/46/30
f 46/46/30 47/47/31 25/25/7 9/9/21
f 13/13/5 4/442/8 48/441/32 49/49/33
f 6/6/20 13/13/5 49/49/33 50/50/34
f 12/12/4 6/6/20 50/50/34 51/51/35
f 1/1/1 12/12/4 51/51/35 52/52/36
f 52/52/36 53/53/37 21/21/2 1/1/1
f 53/53/37 54/54/38 7/7/25 21/21/2
f 54/54/38 55/55/39 20/20/11 7/7/25
f 55/55/39 56/463/40 2/2/12 20/20/11
f 10/10/9 2/464/12 56/56/40 57/57/41
f 57/57/41 42/42/26 5/5/18 10/10/9
f 374/359/42 375/360/43 365/350/44 366/351/45
f 373/358/46 374/359/42 366/351/45 367/352/47
f 372/357/48 373/358/46 367/352/47 368/353/49
f 371/356/50 372/357/48 368/353/49 369/354/51
f 354/339/52 370/355/53 371/356/50 369/354/51
f 385/370/54 370/355/53 354/339/52 355/425/55
f 384/369/56 385/423/54 355/340/55 356/341/57
f 383/368/58 384/369/56 356/341/57 357/342/59
f 382/367/60 383/368/58 357/342/59 358/343/61
f 381/366/62 382/367/60 358/343/61 359/344/63
f 380/365/64 381/366/62 359/344/63 360/345/65
f 379/364/66 380/365/64 360/345/65 361/346/67
f 378/363/68 379/364/66 361/346/67 362/347/69
f 377/362/70 378/363/68 362/347/69 363/447/71
f 376/361/72 377/445/70 363/348/71 364/349/73
f 365/350/44 375/360/43 376/361/72 364/349/73
f 43/43/27 42/42/26 26/26/74 27/27/75
f 27/27/75 28/28/76 44/44/28 43/43/27
f 28/28/76 29/29/77 45/45/29 44/44/28
f 46/46/30 45/45/29 29/29/77 30/30/78
f 30/30/78 31/31/79 47/47/31 46/46/30
f 49/49/33 48/441/32 32/427/80 33/33/81
f 50/50/34 49/49/33 33/33/81 34/34/82
f 51/51/35 50/50/34 34/34/82 35/35/83
f 52/52/36 51/51/35 35/35/83 36/36/84
f 36/36/84 37/37/85 53/53/37 52/52/36
f 37/37/85 38/38/86 54/54/38 53/53/37
f 38/38/86 39/39/87 55/55/39 54/54/38
f 39/39/87 40/40/88 56/463/40 55/55/39
f 57/57/41 56/56/40 40/449/88 41/41/89
f 41/41/89 26/26/74 42/42/26 57/57/41
f 103/103/90 104/387/91 73/73/92 72/72/93
f 72/72/93 71/71/94 102/102/95 103/103/90
f 71/71/94 70/70/96 101/101/97 102/102/95
f 70/70/96 69/69/98 100/100/99 101/101/97
f 69/69/98 68/68/100 99/99/101 100/100/99
f 98/98/102 99/99/101 68/68/100 67/67/103
f 67/67/103 66/66/104 97/97/105 98/98/102
f 96/96/106 97/461/105 66/444/104 65/65/107
f 65/65/107 64/64/108 95/95/109 96/96/106
f 64/64/108 63/63/110 94/94/111 95/95/109
f 93/93/112 94/94/111 63/63/110 62/62/113
f 92/92/114 93/93/112 62/62/113 61/61/115
f 91/91/116 92/92/114 61/61/115 60/60/117
f 90/389/118 91/91/116 60/60/117 59/390/119
f 74/392/120 89/89/121 91/91/116 90/389/118
f 89/89/121 88/88/122 92/92/114 91/91/116
f 88/88/122 87/87/123 93/93/112 92/92/114
f 87/87/123 86/86/124 94/94/111 93/93/112
f 95/95/109 94/94/111 86/86/124 85/85/125
f 96/96/106 95/95/109 85/85/125 84/84/126
f 84/84/126 83/462/127 97/461/105 96/96/106
f 98/98/102 97/97/105 83/83/127 82/82/128
f 82/82/128 81/81/129 99/99/101 98/98/102
f 100/100/99 99/99/101 81/81/129 80/80/130
f 101/101/97 100/100/99 80/80/130 79/79/131
f 102/102/95 101/101/97 79/79/131 78/78/132
f 103/103/90 102/102/95 78/78/132 77/77/133
f 77/77/133 76/388/134 104/387/91 103/103/90
f 74/392/120 75/391/135 137/438/136 138/138/137
f 152/152/138 137/137/136 75/440/135 76/388/134
f 151/151/139 152/152/138 76/388/134 77/77/133
f 77/77/133 78/78/132 150/150/140 151/151/139
f 78/78/132 79/79/131 149/149/141 150/150/140
f 79/79/131 80/80/130 148/148/142 149/149/141
f 80/80/130 81/81/129 147/147/143 148/148/142
f 146/146/144 147/147/143 81/81/129 82/82/128
f 82/82/128 83/83/127 145/145/145 146/146/144
f 144/144/146 145/459/145 83/462/127 84/84/126
f 84/84/126 85/85/125 143/143/147 144/144/146
f 85/85/125 86/86/124 142/142/148 143/143/147
f 141/141/149 142/142/148 86/86/124 87/87/123
f 140/140/150 141/141/149 87/87/123 88/88/122
f 139/139/151 140/140/150 88/88/122 89/89/121
f 138/138/137 139/139/151 89/89/121 74/392/120
f 27/27/75 26/26/74 313/298/152 314/299/153
f 328/313/154 313/298/152 26/26/74 41/41/89
f 41/41/89 40/449/88 327/312/155 328/313/154
f 326/311/156 327/448/155 40/40/88 39/39/87
f 325/310/157 326/311/156 39/39/87 38/38/86
f 324/309/158 325/310/157 38/38/86 37/37/85
f 323/308/159 324/309/158 37/37/85 36/36/84
f 36/36/84 35/35/83 322/307/160 323/308/159
f 35/35/83 34/34/82 321/306/161 322/307/160
f 34/34/82 33/33/81 320/305/162 321/306/161
f 33/33/81 32/427/80 319/426/163 320/305/162
f 317/302/164 318/303/165 31/31/79 30/30/78
f 30/30/78 29/29/77 316/301/166 317/302/164
f 315/300/167 316/301/166 29/29/77 28/28/76
f 314/299/153 315/300/167 28/28/76 27/27/75
f 138/138/137 137/438/136 106/106/168 105/105/169
f 105/105/169 120/120/170 139/139/151 138/138/137
f 120/120/170 119/119/171 140/140/150 139/139/151
f 119/119/171 118/118/172 141/141/149 140/140/150
f 118/118/172 117/117/173 142/142/148 141/141/149
f 143/143/147 142/142/148 117/117/173 116/116/174
f 144/144/146 143/143/147 116/116/174 115/115/175
f 115/115/175 114/460/176 145/459/145 144/144/146
f 146/146/144 145/145/145 114/114/176 113/113/177
f 113/113/177 112/112/178 147/147/143 146/146/144
f 148/148/142 147/147/143 112/112/178 111/111/179
f 149/149/141 148/148/142 111/111/179 110/110/180
f 150/150/140 149/149/141 110/110/180 109/109/181
f 151/151/139 150/150/140 109/109/181 108/108/182
f 108/108/182 107/107/183 152/152/138 151/151/139
f 107/107/183 106/439/168 137/137/136 152/152/138
f 386/371/184 387/421/185 58/58/186 59/390/119
f 60/60/117 401/386/187 386/371/184 59/390/119
f 61/61/115 400/385/188 401/386/187 60/60/117
f 62/62/113 399/384/189 400/385/188 61/61/115
f 63/63/110 398/383/190 399/384/189 62/62/113
f 64/64/108 397/382/191 398/383/190 63/63/110
f 65/65/107 396/381/192 397/382/191 64/64/108
f 66/444/104 395/380/193 396/381/192 65/65/107
f 67/67/103 394/379/194 395/443/193 66/66/104
f 68/68/100 393/378/195 394/379/194 67/67/103
f 69/69/98 392/377/196 393/378/195 68/68/100
f 70/70/96 391/376/197 392/377/196 69/69/98
f 71/71/94 390/375/198 391/376/197 70/70/96
f 72/72/93 389/374/199 390/375/198 71/71/94
f 73/73/92 388/373/200 389/374/199 72/72/93
f 58/422/186 387/372/185 388/373/200 73/73/92
f 201/201/201 202/435/202 153/153/203 154/154/204
f 154/154/204 155/155/205 216/216/206 201/201/201
f 155/155/205 156/156/207 215/215/208 216/216/206
f 156/156/207 157/157/209 214/214/210 215/215/208
f 157/157/209 158/158/211 213/213/212 214/214/210
f 212/212/213 213/213/212 158/158/211 159/159/214
f 211/211/215 212/212/213 159/159/214 160/160/216
f 160/160/216 161/457/217 210/210/218 211/211/215
f 209/209/219 210/456/218 161/161/217 162/162/220
f 162/162/220 163/163/221 208/208/222 209/209/219
f 207/207/223 208/208/222 163/163/221 164/164/224
f 206/206/225 207/207/223 164/164/224 165/165/226
f 205/205/227 206/206/225 165/165/226 166/166/228
f 204/204/229 205/205/227 166/166/228 167/167/230
f 167/167/230 168/168/231 203/203/232 204/204/229
f 168/168/231 153/436/203 202/202/202 203/203/232
f 154/154/204 153/153/203 186/437/233 185/185/234
f 187/187/235 186/186/233 153/436/203 168/168/231
f 188/188/236 187/187/235 168/168/231 167/167/230
f 167/167/230 166/166/228 189/189/237 188/188/236
f 166/166/228 165/165/226 190/190/238 189/189/237
f 165/165/226 164/164/224 191/191/239 190/190/238
f 164/164/224 163/163/221 192/192/240 191/191/239
f 193/193/241 192/192/240 163/163/221 162/162/220
f 162/162/220 161/161/217 194/458/242 193/193/241
f 195/195/243 194/194/242 161/457/217 160/160/216
f 160/160/216 159/159/214 196/196/244 195/195/243
f 159/159/214 158/158/211 197/197/245 196/196/244
f 198/198/246 197/197/245 158/158/211 157/157/209
f 199/199/247 198/198/246 157/157/209 156/156/207
f 200/200/248 199/199/247 156/156/207 155/155/205
f 185/185/234 200/200/248 155/155/205 154/154/204
f 170/170/249 169/169/250 202/435/202 201/201/201
f 203/203/232 202/202/202 169/434/250 184/184/251
f 204/204/229 203/203/232 184/184/251 183/183/252
f 183/183/252 182/182/253 205/205/227 204/204/229
f 182/182/253 181/181/254 206/206/225 205/205/227
f 181/181/254 180/180/255 207/207/223 206/206/225
f 180/180/255 179/179/256 208/208/222 207/207/223
f 209/209/219 208/208/222 179/179/256 178/178/257
f 178/178/257 177/177/258 210/456/218 209/209/219
f 211/211/215 210/210/218 177/455/258 176/176/259
f 176/176/259 175/175/260 212/212/213 211/211/215
f 175/175/260 174/174/261 213/213/212 212/212/213
f 214/214/210 213/213/212 174/174/261 173/173/262
f 215/215/208 214/214/210 173/173/262 172/172/263
f 216/216/206 215/215/208 172/172/263 171/171/264
f 201/201/201 216/216/206 171/171/264 170/170/249
f 218/218/265 217/217/266 169/169/250 170/170/249
f 170/170/249 171/171/264 219/219/267 218/218/265
f 171/171/264 172/172/263 220/220/268 219/219/267
f 172/172/263 173/173/262 221/221/269 220/220/268
f 173/173/262 174/174/261 222/222/270 221/221/269
f 223/223/271 222/222/270 174/174/261 175/175/260
f 224/224/272 223/223/271 175/175/260 176/176/259
f 176/176/259 177/455/258 225/451/273 224/224/272
f 226/226/274 225/225/273 177/177/258 178/178/257
f 178/178/257 179/179/256 227/227/275 226/226/274
f 228/228/276 227/227/275 179/179/256 180/180/255
f 229/229/277 228/228/276 180/180/255 181/181/254
f 230/230/278 229/229/277 181/181/254 182/182/253
f 231/231/279 230/230/278 182/182/253 183/183/252
f 183/183/252 184/184/251 232/232/280 231/231/279
f 184/184/251 169/434/250 217/429/266 232/232/280
f 297/282/281 298/428/282 217/217/266 218/218/265
f 218/218/265 219/219/267 312/297/283 297/282/281
f 219/219/267 220/220/268 311/296/284 312/297/283
f 220/220/268 221/221/269 310/295/285 311/296/284
f 221/221/269 222/222/270 309/294/286 310/295/285
f 308/293/287 309/294/286 222/222/270 223/223/271
f 307/292/288 308/293/287 223/223/271 224/224/272
f 224/224/272 225/451/273 306/291/289 307/292/288
f 305/290/290 306/450/289 225/225/273 226/226/274
f 226/226/274 227/227/275 304/289/291 305/290/290
f 303/288/292 304/289/291 227/227/275 228/228/276
f 302/287/293 303/288/292 228/228/276 229/229/277
f 301/286/294 302/287/293 229/229/277 230/230/278
f 300/285/295 301/286/294 230/230/278 231/231/279
f 231/231/279 232/232/280 299/284/296 300/285/295
f 232/232/280 217/429/266 298/283/282 299/284/296
f 281/266/297 282/430/298 233/233/299 234/234/300
f 234/234/300 235/235/301 296/281/302 281/266/297
f 235/235/301 236/236/303 295/280/304 296/281/302
f 236/236/303 237/237/305 294/279/306 295/280/304
f 237/237/305 238/238/307 293/278/308 294/279/306
f 292/277/309 293/278/308 238/238/307 239/239/310
f 291/276/311 292/277/309 239/239/310 240/240/312
f 240/240/312 241/453/313 290/275/314 291/276/311
f 289/274/315 290/452/314 241/241/313 242/242/316
f 242/242/316 243/243/317 288/273/318 289/274/315
f 287/272/319 288/273/318 243/243/317 244/244/320
f 286/271/321 287/272/319 244/244/320 245/245/322
f 285/270/323 286/271/321 245/245/322 246/246/324
f 284/269/325 285/270/323 246/246/324 247/247/326
f 247/247/326 248/248/327 283/268/328 284/269/325
f 248/248/327 233/431/299 282/267/298 283/268/328
f 266/517/329 265/432/330 249/249/331 250/250/332
f 250/250/332 251/251/333 267/546/334 266/517/329
f 251/251/333 252/252/335 268/544/336 267/546/334
f 252/252/335 253/253/337 269/542/338 268/544/336
f 253/253/337 254/254/339 270/540/340 269/542/338
f 271/539/341 270/540/340 254/254/339 255/255/342
f 272/537/343 271/539/341 255/255/342 256/256/344
f 256/256/344 257/454/345 273/534/346 272/537/343
f 274/533/347 273/265/346 257/257/345 258/258/348
f 258/258/348 259/259/349 275/530/350 274/533/347
f 276/529/351 275/530/350 259/259/349 260/260/352
f 277/527/353 276/529/351 260/260/352 261/261/354
f 278/525/355 277/527/353 261/261/354 262/262/356
f 279/523/357 278/525/355 262/262/356 263/263/358
f 263/263/358 264/264/359 280/520/360 279/523/357
f 264/264/359 249/433/331 265/518/330 280/520/360
f 250/250/332 249/249/331 282/430/298 281/266/297
f 283/268/328 282/267/298 249/433/331 264/264/359
f 284/269/325 283/268/328 264/264/359 263/263/358
f 263/263/358 262/262/356 285/270/323 284/269/325
f 262/262/356 261/261/354 286/271/321 285/270/323
f 261/261/354 260/260/352 287/272/319 286/271/321
f 260/260/352 259/259/349 288/273/318 287/272/319
f 289/274/315 288/273/318 259/259/349 258/258/348
f 258/258/348 257/257/345 290/452/314 289/274/315
f 291/276/311 290/275/314 257/454/345 256/256/344
f 256/256/344 255/255/342 292/277/309 291/276/311
f 255/255/342 254/254/339 293/278/308 292/277/309
f 294/279/306 293/278/308 254/254/339 253/253/337
f 295/280/304 294/279/306 253/253/337 252/252/335
f 296/281/302 295/280/304 252/252/335 251/251/333
f 281/266/297 296/281/302 251/251/333 250/250/332
f 234/234/300 233/233/299 298/428/282 297/282/281
f 299/284/296 298/283/282 233/431/299 248/248/327
f 300/285/295 299/284/296 248/248/327 247/247/326
f 247/247/326 246/246/324 301/286/294 300/285/295
f 246/246/324 245/245/322 302/287/293 301/286/294
f 245/245/322 244/244/320 303/288/292 302/287/293
f 244/244/320 243/243/317 304/289/291 303/288/292
f 305/290/290 304/289/291 243/243/317 242/242/316
f 242/242/316 241/241/313 306/450/289 305/290/290
f 307/292/288 306/291/289 241/453/313 240/240/312
f 240/240/312 239/239/310 308/293/287 307/292/288
f 239/239/310 238/238/307 309/294/286 308/293/287
f 310/295/285 309/294/286 238/238/307 237/237/305
f 311/296/284 310/295/285 237/237/305 236/236/303
f 312/297/283 311/296/284 236/236/303 235/235/301
f 297/282/281 312/297/283 235/235/301 234/234/300
f 314/299/153 313/298/152 122/122/361 121/121/362
f 121/121/362 136/136/363 315/300/167 314/299/153
f 136/136/363 135/135/364 316/301/166 315/300/167
f 317/302/164 316/301/166 135/135/364 134/134/365
f 134/134/365 133/133/366 318/303/165 317/302/164
f 320/305/162 319/426/163 132/424/367 131/131/368
f 321/306/161 320/305/162 131/131/368 130/130/369
f 322/307/160 321/306/161 130/130/369 129/129/370
f 323/308/159 322/307/160 129/129/370 128/128/371
f 128/128/371 127/127/372 324/309/158 323/308/159
f 127/127/372 126/126/373 325/310/157 324/309/158
f 126/126/373 125/125/374 326/311/156 325/310/157
f 125/125/374 124/124/375 327/448/155 326/311/156
f 328/313/154 327/312/155 124/446/375 123/123/376
f 123/123/376 122/122/361 313/298/152 328/313/154
f 48/48/32 47/47/31 31/31/79 32/32/80
f 32/32/80 31/31/79 318/303/165 319/304/163
f 319/304/163 318/303/165 133/133/366 132/132/367
f 4/4/8 25/25/7 47/47/31 48/48/32
f 75/75/135 338/323/377 339/324/378 76/76/134
f 74/74/120 345/330/379 338/323/377 75/75/135
f 344/329/380 345/330/379 74/74/120 90/90/118
f 343/328/381 344/329/380 90/90/118 59/397/119
f 342/327/382 343/396/381 59/59/119 58/394/186
f 341/326/383 342/327/382 58/394/186 73/393/92
f 104/104/91 340/325/384 341/326/383 73/393/92
f 76/76/134 339/324/378 340/325/384 104/104/91
f 330/315/385 329/404/386 337/322/387 336/399/388
f 337/322/387 329/404/386 331/403/389 332/317/390
f 332/317/390 333/318/391 334/401/392 337/322/387
f 335/400/393 336/399/388 337/322/387 334/401/392
f 346/331/394 347/332/395 329/314/386 330/398/385
f 353/338/396 346/331/394 330/398/385 336/321/388
f 352/337/397 353/338/396 336/321/388 335/320/393
f 335/320/393 334/319/392 351/336/398 352/337/397
f 333/402/391 350/335/399 351/336/398 334/319/392
f 333/318/391 332/317/390 349/334/400 350/395/399
f 331/316/389 348/333/401 349/334/400 332/317/390
f 347/332/395 348/333/401 331/316/389 329/314/386
f 339/324/378 338/323/377 347/332/395 346/331/394
f 338/323/377 345/330/379 348/333/401 347/332/395
f 349/334/400 348/333/401 345/330/379 344/329/380
f 350/395/399 349/334/400 344/329/380 343/328/381
f 351/336/398 350/335/399 343/396/381 342/327/382
f 352/337/397 351/336/398 342/327/382 341/326/383
f 341/326/383 340/325/384 353/338/396 352/337/397
f 340/325/384 339/324/378 346/331/394 353/338/396
f 105/105/169 106/106/168 355/425/55 354/339/52
f 356/341/57 355/340/55 106/439/168 107/107/183
f 357/342/59 356/341/57 107/107/183 108/108/182
f 108/108/182 109/109/181 358/343/61 357/342/59
f 109/109/181 110/110/180 359/344/63 358/343/61
f 110/110/180 111/111/179 360/345/65 359/344/63
f 111/111/179 112/112/178 361/346/67 360/345/65
f 362/347/69 361/346/67 112/112/178 113/113/177
f 113/113/177 114/114/176 363/447/71 362/347/69
f 364/349/73 363/348/71 114/460/176 115/115/175
f 115/115/175 116/116/174 365/350/44 364/349/73
f 116/116/174 117/117/173 366/351/45 365/350/44
f 367/352/47 366/351/45 117/117/173 118/118/172
f 368/353/49 367/352/47 118/118/172 119/119/171
f 369/354/51 368/353/49 119/119/171 120/120/170
f 354/339/52 369/354/51 120/120/170 105/105/169
f 134/134/365 371/356/50 370/355/53 133/133/366
f 135/135/364 372/357/48 371/356/50 134/134/365
f 136/136/363 373/358/46 372/357/48 135/135/364
f 121/121/362 374/359/42 373/358/46 136/136/363
f 375/360/43 374/359/42 121/121/362 122/122/361
f 123/123/376 376/361/72 375/360/43 122/122/361
f 124/446/375 377/445/70 376/361/72 123/123/376
f 125/125/374 378/363/68 377/362/70 124/124/375
f 126/126/373 379/364/66 378/363/68 125/125/374
f 127/127/372 380/365/64 379/364/66 126/126/373
f 128/128/371 381/366/62 380/365/64 127/127/372
f 129/129/370 382/367/60 381/366/62 128/128/371
f 130/130/369 383/368/58 382/367/60 129/129/370
f 131/131/368 384/369/56 383/368/58 130/130/369
f 132/424/367 385/423/54 384/369/56 131/131/368
f 133/133/366 370/355/53 385/370/54 132/132/367
f 185/185/234 186/437/233 387/421/185 386/371/184
f 388/373/200 387/372/185 186/186/233 187/187/235
f 389/374/199 388/373/200 187/187/235 188/188/236
f 390/375/198 389/374/199 188/188/236 189/189/237
f 391/376/197 390/375/198 189/189/237 190/190/238
f 392/377/196 391/376/197 190/190/238 191/191/239
f 393/378/195 392/377/196 191/191/239 192/192/240
f 394/379/194 393/378/195 192/192/240 193/193/241
f 395/443/193 394/379/194 193/193/241 194/458/242
f 396/381/192 395/380/193 194/194/242 195/195/243
f 397/382/191 396/381/192 195/195/243 196/196/244
f 398/383/190 397/382/191 196/196/244 197/197/245
f 399/384/189 398/383/190 197/197/245 198/198/246
f 400/385/188 399/384/189 198/198/246 199/199/247
f 401/386/187 400/385/188 199/199/247 200/200/248
f 386/371/184 401/386/187 200/200/248 185/185/234
f 403/465/402 402/466/403 418/467/404
f 404/468/405 403/465/402 418/467/404
f 405/469/406 404/468/405 418/467/404
f 406/470/407 405/469/406 418/467/404
f 407/471/408 406/470/407 418/467/404
f 408/472/409 407/471/408 418/467/404
f 409/473/410 408/472/409 418/467/404
f 410/474/411 409/473/410 418/467/404
f 411/475/412 410/474/411 418/467/404
f 412/476/413 411/475/412 418/467/404
f 413/477/414 412/476/413 418/467/404
f 414/478/415 413/477/414 418/467/404
f 415/479/416 414/478/415 418/467/404
f 416/480/417 415/479/416 418/467/404
f 417/481/418 416/480/417 418/467/404
f 402/466/403 417/481/418 418/467/404
f 419/547/419 420/482/420 422/483/421 421/516/422
f 420/484/420 419/547/419 449/545/423 450/485/424
f 421/486/422 422/487/421 424/488/425 423/519/426
f 423/519/426 424/489/425 426/490/427 425/521/428
f 425/521/428 426/491/427 428/492/429 427/522/430
f 427/522/430 428/493/429 430/494/431 429/524/432
f 429/524/432 430/495/431 432/496/433 431/526/434
f 431/526/434 432/497/433 434/498/435 433/528/436
f 433/528/436 434/499/435 436/500/437 435/531/438
f 435/531/438 436/501/437 438/502/439 437/532/440
f 437/503/440 438/504/439 440/505/441 439/535/442
f 439/535/442 440/506/441 442/507/443 441/536/444
f 441/536/444 442/508/443 444/509/445 443/538/446
f 443/538/446 444/510/445 446/511/447 445/541/448
f 445/541/448 446/512/447 448/513/449 447/543/450
f 447/543/450 448/514/449 450/515/424 449/545/423
f 421/516/422 265/432/330 266/517/329 419/547/419
f 280/520/360 265/518/330 421/486/422 423/519/426
f 279/523/357 280/520/360 423/519/426 425/521/428
f 427/522/430 278/525/355 279/523/357 425/521/428
f 429/524/432 277/527/353 278/525/355 427/522/430
f 431/526/434 276/529/351 277/527/353 429/524/432
f 433/528/436 275/530/350 276/529/351 431/526/434
f 274/533/347 275/530/350 433/528/436 435/531/438
f 437/532/440 273/265/346 274/533/347 435/531/438
f 272/537/343 273/534/346 437/503/440 439/535/442
f 441/536/444 271/539/341 272/537/343 439/535/442
f 443/538/446 270/540/340 271/539/341 441/536/444
f 269/542/338 270/540/340 443/538/446 445/541/448
f 268/544/336 269/542/338 445/541/448 447/543/450
f 267/546/334 268/544/336 447/543/450 449/545/423
f 266/517/329 267/546/334 449/545/423 419/547/419
f 422/548/421 420/549/420 402/466/403 403/465/402
f 424/550/425 422/548/421 403/465/402 404/468/405
f 426/551/427 424/550/425 404/468/405 405/469/406
f 428/552/429 426/551/427 405/469/406 406/470/407
f 430/553/431 428/552/429 406/470/407 407/471/408
f 432/554/433 430/553/431 407/471/408 408/472/409
f 434/555/435 432/554/433 408/472/409 409/473/410
f 436/556/437 434/555/435 409/473/410 410/474/411
f 438/557/439 436/556/437 410/474/411 411/475/412
f 440/558/441 438/557/439 411/475/412 412/476/413
f 442/559/443 440/558/441 412/476/413 413/477/414
f 444/560/445 442/559/443 413/477/414 414/478/415
f 446/561/447 444/560/445 414/478/415 415/479/416
f 448/562/449 446/561/447 415/479/416 416/480/417
f 450/563/424 448/562/449 416/480/417 417/481/418
f 420/549/420 450/563/424 417/481/418 402/466/403
