# This file uses centimeters as units for non-parametric coordinates.

mtllib Icicle.mtl
g default
v 0.042759 0.717614 0.011937
v 0.111513 0.673127 -0.061500
v 0.069943 0.679962 -0.113636
v -0.030858 0.720977 -0.068865
v 0.097892 0.674328 -0.091360
v -0.012565 0.725433 -0.011840
v 0.081755 0.703259 -0.015422
v 0.049065 0.707846 -0.058417
v 0.001898 0.706953 -0.092420
v 0.179052 0.393370 0.154036
v -0.065012 0.364031 0.200516
v 0.275430 0.357141 -0.048789
v -0.283255 0.395642 0.075160
v -0.285295 0.404563 -0.121741
v -0.095902 0.382984 -0.252840
v 0.078588 0.384330 -0.267363
v 0.213825 0.367855 -0.179911
v -0.019817 -1.626562 -0.094812
v -0.047134 -1.630059 -0.055834
v 0.009701 -1.631665 -0.096376
v 0.031916 -1.626333 -0.071964
v 0.044205 -1.623364 -0.043275
v 0.025714 -1.624179 -0.014640
v -0.000943 -1.633028 -0.001613
v -0.027059 -1.629971 -0.025553
v 0.000254 -1.690713 -0.057330
v -0.169054 -1.167184 -0.083688
v -0.076844 -1.169326 -0.159604
v 0.044754 -1.170831 -0.196679
v 0.152987 -1.173787 -0.131958
v 0.180526 -1.168849 -0.006507
v 0.100816 -1.163869 0.100240
v -0.029556 -1.164278 0.127326
v -0.144748 -1.167654 0.028350
v -0.155654 -0.522000 -0.301451
v 0.088005 -0.527902 -0.306884
v 0.270995 -0.525197 -0.180154
v 0.308038 -0.518971 0.011569
v 0.196297 -0.510911 0.225594
v -0.062502 -0.512764 0.250962
v -0.305995 -0.524689 0.096109
v -0.317121 -0.515427 -0.141185
v -0.117706 -0.836785 -0.235506
v -0.253836 -0.832304 -0.119218
v -0.224412 -0.838020 0.061954
v -0.046337 -0.835579 0.198811
v 0.145831 -0.828830 0.160388
v 0.243495 -0.834733 0.001908
v 0.228900 -0.844136 -0.163974
v 0.066175 -0.842042 -0.254915
v -0.075869 0.165483 0.251425
v 0.219405 0.188072 0.212978
v 0.341201 0.165596 0.002663
v 0.277865 0.154444 -0.212513
v 0.100535 0.196241 -0.327323
v -0.139956 0.179207 -0.315304
v -0.331828 0.186163 -0.153439
v -0.344078 0.180098 0.087324
v 0.111454 -0.278034 -0.339242
v -0.172112 -0.275556 -0.328566
v -0.348477 -0.278633 -0.157606
v -0.364914 -0.267773 0.104309
v -0.069621 -0.268814 0.280128
v 0.232489 -0.250765 0.264681
v 0.356849 -0.281216 0.024816
v 0.291694 -0.286325 -0.203252
v 0.384410 -0.070327 0.023661
v 0.301871 -0.084543 -0.219309
v 0.122439 -0.063931 -0.361146
v -0.179737 -0.050137 -0.344318
v -0.350536 -0.051029 -0.163955
v -0.373447 -0.053011 0.097283
v -0.079477 -0.060388 0.276559
v 0.247773 -0.034884 0.265235
v -0.006960 0.578676 0.111308
v 0.136080 0.578702 0.062384
v 0.184833 0.550702 -0.054523
v 0.154501 0.550466 -0.132515
v 0.082369 0.565389 -0.184421
v -0.041837 0.576844 -0.171949
v -0.154660 0.610333 -0.090585
v -0.145431 0.602593 0.030984
vt 0.761767 0.821936
vt 0.764240 0.796398
vt 0.029716 0.754795
vt 0.014441 0.779809
vt 0.769797 0.792549
vt 0.001687 0.784564
vt 0.762817 0.810665
vt 0.776118 0.822229
vt 0.020594 0.771259
vt 0.679132 0.840432
vt 0.693874 0.791677
vt 0.707615 0.747174
vt 0.684545 0.890205
vt 0.078705 0.843849
vt 0.098998 0.796454
vt 0.105983 0.757934
vt 0.109128 0.721337
vt 0.543544 0.935410
vt 0.528371 0.928404
vt 0.531856 0.922625
vt 0.535000 0.915517
vt 0.302440 0.685000
vt 0.301281 0.691890
vt 0.297811 0.697189
vt 0.294227 0.703478
vt 0.543233 0.923051
vt 0.419621 0.928569
vt 0.426889 0.902458
vt 0.436660 0.875383
vt 0.450772 0.850663
vt 0.399073 0.689775
vt 0.395588 0.716626
vt 0.386314 0.742117
vt 0.369340 0.767811
vt 0.285144 0.860652
vt 0.304981 0.809258
vt 0.324990 0.763913
vt 0.533737 0.698846
vt 0.525071 0.747651
vt 0.508047 0.798035
vt 0.484313 0.852064
vt 0.270741 0.909816
vt 0.353341 0.880067
vt 0.342357 0.919322
vt 0.426411 0.811695
vt 0.448190 0.770543
vt 0.462438 0.732379
vt 0.468016 0.694122
vt 0.388863 0.803931
vt 0.369379 0.841366
vt 0.638230 0.836867
vt 0.654603 0.779796
vt 0.668151 0.733007
vt 0.165768 0.714598
vt 0.150403 0.760482
vt 0.142488 0.812692
vt 0.122846 0.864342
vt 0.634640 0.899139
vt 0.253162 0.785627
vt 0.234053 0.845797
vt 0.219040 0.898206
vt 0.535305 0.881851
vt 0.553785 0.815511
vt 0.573937 0.759780
vt 0.582093 0.706810
vt 0.272766 0.739131
vt 0.622798 0.717177
vt 0.225626 0.722394
vt 0.208105 0.769630
vt 0.187895 0.832394
vt 0.171179 0.883772
vt 0.581730 0.896139
vt 0.593333 0.828747
vt 0.613266 0.769061
vt 0.726761 0.831922
vt 0.733354 0.801013
vt 0.742341 0.775256
vt 0.061244 0.732604
vt 0.061071 0.753231
vt 0.054573 0.780839
vt 0.038169 0.808751
vt 0.735305 0.864135
vt 0.526934 0.939036
vt 0.551938 0.930022
vt 0.554885 0.920888
vt 0.550965 0.913531
vt 0.542127 0.910981
vt 0.533324 0.929731
vt 0.782439 0.832214
vt 0.776737 0.838861
vt 0.768312 0.814431
vt 0.779239 0.808010
vt 0.765226 0.834447
vt 0.784887 0.811582
vt 0.788682 0.817913
vt 0.754970 0.764181
vt 0.728548 0.727298
vt 0.637731 0.667921
vt 0.590856 0.660267
vt 0.536403 0.659363
vt 0.687937 0.693298
vt 0.467642 0.660020
vt 0.396921 0.663847
vt 0.301005 0.678784
vt 0.028924 0.746370
vt 0.017364 0.827375
vt 0.054151 0.878697
vt 0.151980 0.938718
vt 0.202549 0.954307
vt 0.265784 0.962622
vt 0.098936 0.913484
vt 0.342415 0.960441
vt 0.420112 0.954387
vt 0.527802 0.947161
vn 0.048364 0.678308 0.733184
vn 0.578917 0.651285 0.490594
vn 0.291287 0.931052 -0.219759
vn -0.409314 0.773549 0.483822
vn -0.160977 0.650726 -0.742052
vn -0.519422 0.794179 -0.315405
vn 0.826906 0.562265 0.009169
vn 0.655641 0.583887 -0.478759
vn 0.190668 0.597588 -0.778803
vn -0.186934 0.325030 0.927045
vn -0.226971 0.187786 0.955626
vn 0.508896 0.269826 0.817447
vn 0.529472 0.380702 0.758106
vn 0.963552 0.243668 0.110426
vn 0.933175 0.355742 0.051312
vn -0.095982 0.475829 0.874285
vn 0.585188 0.468340 0.661976
vn 0.901632 0.428378 0.059594
vn -0.622010 0.580956 0.524970
vn -0.835976 0.178483 0.518930
vn -0.758538 0.377166 0.531381
vn -0.698093 0.594682 -0.398772
vn -0.812848 0.402211 -0.421313
vn -0.874401 0.206373 -0.439127
vn -0.283865 0.460620 -0.840982
vn 0.220325 0.440057 -0.870521
vn 0.719311 0.401642 -0.566811
vn -0.357503 0.210158 -0.909959
vn -0.338589 0.357261 -0.870472
vn 0.217040 0.352220 -0.910404
vn 0.241884 0.210397 -0.947220
vn 0.794139 0.187806 -0.577990
vn 0.741411 0.327780 -0.585551
vn -0.374624 -0.171132 -0.911247
vn 0.245268 -0.155333 -0.956930
vn 0.204606 -0.187634 -0.960693
vn -0.393105 -0.216422 -0.893661
vn 0.808903 -0.191129 -0.556009
vn 0.818493 -0.161868 -0.551242
vn 0.952767 -0.204567 0.224473
vn 0.963081 -0.192976 0.187709
vn 0.535725 -0.214649 0.816654
vn 0.520864 -0.202914 0.829172
vn -0.245975 -0.212754 0.945639
vn -0.246155 -0.171610 0.953917
vn -0.812571 -0.232060 0.534675
vn -0.816046 -0.201258 0.541816
vn -0.907600 -0.251825 -0.335928
vn -0.913170 -0.203590 -0.353088
vn -0.928686 -0.284533 -0.237873
vn -0.915306 -0.269021 -0.299738
vn -0.447576 -0.215540 -0.867882
vn -0.478416 -0.212043 -0.852148
vn 0.164383 -0.214449 -0.962803
vn 0.168898 -0.251659 -0.952964
vn 0.795690 -0.240252 -0.556018
vn 0.774470 -0.279136 -0.567697
vn 0.942436 -0.244822 0.227765
vn 0.932873 -0.311997 0.180018
vn 0.541562 -0.236045 0.806841
vn 0.533851 -0.294730 0.792551
vn -0.253081 -0.246471 0.935522
vn -0.263480 -0.302448 0.916026
vn -0.803910 -0.243617 0.542567
vn -0.775816 -0.271972 0.569334
vn -0.026581 -0.998559 -0.046626
vn -0.256989 0.071659 0.963754
vn 0.503345 0.094939 0.858854
vn 0.991467 0.041873 0.123450
vn 0.821929 0.013423 -0.569432
vn 0.255819 0.022600 -0.966461
vn -0.387198 0.039715 -0.921141
vn -0.906683 0.047171 -0.419167
vn -0.857204 0.052651 0.512278
vn -0.375548 -0.103217 -0.921037
vn 0.253894 -0.117897 -0.960020
vn -0.915190 -0.106342 -0.388739
vn -0.845343 -0.094923 0.525723
vn -0.249887 -0.072820 0.965533
vn 0.500900 -0.111744 0.858262
vn 0.977017 -0.145339 0.155933
vn 0.818140 -0.130527 -0.560009
s 1
g Icicle_LOW Snow_Ice
usemtl initialShadingGroup
f 1/1/1 7/91/2 8/8/3 6/93/4
f 6/93/4 8/8/3 9/89/5 4/90/6
f 8/8/3 7/91/2 2/92/7 5/94/8
f 9/89/5 8/8/3 5/94/8 3/95/9
f 11/10/10 51/51/11 52/52/12 10/11/13
f 52/52/12 53/53/14 12/12/15 10/11/13
f 1/1/1 75/75/16 76/76/17 7/7/2
f 76/76/17 77/77/18 2/2/7 7/7/2
f 82/82/19 75/75/16 1/1/1 6/93/4
f 58/58/20 51/51/11 11/10/10 13/13/21
f 81/81/22 82/106/19 6/6/4 4/4/6
f 14/14/23 57/57/24 58/111/20 13/107/21
f 80/80/25 81/81/22 4/4/6 9/9/5
f 3/3/9 79/79/26 80/80/25 9/9/5
f 78/78/27 79/79/26 3/3/9 5/105/8
f 2/2/7 77/77/18 78/96/27 5/5/8
f 56/56/28 57/57/24 14/14/23 15/15/29
f 16/16/30 55/55/31 56/56/28 15/15/29
f 54/54/32 55/55/31 16/16/30 17/17/33
f 12/12/15 53/53/14 54/101/32 17/97/33
f 35/35/34 36/36/35 50/50/36 43/43/37
f 49/49/38 50/50/36 36/36/35 37/37/39
f 48/48/40 49/102/38 37/100/39 38/38/41
f 47/47/42 48/48/40 38/38/41 39/39/43
f 46/46/44 47/47/42 39/39/43 40/40/45
f 45/45/46 46/46/44 40/40/45 41/41/47
f 44/44/48 45/112/46 41/110/47 42/42/49
f 42/42/49 35/35/34 43/43/37 44/44/48
f 19/83/50 27/27/51 28/28/52 18/19/53
f 18/19/53 28/28/52 29/29/54 20/20/55
f 29/29/54 30/30/56 21/21/57 20/20/55
f 21/104/57 30/103/56 31/31/58 22/22/59
f 31/31/58 32/32/60 23/23/61 22/22/59
f 32/32/60 33/33/62 24/24/63 23/23/61
f 24/24/63 33/33/62 34/34/64 25/25/65
f 25/114/65 34/113/64 27/27/51 19/83/50
f 18/88/53 20/20/55 26/26/66 19/18/50
f 20/20/55 21/21/57 22/87/59 26/26/66
f 24/85/63 25/84/65 19/18/50 26/26/66
f 24/85/63 26/26/66 22/87/59 23/86/61
f 44/44/48 43/43/37 28/28/52 27/27/51
f 34/113/64 45/112/46 44/44/48 27/27/51
f 33/33/62 46/46/44 45/45/46 34/34/64
f 32/32/60 47/47/42 46/46/44 33/33/62
f 31/31/58 48/48/40 47/47/42 32/32/60
f 30/103/56 49/102/38 48/48/40 31/31/58
f 29/29/54 50/50/36 49/49/38 30/30/56
f 28/28/52 43/43/37 50/50/36 29/29/54
f 73/73/67 74/74/68 52/52/12 51/51/11
f 52/52/12 74/74/68 67/67/69 53/53/14
f 67/67/69 68/98/70 54/101/32 53/53/14
f 68/68/70 69/69/71 55/55/31 54/54/32
f 69/69/71 70/70/72 56/56/28 55/55/31
f 70/70/72 71/71/73 57/57/24 56/56/28
f 71/71/73 72/108/74 58/111/20 57/57/24
f 72/72/74 73/73/67 51/51/11 58/58/20
f 36/36/35 35/35/34 60/60/75 59/59/76
f 35/35/34 42/42/49 61/61/77 60/60/75
f 42/42/49 41/110/47 62/109/78 61/61/77
f 63/63/79 62/62/78 41/41/47 40/40/45
f 40/40/45 39/39/43 64/64/80 63/63/79
f 39/39/43 38/38/41 65/65/81 64/64/80
f 66/99/82 65/65/81 38/38/41 37/100/39
f 37/37/39 36/36/35 59/59/76 66/66/82
f 66/99/82 68/98/70 67/67/69 65/65/81
f 59/59/76 69/69/71 68/68/70 66/66/82
f 60/60/75 70/70/72 69/69/71 59/59/76
f 61/61/77 71/71/73 70/70/72 60/60/75
f 62/109/78 72/108/74 71/71/73 61/61/77
f 63/63/79 73/73/67 72/72/74 62/62/78
f 74/74/68 73/73/67 63/63/79 64/64/80
f 67/67/69 74/74/68 64/64/80 65/65/81
f 76/76/17 75/75/16 11/10/10 10/11/13
f 12/12/15 77/77/18 76/76/17 10/11/13
f 78/96/27 77/77/18 12/12/15 17/97/33
f 16/16/30 79/79/26 78/78/27 17/17/33
f 80/80/25 79/79/26 16/16/30 15/15/29
f 14/14/23 81/81/22 80/80/25 15/15/29
f 13/107/21 82/106/19 81/81/22 14/14/23
f 11/10/10 75/75/16 82/82/19 13/13/21
