# This file uses centimeters as units for non-parametric coordinates.

mtllib Snowball_Large.mtl
g default
v -0.581681 0.549141 -0.538147
v 0.533594 0.525225 -0.557536
v -0.554834 0.447773 0.608582
v 0.596200 0.461468 0.581749
v 0.515173 -0.631583 0.428425
v 0.429041 -0.566280 -0.604942
v -0.558074 -0.508998 -0.527315
v -0.521333 -0.585974 0.468273
v -0.631070 0.543208 0.420749
v 0.648610 0.549072 0.396922
v 0.567170 -0.682680 0.248734
v -0.599534 -0.626458 0.284124
v -0.630812 0.585022 -0.339451
v 0.594343 0.575986 -0.386343
v 0.502395 -0.630999 -0.445051
v -0.612417 -0.573080 -0.362918
v -0.424943 0.762926 -0.357156
v -0.402975 0.630977 -0.608461
v -0.418656 -0.569380 -0.599698
v -0.423267 -0.705620 -0.401147
v -0.387535 -0.762378 0.308217
v -0.348022 -0.660444 0.525489
v -0.372554 0.516621 0.681074
v -0.413465 0.694102 0.444595
v 0.379995 0.732458 -0.380022
v 0.358168 0.606394 -0.605941
v 0.247377 -0.600325 -0.666851
v 0.283540 -0.754882 -0.453920
v 0.319222 -0.824414 0.257521
v 0.334778 -0.702394 0.498985
v 0.420298 0.539714 0.673990
v 0.422995 0.704990 0.436250
v 0.604342 -0.491647 0.525765
v 0.382950 -0.512041 0.668476
v -0.372398 -0.476101 0.684639
v -0.587172 -0.433004 0.545210
v -0.741181 -0.427433 0.336311
v -0.752514 -0.366839 -0.368183
v -0.623073 -0.348811 -0.590897
v -0.430736 -0.370362 -0.735617
v 0.249021 -0.365714 -0.788510
v 0.506406 -0.391193 -0.663387
v 0.668444 -0.433638 -0.458065
v 0.739805 -0.501344 0.307469
v 0.660169 0.263641 0.636414
v 0.800456 0.320411 0.398536
v 0.733490 0.350585 -0.426456
v 0.586575 0.336207 -0.644798
v 0.357370 0.373682 -0.770281
v -0.415444 0.392823 -0.781485
v -0.649580 0.339897 -0.609456
v -0.799265 0.355378 -0.366567
v -0.754126 0.294915 0.415229
v -0.619545 0.255162 0.658962
v -0.393587 0.268913 0.823250
v 0.443251 0.278545 0.798129
v -0.421712 0.817433 -0.077443
v -0.675023 0.604880 -0.098961
v -0.853002 0.356485 -0.110479
v -0.816953 -0.385152 -0.122256
v -0.645939 -0.617883 -0.142406
v -0.401114 -0.800566 -0.160199
v 0.316976 -0.838846 -0.225301
v 0.578322 -0.685409 -0.220707
v 0.752808 -0.450820 -0.207584
v 0.818032 0.352677 -0.162725
v 0.658450 0.620158 -0.143200
v 0.397898 0.833858 -0.109148
v -0.667983 0.591944 0.160585
v -0.417807 0.778203 0.157284
v 0.419039 0.800537 0.161377
v 0.687064 0.609975 0.127441
v 0.852750 0.343978 0.109283
v 0.783030 -0.484475 0.031742
v 0.615139 -0.693796 -0.001918
v 0.326993 -0.867321 0.008421
v -0.406823 -0.815354 0.056019
v -0.636915 -0.632507 0.062840
v -0.802218 -0.409386 0.090089
v -0.832354 0.340557 0.156412
v 0.146632 0.592536 0.735367
v 0.134699 0.801756 0.481132
v 0.133633 0.916991 0.168018
v 0.127181 0.915801 -0.107048
v 0.133850 0.854177 -0.384000
v 0.124688 0.679965 -0.651902
v 0.108725 0.420948 -0.840703
v 0.032350 -0.380112 -0.818937
v 0.021069 -0.633542 -0.689390
v 0.032129 -0.794720 -0.443743
v 0.061482 -0.882286 -0.217202
v 0.080755 -0.918645 0.035768
v 0.087731 -0.852379 0.294832
v 0.100955 -0.729196 0.549798
v 0.132707 -0.522684 0.737520
v 0.160143 0.300301 0.894726
v -0.147163 0.685478 -0.649522
v -0.152645 0.861066 -0.390296
v -0.155620 0.918645 -0.098355
v -0.168442 0.905108 0.164777
v -0.156664 0.794725 0.462517
v -0.134791 0.587082 0.731044
v -0.122354 0.293726 0.894035
v -0.129265 -0.498919 0.740841
v -0.129885 -0.710114 0.560744
v -0.148478 -0.850464 0.318463
v -0.172371 -0.889262 0.049100
v -0.184476 -0.869857 -0.191035
v -0.198841 -0.780553 -0.432929
v -0.209898 -0.620306 -0.666548
v -0.209320 -0.395739 -0.816749
v -0.171187 0.424553 -0.833830
v -0.817064 0.043068 0.399068
v -0.903495 0.075557 0.143669
v -0.915501 0.094615 -0.124511
v -0.849308 0.093352 -0.377406
v -0.688445 0.083859 -0.636612
v -0.452903 0.118710 -0.837101
v -0.193567 0.145341 -0.922871
v 0.090903 0.127436 -0.934025
v 0.355245 0.114490 -0.857631
v 0.611513 0.088472 -0.700943
v 0.789082 0.073249 -0.446622
v 0.890959 0.073802 -0.184284
v 0.915501 0.058348 0.094895
v 0.855907 0.027335 0.384723
v 0.712345 -0.015621 0.650781
v 0.458076 -0.012257 0.832351
v 0.166357 -0.002041 0.922831
v -0.122256 -0.003915 0.934025
v -0.397357 -0.004303 0.843104
v -0.653803 -0.006971 0.674282
v 0.829605 -0.244613 0.352998
v 0.909482 -0.237428 0.065446
v 0.862351 -0.216365 -0.206846
v 0.769485 -0.190701 -0.469634
v 0.572421 -0.168239 -0.693810
v 0.306738 -0.151093 -0.854304
v 0.057685 -0.140733 -0.888925
v -0.198412 -0.139240 -0.911007
v -0.461011 -0.134395 -0.823348
v -0.679579 -0.126895 -0.631095
v -0.828793 -0.133913 -0.384043
v -0.906378 -0.149651 -0.128822
v -0.902173 -0.171339 0.118880
v -0.821709 -0.191773 0.382645
v -0.633775 -0.215515 0.623045
v -0.400094 -0.244669 0.798251
v -0.124760 -0.263743 0.879817
v 0.152314 -0.274917 0.869605
v 0.434247 -0.272445 0.780185
v 0.673687 -0.258885 0.596526
vt 0.619703 0.609186
vt 0.683742 0.178256
vt 0.809352 0.311839
vt 0.593587 0.604442
vt 0.657230 0.614414
vt 0.674609 0.142923
vt 0.719415 0.170845
vt 0.728774 0.210004
vt 0.842264 0.349160
vt 0.619435 0.574723
vt 0.628737 0.113905
vt 0.668160 0.107259
vt 0.710041 0.135726
vt 0.656974 0.570885
vt 0.753296 0.165335
vt 0.807547 0.238567
vt 0.843348 0.276753
vt 0.843989 0.312014
vt 0.693293 0.571813
vt 0.740728 0.602264
vt 0.662748 0.069018
vt 0.703972 0.100295
vt 0.745709 0.130570
vt 0.786391 0.158217
vt 0.797690 0.190047
vt 0.847337 0.242167
vt 0.731818 0.567759
vt 0.772864 0.589746
vt 0.807331 0.593934
vt 0.700896 0.062585
vt 0.739880 0.096099
vt 0.776813 0.125009
vt 0.818465 0.151647
vt 0.824726 0.177212
vt 0.769067 0.561375
vt 0.806512 0.558898
vt 0.850410 0.594128
vt 0.736346 0.058469
vt 0.773472 0.093620
vt 0.811581 0.120495
vt 0.844622 0.554744
vt 0.736651 0.022128
vt 0.772269 0.057569
vt 0.805608 0.092487
vt 0.878672 0.547535
vt 0.774188 0.024516
vt 0.805200 0.058786
vt 0.845389 0.086211
vt 0.847353 0.116000
vt 0.912458 0.537562
vt 0.943975 0.559032
vt 0.842134 0.054287
vt 0.971201 0.144611
vt 0.629787 0.292108
vt 0.974065 0.198606
vt 0.963723 0.172248
vt 0.977109 0.111331
vt 0.663470 0.294616
vt 0.625037 0.324061
vt 0.588504 0.320447
vt 0.943302 0.205184
vt 0.941205 0.173895
vt 0.941710 0.142381
vt 0.693903 0.258759
vt 0.691908 0.294011
vt 0.659117 0.325743
vt 0.938259 0.108178
vt 0.622969 0.353778
vt 0.987796 0.262416
vt 0.947589 0.237584
vt 0.938713 0.079856
vt 0.725822 0.262973
vt 0.725488 0.295416
vt 0.690976 0.326496
vt 0.656308 0.355602
vt 0.620579 0.388674
vt 0.583821 0.390323
vt 0.948528 0.270170
vt 0.937716 0.046075
vt 0.759016 0.294282
vt 0.753515 0.269472
vt 0.726203 0.327941
vt 0.690845 0.356833
vt 0.654607 0.388176
vt 0.591510 0.425909
vt 0.620021 0.425977
vt 0.947196 0.306515
vt 0.925007 0.431389
vt 0.854576 0.401717
vt 0.893284 0.436127
vt 0.725844 0.358263
vt 0.689214 0.389913
vt 0.651965 0.424896
vt 0.580184 0.458108
vt 0.616742 0.461649
vt 0.767698 0.358137
vt 0.859810 0.438568
vt 0.725323 0.391825
vt 0.686301 0.425488
vt 0.653163 0.464928
vt 0.784433 0.413914
vt 0.828551 0.443421
vt 0.721948 0.426150
vt 0.683260 0.462602
vt 0.753955 0.426598
vt 0.793592 0.449047
vt 0.721224 0.458286
vt 0.757993 0.455775
vt 0.878714 0.112865
vt 0.875906 0.081170
vt 0.907696 0.079341
vt 0.909345 0.109671
vt 0.872736 0.047772
vt 0.904006 0.045084
vt 0.911356 0.141589
vt 0.881757 0.142588
vt 0.849567 0.146818
vt 0.942098 0.495622
vt 0.902546 0.009820
vt 0.912167 0.175963
vt 0.882252 0.177738
vt 0.945538 0.530119
vt 0.851920 0.179481
vt 0.907391 0.503272
vt 0.899961 0.468752
vt 0.881197 0.211891
vt 0.912671 0.208456
vt 0.651108 0.499988
vt 0.682812 0.496609
vt 0.686257 0.533599
vt 0.652786 0.535279
vt 0.720584 0.493034
vt 0.725986 0.529258
vt 0.617761 0.538412
vt 0.614528 0.500432
vt 0.760268 0.489007
vt 0.764508 0.525059
vt 0.916204 0.353794
vt 0.877194 0.355049
vt 0.914762 0.312869
vt 0.878129 0.314719
vt 0.803326 0.520723
vt 0.799152 0.484820
vt 0.834639 0.479905
vt 0.839441 0.516375
vt 0.866358 0.474928
vt 0.873130 0.510085
vt 0.852465 0.212890
vt 0.879638 0.242541
vt 0.878158 0.276324
vt 0.912481 0.241460
vt 0.914081 0.276179
vt 0.886346 0.585095
vt 0.699886 0.023128
vt 0.765442 0.327069
vt 0.823006 0.404588
vt 0.983545 0.231703
vt 0.584120 0.351224
vt 0.765493 0.201737
vt 0.805355 0.275870
vt 0.976582 0.081005
vt 0.971308 0.048817
vt 0.663946 0.257264
vt 0.762207 0.396231
vt 0.985590 0.300240
vt 0.692466 0.212107
vt 0.660130 0.032004
vt 0.815395 0.205345
vt 0.596133 0.287971
vt 0.888380 0.402058
vt 0.920190 0.571544
vt 0.605942 0.264217
vt 0.631417 0.259934
vt 0.913712 0.406001
vt 0.698769 0.612563
vt 0.636339 0.152382
vt 0.649766 0.186272
vt 0.662536 0.209441
vt 0.627314 0.073860
vt 0.632446 0.044381
vt 0.934969 0.462646
vt 0.868318 0.011859
vt 0.833010 0.020641
vt 0.803177 0.032685
vt 0.935278 0.014107
vt 0.962204 0.021404
vt 0.575031 0.499510
vt 0.953173 0.344166
vt 0.577664 0.541224
vt 0.585991 0.577317
vt 0.980365 0.332517
vt 0.815905 0.340799
vn -0.644662 0.576238 -0.502355
vn -0.706531 0.658515 -0.259174
vn -0.468454 0.831106 -0.299688
vn -0.398997 0.677587 -0.617800
vn 0.721038 0.673947 -0.160935
vn 0.733873 0.672382 0.096608
vn 0.925315 0.373861 0.063402
vn 0.901719 0.386201 -0.194297
vn 0.154877 0.302108 0.940608
vn 0.135767 0.641987 0.754600
vn -0.161586 0.640190 0.751031
vn -0.137325 0.305860 0.942121
vn -0.611250 0.499646 0.613781
vn -0.704811 0.239079 0.667894
vn -0.411428 0.264906 0.872096
vn -0.388557 0.590775 0.707113
vn -0.901701 0.389269 0.188165
vn -0.725839 0.666278 0.170970
vn -0.730917 0.681236 -0.040967
vn -0.907195 0.416334 -0.060522
vn -0.718088 0.316638 -0.619750
vn -0.862471 0.373677 -0.341333
vn -0.425273 0.387576 -0.817880
vn 0.673404 0.646546 -0.358477
vn 0.840853 0.354721 -0.408826
vn 0.655478 0.333861 -0.677411
vn 0.580417 0.583224 -0.568301
vn 0.090463 -0.791418 0.604545
vn 0.114787 -0.574566 0.810369
vn -0.135004 -0.563200 0.815218
vn -0.139575 -0.768219 0.624787
vn 0.849398 -0.527745 -0.002872
vn 0.652174 -0.758026 -0.008091
vn 0.638108 -0.729057 -0.247576
vn 0.831429 -0.493335 -0.255630
vn 0.551929 -0.383515 -0.740467
vn 0.760436 -0.453100 -0.465229
vn 0.583684 -0.683655 -0.438098
vn 0.469653 -0.578743 -0.666695
vn 0.070466 -0.399138 -0.914179
vn 0.036400 -0.678174 -0.733999
vn -0.206157 -0.682833 -0.700884
vn -0.172336 -0.428458 -0.886974
vn -0.630919 -0.562441 -0.534417
vn -0.701263 -0.381579 -0.602186
vn -0.458959 -0.412599 -0.786841
vn -0.438088 -0.641930 -0.629289
vn -0.689107 -0.646317 -0.327729
vn -0.832027 -0.418853 -0.363721
vn -0.363558 -0.725076 0.584884
vn -0.390316 -0.521257 0.758910
vn -0.646916 -0.459085 0.608885
vn -0.568096 -0.646247 0.509540
vn 0.038788 -0.969262 -0.242955
vn 0.057131 -0.997350 0.045047
vn -0.190632 -0.979604 0.063522
vn -0.200622 -0.956155 -0.213352
vn -0.466832 -0.881710 0.068236
vn -0.704271 -0.706990 0.064549
vn -0.711777 -0.687971 -0.141663
vn -0.467252 -0.867094 -0.172696
vn -0.460528 -0.800652 -0.383238
vn -0.457023 0.784712 0.418756
vn -0.697314 0.612124 0.372904
vn 0.634257 0.513568 0.577898
vn 0.711510 0.249341 0.656950
vn 0.879576 0.326133 0.346385
vn 0.696344 0.634634 0.335178
vn 0.798860 -0.525831 0.292104
vn 0.632854 -0.508665 0.583742
vn 0.515933 -0.727385 0.452464
vn 0.592524 -0.772765 0.227486
vn -0.165324 -0.926375 0.338374
vn 0.077952 -0.940527 0.330656
vn -0.662906 -0.699403 0.267191
vn -0.427022 -0.850482 0.307137
vn -0.809225 -0.474063 0.347015
vn -0.861744 0.307597 0.403462
vn -0.508591 0.860114 -0.039244
vn -0.505890 0.842321 0.185935
vn -0.875379 -0.464182 -0.135079
vn -0.867335 -0.488124 0.097287
vn -0.184334 0.979666 -0.079222
vn -0.211418 0.955326 0.206532
vn 0.160535 0.966782 0.198899
vn 0.171951 0.979336 -0.106463
vn -0.124663 0.723676 -0.678788
vn -0.155606 0.914021 -0.374636
vn 0.185144 0.902447 -0.388987
vn 0.168769 0.711640 -0.681972
vn -0.130823 0.449238 -0.883782
vn 0.141375 0.444052 -0.884777
vn -0.210983 -0.870954 -0.443763
vn 0.025782 -0.884323 -0.466163
vn 0.142773 0.866417 0.478473
vn -0.200033 0.858155 0.472818
vn 0.474350 0.871703 -0.122991
vn 0.478676 0.862529 0.164054
vn 0.405096 0.659050 -0.633680
vn 0.452463 0.808840 -0.375573
vn 0.394742 0.391332 -0.831287
vn 0.270755 -0.373403 -0.887278
vn 0.244785 -0.630570 -0.736520
vn 0.282254 -0.840558 -0.462380
vn 0.365918 -0.930399 0.021485
vn 0.341428 -0.906538 -0.248226
vn 0.317679 -0.779510 0.539856
vn 0.340799 -0.898068 0.278083
vn 0.373533 -0.549696 0.747200
vn 0.405268 0.597830 0.691634
vn 0.431370 0.266160 0.862020
vn 0.442165 0.800273 0.405035
vn 0.902243 -0.258929 0.344838
vn 0.932726 0.027898 0.359505
vn 0.745873 -0.034782 0.665179
vn 0.710070 -0.304374 0.634947
vn 0.969684 0.096985 -0.224293
vn 0.995254 0.076849 0.059693
vn 0.971406 -0.234966 0.034076
vn 0.942745 -0.219373 -0.251213
vn 0.674669 0.066253 -0.735141
vn 0.881384 0.078108 -0.465899
vn 0.846510 -0.198894 -0.493824
vn 0.627530 -0.191618 -0.754645
vn 0.342521 -0.201208 -0.917712
vn 0.397388 0.084487 -0.913753
vn -0.148444 0.124796 -0.981015
vn 0.122844 0.104749 -0.986883
vn 0.097463 -0.201953 -0.974534
vn -0.146130 -0.193667 -0.970123
vn -0.754363 0.080356 -0.651521
vn -0.483739 0.107723 -0.868558
vn -0.486726 -0.177513 -0.855329
vn -0.748800 -0.172701 -0.639901
vn -0.915348 0.082594 -0.394101
vn -0.896873 -0.186490 -0.401050
vn -0.975108 0.114856 0.189663
vn -0.989484 0.107701 -0.096553
vn -0.971877 -0.192922 -0.135044
vn -0.969108 -0.198097 0.146927
vn -0.722550 -0.011498 0.691223
vn -0.899951 0.070135 0.430314
vn -0.881806 -0.220884 0.416687
vn -0.696187 -0.267146 0.666301
vn -0.432501 -0.036001 0.900915
vn -0.430045 -0.314646 0.846203
vn 0.172111 -0.035178 0.984449
vn -0.130439 -0.033934 0.990875
vn -0.131712 -0.336819 0.932311
vn 0.149672 -0.340231 0.928354
vn 0.451531 -0.044011 0.891170
vn 0.426468 -0.330472 0.841970
s 1
g Snowball_Large_LOW Snow_Ice
usemtl initialShadingGroup
f 1/85/1 13/86/2 17/95/3 18/94/4
f 67/176/5 72/11/6 73/12/7 66/6/8
f 96/142/9 81/137/10 102/136/11 103/143/12
f 3/105/13 54/101/14 55/106/15 23/108/16
f 80/92/17 69/99/18 58/93/19 59/84/20
f 1/85/1 51/77/21 52/76/22 13/86/2
f 50/87/23 51/165/21 1/191/1 18/188/4
f 14/177/24 47/2/25 48/166/26 2/178/27
f 94/118/28 95/124/29 104/125/30 105/181/31
f 74/39/32 75/44/33 64/40/34 65/32/35
f 42/25/36 43/24/37 15/33/38 6/34/39
f 88/126/40 89/121/41 110/120/42 111/127/43
f 7/56/44 39/55/45 40/61/46 19/62/47
f 16/173/48 38/54/49 39/169/45 7/172/44
f 22/88/50 35/90/51 36/170/52 8/174/53
f 91/109/54 92/110/55 107/111/56 108/112/57
f 77/71/58 78/161/59 61/57/60 62/67/61
f 19/62/47 20/63/62 16/53/48 7/56/44
f 23/108/16 24/107/63 9/103/64 3/105/13
f 4/180/65 45/167/66 46/21/67 10/179/68
f 44/43/69 33/46/70 5/184/71 11/47/72
f 106/114/73 93/113/74 94/182/28 105/119/31
f 8/186/53 12/162/75 21/79/76 22/185/50
f 36/80/52 37/73/77 12/72/75 8/81/53
f 9/103/64 53/98/78 54/164/14 3/105/13
f 57/100/79 58/93/19 69/99/18 70/104/80
f 60/58/81 61/163/60 78/64/59 79/65/82
f 99/128/83 100/129/84 83/130/85 84/131/86
f 97/187/87 98/135/88 85/134/89 86/189/90
f 112/140/91 97/138/87 86/139/90 87/141/92
f 109/115/93 110/120/42 89/121/41 90/116/94
f 82/133/95 101/132/96 102/136/11 81/137/10
f 67/5/5 68/14/97 71/19/98 72/175/6
f 26/190/99 25/10/100 14/1/24 2/4/27
f 48/3/26 49/18/101 26/9/99 2/192/27
f 41/148/102 42/168/36 6/34/39 27/123/103
f 15/33/38 28/117/104 27/123/103 6/34/39
f 64/40/34 75/44/33 76/48/105 63/49/106
f 5/184/71 30/183/107 29/52/108 11/47/72
f 33/171/70 34/50/109 30/122/107 5/51/71
f 31/35/110 56/36/111 45/29/66 4/28/65
f 4/28/65 10/20/68 32/27/112 31/35/110
f 133/38/113 126/30/114 127/154/115 152/42/116
f 124/13/117 125/22/118 134/31/119 135/23/120
f 122/8/121 123/7/122 136/15/123 137/159/124
f 138/26/125 121/17/126 122/160/121 137/16/124
f 119/152/127 120/150/128 139/149/129 140/151/130
f 117/69/131 118/78/132 141/70/133 142/157/134
f 116/68/135 117/158/131 142/60/134 143/59/136
f 114/83/137 115/75/138 144/66/139 145/74/140
f 132/96/141 113/91/142 146/82/143 147/155/144
f 131/102/145 132/156/141 147/89/144 148/97/146
f 129/145/147 130/144/148 149/146/149 150/147/150
f 127/37/115 128/41/151 151/45/152 152/153/116
f 85/134/89 98/135/88 99/128/83 84/131/86
f 58/93/19 57/100/79 17/95/3 13/86/2
f 13/86/2 52/76/22 59/84/20 58/93/19
f 144/66/139 115/75/138 116/68/135 143/59/136
f 61/163/60 60/58/81 38/54/49 16/173/48
f 16/53/48 20/63/62 62/67/61 61/57/60
f 91/109/54 108/112/57 109/115/93 90/116/94
f 64/40/34 63/49/106 28/117/104 15/33/38
f 65/32/35 64/40/34 15/33/38 43/24/37
f 136/15/123 123/7/122 124/13/117 135/23/120
f 67/176/5 66/6/8 47/2/25 14/177/24
f 25/10/100 68/14/97 67/5/5 14/1/24
f 70/104/80 69/99/18 9/103/64 24/107/63
f 83/130/85 100/129/84 101/132/96 82/133/95
f 72/175/6 71/19/98 32/27/112 10/20/68
f 10/179/68 46/21/67 73/12/7 72/11/6
f 134/31/119 125/22/118 126/30/114 133/38/113
f 75/44/33 74/39/32 44/43/69 11/47/72
f 11/47/72 29/52/108 76/48/105 75/44/33
f 107/111/56 92/110/55 93/113/74 106/114/73
f 78/161/59 77/71/58 21/79/76 12/162/75
f 79/65/82 78/64/59 12/72/75 37/73/77
f 113/91/142 114/83/137 145/74/140 146/82/143
f 69/99/18 80/92/17 53/98/78 9/103/64
f 31/35/110 32/27/112 82/133/95 81/137/10
f 83/130/85 82/133/95 32/27/112 71/19/98
f 68/14/97 84/131/86 83/130/85 71/19/98
f 85/134/89 84/131/86 68/14/97 25/10/100
f 86/189/90 85/134/89 25/10/100 26/190/99
f 49/18/101 87/141/92 86/139/90 26/9/99
f 139/149/129 120/150/128 121/17/126 138/26/125
f 89/121/41 88/126/40 41/148/102 27/123/103
f 27/123/103 28/117/104 90/116/94 89/121/41
f 28/117/104 63/49/106 91/109/54 90/116/94
f 76/48/105 92/110/55 91/109/54 63/49/106
f 93/113/74 92/110/55 76/48/105 29/52/108
f 29/52/108 30/183/107 94/182/28 93/113/74
f 95/124/29 94/118/28 30/122/107 34/50/109
f 128/41/151 129/145/147 150/147/150 151/45/152
f 81/137/10 96/142/9 56/36/111 31/35/110
f 18/94/4 17/95/3 98/135/88 97/187/87
f 99/128/83 98/135/88 17/95/3 57/100/79
f 100/129/84 99/128/83 57/100/79 70/104/80
f 101/132/96 100/129/84 70/104/80 24/107/63
f 102/136/11 101/132/96 24/107/63 23/108/16
f 23/108/16 55/106/15 103/143/12 102/136/11
f 149/146/149 130/144/148 131/102/145 148/97/146
f 105/181/31 104/125/30 35/90/51 22/88/50
f 22/185/50 21/79/76 106/114/73 105/119/31
f 107/111/56 106/114/73 21/79/76 77/71/58
f 108/112/57 107/111/56 77/71/58 62/67/61
f 109/115/93 108/112/57 62/67/61 20/63/62
f 110/120/42 109/115/93 20/63/62 19/62/47
f 19/62/47 40/61/46 111/127/43 110/120/42
f 141/70/133 118/78/132 119/152/127 140/151/130
f 97/138/87 112/140/91 50/87/23 18/188/4
f 80/92/17 114/83/137 113/91/142 53/98/78
f 115/75/138 114/83/137 80/92/17 59/84/20
f 116/68/135 115/75/138 59/84/20 52/76/22
f 52/76/22 51/77/21 117/158/131 116/68/135
f 118/78/132 117/69/131 51/165/21 50/87/23
f 119/152/127 118/78/132 50/87/23 112/140/91
f 120/150/128 119/152/127 112/140/91 87/141/92
f 121/17/126 120/150/128 87/141/92 49/18/101
f 122/160/121 121/17/126 49/18/101 48/3/26
f 48/166/26 47/2/25 123/7/122 122/8/121
f 47/2/25 66/6/8 124/13/117 123/7/122
f 66/6/8 73/12/7 125/22/118 124/13/117
f 126/30/114 125/22/118 73/12/7 46/21/67
f 46/21/67 45/167/66 127/154/115 126/30/114
f 45/29/66 56/36/111 128/41/151 127/37/115
f 56/36/111 96/142/9 129/145/147 128/41/151
f 130/144/148 129/145/147 96/142/9 103/143/12
f 131/102/145 130/144/148 103/143/12 55/106/15
f 55/106/15 54/101/14 132/156/141 131/102/145
f 54/164/14 53/98/78 113/91/142 132/96/141
f 134/31/119 133/38/113 44/43/69 74/39/32
f 135/23/120 134/31/119 74/39/32 65/32/35
f 136/15/123 135/23/120 65/32/35 43/24/37
f 137/159/124 136/15/123 43/24/37 42/25/36
f 138/26/125 137/16/124 42/168/36 41/148/102
f 139/149/129 138/26/125 41/148/102 88/126/40
f 140/151/130 139/149/129 88/126/40 111/127/43
f 141/70/133 140/151/130 111/127/43 40/61/46
f 40/61/46 39/55/45 142/157/134 141/70/133
f 39/169/45 38/54/49 143/59/136 142/60/134
f 60/58/81 144/66/139 143/59/136 38/54/49
f 145/74/140 144/66/139 60/58/81 79/65/82
f 146/82/143 145/74/140 79/65/82 37/73/77
f 147/155/144 146/82/143 37/73/77 36/80/52
f 36/170/52 35/90/51 148/97/146 147/89/144
f 35/90/51 104/125/30 149/146/149 148/97/146
f 104/125/30 95/124/29 150/147/150 149/146/149
f 151/45/152 150/147/150 95/124/29 34/50/109
f 152/153/116 151/45/152 34/50/109 33/171/70
f 133/38/113 152/42/116 33/46/70 44/43/69
