# This file uses centimeters as units for non-parametric coordinates.

mtllib Snowball_Small.mtl
g default
v 0.184370 0.165734 0.224857
v 0.224577 0.165776 -0.192913
v -0.226140 0.147440 0.191850
v -0.189838 0.144265 -0.228402
v -0.189059 -0.211433 0.159134
v -0.152290 -0.206302 -0.205513
v 0.204887 -0.197251 -0.159503
v 0.168746 -0.205296 0.198971
v 0.248744 0.200172 -0.125557
v 0.219757 -0.216757 -0.107546
v -0.178235 -0.227678 -0.156081
v -0.222938 0.171220 -0.173086
v 0.209391 0.189568 0.168760
v 0.197753 -0.227570 0.148303
v -0.204092 -0.229259 0.103895
v -0.252280 0.174412 0.128877
v -0.214226 -0.164943 0.181819
v -0.251589 -0.172137 0.109418
v -0.224720 -0.167314 -0.168655
v -0.170422 -0.156807 -0.227887
v 0.232577 -0.150309 -0.183170
v 0.271199 -0.157656 -0.112566
v 0.247075 -0.167290 0.165249
v 0.190146 -0.156191 0.225923
v -0.292720 0.095788 0.129806
v -0.241724 0.088239 0.204823
v 0.205357 0.109256 0.245265
v 0.256682 0.118481 0.176524
v 0.293123 0.116785 -0.122530
v 0.244463 0.106519 -0.202037
v -0.202708 0.090005 -0.248652
v -0.260987 0.096167 -0.183842
v 0.143029 0.248482 0.180564
v 0.124951 0.188609 0.253018
v 0.127306 0.110701 0.294480
v 0.122252 -0.165296 0.261266
v 0.116771 -0.223762 0.210683
v 0.132509 -0.269659 0.148133
v 0.154010 -0.252270 -0.118444
v 0.154282 -0.213277 -0.182504
v 0.171846 -0.159878 -0.236393
v 0.178414 0.113045 -0.258677
v 0.172933 0.189284 -0.224633
v 0.172889 0.256689 -0.143573
v -0.171268 0.175061 0.223400
v -0.185428 0.232978 0.152631
v -0.158959 0.233306 -0.178098
v -0.136264 0.177607 -0.251801
v -0.130163 0.104043 -0.297436
v -0.101502 -0.161708 -0.265577
v -0.096220 -0.224694 -0.219292
v -0.110801 -0.268603 -0.155331
v -0.140996 -0.275313 0.117272
v -0.137860 -0.230956 0.186625
v -0.149113 -0.169845 0.235151
v -0.175518 0.100671 0.263944
v -0.079620 0.272668 0.176051
v -0.079623 0.202011 0.258539
v -0.078507 0.113079 0.302940
v -0.062255 -0.169186 0.259428
v -0.056308 -0.239499 0.207374
v -0.051489 -0.295244 0.130823
v -0.018917 -0.284958 -0.152121
v -0.011496 -0.233450 -0.220634
v -0.008865 -0.173036 -0.288439
v -0.024774 0.121759 -0.317115
v -0.033025 0.203926 -0.263211
v -0.048991 0.281463 -0.177054
v 0.028642 0.208049 0.267295
v 0.032850 0.272246 0.181589
v 0.064095 0.281838 -0.158824
v 0.073688 0.212027 -0.256807
v 0.083390 0.127076 -0.306643
v 0.088211 -0.166576 -0.272735
v 0.077267 -0.227213 -0.205274
v 0.072357 -0.274965 -0.135895
v 0.045270 -0.296904 0.142786
v 0.033716 -0.243085 0.221885
v 0.028690 -0.169698 0.273977
v 0.024643 0.118199 0.314889
v 0.258702 0.221363 -0.030760
v 0.170014 0.287864 -0.039388
v 0.053537 0.311901 -0.049005
v -0.066354 0.316975 -0.061630
v -0.185091 0.273222 -0.075059
v -0.260869 0.194054 -0.078355
v -0.304188 0.105939 -0.083551
v -0.256000 -0.171900 -0.080862
v -0.201097 -0.239248 -0.073758
v -0.125296 -0.286811 -0.067619
v -0.036230 -0.321931 -0.063132
v 0.068470 -0.312436 -0.047234
v 0.156596 -0.283429 -0.033952
v 0.231940 -0.236100 -0.024195
v 0.287993 -0.166143 -0.019604
v 0.311022 0.125262 -0.024767
v -0.265165 0.190734 0.031676
v -0.195982 0.273746 0.044185
v -0.079160 0.325424 0.066886
v 0.043536 0.322045 0.078265
v 0.165128 0.286631 0.084918
v 0.240590 0.216029 0.083696
v 0.305604 0.125089 0.085468
v 0.277532 -0.168081 0.074972
v 0.221185 -0.236880 0.065892
v 0.150654 -0.288565 0.056463
v 0.060748 -0.321275 0.047791
v -0.044531 -0.325424 0.036999
v -0.137712 -0.296017 0.023657
v -0.216572 -0.245397 0.015802
v -0.269846 -0.176678 0.012815
v -0.310566 0.103177 0.023907
v -0.243219 0.002380 0.207201
v -0.300486 0.001284 0.127428
v -0.329523 0.001169 0.018783
v -0.318513 0.001106 -0.085015
v -0.272789 0.002735 -0.188426
v -0.206676 0.001213 -0.262541
v -0.124565 0.006143 -0.314531
v -0.016236 0.013716 -0.336944
v 0.088891 0.014784 -0.321390
v 0.186433 0.019624 -0.275539
v 0.257513 0.020041 -0.208868
v 0.311296 0.022374 -0.121005
v 0.327307 0.024867 -0.020874
v 0.329523 0.023661 0.083708
v 0.283867 0.020933 0.185503
v 0.219462 0.019103 0.264110
v 0.130502 0.016999 0.308368
v 0.026481 0.016885 0.336944
v -0.078328 0.012867 0.323612
v -0.173882 0.006587 0.275579
v -0.190175 -0.083327 -0.249169
v -0.261295 -0.091050 -0.183919
v -0.291430 -0.091902 -0.086250
v -0.304643 -0.092857 0.014278
v -0.289846 -0.091413 0.124424
v -0.236697 -0.086131 0.203954
v -0.166775 -0.085729 0.269119
v -0.072432 -0.088481 0.305094
v 0.027487 -0.088080 0.317344
v 0.132303 -0.080641 0.304725
v 0.215200 -0.079806 0.254712
v 0.276099 -0.076570 0.179305
v 0.321421 -0.079887 0.083000
v 0.326529 -0.075381 -0.020827
v 0.304614 -0.074628 -0.120671
v 0.254362 -0.072612 -0.202758
v 0.184114 -0.076103 -0.268530
v 0.090689 -0.078106 -0.303104
v -0.008485 -0.083596 -0.323575
v -0.111942 -0.083401 -0.295661
vt 0.854968 0.698243
vt 0.845384 0.613079
vt 0.939970 0.699800
vt 0.939570 0.603600
vt 0.720185 0.947542
vt 0.927593 0.833819
vt 0.837230 0.811211
vt 0.752046 0.858853
vt 0.800014 0.965394
vt 0.825380 0.891048
vt 0.899642 0.911757
vt 0.767039 0.627257
vt 0.773528 0.702364
vt 0.862688 0.779488
vt 0.936500 0.777489
vt 0.878201 0.991367
vt 0.847562 0.627804
vt 0.765562 0.638395
vt 0.900249 0.925183
vt 0.820398 0.903036
vt 0.944192 0.616717
vt 0.742272 0.869855
vt 0.853196 0.684479
vt 0.769640 0.690774
vt 0.885300 0.980270
vt 0.803262 0.953431
vt 0.946319 0.683442
vt 0.720089 0.932195
vt 0.786453 0.966154
vt 0.939365 0.766811
vt 0.789153 0.950294
vt 0.807135 0.896769
vt 0.814868 0.882758
vt 0.824791 0.877647
vt 0.908008 0.900616
vt 0.777568 0.622304
vt 0.779833 0.636973
vt 0.784070 0.689600
vt 0.784931 0.704939
vt 0.858378 0.768666
vt 0.736556 0.936308
vt 0.731791 0.953427
vt 0.942844 0.713913
vt 0.852455 0.712594
vt 0.840947 0.702118
vt 0.838051 0.686408
vt 0.830827 0.629495
vt 0.830891 0.612849
vt 0.926991 0.846955
vt 0.832475 0.822751
vt 0.764335 0.860693
vt 0.757579 0.876510
vt 0.868835 0.683208
vt 0.869257 0.699532
vt 0.868828 0.715076
vt 0.872543 0.767419
vt 0.873463 0.781515
vt 0.866366 0.990989
vt 0.870669 0.975994
vt 0.885578 0.922838
vt 0.888256 0.908166
vt 0.893661 0.893983
vt 0.910704 0.841319
vt 0.859117 0.606607
vt 0.916619 0.825904
vt 0.864450 0.624107
vt 0.926728 0.699402
vt 0.929671 0.682639
vt 0.927854 0.618209
vt 0.926368 0.601124
vt 0.851240 0.808762
vt 0.849529 0.825654
vt 0.840310 0.878920
vt 0.838279 0.893848
vt 0.834381 0.908107
vt 0.817598 0.959250
vt 0.924983 0.780056
vt 0.811791 0.974173
vt 0.924181 0.765970
vt 0.926583 0.714752
vt 0.908957 0.681989
vt 0.907788 0.699522
vt 0.907341 0.715610
vt 0.907374 0.766604
vt 0.908491 0.782291
vt 0.828813 0.982827
vt 0.834894 0.965622
vt 0.851683 0.913379
vt 0.855204 0.898522
vt 0.858760 0.882764
vt 0.870614 0.828141
vt 0.904470 0.598355
vt 0.874133 0.809515
vt 0.905904 0.618917
vt 0.888020 0.699221
vt 0.888886 0.682034
vt 0.885037 0.621254
vt 0.881498 0.599594
vt 0.896511 0.815113
vt 0.891270 0.833061
vt 0.877225 0.887575
vt 0.872614 0.903558
vt 0.869100 0.918645
vt 0.853315 0.971376
vt 0.890378 0.783156
vt 0.847928 0.988813
vt 0.890124 0.766981
vt 0.888283 0.715585
vt 0.849655 0.645508
vt 0.867517 0.642906
vt 0.887666 0.641190
vt 0.908488 0.639954
vt 0.930644 0.638850
vt 0.949557 0.637912
vt 0.730672 0.888968
vt 0.748288 0.895913
vt 0.799308 0.913638
vt 0.814133 0.919227
vt 0.829354 0.924823
vt 0.846016 0.930141
vt 0.864939 0.936196
vt 0.882107 0.940682
vt 0.764780 0.655661
vt 0.898931 0.944427
vt 0.780789 0.654514
vt 0.831895 0.647586
vt 0.950557 0.661594
vt 0.723132 0.911382
vt 0.931523 0.660963
vt 0.909554 0.661882
vt 0.888926 0.663070
vt 0.868286 0.664868
vt 0.851847 0.666556
vt 0.833843 0.667711
vt 0.782152 0.672193
vt 0.766475 0.673893
vt 0.893295 0.963489
vt 0.877440 0.958253
vt 0.859984 0.953600
vt 0.840984 0.948176
vt 0.823982 0.941860
vt 0.808191 0.936215
vt 0.793465 0.931204
vt 0.741576 0.915931
vt 0.748911 0.959825
vt 0.943911 0.732147
vt 0.754142 0.941917
vt 0.760292 0.921444
vt 0.766955 0.902893
vt 0.774871 0.882900
vt 0.827532 0.841304
vt 0.782937 0.865435
vt 0.845642 0.844640
vt 0.866311 0.848258
vt 0.885815 0.853725
vt 0.905621 0.859368
vt 0.812204 0.612917
vt 0.923532 0.865302
vt 0.813482 0.631751
vt 0.814966 0.650050
vt 0.816596 0.668749
vt 0.819511 0.688571
vt 0.850953 0.732168
vt 0.821973 0.706608
vt 0.869242 0.732487
vt 0.888458 0.732634
vt 0.907318 0.732676
vt 0.926406 0.732215
vt 0.800031 0.873454
vt 0.825133 0.860120
vt 0.791889 0.889858
vt 0.784269 0.907917
vt 0.777651 0.926459
vt 0.771713 0.947004
vt 0.767524 0.964950
vt 0.942436 0.750297
vt 0.925405 0.749154
vt 0.907381 0.750317
vt 0.889181 0.750848
vt 0.870263 0.750201
vt 0.801809 0.706847
vt 0.853322 0.752352
vt 0.801551 0.689695
vt 0.799177 0.670548
vt 0.797870 0.651995
vt 0.795938 0.633874
vt 0.916718 0.884314
vt 0.793427 0.616996
vt 0.899922 0.877310
vt 0.881824 0.870925
vt 0.862991 0.866026
vt 0.842655 0.862453
vn 0.427084 0.879501 0.209945
vn 0.728273 0.643142 0.236615
vn 0.755032 0.654250 -0.043413
vn 0.419849 0.902434 -0.096647
vn 0.445411 0.600825 -0.663791
vn 0.412509 0.823397 -0.389685
vn 0.735555 0.593884 -0.325977
vn 0.673072 0.463779 -0.576093
vn -0.818822 0.567954 0.083418
vn -0.558241 0.821028 0.119503
vn -0.516681 0.827967 -0.217972
vn -0.791606 0.573051 -0.212068
vn -0.698510 0.531609 -0.479036
vn -0.439155 0.745638 -0.501165
vn -0.361739 0.587212 -0.724104
vn -0.607728 0.457478 -0.649138
vn -0.953041 0.294862 0.069062
vn -0.925900 0.299442 -0.230315
vn -0.748326 0.168708 0.641518
vn -0.524875 0.243427 0.815628
vn -0.488860 0.543774 0.682148
vn -0.684217 0.436939 0.583894
vn 0.321262 0.598133 0.734185
vn 0.336908 0.304473 0.890948
vn 0.622349 0.315423 0.716373
vn 0.585419 0.510512 0.629811
vn 0.891953 0.382610 0.240895
vn 0.933326 0.355356 -0.051221
vn 0.896918 0.291076 -0.332885
vn 0.747392 0.241220 -0.619045
vn 0.517794 0.275535 -0.809920
vn -0.357230 0.293200 -0.886803
vn -0.643458 0.229417 -0.730295
vn -0.819578 0.262561 -0.509267
vn -0.672594 -0.739932 0.010833
vn -0.859283 -0.511385 0.010842
vn -0.829506 -0.513388 -0.219892
vn -0.638310 -0.739846 -0.212577
vn -0.473303 -0.606685 -0.638685
vn -0.587302 -0.711418 -0.385955
vn -0.736914 -0.501924 -0.452803
vn -0.534320 -0.439593 -0.721983
vn -0.313201 -0.478245 -0.820480
vn -0.233177 -0.709265 -0.665261
vn 0.558900 -0.680009 -0.474571
vn 0.381015 -0.748539 -0.542695
vn 0.467783 -0.507616 -0.723537
vn 0.693548 -0.453907 -0.559428
vn 0.817661 -0.479870 -0.318050
vn 0.623330 -0.714521 -0.317678
vn 0.553109 -0.475681 0.683958
vn 0.279430 -0.520693 0.806720
vn 0.278346 -0.684803 0.673475
vn 0.460947 -0.630406 0.624593
vn -0.353344 -0.703542 0.616585
vn -0.409288 -0.505214 0.759764
vn -0.676493 -0.466525 0.569835
vn -0.601964 -0.634966 0.484209
vn 0.400096 -0.830476 -0.387599
vn -0.426090 -0.903703 0.042058
vn -0.394859 -0.895356 -0.205971
vn -0.308646 -0.852677 -0.421521
vn 0.669382 -0.737367 -0.090657
vn 0.856675 -0.511911 -0.063683
vn 0.835633 -0.514579 0.192160
vn 0.659922 -0.735494 0.153461
vn 0.435755 -0.885776 -0.159747
vn 0.429032 -0.894735 0.124020
vn 0.664889 0.578220 0.472846
vn 0.370671 0.775941 0.510411
vn 0.782889 0.368454 0.501325
vn 0.591856 -0.710637 0.380397
vn 0.746914 -0.492306 0.446939
vn 0.362982 -0.837779 0.407885
vn -0.660267 -0.700574 0.270636
vn -0.402334 -0.849406 0.341520
vn -0.816448 -0.498480 0.291429
vn -0.781261 0.529737 0.330167
vn -0.904524 0.238933 0.353197
vn -0.533879 0.723311 0.437943
vn -0.997818 -0.035008 0.055984
vn -0.970355 -0.033475 -0.239357
vn -0.921329 -0.313735 -0.229617
vn -0.949219 -0.313241 0.029374
vn -0.758600 -0.024585 0.651092
vn -0.926576 -0.030292 0.374886
vn -0.895837 -0.275595 0.348602
vn -0.737119 -0.236227 0.633129
vn -0.544178 -0.007390 0.838938
vn -0.503254 -0.264058 0.822805
vn 0.625550 -0.232972 0.744588
vn 0.640175 0.067710 0.765240
vn 0.342407 0.046521 0.938399
vn 0.320199 -0.254020 0.912659
vn 0.832327 -0.227256 0.505555
vn 0.848180 0.074966 0.524377
vn 0.994202 0.073521 -0.078465
vn 0.971176 0.079189 0.224826
vn 0.947639 -0.232599 0.218813
vn 0.973731 -0.214190 -0.077274
vn 0.763663 -0.194971 -0.615471
vn 0.773322 0.045953 -0.632345
vn 0.936031 0.056373 -0.347374
vn 0.915513 -0.201959 -0.347920
vn 0.542492 0.039278 -0.839142
vn 0.524977 -0.216574 -0.823101
vn -0.583660 -0.285724 -0.760068
vn -0.635697 -0.041560 -0.770820
vn -0.360379 -0.025402 -0.932460
vn -0.348902 -0.282847 -0.893457
vn -0.850366 -0.025088 -0.525593
vn -0.810173 -0.297144 -0.505297
vn -0.199904 0.966074 0.163522
vn 0.122873 0.975714 0.181339
vn 0.142006 0.979059 -0.145871
vn -0.158355 0.968908 -0.190109
vn 0.054853 0.643082 0.763831
vn 0.080307 0.848510 0.523050
vn -0.226263 0.829536 0.510564
vn -0.240012 0.617085 0.749400
vn 0.030481 -0.717868 0.695512
vn 0.011813 -0.535067 0.844727
vn -0.194569 -0.530746 0.824895
vn -0.176217 -0.718713 0.672606
vn -0.158521 -0.902176 0.401184
vn 0.092464 -0.902107 0.421489
vn -0.084028 -0.973131 -0.214371
vn 0.214401 -0.955950 -0.200481
vn 0.164636 -0.980128 0.110655
vn -0.132430 -0.987027 0.090773
vn 0.022282 -0.766074 -0.642366
vn 0.233489 -0.772138 -0.591004
vn 0.235674 -0.866104 -0.440819
vn 0.000752 -0.886350 -0.463016
vn -0.036215 0.008851 -0.999305
vn 0.279588 0.022736 -0.959851
vn 0.281554 -0.236661 -0.929903
vn -0.021399 -0.262779 -0.964619
vn -0.102394 0.660205 -0.744074
vn 0.189092 0.671303 -0.716657
vn 0.248389 0.330116 -0.910674
vn -0.067570 0.338721 -0.938458
vn 0.156128 0.889183 -0.430091
vn -0.128401 0.867249 -0.481032
vn -0.011652 -0.538130 -0.842782
vn 0.262347 -0.535689 -0.802628
vn 0.045295 0.024461 0.998674
vn -0.266530 0.007431 0.963798
vn -0.234567 -0.308291 0.921919
vn 0.026866 -0.303820 0.952351
vn -0.262736 0.312292 0.912931
vn 0.044385 0.330407 0.942794
s 1
g Snowball_Small_LOW Snow_Ice
usemtl initialShadingGroup
f 101/132/1 102/133/2 81/109/3 82/110/4
f 43/64/5 44/66/6 9/17/7 2/2/8
f 97/127/9 98/129/10 85/113/11 86/114/12
f 12/21/13 47/69/14 48/70/15 4/4/16
f 112/144/17 97/128/9 86/115/12 87/116/18
f 26/43/19 56/80/20 45/67/21 3/3/22
f 34/54/23 35/55/24 27/44/25 1/1/26
f 81/109/3 102/133/2 103/134/27 96/126/28
f 9/17/7 29/47/29 30/48/30 2/2/8
f 42/63/31 43/65/5 2/6/8 30/49/30
f 48/71/15 49/72/32 31/50/33 4/7/16
f 31/51/33 32/52/34 12/22/13 4/8/16
f 110/142/35 111/143/36 88/117/37 89/118/38
f 6/10/39 11/20/40 19/32/41 20/33/42
f 20/34/42 50/73/43 51/74/44 6/10/39
f 7/11/45 40/61/46 41/62/47 21/35/48
f 21/36/48 22/37/49 10/18/50 7/12/45
f 24/40/51 36/56/52 37/57/53 8/14/54
f 54/77/55 55/79/56 17/30/57 5/15/58
f 7/11/45 10/19/50 39/60/59 40/61/46
f 109/141/60 110/142/35 89/118/38 90/119/61
f 51/74/44 52/75/62 11/20/40 6/10/39
f 94/123/63 95/125/64 104/135/65 105/136/66
f 93/122/67 94/124/63 105/137/66 106/138/68
f 13/23/69 33/53/70 34/54/23 1/1/26
f 27/45/25 28/46/71 13/23/69 1/1/26
f 8/13/54 14/24/72 23/38/73 24/39/51
f 37/58/53 38/59/74 14/25/72 8/16/54
f 5/9/58 15/26/75 53/76/76 54/78/55
f 17/29/57 18/31/77 15/26/75 5/9/58
f 3/5/22 16/28/78 25/41/79 26/42/19
f 3/3/22 45/67/21 46/68/80 16/27/78
f 115/148/81 116/149/82 135/172/83 136/173/84
f 113/145/85 114/147/86 137/174/87 138/175/88
f 132/168/89 113/146/85 138/176/88 139/177/90
f 143/182/91 128/163/92 129/165/93 142/180/94
f 144/183/95 127/162/96 128/164/92 143/181/91
f 125/160/97 126/161/98 145/184/99 146/185/100
f 148/188/101 123/157/102 124/159/103 147/186/104
f 122/156/105 123/158/102 148/187/101 149/189/106
f 133/170/107 118/151/108 119/153/109 152/192/110
f 117/150/111 118/152/108 133/169/107 134/171/112
f 99/130/113 100/131/114 83/111/115 84/112/116
f 69/95/117 70/96/118 57/81/119 58/82/120
f 78/105/121 79/107/122 60/84/123 61/85/124
f 62/87/125 77/104/126 78/106/121 61/86/124
f 91/120/127 92/121/128 107/139/129 108/140/130
f 64/89/131 75/102/132 76/103/133 63/88/134
f 120/154/135 121/155/136 150/190/137 151/191/138
f 67/93/139 72/99/140 73/100/141 66/91/142
f 71/97/143 72/98/140 67/92/139 68/94/144
f 64/89/131 65/90/145 74/101/146 75/102/132
f 130/166/147 131/167/148 140/178/149 141/179/150
f 69/95/117 58/82/120 59/83/151 80/108/152
f 85/113/11 98/129/10 99/130/113 84/112/116
f 46/68/80 45/67/21 58/82/120 57/81/119
f 45/67/21 56/80/20 59/83/151 58/82/120
f 140/178/149 131/167/148 132/168/89 139/177/90
f 61/85/124 60/84/123 55/79/56 54/77/55
f 54/78/55 53/76/76 62/87/125 61/86/124
f 91/120/127 108/140/130 109/141/60 90/119/61
f 64/89/131 63/88/134 52/75/62 51/74/44
f 51/74/44 50/73/43 65/90/145 64/89/131
f 152/192/110 119/153/109 120/154/135 151/191/138
f 67/93/139 66/91/142 49/72/32 48/71/15
f 48/70/15 47/69/14 68/94/144 67/92/139
f 34/54/23 33/53/70 70/96/118 69/95/117
f 83/111/115 100/131/114 101/132/1 82/110/4
f 72/98/140 71/97/143 44/66/6 43/64/5
f 73/100/141 72/99/140 43/65/5 42/63/31
f 150/190/137 121/155/136 122/156/105 149/189/106
f 41/62/47 40/61/46 75/102/132 74/101/146
f 40/61/46 39/60/59 76/103/133 75/102/132
f 107/139/129 92/121/128 93/122/67 106/138/68
f 78/106/121 77/104/126 38/59/74 37/58/53
f 37/57/53 36/56/52 79/107/122 78/105/121
f 142/180/94 129/165/93 130/166/147 141/179/150
f 69/95/117 80/108/152 35/55/24 34/54/23
f 9/17/7 44/66/6 82/110/4 81/109/3
f 83/111/115 82/110/4 44/66/6 71/97/143
f 84/112/116 83/111/115 71/97/143 68/94/144
f 85/113/11 84/112/116 68/94/144 47/69/14
f 86/114/12 85/113/11 47/69/14 12/21/13
f 12/22/13 32/52/34 87/116/18 86/115/12
f 135/172/83 116/149/82 117/150/111 134/171/112
f 89/118/38 88/117/37 19/32/41 11/20/40
f 52/75/62 90/119/61 89/118/38 11/20/40
f 63/88/134 91/120/127 90/119/61 52/75/62
f 63/88/134 76/103/133 92/121/128 91/120/127
f 93/122/67 92/121/128 76/103/133 39/60/59
f 94/124/63 93/122/67 39/60/59 10/19/50
f 95/125/64 94/123/63 10/18/50 22/37/49
f 147/186/104 124/159/103 125/160/97 146/185/100
f 81/109/3 96/126/28 29/47/29 9/17/7
f 16/27/78 46/68/80 98/129/10 97/127/9
f 99/130/113 98/129/10 46/68/80 57/81/119
f 70/96/118 100/131/114 99/130/113 57/81/119
f 33/53/70 101/132/1 100/131/114 70/96/118
f 102/133/2 101/132/1 33/53/70 13/23/69
f 13/23/69 28/46/71 103/134/27 102/133/2
f 145/184/99 126/161/98 127/162/96 144/183/95
f 105/136/66 104/135/65 23/38/73 14/24/72
f 14/25/72 38/59/74 106/138/68 105/137/66
f 107/139/129 106/138/68 38/59/74 77/104/126
f 108/140/130 107/139/129 77/104/126 62/87/125
f 109/141/60 108/140/130 62/87/125 53/76/76
f 110/142/35 109/141/60 53/76/76 15/26/75
f 111/143/36 110/142/35 15/26/75 18/31/77
f 114/147/86 115/148/81 136/173/84 137/174/87
f 97/128/9 112/144/17 25/41/79 16/28/78
f 26/42/19 25/41/79 114/147/86 113/145/85
f 115/148/81 114/147/86 25/41/79 112/144/17
f 116/149/82 115/148/81 112/144/17 87/116/18
f 117/150/111 116/149/82 87/116/18 32/52/34
f 118/152/108 117/150/111 32/52/34 31/51/33
f 49/72/32 119/153/109 118/151/108 31/50/33
f 66/91/142 120/154/135 119/153/109 49/72/32
f 66/91/142 73/100/141 121/155/136 120/154/135
f 122/156/105 121/155/136 73/100/141 42/63/31
f 123/158/102 122/156/105 42/63/31 30/49/30
f 30/48/30 29/47/29 124/159/103 123/157/102
f 29/47/29 96/126/28 125/160/97 124/159/103
f 96/126/28 103/134/27 126/161/98 125/160/97
f 127/162/96 126/161/98 103/134/27 28/46/71
f 128/164/92 127/162/96 28/46/71 27/45/25
f 35/55/24 129/165/93 128/163/92 27/44/25
f 80/108/152 130/166/147 129/165/93 35/55/24
f 80/108/152 59/83/151 131/167/148 130/166/147
f 132/168/89 131/167/148 59/83/151 56/80/20
f 113/146/85 132/168/89 56/80/20 26/43/19
f 20/33/42 19/32/41 134/171/112 133/169/107
f 135/172/83 134/171/112 19/32/41 88/117/37
f 88/117/37 111/143/36 136/173/84 135/172/83
f 137/174/87 136/173/84 111/143/36 18/31/77
f 138/175/88 137/174/87 18/31/77 17/29/57
f 17/30/57 55/79/56 139/177/90 138/176/88
f 140/178/149 139/177/90 55/79/56 60/84/123
f 60/84/123 79/107/122 141/179/150 140/178/149
f 36/56/52 142/180/94 141/179/150 79/107/122
f 143/182/91 142/180/94 36/56/52 24/40/51
f 24/39/51 23/38/73 144/183/95 143/181/91
f 145/184/99 144/183/95 23/38/73 104/135/65
f 104/135/65 95/125/64 146/185/100 145/184/99
f 147/186/104 146/185/100 95/125/64 22/37/49
f 148/188/101 147/186/104 22/37/49 21/36/48
f 21/35/48 41/62/47 149/189/106 148/187/101
f 150/190/137 149/189/106 41/62/47 74/101/146
f 74/101/146 65/90/145 151/191/138 150/190/137
f 152/192/110 151/191/138 65/90/145 50/73/43
f 133/170/107 152/192/110 50/73/43 20/34/42
