# This file uses centimeters as units for non-parametric coordinates.

mtllib Snowman.mtl
g default
v -0.116297 1.448889 0.429926
v -0.205392 1.458101 0.378734
v -0.305987 1.080996 0.436591
v -0.168084 1.061876 0.516194
v -0.264308 0.946257 0.376169
v -0.151019 0.930901 0.430272
v -0.441170 1.077433 0.255165
v -0.390081 0.957421 0.212422
v -0.490132 1.098376 0.098442
v -0.429313 0.967416 0.106887
v -0.336555 1.487611 0.213051
v -0.389635 1.476306 0.091798
v -0.228850 1.484314 0.395197
v -0.357927 1.503840 0.247701
v -0.342074 1.094386 0.450391
v -0.463926 1.090372 0.296869
v 0.120119 1.453640 0.414648
v 0.146964 1.065247 0.523782
v 0.152279 0.936459 0.447063
v 0.214240 1.472822 0.362479
v 0.300662 1.081391 0.433211
v 0.272025 0.944109 0.369962
v 0.313745 1.510253 0.249167
v 0.434142 1.107317 0.293753
v 0.369598 0.954444 0.241805
v 0.353857 1.512997 0.146351
v 0.489283 1.132215 0.146699
v 0.413881 0.969675 0.099664
v 0.128407 1.438120 -0.344746
v -0.099801 1.461193 -0.369046
v -0.124844 1.128877 -0.438593
v 0.161443 1.135246 -0.427005
v 0.138207 0.997088 -0.344676
v -0.106614 0.995034 -0.368718
v -0.202959 1.469817 -0.301661
v -0.260010 1.130233 -0.388159
v -0.230738 0.989763 -0.327726
v 0.255564 1.433068 -0.284247
v 0.301178 1.136396 -0.347334
v 0.252657 0.988452 -0.280227
v 0.403244 1.139655 -0.239917
v 0.327295 0.984592 -0.203492
v 0.325057 1.445844 -0.192719
v -0.300848 1.469013 -0.222027
v -0.361468 1.121054 -0.309675
v -0.330647 0.981744 -0.246948
v 0.468312 1.146129 -0.118139
v 0.377655 0.981223 -0.118120
v 0.362938 1.485331 -0.072708
v -0.369519 1.467383 -0.118734
v -0.447241 1.111493 -0.208593
v -0.395374 0.978146 -0.142684
v -0.216898 0.727528 0.588253
v 0.209371 0.721264 0.580615
v 0.583617 0.753608 0.149957
v 0.545060 0.758947 -0.210074
v 0.198719 0.760412 -0.529746
v -0.157141 0.762257 -0.566917
v -0.552407 0.766011 -0.250151
v -0.607904 0.749275 0.097560
v -0.470156 0.766731 -0.381180
v -0.337299 0.766134 -0.501129
v 0.453583 0.752155 -0.349341
v 0.356551 0.753968 -0.451990
v 0.391673 0.736208 0.480208
v 0.517221 0.739826 0.341339
v -0.545330 0.749033 0.271364
v -0.390115 0.739069 0.486895
v 0.374990 0.045905 -0.288582
v 0.282682 0.042993 -0.363381
v 0.165492 0.043807 -0.441652
v -0.166385 0.044347 -0.478432
v -0.406302 0.054974 -0.327618
v -0.480775 0.056692 -0.210596
v -0.304535 0.049198 -0.412585
v -0.516385 0.060529 0.108009
v -0.465182 0.055070 0.249204
v -0.328263 0.050504 0.411438
v -0.197634 0.045728 0.473200
v 0.165739 0.042791 0.470344
v 0.290103 0.038338 0.395629
v 0.406766 0.040531 0.286544
v 0.476547 0.040636 0.141102
v 0.460484 0.048182 -0.161096
v 0.478360 0.258154 -0.352432
v 0.373006 0.265544 -0.467728
v 0.208158 0.258164 -0.568274
v -0.180911 0.264275 -0.621280
v -0.365427 0.263170 -0.522632
v -0.516160 0.267411 -0.381133
v -0.593505 0.273746 -0.257011
v -0.634853 0.269825 0.102280
v -0.562853 0.269425 0.292461
v -0.397333 0.257279 0.482333
v -0.225434 0.246155 0.583956
v 0.191204 0.246766 0.599213
v 0.396448 0.244622 0.512421
v 0.534261 0.250687 0.354579
v 0.614220 0.247116 0.164794
v 0.585065 0.247358 -0.199909
v -0.131043 1.471579 0.444900
v 0.116101 1.480020 0.441128
v 0.092914 1.627739 0.396003
v -0.122394 1.611498 0.382678
v -0.241935 1.632140 0.338761
v -0.329507 1.654492 0.241819
v 0.183808 1.650759 0.365207
v 0.218941 1.493634 0.385253
v 0.316885 1.527946 0.262624
v 0.284783 1.671197 0.266040
v 0.361911 1.536550 0.161157
v 0.338717 1.675491 0.156717
v 0.392594 1.507420 -0.082884
v 0.362188 1.663162 -0.081465
v 0.346248 1.474506 -0.202166
v 0.328313 1.639359 -0.179784
v 0.259755 1.461054 -0.307109
v 0.244506 1.622786 -0.285320
v 0.128678 1.462970 -0.367690
v 0.133198 1.618124 -0.349106
v -0.078761 1.643627 -0.376352
v -0.103359 1.485784 -0.395858
v -0.410466 1.509756 0.106849
v -0.375095 1.659148 0.107395
v -0.395376 1.492890 -0.133389
v -0.355294 1.652098 -0.128192
v -0.324770 1.495654 -0.258451
v -0.300908 1.653187 -0.240872
v -0.203808 1.658393 -0.335358
v -0.222108 1.493304 -0.349681
v 0.082784 1.651556 0.333639
v -0.085955 1.630720 0.310004
v -0.198304 1.648209 0.266159
v -0.280648 1.670777 0.211945
v -0.322871 1.676853 0.095397
v -0.325221 1.675726 -0.104095
v -0.278472 1.682861 -0.211224
v -0.180939 1.692355 -0.294617
v -0.068906 1.679999 -0.340001
v 0.118831 1.653701 -0.317447
v 0.198740 1.655217 -0.269320
v 0.290413 1.669266 -0.175750
v 0.337291 1.687185 -0.081030
v 0.315638 1.700848 0.144532
v 0.257268 1.691413 0.246497
v 0.160240 1.672004 0.323243
v 0.097720 1.840974 0.386848
v -0.088998 1.844182 0.373207
v 0.203132 1.831517 0.343736
v 0.181402 2.026216 0.351249
v 0.092317 2.000450 0.358009
v 0.077277 2.122690 0.267278
v -0.076754 2.135041 0.261173
v -0.082088 2.003065 0.345118
v 0.133181 2.123213 0.243100
v 0.287167 1.846303 0.265819
v 0.336376 1.847352 0.164731
v 0.351761 1.853145 -0.075945
v 0.307948 1.842725 -0.182448
v 0.241372 1.831406 -0.268194
v 0.149749 1.823133 -0.338967
v -0.068113 1.845082 -0.367061
v -0.173633 1.860174 -0.333442
v -0.281347 1.857088 -0.259196
v -0.339964 1.855533 -0.135364
v -0.353035 1.853308 0.103435
v -0.299547 1.840282 0.241166
v -0.212809 1.827271 0.313911
v -0.166531 2.034152 0.339822
v -0.147528 2.131938 0.228192
v 0.251093 2.027131 0.244993
v 0.302290 2.034185 0.151980
v 0.311416 2.039421 -0.067227
v 0.276200 2.033082 -0.173691
v 0.225677 2.015100 -0.241551
v 0.143854 2.007144 -0.303051
v -0.064810 2.025060 -0.318615
v -0.160891 2.029436 -0.281381
v -0.241925 2.026121 -0.228861
v -0.297483 2.028277 -0.110107
v -0.307691 2.028095 0.105326
v -0.262604 2.018223 0.227903
v -0.200121 2.129700 0.173961
v -0.221834 2.137568 0.096307
v -0.214737 2.141815 -0.074877
v -0.187721 2.128461 -0.158535
v -0.133116 2.127292 -0.206374
v -0.043943 2.125089 -0.242771
v 0.105050 2.124900 -0.229629
v 0.159871 2.129118 -0.188059
v 0.207998 2.135210 -0.132770
v 0.233188 2.140411 -0.057627
v 0.182062 2.127335 0.209836
v 0.220417 2.137710 0.143045
v -0.059278 2.201206 -0.112047
v 0.088213 2.204499 -0.101977
v 0.071812 2.203501 0.141971
v -0.068077 2.201840 0.140157
v 0.138674 2.198388 -0.063335
v 0.131720 2.194723 0.117879
v -0.139921 2.187506 0.119141
v -0.134963 2.185752 -0.088100
v -0.024672 0.042680 0.497558
v -0.004012 0.245358 0.632704
v 0.016196 0.719405 0.630627
v 0.010637 0.930317 0.458817
v -0.000699 1.054934 0.536716
v -0.000382 1.444517 0.430489
v -0.000492 1.467676 0.454623
v -0.010636 1.612077 0.390736
v -0.006050 1.631250 0.326343
v -0.000391 1.824303 0.393115
v 0.003881 2.028723 0.355518
v 0.003921 2.136187 0.272169
v 0.005228 2.207847 0.144450
v 0.013516 2.206364 -0.115088
v 0.031926 2.128808 -0.245848
v 0.040006 2.022417 -0.334051
v 0.041784 1.835351 -0.371486
v 0.024247 1.667283 -0.335540
v 0.024559 1.637593 -0.374607
v 0.008733 1.476333 -0.388989
v 0.002484 1.445678 -0.368158
v 0.025589 1.134915 -0.457304
v 0.006285 0.996556 -0.374027
v 0.019482 0.768723 -0.565605
v 0.025091 0.262985 -0.645084
v 0.004818 0.038071 -0.491652
v 0.496018 0.049270 -0.014950
v 0.623909 0.243782 -0.037290
v 0.583740 0.762133 -0.048250
v 0.407938 0.973881 -0.003827
v 0.491634 1.140286 0.010579
v 0.367672 1.507270 0.030427
v 0.404721 1.532173 0.030782
v 0.367335 1.680081 0.023773
v 0.337695 1.702473 0.019298
v 0.359931 1.852747 0.030824
v 0.317983 2.037396 0.036746
v 0.244140 2.141897 0.048962
v 0.148205 2.202879 0.037544
v -0.518244 0.056827 -0.068249
v -0.638687 0.277285 -0.076285
v -0.586283 0.758337 -0.073477
v -0.421810 0.973310 -0.047645
v -0.485373 1.103298 -0.065128
v -0.384671 1.471586 -0.005362
v -0.414336 1.499631 -0.005267
v -0.378432 1.657889 -0.003068
v -0.331096 1.676077 -0.006129
v -0.359568 1.852456 -0.017665
v -0.312421 2.026800 -0.004914
v -0.231469 2.139632 0.016109
v -0.148547 2.199806 0.019614
v 0.076841 2.225169 0.025764
v 0.005154 2.228250 0.019888
v -0.066927 2.219697 0.018974
v 0.105553 1.922251 0.379835
v 0.189690 1.920260 0.343883
v 0.278224 1.927596 0.261978
v 0.329260 1.930711 0.161880
v 0.346220 1.936567 0.030531
v 0.339650 1.935777 -0.072962
v 0.300949 1.926993 -0.182859
v 0.237718 1.912586 -0.259872
v 0.151395 1.905169 -0.330133
v 0.042236 1.918385 -0.362813
v -0.068830 1.926336 -0.355616
v -0.180174 1.941520 -0.316349
v -0.273243 1.933871 -0.253812
v -0.328746 1.933071 -0.126294
v -0.348959 1.931338 -0.012602
v -0.340202 1.931540 0.105238
v -0.290279 1.920558 0.237646
v -0.200161 1.907286 0.309244
v -0.098526 1.917203 0.357833
v 0.063160 1.964662 0.378328
v 0.003412 1.989251 0.373158
v 0.076186 1.923426 0.386173
v 0.061640 1.878741 0.393880
v 0.002776 1.853914 0.394013
v -0.047493 1.877590 0.382195
v -0.065792 1.919083 0.369842
v -0.047996 1.967607 0.374946
v -0.007595 2.027135 0.489231
v 0.040994 2.017833 0.495291
v -0.053262 2.011410 0.482200
v -0.008238 2.029164 0.609371
v 0.037182 2.010182 0.616469
v -0.053503 2.004793 0.621159
v 0.002031 1.985231 0.785716
v 0.015474 1.975077 0.784506
v -0.015224 1.981542 0.780984
v 0.073932 1.969342 0.496066
v 0.060225 1.913441 0.496504
v 0.051401 1.969343 0.618027
v 0.035360 1.938372 0.619557
v -0.004566 1.890449 0.505756
v -0.007763 1.923735 0.625167
v -0.064463 1.918541 0.493253
v -0.048143 1.938448 0.616004
v -0.078872 1.958759 0.482263
v -0.069366 1.970931 0.612155
v 0.019541 1.964018 0.777883
v 0.014540 1.951763 0.766643
v 0.000079 1.945712 0.762606
v -0.017131 1.954129 0.763763
v -0.023362 1.968346 0.771227
v -0.000452 1.965993 0.784807
v -0.269485 1.269434 0.396491
v -0.152379 1.261500 0.497947
v 0.002240 1.260513 0.528072
v 0.143744 1.270420 0.500283
v 0.275741 1.286904 0.422394
v 0.391590 1.314222 0.282624
v 0.445331 1.330805 0.153970
v 0.465548 1.334095 0.018599
v 0.451905 1.326928 -0.103266
v 0.391159 1.317688 -0.236643
v 0.292180 1.303014 -0.331670
v 0.158197 1.295977 -0.404213
v 0.018254 1.302320 -0.434002
v -0.117107 1.299746 -0.423744
v -0.243097 1.304110 -0.365049
v -0.351279 1.300323 -0.287748
v -0.435247 1.304274 -0.178251
v -0.470664 1.294623 -0.037407
v -0.464614 1.303525 0.096461
v -0.420208 1.301258 0.253882
v -0.441114 1.308390 0.289888
v -0.321384 1.292205 0.444380
v -0.289413 1.180293 0.413405
v -0.164549 1.168337 0.517777
v 0.000946 1.163965 0.549692
v 0.149112 1.174250 0.522992
v 0.300455 1.192938 0.444038
v 0.422637 1.218629 0.293895
v 0.477684 1.240081 0.169436
v 0.488351 1.243839 0.014106
v 0.473458 1.242844 -0.114150
v 0.408195 1.232875 -0.246267
v 0.301896 1.224076 -0.346176
v 0.164641 1.222269 -0.429057
v 0.022342 1.224272 -0.453948
v -0.124075 1.219958 -0.443965
v -0.255030 1.223236 -0.382561
v -0.360928 1.216445 -0.303341
v -0.449549 1.215986 -0.197519
v -0.487075 1.204977 -0.051423
v -0.493642 1.208036 0.099099
v -0.432856 1.196137 0.251509
v -0.464804 1.207124 0.296415
v -0.342122 1.201976 0.455203
v -0.239427 1.363280 0.385804
v -0.134633 1.354350 0.464581
v 0.001204 1.355128 0.487286
v 0.132692 1.362056 0.459931
v 0.246438 1.379738 0.394351
v 0.353253 1.411305 0.266187
v 0.403590 1.422602 0.151425
v 0.424958 1.423517 0.024133
v 0.412109 1.407986 -0.089348
v 0.360462 1.382740 -0.216530
v 0.277685 1.370040 -0.312590
v 0.144760 1.368089 -0.378855
v 0.010668 1.374600 -0.404032
v -0.107872 1.378251 -0.393685
v -0.227414 1.389827 -0.340940
v -0.331692 1.387541 -0.260607
v -0.406681 1.387352 -0.150519
v -0.436517 1.386047 -0.021510
v -0.426521 1.388513 0.093994
v -0.379867 1.393714 0.232600
v -0.397267 1.405248 0.260595
v -0.274947 1.391291 0.418767
v -0.130737 1.498817 0.440776
v -0.002274 1.496017 0.454206
v 0.114293 1.508845 0.441918
v 0.221595 1.524647 0.384888
v 0.315008 1.553584 0.265271
v 0.365341 1.560985 0.164215
v 0.408552 1.557094 0.031349
v 0.397451 1.533946 -0.091777
v 0.351604 1.504196 -0.202295
v 0.259170 1.490209 -0.306237
v 0.130569 1.490636 -0.368206
v 0.012035 1.505274 -0.390025
v -0.099283 1.513679 -0.401533
v -0.225786 1.521732 -0.357701
v -0.324111 1.533297 -0.262743
v -0.396764 1.522582 -0.135825
v -0.416500 1.528588 -0.004848
v -0.406565 1.535973 0.107274
v -0.365909 1.528764 0.255471
v -0.241823 1.507940 0.401729
v -0.121521 1.552785 0.410204
v -0.006542 1.551832 0.418133
v 0.102842 1.565115 0.410821
v 0.196561 1.585115 0.367012
v 0.293898 1.611848 0.261813
v 0.344726 1.615980 0.157530
v 0.380786 1.616224 0.026449
v 0.371670 1.595992 -0.083377
v 0.329640 1.569560 -0.185336
v 0.244018 1.555862 -0.286253
v 0.129525 1.554388 -0.352731
v 0.018093 1.571723 -0.378387
v -0.088467 1.578178 -0.378829
v -0.209175 1.587784 -0.339705
v -0.305380 1.592482 -0.246054
v -0.373258 1.572806 -0.121229
v -0.392812 1.592921 -0.003450
v -0.393310 1.597514 0.107678
v -0.343827 1.590667 0.246223
v -0.239716 1.566993 0.366332
v -0.187504 0.828557 0.521367
v 0.012476 0.824903 0.558689
v 0.186426 0.827464 0.528051
v 0.343045 0.841789 0.439040
v 0.460262 0.853582 0.300626
v 0.520401 0.867817 0.129289
v 0.508490 0.866598 -0.028850
v 0.474616 0.869340 -0.169266
v 0.407561 0.873567 -0.290977
v 0.317352 0.875782 -0.383330
v 0.173975 0.881194 -0.456299
v 0.016259 0.883404 -0.487765
v -0.135675 0.886569 -0.492411
v -0.294304 0.879377 -0.428360
v -0.411630 0.875160 -0.324787
v -0.486508 0.875954 -0.207787
v -0.517827 0.864335 -0.062410
v -0.533038 0.857806 0.102639
v -0.484798 0.856161 0.250573
v -0.337945 0.844419 0.444170
v -0.234725 0.584033 0.620214
v 0.010067 0.576368 0.671009
v 0.219016 0.583403 0.631750
v 0.406662 0.586859 0.506783
v 0.547425 0.593991 0.362115
v 0.628966 0.604378 0.163029
v 0.635736 0.617795 -0.049181
v 0.593693 0.609615 -0.225559
v 0.490337 0.607324 -0.378161
v 0.380124 0.607329 -0.483537
v 0.215865 0.611914 -0.575186
v 0.026630 0.621542 -0.621695
v -0.170824 0.624615 -0.608964
v -0.368152 0.616070 -0.538327
v -0.512670 0.620775 -0.404257
v -0.603133 0.623024 -0.270516
v -0.641134 0.645943 -0.088406
v -0.650464 0.603332 0.105215
v -0.589639 0.613861 0.298117
v -0.417533 0.596933 0.514719
v 0.390761 0.430180 -0.491022
v 0.502823 0.426067 -0.381472
v 0.609807 0.421315 -0.219408
v 0.654307 0.423183 -0.047693
v 0.637843 0.418779 0.178971
v 0.552266 0.415546 0.364638
v 0.410787 0.410727 0.522656
v 0.208131 0.407790 0.626864
v 0.002738 0.402977 0.668724
v -0.243476 0.400042 0.619823
v -0.421855 0.417544 0.518621
v -0.601425 0.432376 0.308633
v -0.651834 0.430610 0.105057
v -0.657917 0.455126 -0.084624
v -0.611841 0.441498 -0.268233
v -0.535729 0.433482 -0.407343
v -0.377960 0.433606 -0.546070
v -0.191120 0.441495 -0.635590
v 0.030150 0.437396 -0.656543
v 0.234182 0.436882 -0.579911
v 0.335235 0.127175 -0.424991
v 0.427253 0.126345 -0.332970
v 0.531966 0.122971 -0.186763
v 0.558953 0.124584 -0.020773
v 0.549472 0.121495 0.152068
v 0.482545 0.111344 0.330720
v 0.347195 0.112185 0.461201
v 0.184622 0.113319 0.552066
v -0.016053 0.111915 0.580703
v -0.218885 0.118645 0.545486
v -0.373099 0.133089 0.459246
v -0.528454 0.140772 0.279678
v -0.588160 0.139867 0.108883
v -0.590021 0.130822 -0.077184
v -0.545197 0.126549 -0.246909
v -0.475846 0.134533 -0.367754
v -0.340440 0.131493 -0.477384
v -0.184592 0.118599 -0.553590
v 0.014992 0.111993 -0.580380
v 0.191849 0.125024 -0.510716
v -0.291741 1.005833 0.414138
v -0.161141 0.989197 0.478725
v 0.005663 0.984436 0.502094
v 0.151889 0.993572 0.491944
v 0.292371 1.006555 0.408241
v 0.412664 1.021435 0.271923
v 0.463501 1.041490 0.123800
v 0.461582 1.047725 0.001208
v 0.433524 1.055004 -0.123273
v 0.371687 1.053992 -0.227569
v 0.283889 1.056035 -0.320200
v 0.153971 1.056414 -0.395570
v 0.015340 1.057339 -0.424773
v -0.116252 1.057024 -0.408614
v -0.251404 1.050761 -0.368659
v -0.351348 1.045254 -0.282858
v -0.430583 1.029731 -0.183485
v -0.459164 1.024439 -0.056123
v -0.465964 1.027738 0.103190
v -0.420397 1.012192 0.235978
v 0.090255 1.723137 0.363905
v -0.008319 1.697462 0.363500
v -0.095630 1.695728 0.352113
v -0.211028 1.708743 0.309417
v -0.296734 1.735469 0.228691
v -0.347377 1.743003 0.100998
v -0.356307 1.742960 -0.011230
v -0.343705 1.744899 -0.119921
v -0.285000 1.749558 -0.234552
v -0.183533 1.755546 -0.317632
v -0.070640 1.743273 -0.360585
v 0.032545 1.730133 -0.363230
v 0.133796 1.718288 -0.332110
v 0.220760 1.723290 -0.274431
v 0.304872 1.736648 -0.182889
v 0.352182 1.751482 -0.082088
v 0.361316 1.760185 0.024602
v 0.331371 1.757016 0.155419
v 0.273616 1.750853 0.257447
v 0.181191 1.732454 0.338795
v -0.013231 -0.005881 0.303926
v 0.134155 -0.008894 0.294021
v -0.164863 -0.001938 0.276370
v 0.249299 -0.015673 0.152998
v 0.260839 -0.017321 -0.009461
v 0.233035 -0.010394 -0.162920
v -0.332673 -0.005704 -0.038946
v -0.304361 -0.000716 0.142346
v -0.270879 -0.010226 -0.182400
v 0.131378 -0.009675 -0.250004
v -0.014174 -0.013603 -0.291837
v -0.159560 -0.013416 -0.266837
v -0.021811 -0.019886 -0.167200
v -0.023867 -0.020148 -0.021651
v -0.022737 -0.017138 0.153838
vt 0.315036 0.269484
vt 0.336169 0.272598
vt 0.193254 0.382394
vt 0.311140 0.280012
vt 0.318984 0.259572
vt 0.336414 0.262315
vt 0.371126 0.285793
vt 0.369543 0.273350
vt 0.174444 0.381514
vt 0.306305 0.295914
vt 0.287664 0.273647
vt 0.291552 0.261541
vt 0.264144 0.146815
vt 0.289727 0.146953
vt 0.367950 0.261678
vt 0.236972 0.172433
vt 0.191548 0.389743
vt 0.173940 0.389881
vt 0.325105 0.318483
vt 0.301660 0.310318
vt 0.285400 0.289080
vt 0.271910 0.257361
vt 0.266488 0.269169
vt 0.236554 0.149675
vt 0.261642 0.125843
vt 0.289071 0.126939
vt 0.330020 0.146536
vt 0.217013 0.174683
vt 0.190889 0.420123
vt 0.174596 0.420008
vt 0.158231 0.391131
vt 0.141070 0.386426
vt 0.296943 0.323755
vt 0.282993 0.302873
vt 0.264028 0.284698
vt 0.252348 0.254102
vt 0.247714 0.265675
vt 0.211822 0.151292
vt 0.236031 0.129415
vt 0.261761 0.101476
vt 0.290376 0.104095
vt 0.329165 0.126815
vt 0.191880 0.177837
vt 0.160757 0.420571
vt 0.141412 0.391774
vt 0.310302 0.347462
vt 0.120733 0.366907
vt 0.280068 0.317528
vt 0.262012 0.298265
vt 0.244784 0.279998
vt 0.232321 0.250849
vt 0.229286 0.263003
vt 0.188874 0.152617
vt 0.209163 0.130121
vt 0.234550 0.109214
vt 0.261772 0.073830
vt 0.291826 0.075208
vt 0.330066 0.103329
vt 0.165902 0.181357
vt 0.143908 0.422311
vt 0.124474 0.393269
vt 0.115440 0.370587
vt 0.277075 0.332572
vt 0.260273 0.312037
vt 0.242373 0.292921
vt 0.225957 0.276952
vt 0.186356 0.131414
vt 0.208253 0.105765
vt 0.234571 0.078387
vt 0.261881 0.048214
vt 0.293255 0.048293
vt 0.331617 0.074718
vt 0.127843 0.425098
vt 0.120333 0.394331
vt 0.111821 0.372117
vt 0.111070 0.354129
vt 0.258789 0.326187
vt 0.240046 0.307070
vt 0.222962 0.289421
vt 0.163340 0.155863
vt 0.160043 0.133615
vt 0.185573 0.107146
vt 0.207333 0.077135
vt 0.234416 0.049717
vt 0.264174 0.026355
vt 0.294648 0.027174
vt 0.332592 0.048337
vt 0.123864 0.423876
vt 0.110185 0.396349
vt 0.102880 0.375426
vt 0.106949 0.355863
vt 0.104239 0.335957
vt 0.237958 0.321425
vt 0.219873 0.302809
vt 0.157709 0.109251
vt 0.184653 0.077389
vt 0.205931 0.050460
vt 0.232351 0.024933
vt 0.219804 0.512561
vt 0.202403 0.529373
vt 0.334778 0.028039
vt 0.114116 0.420281
vt 0.100214 0.398446
vt 0.093784 0.378847
vt 0.097200 0.359729
vt 0.100053 0.337648
vt 0.094324 0.317178
vt 0.217049 0.316706
vt 0.154783 0.080787
vt 0.183418 0.051069
vt 0.202507 0.026258
vt 0.245803 0.501108
vt 0.187286 0.559943
vt 0.104076 0.416948
vt 0.087728 0.363534
vt 0.092508 0.342118
vt 0.088963 0.319395
vt 0.151804 0.053699
vt 0.178958 0.029438
vt 0.269261 0.497457
vt 0.080481 0.345645
vt 0.080399 0.324118
vt 0.081136 0.301181
vt 0.085109 0.299145
vt 0.149467 0.031833
vt 0.174450 0.012236
vt 0.072134 0.328551
vt 0.071503 0.305796
vt 0.075466 0.350391
vt 0.341004 0.406562
vt 0.062057 0.310758
vt 0.358626 0.422357
vt 0.336020 0.417797
vt 0.377338 0.427828
vt 0.382358 0.416426
vt 0.351145 0.440173
vt 0.329230 0.435408
vt 0.312487 0.415543
vt 0.315277 0.404025
vt 0.370046 0.445560
vt 0.396026 0.435046
vt 0.400999 0.423829
vt 0.348391 0.453680
vt 0.326856 0.448351
vt 0.308082 0.433636
vt 0.388639 0.452791
vt 0.366209 0.459034
vt 0.423583 0.433399
vt 0.418733 0.444222
vt 0.344354 0.470973
vt 0.323630 0.465290
vt 0.309009 0.447933
vt 0.411653 0.460924
vt 0.383995 0.465902
vt 0.361228 0.476356
vt 0.339043 0.495590
vt 0.167885 0.636071
vt 0.307702 0.464552
vt 0.439086 0.450627
vt 0.429021 0.468006
vt 0.405619 0.473477
vt 0.378385 0.482833
vt 0.137004 0.649364
vt 0.423021 0.480649
vt 0.398600 0.489795
vt 0.121990 0.649990
vt 0.152076 0.627613
vt 0.133769 0.632358
vt 0.418211 0.502386
vt 0.107064 0.647931
vt 0.116472 0.633822
vt 0.095947 0.639594
vt 0.519957 0.320371
vt 0.501384 0.323185
vt 0.498845 0.307152
vt 0.518659 0.304686
vt 0.078286 0.524184
vt 0.087979 0.510422
vt 0.474885 0.323606
vt 0.472003 0.308083
vt 0.496597 0.291263
vt 0.517518 0.289604
vt 0.538668 0.301144
vt 0.539402 0.316654
vt 0.067573 0.541778
vt 0.075158 0.521938
vt 0.084781 0.508033
vt 0.103860 0.492133
vt 0.469434 0.292830
vt 0.494648 0.276041
vt 0.514229 0.275343
vt 0.537686 0.286251
vt 0.556090 0.296558
vt 0.065879 0.560170
vt 0.060690 0.557668
vt 0.064456 0.539639
vt 0.067504 0.516982
vt 0.077296 0.502178
vt 0.099481 0.490340
vt 0.466947 0.277867
vt 0.492218 0.259295
vt 0.514957 0.258666
vt 0.536437 0.272266
vt 0.555703 0.282551
vt 0.118689 0.283024
vt 0.038637 0.215527
vt 0.053125 0.576126
vt 0.056657 0.556170
vt 0.056146 0.534355
vt 0.059804 0.511918
vt 0.069979 0.496506
vt 0.090944 0.484674
vt 0.464143 0.260945
vt 0.490727 0.245487
vt 0.514913 0.244076
vt 0.534466 0.256623
vt 0.555085 0.269229
vt 0.118637 0.271185
vt 0.138121 0.283011
vt 0.050649 0.229031
vt 0.047385 0.233404
vt 0.029491 0.220511
vt 0.048551 0.549818
vt 0.047838 0.528947
vt 0.054819 0.509464
vt 0.518844 0.503152
vt 0.082458 0.479146
vt 0.462880 0.249029
vt 0.476931 0.186649
vt 0.505251 0.193388
vt 0.533436 0.241831
vt 0.553632 0.254556
vt 0.119720 0.257234
vt 0.139500 0.272168
vt 0.043807 0.235955
vt 0.021035 0.227588
vt 0.040426 0.543445
vt 0.549202 0.539566
vt 0.525658 0.527516
vt 0.511862 0.511455
vt 0.437880 0.253317
vt 0.438572 0.265157
vt 0.445575 0.180373
vt 0.479596 0.163676
vt 0.508518 0.170325
vt 0.523906 0.198333
vt 0.552919 0.239809
vt 0.122630 0.242386
vt 0.141564 0.259994
vt 0.035266 0.242226
vt 0.033200 0.558097
vt 0.562324 0.552855
vt 0.540581 0.546004
vt 0.513638 0.537628
vt 0.500652 0.524227
vt 0.496864 0.494275
vt 0.502051 0.483996
vt 0.450055 0.158332
vt 0.511924 0.150154
vt 0.482218 0.143035
vt 0.533335 0.176831
vt 0.551964 0.225827
vt 0.128506 0.228715
vt 0.144471 0.246889
vt 0.027126 0.248262
vt 0.213687 0.406153
vt 0.553245 0.559699
vt 0.527886 0.555674
vt 0.503166 0.547691
vt 0.490777 0.534311
vt 0.488405 0.509634
vt 0.454458 0.139003
vt 0.541233 0.157855
vt 0.485742 0.119881
vt 0.516441 0.126324
vt 0.555863 0.183586
vt 0.134570 0.216606
vt 0.147334 0.234064
vt 0.167611 0.251457
vt 0.164715 0.264188
vt 0.567213 0.573149
vt 0.539042 0.570146
vt 0.516571 0.565171
vt 0.489451 0.560237
vt 0.477765 0.547256
vt 0.477358 0.520168
vt 0.456940 0.115089
vt 0.546943 0.134550
vt 0.566450 0.163937
vt 0.490009 0.092385
vt 0.519423 0.097542
vt 0.043285 0.188362
vt 0.150688 0.221744
vt 0.235356 0.413716
vt 0.236791 0.401222
vt 0.552285 0.584990
vt 0.527468 0.578966
vt 0.501484 0.575453
vt 0.469760 0.572295
vt 0.460224 0.560268
vt 0.464894 0.532333
vt 0.459726 0.087253
vt 0.552468 0.104449
vt 0.574010 0.139454
vt 0.031566 0.165915
vt 0.493568 0.066468
vt 0.524527 0.071132
vt 0.061087 0.178473
vt 0.233544 0.433053
vt 0.032664 0.268139
vt 0.253638 0.410737
vt 0.218666 0.453246
vt 0.512047 0.589642
vt 0.117655 0.563720
vt 0.084848 0.589152
vt 0.425135 0.110368
vt 0.427125 0.082499
vt 0.462432 0.061139
vt 0.555086 0.075912
vt 0.579000 0.109315
vt 0.020160 0.140671
vt 0.052017 0.156547
vt 0.495416 0.043011
vt 0.526962 0.048894
vt 0.252855 0.428888
vt 0.234972 0.447372
vt 0.523208 0.605489
vt 0.137485 0.562524
vt 0.109596 0.587156
vt 0.122998 0.582450
vt 0.464266 0.037589
vt 0.580579 0.080914
vt 0.555546 0.054056
vt 0.608734 0.115572
vt 0.042951 0.133233
vt 0.252653 0.660607
vt 0.278634 0.661622
vt 0.253261 0.442980
vt 0.238244 0.465606
vt 0.152034 0.565376
vt 0.140374 0.581348
vt 0.582782 0.059373
vt 0.006483 0.079150
vt 0.303007 0.654754
vt 0.034991 0.104918
vt 0.254855 0.461036
vt 0.163616 0.572360
vt 0.322310 0.640185
vt 0.611267 0.060094
vt 0.030777 0.077642
vt 0.009608 0.037109
vt 0.029599 0.053152
vt 0.061968 0.099617
vt 0.060086 0.070657
vt 0.340881 0.600952
vt 0.542602 0.351299
vt 0.524659 0.353081
vt 0.514717 0.409054
vt 0.542980 0.343945
vt 0.542479 0.358506
vt 0.523737 0.361468
vt 0.504698 0.353934
vt 0.503080 0.348866
vt 0.505690 0.360215
vt 0.475834 0.380071
vt 0.478547 0.380554
vt 0.474279 0.378523
vt 0.538837 0.396175
vt 0.522066 0.389831
vt 0.524194 0.383702
vt 0.541123 0.388589
vt 0.503347 0.385703
vt 0.505457 0.380466
vt 0.524451 0.375462
vt 0.540790 0.379597
vt 0.480763 0.375981
vt 0.479004 0.373906
vt 0.504794 0.374839
vt 0.480538 0.370552
vt 0.229060 0.650345
vt 0.433260 0.034505
vt 0.209965 0.636715
vt 0.262369 0.628161
vt 0.399240 0.030308
vt 0.193941 0.610255
vt 0.234591 0.620329
vt 0.286724 0.619631
vt 0.364588 0.028332
vt 0.186538 0.583180
vt 0.223767 0.599512
vt 0.245098 0.588666
vt 0.270581 0.577487
vt 0.307367 0.605980
vt 0.218241 0.575642
vt 0.229023 0.546866
vt 0.291898 0.568644
vt 0.253701 0.531432
vt 0.310530 0.561885
vt 0.313670 0.585713
vt 0.278447 0.531462
vt 0.344954 0.578588
vt 0.341716 0.551660
vt 0.297703 0.542349
vt 0.056301 0.047918
vt 0.328982 0.527082
vt 0.086904 0.041136
vt 0.310447 0.510723
vt 0.119995 0.034789
vt 0.197274 0.310007
vt 0.076309 0.282389
vt 0.068274 0.267576
vt 0.180429 0.304807
vt 0.059525 0.251265
vt 0.159367 0.299484
vt 0.102247 0.435889
vt 0.096609 0.452177
vt 0.479203 0.457551
vt 0.465696 0.448489
vt 0.090641 0.467081
vt 0.491627 0.471023
vt 0.443625 0.438577
vt 0.291298 0.401222
vt 0.053587 0.292769
vt 0.272746 0.399343
vt 0.045908 0.279254
vt 0.038805 0.263654
vt 0.111272 0.621827
vt 0.413177 0.528142
vt 0.084110 0.613320
vt 0.108772 0.609483
vt 0.431462 0.506733
vt 0.440717 0.518387
vt 0.082103 0.599893
vt 0.107374 0.598145
vt 0.129723 0.606310
vt 0.131730 0.618362
vt 0.455388 0.521825
vt 0.126889 0.594516
vt 0.153680 0.613817
vt 0.152193 0.601423
vt 0.147998 0.589171
vt 0.179055 0.607762
vt 0.274542 0.485638
vt 0.174941 0.624839
vt 0.260092 0.485925
vt 0.273084 0.461788
vt 0.290619 0.462812
vt 0.542008 0.369653
vt 0.523854 0.368582
vt 0.506904 0.367388
vt 0.473910 0.375791
vt 0.517922 0.399069
vt 0.535361 0.404646
vt 0.499584 0.390928
vt 0.480521 0.378992
vt 0.476501 0.377004
vt 0.393924 0.277334
vt 0.390467 0.265468
vt 0.398524 0.292627
vt 0.176700 0.430239
vt 0.356702 0.168817
vt 0.415335 0.257380
vt 0.417400 0.269211
vt 0.421876 0.285164
vt 0.403756 0.306266
vt 0.382644 0.316182
vt 0.358035 0.147120
vt 0.388973 0.172448
vt 0.442959 0.281058
vt 0.426142 0.299431
vt 0.409927 0.320426
vt 0.145727 0.430840
vt 0.358917 0.127603
vt 0.391714 0.149656
vt 0.417422 0.175498
vt 0.447020 0.295564
vt 0.430562 0.314364
vt 0.416504 0.334790
vt 0.131716 0.429875
vt 0.359992 0.103616
vt 0.394119 0.129246
vt 0.420830 0.152555
vt 0.451291 0.310305
vt 0.435255 0.329823
vt 0.124631 0.442429
vt 0.361160 0.074169
vt 0.395457 0.105766
vt 0.423575 0.133783
vt 0.455826 0.325378
vt 0.119914 0.461152
vt 0.120786 0.441138
vt 0.363818 0.049273
vt 0.397163 0.078378
vt 0.112594 0.477084
vt 0.115847 0.459587
vt 0.111481 0.439255
vt 0.398741 0.052885
vt 0.108648 0.475196
vt 0.106254 0.455860
vt 0.429073 0.056468
vt 0.099595 0.471178
vt 0.181740 0.292644
vt 0.200026 0.296958
vt 0.160852 0.287421
vt 0.183099 0.280708
vt 0.202935 0.284360
vt 0.162227 0.275716
vt 0.185044 0.268672
vt 0.205788 0.272011
vt 0.187331 0.255253
vt 0.208912 0.258407
vt 0.191054 0.242951
vt 0.211056 0.246572
vt 0.169751 0.238713
vt 0.194346 0.231325
vt 0.140165 0.185943
vt 0.171836 0.226624
vt 0.111575 0.165520
vt 0.135729 0.160232
vt 0.086003 0.171152
vt 0.106159 0.144610
vt 0.131884 0.137815
vt 0.078465 0.149655
vt 0.099700 0.120948
vt 0.128218 0.115674
vt 0.070905 0.126087
vt 0.093643 0.092737
vt 0.125513 0.086998
vt 0.090041 0.066435
vt 0.120668 0.059775
vt 0.047219 0.258620
vt 0.055902 0.253468
vt 0.054932 0.274445
vt 0.064211 0.269639
vt 0.062802 0.288599
vt 0.072252 0.284021
vt 0.484498 0.482535
vt 0.472622 0.499457
vt 0.472216 0.468717
vt 0.465337 0.511459
vt 0.461168 0.487884
vt 0.459125 0.459833
vt 0.446696 0.482675
vt 0.437896 0.492223
vt 0.290924 0.412689
vt 0.272514 0.411180
vt 0.271815 0.429248
vt 0.290068 0.430274
vt 0.290272 0.444472
vt 0.272171 0.443437
vt 0.231975 0.008633
vt 0.266522 0.009580
vt 0.557284 0.038462
vt 0.584164 0.042354
vt 0.084108 0.022969
vt 0.117601 0.018295
vt 0.399238 0.013321
vt 0.436799 0.017094
vt 0.528007 0.031495
vt 0.496929 0.025549
vt 0.465574 0.020281
vt 0.365298 0.012362
vt 0.336696 0.011539
vt 0.296267 0.009828
vt 0.202581 0.009673
vt 0.147976 0.014957
vt 0.291369 0.501022
vt 0.053294 0.030820
vt 0.356372 0.500377
vt 0.153165 0.643520
vt 0.481764 0.586475
vt 0.101217 0.570865
vt 0.177124 0.594071
vt 0.172595 0.581221
vt 0.427080 0.537203
vt 0.088210 0.627577
vt 0.493531 0.602281
vt 0.089863 0.579583
vt 0.450501 0.552821
vt 0.289330 0.484904
vt 0.308451 0.486542
vt 0.322909 0.488686
vt 0.371344 0.505561
vt 0.386549 0.510812
vt 0.399506 0.519015
vt 0.440466 0.544936
vt 0.440503 0.504240
vt 0.445085 0.511930
vt 0.442598 0.495531
vt 0.449372 0.491227
vt 0.458616 0.492363
vt 0.463915 0.501171
vt 0.461336 0.508809
vt 0.455413 0.513553
vt 0.080399 0.365570
vt 0.363830 0.410793
vt 0.043002 0.526112
vt 0.533827 0.521001
vt 0.039314 0.282495
vt 0.254134 0.399134
vt 0.086802 0.448918
vt 0.089507 0.436082
vt 0.075567 0.475489
vt 0.081103 0.462808
vt 0.065032 0.493261
vt 0.035736 0.540957
vt 0.009233 0.241018
vt 0.023392 0.256314
vt 0.046349 0.296518
vt 0.054654 0.315165
vt 0.066611 0.333132
vt 0.085651 0.381395
vt 0.091442 0.400385
vt 0.090838 0.416583
vt 0.317448 0.332887
vt 0.127051 0.386814
vt 0.391876 0.329360
vt 0.161409 0.431766
vt 0.330386 0.302235
vt 0.157136 0.384818
vt 0.376080 0.302288
vt 0.196852 0.421984
vt 0.192796 0.426119
vt 0.198573 0.387029
vt 0.335853 0.283729
vt 0.116632 0.351548
vt 0.109847 0.334291
vt 0.073512 0.544886
vt 0.080865 0.527844
vt 0.073423 0.264957
vt 0.063138 0.247576
vt 0.124732 0.462911
vt 0.128440 0.445142
vt 0.556304 0.310966
vt 0.292218 0.337507
vt 0.101855 0.315638
vt 0.118757 0.294779
vt 0.093247 0.296545
vt 0.136828 0.294109
vt 0.081242 0.279725
vt 0.089879 0.513256
vt 0.106777 0.495755
vt 0.116846 0.480847
vt 0.401836 0.341929
vt 0.294688 0.252366
vt 0.267899 0.171181
vt 0.532633 0.228020
vt 0.543301 0.205656
vt 0.118545 0.190016
vt 0.213228 0.235393
vt 0.413334 0.246973
vt 0.437646 0.242329
vt 0.514943 0.230436
vt 0.278111 0.247992
vt 0.256960 0.243425
vt 0.057538 0.211188
vt 0.235049 0.239619
vt 0.072508 0.202493
vt 0.094292 0.195805
vt 0.489186 0.232759
vt 0.461943 0.237453
vt 0.386982 0.254385
vt 0.290922 0.169884
vt 0.331076 0.168900
vt 0.481535 0.373382
vt 0.476092 0.373800
vt 0.481755 0.376214
vt 0.480781 0.360110
vt 0.496735 0.397354
vt 0.480009 0.362791
vt 0.479563 0.364943
vt 0.525307 0.344641
vt 0.531314 0.413819
vt 0.479798 0.367665
vt 0.213891 0.418442
vt 0.215300 0.437779
vt 0.570681 0.235167
vt 0.557648 0.213527
vt 0.567014 0.222272
vt 0.008813 0.054566
vt 0.609577 0.042919
vt 0.010841 0.109268
vt 0.610093 0.084675
vt 0.601491 0.147476
vt 0.576085 0.193113
vt 0.590800 0.172545
vt 0.041163 0.565632
vt 0.012250 0.234077
vt 0.049473 0.573176
vt 0.577282 0.291475
vt 0.577810 0.279309
vt 0.576860 0.264965
vt 0.573800 0.249810
vt 0.540097 0.594605
vt 0.225332 0.472732
vt 0.501346 0.614101
vt 0.026473 0.554959
vt 0.576437 0.565313
vt 0.033584 0.218132
vt 0.576347 0.303549
vt 0.057934 0.579080
vt 0.335677 0.619389
vt 0.029081 0.034577
vt 0.247748 0.488797
vt 0.235734 0.493598
vn -0.296285 0.167453 0.940306
vn -0.264649 0.023339 0.964062
vn -0.223360 0.227006 0.947934
vn -0.340388 0.376135 0.861776
vn -0.340351 -0.169197 0.924951
vn -0.536646 -0.298031 0.789423
vn -0.619136 -0.476307 0.624342
vn -0.283725 -0.526983 0.801118
vn -0.893639 -0.304930 0.329283
vn -0.788524 -0.450632 0.418522
vn -0.902302 -0.420464 0.095190
vn -0.982188 -0.124647 0.140605
vn -0.891386 0.419488 0.171642
vn -0.909643 0.402408 0.103038
vn -0.982592 0.043886 0.180516
vn -0.968560 0.141070 0.204919
vn -0.597506 0.130798 0.791125
vn -0.858745 0.137580 0.493588
vn -0.777333 0.454502 0.434949
vn -0.499059 0.401761 0.767807
vn -0.570359 -0.342560 0.746554
vn -0.848795 -0.353498 0.393176
vn 0.005395 0.430278 0.902680
vn 0.035430 0.246533 0.968487
vn -0.026416 -0.532457 0.846045
vn -0.025813 -0.228773 0.973137
vn 0.617142 0.229082 0.752767
vn 0.311068 0.231279 0.921817
vn 0.273699 0.433911 0.858376
vn 0.552295 0.406878 0.727613
vn 0.314837 -0.471866 0.823541
vn 0.613182 -0.434850 0.659479
vn 0.638013 -0.146196 0.756020
vn 0.321501 -0.184994 0.928663
vn 0.797942 0.254619 0.546313
vn 0.734834 0.406623 0.542842
vn 0.843788 -0.127277 0.521366
vn 0.793288 -0.447696 0.412629
vn 0.928979 0.245498 0.277000
vn 0.858645 0.440371 0.262301
vn 0.893403 -0.433353 0.118473
vn 0.976478 -0.102859 0.189502
vn -0.280977 -0.013224 -0.959623
vn 0.078648 0.123351 -0.989242
vn 0.079116 0.398558 -0.913724
vn -0.233217 0.374526 -0.897407
vn 0.053540 -0.184677 -0.981340
vn 0.049632 -0.502621 -0.863081
vn -0.178028 -0.461542 -0.869071
vn -0.229245 -0.167211 -0.958899
vn -0.559201 -0.028822 -0.828531
vn -0.476790 0.400907 -0.782269
vn -0.412535 -0.438328 -0.798551
vn -0.480418 -0.119810 -0.868818
vn 0.514711 0.440005 -0.735845
vn 0.304207 0.418077 -0.855961
vn 0.310571 0.158856 -0.937182
vn 0.598197 0.198825 -0.776291
vn 0.534188 -0.476349 -0.698380
vn 0.312491 -0.505889 -0.804006
vn 0.355930 -0.189566 -0.915084
vn 0.598421 -0.191594 -0.777936
vn 0.796800 -0.188975 -0.573932
vn 0.712807 -0.451966 -0.536313
vn 0.708466 0.492752 -0.505244
vn 0.833473 0.238104 -0.498627
vn -0.748542 0.052417 -0.661012
vn -0.650908 0.437320 -0.620540
vn -0.618980 -0.444544 -0.647491
vn -0.684900 -0.107596 -0.720649
vn 0.835080 -0.439649 -0.330682
vn 0.933585 -0.166067 -0.317554
vn 0.813826 0.507216 -0.283584
vn 0.958433 0.183573 -0.218419
vn -0.926653 0.145799 -0.346491
vn -0.821949 0.446376 -0.353764
vn -0.791967 -0.452324 -0.410111
vn -0.877740 -0.121349 -0.463517
vn -0.891846 -0.434347 -0.126305
vn -0.979447 -0.138155 -0.146958
vn -0.900410 0.426880 -0.083872
vn -0.983279 0.167652 -0.071095
vn 0.893518 -0.430318 -0.128268
vn 0.989890 -0.122413 -0.071638
vn 0.875562 0.483100 0.002421
vn 0.977901 0.200202 0.060240
vn -0.217684 0.616076 0.757010
vn -0.008988 0.606185 0.795273
vn -0.035908 0.337570 0.940615
vn -0.263582 0.346985 0.900070
vn 0.932268 0.335163 0.136173
vn 0.766939 0.623639 0.151259
vn 0.774267 0.625250 -0.097844
vn 0.936824 0.318011 -0.145706
vn 0.091585 0.391635 -0.915551
vn 0.090305 0.631824 -0.769833
vn -0.148701 0.645802 -0.748884
vn -0.175466 0.439185 -0.881095
vn -0.852400 0.392994 -0.344919
vn -0.718436 0.640865 -0.270448
vn -0.783539 0.615486 -0.085108
vn -0.923930 0.368893 -0.101347
vn -0.572993 0.659963 -0.485930
vn -0.678522 0.421303 -0.601757
vn -0.453800 0.441449 -0.774073
vn -0.395959 0.657404 -0.641122
vn 0.627931 0.625406 -0.463217
vn 0.468703 0.629192 -0.620029
vn 0.566539 0.373984 -0.734281
vn 0.756055 0.354266 -0.550342
vn 0.274161 0.631673 -0.725138
vn 0.339555 0.358149 -0.869731
vn 0.884340 0.319548 -0.340340
vn 0.720970 0.632895 -0.282218
vn 0.485648 0.595843 0.639622
vn 0.663430 0.619706 0.419314
vn 0.815202 0.344041 0.465920
vn 0.614210 0.323850 0.719630
vn 0.259766 0.574450 0.776227
vn 0.306987 0.319405 0.896515
vn -0.915887 0.378798 0.132903
vn -0.781750 0.614116 0.108302
vn -0.677534 0.607011 0.415313
vn -0.788939 0.382361 0.481014
vn -0.507182 0.615566 0.603196
vn -0.611888 0.341596 0.713376
vn -0.331215 0.119843 0.935914
vn -0.014305 0.115817 0.993168
vn 0.003924 0.393787 0.919193
vn -0.290727 0.385136 0.875870
vn 0.963634 0.166377 0.209115
vn 0.978294 0.189130 -0.084685
vn 0.898521 0.427895 -0.097807
vn 0.899465 0.396215 0.184326
vn -0.175823 0.422141 -0.889316
vn 0.097272 0.430395 -0.897384
vn 0.104175 0.227998 -0.968073
vn -0.210534 0.219454 -0.952636
vn 0.535977 0.399576 -0.743685
vn 0.716256 0.403466 -0.569379
vn 0.765152 0.165930 -0.622101
vn 0.579143 0.165889 -0.798169
vn 0.317701 0.418246 -0.850962
vn 0.366208 0.193942 -0.910098
vn 0.825792 0.429020 -0.366073
vn 0.897445 0.179189 -0.403093
vn 0.789137 0.364965 0.494028
vn 0.576598 0.358442 0.734203
vn 0.615273 0.128798 0.777721
vn 0.832677 0.140261 0.535701
vn 0.335544 0.376595 0.863474
vn 0.361941 0.127224 0.923479
vn -0.614617 0.396308 0.682045
vn -0.793571 0.407175 0.452165
vn -0.856691 0.172936 0.485976
vn -0.657983 0.152221 0.737487
vn -0.895385 0.427606 0.124250
vn -0.976855 0.159209 0.142854
vn -0.909367 0.192716 -0.368663
vn -0.970502 0.208958 -0.120263
vn -0.881574 0.459768 -0.106964
vn -0.822011 0.462062 -0.332860
vn -0.674830 0.440945 -0.591753
vn -0.741656 0.184763 -0.644833
vn -0.462345 0.429259 -0.775870
vn -0.518659 0.187190 -0.834238
vn 0.528719 -0.498644 -0.686885
vn 0.661941 -0.497962 -0.560240
vn 0.375366 -0.873606 -0.309699
vn 0.295084 -0.882604 -0.365973
vn 0.389499 -0.518049 -0.761522
vn 0.219140 -0.880522 -0.420308
vn -0.261091 -0.520420 -0.813016
vn 0.098920 -0.540539 -0.835483
vn 0.051036 -0.896532 -0.440029
vn -0.152784 -0.888115 -0.433484
vn -0.296645 -0.874495 -0.383745
vn -0.498619 -0.476037 -0.724408
vn -0.376699 -0.870967 -0.315459
vn -0.668004 -0.463236 -0.582395
vn -0.814091 -0.477532 -0.330484
vn -0.432230 -0.882796 -0.183978
vn -0.469177 -0.882443 -0.034161
vn -0.875547 -0.473107 -0.097917
vn -0.774460 -0.423816 0.469672
vn -0.874119 -0.457036 0.164418
vn -0.470371 -0.876032 0.106390
vn -0.438679 -0.863674 0.248250
vn -0.604426 -0.422024 0.675696
vn -0.337173 -0.874235 0.349325
vn -0.306549 -0.468353 0.828658
vn -0.163389 -0.902395 0.398733
vn -0.019576 -0.902940 0.429321
vn -0.022864 -0.521375 0.853021
vn 0.491593 -0.551988 0.673532
vn 0.254995 -0.537453 0.803817
vn 0.135159 -0.899937 0.414542
vn 0.264699 -0.905273 0.332289
vn 0.699121 -0.554551 0.451336
vn 0.362214 -0.898999 0.246174
vn 0.819339 -0.543128 0.183564
vn 0.425186 -0.899816 0.097710
vn 0.447472 -0.893472 -0.038432
vn 0.836865 -0.545010 -0.051201
vn 0.775653 -0.522924 -0.353430
vn 0.424942 -0.886621 -0.182561
vn -0.160405 0.464864 0.870730
vn -0.037487 0.452247 0.891105
vn -0.087562 0.712308 0.696384
vn -0.089718 0.752086 0.652930
vn 0.037468 -0.380760 0.923914
vn -0.266438 -0.394941 0.879223
vn -0.813781 0.293463 0.501637
vn -0.516412 0.386498 0.764158
vn -0.335503 0.703650 0.626350
vn -0.612918 0.651960 0.446409
vn 0.409800 0.500490 0.762609
vn 0.021050 0.603958 0.796738
vn 0.165988 0.390202 0.905644
vn 0.545964 0.292144 0.785223
vn 0.687912 0.435933 0.580293
vn 0.774380 0.236772 0.586749
vn 0.863374 0.389817 0.320358
vn 0.905636 0.256964 0.337333
vn 0.953874 0.290535 0.075590
vn 0.913936 0.399678 0.070556
vn 0.783338 0.335135 -0.523513
vn 0.894014 0.367820 -0.255826
vn 0.922446 0.274561 -0.271496
vn 0.800993 0.237153 -0.549699
vn 0.606696 0.325972 -0.725026
vn 0.613955 0.196037 -0.764610
vn 0.376666 0.298393 -0.876975
vn 0.363682 0.147358 -0.919794
vn -0.124250 0.374318 -0.918939
vn 0.157994 0.358739 -0.919970
vn 0.139156 0.131152 -0.981547
vn -0.145983 0.189883 -0.970893
vn -0.200075 -0.544765 -0.814372
vn 0.073219 -0.404740 -0.911496
vn 0.259178 -0.378779 -0.888455
vn 0.559324 -0.364528 -0.744497
vn 0.813262 -0.444983 -0.374961
vn 0.836862 -0.543817 -0.062650
vn 0.851185 -0.503607 0.147870
vn 0.877955 -0.355518 0.320628
vn 0.824551 -0.278547 0.492471
vn 0.638826 -0.331739 0.694155
vn 0.304011 -0.388948 0.869653
vn -0.902530 0.305892 -0.303102
vn -0.955583 0.279070 -0.094768
vn -0.833032 0.546749 -0.084397
vn -0.855042 0.421902 -0.301500
vn -0.907645 -0.418222 -0.035647
vn -0.818512 -0.488839 -0.301784
vn -0.776628 0.259677 -0.573949
vn -0.739730 0.407265 -0.535663
vn -0.489638 0.234321 -0.839850
vn -0.455819 0.423355 -0.782943
vn -0.632584 -0.576659 -0.517012
vn -0.444628 -0.623317 -0.643259
vn -0.866122 -0.457445 0.201438
vn -0.944985 0.268718 0.186533
vn -0.764953 0.622055 0.167017
vn -0.120203 0.425570 0.896906
vn -0.195746 0.460531 0.865791
vn -0.357699 0.468498 0.807813
vn -0.709919 0.443533 0.547077
vn -0.913295 0.343926 0.218189
vn -0.964973 0.261494 -0.021170
vn -0.938818 0.223456 -0.262085
vn -0.795582 0.211419 -0.567760
vn -0.506100 0.208290 -0.836946
vn -0.169983 0.199514 -0.965039
vn 0.146529 0.143639 -0.978722
vn 0.384284 0.211341 -0.898699
vn 0.596935 0.231061 -0.768296
vn 0.770119 0.215031 -0.600566
vn 0.944940 0.140749 -0.295427
vn 0.994268 0.074832 0.076364
vn 0.935673 0.111197 0.334890
vn 0.731043 0.205913 0.650519
vn 0.351270 0.317931 0.880641
vn -0.012505 0.333221 0.942766
vn -0.056411 -0.303436 0.951180
vn -0.303185 -0.277773 0.911549
vn 0.496891 -0.243441 0.832968
vn 0.178037 -0.262668 0.948319
vn 0.144096 0.475743 0.867701
vn 0.298299 0.093749 0.949857
vn 0.561825 0.112575 0.819561
vn 0.451434 0.454318 0.767986
vn -0.213267 0.394352 0.893870
vn -0.021120 0.567874 0.822844
vn -0.003783 0.736418 0.676516
vn -0.147277 0.738295 0.658202
vn 0.139577 0.730951 0.668004
vn 0.314496 0.760529 0.568057
vn 0.770673 -0.224656 0.596315
vn 0.930407 -0.178402 0.320181
vn 0.988521 -0.129734 0.077426
vn 0.834817 -0.117581 -0.537825
vn 0.964534 -0.095905 -0.245919
vn 0.665396 -0.156928 -0.729809
vn 0.408795 -0.183026 -0.894085
vn -0.209637 -0.175355 -0.961927
vn 0.109809 -0.184995 -0.976585
vn -0.491314 -0.178264 -0.852545
vn -0.770699 -0.162813 -0.616048
vn -0.947262 -0.131701 -0.292147
vn -0.989671 -0.141425 -0.023464
vn -0.828472 -0.178615 0.530784
vn -0.961744 -0.156331 0.224963
vn -0.511076 -0.241926 0.824787
vn -0.556319 0.102646 0.824605
vn -0.365358 0.070202 0.928216
vn -0.441629 0.410598 0.797730
vn -0.408189 0.736259 0.539726
vn 0.796020 0.169400 0.581082
vn 0.729047 0.436159 0.527500
vn 0.934463 0.202700 0.292730
vn 0.848508 0.440589 0.293115
vn 0.976725 0.208728 0.049399
vn 0.894206 0.444972 0.048938
vn 0.954805 0.206599 -0.213694
vn 0.857663 0.175753 -0.483244
vn 0.773346 0.437343 -0.458985
vn 0.873651 0.448687 -0.188185
vn 0.680327 0.158523 -0.715559
vn 0.605247 0.409620 -0.682560
vn 0.456579 0.174996 -0.872303
vn 0.417954 0.416351 -0.807444
vn 0.109611 0.464019 -0.879018
vn 0.126443 0.210768 -0.969324
vn -0.180526 0.247932 -0.951809
vn -0.187242 0.492907 -0.849696
vn -0.430564 0.277297 -0.858907
vn -0.384000 0.522093 -0.761553
vn -0.755321 0.270712 -0.596829
vn -0.678268 0.511560 -0.527503
vn -0.919206 0.268177 -0.288344
vn -0.828769 0.497385 -0.256417
vn -0.965907 0.254571 -0.047095
vn -0.873881 0.484572 -0.039014
vn -0.944897 0.237658 0.225142
vn -0.813338 0.177365 0.554097
vn -0.766736 0.404701 0.498330
vn -0.860712 0.465105 0.207008
vn -0.642328 0.669597 0.372900
vn -0.701002 0.687050 0.191202
vn -0.670965 0.708190 -0.219712
vn -0.718054 0.695739 -0.018586
vn -0.578165 0.699128 -0.420649
vn -0.338488 0.736321 -0.585881
vn -0.164484 0.737313 -0.655221
vn 0.070325 0.743160 -0.665408
vn 0.462482 0.699506 -0.544795
vn 0.305916 0.706710 -0.637947
vn 0.593216 0.706077 -0.386717
vn 0.672601 0.719790 -0.171786
vn 0.526175 0.715961 0.458847
vn 0.635844 0.709606 0.303583
vn 0.699362 0.712562 0.056111
vn -0.166289 0.920271 -0.354189
vn 0.006689 0.932335 -0.361533
vn -0.172101 0.928235 0.329790
vn -0.001848 0.934798 0.355176
vn 0.357478 0.886373 0.294196
vn 0.432532 0.900865 0.036859
vn -0.349569 0.894184 -0.279710
vn -0.409089 0.912444 -0.009616
vn 0.169719 0.910237 0.377709
vn 0.196145 0.918145 -0.344291
vn 0.405384 0.890815 -0.205213
vn -0.377191 0.890049 0.256009
vn 0.138901 0.990282 0.006955
vn -0.026729 0.999602 -0.009029
vn -0.169426 0.985481 -0.011085
vn 0.246502 -0.112472 0.962594
vn 0.546720 -0.065435 0.834754
vn 0.794601 -0.027782 0.606495
vn 0.949959 0.010248 0.312207
vn 0.996049 0.058295 0.067001
vn 0.968987 0.066699 -0.237939
vn 0.858275 0.024966 -0.512583
vn 0.696027 -0.010425 -0.717940
vn 0.452807 -0.020966 -0.891362
vn 0.131095 0.002206 -0.991367
vn -0.186630 0.016169 -0.982297
vn -0.452010 0.008027 -0.891977
vn -0.763384 0.007800 -0.645898
vn -0.948358 0.044657 -0.314042
vn -0.997791 0.047669 -0.046279
vn -0.972897 0.032552 0.228935
vn -0.827662 0.017722 0.560947
vn -0.525865 -0.006604 0.850543
vn -0.337622 -0.044950 0.940208
vn -0.002294 0.981532 0.191286
vn 0.620841 0.740598 0.257041
vn 0.910822 0.115543 0.396299
vn 0.567205 -0.544462 0.617932
vn -0.071903 -0.755531 0.651155
vn -0.059902 -0.169648 0.983683
vn -0.656933 -0.529864 0.536362
vn -0.918453 0.060167 0.390927
vn -0.716149 0.675213 0.176684
vn 0.598258 0.796421 -0.088322
vn -0.037215 0.985730 -0.164169
vn -0.661999 0.734534 -0.149055
vn -0.046675 0.992462 0.113313
vn 0.667017 0.730694 0.145514
vn -0.681928 0.717046 0.144290
vn 0.659243 0.703803 0.264687
vn 0.059962 0.956970 0.283923
vn -0.559590 0.772537 0.300076
vn 0.986681 0.143814 0.076021
vn 0.700753 -0.668645 0.248714
vn 0.982299 0.045179 0.181793
vn 0.648941 -0.727158 0.223866
vn -0.043250 -0.958916 0.280375
vn -0.036061 -0.975140 0.218635
vn -0.711367 -0.682301 0.168588
vn -0.655431 -0.726784 0.205413
vn -0.996367 0.077034 -0.036325
vn -0.988641 0.029284 0.147417
vn 0.967714 0.061105 0.244533
vn 0.670357 -0.715802 0.195576
vn -0.008435 -0.980122 0.198215
vn -0.644123 -0.723689 0.247750
vn -0.947500 0.010862 0.319571
vn -0.173893 -0.489129 0.854701
vn -0.380710 0.132260 0.915187
vn -0.294972 0.169033 0.940436
vn -0.017692 0.069222 0.997445
vn 0.330189 0.085089 0.940072
vn 0.624490 0.126054 0.770793
vn 0.815610 0.168900 0.553402
vn 0.946958 0.188625 0.260174
vn 0.988531 0.149735 -0.019653
vn 0.947601 0.109447 -0.300122
vn 0.803644 0.086963 -0.588722
vn 0.595868 0.096762 -0.797232
vn 0.357337 0.127941 -0.925171
vn 0.050941 0.127151 -0.990574
vn -0.245902 0.115549 -0.962383
vn -0.497558 0.138714 -0.856268
vn -0.689324 0.139445 -0.710906
vn -0.892428 0.120824 -0.434711
vn -0.986711 0.094602 -0.132108
vn -0.980123 0.103204 0.169433
vn -0.985966 0.100827 0.133061
vn -0.898511 0.107223 0.425653
vn -0.591379 0.096860 0.800555
vn -0.391888 0.299029 0.870060
vn -0.243372 0.216993 0.945349
vn -0.512511 0.328423 0.793392
vn -0.819061 0.365674 0.442066
vn -0.953282 0.288442 0.089752
vn -0.936467 0.304889 0.173413
vn -0.949621 0.294922 -0.106023
vn -0.864584 0.304782 -0.399503
vn -0.672176 0.298223 -0.677674
vn -0.483417 0.294811 -0.824254
vn -0.240046 0.302901 -0.922296
vn 0.063321 0.321378 -0.944832
vn 0.332713 0.319547 -0.887238
vn 0.550632 0.303776 -0.777512
vn 0.760645 0.334271 -0.556491
vn 0.891597 0.354217 -0.282107
vn 0.935995 0.351870 0.010005
vn 0.893635 0.362767 0.264229
vn 0.756434 0.361992 0.544766
vn 0.580467 0.344056 0.738026
vn 0.305197 0.322471 0.896029
vn -0.011209 0.304667 0.952393
vn -0.015391 0.367806 0.929775
vn -0.187809 0.363776 0.912357
vn 0.222039 0.336912 0.914980
vn 0.593145 0.271852 0.757809
vn 0.784466 0.248240 0.568322
vn 0.903219 0.244583 0.352669
vn 0.962644 0.257466 0.083828
vn 0.926774 0.229340 -0.297480
vn 0.804424 0.218031 -0.552598
vn 0.590117 0.218952 -0.777060
vn 0.339015 0.159829 -0.927105
vn 0.142761 0.128967 -0.981319
vn -0.137602 0.163866 -0.976839
vn -0.507005 0.189661 -0.840818
vn -0.768026 0.238298 -0.594433
vn -0.909712 0.246048 -0.334490
vn -0.969808 0.231607 -0.076352
vn -0.963863 0.189429 0.187307
vn -0.847697 0.146981 0.509712
vn -0.569664 0.198790 0.797475
vn -0.021374 -0.274126 0.961456
vn -0.022622 -0.108806 0.993806
vn -0.346731 -0.109435 0.931559
vn -0.334301 -0.267142 0.903813
vn 0.293849 -0.264742 0.918458
vn 0.337086 -0.086046 0.937534
vn 0.608180 -0.045846 0.792474
vn 0.574210 -0.256559 0.777470
vn 0.839540 -0.033329 0.542274
vn 0.815504 -0.260060 0.517031
vn 0.971958 -0.036806 0.232258
vn 0.937695 -0.275054 0.212305
vn 0.955770 -0.285826 -0.069329
vn 0.996281 -0.033851 -0.079241
vn 0.910499 -0.052448 -0.410171
vn 0.874018 -0.284209 -0.394105
vn 0.775012 -0.062962 -0.628802
vn 0.746434 -0.273241 -0.606774
vn 0.598009 -0.050910 -0.799871
vn 0.588562 -0.262054 -0.764802
vn 0.418240 -0.010933 -0.908271
vn 0.424872 -0.245317 -0.871380
vn 0.121982 -0.230674 -0.965355
vn 0.121982 0.031734 -0.992025
vn -0.261074 0.025794 -0.964974
vn -0.268242 -0.231168 -0.935205
vn -0.550918 -0.022305 -0.834261
vn -0.549891 -0.234003 -0.801787
vn -0.760562 -0.039444 -0.648066
vn -0.745862 -0.227564 -0.626023
vn -0.931663 -0.028328 -0.362217
vn -0.913076 -0.213204 -0.347616
vn -0.972382 -0.206165 -0.109407
vn -0.993150 -0.019272 -0.115246
vn -0.987295 -0.048073 0.151450
vn -0.961741 -0.220448 0.162659
vn -0.865306 -0.071556 0.496110
vn -0.834378 -0.244604 0.493946
vn -0.660178 -0.093057 0.745323
vn -0.645140 -0.258274 0.719089
vn 0.058374 -0.983101 0.173510
vn -0.021749 -0.985807 0.166467
vn -0.093336 -0.983784 0.153157
vn 0.125321 -0.989780 0.068048
vn 0.136359 -0.990480 -0.018833
vn 0.141371 -0.985342 -0.095476
vn -0.159849 -0.984121 0.077168
vn -0.179061 -0.983836 0.002082
vn -0.153230 -0.984058 -0.090283
vn 0.102788 -0.979793 -0.171583
vn 0.018139 -0.982361 -0.186114
vn -0.091446 -0.979815 -0.177766
vn -0.018490 -0.999806 0.006841
vn -0.005196 -0.999791 -0.019789
vn -0.025755 -0.999005 0.036397
s 1
g Snowman_LOW Snow_Ice
usemtl initialShadingGroup
f 1/478/1 2/644/2 354/617/3 355/471/4
f 4/457/5 3/7/6 496/8/7 497/458/8
f 3/7/6 7/625/9 515/2/10 496/8/7
f 514/1/11 515/2/10 7/625/9 9/4/12
f 372/33/13 373/615/14 11/46/15 12/635/16
f 13/73/17 14/61/18 374/45/19 375/60/20
f 14/61/18 11/616/15 373/32/14 374/45/19
f 375/60/20 354/472/3 2/479/2 13/73/17
f 15/29/21 16/17/22 7/624/9 3/622/6
f 355/471/4 356/477/23 208/484/24 1/478/1
f 497/458/8 498/462/25 207/463/26 4/457/5
f 20/179/27 17/489/28 357/483/29 358/180/30
f 499/241/31 500/228/32 21/213/33 18/242/34
f 23/174/35 20/179/27 358/180/30 359/175/36
f 24/201/37 21/213/33 500/228/32 501/214/38
f 26/173/39 23/174/35 359/175/36 360/176/40
f 24/201/37 501/214/38 502/215/41 27/202/42
f 30/409/43 223/412/44 366/502/45 367/503/46
f 224/510/47 508/512/48 509/513/49 31/511/50
f 35/108/51 30/409/43 367/503/46 368/94/52
f 509/513/49 510/51/53 36/52/54 31/511/50
f 364/219/55 365/504/56 29/414/57 38/639/58
f 506/278/59 507/514/60 32/279/61 39/264/62
f 39/264/62 41/248/63 505/263/64 506/278/59
f 363/205/65 364/219/55 38/639/58 43/637/66
f 44/93/67 35/108/51 368/94/52 369/78/68
f 510/51/53 511/36/69 45/37/70 36/52/54
f 504/247/71 505/677/64 41/693/63 47/232/72
f 362/193/73 363/690/65 43/700/66 49/634/74
f 50/77/75 44/93/67 369/78/68 370/64/76
f 511/36/69 512/22/77 51/23/78 45/37/70
f 512/22/77 513/12/79 246/11/80 51/23/78
f 50/77/75 370/64/76 371/48/81 247/63/82
f 502/215/41 503/231/83 233/216/84 27/202/42
f 26/173/39 360/176/40 361/183/85 234/184/86
f 416/467/87 417/474/88 206/468/89 6/461/90
f 28/230/91 421/245/92 422/261/93 232/246/94
f 225/649/95 427/518/96 428/519/97 34/516/98
f 52/28/99 431/38/100 432/24/101 245/16/102
f 430/53/103 431/38/100 52/28/99 46/43/104
f 37/59/105 429/80/106 430/53/103 46/43/104
f 34/516/98 428/519/97 429/80/106 37/59/105
f 424/292/107 425/308/108 40/658/109 42/656/110
f 425/308/108 426/520/111 33/659/112 40/658/109
f 48/648/113 423/276/114 424/685/107 42/678/110
f 419/258/115 420/244/116 25/229/117 22/243/118
f 420/244/116 421/245/92 28/230/91 25/229/117
f 418/482/119 419/258/115 22/243/118 19/475/120
f 10/646/121 433/13/122 434/14/123 8/663/124
f 8/663/124 434/14/123 435/27/125 5/664/126
f 435/27/125 416/467/87 6/461/90 5/664/126
f 436/480/127 437/487/128 205/481/129 53/473/130
f 441/275/131 442/288/132 231/273/133 55/259/134
f 58/522/135 226/521/136 447/524/137 448/525/138
f 64/322/139 63/305/140 444/321/141 445/335/142
f 57/523/143 64/322/139 445/335/142 446/526/144
f 63/686/140 56/289/145 443/304/146 444/684/141
f 66/260/147 65/272/148 439/287/149 440/274/150
f 55/259/134 66/260/147 440/274/150 441/275/131
f 65/272/148 54/488/151 438/316/152 439/287/149
f 68/42/153 67/26/154 454/41/155 455/58/156
f 455/58/156 436/480/127 53/473/130 68/42/153
f 67/26/154 60/25/157 453/40/158 454/41/155
f 451/68/159 452/55/160 244/39/161 59/54/162
f 59/54/162 61/67/163 450/82/164 451/68/159
f 61/67/163 62/81/165 449/95/166 450/82/164
f 62/81/165 58/522/135 448/525/138 449/95/166
f 476/352/167 477/680/168 69/351/169 70/703/170
f 495/404/171 476/352/167 70/703/170 71/568/172
f 493/408/173 494/406/174 228/555/175 72/556/176
f 75/566/177 492/125/178 493/408/173 72/556/176
f 73/126/179 491/119/180 492/125/178 75/566/177
f 490/111/181 491/119/180 73/126/179 74/565/182
f 242/551/183 489/98/184 490/111/181 74/565/182
f 487/86/185 488/85/186 76/552/187 77/564/188
f 486/101/189 487/86/185 77/564/188 78/563/190
f 485/388/191 486/101/189 78/563/190 79/562/192
f 203/557/193 484/384/194 485/388/191 79/562/192
f 482/331/195 483/381/196 80/558/197 81/561/198
f 481/323/199 482/331/195 81/561/198 82/560/200
f 480/324/201 481/323/199 82/560/200 83/559/202
f 229/553/203 479/333/204 480/324/201 83/559/202
f 69/681/169 477/349/168 478/342/205 84/554/206
f 396/496/207 397/499/208 210/416/209 104/415/210
f 208/632/24 209/490/211 101/485/212 1/633/1
f 414/89/213 415/102/214 105/114/215 106/103/216
f 107/227/217 103/419/218 398/501/219 399/212/220
f 110/211/221 107/227/217 399/212/220 400/198/222
f 112/210/223 110/211/221 400/198/222 401/197/224
f 401/197/224 402/209/225 236/224/226 112/210/223
f 116/251/227 114/237/228 403/223/229 404/687/230
f 118/265/231 116/688/227 404/236/230 405/250/232
f 120/426/233 118/265/231 405/250/232 406/531/234
f 121/423/235 221/425/236 407/533/237 408/535/238
f 122/410/239 222/411/240 223/630/44 30/640/43
f 119/413/241 117/221/242 38/220/58 29/631/57
f 117/221/242 115/699/243 43/206/66 38/220/58
f 49/194/74 43/701/66 115/207/243 113/195/244
f 26/629/39 234/628/86 235/185/245 111/177/246
f 23/641/35 26/629/39 111/177/246 109/178/247
f 20/642/27 23/641/35 109/178/247 108/188/248
f 17/643/28 20/642/27 108/188/248 102/494/249
f 411/116/250 412/105/251 249/115/252 126/121/253
f 50/627/75 247/626/82 248/76/254 125/92/255
f 410/122/256 411/116/250 126/121/253 128/127/257
f 409/128/258 410/122/256 128/127/257 129/131/259
f 408/535/238 409/128/258 129/131/259 121/423/235
f 35/638/51 44/636/67 127/107/260 130/124/261
f 30/640/43 35/638/51 130/124/261 122/410/239
f 44/636/67 50/627/75 125/92/255 127/107/260
f 2/479/2 1/633/1 101/485/212 13/73/17
f 415/102/214 396/496/207 104/415/210 105/114/215
f 12/47/16 11/616/15 14/61/18 123/62/262
f 413/90/263 414/89/213 106/103/216 124/104/264
f 104/415/210 210/416/209 211/601/265 132/602/266
f 132/602/266 133/614/267 105/114/215 104/415/210
f 133/614/267 134/613/268 106/103/216 105/114/215
f 134/613/268 135/612/269 124/104/264 106/103/216
f 249/115/252 250/595/270 136/129/271 126/121/253
f 136/129/271 137/611/272 128/127/257 126/121/253
f 137/611/272 138/610/273 129/131/259 128/127/257
f 138/610/273 139/609/274 121/423/235 129/131/259
f 139/609/274 220/599/275 221/425/236 121/423/235
f 140/310/276 141/608/277 118/265/231 120/426/233
f 116/688/227 118/265/231 141/608/277 142/607/278
f 142/697/278 143/606/279 114/237/228 116/251/227
f 236/224/226 237/597/280 144/225/281 112/210/223
f 144/225/281 145/605/282 110/211/221 112/210/223
f 145/605/282 146/603/283 107/227/217 110/211/221
f 146/603/283 131/604/284 103/419/218 107/227/217
f 211/417/265 517/539/285 518/542/286 132/418/266
f 146/257/283 535/256/287 516/537/288 131/420/284
f 151/437/289 258/540/290 259/286/291 150/301/292
f 154/431/293 213/432/294 214/575/295 153/428/296
f 152/586/297 151/437/289 150/301/292 155/579/298
f 534/240/299 535/256/287 146/257/283 145/226/282
f 533/239/300 534/240/299 145/226/282 144/598/281
f 237/238/280 532/253/301 533/239/300 144/598/281
f 142/698/278 530/281/302 531/267/303 143/252/279
f 529/294/304 530/675/302 142/266/278 141/295/277
f 140/600/276 528/311/305 529/294/304 141/295/277
f 526/545/306 527/546/307 220/424/275 139/422/274
f 525/138/308 526/545/306 139/422/274 138/139/273
f 524/133/309 525/138/308 138/139/273 137/130/272
f 136/596/271 523/132/310 524/133/309 137/130/272
f 522/134/311 523/132/310 136/596/271 250/135/270
f 134/148/268 520/149/312 521/141/313 135/142/269
f 518/542/286 519/159/314 133/421/267 132/418/266
f 133/421/267 519/159/314 520/149/312 134/148/268
f 275/164/315 276/544/316 154/431/293 169/169/317
f 153/428/296 170/585/318 169/169/317 154/431/293
f 259/286/291 260/270/319 171/285/320 150/301/292
f 260/270/319 261/269/321 172/284/322 171/285/320
f 261/269/321 262/283/323 239/298/324 172/284/322
f 263/297/325 264/694/326 174/327/327 173/313/328
f 264/312/326 265/326/329 175/339/330 174/695/327
f 265/326/329 266/338/331 176/346/332 175/339/330
f 218/446/333 267/550/334 268/549/335 177/447/336
f 268/549/335 269/152/337 178/158/338 177/447/336
f 269/152/337 270/144/339 179/151/340 178/158/338
f 270/144/339 271/143/341 180/150/342 179/151/340
f 271/143/341 272/147/343 252/155/344 180/150/342
f 273/154/345 274/161/346 182/165/347 181/162/348
f 274/161/346 275/164/315 169/169/317 182/165/347
f 169/169/317 170/585/318 183/584/349 182/165/347
f 183/584/349 184/583/350 181/162/348 182/165/347
f 185/156/351 180/150/342 252/155/344 253/569/352
f 180/150/342 185/156/351 186/582/353 179/151/340
f 179/151/340 186/582/353 187/581/354 178/158/338
f 177/447/336 178/158/338 187/581/354 188/580/355
f 217/443/356 218/446/333 177/447/336 188/580/355
f 190/704/357 175/339/330 176/346/332 189/445/358
f 175/339/330 190/704/357 191/705/359 174/695/327
f 192/577/360 173/313/328 174/327/327 191/696/359
f 171/285/320 193/300/361 155/579/298 150/301/292
f 172/284/322 194/299/362 193/300/361 171/285/320
f 194/299/362 172/284/322 239/298/324 240/571/363
f 188/442/355 195/439/364 216/440/365 217/573/356
f 198/427/366 153/576/296 214/429/295 215/430/367
f 200/329/368 194/572/362 240/314/363 241/330/369
f 202/167/370 185/570/351 253/163/352 254/168/371
f 483/381/196 484/384/194 203/557/193 80/558/197
f 437/487/128 438/316/152 54/488/151 205/481/129
f 19/475/120 206/468/89 417/474/88 418/482/119
f 207/463/26 498/462/25 499/241/31 18/242/34
f 356/477/23 357/483/29 17/489/28 208/484/24
f 102/494/249 209/490/211 208/632/24 17/643/28
f 397/499/208 398/501/219 103/419/218 210/416/209
f 211/601/265 210/416/209 103/419/218 131/604/284
f 131/420/284 516/537/288 517/539/285 211/417/265
f 214/575/295 213/432/294 151/437/289 152/586/297
f 215/430/367 214/429/295 152/433/297 197/434/372
f 217/573/356 216/440/365 196/441/373 189/574/358
f 189/445/358 176/346/332 218/446/333 217/443/356
f 266/338/331 267/550/334 218/446/333 176/346/332
f 527/546/307 528/311/305 140/600/276 220/424/275
f 221/425/236 220/599/275 140/310/276 120/426/233
f 406/531/234 407/533/237 221/425/236 120/426/233
f 223/630/44 222/411/240 119/413/241 29/631/57
f 365/504/56 366/502/45 223/412/44 29/414/57
f 32/279/61 507/514/60 508/512/48 224/510/47
f 33/659/112 426/520/111 427/518/96 225/649/95
f 446/526/144 447/524/137 226/521/136 57/523/143
f 228/555/175 494/406/174 495/404/171 71/568/172
f 478/342/205 479/333/204 229/553/203 84/554/206
f 56/289/145 231/273/133 442/288/132 443/304/146
f 232/246/94 422/261/93 423/276/114 48/648/113
f 233/216/84 503/231/83 504/247/71 47/232/72
f 234/184/86 361/183/85 362/193/73 49/634/74
f 235/185/245 234/628/86 49/194/74 113/195/244
f 114/237/228 236/224/226 402/209/225 403/223/229
f 143/606/279 237/597/280 236/224/226 114/237/228
f 143/252/279 531/267/303 532/253/301 237/238/280
f 239/298/324 262/283/323 263/297/325 173/313/328
f 240/571/363 239/298/324 173/313/328 192/577/360
f 241/330/369 240/314/363 192/328/360 199/341/374
f 488/85/186 489/98/184 242/551/183 76/552/187
f 60/25/157 244/39/161 452/55/160 453/40/158
f 245/16/102 432/24/101 433/13/122 10/646/121
f 246/11/80 513/12/79 514/1/11 9/4/12
f 247/63/82 371/48/81 372/33/13 12/635/16
f 248/76/254 247/626/82 12/47/16 123/62/262
f 412/105/251 413/90/263 124/104/264 249/115/252
f 135/612/269 250/595/270 249/115/252 124/104/264
f 521/141/313 522/134/311 250/135/270 135/142/269
f 252/155/344 272/147/343 273/154/345 181/162/348
f 253/569/352 252/155/344 181/162/348 184/583/350
f 254/168/371 253/163/352 184/166/350 201/171/375
f 197/434/372 152/433/297 155/315/298 200/329/368
f 153/576/296 198/427/366 201/171/375 170/172/318
f 189/574/358 196/441/373 199/341/374 190/347/357
f 195/439/364 188/442/355 187/444/354 202/167/370
f 186/157/353 185/570/351 202/167/370 187/444/354
f 184/166/350 183/170/349 170/172/318 201/171/375
f 193/578/361 194/572/362 200/329/368 155/315/298
f 190/347/357 199/341/374 192/328/360 191/340/359
f 197/434/372 255/438/376 256/435/377 215/430/367
f 200/329/368 241/330/369 255/438/376 197/434/372
f 241/330/369 199/341/374 196/441/373 255/438/376
f 216/440/365 256/435/377 255/438/376 196/441/373
f 195/439/364 257/436/378 256/435/377 216/440/365
f 215/430/367 256/435/377 257/436/378 198/427/366
f 254/168/371 201/171/375 198/427/366 257/436/378
f 202/167/370 254/168/371 257/436/378 195/439/364
f 259/286/291 258/540/290 147/538/379 149/271/380
f 149/271/380 156/255/381 260/270/319 259/286/291
f 156/255/381 157/254/382 261/269/321 260/270/319
f 157/254/382 238/268/383 262/283/323 261/269/321
f 263/297/325 262/283/323 238/268/383 158/282/384
f 158/282/384 159/296/385 264/694/326 263/297/325
f 159/676/385 160/309/386 265/326/329 264/312/326
f 160/309/386 161/325/387 266/338/331 265/326/329
f 161/325/387 219/547/388 267/550/334 266/338/331
f 268/549/335 267/550/334 219/547/388 162/548/389
f 162/548/389 163/145/390 269/152/337 268/549/335
f 163/145/390 164/137/391 270/144/339 269/152/337
f 164/137/391 165/136/392 271/143/341 270/144/339
f 165/136/392 251/140/393 272/147/343 271/143/341
f 273/154/345 272/147/343 251/140/393 166/146/394
f 166/146/394 167/153/395 274/161/346 273/154/345
f 167/153/395 168/160/396 275/164/315 274/161/346
f 168/160/396 148/543/397 276/544/316 275/164/315
f 278/588/398 277/594/399 151/437/289 213/432/294
f 277/594/399 279/593/400 258/540/290 151/437/289
f 279/593/400 280/592/401 147/538/379 258/540/290
f 280/592/401 281/591/402 212/541/403 147/538/379
f 281/591/402 282/590/404 148/543/397 212/541/403
f 282/590/404 283/589/405 276/544/316 148/543/397
f 283/589/405 284/587/406 154/431/293 276/544/316
f 284/587/406 278/588/398 213/432/294 154/431/293
f 286/361/407 277/360/399 278/448/398 285/449/408
f 285/449/408 278/448/398 284/375/406 287/374/409
f 285/449/408 288/450/410 289/364/411 286/361/407
f 288/450/410 285/449/408 287/374/409 290/378/412
f 292/671/413 289/364/411 288/450/410 291/674/414
f 290/378/412 293/379/415 291/674/414 288/450/410
f 279/356/400 294/357/416 295/672/417 280/359/401
f 294/357/416 279/356/400 277/360/399 286/361/407
f 294/357/416 296/362/418 297/363/419 295/672/417
f 296/362/418 294/357/416 286/361/407 289/364/411
f 280/673/401 295/358/417 298/452/420 281/453/402
f 299/454/421 298/452/420 295/358/417 297/669/419
f 281/453/402 298/452/420 300/369/422 282/368/404
f 298/452/420 299/454/421 301/372/423 300/369/422
f 282/368/404 300/369/422 302/370/424 283/371/405
f 283/371/405 302/370/424 287/374/409 284/375/406
f 300/369/422 301/372/423 303/373/425 302/370/424
f 290/378/412 287/374/409 302/370/424 303/373/425
f 289/364/411 292/671/413 304/670/426 296/362/418
f 296/362/418 304/670/426 305/668/427 297/363/419
f 306/455/428 299/454/421 297/669/419 305/366/427
f 299/454/421 306/455/428 307/667/429 301/372/423
f 301/372/423 307/667/429 308/665/430 303/373/425
f 303/373/425 308/665/430 293/379/415 290/378/412
f 306/455/428 305/366/427 304/365/426 309/456/431
f 307/376/429 306/455/428 309/456/431 308/377/430
f 291/451/414 293/666/415 308/377/430 309/456/431
f 309/456/431 304/365/426 292/367/413 291/451/414
f 3/7/6 4/457/5 333/459/432 332/621/433
f 333/459/432 4/457/5 207/463/26 334/464/434
f 207/463/26 18/242/34 335/469/435 334/464/434
f 18/242/34 21/213/33 336/200/436 335/469/435
f 21/213/33 24/201/37 337/190/437 336/200/436
f 24/201/37 27/202/42 338/191/438 337/190/437
f 27/202/42 233/216/84 339/203/439 338/191/438
f 233/216/84 47/232/72 340/217/440 339/203/439
f 47/232/72 41/693/63 341/692/441 340/217/440
f 41/248/63 39/264/62 342/249/442 341/233/441
f 39/264/62 32/279/61 343/280/443 342/249/442
f 32/279/61 224/510/47 344/508/444 343/280/443
f 224/510/47 31/511/50 345/509/445 344/508/444
f 31/511/50 36/52/54 346/66/446 345/509/445
f 36/52/54 45/37/70 347/50/447 346/66/446
f 45/37/70 51/23/78 348/35/448 347/50/447
f 51/23/78 246/11/80 349/21/449 348/35/448
f 246/11/80 9/4/12 350/10/450 349/21/449
f 9/4/12 7/625/9 351/619/451 350/10/450
f 7/3/9 16/17/22 352/18/452 351/9/451
f 16/17/22 15/29/21 353/30/453 352/18/452
f 15/29/21 3/623/6 332/460/433 353/30/453
f 311/465/454 310/466/455 332/621/433 333/459/432
f 353/30/453 332/460/433 310/618/455 331/44/456
f 331/44/456 330/31/457 352/18/452 353/30/453
f 330/31/457 329/620/458 351/9/451 352/18/452
f 350/10/450 351/619/451 329/19/458 328/20/459
f 328/20/459 327/34/460 349/21/449 350/10/450
f 327/34/460 326/49/461 348/35/448 349/21/449
f 326/49/461 325/65/462 347/50/447 348/35/448
f 325/65/462 324/79/463 346/66/446 347/50/447
f 324/79/463 323/506/464 345/509/445 346/66/446
f 323/506/464 322/505/465 344/508/444 345/509/445
f 343/280/443 344/508/444 322/505/465 321/507/466
f 342/249/442 343/280/443 321/507/466 320/234/467
f 341/233/441 342/249/442 320/234/467 319/218/468
f 340/217/440 341/692/441 319/691/468 318/204/469
f 318/204/469 317/192/470 339/203/439 340/217/440
f 317/192/470 316/182/471 338/191/438 339/203/439
f 316/182/471 315/181/472 337/190/437 338/191/438
f 315/181/472 314/189/473 336/200/436 337/190/437
f 314/189/473 313/476/474 335/469/435 336/200/436
f 334/464/434 335/469/435 313/476/474 312/470/475
f 333/459/432 334/464/434 312/470/475 311/465/454
f 355/471/4 354/617/3 310/466/455 311/465/454
f 311/465/454 312/470/475 356/477/23 355/471/4
f 312/470/475 313/476/474 357/483/29 356/477/23
f 358/180/30 357/483/29 313/476/474 314/189/473
f 359/175/36 358/180/30 314/189/473 315/181/472
f 360/176/40 359/175/36 315/181/472 316/182/471
f 361/183/85 360/176/40 316/182/471 317/192/470
f 362/193/73 361/183/85 317/192/470 318/204/469
f 318/204/469 319/691/468 363/690/65 362/193/73
f 319/218/468 320/234/467 364/219/55 363/205/65
f 320/234/467 321/507/466 365/504/56 364/219/55
f 321/507/466 322/505/465 366/502/45 365/504/56
f 367/503/46 366/502/45 322/505/465 323/506/464
f 368/94/52 367/503/46 323/506/464 324/79/463
f 369/78/68 368/94/52 324/79/463 325/65/462
f 370/64/76 369/78/68 325/65/462 326/49/461
f 371/48/81 370/64/76 326/49/461 327/34/460
f 372/33/13 371/48/81 327/34/460 328/20/459
f 328/20/459 329/19/458 373/615/14 372/33/13
f 374/45/19 373/32/14 329/620/458 330/31/457
f 375/60/20 374/45/19 330/31/457 331/44/456
f 331/44/456 310/618/455 354/472/3 375/60/20
f 209/490/211 377/495/476 376/491/477 101/485/212
f 102/494/249 378/498/478 377/495/476 209/490/211
f 379/199/479 378/498/478 102/494/249 108/188/248
f 380/187/480 379/199/479 108/188/248 109/178/247
f 381/186/481 380/187/480 109/178/247 111/177/246
f 235/185/245 382/196/482 381/186/481 111/177/246
f 383/208/483 382/196/482 235/185/245 113/195/244
f 384/689/484 383/208/483 113/195/244 115/207/243
f 385/235/485 384/222/484 115/699/243 117/221/242
f 386/532/486 385/235/485 117/221/242 119/413/241
f 222/411/240 387/534/487 386/532/486 119/413/241
f 388/536/488 387/534/487 222/411/240 122/410/239
f 130/124/261 389/123/489 388/536/488 122/410/239
f 127/107/260 390/117/490 389/123/489 130/124/261
f 125/92/255 391/106/491 390/117/490 127/107/260
f 248/76/254 392/91/492 391/106/491 125/92/255
f 123/62/262 393/75/493 392/91/492 248/76/254
f 123/62/262 14/61/18 394/74/494 393/75/493
f 13/73/17 395/88/495 394/74/494 14/61/18
f 13/73/17 101/485/212 376/491/477 395/88/495
f 376/491/477 377/495/476 397/499/208 396/496/207
f 377/495/476 378/498/478 398/501/219 397/499/208
f 399/212/220 398/501/219 378/498/478 379/199/479
f 400/198/222 399/212/220 379/199/479 380/187/480
f 401/197/224 400/198/222 380/187/480 381/186/481
f 381/186/481 382/196/482 402/209/225 401/197/224
f 403/223/229 402/209/225 382/196/482 383/208/483
f 404/687/230 403/223/229 383/208/483 384/689/484
f 405/250/232 404/236/230 384/222/484 385/235/485
f 406/531/234 405/250/232 385/235/485 386/532/486
f 386/532/486 387/534/487 407/533/237 406/531/234
f 408/535/238 407/533/237 387/534/487 388/536/488
f 388/536/488 389/123/489 409/128/258 408/535/238
f 389/123/489 390/117/490 410/122/256 409/128/258
f 390/117/490 391/106/491 411/116/250 410/122/256
f 391/106/491 392/91/492 412/105/251 411/116/250
f 392/91/492 393/75/493 413/90/263 412/105/251
f 393/75/493 394/74/494 414/89/213 413/90/263
f 394/74/494 395/88/495 415/102/214 414/89/213
f 395/88/495 376/491/477 396/496/207 415/102/214
f 205/481/129 417/474/88 416/467/87 53/473/130
f 418/482/119 417/474/88 205/481/129 54/488/151
f 54/488/151 65/272/148 419/258/115 418/482/119
f 66/260/147 420/244/116 419/258/115 65/272/148
f 55/259/134 421/245/92 420/244/116 66/260/147
f 422/261/93 421/245/92 55/259/134 231/273/133
f 423/276/114 422/261/93 231/273/133 56/289/145
f 424/685/107 423/276/114 56/289/145 63/686/140
f 64/322/139 425/308/108 424/292/107 63/305/140
f 57/523/143 426/520/111 425/308/108 64/322/139
f 427/518/96 426/520/111 57/523/143 226/521/136
f 428/519/97 427/518/96 226/521/136 58/522/135
f 429/80/106 428/519/97 58/522/135 62/81/165
f 430/53/103 429/80/106 62/81/165 61/67/163
f 59/54/162 431/38/100 430/53/103 61/67/163
f 432/24/101 431/38/100 59/54/162 244/39/161
f 433/13/122 432/24/101 244/39/161 60/25/157
f 434/14/123 433/13/122 60/25/157 67/26/154
f 435/27/125 434/14/123 67/26/154 68/42/153
f 68/42/153 53/473/130 416/467/87 435/27/125
f 204/497/496 464/493/497 465/486/498 95/492/499
f 96/500/500 463/317/501 464/493/497 204/497/496
f 462/302/502 463/317/501 96/500/500 97/318/503
f 461/290/504 462/302/502 97/318/503 98/306/505
f 460/291/506 461/290/504 98/306/505 99/307/507
f 230/319/508 459/303/509 460/291/506 99/307/507
f 458/320/510 459/303/509 230/319/508 100/332/511
f 457/334/512 458/320/510 100/332/511 85/683/513
f 456/345/514 457/682/512 85/343/513 86/350/515
f 475/353/516 456/345/514 86/350/515 87/354/517
f 227/529/518 474/527/519 475/353/516 87/354/517
f 473/528/520 474/527/519 227/529/518 88/530/521
f 472/109/522 473/528/520 88/530/521 89/118/523
f 471/96/524 472/109/522 89/118/523 90/110/525
f 470/83/526 471/96/524 90/110/525 91/97/527
f 243/84/528 469/69/529 470/83/526 91/97/527
f 468/56/530 469/69/529 243/84/528 92/70/531
f 467/57/532 468/56/530 92/70/531 93/71/533
f 466/72/534 467/57/532 93/71/533 94/87/535
f 95/492/499 465/486/498 466/72/534 94/87/535
f 445/335/142 444/321/141 457/682/512 456/345/514
f 444/684/141 443/304/146 458/320/510 457/334/512
f 443/304/146 442/288/132 459/303/509 458/320/510
f 460/291/506 459/303/509 442/288/132 441/275/131
f 441/275/131 440/274/150 461/290/504 460/291/506
f 440/274/150 439/287/149 462/302/502 461/290/504
f 439/287/149 438/316/152 463/317/501 462/302/502
f 464/493/497 463/317/501 438/316/152 437/487/128
f 465/486/498 464/493/497 437/487/128 436/480/127
f 466/72/534 465/486/498 436/480/127 455/58/156
f 455/58/156 454/41/155 467/57/532 466/72/534
f 454/41/155 453/40/158 468/56/530 467/57/532
f 453/40/158 452/55/160 469/69/529 468/56/530
f 470/83/526 469/69/529 452/55/160 451/68/159
f 451/68/159 450/82/164 471/96/524 470/83/526
f 450/82/164 449/95/166 472/109/522 471/96/524
f 449/95/166 448/525/138 473/528/520 472/109/522
f 448/525/138 447/524/137 474/527/519 473/528/520
f 475/353/516 474/527/519 447/524/137 446/526/144
f 446/526/144 445/335/142 456/345/514 475/353/516
f 86/350/515 85/343/513 477/680/168 476/352/167
f 478/342/205 477/349/168 85/683/513 100/332/511
f 100/332/511 230/319/508 479/333/204 478/342/205
f 480/324/201 479/333/204 230/319/508 99/307/507
f 99/307/507 98/306/505 481/323/199 480/324/201
f 98/306/505 97/318/503 482/331/195 481/323/199
f 97/318/503 96/500/500 483/381/196 482/331/195
f 96/500/500 204/497/496 484/384/194 483/381/196
f 485/388/191 484/384/194 204/497/496 95/492/499
f 95/492/499 94/87/535 486/101/189 485/388/191
f 94/87/535 93/71/533 487/86/185 486/101/189
f 93/71/533 92/70/531 488/85/186 487/86/185
f 92/70/531 243/84/528 489/98/184 488/85/186
f 490/111/181 489/98/184 243/84/528 91/97/527
f 91/97/527 90/110/525 491/119/180 490/111/181
f 492/125/178 491/119/180 90/110/525 89/118/523
f 493/408/173 492/125/178 89/118/523 88/530/521
f 88/530/521 227/529/518 494/406/174 493/408/173
f 495/404/171 494/406/174 227/529/518 87/354/517
f 87/354/517 86/350/515 476/352/167 495/404/171
f 497/458/8 496/8/7 5/15/126 6/662/90
f 6/662/90 206/651/89 498/462/25 497/458/8
f 499/241/31 498/462/25 206/651/89 19/652/120
f 19/652/120 22/661/118 500/228/32 499/241/31
f 501/214/38 500/228/32 22/661/118 25/660/117
f 502/215/41 501/214/38 25/660/117 28/653/91
f 28/653/91 232/647/94 503/231/83 502/215/41
f 504/247/71 503/231/83 232/647/94 48/262/113
f 42/679/110 505/677/64 504/247/71 48/262/113
f 506/278/59 505/263/64 42/277/110 40/293/109
f 33/517/112 507/514/60 506/278/59 40/293/109
f 508/512/48 507/514/60 33/517/112 225/515/95
f 509/513/49 508/512/48 225/515/95 34/650/98
f 34/650/98 37/657/105 510/51/53 509/513/49
f 37/657/105 46/655/104 511/36/69 510/51/53
f 52/654/99 512/22/77 511/36/69 46/655/104
f 52/654/99 245/645/102 513/12/79 512/22/77
f 514/1/11 513/12/79 245/645/102 10/5/121
f 10/5/121 8/6/124 515/2/10 514/1/11
f 496/8/7 515/2/10 8/6/124 5/15/126
f 517/539/285 516/537/288 147/538/379 212/541/403
f 518/542/286 517/539/285 212/541/403 148/543/397
f 168/160/396 519/159/314 518/542/286 148/543/397
f 520/149/312 519/159/314 168/160/396 167/153/395
f 521/141/313 520/149/312 167/153/395 166/146/394
f 251/140/393 522/134/311 521/141/313 166/146/394
f 165/136/392 523/132/310 522/134/311 251/140/393
f 524/133/309 523/132/310 165/136/392 164/137/391
f 163/145/390 525/138/308 524/133/309 164/137/391
f 162/548/389 526/545/306 525/138/308 163/145/390
f 219/547/388 527/546/307 526/545/306 162/548/389
f 161/325/387 528/311/305 527/546/307 219/547/388
f 529/294/304 528/311/305 161/325/387 160/309/386
f 159/676/385 530/675/302 529/294/304 160/309/386
f 531/267/303 530/281/302 159/296/385 158/282/384
f 532/253/301 531/267/303 158/282/384 238/268/383
f 533/239/300 532/253/301 238/268/383 157/254/382
f 157/254/382 156/255/381 534/240/299 533/239/300
f 149/271/380 535/256/287 534/240/299 156/255/381
f 516/537/288 535/256/287 149/271/380 147/538/379
f 537/386/536 80/382/197 203/385/193 536/390/537
f 79/389/192 538/394/538 536/390/537 203/385/193
f 83/337/202 539/383/539 540/387/540 229/344/203
f 541/393/541 84/348/206 229/344/203 540/387/540
f 543/395/542 76/99/187 242/112/183 542/397/543
f 74/120/182 544/400/544 542/397/543 242/112/183
f 71/401/172 545/399/545 546/398/546 228/402/175
f 547/403/547 72/405/176 228/402/175 546/398/546
f 72/405/176 547/403/547 544/400/544 75/407/177
f 78/113/190 543/395/542 538/394/538 79/389/192
f 80/382/197 537/386/536 539/383/539 81/380/198
f 545/399/545 71/401/172 70/355/170 541/393/541
f 74/120/182 73/567/179 75/407/177 544/400/544
f 69/702/169 84/348/206 541/393/541 70/355/170
f 81/380/198 539/383/539 83/337/202 82/336/200
f 543/395/542 78/113/190 77/100/188 76/99/187
f 549/392/548 542/397/543 544/400/544 548/396/549
f 550/391/550 543/395/542 542/397/543 549/392/548
f 549/392/548 540/387/540 539/383/539 550/391/550
f 548/396/549 541/393/541 540/387/540 549/392/548
f 546/398/546 545/399/545 541/393/541 548/396/549
f 547/403/547 546/398/546 548/396/549 544/400/544
f 543/395/542 550/391/550 536/390/537 538/394/538
f 537/386/536 536/390/537 550/391/550 539/383/539
