# This file uses centimeters as units for non-parametric coordinates.

mtllib CinnamonBun.mtl
g default
v 0.285336 0.388858 -0.246975
v 0.022605 0.384706 -0.353564
v 0.024643 0.419776 -0.011480
v 0.351175 0.392002 -0.009561
v 0.020161 0.380415 0.359444
v 0.245222 0.381115 0.275419
v -0.225539 0.363458 0.294340
v -0.326450 0.405423 -0.009613
v -0.239143 0.391058 -0.282878
v -0.296202 -0.010905 -0.329926
v 0.016207 -0.009728 -0.433150
v -0.414013 -0.019060 0.021518
v -0.307101 -0.019682 0.286070
v 0.039706 -0.023588 0.411526
v 0.292872 -0.023370 0.275359
v 0.416641 -0.018057 -0.044378
v 0.312747 -0.009653 -0.316562
v -0.009715 -0.026754 -0.045172
v -0.290040 0.277396 -0.355409
v 0.008462 0.271491 -0.455696
v 0.347097 0.279556 -0.300855
v 0.457379 0.279465 0.001419
v 0.308518 0.288571 0.330390
v 0.027298 0.290274 0.449749
v -0.301272 0.299642 0.330795
v -0.415185 0.297678 -0.012107
v -0.314236 0.055295 -0.365885
v 0.006210 0.069902 -0.479121
v 0.354974 0.065480 -0.326469
v 0.477018 0.064334 -0.022852
v 0.336373 0.063839 0.342962
v 0.045454 0.058221 0.481775
v -0.330352 0.067812 0.348528
v -0.478926 0.067146 0.011702
v -0.311447 0.018684 -0.356360
v 0.014809 0.024973 -0.466784
v 0.340178 0.018976 -0.326914
v 0.461525 0.017248 -0.035699
v 0.328390 0.006331 0.323234
v 0.045615 0.005939 0.465951
v -0.330472 0.016484 0.329940
v -0.464043 0.015608 0.018769
v 0.012724 0.345997 -0.421175
v -0.275924 0.343064 -0.334259
v -0.383908 0.349837 -0.010007
v -0.272291 0.336573 0.328475
v 0.025447 0.337678 0.424834
v 0.285131 0.343670 0.313229
v 0.435316 0.342208 -0.004445
v 0.326942 0.345455 -0.285011
v 0.019481 0.419016 -0.153819
v 0.333395 0.391137 -0.143782
v 0.408172 0.344111 -0.149366
v 0.429434 0.281543 -0.158201
v 0.443365 0.067537 -0.183734
v 0.427357 0.017599 -0.187003
v 0.377264 -0.018635 -0.181902
v 0.002680 -0.024433 -0.237520
v -0.383771 -0.012867 -0.166799
v -0.408969 0.018649 -0.193879
v -0.413218 0.060404 -0.203181
v -0.393193 0.283668 -0.207996
v -0.368878 0.346963 -0.188346
v -0.310851 0.393134 -0.171176
v 0.174855 0.386411 -0.310535
v 0.185526 0.410911 -0.150541
v 0.194390 0.418819 -0.007930
v 0.141702 0.380086 0.323148
v 0.180740 0.326491 0.391878
v 0.198986 0.283943 0.406058
v 0.226154 0.059279 0.424325
v 0.216662 0.010171 0.413224
v 0.196349 -0.022693 0.358934
v 0.237827 -0.026101 -0.044809
v 0.216070 -0.009294 -0.202085
v 0.193636 -0.011205 -0.394554
v 0.211698 0.020632 -0.421938
v 0.232885 0.068228 -0.422399
v 0.213933 0.274387 -0.404622
v 0.204104 0.346076 -0.374433
v -0.113374 0.372575 0.333706
v -0.152972 0.417893 -0.008544
v -0.139365 0.414514 -0.160253
v -0.128725 0.390041 -0.331249
v -0.139589 0.347763 -0.398060
v -0.151862 0.272851 -0.430638
v -0.187471 0.061046 -0.443976
v -0.176071 0.016295 -0.435400
v -0.157358 -0.018583 -0.390280
v -0.177010 -0.021839 -0.196359
v -0.211888 -0.025437 -0.017110
v -0.149943 -0.022685 0.382697
v -0.166126 0.008350 0.435122
v -0.175271 0.059087 0.448580
v -0.154462 0.286490 0.423421
v -0.137977 0.333006 0.403011
v 0.320187 0.389285 0.152096
v 0.183951 0.411052 0.158088
v 0.020266 0.402704 0.161432
v -0.130675 0.403496 0.151027
v -0.309440 0.362699 0.154782
v -0.367054 0.343679 0.165061
v -0.413524 0.308952 0.175931
v -0.437110 0.067890 0.195332
v -0.428206 0.013659 0.174454
v -0.377011 -0.019641 0.167864
v -0.173744 -0.021466 0.159761
v 0.014302 -0.026953 0.176740
v 0.212275 -0.022542 0.138127
v 0.377048 -0.021601 0.137215
v 0.429285 0.008762 0.157645
v 0.442946 0.057839 0.178155
v 0.422525 0.278478 0.173717
v 0.402810 0.339127 0.162282
vt 0.340753 0.498726
vt 0.370442 0.448056
vt 0.413113 0.505198
vt 0.359241 0.546151
vt 0.412308 0.580210
vt 0.459979 0.565984
vt 0.470459 0.461927
vt 0.493463 0.524885
vt 0.422684 0.427655
vt 0.454159 0.828389
vt 0.497804 0.776545
vt 0.480784 0.701976
vt 0.433437 0.666877
vt 0.358589 0.682068
vt 0.328513 0.733561
vt 0.341620 0.803510
vt 0.389510 0.839986
vt 0.416561 0.757194
vt 0.870550 0.458552
vt 0.864806 0.523926
vt 0.867304 0.601966
vt 0.873450 0.669009
vt 0.976144 0.444031
vt 0.969262 0.507726
vt 0.968570 0.581310
vt 0.976242 0.658202
vt 0.825030 0.451246
vt 0.822910 0.522010
vt 0.822631 0.601665
vt 0.828671 0.669474
vt 0.930416 0.434543
vt 0.921186 0.500624
vt 0.920023 0.584048
vt 0.926449 0.660869
vt 0.505870 0.780196
vt 0.459596 0.836898
vt 0.385219 0.847334
vt 0.330672 0.808323
vt 0.315577 0.728740
vt 0.350814 0.671851
vt 0.433508 0.654132
vt 0.491918 0.696016
vt 0.362293 0.434041
vt 0.422472 0.411250
vt 0.483815 0.452314
vt 0.506677 0.524983
vt 0.468819 0.579643
vt 0.410244 0.593823
vt 0.343922 0.559204
vt 0.326111 0.497422
vt 0.396197 0.481097
vt 0.345534 0.521767
vt 0.883941 0.634617
vt 0.870334 0.635739
vt 0.825671 0.635962
vt 0.353834 0.831892
vt 0.363462 0.823378
vt 0.435307 0.792378
vt 0.495838 0.738432
vt 0.925576 0.706508
vt 0.934657 0.706467
vt 0.981152 0.698777
vt 0.457355 0.424028
vt 0.448380 0.436996
vt 0.350666 0.474298
vt 0.369344 0.502192
vt 0.385618 0.526716
vt 0.435462 0.575363
vt 0.981041 0.474556
vt 0.971642 0.471140
vt 0.925491 0.462152
vt 0.325524 0.699969
vt 0.336524 0.708315
vt 0.372958 0.783962
vt 0.393955 0.809370
vt 0.418829 0.840714
vt 0.811970 0.565974
vt 0.822014 0.569831
vt 0.864942 0.567408
vt 0.335769 0.466331
vt 0.479407 0.545410
vt 0.442584 0.483792
vt 0.421476 0.460451
vt 0.398395 0.433086
vt 0.883978 0.492266
vt 0.866806 0.490703
vt 0.823309 0.481713
vt 0.489945 0.809460
vt 0.480013 0.802100
vt 0.462413 0.765796
vt 0.449226 0.730488
vt 0.395270 0.666643
vt 0.907741 0.544991
vt 0.918785 0.546175
vt 0.966355 0.545540
vt 0.493803 0.554944
vt 0.384517 0.568933
vt 0.407898 0.552690
vt 0.435511 0.533192
vt 0.459177 0.512697
vt 0.490610 0.490845
vt 0.982927 0.618048
vt 0.971187 0.620232
vt 0.921622 0.622421
vt 0.468238 0.671722
vt 0.458566 0.680145
vt 0.423428 0.703434
vt 0.388339 0.720727
vt 0.357559 0.749000
vt 0.328651 0.767202
vt 0.821328 0.708922
vt 0.832570 0.711482
vt 0.878525 0.704872
vt 0.370638 0.583547
vt 0.891603 0.701238
vt 0.886922 0.665957
vt 0.502142 0.485377
vt 0.977346 0.577179
vt 0.977275 0.544077
vt 0.980174 0.508752
vt 0.390990 0.418346
vt 0.884937 0.459648
vt 0.881091 0.568032
vt 0.881675 0.525708
vt 0.438447 0.594927
vt 0.988633 0.447113
vt 0.994558 0.692522
vt 0.988544 0.655551
vt 0.329764 0.531103
vt 0.881842 0.600793
vt 0.315674 0.769691
vt 0.918382 0.430967
vt 0.910291 0.626809
vt 0.915433 0.661210
vt 0.392215 0.653943
vt 0.909087 0.586930
vt 0.813642 0.482649
vt 0.813342 0.523594
vt 0.419083 0.850193
vt 0.812647 0.600108
vt 0.914797 0.461614
vt 0.910093 0.499513
vt 0.505804 0.740126
vt 0.817374 0.449538
vt 0.814859 0.635042
vt 0.818203 0.667877
vt 0.877057 0.421808
vt 0.891605 0.423785
vt 0.830812 0.412615
vt 0.822151 0.410511
vt 0.981287 0.404033
vt 0.994514 0.407181
vt 0.935552 0.394623
vt 0.924741 0.391035
vn 0.256618 0.933012 -0.252262
vn 0.110762 0.953762 -0.279409
vn 0.074029 0.992960 -0.092466
vn 0.302613 0.945575 -0.119642
vn 0.250615 0.918169 0.306852
vn 0.308858 0.938871 0.152081
vn 0.057224 0.992634 0.106784
vn 0.084263 0.953333 0.289925
vn -0.090251 0.985750 0.141955
vn -0.257372 0.948899 0.182621
vn -0.217666 0.950940 0.219852
vn -0.114329 0.961501 0.249890
vn -0.232992 0.935284 -0.266380
vn -0.307642 0.941343 -0.138673
vn -0.048676 0.995006 -0.087147
vn -0.072977 0.957755 -0.278172
vn -0.248818 -0.546887 -0.799378
vn -0.055580 -0.982199 -0.179434
vn -0.187601 -0.969195 -0.159582
vn -0.613640 -0.517878 -0.596027
vn -0.201202 -0.975981 -0.083544
vn -0.808068 -0.491390 -0.324902
vn -0.778301 -0.547080 0.308142
vn -0.153797 -0.985594 0.070358
vn -0.149366 -0.980143 0.130419
vn -0.585707 -0.570561 0.575680
vn -0.070070 -0.987250 0.142929
vn -0.273352 -0.612444 0.741748
vn 0.137739 -0.984774 0.106059
vn 0.586161 -0.641516 0.494846
vn 0.346295 -0.626723 0.698068
vn 0.070971 -0.990701 0.116080
vn 0.177489 -0.982546 0.055682
vn 0.732921 -0.632518 0.250495
vn 0.649102 -0.483099 -0.587607
vn 0.782013 -0.532463 -0.323944
vn 0.162186 -0.981076 -0.105761
vn 0.148161 -0.974250 -0.169958
vn 0.082025 -0.979921 -0.181733
vn 0.330983 -0.417439 -0.846283
vn -0.026460 -0.999190 -0.030329
vn -0.016781 -0.999821 0.008720
vn 0.014003 -0.999890 0.004967
vn 0.020913 -0.998887 -0.042279
vn -0.218378 0.635173 -0.740855
vn -0.535538 0.592604 -0.601681
vn 0.312767 0.616024 -0.722974
vn 0.592434 0.595090 -0.543038
vn 0.739755 0.622227 -0.256118
vn 0.520974 0.666216 0.533613
vn 0.697588 0.653371 0.294070
vn 0.279105 0.660577 0.696950
vn -0.414931 0.766508 0.490202
vn -0.218831 0.696517 0.683357
vn -0.574116 0.791556 0.209356
vn -0.751125 0.603318 -0.267991
vn -0.308654 0.185594 -0.932892
vn -0.345457 0.044592 -0.937375
vn -0.709452 0.049120 -0.703040
vn -0.682664 0.174285 -0.709644
vn 0.420981 0.060122 -0.905075
vn 0.396512 0.185980 -0.898994
vn 0.742635 0.175007 -0.646426
vn 0.748427 0.048527 -0.661440
vn 0.925232 0.157945 -0.344963
vn 0.930254 0.037248 -0.365021
vn 0.740091 0.032232 0.671734
vn 0.923079 0.007924 0.384529
vn 0.907874 0.156826 0.388806
vn 0.718547 0.185251 0.670352
vn 0.398414 0.182814 0.898802
vn 0.421842 0.049092 0.905339
vn -0.689534 0.060466 0.721725
vn -0.340071 0.047637 0.939193
vn -0.325806 0.178696 0.928395
vn -0.677599 0.221541 0.701270
vn -0.905665 0.262581 0.332899
vn -0.922897 0.092514 0.373768
vn -0.924260 0.074354 -0.374453
vn -0.908670 0.190881 -0.371326
vn 0.077346 0.996870 0.016381
vn 0.318260 0.947899 0.014078
vn 0.751310 0.659570 0.022405
vn 0.989355 0.143035 0.026776
vn 0.999889 0.013584 0.006059
vn 0.804658 -0.593262 -0.023807
vn 0.200727 -0.979317 -0.025420
vn 0.020103 -0.999561 -0.021745
vn -0.024957 -0.999660 -0.007497
vn -0.183710 -0.982931 -0.009905
vn -0.845134 -0.534080 -0.022486
vn -0.992835 0.107725 -0.051707
vn -0.965246 0.253809 -0.062297
vn -0.720696 0.693238 -0.004231
vn -0.279590 0.958312 0.058889
vn -0.073515 0.995535 0.059203
vn 0.030002 0.956410 -0.290483
vn 0.011761 0.995245 -0.096692
vn -0.005283 0.999445 0.032882
vn -0.019876 0.993414 0.112842
vn -0.006731 0.956667 0.291105
vn 0.034608 0.696832 0.716399
vn 0.043723 0.181424 0.982432
vn 0.061833 0.051794 0.996742
vn 0.051279 -0.620725 0.782349
vn 0.008584 -0.990372 0.138167
vn -0.001224 -0.999966 0.008196
vn 0.020558 -0.999007 -0.039539
vn 0.005160 -0.999904 -0.012828
vn 0.025616 -0.977103 -0.211221
vn 0.047100 -0.467483 -0.882746
vn 0.048934 0.049130 -0.997593
vn 0.058932 0.185011 -0.980968
vn 0.054373 0.634662 -0.770875
s 1
g CinnamonBun_LOW Pickups
usemtl lambert1SG
f 1/1/1 65/65/2 66/66/3 52/52/4
f 6/5/5 97/97/6 98/98/7 68/68/8
f 100/100/9 101/101/10 7/8/11 81/81/12
f 9/9/13 64/64/14 83/83/15 84/84/16
f 88/88/17 89/89/18 10/11/19 35/35/20
f 59/59/21 60/143/22 35/35/20 10/11/19
f 105/105/23 106/106/24 13/13/25 41/41/26
f 13/13/25 92/92/27 93/135/28 41/41/26
f 15/15/29 39/39/30 72/72/31 73/73/32
f 15/15/29 110/110/33 111/131/34 39/39/30
f 37/37/35 56/56/36 57/57/37 17/17/38
f 76/76/39 77/139/40 37/37/35 17/17/38
f 10/11/19 89/89/18 90/90/41 59/59/21
f 106/106/24 107/107/42 92/92/27 13/13/25
f 73/73/32 109/109/43 110/110/33 15/15/29
f 75/75/44 76/76/39 17/17/38 57/57/37
f 84/84/16 85/121/45 44/44/46 9/9/13
f 80/80/47 65/65/2 1/1/1 50/50/48
f 52/52/4 53/129/49 50/50/48 1/1/1
f 48/48/50 114/114/51 97/97/6 6/5/5
f 68/68/8 69/125/52 48/48/50 6/5/5
f 46/46/53 96/96/54 81/81/12 7/8/11
f 101/101/10 102/117/55 46/46/53 7/8/11
f 63/63/56 64/64/14 9/9/13 44/44/46
f 86/86/57 87/87/58 27/27/59 19/19/60
f 78/78/61 79/79/62 21/21/63 29/29/64
f 21/21/63 54/54/65 55/55/66 29/29/64
f 31/31/67 112/153/68 113/151/69 23/23/70
f 70/70/71 71/71/72 31/31/67 23/23/70
f 33/33/73 94/94/74 95/95/75 25/25/76
f 103/103/77 104/104/78 33/33/73 25/25/76
f 61/149/79 62/147/80 19/19/60 27/27/59
f 87/87/58 88/137/17 35/144/20 27/27/59
f 77/77/40 78/78/61 29/29/64 37/140/35
f 29/29/64 55/55/66 56/145/36 37/140/35
f 39/132/30 111/154/34 112/153/68 31/31/67
f 71/71/72 72/141/31 39/132/30 31/31/67
f 41/136/26 93/93/28 94/94/74 33/33/73
f 104/104/78 105/133/23 41/136/26 33/33/73
f 60/150/22 61/149/79 27/27/59 35/144/20
f 85/85/45 86/86/57 19/19/60 44/122/46
f 62/147/80 63/148/56 44/122/46 19/19/60
f 102/102/55 103/103/77 25/25/76 46/118/53
f 25/25/76 95/95/75 96/119/54 46/118/53
f 69/69/52 70/70/71 23/23/70 48/126/50
f 23/23/70 113/151/69 114/152/51 48/126/50
f 50/130/48 53/53/49 54/54/65 21/21/63
f 79/79/62 80/123/47 50/130/48 21/21/63
f 52/52/4 66/66/3 67/67/81 4/4/82
f 4/4/82 49/49/83 53/129/49 52/52/4
f 54/54/65 53/53/49 49/116/83 22/22/84
f 55/55/66 54/54/65 22/22/84 30/30/85
f 56/145/36 55/55/66 30/30/85 38/146/86
f 57/57/37 56/56/36 38/38/86 16/16/87
f 74/74/88 75/75/44 57/57/37 16/16/87
f 59/59/21 90/90/41 91/91/89 12/12/90
f 42/42/91 60/143/22 59/59/21 12/12/90
f 34/34/92 61/61/79 60/60/22 42/134/91
f 26/26/93 62/62/80 61/61/79 34/34/92
f 45/128/94 63/127/56 62/62/80 26/26/93
f 8/7/95 64/64/14 63/63/56 45/45/94
f 82/82/96 83/83/15 64/64/14 8/7/95
f 66/66/3 65/65/2 2/2/97 51/51/98
f 67/67/81 66/66/3 51/51/98 3/3/99
f 68/68/8 98/98/7 99/99/100 5/6/101
f 47/47/102 69/125/52 68/68/8 5/6/101
f 24/24/103 70/70/71 69/69/52 47/120/102
f 32/32/104 71/71/72 70/70/71 24/24/103
f 40/142/105 72/141/31 71/71/72 32/32/104
f 73/73/32 72/72/31 40/40/105 14/14/106
f 14/14/106 108/108/107 109/109/43 73/73/32
f 58/58/108 75/75/44 74/74/88 18/18/109
f 11/10/110 76/76/39 75/75/44 58/58/108
f 36/36/111 77/139/40 76/76/39 11/10/110
f 28/28/112 78/78/61 77/77/40 36/138/111
f 20/20/113 79/79/62 78/78/61 28/28/112
f 43/124/114 80/123/47 79/79/62 20/20/113
f 2/2/97 65/65/2 80/80/47 43/43/114
f 99/99/100 100/100/9 81/81/12 5/6/101
f 51/51/98 83/83/15 82/82/96 3/3/99
f 84/84/16 83/83/15 51/51/98 2/2/97
f 43/43/114 85/121/45 84/84/16 2/2/97
f 20/20/113 86/86/57 85/85/45 43/124/114
f 28/28/112 87/87/58 86/86/57 20/20/113
f 36/138/111 88/137/17 87/87/58 28/28/112
f 11/10/110 89/89/18 88/88/17 36/36/111
f 90/90/41 89/89/18 11/10/110 58/58/108
f 91/91/89 90/90/41 58/58/108 18/18/109
f 14/14/106 92/92/27 107/107/42 108/108/107
f 93/135/28 92/92/27 14/14/106 40/40/105
f 94/94/74 93/93/28 40/142/105 32/32/104
f 95/95/75 94/94/74 32/32/104 24/24/103
f 96/119/54 95/95/75 24/24/103 47/120/102
f 81/81/12 96/96/54 47/47/102 5/6/101
f 98/98/7 97/97/6 4/4/82 67/67/81
f 99/99/100 98/98/7 67/67/81 3/3/99
f 82/82/96 100/100/9 99/99/100 3/3/99
f 8/7/95 101/101/10 100/100/9 82/82/96
f 45/45/94 102/117/55 101/101/10 8/7/95
f 26/26/93 103/103/77 102/102/55 45/128/94
f 34/34/92 104/104/78 103/103/77 26/26/93
f 42/134/91 105/133/23 104/104/78 34/34/92
f 12/12/90 106/106/24 105/105/23 42/42/91
f 91/91/89 107/107/42 106/106/24 12/12/90
f 108/108/107 107/107/42 91/91/89 18/18/109
f 109/109/43 108/108/107 18/18/109 74/74/88
f 110/110/33 109/109/43 74/74/88 16/16/87
f 111/131/34 110/110/33 16/16/87 38/38/86
f 112/112/68 111/111/34 38/146/86 30/30/85
f 113/113/69 112/112/68 30/30/85 22/22/84
f 114/115/51 113/113/69 22/22/84 49/116/83
f 97/97/6 114/114/51 49/49/83 4/4/82
