# This file uses centimeters as units for non-parametric coordinates.

mtllib Coffee.mtl
g default
v -0.206308 0.044732 0.206308
v 0.206308 0.044732 0.206308
v -0.206308 0.044732 -0.206308
v 0.206308 0.044732 -0.206308
v -0.000000 0.044732 -0.291763
v 0.291763 0.044732 -0.000000
v -0.291763 0.044732 0.000000
v 0.000000 0.044732 0.291763
v 0.000000 1.525644 0.000000
v 0.000000 0.044732 -0.000000
v -0.152200 1.525306 0.152199
v -0.000000 1.525302 0.215243
v 0.152200 1.525129 0.152200
v -0.152200 1.524897 -0.152200
v 0.000000 1.524724 -0.215243
v 0.152200 1.524720 -0.152199
v -0.215243 1.525138 -0.000000
v 0.215243 1.524888 0.000000
v -0.412621 1.443726 -0.000000
v -0.291767 1.443726 0.291767
v 0.000000 1.443726 0.412621
v 0.291767 1.443726 0.291767
v 0.412621 1.443726 -0.000000
v 0.291767 1.443726 -0.291767
v 0.000000 1.443726 -0.412621
v -0.291767 1.443726 -0.291767
v -0.000000 1.525644 0.113752
v -0.113752 1.525644 -0.000000
v 0.113752 1.525644 0.000000
v 0.000000 1.525644 -0.113752
v -0.380020 1.443726 -0.157410
v -0.380020 1.443726 0.157410
v -0.157410 1.443726 0.380020
v 0.157410 1.443726 0.380020
v 0.380020 1.443726 0.157410
v 0.380020 1.443726 -0.157410
v 0.157410 1.443726 -0.380020
v -0.157410 1.443726 -0.380020
v -0.111653 0.044732 -0.269554
v 0.000000 0.044732 -0.143893
v -0.143893 0.044732 0.000000
v -0.269554 0.044732 -0.111653
v 0.111653 0.044732 -0.269554
v 0.269554 0.044732 -0.111653
v 0.143893 0.044732 0.000000
v 0.269554 0.044732 0.111653
v 0.111653 0.044732 0.269554
v 0.000000 0.044732 0.143893
v -0.111653 0.044732 0.269554
v -0.269554 0.044732 0.111653
v -0.082370 1.525328 0.198858
v -0.198858 1.525239 0.082370
v 0.082370 1.525232 0.198858
v 0.198858 1.525008 0.082370
v -0.198858 1.525018 -0.082370
v -0.082370 1.524794 -0.198858
v 0.082370 1.524698 -0.198858
v 0.198858 1.524787 -0.082369
v -0.132525 0.044732 -0.132525
v 0.132525 0.044732 -0.132525
v 0.132525 0.044732 0.132525
v -0.132525 0.044732 0.132525
v -0.104765 1.525643 0.104765
v 0.104765 1.525644 0.104765
v 0.104765 1.525643 -0.104765
v -0.104765 1.525643 -0.104765
v -0.335897 1.409114 -0.335897
v -0.437499 1.409114 -0.181218
v -0.475031 1.409114 -0.000000
v -0.437499 1.409114 0.181218
v -0.335897 1.409114 0.335897
v -0.181218 1.409114 0.437499
v 0.000000 1.409114 0.475031
v 0.181218 1.409114 0.437499
v 0.335897 1.409114 0.335897
v 0.437499 1.409114 0.181218
v 0.475031 1.409114 0.000000
v 0.437499 1.409114 -0.181218
v 0.335897 1.409114 -0.335897
v 0.181218 1.409114 -0.437499
v 0.000000 1.409114 -0.475031
v -0.181218 1.409114 -0.437499
v -0.125719 1.524387 -0.303513
v -0.233027 1.524387 -0.233027
v -0.303513 1.524387 -0.125719
v -0.329550 1.524387 -0.000000
v -0.303513 1.524387 0.125719
v -0.233027 1.524387 0.233027
v -0.125719 1.524387 0.303513
v -0.000000 1.524387 0.329550
v 0.125719 1.524387 0.303513
v 0.233027 1.524387 0.233027
v 0.303513 1.524387 0.125719
v 0.329550 1.524387 0.000000
v 0.303513 1.524387 -0.125719
v 0.233027 1.524387 -0.233027
v 0.125719 1.524387 -0.303513
v 0.000000 1.524387 -0.329550
v -0.134597 1.489331 -0.324946
v -0.000000 1.489331 -0.352822
v 0.134597 1.489331 -0.324946
v 0.249483 1.489331 -0.249483
v 0.324946 1.489331 -0.134597
v 0.352822 1.489331 0.000000
v 0.324946 1.489331 0.134597
v 0.249483 1.489331 0.249483
v 0.134597 1.489331 0.324946
v -0.000000 1.489331 0.352822
v -0.134597 1.489331 0.324946
v -0.249483 1.489331 0.249483
v -0.324946 1.489331 0.134597
v -0.352822 1.489331 -0.000000
v -0.324946 1.489331 -0.134597
v -0.249483 1.489331 -0.249483
v 0.000000 1.491857 -0.376325
v 0.143563 1.491857 -0.346592
v 0.266102 1.491857 -0.266102
v 0.346592 1.491857 -0.143563
v 0.376325 1.491857 0.000000
v 0.346592 1.491857 0.143563
v 0.266102 1.491857 0.266102
v 0.143563 1.491857 0.346592
v 0.000000 1.491857 0.376325
v -0.143563 1.491857 0.346592
v -0.266102 1.491857 0.266102
v -0.346592 1.491857 0.143563
v -0.376325 1.491857 -0.000000
v -0.346592 1.491857 -0.143563
v -0.266102 1.491857 -0.266102
v -0.143563 1.491857 -0.346592
v 0.000000 1.526189 -0.403204
v 0.153817 1.526189 -0.371347
v 0.285108 1.526189 -0.285108
v 0.371347 1.526189 -0.153817
v 0.403204 1.526189 -0.000000
v 0.371347 1.526189 0.153817
v 0.285108 1.526189 0.285108
v 0.153817 1.526189 0.371347
v 0.000000 1.526189 0.403204
v -0.153817 1.526189 0.371347
v -0.285108 1.526189 0.285108
v -0.371347 1.526189 0.153817
v -0.403204 1.526189 -0.000000
v -0.371347 1.526189 -0.153817
v -0.285108 1.526189 -0.285108
v -0.153817 1.526189 -0.371347
v 0.000000 1.524449 -0.448031
v -0.170918 1.524449 -0.412633
v -0.316806 1.524449 -0.316806
v -0.412633 1.524449 -0.170918
v -0.448031 1.524449 -0.000000
v -0.412633 1.524448 0.170918
v -0.316806 1.524448 0.316806
v -0.170918 1.524448 0.412633
v 0.000000 1.524448 0.448031
v 0.170918 1.524448 0.412633
v 0.316806 1.524448 0.316806
v 0.412633 1.524448 0.170918
v 0.448031 1.524449 -0.000000
v 0.412633 1.524449 -0.170918
v 0.316806 1.524449 -0.316806
v 0.170918 1.524449 -0.412633
vt 0.306818 0.034266
vt 0.414418 0.026952
vt 0.199326 0.025583
vt 0.094075 0.000002
vt 0.146159 0.015114
vt 0.467712 0.017178
vt 0.252942 0.031962
vt 0.360711 0.032646
vt 0.148509 0.507952
vt 0.075190 0.924162
vt 0.112264 0.473995
vt 0.146891 0.458313
vt 0.182466 0.471707
vt 0.114551 0.544198
vt 0.150126 0.557593
vt 0.184754 0.541910
vt 0.098869 0.509570
vt 0.198149 0.506335
vt 0.313916 0.505469
vt 0.343209 0.578247
vt 0.415384 0.608993
vt 0.488161 0.579701
vt 0.518910 0.507527
vt 0.489617 0.434749
vt 0.417443 0.404002
vt 0.344666 0.433295
vt 0.051384 0.885370
vt 0.113983 0.900357
vt 0.098996 0.962955
vt 0.036397 0.947968
vt 0.123571 0.484588
vt 0.171873 0.483014
vt 0.173447 0.531316
vt 0.125145 0.532890
vt 0.172657 0.020909
vt 0.083326 0.890178
vt 0.041206 0.916026
vt 0.226067 0.029473
vt 0.119839 0.008318
vt 0.494102 0.010664
vt 0.109174 0.932299
vt 0.441157 0.022695
vt 0.387614 0.030422
vt 0.067054 0.958146
vt 0.333779 0.034084
vt 0.279861 0.033663
vt 0.128041 0.462759
vt 0.102079 0.490470
vt 0.165991 0.461522
vt 0.193702 0.487484
vt 0.103315 0.528421
vt 0.131026 0.554383
vt 0.168977 0.553146
vt 0.194939 0.525435
vt 0.147654 0.481730
vt 0.122287 0.508807
vt 0.174731 0.507098
vt 0.149363 0.534174
vt 0.322414 0.466452
vt 0.321628 0.544649
vt 0.376367 0.600497
vt 0.454563 0.601280
vt 0.510413 0.546544
vt 0.511198 0.468347
vt 0.456460 0.412499
vt 0.378264 0.411715
vt 0.111847 0.353562
vt 0.074028 0.345461
vt 0.150032 0.360229
vt 0.036690 0.335740
vt 0.000000 0.323820
vt 0.573516 0.338622
vt 0.536067 0.347907
vt 0.498157 0.355555
vt 0.459923 0.361894
vt 0.421395 0.366661
vt 0.382684 0.370147
vt 0.343829 0.372054
vt 0.304918 0.372674
vt 0.266011 0.371709
vt 0.227180 0.369305
vt 0.188516 0.365330
vt 0.610337 0.327117
vt 0.131904 0.965313
vt 0.111839 0.983884
vt 0.143335 0.940477
vt 0.144391 0.913157
vt 0.134912 0.887513
vt 0.519956 0.002630
vt 0.005989 0.935167
vt 0.015468 0.960812
vt 0.007045 0.907848
vt 0.018476 0.883012
vt 0.038541 0.864441
vt 0.116341 0.867448
vt 0.091505 0.856018
vt 0.064185 0.854962
vt 0.086195 0.993363
vt 0.058875 0.992307
vt 0.034039 0.980877
vt 0.053395 0.609474
vt 0.020822 0.565783
vt 0.009467 0.512483
vt 0.017328 0.458557
vt 0.046988 0.412839
vt 0.369285 0.617123
vt 0.415206 0.626956
vt 0.461311 0.618044
vt 0.500734 0.592531
vt 0.527038 0.553628
vt 0.536873 0.507707
vt 0.527963 0.461599
vt 0.502447 0.422175
vt 0.206340 0.635639
vt 0.153040 0.646994
vt 0.099113 0.639133
vt 0.121860 0.578725
vt 0.096463 0.563504
vt 0.079621 0.539152
vt 0.072426 0.510431
vt 0.077736 0.481303
vt 0.092957 0.455907
vt 0.117309 0.439064
vt 0.146030 0.431870
vt 0.175158 0.437179
vt 0.200554 0.452401
vt 0.217397 0.476752
vt 0.224591 0.505473
vt 0.219282 0.534601
vt 0.204061 0.559998
vt 0.179709 0.576840
vt 0.150988 0.584035
vt 0.118413 0.587878
vt 0.151303 0.593704
vt 0.183744 0.585749
vt 0.211120 0.566612
vt 0.228435 0.538048
vt 0.234260 0.505158
vt 0.226306 0.472717
vt 0.207169 0.445341
vt 0.178604 0.428026
vt 0.145714 0.422201
vt 0.113274 0.430155
vt 0.085897 0.449293
vt 0.068583 0.477857
vt 0.062757 0.510747
vt 0.070712 0.543187
vt 0.089849 0.570564
vt 0.151483 0.599216
vt 0.185972 0.590668
vt 0.215145 0.570383
vt 0.233488 0.539951
vt 0.239773 0.504978
vt 0.231224 0.470489
vt 0.210939 0.441316
vt 0.180507 0.422973
vt 0.145535 0.416688
vt 0.111046 0.425236
vt 0.081872 0.445522
vt 0.063530 0.475954
vt 0.057245 0.510926
vt 0.065793 0.545415
vt 0.086078 0.574589
vt 0.116510 0.592931
vt 0.151813 0.609359
vt 0.190157 0.599909
vt 0.222551 0.577321
vt 0.242982 0.543526
vt 0.249915 0.504648
vt 0.240466 0.466304
vt 0.217877 0.433910
vt 0.184082 0.413479
vt 0.145204 0.406546
vt 0.106860 0.415995
vt 0.074467 0.438583
vt 0.054035 0.472379
vt 0.047102 0.511257
vt 0.056552 0.549601
vt 0.079140 0.581994
vt 0.112935 0.602426
vt 0.152159 0.619968
vt 0.109295 0.612092
vt 0.071883 0.589740
vt 0.047143 0.553862
vt 0.036493 0.511602
vt 0.044369 0.468739
vt 0.066721 0.431326
vt 0.102599 0.406586
vt 0.144859 0.395937
vt 0.187722 0.403812
vt 0.225135 0.426164
vt 0.249875 0.462043
vt 0.260524 0.504302
vt 0.252649 0.547166
vt 0.230297 0.584578
vt 0.194419 0.609318
vt 0.371516 0.394951
vt 0.332093 0.420464
vt 0.417621 0.386039
vt 0.463542 0.395872
vt 0.250030 0.603066
vt 0.279689 0.557348
vt 0.287551 0.503422
vt 0.276195 0.450121
vt 0.243622 0.406431
vt 0.197904 0.376772
vt 0.143978 0.368910
vt 0.090678 0.380266
vt 0.330380 0.590820
vt 0.304864 0.551396
vt 0.295953 0.505288
vt 0.305788 0.459368
vn -0.700316 -0.138257 -0.700316
vn -0.378042 -0.155277 -0.912674
vn 0.000000 -1.000000 0.000000
vn -0.912674 -0.155277 -0.378041
vn -0.000001 -0.162991 -0.986628
vn -0.000000 -1.000000 0.000000
vn 0.000000 -1.000000 0.000000
vn 0.000000 -1.000000 0.000000
vn -0.986628 -0.162991 0.000000
vn 0.378041 -0.155277 -0.912674
vn -0.000000 -1.000000 0.000000
vn 0.700316 -0.138257 -0.700316
vn 0.912674 -0.155277 -0.378042
vn 0.986628 -0.162991 -0.000000
vn -0.000000 -1.000000 0.000000
vn -0.000000 -1.000000 -0.000000
vn 0.000000 -1.000000 -0.000000
vn 0.912674 -0.155277 0.378041
vn 0.700316 -0.138257 0.700316
vn 0.378042 -0.155277 0.912674
vn 0.000001 -0.162991 0.986628
vn 0.000000 -1.000000 -0.000000
vn -0.912674 -0.155277 0.378042
vn -0.378041 -0.155277 0.912674
vn -0.700316 -0.138257 0.700316
vn -0.378239 -0.151958 0.913151
vn -0.698799 -0.152831 0.698800
vn 0.000001 -0.152831 0.988252
vn 0.378240 -0.151958 0.913150
vn 0.698800 -0.152831 0.698800
vn 0.913151 -0.151958 0.378239
vn 0.988252 -0.152831 -0.000000
vn 0.913150 -0.151958 -0.378240
vn 0.698799 -0.152831 -0.698800
vn -0.698800 -0.152831 -0.698800
vn -0.913151 -0.151958 -0.378239
vn -0.988252 -0.152831 0.000000
vn -0.913150 -0.151958 0.378240
vn -0.002379 0.999979 0.006086
vn -0.005258 0.999974 0.004885
vn -0.243542 0.938859 0.243375
vn -0.130717 0.939848 0.315592
vn 0.000128 0.938866 0.344282
vn 0.000222 0.999980 0.006340
vn -0.315242 0.940019 0.130332
vn -0.006118 0.999979 0.001894
vn -0.006083 0.999981 -0.000511
vn -0.343419 0.939182 -0.000295
vn 0.002703 0.999980 0.005756
vn 0.130743 0.940033 0.315031
vn 0.243009 0.939201 0.242587
vn 0.005271 0.999977 0.004326
vn 0.005839 0.999982 0.001474
vn 0.314142 0.940465 0.129769
vn 0.342095 0.939665 -0.000294
vn 0.005690 0.999984 -0.000511
vn -0.005358 0.999982 -0.002640
vn -0.003969 0.999980 -0.004914
vn -0.241724 0.939646 -0.242145
vn -0.313944 0.940445 -0.130392
vn -0.129417 0.940877 -0.313053
vn -0.001410 0.999984 -0.005441
vn 0.000222 0.999985 -0.005434
vn 0.000128 0.939980 -0.341231
vn 0.129443 0.941061 -0.312489
vn 0.001734 0.999985 -0.005111
vn 0.003981 0.999983 -0.004354
vn 0.241188 0.939987 -0.241355
vn 0.312841 0.940891 -0.129828
vn 0.005078 0.999985 -0.002219
vn 0.244118 0.938516 -0.244118
vn 0.323209 0.936810 -0.133877
vn -0.815241 0.470481 0.337684
vn -0.624573 0.468848 0.624572
vn 0.345238 0.938515 0.000000
vn -0.883279 0.468848 -0.000000
vn 0.133877 0.936810 -0.323208
vn -0.337684 0.470481 0.815241
vn 0.000000 0.938516 -0.345235
vn 0.000000 0.468848 0.883279
vn -0.133877 0.936811 -0.323207
vn 0.337684 0.470481 0.815241
vn -0.244118 0.938516 -0.244118
vn 0.624573 0.468848 0.624573
vn -0.323208 0.936810 -0.133878
vn 0.815241 0.470481 0.337684
vn -0.345237 0.938515 -0.000000
vn 0.883279 0.468848 -0.000000
vn -0.323211 0.936809 0.133878
vn 0.815241 0.470481 -0.337684
vn -0.244121 0.938515 0.244120
vn 0.624573 0.468848 -0.624572
vn -0.133879 0.936809 0.323211
vn 0.337684 0.470481 -0.815241
vn 0.000000 0.938515 0.345240
vn -0.000000 0.468848 -0.883279
vn 0.133879 0.936809 0.323213
vn -0.337684 0.470481 -0.815241
vn 0.244121 0.938515 0.244120
vn -0.624572 0.468848 -0.624573
vn 0.323212 0.936809 0.133878
vn -0.815241 0.470481 -0.337684
vn 0.445855 0.776161 -0.445856
vn 0.581547 0.777031 -0.240885
vn 0.630534 0.776161 -0.000000
vn 0.240885 0.777030 -0.581549
vn 0.000000 0.776160 -0.630536
vn -0.240885 0.777029 -0.581549
vn -0.445856 0.776160 -0.445856
vn -0.581548 0.777031 -0.240885
vn -0.630534 0.776161 -0.000001
vn -0.581547 0.777031 0.240885
vn -0.445855 0.776162 0.445854
vn -0.240885 0.777032 0.581546
vn -0.000000 0.776162 0.630534
vn 0.240885 0.777031 0.581547
vn 0.445855 0.776161 0.445855
vn 0.581548 0.777031 0.240885
vn 0.359488 0.861125 -0.359490
vn 0.474256 0.858191 -0.196444
vn 0.508391 0.861126 -0.000001
vn 0.196443 0.858191 -0.474256
vn 0.000000 0.861126 -0.508392
vn -0.196443 0.858191 -0.474256
vn -0.359488 0.861126 -0.359486
vn -0.474255 0.858192 -0.196442
vn -0.508392 0.861126 -0.000000
vn -0.474255 0.858192 0.196442
vn -0.359487 0.861127 0.359486
vn -0.196442 0.858192 0.474255
vn 0.000000 0.861126 0.508391
vn 0.196442 0.858192 0.474254
vn 0.359486 0.861127 0.359486
vn 0.474254 0.858192 0.196442
vn -0.001843 0.999997 0.001378
vn 0.000134 0.999999 0.001683
vn -0.000000 1.000000 0.000000
vn -0.002427 0.999997 -0.000310
vn 0.002986 0.999994 0.001808
vn 0.003568 0.999994 -0.000310
vn 0.003975 0.999982 -0.004440
vn 0.000135 0.999991 -0.004311
vn -0.002833 0.999988 -0.004011
vn 0.378239 -0.151958 -0.913151
vn -0.378240 -0.151958 -0.913150
vn -0.000001 -0.152831 -0.988252
vn -0.876760 -0.315280 -0.363166
vn -0.671983 -0.311250 -0.671984
vn -0.950328 -0.311251 -0.000000
vn -0.876760 -0.315282 0.363166
vn -0.671983 -0.311251 0.671983
vn -0.363166 -0.315282 0.876760
vn 0.000000 -0.311251 0.950328
vn 0.363166 -0.315281 0.876760
vn 0.671983 -0.311251 0.671983
vn 0.876760 -0.315282 0.363166
vn 0.950328 -0.311251 -0.000000
vn 0.876760 -0.315281 -0.363166
vn 0.671984 -0.311250 -0.671983
vn 0.363166 -0.315280 -0.876760
vn -0.000000 -0.311250 -0.950328
vn -0.363166 -0.315281 -0.876760
s 1
g Coffee_LOW Pickups
usemtl lambert1SG
f 3/94/1 39/97/2 59/27/3 42/93/4
f 39/97/2 5/96/5 40/36/6 59/27/3
f 59/27/3 40/36/6 10/10/7 41/37/8
f 42/93/4 59/27/3 41/37/8 7/92/9
f 5/96/5 43/95/10 60/28/11 40/36/6
f 43/95/10 4/88/12 44/87/13 60/28/11
f 60/28/11 44/87/13 6/86/14 45/41/15
f 40/36/6 60/28/11 45/41/15 10/10/7
f 10/10/7 45/41/15 61/29/16 48/44/17
f 45/41/15 6/86/14 46/84/18 61/29/16
f 61/29/16 46/84/18 2/85/19 47/98/20
f 48/44/17 61/29/16 47/98/20 8/99/21
f 7/92/9 41/37/8 62/30/22 50/90/23
f 41/37/8 10/10/7 48/44/17 62/30/22
f 62/30/22 48/44/17 8/99/21 49/100/24
f 50/90/23 62/30/22 49/100/24 1/91/25
f 1/1/25 49/45/24 33/78/26 20/79/27
f 49/45/24 8/8/21 21/77/28 33/78/26
f 21/77/28 8/8/21 47/43/20 34/76/29
f 47/43/20 2/2/19 22/75/30 34/76/29
f 22/75/30 2/2/19 46/42/18 35/74/31
f 46/42/18 6/6/14 23/73/32 35/74/31
f 23/73/32 6/6/14 44/40/13 36/72/33
f 44/40/13 4/89/12 24/83/34 36/72/33
f 26/69/35 3/3/1 42/38/4 31/82/36
f 42/38/4 7/7/9 19/81/37 31/82/36
f 19/81/37 7/7/9 50/46/23 32/80/38
f 50/46/23 1/1/25 20/79/27 32/80/38
f 51/47/39 11/11/40 88/122/41 89/123/42
f 51/47/39 89/123/42 90/124/43 12/12/44
f 87/121/45 88/122/41 11/11/40 52/48/46
f 87/121/45 52/48/46 17/17/47 86/120/48
f 53/49/49 12/12/44 90/124/43 91/125/50
f 53/49/49 91/125/50 92/126/51 13/13/52
f 54/50/53 13/13/52 92/126/51 93/127/54
f 54/50/53 93/127/54 94/128/55 18/18/56
f 55/51/57 14/14/58 84/118/59 85/119/60
f 55/51/57 85/119/60 86/120/48 17/17/47
f 83/117/61 84/118/59 14/14/58 56/52/62
f 83/117/61 56/52/62 15/15/63 98/132/64
f 97/131/65 98/132/64 15/15/63 57/53/66
f 97/131/65 57/53/66 16/16/67 96/130/68
f 95/129/69 96/130/68 16/16/67 58/54/70
f 95/129/69 58/54/70 18/18/56 94/128/55
f 141/175/71 142/176/72 152/186/73 153/187/74
f 152/186/73 142/176/72 143/177/75 151/185/76
f 140/174/77 141/175/71 153/187/74 154/188/78
f 139/173/79 140/174/77 154/188/78 155/189/80
f 138/172/81 139/173/79 155/189/80 156/190/82
f 137/171/83 138/172/81 156/190/82 157/191/84
f 136/170/85 137/171/83 157/191/84 158/192/86
f 135/169/87 136/170/85 158/192/86 159/193/88
f 134/168/89 135/169/87 159/193/88 160/194/90
f 133/167/91 134/168/89 160/194/90 161/195/92
f 132/166/93 133/167/91 161/195/92 162/196/94
f 131/165/95 132/166/93 162/196/94 147/181/96
f 146/180/97 131/165/95 147/181/96 148/182/98
f 145/179/99 146/180/97 148/182/98 149/183/100
f 144/178/101 145/179/99 149/183/100 150/184/102
f 151/185/76 143/177/75 144/178/101 150/184/102
f 125/159/103 126/160/104 142/176/72 141/175/71
f 142/176/72 126/160/104 127/161/105 143/177/75
f 124/158/106 125/159/103 141/175/71 140/174/77
f 123/157/107 124/158/106 140/174/77 139/173/79
f 122/156/108 123/157/107 139/173/79 138/172/81
f 121/155/109 122/156/108 138/172/81 137/171/83
f 120/154/110 121/155/109 137/171/83 136/170/85
f 119/153/111 120/154/110 136/170/85 135/169/87
f 118/152/112 119/153/111 135/169/87 134/168/89
f 117/151/113 118/152/112 134/168/89 133/167/91
f 116/150/114 117/151/113 133/167/91 132/166/93
f 115/149/115 116/150/114 132/166/93 131/165/95
f 130/164/116 115/149/115 131/165/95 146/180/97
f 129/163/117 130/164/116 146/180/97 145/179/99
f 128/162/118 129/163/117 145/179/99 144/178/101
f 143/177/75 127/161/105 128/162/118 144/178/101
f 102/136/119 103/137/120 118/152/112 117/151/113
f 118/152/112 103/137/120 104/138/121 119/153/111
f 101/135/122 102/136/119 117/151/113 116/150/114
f 100/134/123 101/135/122 116/150/114 115/149/115
f 99/133/124 100/134/123 115/149/115 130/164/116
f 114/148/125 99/133/124 130/164/116 129/163/117
f 113/147/126 114/148/125 129/163/117 128/162/118
f 112/146/127 113/147/126 128/162/118 127/161/105
f 111/145/128 112/146/127 127/161/105 126/160/104
f 110/144/129 111/145/128 126/160/104 125/159/103
f 109/143/130 110/144/129 125/159/103 124/158/106
f 108/142/131 109/143/130 124/158/106 123/157/107
f 107/141/132 108/142/131 123/157/107 122/156/108
f 106/140/133 107/141/132 122/156/108 121/155/109
f 105/139/134 106/140/133 121/155/109 120/154/110
f 119/153/111 104/138/121 105/139/134 120/154/110
f 11/11/40 51/47/39 63/31/135 52/48/46
f 51/47/39 12/12/44 27/55/136 63/31/135
f 63/31/135 27/55/136 9/9/137 28/56/138
f 52/48/46 63/31/135 28/56/138 17/17/47
f 12/12/44 53/49/49 64/32/139 27/55/136
f 53/49/49 13/13/52 54/50/53 64/32/139
f 64/32/139 54/50/53 18/18/56 29/57/140
f 27/55/136 64/32/139 29/57/140 9/9/137
f 9/9/137 29/57/140 65/33/141 30/58/142
f 29/57/140 18/18/56 58/54/70 65/33/141
f 65/33/141 58/54/70 16/16/67 57/53/66
f 30/58/142 65/33/141 57/53/66 15/15/63
f 17/17/47 28/56/138 66/34/143 55/51/57
f 28/56/138 9/9/137 30/58/142 66/34/143
f 66/34/143 30/58/142 15/15/63 56/52/62
f 55/51/57 66/34/143 56/52/62 14/14/58
f 43/39/10 37/70/144 24/71/34 4/4/12
f 39/35/2 38/67/145 25/68/146 5/5/5
f 25/68/146 37/70/144 43/39/10 5/5/5
f 26/69/35 38/67/145 39/35/2 3/3/1
f 31/59/36 68/212/147 67/198/148 26/26/35
f 69/211/149 68/212/147 31/59/36 19/19/37
f 70/210/150 69/211/149 19/19/37 32/60/38
f 71/209/151 70/210/150 32/60/38 20/20/27
f 72/106/152 71/209/151 20/20/27 33/61/26
f 73/107/153 72/106/152 33/61/26 21/21/28
f 74/108/154 73/107/153 21/21/28 34/62/29
f 75/109/155 74/108/154 34/62/29 22/22/30
f 76/110/156 75/109/155 22/22/30 35/63/31
f 77/111/157 76/110/156 35/63/31 23/23/32
f 78/112/158 77/111/157 23/23/32 36/64/33
f 79/113/159 78/112/158 36/64/33 24/24/34
f 80/200/160 79/113/159 24/24/34 37/65/144
f 81/199/161 80/200/160 37/65/144 25/25/146
f 82/197/162 81/199/161 25/25/146 38/66/145
f 26/26/35 67/198/148 82/197/162 38/66/145
f 98/132/64 100/134/123 99/133/124 83/117/61
f 97/131/65 101/135/122 100/134/123 98/132/64
f 96/130/68 102/136/119 101/135/122 97/131/65
f 103/137/120 102/136/119 96/130/68 95/129/69
f 104/138/121 103/137/120 95/129/69 94/128/55
f 93/127/54 105/139/134 104/138/121 94/128/55
f 92/126/51 106/140/133 105/139/134 93/127/54
f 91/125/50 107/141/132 106/140/133 92/126/51
f 90/124/43 108/142/131 107/141/132 91/125/50
f 89/123/42 109/143/130 108/142/131 90/124/43
f 88/122/41 110/144/129 109/143/130 89/123/42
f 87/121/45 111/145/128 110/144/129 88/122/41
f 86/120/48 112/146/127 111/145/128 87/121/45
f 85/119/60 113/147/126 112/146/127 86/120/48
f 84/118/59 114/148/125 113/147/126 85/119/60
f 83/117/61 99/133/124 114/148/125 84/118/59
f 82/116/162 148/182/98 147/181/96 81/115/161
f 67/101/148 149/183/100 148/182/98 82/116/162
f 68/102/147 150/184/102 149/183/100 67/101/148
f 69/103/149 151/185/76 150/184/102 68/102/147
f 70/104/150 152/186/73 151/185/76 69/103/149
f 71/105/151 153/187/74 152/186/73 70/104/150
f 154/188/78 153/187/74 71/105/151 72/208/152
f 155/189/80 154/188/78 72/208/152 73/207/153
f 156/190/82 155/189/80 73/207/153 74/206/154
f 157/191/84 156/190/82 74/206/154 75/205/155
f 158/192/86 157/191/84 75/205/155 76/204/156
f 159/193/88 158/192/86 76/204/156 77/203/157
f 160/194/90 159/193/88 77/203/157 78/202/158
f 161/195/92 160/194/90 78/202/158 79/201/159
f 80/114/160 162/196/94 161/195/92 79/201/159
f 81/115/161 147/181/96 162/196/94 80/114/160
