# This file uses centimeters as units for non-parametric coordinates.

mtllib Meat.mtl
g default
v -0.371254 0.315257 0.168854
v -0.376655 0.345603 0.022691
v -0.380640 0.332139 -0.126125
v -0.386355 0.271448 -0.260959
v -0.397508 0.153942 -0.348028
v -0.403429 0.120799 0.358434
v -0.387824 0.236705 0.287363
v -0.423359 0.009297 0.365430
v -0.439421 -0.093330 0.328293
v -0.451768 -0.203419 0.005101
v -0.455832 -0.202111 0.122659
v -0.454031 -0.172827 0.236970
v -0.439533 -0.194200 -0.118414
v -0.399375 0.039100 -0.371101
v -0.410635 -0.071832 -0.331243
v -0.418880 -0.146057 -0.248783
v 0.418165 0.306508 -0.009264
v 0.414001 0.290697 -0.156923
v 0.411055 0.205732 -0.273624
v 0.415676 0.280836 0.163932
v 0.412033 0.205622 0.287644
v 0.409766 0.109268 0.351641
v 0.403070 -0.004546 0.377837
v 0.398169 -0.129669 0.342750
v 0.388138 -0.201128 0.251124
v 0.393670 -0.229981 0.121221
v 0.389119 -0.236643 -0.002886
v 0.389356 -0.238770 -0.126487
v 0.383094 -0.188157 -0.250020
v 0.390496 -0.117369 -0.313587
v 0.392596 -0.007913 -0.350098
v 0.406563 0.099047 -0.342212
v 0.489423 -0.079436 -0.067461
v 0.493279 -0.101850 -0.006605
v 0.497231 -0.086809 0.052873
v 0.487191 -0.008697 -0.114398
v 0.487027 0.066976 -0.082715
v 0.484729 0.092506 -0.012151
v 0.483423 0.048603 0.068604
v 0.488743 -0.020997 0.089990
v -0.514963 0.049438 0.097617
v -0.519358 0.073491 0.004912
v -0.513790 0.048063 -0.062833
v -0.515685 -0.014887 0.127900
v -0.516910 -0.079411 0.104885
v -0.497861 -0.118256 0.013771
v -0.494291 -0.078589 -0.060049
v -0.500310 -0.005917 -0.091308
v -0.866959 -0.111682 0.012182
v -0.896666 -0.100283 0.144870
v -0.866187 -0.105853 -0.116403
v -0.844150 -0.033859 -0.203841
v -0.877846 0.072068 -0.153190
v -0.877091 0.084247 -0.000691
v -0.890945 0.083702 0.154167
v -0.881237 -0.009301 0.232605
v -0.517154 0.064460 -0.031769
v -0.887497 0.093043 -0.077648
v -0.507310 0.019516 -0.079921
v -0.871320 0.020873 -0.190383
v -0.515291 0.021149 0.117033
v -0.892820 0.040433 0.208621
v -0.516292 0.071608 0.053263
v -0.883663 0.090834 0.072775
v -0.515599 -0.046764 0.126370
v -0.899081 -0.064518 0.194385
v -0.508205 -0.108862 0.067285
v -0.881592 -0.118347 0.075649
v -0.496160 -0.104392 -0.027862
v -0.866562 -0.115719 -0.051844
v -0.496391 -0.049467 -0.078561
v -0.864881 -0.075330 -0.170154
v 0.488748 0.033645 -0.102103
v 0.486591 0.083716 -0.053654
v 0.484862 0.080824 0.034311
v 0.486764 0.012251 0.085758
v 0.494523 -0.053607 0.078365
v 0.496645 -0.097379 0.018737
v 0.492143 -0.095257 -0.033202
v 0.487507 -0.046824 -0.100406
v 0.390794 0.342362 -0.003128
v 0.388583 0.320223 -0.173339
v 0.381117 0.230133 -0.296058
v 0.382141 0.105257 -0.363719
v 0.371174 -0.013848 -0.370952
v 0.362091 -0.135666 -0.332060
v 0.343464 -0.211811 -0.259555
v 0.351236 -0.257528 -0.133617
v 0.357925 -0.256982 0.002172
v 0.354592 -0.250724 0.125657
v 0.353652 -0.216711 0.262887
v 0.357665 -0.140781 0.362599
v 0.366562 -0.000160 0.403114
v 0.374342 0.124701 0.378252
v 0.382107 0.230524 0.306641
v 0.384027 0.311728 0.174890
v -0.350573 0.340129 0.178571
v -0.354013 0.371954 0.019317
v -0.352442 0.354292 -0.136973
v -0.357606 0.287280 -0.277511
v -0.374911 0.170967 -0.370938
v -0.367107 0.032403 -0.392308
v -0.379078 -0.086865 -0.346568
v -0.383607 -0.164420 -0.260009
v -0.414392 -0.214278 -0.135279
v -0.424493 -0.229536 0.004303
v -0.421174 -0.222438 0.123702
v -0.417678 -0.194045 0.248479
v -0.413381 -0.107152 0.350573
v -0.404450 0.004814 0.389313
v -0.381969 0.129773 0.380726
v -0.364886 0.258219 0.304468
v -0.596628 -0.124689 0.020310
v -0.603588 -0.116772 0.076796
v -0.608640 -0.093164 0.119773
v -0.611994 -0.054136 0.151201
v -0.617088 -0.012762 0.164155
v -0.613137 0.028982 0.151375
v -0.613494 0.061556 0.125053
v -0.615677 0.087652 0.069626
v -0.614173 0.090741 0.007269
v -0.611113 0.078962 -0.053576
v -0.608663 0.053731 -0.091121
v -0.604838 0.020293 -0.111384
v -0.599458 -0.014708 -0.113381
v -0.595769 -0.050921 -0.098323
v -0.594378 -0.079109 -0.077787
v -0.595186 -0.111198 -0.033875
v -0.695373 -0.131308 0.018902
v -0.701399 -0.129051 0.080534
v -0.700876 -0.115825 0.137684
v -0.696134 -0.080377 0.190913
v -0.692915 -0.011574 0.218630
v -0.709443 0.049110 0.210549
v -0.703337 0.096661 0.150866
v -0.707375 0.107106 0.077476
v -0.709517 0.104950 0.004417
v -0.707200 0.101458 -0.064546
v -0.699417 0.078584 -0.125697
v -0.693668 0.040784 -0.169425
v -0.682755 -0.025474 -0.176521
v -0.686413 -0.073966 -0.145252
v -0.691097 -0.107069 -0.105600
v -0.689692 -0.126819 -0.043435
v -0.953429 -0.014831 0.067195
v -0.931751 -0.017731 0.001001
v -0.931938 -0.022590 -0.067768
v -0.913607 -0.030179 -0.147677
v -0.946523 -0.016571 0.158384
v -0.789035 -0.130228 0.016632
v -0.804908 -0.131460 0.080868
v -0.809946 -0.118452 0.153686
v -0.804898 -0.091143 0.207475
v -0.813777 -0.023847 0.252335
v -0.813505 0.059668 0.228685
v -0.812346 0.103490 0.166917
v -0.803456 0.109708 0.078215
v -0.798099 0.104125 0.002153
v -0.795667 0.109628 -0.072119
v -0.789031 0.091161 -0.147838
v -0.785404 0.039576 -0.198742
v -0.773000 -0.036468 -0.211397
v -0.782266 -0.093747 -0.184023
v -0.781126 -0.128780 -0.116726
v -0.785380 -0.133797 -0.047843
v 0.859480 0.092222 -0.083880
v 0.852697 0.084920 -0.018222
v 0.855916 0.097099 0.053445
v 0.865876 0.093592 0.129531
v 0.861057 0.040682 0.191743
v 0.861610 -0.009828 0.205595
v 0.874366 -0.071427 0.168656
v 0.868189 -0.106208 0.108242
v 0.864764 -0.115843 0.042305
v 0.860871 -0.111390 -0.017341
v 0.870111 0.080654 -0.164191
v 0.869342 0.028954 -0.216821
v 0.857371 -0.033211 -0.233079
v 0.873091 -0.082941 -0.196463
v 0.862730 -0.113752 -0.131979
v 0.860281 -0.115594 -0.074502
v 0.576261 0.098650 -0.065101
v 0.574558 0.103751 -0.010595
v 0.572363 0.091299 0.051565
v 0.572822 0.060948 0.087341
v 0.572149 0.020041 0.115104
v 0.575131 -0.023043 0.121662
v 0.579357 -0.065471 0.106238
v 0.580812 -0.102188 0.075150
v 0.575807 -0.121771 0.034082
v 0.573297 -0.124447 -0.022072
v 0.580835 -0.117407 -0.053950
v 0.573488 -0.093396 -0.087158
v 0.577733 -0.060846 -0.123912
v 0.577595 -0.020214 -0.142167
v 0.576931 0.035963 -0.137103
v 0.577005 0.075527 -0.108867
v 0.671704 0.129876 -0.078850
v 0.669725 0.126501 -0.010174
v 0.657797 0.120790 0.063628
v 0.655985 0.091331 0.121097
v 0.649344 0.043062 0.162572
v 0.642343 -0.027249 0.179177
v 0.658690 -0.090861 0.150232
v 0.676967 -0.131563 0.099734
v 0.681143 -0.147495 0.043405
v 0.679975 -0.152723 -0.015874
v 0.677634 -0.143608 -0.069968
v 0.669486 -0.118617 -0.121538
v 0.664428 -0.081700 -0.164398
v 0.654354 -0.029235 -0.195791
v 0.653470 0.032514 -0.197195
v 0.669074 0.102151 -0.148883
v 0.785154 0.121178 -0.086681
v 0.774404 0.116009 -0.014436
v 0.767769 0.126409 0.061148
v 0.754153 0.120286 0.145700
v 0.752391 0.060733 0.203205
v 0.757557 -0.015397 0.227322
v 0.777247 -0.104840 0.176636
v 0.791911 -0.131671 0.112237
v 0.789489 -0.140464 0.044061
v 0.780282 -0.141411 -0.015993
v 0.773749 -0.142964 -0.073554
v 0.766992 -0.130932 -0.136832
v 0.763330 -0.097132 -0.194963
v 0.767098 -0.038524 -0.242723
v 0.780329 0.042696 -0.243718
v 0.788479 0.104630 -0.174450
v 0.928800 -0.012518 0.138208
v 0.952731 -0.006462 0.039968
v 0.939952 -0.004483 -0.022908
v 0.937847 -0.007649 -0.083757
v 0.925772 -0.017240 -0.158297
v -0.925437 0.027723 -0.130424
v -0.929090 0.033359 -0.066123
v -0.920436 0.036709 -0.002262
v -0.933839 0.043674 0.063188
v -0.941901 0.045666 0.129773
v -0.937833 -0.070303 0.129620
v -0.936712 -0.076018 0.069118
v -0.918080 -0.069672 0.007247
v -0.914206 -0.074951 -0.056145
v -0.902973 -0.075853 -0.112649
v 0.916454 0.053822 0.111003
v 0.918964 0.055707 0.044519
v 0.909725 0.049418 -0.021204
v 0.918313 0.049647 -0.081651
v 0.919250 0.045869 -0.136577
v 0.916877 -0.067978 -0.121309
v 0.922943 -0.064385 -0.076202
v 0.922371 -0.065985 -0.020454
v 0.926749 -0.076736 0.036026
v 0.919495 -0.074960 0.102146
v 0.017172 0.417516 0.007413
v 0.014189 0.401970 -0.179639
v 0.010978 0.298942 -0.338534
v -0.001470 0.154321 -0.401120
v -0.004813 0.011053 -0.409640
v -0.014326 -0.114725 -0.360314
v -0.023596 -0.195144 -0.258189
v -0.036316 -0.240127 -0.136389
v -0.034455 -0.243964 -0.000565
v -0.035775 -0.226079 0.128254
v -0.034881 -0.196794 0.254049
v -0.034002 -0.129934 0.368159
v -0.020644 0.001076 0.424149
v -0.012804 0.145975 0.401678
v 0.000086 0.271788 0.341767
v 0.006719 0.380223 0.197276
v -0.175564 0.419770 0.013773
v -0.177141 0.396926 -0.169392
v -0.182122 0.299635 -0.317003
v -0.193303 0.157892 -0.392569
v -0.189911 0.018674 -0.405161
v -0.199462 -0.100483 -0.357119
v -0.205062 -0.185359 -0.262073
v -0.227007 -0.230259 -0.138260
v -0.229919 -0.243785 0.002316
v -0.228784 -0.228407 0.129612
v -0.227106 -0.190401 0.249164
v -0.224406 -0.116206 0.357366
v -0.217508 -0.001944 0.422974
v -0.198169 0.145726 0.410866
v -0.182248 0.279477 0.342229
v -0.181519 0.386688 0.206229
v 0.228891 0.368351 -0.176953
v 0.229735 0.393346 0.001265
v 0.245776 0.362980 0.200369
v 0.221778 0.260248 0.338221
v 0.209167 0.138826 0.398175
v 0.203430 -0.005669 0.421597
v 0.191576 -0.140001 0.369633
v 0.189374 -0.211807 0.260884
v 0.184606 -0.249908 0.128335
v 0.191661 -0.264432 0.001641
v 0.176617 -0.254841 -0.143176
v 0.186296 -0.207798 -0.261361
v 0.204122 -0.133579 -0.354071
v 0.218163 -0.005293 -0.406822
v 0.221635 0.124281 -0.395692
v 0.236253 0.264651 -0.330331
vt 0.802078 0.983526
vt 0.764998 0.988042
vt 0.728384 0.981331
vt 0.696619 0.963209
vt 0.677530 0.932621
vt 0.673778 0.904242
vt 0.684742 0.877799
vt 0.704888 0.860163
vt 0.737400 0.849415
vt 0.768281 0.847849
vt 0.797531 0.850674
vt 0.824559 0.861094
vt 0.845826 0.882038
vt 0.853909 0.908033
vt 0.851105 0.936005
vt 0.832174 0.964284
vt 0.273729 0.984706
vt 0.310206 0.980146
vt 0.338561 0.958646
vt 0.231009 0.978070
vt 0.200961 0.959119
vt 0.185863 0.935293
vt 0.179911 0.907554
vt 0.188653 0.877354
vt 0.209249 0.858188
vt 0.240952 0.849668
vt 0.272003 0.846434
vt 0.302727 0.848159
vt 0.333045 0.860718
vt 0.348048 0.878687
vt 0.357456 0.905515
vt 0.354564 0.931917
vt 0.538492 0.784920
vt 0.543906 0.800620
vt 0.547189 0.816702
vt 0.507383 0.912005
vt 0.521188 0.897065
vt 0.530339 0.879917
vt 0.539375 0.856803
vt 0.544995 0.837655
vt 0.889057 0.969466
vt 0.577013 0.649503
vt 0.971902 0.908298
vt 0.790516 0.881974
vt 0.570700 0.617541
vt 0.967812 0.887814
vt 0.875818 0.873486
vt 0.964438 0.868237
vt 0.522756 0.610279
vt 0.963390 0.852434
vt 0.516380 0.649800
vt 0.968003 0.834313
vt 0.521387 0.689851
vt 0.979204 0.812075
vt 0.919320 0.735822
vt 0.989711 0.797469
vt 0.757167 0.913699
vt 0.875921 0.819960
vt 0.746291 0.902679
vt 0.536348 0.600427
vt 0.792101 0.905683
vt 0.534481 0.703135
vt 0.776723 0.916436
vt 0.515950 0.668738
vt 0.795029 0.889970
vt 0.562132 0.697939
vt 0.782231 0.874387
vt 0.887303 0.951768
vt 0.759715 0.873704
vt 0.575591 0.633479
vt 0.747127 0.886178
vt 0.561265 0.604490
vt 0.515331 0.904750
vt 0.525589 0.889755
vt 0.535580 0.868653
vt 0.542943 0.846578
vt 0.546708 0.828211
vt 0.545699 0.807180
vt 0.541866 0.793818
vt 0.533678 0.774519
vt 0.802467 0.320910
vt 0.315258 0.988990
vt 0.346260 0.965992
vt 0.798438 0.441612
vt 0.796744 0.472074
vt 0.795868 0.504112
vt 0.793067 0.530483
vt 0.800725 0.002438
vt 0.802523 0.035156
vt 0.802010 0.065145
vt 0.801687 0.099745
vt 0.801703 0.130828
vt 0.802167 0.167760
vt 0.802480 0.200281
vt 0.802879 0.233407
vt 0.802160 0.273952
vt 0.804433 0.991294
vt 0.621870 0.310724
vt 0.621159 0.351676
vt 0.620077 0.392365
vt 0.616401 0.430843
vt 0.618911 0.466702
vt 0.617127 0.498753
vt 0.616307 0.527337
vt 0.608078 0.559436
vt 0.613097 0.037654
vt 0.614128 0.066419
vt 0.614958 0.097314
vt 0.616044 0.129880
vt 0.617521 0.159125
vt 0.621020 0.190968
vt 0.622721 0.229405
vt 0.949651 0.917114
vt 0.952292 0.931101
vt 0.955261 0.942824
vt 0.980241 0.772994
vt 0.971394 0.778767
vt 0.965344 0.788147
vt 0.959470 0.797075
vt 0.952270 0.810650
vt 0.946723 0.825038
vt 0.942100 0.839753
vt 0.939627 0.850996
vt 0.938998 0.861258
vt 0.939898 0.870654
vt 0.941682 0.880944
vt 0.943341 0.889912
vt 0.946153 0.903560
vt 0.926793 0.925030
vt 0.929678 0.939422
vt 0.933850 0.952730
vt 0.968816 0.750473
vt 0.956400 0.762098
vt 0.944859 0.770572
vt 0.938346 0.786327
vt 0.931365 0.801319
vt 0.924679 0.816492
vt 0.919275 0.831109
vt 0.915939 0.845297
vt 0.913376 0.857606
vt 0.915033 0.872233
vt 0.916995 0.884968
vt 0.918798 0.896533
vt 0.923772 0.910556
vt 0.546807 0.665696
vt 0.546776 0.649791
vt 0.547293 0.633704
vt 0.548526 0.614642
vt 0.548496 0.686534
vt 0.904572 0.931630
vt 0.905567 0.947057
vt 0.909701 0.964067
vt 0.948888 0.728759
vt 0.935109 0.741952
vt 0.924311 0.757713
vt 0.916481 0.772689
vt 0.909527 0.791846
vt 0.903771 0.808497
vt 0.898254 0.824589
vt 0.894031 0.841534
vt 0.891063 0.857121
vt 0.892920 0.873471
vt 0.892331 0.886652
vt 0.897163 0.902327
vt 0.901004 0.917259
vt 0.462137 0.927493
vt 0.460885 0.910502
vt 0.463191 0.946542
vt 0.457395 0.966208
vt 0.442739 0.982323
vt 0.638299 0.851980
vt 0.412335 0.976025
vt 0.400303 0.961195
vt 0.395390 0.943960
vt 0.395223 0.928005
vt 0.453042 0.890400
vt 0.438534 0.877412
vt 0.422300 0.872557
vt 0.409345 0.882869
vt 0.398259 0.898376
vt 0.395260 0.913202
vt 0.543708 0.902767
vt 0.549684 0.890317
vt 0.556186 0.875559
vt 0.560201 0.864142
vt 0.563997 0.851745
vt 0.566971 0.840545
vt 0.568208 0.828650
vt 0.568101 0.816310
vt 0.565685 0.805286
vt 0.562506 0.791870
vt 0.562264 0.783571
vt 0.557353 0.774771
vt 0.553967 0.763123
vt 0.519135 0.932368
vt 0.529669 0.923235
vt 0.537294 0.913563
vt 0.564720 0.915730
vt 0.571136 0.901854
vt 0.576019 0.885769
vt 0.581599 0.872407
vt 0.584966 0.858672
vt 0.586931 0.842914
vt 0.590287 0.827507
vt 0.592916 0.812842
vt 0.591500 0.800108
vt 0.588696 0.787148
vt 0.585614 0.775188
vt 0.580335 0.762953
vt 0.575216 0.750675
vt 0.531183 0.953875
vt 0.541865 0.944273
vt 0.556170 0.930297
vt 0.588219 0.930433
vt 0.594536 0.914736
vt 0.600417 0.898545
vt 0.604655 0.880781
vt 0.610312 0.864492
vt 0.614326 0.848653
vt 0.618732 0.827169
vt 0.620409 0.811813
vt 0.617639 0.796237
vt 0.613000 0.782730
vt 0.608428 0.769878
vt 0.603343 0.755585
vt 0.598909 0.740534
vt 0.552046 0.978436
vt 0.565949 0.965315
vt 0.578583 0.948492
vt 0.428159 0.963792
vt 0.429443 0.941224
vt 0.430093 0.926928
vt 0.428952 0.913019
vt 0.426577 0.895799
vt 0.535480 0.619520
vt 0.533878 0.634305
vt 0.532469 0.649469
vt 0.532364 0.665392
vt 0.533991 0.680975
vt 0.560504 0.679731
vt 0.561388 0.665652
vt 0.560696 0.650173
vt 0.560622 0.635112
vt 0.560262 0.621351
vt 0.444165 0.958533
vt 0.445576 0.942849
vt 0.445574 0.927126
vt 0.443444 0.912772
vt 0.441372 0.900135
vt 0.414141 0.903608
vt 0.414843 0.914342
vt 0.413955 0.927424
vt 0.412458 0.941000
vt 0.413191 0.956557
vt 0.711034 0.315506
vt 0.709328 0.358380
vt 0.708448 0.401355
vt 0.705881 0.437656
vt 0.706217 0.470941
vt 0.705146 0.502688
vt 0.703629 0.533493
vt 0.706506 0.002115
vt 0.707405 0.034613
vt 0.707275 0.065720
vt 0.707608 0.096406
vt 0.707545 0.127743
vt 0.709317 0.161377
vt 0.709381 0.195829
vt 0.710671 0.228510
vt 0.710290 0.270691
vt 0.665182 0.313378
vt 0.664312 0.356438
vt 0.662671 0.398147
vt 0.660228 0.436332
vt 0.661822 0.469796
vt 0.660408 0.500479
vt 0.659397 0.530904
vt 0.660070 0.002272
vt 0.659985 0.036039
vt 0.660426 0.066667
vt 0.660849 0.096616
vt 0.661429 0.127884
vt 0.662499 0.158938
vt 0.665232 0.193510
vt 0.667362 0.228324
vt 0.666085 0.268148
vt 0.760657 0.361175
vt 0.762213 0.318542
vt 0.766752 0.271079
vt 0.763266 0.230283
vt 0.762434 0.198102
vt 0.762929 0.163327
vt 0.761800 0.128900
vt 0.762094 0.097974
vt 0.761007 0.065057
vt 0.762537 0.034695
vt 0.753886 0.563201
vt 0.755005 0.532720
vt 0.757929 0.504457
vt 0.759438 0.471670
vt 0.759230 0.441309
vt 0.761610 0.404896
vt 0.836994 0.971411
vt 0.623326 0.268486
vt 0.857904 0.939717
vt 0.861286 0.907712
vt 0.853868 0.878340
vt 0.830704 0.852707
vt 0.799313 0.841108
vt 0.768069 0.838824
vt 0.732259 0.842320
vt 0.699020 0.852123
vt 0.677586 0.872301
vt 0.664477 0.902126
vt 0.670079 0.937220
vt 0.690323 0.969317
vt 0.724327 0.989374
vt 0.763638 0.996324
vt 0.227072 0.988185
vt 0.272245 0.995605
vt 0.194136 0.966957
vt 0.175670 0.939995
vt 0.169224 0.907889
vt 0.179187 0.871521
vt 0.203812 0.850299
vt 0.238556 0.839293
vt 0.270809 0.837395
vt 0.306090 0.838429
vt 0.338132 0.850724
vt 0.354893 0.872390
vt 0.364515 0.903446
vt 0.362345 0.933826
vt 0.797783 0.405131
vt 0.800148 0.365504
vt 0.294433 0.898581
vt 0.286657 0.891118
vt 0.278685 0.887620
vt 0.272571 0.886261
vt 0.266833 0.887447
vt 0.259083 0.889782
vt 0.253077 0.897366
vt 0.250199 0.905102
vt 0.251096 0.912963
vt 0.255022 0.921626
vt 0.263168 0.929155
vt 0.274130 0.931769
vt 0.283882 0.929567
vt 0.290665 0.925499
vt 0.295069 0.917523
vt 0.297858 0.907470
vt 0.966109 0.879464
vt 0.743711 0.896464
vt 0.969555 0.897833
vt 0.751771 0.879383
vt 0.973538 0.921680
vt 0.769741 0.871055
vt 0.980352 0.941438
vt 0.975862 0.933200
vt 0.973353 0.823207
vt 0.787292 0.912028
vt 0.983898 0.804822
vt 0.795017 0.897425
vt 0.963513 0.861075
vt 0.750095 0.909608
vt 0.965248 0.843577
vt 0.765558 0.916053
vt 0.629815 0.764957
vt 0.633636 0.779326
vt 0.626493 0.750587
vt 0.624296 0.732688
vt 0.573948 0.988710
vt 0.585288 0.975960
vt 0.595194 0.959280
vt 0.604923 0.940122
vt 0.636834 0.794801
vt 0.639562 0.812677
vt 0.641366 0.831962
vt 0.429285 0.985437
vt 0.636128 0.866777
vt 0.631209 0.888981
vt 0.621094 0.907415
vt 0.612722 0.924617
vt 0.873256 0.888735
vt 0.551034 0.594060
vt 0.880807 0.920791
vt 0.876208 0.904749
vt 0.577597 0.666022
vt 0.885289 0.935954
vt 0.924555 0.719018
vt 0.572025 0.684433
vt 0.891010 0.783658
vt 0.899461 0.763725
vt 0.908784 0.747315
vt 0.547909 0.709217
vt 0.871057 0.857244
vt 0.872591 0.840306
vt 0.516611 0.629959
vt 0.884547 0.801635
vt 0.758481 0.000019
vt 0.796521 0.562580
vt 0.653511 0.562168
vt 0.614707 0.003876
vt 0.700758 0.564481
vt 0.594783 0.723185
vt 0.567195 0.738179
vt 0.548567 0.753749
vt 0.528540 0.766150
vt 0.617002 0.718661
vt 0.914895 0.977533
vt 0.891836 0.983908
vt 0.939951 0.966860
vt 0.959938 0.954065
vt 0.995321 0.792113
vn 0.724457 -0.689318 -0.001684
vn 0.767267 -0.616634 -0.176249
vn 0.726441 -0.660130 -0.191082
vn 0.679012 -0.733948 -0.016183
vn 0.803816 -0.527894 0.274240
vn 0.747499 -0.654169 0.115359
vn 0.670685 -0.732732 0.115265
vn 0.765889 -0.570787 0.295999
vn 0.760100 -0.538492 -0.363696
vn 0.808844 -0.485388 -0.331918
vn 0.869980 -0.265466 -0.415528
vn 0.806025 -0.342719 -0.482563
vn 0.892090 -0.101935 -0.440209
vn 0.911733 0.086259 -0.401624
vn 0.861907 0.134855 -0.488806
vn 0.840988 -0.103581 -0.531047
vn 0.914546 0.261966 -0.308188
vn 0.917002 0.366095 -0.158370
vn 0.888160 0.429714 -0.162842
vn 0.890760 0.315747 -0.326881
vn 0.920014 0.391723 0.011324
vn 0.921844 0.353546 0.158774
vn 0.903647 0.390103 0.176753
vn 0.892135 0.451483 0.016056
vn 0.923848 0.260544 0.280395
vn 0.921120 0.125754 0.368408
vn 0.909907 0.132813 0.392976
vn 0.911772 0.270853 0.308725
vn 0.896806 -0.044143 0.440216
vn 0.871044 -0.266780 0.412444
vn 0.857431 -0.305174 0.414344
vn 0.907620 -0.052615 0.416484
vn -0.336653 0.873841 0.350809
vn -0.334620 0.941705 0.034935
vn -0.865743 0.498968 0.038989
vn -0.864729 0.475655 0.161231
vn -0.311193 0.908844 -0.277780
vn -0.867734 0.481147 -0.124643
vn -0.265194 0.726864 -0.633515
vn -0.885142 0.378296 -0.270953
vn -0.212184 0.376166 -0.901930
vn -0.902357 0.190114 -0.386793
vn -0.162598 -0.104293 -0.981165
vn -0.891321 -0.011149 -0.453235
vn -0.171017 -0.552212 -0.815975
vn -0.883897 -0.187062 -0.428641
vn -0.171814 -0.837958 -0.517984
vn -0.854839 -0.379148 -0.354257
vn -0.183337 -0.952918 -0.241527
vn -0.851022 -0.467649 -0.238886
vn -0.160740 -0.986842 -0.017505
vn -0.811047 -0.579744 -0.078102
vn -0.121394 -0.977876 0.170360
vn -0.800096 -0.592808 0.091794
vn -0.109468 -0.888692 0.445246
vn -0.854583 -0.415211 0.311910
vn -0.159808 -0.614562 0.772512
vn -0.891096 -0.154395 0.426744
vn -0.230281 -0.148649 0.961704
vn -0.903100 0.092462 0.419358
vn -0.265230 0.302236 0.915591
vn -0.889179 0.257525 0.378208
vn -0.312418 0.652280 0.690598
vn -0.877354 0.395377 0.271893
vn -0.081708 -0.996624 -0.008006
vn -0.082730 -0.993075 0.083417
vn -0.375544 -0.926795 -0.004346
vn -0.398097 -0.915070 -0.064539
vn -0.397325 -0.867242 -0.300040
vn 0.013807 -0.942918 -0.332739
vn -0.057928 -0.996002 -0.068005
vn -0.403334 -0.914336 -0.036224
vn 0.168884 -0.152606 -0.973750
vn 0.076453 -0.714727 -0.695212
vn -0.437119 -0.606956 -0.663725
vn -0.307189 -0.157008 -0.938607
vn 0.012278 0.867744 -0.496860
vn 0.082368 0.448928 -0.889763
vn -0.414190 0.276448 -0.867193
vn -0.419725 0.743408 -0.520745
vn -0.096508 0.995310 -0.006662
vn -0.054432 0.992295 -0.111299
vn -0.467862 0.880087 -0.080944
vn -0.456882 0.889523 -0.002708
vn -0.482342 0.824248 0.296583
vn -0.063356 0.931049 0.359351
vn -0.089722 0.995887 0.012627
vn -0.425325 0.903567 -0.051636
vn 0.016792 -0.168213 0.985608
vn -0.000198 0.566895 0.823790
vn -0.547565 0.434177 0.715306
vn -0.467898 -0.100454 0.878055
vn -0.068383 -0.930516 0.359810
vn 0.006104 -0.681590 0.731709
vn -0.517492 -0.521877 0.678120
vn -0.425072 -0.842942 0.329793
vn -0.833089 0.533011 -0.147856
vn -0.805741 0.592079 0.014987
vn -0.869015 0.392383 -0.301412
vn -0.881957 0.209793 -0.422066
vn -0.888221 -0.019475 -0.459004
vn -0.834752 0.303834 0.459210
vn -0.836575 0.107783 0.537145
vn -0.821170 0.475869 0.315005
vn -0.800803 0.573490 0.172693
vn -0.836925 -0.169856 0.520294
vn -0.761989 -0.493302 0.419554
vn -0.680978 -0.714818 0.159073
vn -0.666821 -0.739085 -0.095409
vn -0.716813 -0.618677 -0.321586
vn -0.804316 -0.419329 -0.420998
vn -0.854925 -0.223551 -0.468111
vn 0.386878 0.857025 -0.340343
vn 0.410968 0.911583 0.011058
vn 0.364865 0.615275 -0.698792
vn 0.322531 0.253441 -0.911999
vn 0.265994 -0.159799 -0.950638
vn 0.201211 -0.542303 -0.815734
vn 0.108381 -0.857773 -0.502473
vn 0.103061 -0.977148 -0.185904
vn 0.111847 -0.993474 0.022351
vn 0.095640 -0.980724 0.170390
vn 0.080180 -0.905164 0.417432
vn 0.129453 -0.572208 0.809827
vn 0.191960 -0.072869 0.978694
vn 0.256034 0.323769 0.910835
vn 0.358992 0.640331 0.679044
vn 0.417608 0.849980 0.321151
vn -0.105343 0.915107 0.389208
vn -0.116263 0.992488 0.038093
vn -0.090868 0.661043 0.744825
vn -0.082369 0.299173 0.950637
vn -0.078826 -0.158515 0.984205
vn -0.062487 -0.644689 0.761887
vn -0.028695 -0.903634 0.427342
vn -0.016749 -0.981990 0.188188
vn -0.038791 -0.999209 0.008770
vn -0.063505 -0.973486 -0.219755
vn -0.070882 -0.857514 -0.509555
vn -0.069350 -0.568290 -0.819901
vn -0.061715 -0.129703 -0.989631
vn -0.082929 0.310241 -0.947034
vn -0.120069 0.699557 -0.704418
vn -0.131093 0.938327 -0.319934
vn 0.140034 -0.947465 0.287578
vn 0.094891 -0.995143 -0.026210
vn 0.261355 -0.774141 0.576541
vn 0.389576 -0.456364 0.799976
vn 0.476253 0.000796 0.879308
vn 0.443592 0.445219 0.777821
vn 0.349259 0.788618 0.506063
vn 0.229356 0.956373 0.180959
vn 0.182817 0.981515 -0.056628
vn 0.233976 0.929716 -0.284400
vn 0.343433 0.742347 -0.575304
vn 0.448061 0.395794 -0.801616
vn 0.453237 -0.101619 -0.885579
vn 0.363576 -0.482389 -0.796940
vn 0.255462 -0.749264 -0.611018
vn 0.150666 -0.920946 -0.359386
vn 0.079589 -0.984307 0.157496
vn 0.062884 -0.997994 -0.007266
vn 0.176395 -0.896199 0.407078
vn 0.303466 -0.599389 0.740704
vn 0.372849 -0.084808 0.924008
vn 0.310364 0.501815 0.807376
vn 0.241740 0.885347 0.397142
vn 0.133585 0.987978 0.077815
vn 0.102739 0.994091 -0.035042
vn 0.170891 0.968378 -0.181770
vn 0.289184 0.822027 -0.490556
vn 0.391685 0.439421 -0.808388
vn 0.466677 -0.123718 -0.875732
vn 0.419759 -0.605258 -0.676361
vn 0.292280 -0.855643 -0.427140
vn 0.153616 -0.968867 -0.194164
vn -0.826358 -0.552391 -0.109531
vn -0.810989 -0.567289 -0.143113
vn -0.823577 -0.563956 -0.060615
vn -0.875096 0.480500 -0.057678
vn -0.847537 0.516485 -0.122164
vn -0.924364 0.379992 -0.034032
vn -0.778733 -0.571275 -0.259269
vn -0.885832 0.294161 -0.358847
vn -0.849131 0.498745 0.173867
vn -0.836424 -0.511254 0.197520
vn 0.435599 0.899936 -0.019220
vn 0.439374 0.898296 0.003735
vn 0.168670 0.982119 -0.083620
vn 0.187205 0.982319 0.002065
vn 0.115072 0.992660 0.037198
vn 0.401117 0.914948 -0.044448
vn -0.005932 0.883153 0.469047
vn 0.431619 0.815390 0.385805
vn -0.101482 0.520920 0.847552
vn 0.413126 0.451697 0.790757
vn -0.109754 -0.148117 0.982861
vn 0.381602 -0.129444 0.915218
vn 0.002391 -0.688041 0.725668
vn 0.447720 -0.540244 0.712519
vn 0.119403 -0.935581 0.332312
vn 0.441587 -0.845982 0.298855
vn 0.174446 -0.981115 0.083555
vn 0.425666 -0.904863 0.005711
vn 0.191286 -0.981487 -0.009668
vn 0.453660 -0.890252 -0.040531
vn 0.047489 0.857616 -0.512094
vn 0.485818 0.770948 -0.411849
vn 0.506603 0.336188 -0.793934
vn -0.074382 0.427791 -0.900812
vn 0.383398 -0.237611 -0.892495
vn -0.149474 -0.279510 -0.948436
vn 0.451190 -0.627387 -0.634676
vn -0.099603 -0.736871 -0.668656
vn 0.010348 -0.924730 -0.380482
vn 0.395016 -0.874538 -0.281328
vn 0.128814 -0.983997 -0.123114
vn 0.433991 -0.900484 -0.027919
vn -0.225143 0.973425 0.041879
vn -0.273226 0.930907 -0.242403
vn -0.281562 0.892557 0.352229
vn -0.381966 0.648393 0.658550
vn -0.471050 0.349667 0.809842
vn -0.516348 -0.125303 0.847162
vn -0.445949 -0.542322 0.712051
vn -0.354043 -0.788271 0.503271
vn -0.282354 -0.935629 0.211836
vn -0.271897 -0.960902 -0.052342
vn -0.298483 -0.893691 -0.335000
vn -0.333613 -0.771258 -0.542092
vn -0.396741 -0.569178 -0.720162
vn -0.473168 -0.163280 -0.865709
vn -0.462163 0.345075 -0.816902
vn -0.378817 0.714486 -0.588224
vn -0.088544 0.995774 0.024388
vn -0.112817 0.981258 -0.156223
vn -0.201163 0.962997 0.179361
vn -0.359551 0.775854 0.518433
vn -0.453777 0.421390 0.785186
vn -0.443254 -0.165682 0.880951
vn -0.325796 -0.636057 0.699492
vn -0.183341 -0.900439 0.394457
vn -0.098036 -0.982392 0.159045
vn -0.085137 -0.996148 -0.021006
vn -0.144615 -0.957336 -0.250188
vn -0.269010 -0.837579 -0.475495
vn -0.368337 -0.639305 -0.674994
vn -0.447338 -0.236122 -0.862633
vn -0.408437 0.359641 -0.838950
vn -0.244403 0.806450 -0.538428
vn 0.721431 0.690799 -0.048301
vn 0.783451 0.621444 0.003502
vn 0.762089 0.646893 -0.027392
vn 0.811063 0.516150 -0.275257
vn 0.781701 0.554235 0.285948
vn 0.804872 -0.593446 -0.001841
vn 0.783244 -0.563002 0.263738
vn 0.803878 -0.588799 -0.084233
vn 0.829967 -0.557146 -0.027278
vn 0.807628 -0.561527 -0.180066
vn -0.838663 -0.182381 -0.513207
vn -0.986663 -0.143227 -0.077350
vn -0.989214 -0.044664 -0.139499
vn -0.992681 -0.005621 -0.120637
vn -0.919798 0.009094 0.392287
vn 0.885681 0.012342 0.464129
vn 0.997913 0.058744 0.026800
vn 0.990488 0.104500 -0.089513
vn 0.997633 0.043181 -0.053518
vn 0.893542 -0.058053 -0.445211
vn 0.201375 0.917928 -0.341841
vn 0.192976 0.980843 0.026603
vn 0.184446 0.644739 -0.741816
vn 0.129539 0.252358 -0.958924
vn 0.083110 -0.154448 -0.984499
vn 0.024818 -0.567126 -0.823257
vn -0.031091 -0.864005 -0.502522
vn -0.042877 -0.979644 -0.196108
vn -0.040921 -0.998698 0.030444
vn -0.054140 -0.981477 0.183769
vn -0.046369 -0.913303 0.404632
vn -0.003949 -0.611868 0.790950
vn 0.044192 -0.104085 0.993586
vn 0.079727 0.307971 0.948049
vn 0.128702 0.662243 0.738153
vn 0.181871 0.909341 0.374195
vn 0.064715 0.997101 0.040027
vn 0.058509 0.938988 -0.338936
vn 0.038150 0.669610 -0.741733
vn 0.007518 0.268295 -0.963307
vn -0.012204 -0.144863 -0.989377
vn -0.037998 -0.578288 -0.814947
vn -0.055047 -0.865028 -0.498695
vn -0.056366 -0.978974 -0.196042
vn -0.053144 -0.998033 0.033243
vn -0.051746 -0.979837 0.192982
vn -0.058610 -0.914505 0.400306
vn -0.044347 -0.645584 0.762401
vn -0.001846 -0.131154 0.991360
vn 0.025923 0.287852 0.957324
vn 0.042510 0.655181 0.754275
vn 0.057392 0.920844 0.385685
s 1
g Meat_LOW Pickups
usemtl lambert1SG
f 27/27/1 28/28/2 79/337/3 34/338/4
f 25/25/5 26/26/6 78/339/7 35/340/8
f 33/336/9 29/29/10 30/30/11 80/335/12
f 31/31/13 32/32/14 73/349/15 36/350/16
f 19/19/17 18/18/18 74/347/19 37/348/20
f 17/17/21 20/20/22 75/345/23 38/346/24
f 21/21/25 22/22/26 76/343/27 39/344/28
f 23/23/29 24/24/30 77/341/31 40/342/32
f 97/97/33 98/318/34 2/2/35 1/1/36
f 2/2/35 98/318/34 99/317/37 3/3/38
f 99/317/37 100/316/39 4/4/40 3/3/38
f 100/316/39 101/315/41 5/5/42 4/4/40
f 101/315/41 102/314/43 14/6/44 5/5/42
f 102/314/43 103/313/45 15/7/46 14/6/44
f 103/313/45 104/312/47 16/8/48 15/7/46
f 104/312/47 105/311/49 13/9/50 16/8/48
f 105/311/49 106/310/51 10/10/52 13/9/50
f 106/310/51 107/309/53 11/11/54 10/10/52
f 107/309/53 108/308/55 12/12/56 11/11/54
f 108/308/55 109/307/57 9/13/58 12/12/56
f 109/307/57 110/306/59 8/14/60 9/13/58
f 110/306/59 111/305/61 6/15/62 8/14/60
f 111/305/61 112/303/63 7/16/64 6/15/62
f 112/303/63 97/97/33 1/1/36 7/16/64
f 150/150/65 151/151/66 68/68/67 49/388/68
f 51/386/69 164/164/70 165/165/71 70/385/72
f 162/162/73 163/163/74 72/383/75 52/47/76
f 160/160/77 161/161/78 60/395/79 53/396/80
f 158/158/81 159/159/82 58/58/83 54/398/84
f 55/392/85 156/156/86 157/157/87 64/391/88
f 154/154/89 155/155/90 62/393/91 56/55/92
f 152/152/93 153/409/94 66/410/95 50/41/96
f 57/57/97 42/366/98 2/2/35 3/3/38
f 43/364/99 57/57/97 3/3/38 4/4/40
f 59/59/100 43/364/99 4/4/40 5/5/42
f 48/352/101 59/59/100 5/5/42 14/6/44
f 159/159/82 160/160/77 53/396/80 58/58/83
f 161/161/78 162/162/73 52/47/76 60/395/79
f 155/155/90 156/156/86 55/392/85 62/393/91
f 64/391/88 157/157/87 158/158/81 54/398/84
f 61/61/102 44/362/103 8/14/60 6/15/62
f 41/360/104 61/61/102 6/15/62 7/16/64
f 63/63/105 41/360/104 7/16/64 1/1/36
f 42/366/98 63/63/105 1/1/36 2/2/35
f 56/55/92 66/389/95 153/153/94 154/154/89
f 50/41/96 68/68/67 151/151/66 152/152/93
f 44/362/103 65/65/106 9/13/58 8/14/60
f 65/65/106 45/44/107 12/12/56 9/13/58
f 45/44/107 67/67/108 11/11/54 12/12/56
f 67/67/108 46/356/109 10/10/52 11/11/54
f 70/385/72 165/165/71 150/150/65 49/388/68
f 163/163/74 164/164/70 51/386/69 72/383/75
f 10/10/52 46/356/109 69/69/110 13/9/50
f 69/69/110 47/354/111 16/8/48 13/9/50
f 47/354/111 71/71/112 15/7/46 16/8/48
f 71/71/112 48/352/101 14/6/44 15/7/46
f 32/32/14 19/19/17 37/348/20 73/349/15
f 18/18/18 17/17/21 38/346/24 74/347/19
f 20/20/22 21/21/25 39/344/28 75/345/23
f 22/22/26 23/23/29 40/342/32 76/343/27
f 24/24/30 25/25/5 35/340/8 77/341/31
f 26/26/6 27/27/1 34/338/4 78/339/7
f 28/28/2 29/29/10 33/336/9 79/337/3
f 30/30/11 31/31/13 36/350/16 80/335/12
f 82/82/113 81/320/114 17/17/21 18/18/18
f 83/83/115 82/82/113 18/18/18 19/19/17
f 84/332/116 83/83/115 19/19/17 32/32/14
f 85/331/117 84/332/116 32/32/14 31/31/13
f 86/330/118 85/331/117 31/31/13 30/30/11
f 87/329/119 86/330/118 30/30/11 29/29/10
f 88/328/120 87/329/119 29/29/10 28/28/2
f 89/327/121 88/328/120 28/28/2 27/27/1
f 90/326/122 89/327/121 27/27/1 26/26/6
f 91/325/123 90/326/122 26/26/6 25/25/5
f 92/324/124 91/325/123 25/25/5 24/24/30
f 93/323/125 92/324/124 24/24/30 23/23/29
f 94/322/126 93/323/125 23/23/29 22/22/26
f 95/321/127 94/322/126 22/22/26 21/21/25
f 96/319/128 95/321/127 21/21/25 20/20/22
f 17/17/21 81/320/114 96/319/128 20/20/22
f 98/98/34 97/304/33 286/286/129 271/271/130
f 286/286/129 97/304/33 112/112/63 285/285/131
f 112/112/63 111/111/61 284/284/132 285/285/131
f 111/111/61 110/110/59 283/283/133 284/284/132
f 110/110/59 109/109/57 282/282/134 283/283/133
f 109/109/57 108/108/55 281/281/135 282/282/134
f 108/108/55 107/107/53 280/280/136 281/281/135
f 107/107/53 106/106/51 279/279/137 280/280/136
f 106/106/51 105/402/49 278/278/138 279/279/137
f 105/105/49 104/104/47 277/277/139 278/401/138
f 104/104/47 103/103/45 276/276/140 277/277/139
f 103/103/45 102/102/43 275/275/141 276/276/140
f 102/102/43 101/101/41 274/274/142 275/275/141
f 101/101/41 100/100/39 273/273/143 274/274/142
f 100/100/39 99/99/37 272/272/144 273/273/143
f 99/99/37 98/98/34 271/271/130 272/272/144
f 67/355/108 114/114/145 113/113/146 46/43/109
f 115/115/147 114/114/145 67/355/108 45/358/107
f 65/357/106 116/412/148 115/115/147 45/358/107
f 117/117/149 116/116/148 65/413/106 44/56/103
f 61/361/102 118/118/150 117/117/149 44/56/103
f 41/54/104 119/119/151 118/118/150 61/361/102
f 120/120/152 119/119/151 41/54/104 63/359/105
f 121/121/153 120/120/152 63/359/105 42/52/98
f 57/365/97 122/122/154 121/121/153 42/52/98
f 43/50/99 123/123/155 122/122/154 57/365/97
f 59/363/100 124/124/156 123/123/155 43/50/99
f 48/48/101 125/125/157 124/124/156 59/363/100
f 71/351/112 126/126/158 125/125/157 48/48/101
f 47/46/111 127/127/159 126/126/158 71/351/112
f 128/128/160 127/127/159 47/46/111 69/353/110
f 113/113/146 128/128/160 69/353/110 46/43/109
f 113/113/146 114/114/145 130/130/161 129/129/162
f 131/131/163 130/130/161 114/114/145 115/115/147
f 115/115/147 116/412/148 132/411/164 131/131/163
f 133/133/165 132/132/164 116/116/148 117/117/149
f 117/117/149 118/118/150 134/134/166 133/133/165
f 118/118/150 119/119/151 135/135/167 134/134/166
f 136/136/168 135/135/167 119/119/151 120/120/152
f 137/137/169 136/136/168 120/120/152 121/121/153
f 121/121/153 122/122/154 138/138/170 137/137/169
f 122/122/154 123/123/155 139/139/171 138/138/170
f 123/123/155 124/124/156 140/140/172 139/139/171
f 124/124/156 125/125/157 141/141/173 140/140/172
f 125/125/157 126/126/158 142/142/174 141/141/173
f 126/126/158 127/127/159 143/143/175 142/142/174
f 144/144/176 143/143/175 127/127/159 128/128/160
f 129/129/162 144/144/176 128/128/160 113/113/146
f 49/42/68 68/387/67 241/241/177 242/242/178
f 70/70/72 49/42/68 242/242/178 243/243/179
f 64/64/88 54/51/84 237/237/180 238/238/181
f 54/51/84 58/397/83 236/236/182 237/237/180
f 243/243/179 244/244/183 51/45/69 70/70/72
f 53/49/80 235/235/184 236/236/182 58/397/83
f 238/238/181 239/239/185 55/53/85 64/64/88
f 50/390/96 240/240/186 241/241/177 68/387/67
f 129/129/162 130/130/161 151/151/66 150/150/65
f 152/152/93 151/151/66 130/130/161 131/131/163
f 131/131/163 132/411/164 153/409/94 152/152/93
f 154/154/89 153/153/94 132/132/164 133/133/165
f 133/133/165 134/134/166 155/155/90 154/154/89
f 134/134/166 135/135/167 156/156/86 155/155/90
f 157/157/87 156/156/86 135/135/167 136/136/168
f 158/158/81 157/157/87 136/136/168 137/137/169
f 137/137/169 138/138/170 159/159/82 158/158/81
f 138/138/170 139/139/171 160/160/77 159/159/82
f 139/139/171 140/140/172 161/161/78 160/160/77
f 140/140/172 141/141/173 162/162/73 161/161/78
f 141/141/173 142/142/174 163/163/74 162/162/73
f 142/142/174 143/143/175 164/164/70 163/163/74
f 165/165/71 164/164/70 143/143/175 144/144/176
f 150/150/65 165/165/71 144/144/176 129/129/162
f 167/382/187 166/374/188 214/214/189 215/215/190
f 167/382/187 215/215/190 216/216/191 168/381/192
f 216/216/191 217/217/193 169/380/194 168/381/192
f 217/217/193 218/218/195 170/379/196 169/380/194
f 218/218/195 219/219/197 171/171/198 170/379/196
f 219/219/197 220/220/199 172/377/200 171/171/198
f 220/220/199 221/221/201 173/376/202 172/377/200
f 221/221/201 222/222/203 174/375/204 173/376/202
f 174/375/204 222/222/203 223/223/205 175/368/206
f 229/229/207 214/214/189 166/374/188 176/373/208
f 177/372/209 228/228/210 229/229/207 176/373/208
f 178/371/211 227/227/212 228/228/210 177/372/209
f 179/370/213 226/226/214 227/404/212 178/408/211
f 225/225/215 226/226/214 179/370/213 180/369/216
f 224/224/217 225/225/215 180/369/216 181/367/218
f 175/368/206 223/223/205 224/224/217 181/367/218
f 183/183/219 182/182/220 74/74/19 38/38/24
f 184/184/221 183/183/219 38/38/24 75/75/23
f 39/39/28 185/185/222 184/184/221 75/75/23
f 76/76/27 186/186/223 185/185/222 39/39/28
f 40/40/32 187/187/224 186/186/223 76/76/27
f 77/77/31 188/188/225 187/187/224 40/40/32
f 35/35/8 189/189/226 188/188/225 77/77/31
f 78/78/7 190/190/227 189/189/226 35/35/8
f 191/191/228 190/190/227 78/78/7 34/34/4
f 192/192/229 191/191/228 34/34/4 79/79/3
f 33/33/9 193/193/230 192/192/229 79/79/3
f 80/80/12 194/194/231 193/193/230 33/33/9
f 195/406/232 194/194/231 80/80/12 36/407/16
f 196/196/233 195/195/232 36/36/16 73/73/15
f 197/197/234 196/196/233 73/73/15 37/37/20
f 74/74/19 182/182/220 197/197/234 37/37/20
f 199/199/235 198/198/236 182/182/220 183/183/219
f 200/200/237 199/199/235 183/183/219 184/184/221
f 184/184/221 185/185/222 201/201/238 200/200/237
f 185/185/222 186/186/223 202/202/239 201/201/238
f 186/186/223 187/187/224 203/203/240 202/202/239
f 187/187/224 188/188/225 204/204/241 203/203/240
f 188/188/225 189/189/226 205/205/242 204/204/241
f 189/189/226 190/190/227 206/206/243 205/205/242
f 207/207/244 206/206/243 190/190/227 191/191/228
f 208/208/245 207/207/244 191/191/228 192/192/229
f 192/192/229 193/193/230 209/209/246 208/208/245
f 193/193/230 194/194/231 210/210/247 209/209/246
f 211/405/248 210/210/247 194/194/231 195/406/232
f 212/212/249 211/211/248 195/195/232 196/196/233
f 213/213/250 212/212/249 196/196/233 197/197/234
f 197/197/234 182/182/220 198/198/236 213/213/250
f 215/215/190 214/214/189 198/198/236 199/199/235
f 216/216/191 215/215/190 199/199/235 200/200/237
f 200/200/237 201/201/238 217/217/193 216/216/191
f 201/201/238 202/202/239 218/218/195 217/217/193
f 202/202/239 203/203/240 219/219/197 218/218/195
f 203/203/240 204/204/241 220/220/199 219/219/197
f 204/204/241 205/205/242 221/221/201 220/220/199
f 205/205/242 206/206/243 222/222/203 221/221/201
f 223/223/205 222/222/203 206/206/243 207/207/244
f 224/224/217 223/223/205 207/207/244 208/208/245
f 208/208/245 209/209/246 225/225/215 224/224/217
f 209/209/246 210/210/247 226/226/214 225/225/215
f 227/404/212 226/226/214 210/210/247 211/405/248
f 228/228/210 227/227/212 211/211/248 212/212/249
f 229/229/207 228/228/210 212/212/249 213/213/250
f 213/213/250 198/198/236 214/214/189 229/229/207
f 167/166/187 247/247/251 248/248/252 166/167/188
f 246/246/253 247/247/251 167/166/187 168/168/192
f 166/167/188 248/248/252 249/249/254 176/176/208
f 245/245/255 246/246/253 168/168/192 169/169/194
f 174/174/204 253/253/256 254/254/257 173/173/202
f 175/175/206 252/252/258 253/253/256 174/174/204
f 251/251/259 252/252/258 175/175/206 181/181/218
f 250/250/260 251/251/259 181/181/218 180/180/216
f 236/236/182 235/235/184 148/148/261 147/147/262
f 237/237/180 236/236/182 147/147/262 146/146/263
f 238/238/181 237/237/180 146/146/263 145/145/264
f 149/149/265 239/239/185 238/238/181 145/145/264
f 241/241/177 240/240/186 149/149/265 145/145/264
f 242/242/178 241/241/177 145/145/264 146/146/263
f 243/243/179 242/242/178 146/146/263 147/147/262
f 148/148/261 244/244/183 243/243/179 147/147/262
f 230/230/266 231/231/267 246/246/253 245/245/255
f 231/231/267 232/232/268 247/247/251 246/246/253
f 248/248/252 247/247/251 232/232/268 233/233/269
f 249/249/254 248/248/252 233/233/269 234/234/270
f 234/234/270 233/233/269 251/251/259 250/250/260
f 233/233/269 232/232/268 252/252/258 251/251/259
f 253/253/256 252/252/258 232/232/268 231/231/267
f 254/254/257 253/253/256 231/231/267 230/230/266
f 230/230/266 245/245/255 169/169/194 170/170/196
f 254/254/257 230/230/266 172/172/200 173/173/202
f 171/378/198 172/172/200 230/230/266 170/170/196
f 176/176/208 249/249/254 234/234/270 177/177/209
f 234/234/270 250/250/260 180/180/216 179/179/213
f 178/178/211 177/177/209 234/234/270 179/179/213
f 50/390/96 66/66/95 149/149/265 240/240/186
f 149/149/265 62/62/91 55/53/85 239/239/185
f 66/66/95 56/394/92 62/62/91 149/149/265
f 235/235/184 53/49/80 60/60/79 148/148/261
f 244/244/183 148/148/261 72/72/75 51/45/69
f 52/384/76 72/72/75 148/148/261 60/60/79
f 287/287/271 288/288/272 81/81/114 82/334/113
f 302/302/273 287/287/271 82/334/113 83/333/115
f 84/84/116 301/301/274 302/302/273 83/333/115
f 85/85/117 300/300/275 301/301/274 84/84/116
f 86/86/118 299/299/276 300/300/275 85/85/117
f 87/87/119 298/298/277 299/299/276 86/86/118
f 88/400/120 297/297/278 298/298/277 87/87/119
f 89/89/121 296/296/279 297/399/278 88/88/120
f 90/90/122 295/295/280 296/296/279 89/89/121
f 91/91/123 294/294/281 295/295/280 90/90/122
f 92/92/124 293/293/282 294/294/281 91/91/123
f 93/93/125 292/292/283 293/293/282 92/92/124
f 94/94/126 291/291/284 292/292/283 93/93/125
f 95/95/127 290/290/285 291/291/284 94/94/126
f 96/96/128 289/289/286 290/290/285 95/95/127
f 81/81/114 288/288/272 289/289/286 96/96/128
f 272/272/144 271/271/130 255/255/287 256/256/288
f 273/273/143 272/272/144 256/256/288 257/257/289
f 274/274/142 273/273/143 257/257/289 258/258/290
f 275/275/141 274/274/142 258/258/290 259/259/291
f 276/276/140 275/275/141 259/259/291 260/260/292
f 277/277/139 276/276/140 260/260/292 261/261/293
f 278/401/138 277/277/139 261/261/293 262/403/294
f 279/279/137 278/278/138 262/262/294 263/263/295
f 280/280/136 279/279/137 263/263/295 264/264/296
f 281/281/135 280/280/136 264/264/296 265/265/297
f 282/282/134 281/281/135 265/265/297 266/266/298
f 283/283/133 282/282/134 266/266/298 267/267/299
f 284/284/132 283/283/133 267/267/299 268/268/300
f 285/285/131 284/284/132 268/268/300 269/269/301
f 286/286/129 285/285/131 269/269/301 270/270/302
f 270/270/302 255/255/287 271/271/130 286/286/129
f 256/256/288 255/255/287 288/288/272 287/287/271
f 289/289/286 288/288/272 255/255/287 270/270/302
f 290/290/285 289/289/286 270/270/302 269/269/301
f 269/269/301 268/268/300 291/291/284 290/290/285
f 268/268/300 267/267/299 292/292/283 291/291/284
f 267/267/299 266/266/298 293/293/282 292/292/283
f 266/266/298 265/265/297 294/294/281 293/293/282
f 265/265/297 264/264/296 295/295/280 294/294/281
f 264/264/296 263/263/295 296/296/279 295/295/280
f 263/263/295 262/262/294 297/399/278 296/296/279
f 262/403/294 261/261/293 298/298/277 297/297/278
f 261/261/293 260/260/292 299/299/276 298/298/277
f 260/260/292 259/259/291 300/300/275 299/299/276
f 259/259/291 258/258/290 301/301/274 300/300/275
f 258/258/290 257/257/289 302/302/273 301/301/274
f 257/257/289 256/256/288 287/287/271 302/302/273
