# This file uses centimeters as units for non-parametric coordinates.

mtllib SaffronBun.mtl
g default
v 0.298509 0.293670 0.335552
v 0.439175 0.347389 0.077501
v -0.017903 0.355336 -0.004223
v -0.057548 0.251083 0.132068
v 0.072706 0.231348 -0.191750
v 0.496412 0.259778 -0.266018
v 0.587479 0.276847 0.114016
v 0.587645 0.255098 -0.151732
v 0.420368 0.282611 0.306075
v -0.469416 0.357832 -0.037256
v -0.457303 0.280398 0.269575
v -0.360905 0.277342 -0.355516
v -0.582531 0.254344 0.175979
v -0.622528 0.266234 -0.053376
v -0.495699 0.262488 -0.296728
v -0.053125 0.292674 -0.295426
v -0.163804 0.359952 0.007048
v -0.181380 0.260008 0.274429
v 0.211124 0.264471 -0.278995
v 0.149131 0.339326 0.011453
v 0.051450 0.284351 0.286763
v -0.585344 0.269061 -0.186030
v -0.428947 0.348541 -0.203520
v -0.123864 0.352588 -0.173677
v 0.013282 0.345952 -0.089601
v 0.179689 0.341084 -0.142256
v 0.463537 0.351402 -0.084069
v 0.601300 0.277803 -0.015606
v 0.518470 0.270041 0.242726
v 0.389320 0.339565 0.206281
v 0.093978 0.351576 0.167943
v -0.041782 0.320345 0.082941
v -0.191516 0.348816 0.139441
v -0.457472 0.352428 0.143531
v -0.623544 0.250632 0.064277
v -0.329954 0.274736 0.300006
v -0.321996 0.356177 0.162043
v -0.314889 0.305463 -0.009026
v -0.274249 0.345644 -0.214179
v -0.213923 0.306135 -0.349204
v 0.380438 0.258205 -0.312750
v 0.336079 0.344288 -0.119855
v 0.319875 0.306828 0.055019
v 0.214290 0.349269 0.205123
v 0.156253 0.300114 0.328622
v -0.061780 0.141945 0.198928
v 0.028544 0.150238 0.323578
v -0.184039 0.153415 0.314523
v -0.336271 0.141186 0.341824
v -0.464336 0.135235 0.316723
v -0.580779 0.122486 0.232571
v -0.651317 0.121005 0.055026
v -0.654286 0.129074 -0.073437
v -0.609790 0.138891 -0.217700
v -0.507544 0.154710 -0.327384
v -0.346101 0.147880 -0.401037
v -0.180336 0.155141 -0.401461
v -0.045043 0.153491 -0.343906
v 0.089195 0.137795 -0.214593
v 0.228098 0.149314 -0.317403
v 0.376758 0.145421 -0.336664
v 0.514608 0.133880 -0.284657
v 0.612169 0.133693 -0.183309
v 0.650555 0.135093 -0.009468
v 0.624322 0.139864 0.147283
v 0.554400 0.149572 0.272147
v 0.449677 0.151242 0.351206
v 0.307561 0.151957 0.399231
v 0.156306 0.154076 0.390016
v 0.079235 0.042186 -0.166059
v -0.054850 0.023854 -0.274818
v -0.207161 0.015083 -0.341901
v -0.354960 0.016359 -0.342477
v -0.474311 0.016940 -0.292185
v -0.570466 0.013693 -0.191793
v -0.610770 0.013066 -0.071070
v -0.599613 0.010146 0.077199
v -0.554153 0.012709 0.194141
v -0.445281 0.013868 0.275037
v -0.329861 0.008369 0.287382
v -0.059758 0.031566 0.135286
v -0.193354 0.016953 0.264899
v 0.033078 0.021216 0.267669
v 0.164636 0.023074 0.351509
v 0.305888 0.025637 0.350975
v 0.432815 0.031477 0.314125
v 0.513765 0.029967 0.247942
v 0.582019 0.030869 0.131973
v 0.602364 0.025102 0.005549
v 0.566633 0.018668 -0.153588
v 0.480553 0.017680 -0.252024
v 0.211477 0.044021 -0.284204
v 0.352885 0.024659 -0.302790
v -0.452553 -0.029031 0.117285
v -0.408318 -0.029003 -0.192818
v -0.436990 -0.020920 -0.058820
v -0.312783 -0.029079 0.142038
v -0.287265 -0.027458 -0.037162
v -0.248069 -0.021892 -0.188370
v -0.100034 -0.028551 -0.147101
v -0.138467 -0.019768 -0.021310
v -0.168836 -0.028604 0.113123
v -0.039839 -0.016161 0.059214
v -0.007263 -0.029092 -0.016387
v 0.027398 -0.024436 -0.095810
v 0.358613 -0.027383 0.220626
v 0.461834 -0.029121 -0.074783
v 0.438749 -0.022489 0.070042
v 0.317695 -0.029054 -0.129437
v 0.277475 -0.028854 0.043988
v 0.215475 -0.028292 0.212773
v 0.189066 -0.029096 -0.123012
v 0.151253 -0.028441 0.011063
v 0.102211 -0.028886 0.158469
vt 0.830459 0.104398
vt 0.764397 0.781113
vt 0.702329 0.703991
vt 0.975982 0.000318
vt 0.837149 0.281767
vt 0.852445 0.379848
vt 0.837049 0.249281
vt 0.832935 0.190590
vt 0.832513 0.132184
vt 0.644496 0.625917
vt 0.989688 0.101866
vt 0.987543 0.281600
vt 0.988290 0.188065
vt 0.985304 0.136700
vt 0.985965 0.249298
vt 0.985341 0.351179
vt 0.688349 0.676596
vt 0.980282 0.039884
vt 0.842315 0.346283
vt 0.722203 0.733245
vt 0.832756 0.048190
vt 0.988500 0.218081
vt 0.621206 0.650859
vt 0.659141 0.702055
vt 0.688701 0.719443
vt 0.698200 0.756029
vt 0.738181 0.800248
vt 0.832512 0.219153
vt 0.834530 0.158295
vt 0.782310 0.759704
vt 0.747128 0.708936
vt 0.718467 0.688598
vt 0.706782 0.654775
vt 0.676265 0.608983
vt 0.984628 0.162559
vt 0.986998 0.072826
vt 0.695275 0.629452
vt 0.667251 0.650924
vt 0.635645 0.679578
vt 0.991859 0.314218
vt 0.840080 0.309037
vt 0.718411 0.781579
vt 0.747817 0.760670
vt 0.765359 0.727550
vt 0.829934 0.073032
vt 0.952049 0.012239
vt 0.862061 0.047674
vt 0.957986 0.045516
vt 0.957503 0.075658
vt 0.958274 0.100774
vt 0.957122 0.128644
vt 0.957668 0.165876
vt 0.959127 0.191222
vt 0.960546 0.220862
vt 0.962611 0.250209
vt 0.959242 0.284572
vt 0.958414 0.316667
vt 0.955202 0.345234
vt 0.871590 0.372880
vt 0.866046 0.338135
vt 0.863957 0.308449
vt 0.864289 0.279585
vt 0.863052 0.252486
vt 0.863237 0.218088
vt 0.862964 0.187113
vt 0.861692 0.159276
vt 0.862158 0.134075
vt 0.862500 0.105012
vt 0.861739 0.075653
vt 0.166819 0.708536
vt 0.135054 0.693754
vt 0.101794 0.685412
vt 0.071617 0.689481
vt 0.048323 0.703031
vt 0.031387 0.726482
vt 0.026205 0.752253
vt 0.032111 0.782374
vt 0.044216 0.805525
vt 0.068530 0.819858
vt 0.092598 0.819619
vt 0.120370 0.812568
vt 0.146908 0.784944
vt 0.171092 0.807681
vt 0.200817 0.820555
vt 0.229847 0.816497
vt 0.255215 0.805362
vt 0.270002 0.789275
vt 0.280983 0.763629
vt 0.281838 0.737065
vt 0.270283 0.705072
vt 0.250219 0.686662
vt 0.193589 0.683558
vt 0.222951 0.678506
vt 0.064237 0.786549
vt 0.065729 0.722676
vt 0.062973 0.750474
vt 0.093287 0.788381
vt 0.094612 0.751075
vt 0.098625 0.719058
vt 0.130297 0.723622
vt 0.125950 0.750724
vt 0.122197 0.779132
vt 0.148622 0.765422
vt 0.153450 0.748085
vt 0.158349 0.730049
vt 0.235622 0.786343
vt 0.249075 0.724332
vt 0.248189 0.754106
vt 0.218387 0.716442
vt 0.214045 0.752698
vt 0.206478 0.788827
vt 0.191920 0.720766
vt 0.187082 0.749259
vt 0.181752 0.780982
vt 0.890201 0.280219
vt 0.890216 0.310261
vt 0.888585 0.341436
vt 0.893297 0.378348
vt 0.889796 0.251253
vt 0.888114 0.215486
vt 0.886933 0.187534
vt 0.888533 0.158085
vt 0.887928 0.135066
vt 0.890267 0.106174
vt 0.890538 0.074920
vt 0.889613 0.040508
vt 0.925994 0.006610
vt 0.928455 0.076511
vt 0.927859 0.046089
vt 0.931140 0.102053
vt 0.933390 0.132087
vt 0.932681 0.159215
vt 0.933548 0.191752
vt 0.933063 0.219504
vt 0.932304 0.249954
vt 0.930032 0.278162
vt 0.926534 0.310820
vt 0.925296 0.347394
vt 0.785135 0.705461
vt 0.799902 0.731272
vt 0.687574 0.813849
vt 0.674747 0.780365
vt 0.616134 0.703884
vt 0.597669 0.678689
vt 0.719979 0.608062
vt 0.735482 0.636211
vt 0.642126 0.582126
vt 0.667037 0.577175
vt 0.805031 0.781549
vt 0.787626 0.806753
vt 0.765209 0.822358
vt 0.738653 0.835033
vt 0.602505 0.619271
vt 0.621855 0.597252
vt 0.768971 0.688505
vt 0.667365 0.748124
vt 0.732066 0.675611
vt 0.641251 0.727540
vt 0.592152 0.647879
vt 0.698738 0.589951
vt 0.806526 0.756861
vt 0.708311 0.829387
vt 0.887028 0.006389
vt 0.862415 0.016603
vt 0.947819 0.382131
vt 0.925346 0.384118
vt 0.968737 0.384903
vt 0.837071 0.007881
vn 0.101273 0.683290 0.723090
vn 0.145231 0.975837 0.163247
vn 0.017566 0.992105 0.124173
vn -0.167470 0.683256 0.710715
vn 0.422648 0.664836 -0.615924
vn 0.079814 0.673939 -0.734463
vn 0.004223 0.981403 -0.191912
vn 0.207488 0.966677 -0.149951
vn 0.749388 0.565695 -0.344102
vn 0.751641 0.658171 -0.042974
vn 0.591046 0.643452 0.486451
vn 0.361431 0.610564 0.704684
vn -0.061540 0.703839 0.707689
vn -0.014323 0.944872 0.327126
vn 0.152537 0.941207 0.301434
vn 0.407887 0.556153 0.724101
vn 0.437279 0.662116 -0.608596
vn 0.098014 0.978672 -0.180537
vn 0.115703 0.962698 -0.244592
vn 0.099735 0.624715 -0.774457
vn -0.222851 0.959956 0.169770
vn -0.799632 0.569831 0.189423
vn -0.729755 0.486627 0.480263
vn -0.373616 0.608440 0.700151
vn -0.511834 0.544736 -0.664296
vn -0.696598 0.627444 -0.347946
vn -0.163458 0.969936 -0.180295
vn -0.203592 0.622057 -0.756040
vn -0.019661 0.989694 -0.141844
vn 0.103754 0.706441 -0.700126
vn 0.011943 0.623610 0.781645
vn 0.042052 0.976308 0.212260
vn -0.092333 0.944441 -0.315445
vn -0.246984 0.635053 -0.731920
vn -0.551196 0.576393 0.603286
vn -0.164344 0.971320 0.171839
vn -0.755467 0.651148 -0.072635
vn -0.205717 0.978549 -0.011078
vn 0.006872 0.999821 -0.017607
vn -0.071892 0.997122 0.024085
vn 0.036557 0.998502 0.040708
vn 0.062143 0.997885 0.019060
vn -0.028974 0.999491 -0.013367
vn 0.163706 0.983956 0.070927
vn 0.712957 0.664061 0.225200
vn -0.082342 -0.019338 0.996417
vn -0.660673 0.013734 0.750548
vn 0.458820 -0.022514 0.888244
vn 0.006751 -0.026851 0.999617
vn -0.411121 0.004546 0.911569
vn -0.772184 -0.036503 0.634350
vn -0.977076 -0.089116 0.193343
vn -0.987671 -0.056668 -0.145926
vn -0.860672 -0.045012 -0.507166
vn -0.576555 -0.032518 -0.816411
vn -0.183410 -0.047044 -0.981910
vn 0.210520 -0.029931 -0.977131
vn 0.526582 -0.045027 -0.848931
vn 0.076554 -0.106781 -0.991331
vn -0.353340 -0.006235 -0.935474
vn 0.104611 -0.033401 -0.993952
vn 0.573290 -0.080078 -0.815430
vn 0.896910 -0.064664 -0.437459
vn 0.998764 -0.034904 -0.035400
vn 0.943244 0.005610 0.332053
vn 0.765653 0.031987 0.642458
vn 0.444518 0.044315 0.894673
vn 0.124975 0.058102 0.990457
vn -0.245003 0.038058 0.968775
vn 0.026597 -0.728108 -0.684946
vn 0.376217 -0.714868 -0.589428
vn 0.138150 -0.747128 -0.650165
vn -0.140297 -0.713282 -0.686692
vn -0.432404 -0.633027 -0.642109
vn -0.586837 -0.730045 -0.350223
vn -0.608017 -0.788393 -0.093551
vn -0.607221 -0.783639 0.131125
vn -0.586108 -0.677527 0.444336
vn -0.263689 -0.725149 0.636103
vn 0.029419 -0.744347 0.667145
vn 0.356342 -0.653564 0.667739
vn -0.001008 -0.805837 0.592137
vn -0.513191 -0.654122 0.555661
vn -0.201599 -0.669030 0.715372
vn 0.104496 -0.671085 0.733979
vn 0.359199 -0.620284 0.697297
vn 0.522737 -0.735559 0.430929
vn 0.621624 -0.746904 0.236046
vn 0.682022 -0.731327 0.002623
vn 0.644828 -0.705997 -0.292857
vn 0.344240 -0.767165 -0.541256
vn -0.314440 -0.623473 -0.715827
vn 0.040435 -0.737923 -0.673673
vn -0.128850 -0.988696 0.076662
vn -0.093012 -0.986230 -0.136742
vn -0.119070 -0.992610 -0.023390
vn 0.009965 -0.992074 0.125263
vn 0.002103 -0.999942 -0.010578
vn 0.035440 -0.988715 -0.145557
vn 0.107328 -0.978209 -0.177731
vn 0.007772 -0.999967 0.002544
vn 0.139154 -0.974758 0.174594
vn -0.038955 -0.986861 0.156804
vn -0.025655 -0.999570 0.014229
vn 0.041615 -0.973677 -0.224101
vn 0.123404 -0.975473 0.182274
vn 0.168444 -0.983000 -0.073064
vn 0.174211 -0.982145 0.071011
vn -0.002526 -0.983441 -0.181212
vn 0.010958 -0.999921 0.006161
vn -0.034980 -0.982886 0.180865
vn -0.110996 -0.958024 -0.264331
vn -0.015626 -0.999872 0.003421
vn -0.144981 -0.976056 0.162157
s 1
g SaffronBun_LOW Pickups
usemtl lambert1SG
f 1/140/1 30/30/2 44/44/3 45/139/4
f 6/162/5 41/141/6 42/42/7 27/27/8
f 8/152/9 6/162/5 27/27/8 28/151/10
f 29/149/11 30/30/2 1/140/1 9/161/12
f 4/157/13 32/32/14 33/33/15 18/146/16
f 16/158/17 24/24/18 25/25/19 5/156/20
f 34/34/21 35/147/22 13/148/23 11/160/24
f 15/159/25 22/153/26 23/23/27 12/144/28
f 23/23/27 39/39/29 40/143/30 12/144/28
f 36/145/31 37/37/32 34/34/21 11/160/24
f 25/25/19 26/26/33 19/142/34 5/156/20
f 21/155/35 31/31/36 32/32/14 4/157/13
f 23/23/27 22/153/26 14/154/37 10/10/38
f 10/10/38 38/38/39 39/39/29 23/23/27
f 25/25/19 24/24/18 17/17/40 3/3/41
f 20/20/42 26/26/33 25/25/19 3/3/41
f 27/27/8 42/42/7 43/43/43 2/2/44
f 28/151/10 27/27/8 2/2/44 7/150/45
f 2/2/44 30/30/2 29/149/11 7/150/45
f 43/43/43 44/44/3 30/30/2 2/2/44
f 32/32/14 31/31/36 20/20/42 3/3/41
f 33/33/15 32/32/14 3/3/41 17/17/40
f 34/34/21 37/37/32 38/38/39 10/10/38
f 14/154/37 35/147/22 34/34/21 10/10/38
f 18/146/16 33/33/15 37/37/32 36/145/31
f 38/38/39 37/37/32 33/33/15 17/17/40
f 39/39/29 38/38/39 17/17/40 24/24/18
f 40/143/30 39/39/29 24/24/18 16/158/17
f 42/42/7 41/141/6 19/142/34 26/26/33
f 43/43/43 42/42/7 26/26/33 20/20/42
f 31/31/36 44/44/3 43/43/43 20/20/42
f 45/139/4 44/44/3 31/31/36 21/155/35
f 21/21/35 4/168/13 46/164/46 47/47/47
f 46/46/46 4/4/13 18/18/16 48/48/48
f 18/18/16 36/36/31 49/49/49 48/48/48
f 50/50/50 49/49/49 36/36/31 11/11/24
f 51/51/51 50/50/50 11/11/24 13/14/23
f 13/14/23 35/35/22 52/52/52 51/51/51
f 53/53/53 52/52/52 35/35/22 14/13/37
f 54/54/54 53/53/53 14/13/37 22/22/26
f 55/55/55 54/54/54 22/22/26 15/15/25
f 56/56/56 55/55/55 15/15/25 12/12/28
f 57/57/57 56/56/56 12/12/28 40/40/30
f 58/58/58 57/57/57 40/40/30 16/16/17
f 59/165/59 58/58/58 16/16/17 5/167/20
f 60/60/60 59/59/59 5/6/20 19/19/34
f 61/61/61 60/60/60 19/19/34 41/41/6
f 62/62/62 61/61/61 41/41/6 6/5/5
f 6/5/5 8/7/9 63/63/63 62/62/62
f 8/7/9 28/28/10 64/64/64 63/63/63
f 65/65/65 64/64/64 28/28/10 7/8/45
f 7/8/45 29/29/11 66/66/66 65/65/65
f 67/67/67 66/66/66 29/29/11 9/9/12
f 1/1/1 68/68/68 67/67/67 9/9/12
f 69/69/69 45/45/4 21/21/35 47/47/47
f 1/1/1 45/45/4 69/69/69 68/68/68
f 58/58/58 59/165/59 70/166/70 71/138/71
f 71/138/71 72/137/72 57/57/57 58/58/58
f 72/137/72 73/136/73 56/56/56 57/57/57
f 73/136/73 74/135/74 55/55/55 56/56/56
f 75/134/75 54/54/54 55/55/55 74/135/74
f 54/54/54 75/134/75 76/133/76 53/53/53
f 76/133/76 77/132/77 52/52/52 53/53/53
f 77/132/77 78/131/78 51/51/51 52/52/52
f 79/130/79 50/50/50 51/51/51 78/131/78
f 50/50/50 79/130/79 80/128/80 49/49/49
f 82/129/81 81/127/82 46/46/46 48/48/48
f 80/128/80 82/129/81 48/48/48 49/49/49
f 47/47/47 46/164/46 81/163/82 83/126/83
f 83/126/83 84/125/84 69/69/69 47/47/47
f 84/125/84 85/124/85 68/68/68 69/69/69
f 85/124/85 86/123/86 67/67/67 68/68/68
f 86/123/86 87/122/87 66/66/66 67/67/67
f 87/122/87 88/121/88 65/65/65 66/66/66
f 64/64/64 65/65/65 88/121/88 89/120/89
f 89/120/89 90/119/90 63/63/63 64/64/64
f 90/119/90 91/115/91 62/62/62 63/63/63
f 92/117/92 70/118/70 59/59/59 60/60/60
f 93/116/93 92/117/92 60/60/60 61/61/61
f 62/62/62 91/115/91 93/116/93 61/61/61
f 78/78/78 77/77/77 94/94/94 79/79/79
f 74/74/74 73/73/73 95/95/95 75/75/75
f 77/77/77 76/76/76 96/96/96 94/94/94
f 75/75/75 95/95/95 96/96/96 76/76/76
f 97/97/97 80/80/80 79/79/79 94/94/94
f 98/98/98 97/97/97 94/94/94 96/96/96
f 99/99/99 98/98/98 96/96/96 95/95/95
f 72/72/72 99/99/99 95/95/95 73/73/73
f 72/72/72 71/71/71 100/100/100 99/99/99
f 101/101/101 98/98/98 99/99/99 100/100/100
f 101/101/101 102/102/102 97/97/97 98/98/98
f 102/102/102 82/81/81 80/80/80 97/97/97
f 81/82/82 82/81/81 102/102/102 103/103/103
f 103/103/103 102/102/102 101/101/101 104/104/104
f 100/100/100 105/105/105 104/104/104 101/101/101
f 105/105/105 100/100/100 71/71/71 70/70/70
f 87/87/87 86/86/86 85/85/85 106/106/106
f 90/90/90 89/89/89 107/107/107 91/91/91
f 88/88/88 108/108/108 107/107/107 89/89/89
f 108/108/108 88/88/88 87/87/87 106/106/106
f 91/91/91 107/107/107 109/109/109 93/93/93
f 107/107/107 108/108/108 110/110/110 109/109/109
f 106/106/106 111/111/111 110/110/110 108/108/108
f 84/84/84 111/111/111 106/106/106 85/85/85
f 112/112/112 92/92/92 93/93/93 109/109/109
f 113/113/113 112/112/112 109/109/109 110/110/110
f 110/110/110 111/111/111 114/114/114 113/113/113
f 84/84/84 83/83/83 114/114/114 111/111/111
f 103/103/103 114/114/114 83/83/83 81/82/82
f 114/114/114 103/103/103 104/104/104 113/113/113
f 105/105/105 112/112/112 113/113/113 104/104/104
f 70/70/70 92/92/92 112/112/112 105/105/105
