# This file uses centimeters as units for non-parametric coordinates.

g default
v -0.094914 0.446048 1.809811
v -0.097968 0.852041 1.841501
v -0.434333 0.728788 1.833344
v -0.585513 0.415494 1.814061
v -0.083481 0.078284 1.784186
v -0.419044 0.130466 1.803719
v 0.289703 0.155359 1.784484
v 0.406646 0.465393 1.792936
v 0.244359 0.735779 1.830926
v 0.013598 0.839731 1.842038
v 0.057955 0.449242 1.800159
v 0.041598 0.083377 1.788663
v 0.126713 0.804313 1.839982
v 0.213987 0.449440 1.787557
v 0.176871 0.101858 1.791879
v -0.203243 0.083208 1.791069
v -0.248483 0.437944 1.819858
v -0.217452 0.839100 1.840835
v -0.323684 0.097399 1.800255
v -0.410373 0.426588 1.817715
v -0.334530 0.795573 1.838104
v -0.572053 0.514803 1.818445
v -0.399771 0.541629 1.824324
v -0.244542 0.560453 1.827144
v -0.096837 0.570361 1.826618
v 0.048916 0.570631 1.818247
v 0.198097 0.563193 1.796127
v 0.374996 0.573642 1.805649
v -0.518150 0.628132 1.826714
v -0.371665 0.664413 1.832198
v -0.232738 0.691966 1.831446
v -0.097810 0.705560 1.835796
v 0.033553 0.700579 1.829813
v 0.170789 0.680993 1.823095
v 0.316564 0.658508 1.821698
v 0.394874 0.341213 1.781770
v 0.218140 0.335565 1.781637
v 0.059141 0.330104 1.792828
v -0.090795 0.325912 1.801698
v -0.244711 0.319216 1.812181
v -0.404748 0.310910 1.818453
v -0.565097 0.291726 1.818734
v 0.359715 0.244290 1.774615
v 0.199542 0.224540 1.780724
v 0.054128 0.210816 1.795186
v -0.083954 0.205293 1.797667
v -0.228941 0.204976 1.803290
v -0.350571 0.209496 1.811290
v -0.504245 0.196704 1.818680
v 0.255435 0.737134 1.790647
v 0.323015 0.668144 1.797348
v 0.128275 0.817419 1.748046
v 0.011417 0.852398 1.760946
v -0.100310 0.863271 1.788374
v -0.213885 0.851676 1.791298
v -0.330593 0.811618 1.789871
v -0.448674 0.728525 1.777571
v -0.531431 0.623741 1.762564
v -0.576822 0.508591 1.754938
v -0.589650 0.405481 1.755141
v -0.567218 0.288347 1.787937
v -0.507754 0.192244 1.793375
v -0.417852 0.125074 1.761575
v -0.313797 0.088103 1.755311
v -0.196873 0.073850 1.771998
v -0.086746 0.072789 1.761944
v 0.043033 0.073542 1.743586
v 0.169429 0.093814 1.755722
v 0.292268 0.151014 1.751994
v 0.369143 0.240146 1.759441
v 0.403784 0.339373 1.772309
v 0.411224 0.469674 1.752809
v 0.380522 0.577480 1.748756
v 0.355454 0.694033 1.783186
v 0.297065 0.769884 1.775172
v 0.152286 0.862847 1.728588
v 0.016505 0.900741 1.738929
v -0.102384 0.914783 1.768654
v -0.217259 0.903004 1.774668
v -0.339986 0.839492 1.777250
v -0.495961 0.738961 1.762166
v -0.573530 0.646968 1.743084
v -0.637267 0.528911 1.714405
v -0.643422 0.397050 1.719894
v -0.619581 0.277868 1.757069
v -0.546945 0.166448 1.779436
v -0.432849 0.051290 1.717167
v -0.314521 0.036957 1.733005
v -0.191658 0.028909 1.742173
v -0.080729 0.030989 1.730784
v 0.058859 0.035449 1.721819
v 0.211863 0.042345 1.717073
v 0.318587 0.118331 1.730629
v 0.418437 0.204208 1.727740
v 0.456970 0.318918 1.748616
v 0.471623 0.460537 1.727527
v 0.437250 0.570563 1.721781
v 0.448590 0.639655 1.627788
v 0.496152 0.451189 1.601887
v 0.376439 0.717554 1.697479
v 0.278437 0.807135 1.677400
v 0.153106 0.875876 1.652685
v 0.018818 0.916986 1.666925
v -0.098910 0.928820 1.687158
v -0.217383 0.916029 1.706080
v -0.341093 0.872536 1.720426
v -0.519949 0.753921 1.705130
v -0.584435 0.660412 1.693638
v -0.641541 0.532681 1.664373
v -0.652498 0.396161 1.657993
v -0.623404 0.274206 1.662845
v -0.565787 0.166934 1.675204
v -0.430594 0.042396 1.637236
v -0.309933 0.030063 1.660111
v -0.184983 0.029924 1.649213
v -0.077252 0.030243 1.637244
v 0.053993 0.030386 1.636506
v 0.210502 0.030752 1.624855
v 0.333526 0.074199 1.623366
v 0.429107 0.194277 1.620416
v 0.468163 0.309594 1.621070
v -0.540553 0.111485 0.083596
v -0.415439 0.038541 0.063671
v -0.508246 0.105658 -0.365883
v -0.384326 0.032771 -0.369811
v -0.478696 0.092881 -0.835088
v -0.377332 0.033953 -0.827815
v -0.414571 0.082296 -1.654158
v -0.345569 0.047576 -1.660528
v 0.247903 0.052213 0.049106
v 0.318643 0.154827 0.053406
v 0.251949 0.047574 -0.369438
v 0.353241 0.133802 -0.356904
v 0.267010 0.046668 -0.832923
v 0.367832 0.125074 -0.836634
v 0.288030 0.084871 -1.723568
v 0.377793 0.185526 -1.738109
v -0.294177 0.030587 0.063032
v -0.186516 0.030443 0.056721
v -0.085804 0.030435 0.048037
v 0.027097 0.030415 0.048419
v 0.162506 0.032039 0.046535
v -0.280233 0.030525 -0.367896
v -0.173111 0.030430 -0.372740
v -0.080258 0.030442 -0.365491
v 0.031624 0.030441 -0.369005
v 0.150674 0.030705 -0.366225
v -0.267194 0.030467 -0.828406
v -0.158334 0.030436 -0.828748
v -0.048307 0.030441 -0.828947
v 0.028124 0.030440 -0.831961
v 0.142725 0.030468 -0.838399
v -0.239860 0.050696 -1.693072
v 0.161412 0.043562 -1.709321
v 0.071889 0.034402 -1.706636
v -0.026415 0.043472 -1.717398
v -0.128685 0.048190 -1.711540
v -0.672446 0.379890 0.123764
v -0.631829 0.255367 0.112392
v -0.620107 0.365721 -0.371135
v -0.589925 0.234450 -0.366602
v -0.544262 0.376363 -0.846739
v -0.538240 0.218495 -0.833827
v -0.511535 0.345547 -1.632095
v -0.468770 0.217990 -1.650076
v -0.658799 0.508464 0.122815
v -0.624337 0.495567 -0.378053
v -0.526163 0.502732 -0.842709
v -0.507975 0.450100 -1.621538
v -0.410011 0.826218 0.101924
v -0.510870 0.743275 0.119304
v -0.394589 0.818564 -0.409541
v -0.507632 0.766736 -0.378864
v -0.608787 0.642441 0.125172
v -0.595053 0.641674 -0.381712
v -0.496019 0.637954 -0.835718
v -0.448157 0.739569 -0.841656
v -0.402547 0.751733 -1.598065
v -0.425540 0.652408 -1.608394
v -0.312529 0.877945 0.065543
v -0.196887 0.898977 0.067609
v -0.084370 0.901824 0.056253
v 0.034998 0.883498 0.064610
v 0.321640 0.611269 0.055197
v 0.247727 0.732695 0.106440
v 0.149682 0.810366 0.032223
v 0.341762 0.272748 0.050271
v 0.352136 0.439937 0.083304
v -0.305278 0.868140 -0.437866
v -0.230161 0.889612 -0.443092
v -0.121798 0.900358 -0.432228
v 0.014473 0.893831 -0.431923
v 0.392376 0.264881 -0.355628
v 0.416979 0.442976 -0.318286
v 0.403598 0.600466 -0.325425
v 0.124894 0.865290 -0.424656
v 0.462012 0.467522 -0.784694
v 0.407572 0.684269 -0.775938
v 0.422131 0.259939 -0.814322
v 0.200921 0.851888 -0.818153
v 0.027542 0.903030 -0.888232
v 0.331127 0.743927 -1.647137
v 0.186965 0.835974 -1.608027
v 0.320522 0.790841 -0.890369
v 0.418952 0.627721 -1.674920
v 0.046749 0.903463 -1.636737
v -0.356570 0.811139 -0.845344
v -0.283600 0.852106 -0.863971
v -0.193699 0.905778 -0.890046
v -0.089611 0.913271 -0.888616
v -0.065192 0.919375 -1.647673
v -0.171195 0.910057 -1.638763
v -0.343657 0.822981 -1.616069
v -0.263760 0.874149 -1.610103
v 0.350584 0.838288 -0.413940
v 0.277074 0.894547 -0.480373
v 0.456358 0.762209 -0.687307
v 0.412812 0.779319 -0.437526
v 0.422409 0.778971 -0.847169
v 0.235105 0.927976 -0.609417
v 0.364635 0.846054 -0.936881
v 0.248288 0.906571 -0.847260
v 0.492640 0.827054 -0.785661
v 0.498826 0.899624 -0.685335
v 0.461345 0.850305 -0.917894
v 0.385359 0.888508 -0.979066
v 0.455833 0.963915 -0.627040
v 0.372484 0.999007 -0.646036
v 0.303316 1.014557 -0.734230
v 0.283448 0.963993 -0.911668
v 0.657104 1.076950 -1.057948
v 0.662005 1.145918 -0.996446
v 0.598923 1.198274 -0.964892
v 0.538730 1.233245 -0.960806
v 0.420968 1.235580 -1.036324
v 0.402784 1.142529 -1.126998
v 0.491498 1.057076 -1.154577
v 0.580047 1.039590 -1.134162
v 0.493891 1.249482 -0.973000
v 0.456712 1.215947 -0.993110
v 0.439021 1.200696 -0.969843
v 0.493566 1.238748 -1.006791
v 0.536984 1.236892 -0.997984
v 0.597859 1.200912 -0.988976
v 0.646319 1.154480 -1.023274
v 0.645656 1.094797 -1.075233
v 0.581602 1.064146 -1.136806
v 0.509013 1.080689 -1.160006
v 0.436016 1.159926 -1.132617
v 0.452354 1.229524 -1.050467
v 0.521207 1.099239 -1.173216
v 0.591355 1.083951 -1.150751
v 0.648608 1.111402 -1.092005
v 0.653289 1.165146 -1.043152
v 0.607567 1.222375 -1.016430
v 0.547388 1.254982 -1.022135
v 0.475750 1.249833 -1.069238
v 0.448769 1.170988 -1.143541
v 0.452499 0.466164 -1.717898
v 0.411248 0.307838 -1.723985
v 0.554691 1.170422 -1.097374
v -0.420865 0.040819 0.610076
v -0.544231 0.132939 0.635269
v -0.610852 0.270895 0.632364
v -0.647350 0.378798 0.626121
v -0.640755 0.507051 0.635199
v -0.586515 0.625013 0.639644
v -0.491904 0.732963 0.635040
v -0.368018 0.824140 0.633025
v -0.271397 0.863264 0.612534
v -0.161146 0.897864 0.611315
v -0.049467 0.898694 0.597135
v 0.068339 0.878367 0.592266
v 0.184417 0.815975 0.590605
v 0.287146 0.738642 0.627367
v 0.347477 0.607102 0.599698
v 0.380407 0.440571 0.601282
v 0.382508 0.272665 0.573960
v 0.354758 0.163492 0.597802
v 0.268210 0.053183 0.593415
v 0.170484 0.030841 0.592073
v 0.031744 0.030444 0.600393
v -0.086853 0.030443 0.600359
v -0.189750 0.030457 0.610156
v -0.302773 0.030483 0.617891
v -0.544995 0.157499 1.187675
v -0.426251 0.046897 1.174598
v -0.309320 0.030929 1.172677
v -0.190518 0.030463 1.163408
v -0.085270 0.030443 1.152478
v 0.039465 0.030439 1.152138
v 0.184137 0.030624 1.139375
v 0.300604 0.045296 1.138828
v 0.415567 0.158232 1.134669
v 0.449011 0.268302 1.109754
v 0.472491 0.449460 1.115693
v 0.433610 0.644986 1.127221
v 0.341598 0.749329 1.167298
v 0.235305 0.830861 1.156143
v 0.108413 0.880890 1.135471
v -0.013411 0.906901 1.150178
v -0.127159 0.912112 1.167218
v -0.238255 0.873159 1.174916
v -0.325226 0.836437 1.188931
v -0.474176 0.748493 1.173236
v -0.552321 0.614647 1.174570
v -0.614061 0.507362 1.173814
v -0.639133 0.391404 1.172744
v -0.616318 0.280983 1.179682
v -0.449046 0.563638 -1.609799
v -0.478060 0.490039 -1.187468
v -0.505916 0.345586 -1.209183
v -0.512802 0.214543 -1.208938
v -0.452152 0.081731 -1.213803
v -0.363728 0.032738 -1.215075
v -0.254157 0.030461 -1.230865
v -0.143561 0.030442 -1.233505
v -0.038191 0.030439 -1.240620
v 0.048452 0.030432 -1.236796
v 0.151604 0.030449 -1.240134
v 0.293287 0.055184 -1.246569
v 0.391703 0.121486 -1.257352
v 0.464343 0.253214 -1.226648
v 0.498780 0.429011 -1.219057
v 0.452423 0.626819 -1.207730
v 0.342425 0.749134 -1.252823
v 0.204739 0.838137 -1.195903
v 0.034340 0.892490 -1.237678
v -0.079283 0.910054 -1.238998
v -0.171667 0.893503 -1.235821
v -0.251199 0.832829 -1.214212
v -0.318921 0.779277 -1.207411
v -0.400055 0.711199 -1.192832
v -0.446253 0.640281 -1.193456
v -0.442343 0.472515 -1.646735
v -0.422716 0.492873 -1.415710
v -0.422823 0.547994 -1.638577
v -0.435271 0.511981 -1.686326
v -0.452413 0.355941 -1.666697
v -0.389756 0.634488 -1.641090
v -0.432064 0.230545 -1.667518
v -0.376766 0.156614 -1.676298
v -0.309882 0.126800 -1.698136
v -0.227272 0.110528 -1.720147
v -0.131403 0.104180 -1.731261
v -0.023071 0.106718 -1.741065
v 0.076491 0.101940 -1.738505
v 0.153735 0.104602 -1.741407
v 0.251361 0.135811 -1.752204
v 0.336630 0.208208 -1.764322
v 0.392145 0.307498 -1.754546
v 0.409490 0.460371 -1.750099
v 0.370710 0.616009 -1.709558
v 0.294298 0.713753 -1.675687
v 0.163568 0.805376 -1.646074
v 0.035414 0.852273 -1.660821
v -0.066366 0.863107 -1.666852
v -0.161535 0.849179 -1.657581
v -0.335081 0.722177 -1.648737
v -0.285472 0.776439 -1.645960
v -0.227555 0.817571 -1.648174
v -0.396327 0.621149 -1.693168
v -0.449888 0.355803 -1.695362
v -0.428576 0.234716 -1.699180
v -0.379797 0.162903 -1.724142
v -0.324267 0.134722 -1.747741
v -0.230393 0.115303 -1.762893
v -0.135947 0.112067 -1.773528
v -0.017559 0.112841 -1.782115
v 0.075264 0.108795 -1.789423
v 0.149394 0.111510 -1.800371
v 0.245617 0.145272 -1.798492
v 0.326554 0.215566 -1.807247
v 0.383441 0.315233 -1.796937
v 0.404770 0.456516 -1.771363
v 0.360465 0.614562 -1.748680
v 0.287304 0.715992 -1.717222
v 0.162814 0.801867 -1.699865
v 0.035370 0.849015 -1.694962
v -0.066000 0.861643 -1.700387
v -0.158039 0.850029 -1.704754
v -0.222781 0.822018 -1.702786
v -0.280913 0.775689 -1.701704
v -0.343785 0.711029 -1.694198
v -0.034851 0.442369 -1.751088
v 0.265131 0.446219 -1.777453
v 0.105612 0.448596 -1.775105
v -0.172432 0.423166 -1.743403
v -0.321071 0.390674 -1.730434
v -0.334626 0.529549 -1.705695
v -0.194345 0.554403 -1.716942
v -0.063282 0.586687 -1.737711
v 0.073054 0.590794 -1.755698
v 0.224931 0.585615 -1.757337
v 0.150104 0.735317 -1.716988
v 0.009037 0.742297 -1.718680
v -0.102542 0.744785 -1.715910
v -0.207427 0.696971 -1.709685
v -0.297329 0.649090 -1.698732
v 0.249730 0.319767 -1.791861
v 0.110690 0.322456 -1.779474
v -0.017750 0.313548 -1.766702
v -0.147017 0.302865 -1.761865
v -0.286961 0.278362 -1.742791
v -0.255032 0.193540 -1.750304
v -0.117017 0.199798 -1.779014
v -0.007629 0.202659 -1.785223
v 0.096105 0.210173 -1.789511
v 0.206518 0.213502 -1.791503
v -0.358152 0.032999 -1.590931
v -0.427782 0.066166 -1.587457
v -0.489542 0.206558 -1.588568
v -0.521498 0.343855 -1.564911
v -0.504577 0.457350 -1.551911
v -0.439372 0.476743 -1.609866
v -0.422958 0.538816 -1.603009
v -0.453633 0.551904 -1.542314
v -0.436672 0.651456 -1.543130
v -0.408383 0.749139 -1.533347
v -0.343028 0.820553 -1.549926
v -0.263399 0.870505 -1.546479
v -0.172658 0.911284 -1.574057
v -0.067195 0.921166 -1.582041
v 0.045595 0.905225 -1.572658
v 0.194209 0.844911 -1.541724
v 0.341245 0.754635 -1.585585
v 0.427762 0.629309 -1.600542
v 0.457446 0.460436 -1.638043
v 0.414810 0.300741 -1.643906
v 0.382727 0.173991 -1.661398
v 0.294524 0.071250 -1.647900
v 0.178933 0.032644 -1.634913
v 0.068532 0.023889 -1.630831
v -0.028879 0.023860 -1.640935
v -0.145190 0.031803 -1.671084
v -0.248481 0.032162 -1.652028
v -0.432691 0.507156 -1.629095
vt 0.558120 0.883549
vt 0.559644 0.969232
vt 0.488885 0.945333
vt 0.455566 0.881869
vt 0.487168 0.820914
vt 0.558072 0.805501
vt 0.662966 0.886295
vt 0.636933 0.821183
vt 0.629655 0.943517
vt 0.582489 0.965659
vt 0.590077 0.883358
vt 0.584983 0.806378
vt 0.605367 0.957710
vt 0.622869 0.882760
vt 0.613268 0.810602
vt 0.532116 0.807595
vt 0.526084 0.883189
vt 0.534678 0.967357
vt 0.506692 0.812766
vt 0.492335 0.882390
vt 0.510059 0.958885
vt 0.459350 0.902045
vt 0.495281 0.906243
vt 0.527607 0.908932
vt 0.558265 0.909978
vt 0.588573 0.909118
vt 0.619880 0.906673
vt 0.656593 0.909010
vt 0.471051 0.925031
vt 0.501718 0.931636
vt 0.530693 0.936485
vt 0.558703 0.938451
vt 0.585874 0.936433
vt 0.614353 0.931842
vt 0.644903 0.927439
vt 0.660924 0.859796
vt 0.623451 0.859007
vt 0.589735 0.858326
vt 0.558242 0.858077
vt 0.526007 0.858144
vt 0.492510 0.858301
vt 0.458945 0.856251
vt 0.653037 0.839085
vt 0.618756 0.836103
vt 0.587899 0.833286
vt 0.558776 0.832482
vt 0.528251 0.833806
vt 0.502707 0.836478
vt 0.470355 0.835981
vt 0.673549 0.000720
vt 0.648572 0.001541
vt 0.612408 0.009852
vt 0.583706 0.008235
vt 0.556419 0.003018
vt 0.528388 0.002747
vt 0.498770 0.005463
vt 0.465590 0.007804
vt 0.432824 0.010168
vt 0.403070 0.011781
vt 0.378358 0.012679
vt 0.349312 0.006117
vt 0.322079 0.003190
vt 0.295101 0.003925
vt 0.967426 0.007628
vt 0.940303 0.006891
vt 0.915055 0.009620
vt 0.885446 0.013802
vt 0.854779 0.011605
vt 0.820750 0.012350
vt 0.790861 0.009082
vt 0.763083 0.006050
vt 0.729912 0.008996
vt 0.701545 0.009393
vt 0.672898 0.010376
vt 0.651969 0.012942
vt 0.613442 0.022096
vt 0.582187 0.020187
vt 0.555549 0.015164
vt 0.530627 0.014245
vt 0.500197 0.012323
vt 0.459620 0.017261
vt 0.433062 0.021683
vt 0.404245 0.028705
vt 0.376020 0.027118
vt 0.349949 0.019565
vt 0.322439 0.013390
vt 0.285239 0.022357
vt 0.966514 0.019987
vt 0.939294 0.018866
vt 0.914656 0.021368
vt 0.883323 0.023890
vt 0.849935 0.027264
vt 0.820642 0.022822
vt 0.791342 0.024502
vt 0.765097 0.019396
vt 0.733408 0.022984
vt 0.707477 0.022501
vt 0.735281 0.051217
vt 0.694213 0.045394
vt 0.671704 0.030228
vt 0.643117 0.034654
vt 0.612377 0.039759
vt 0.582262 0.036985
vt 0.556910 0.033384
vt 0.531465 0.029635
vt 0.503633 0.026532
vt 0.458261 0.031111
vt 0.434247 0.033438
vt 0.404660 0.039896
vt 0.375547 0.041283
vt 0.348617 0.040070
vt 0.322231 0.036393
vt 0.281413 0.041332
vt 0.966301 0.036392
vt 0.938673 0.039507
vt 0.914982 0.042467
vt 0.886220 0.043287
vt 0.852607 0.047573
vt 0.824710 0.048468
vt 0.792043 0.048319
vt 0.766068 0.047625
vt 0.306943 0.393191
vt 0.983621 0.396266
vt 0.979385 0.492710
vt 0.307908 0.495077
vt 0.287143 0.601658
vt 0.313425 0.600903
vt 0.311733 0.782756
vt 0.296881 0.789927
vt 0.831734 0.399012
vt 0.802419 0.398097
vt 0.836777 0.493299
vt 0.806892 0.490953
vt 0.838018 0.596939
vt 0.809821 0.597766
vt 0.823718 0.792653
vt 0.794317 0.795744
vt 0.956416 0.396327
vt 0.932143 0.397641
vt 0.909280 0.399477
vt 0.883447 0.399279
vt 0.852190 0.399596
vt 0.956152 0.492466
vt 0.932260 0.493630
vt 0.911435 0.492019
vt 0.886420 0.492864
vt 0.859739 0.492296
vt 0.956706 0.597235
vt 0.932493 0.597002
vt 0.908059 0.596687
vt 0.891113 0.597133
vt 0.865745 0.598324
vt 0.942647 0.796268
vt 0.853146 0.792543
vt 0.873035 0.793378
vt 0.894548 0.797861
vt 0.917537 0.798421
vt 0.373297 0.382377
vt 0.344470 0.385635
vt 0.341622 0.492709
vt 0.371372 0.492103
vt 0.344576 0.598506
vt 0.380412 0.600015
vt 0.371927 0.776855
vt 0.343258 0.782250
vt 0.401802 0.382247
vt 0.400008 0.492363
vt 0.409130 0.598154
vt 0.393091 0.774595
vt 0.494084 0.386730
vt 0.464810 0.382870
vt 0.492871 0.499408
vt 0.466030 0.491965
vt 0.433484 0.381619
vt 0.432663 0.492312
vt 0.440291 0.595112
vt 0.465629 0.595446
vt 0.481084 0.766593
vt 0.460255 0.771466
vt 0.518897 0.394784
vt 0.545498 0.394320
vt 0.571144 0.396928
vt 0.598978 0.395252
vt 0.692068 0.398004
vt 0.166696 0.688797
vt 0.146092 0.714173
vt 0.773953 0.398763
vt 0.733815 0.391787
vt 0.515033 0.505967
vt 0.532263 0.507415
vt 0.556612 0.505283
vt 0.586984 0.505582
vt 0.776303 0.490673
vt 0.735976 0.482727
vt 0.253025 0.755305
vt 0.160856 0.816861
vt 0.730948 0.586652
vt 0.312020 0.839293
vt 0.777597 0.592778
vt 0.622581 0.592277
vt 0.582244 0.607353
vt 0.342273 0.867237
vt 0.659882 0.776235
vt 0.621137 0.768857
vt 0.692186 0.781587
vt 0.586877 0.773597
vt 0.491656 0.596588
vt 0.510144 0.601011
vt 0.533151 0.607058
vt 0.556295 0.607087
vt 0.563002 0.775519
vt 0.540790 0.773636
vt 0.500086 0.769525
vt 0.519708 0.768665
vt 0.215768 0.805105
vt 0.198479 0.825495
vt 0.282557 0.841302
vt 0.236917 0.801908
vt 0.314963 0.865972
vt 0.186689 0.855301
vt 0.338394 0.886056
vt 0.376568 0.875757
vt 0.260381 0.866238
vt 0.289749 0.869584
vt 0.314847 0.890984
vt 0.337940 0.900665
vt 0.237882 0.864925
vt 0.217344 0.871449
vt 0.196946 0.888824
vt 0.371766 0.897082
vt 0.290958 0.962868
vt 0.271486 0.963870
vt 0.252795 0.964077
vt 0.237626 0.966080
vt 0.359220 0.965128
vt 0.386488 0.971069
vt 0.333369 0.962839
vt 0.314531 0.963253
vt 0.227076 0.969214
vt 0.900559 0.838260
vt 0.885423 0.837854
vt 0.399434 0.962192
vt 0.917327 0.831966
vt 0.944658 0.831051
vt 0.966259 0.849400
vt 0.974591 0.877975
vt 0.957993 0.908222
vt 0.929491 0.917097
vt 0.895319 0.896846
vt 0.889231 0.857896
vt 0.930924 0.909073
vt 0.953058 0.901228
vt 0.967005 0.877432
vt 0.961244 0.854926
vt 0.940894 0.841332
vt 0.919418 0.841417
vt 0.900059 0.858479
vt 0.900656 0.893629
vt 0.728670 0.790931
vt 0.765448 0.794346
vt 0.932027 0.874696
vt 0.987681 0.274963
vt 0.312159 0.268934
vt 0.346697 0.269781
vt 0.372470 0.271412
vt 0.401573 0.269549
vt 0.431044 0.268562
vt 0.463750 0.269221
vt 0.498829 0.269454
vt 0.522803 0.273735
vt 0.549184 0.273738
vt 0.574854 0.276537
vt 0.602233 0.277142
vt 0.632460 0.277106
vt 0.661593 0.268388
vt 0.695086 0.274757
vt 0.734262 0.274396
vt 0.773016 0.280383
vt 0.799104 0.275167
vt 0.831218 0.276597
vt 0.854081 0.277387
vt 0.885738 0.276047
vt 0.912546 0.276293
vt 0.935815 0.274313
vt 0.961250 0.272839
vt 0.317161 0.145173
vt 0.994275 0.146663
vt 0.967991 0.147201
vt 0.941606 0.149473
vt 0.918341 0.152102
vt 0.890955 0.152290
vt 0.859209 0.155266
vt 0.833681 0.155141
vt 0.798780 0.155359
vt 0.773908 0.160649
vt 0.734681 0.158475
vt 0.691863 0.155667
vt 0.661681 0.147478
vt 0.632845 0.150599
vt 0.603361 0.155888
vt 0.575967 0.153051
vt 0.550770 0.149672
vt 0.524609 0.148531
vt 0.503483 0.145772
vt 0.464727 0.149446
vt 0.429775 0.149429
vt 0.401759 0.149462
vt 0.374880 0.149426
vt 0.349365 0.147562
vt 0.440751 0.772853
vt 0.411918 0.678687
vt 0.377277 0.682553
vt 0.346937 0.682495
vt 0.313750 0.684938
vt 0.291025 0.686824
vt 0.953525 0.690004
vt 0.929036 0.689446
vt 0.905742 0.689979
vt 0.886756 0.688283
vt 0.864231 0.688114
vt 0.832989 0.688460
vt 0.807341 0.690360
vt 0.775412 0.683199
vt 0.737237 0.681414
vt 0.693651 0.678777
vt 0.657920 0.688757
vt 0.621935 0.676101
vt 0.582363 0.684921
vt 0.556546 0.684895
vt 0.535249 0.684203
vt 0.512241 0.679613
vt 0.492322 0.678481
vt 0.467604 0.676028
vt 0.447896 0.677105
vt 0.417303 0.732972
vt 0.403111 0.786042
vt 0.438607 0.781645
vt 0.877366 0.882918
vt 0.866818 0.947688
vt 0.873666 0.854193
vt 0.863294 0.834804
vt 0.847112 0.824491
vt 0.826553 0.820758
vt 0.804109 0.818209
vt 0.779247 0.817840
vt 0.756473 0.815188
vt 0.738055 0.815945
vt 0.715593 0.825719
vt 0.695841 0.843948
vt 0.682569 0.867656
vt 0.681502 0.902801
vt 0.687931 0.939706
vt 0.704043 0.964894
vt 0.732692 0.988248
vt 0.763246 0.995357
vt 0.787045 0.997557
vt 0.810169 0.996457
vt 0.852407 0.967328
vt 0.840913 0.980397
vt 0.827271 0.990539
vt 0.858295 0.939777
vt 0.867736 0.916677
vt 0.871223 0.882788
vt 0.867227 0.856463
vt 0.855516 0.841296
vt 0.843368 0.835004
vt 0.823980 0.829455
vt 0.803490 0.827559
vt 0.777204 0.826707
vt 0.756670 0.826226
vt 0.740858 0.828025
vt 0.720437 0.834772
vt 0.703581 0.849841
vt 0.691430 0.870586
vt 0.685957 0.901117
vt 0.695436 0.935347
vt 0.710444 0.958443
vt 0.737233 0.977685
vt 0.764892 0.988123
vt 0.786925 0.990186
vt 0.806430 0.987102
vt 0.820017 0.981392
vt 0.832629 0.972140
vt 0.846560 0.958852
vt 0.780738 0.899180
vt 0.716191 0.899236
vt 0.750360 0.899924
vt 0.810228 0.895571
vt 0.842395 0.889469
vt 0.845458 0.919673
vt 0.815055 0.924285
vt 0.786371 0.930510
vt 0.756962 0.930826
vt 0.724505 0.929475
vt 0.740102 0.962965
vt 0.770483 0.964388
vt 0.794458 0.964711
vt 0.817228 0.954825
vt 0.836943 0.945194
vt 0.719919 0.872092
vt 0.749681 0.872752
vt 0.777251 0.871014
vt 0.804815 0.869209
vt 0.835168 0.865245
vt 0.828551 0.846858
vt 0.798483 0.846340
vt 0.775031 0.846470
vt 0.752857 0.848439
vt 0.729153 0.849443
vt 0.970841 0.774401
vt 0.308985 0.768276
vt 0.342029 0.767375
vt 0.371923 0.761793
vt 0.396178 0.760570
vt 0.885134 0.913214
vt 0.883292 0.927063
vt 0.436493 0.758218
vt 0.457637 0.756337
vt 0.478735 0.752490
vt 0.499174 0.755198
vt 0.518782 0.754110
vt 0.539937 0.759494
vt 0.562457 0.761085
vt 0.586762 0.759421
vt 0.621239 0.753402
vt 0.659190 0.762256
vt 0.692440 0.765081
vt 0.730299 0.773390
vt 0.766781 0.775937
vt 0.795629 0.778800
vt 0.825358 0.776173
vt 0.851992 0.775386
vt 0.876107 0.776392
vt 0.897149 0.780250
vt 0.922202 0.788864
vt 0.945398 0.786252
vt 0.879536 0.918775
vt 0.432930 0.774053
vt 0.924877 0.927285
vt 0.408480 0.777394
vt 0.877687 0.909823
vt 0.539036 0.787012
vt 0.520859 0.786150
vt 0.503398 0.786599
vt 0.484786 0.786617
vt 0.460146 0.783103
vt 0.562999 0.788509
vt 0.588158 0.786296
vt 0.620061 0.781053
vt 0.657953 0.788191
vt 0.689210 0.794831
vt 0.729261 0.802594
vt 0.766800 0.802429
vt 0.795338 0.807040
vt 0.824043 0.807841
vt 0.850059 0.807428
vt 0.868968 0.809955
vt 0.892524 0.812722
vt 0.917971 0.811691
vt 0.940193 0.811119
vt 0.308898 0.808339
vt 0.322786 0.798000
vt 0.343798 0.791539
vt 0.374125 0.792426
vt 0.875183 0.927573
vt 0.667947 0.912394
vt 0.649299 0.931040
vt 0.671461 0.887457
vt 0.663643 0.859129
vt 0.656424 0.837259
vt 0.641164 0.815696
vt 0.613666 0.802793
vt 0.585898 0.796783
vt 0.557337 0.800664
vt 0.533228 0.803089
vt 0.506685 0.803057
vt 0.483689 0.812700
vt 0.466481 0.832286
vt 0.452793 0.853911
vt 0.443410 0.880019
vt 0.446157 0.903839
vt 0.458044 0.929654
vt 0.478919 0.952239
vt 0.507105 0.969370
vt 0.533864 0.978073
vt 0.559764 0.980660
vt 0.586231 0.982418
vt 0.613056 0.975111
vt 0.636608 0.949071
vt 0.292275 0.771801
vt 0.978002 0.687498
vt 0.959925 0.811285
vt 0.966757 0.790660
vt 0.981250 0.597270
vt 0.280852 0.147169
vt 0.993446 0.040526
vt 0.277611 0.274151
vt 0.276146 0.498831
vt 0.274901 0.398771
vt 0.993185 0.022007
vt 0.991596 0.002373
vt 0.650945 0.609359
vt 0.681861 0.584823
vt 0.377431 0.857444
vt 0.612529 0.504817
vt 0.700895 0.485006
vt 0.630540 0.402751
vt 0.200305 0.684384
vt 0.659076 0.385627
vt 0.213293 0.961592
vt 0.413426 0.889386
vt 0.429346 0.855769
vt 0.459519 0.813231
vt 0.215924 0.969304
vt 0.398015 0.970510
vt 0.384717 0.978166
vt 0.358351 0.973544
vt 0.332305 0.969504
vt 0.313996 0.968589
vt 0.292537 0.968632
vt 0.272809 0.970714
vt 0.254128 0.969811
vt 0.237249 0.974878
vt 0.225325 0.976302
vn 0.306017 0.365359 0.879129
vn 0.238306 0.442066 0.864748
vn 0.025416 -0.149322 0.988462
vn 0.173952 -0.051296 0.983417
vn -0.396762 0.185062 0.899073
vn -0.008783 -0.050357 0.998693
vn -0.186738 0.295956 0.936771
vn -0.386017 0.366482 0.846571
vn 0.138315 -0.095271 0.985795
vn 0.046211 0.013458 0.998841
vn 0.121368 -0.259330 0.958133
vn 0.194532 -0.168214 0.966365
vn -0.030869 -0.384299 0.922693
vn 0.044803 -0.069149 0.996600
vn -0.142805 -0.196940 0.969959
vn -0.143899 -0.438040 0.887364
vn 0.010513 -0.059037 0.998201
vn 0.040358 -0.094365 0.994719
vn 0.124046 0.404471 0.906099
vn 0.010901 0.312701 0.949789
vn 0.037224 -0.296234 0.954390
vn 0.039876 -0.016044 0.999076
vn 0.033773 -0.057573 0.997770
vn 0.023176 -0.278734 0.960089
vn 0.054303 -0.071207 0.995982
vn 0.028751 -0.283640 0.958500
vn -0.080994 0.269340 0.959633
vn -0.003630 -0.051502 0.998666
vn -0.007577 -0.027348 0.999597
vn -0.014652 -0.054590 0.998401
vn -0.391904 0.067005 0.917563
vn -0.334317 -0.008096 0.942426
vn 0.027909 -0.061544 0.997714
vn 0.006590 -0.063885 0.997936
vn 0.035068 -0.089365 0.995381
vn 0.058346 -0.090793 0.994159
vn 0.078042 -0.088918 0.992977
vn 0.076577 -0.114845 0.990428
vn 0.028901 -0.081994 0.996214
vn 0.030761 -0.138913 0.989827
vn 0.217030 -0.029003 0.975734
vn 0.194711 -0.048648 0.979654
vn 0.038071 -0.046307 0.998202
vn 0.119360 -0.077685 0.989807
vn 0.066268 -0.032329 0.997278
vn 0.057014 -0.046448 0.997292
vn 0.046932 -0.049480 0.997672
vn 0.015767 -0.016253 0.999744
vn -0.238992 -0.068170 0.968626
vn 0.619071 0.307392 0.722676
vn 0.329564 0.673873 0.661273
vn 0.259795 0.746160 0.612986
vn 0.258779 0.784052 0.564178
vn 0.089884 0.782272 0.616419
vn -0.156632 0.726436 0.669146
vn -0.380088 0.676739 0.630522
vn -0.592037 0.543760 0.594825
vn -0.731059 0.332964 0.595557
vn -0.794964 0.177402 0.580139
vn -0.789921 0.065100 0.609743
vn -0.737785 -0.125986 0.663175
vn -0.389309 -0.522673 0.758453
vn -0.195293 -0.660278 0.725185
vn -0.180570 -0.679586 0.711025
vn -0.054689 -0.712047 0.699999
vn 0.068193 -0.745091 0.663467
vn 0.080053 -0.753967 0.652016
vn 0.174274 -0.736556 0.653540
vn 0.376071 -0.554901 0.742062
vn 0.431412 -0.354213 0.829709
vn 0.535252 -0.074548 0.841397
vn 0.667638 0.160231 0.727039
vn 0.699784 0.117848 0.704567
vn 0.703030 0.403173 0.585833
vn 0.461489 0.699816 0.545239
vn 0.315373 0.809245 0.495643
vn 0.246482 0.819847 0.516814
vn 0.077242 0.824178 0.561039
vn -0.183684 0.797857 0.574181
vn -0.406228 0.673537 0.617517
vn -0.538479 0.536967 0.649389
vn -0.688423 0.304614 0.658244
vn -0.827741 0.173949 0.533467
vn -0.887674 -0.013717 0.460269
vn -0.857798 -0.257833 0.444640
vn -0.637450 -0.608617 0.472487
vn -0.438584 -0.821311 0.364818
vn -0.118416 -0.874341 0.470644
vn -0.020144 -0.921146 0.388695
vn 0.046000 -0.939282 0.340050
vn 0.037812 -0.924976 0.378141
vn 0.231406 -0.868271 0.438813
vn 0.523499 -0.677851 0.516204
vn 0.766953 -0.491361 0.412731
vn 0.872258 -0.188603 0.451214
vn 0.906693 0.080796 0.413979
vn 0.854477 0.268257 0.444867
vn 0.998767 0.049354 -0.005407
vn 0.894818 0.446142 0.016050
vn 0.720363 0.690466 0.065832
vn 0.553750 0.832329 0.024283
vn 0.353598 0.935348 0.009675
vn 0.171184 0.985238 0.001642
vn -0.073219 0.997276 -0.008927
vn -0.287184 0.957704 -0.018112
vn -0.472000 0.881524 -0.011495
vn -0.671637 0.740322 -0.028758
vn -0.864160 0.500659 -0.050679
vn -0.947463 0.316329 -0.047424
vn -0.999156 -0.036790 -0.018274
vn -0.928424 -0.371491 -0.004776
vn -0.778564 -0.627553 0.004051
vn -0.475438 -0.879747 0.001976
vn -0.060369 -0.998149 0.007427
vn -0.002115 -0.999997 0.001299
vn 0.003110 -0.999992 0.002410
vn 0.004950 -0.999932 0.010581
vn 0.129060 -0.991009 0.035287
vn 0.561778 -0.825455 0.055046
vn 0.855572 -0.516469 0.035448
vn 0.975497 -0.219876 0.007779
vn -0.773709 -0.633538 -0.001881
vn -0.451256 -0.892393 0.001680
vn -0.928189 -0.372069 -0.005523
vn -0.998897 -0.046600 -0.005840
vn -0.952690 0.303770 -0.010238
vn -0.858505 0.512464 -0.018691
vn -0.675335 0.737047 -0.026143
vn -0.474797 0.879457 -0.033519
vn -0.319967 0.947076 -0.025861
vn -0.117586 0.992762 -0.024448
vn 0.135871 0.990431 -0.024198
vn 0.326875 0.944642 -0.028373
vn 0.528067 0.848399 -0.036929
vn 0.707081 0.705051 -0.054214
vn 0.916059 0.388800 -0.098339
vn 0.992643 0.064181 -0.102668
vn 0.979442 -0.182343 -0.086285
vn 0.851493 -0.522574 -0.043320
vn 0.533547 -0.845544 -0.019587
vn 0.089837 -0.995957 -0.000153
vn 0.001157 -0.999999 -0.000127
vn 0.000364 -1.000000 -0.000230
vn -0.000968 -1.000000 -0.000418
vn -0.058567 -0.998283 -0.000427
vn -0.303292 -0.952855 -0.008976
vn -0.336062 -0.941838 -0.002123
vn -0.724275 -0.689469 -0.007683
vn -0.718018 -0.694886 -0.039787
vn -0.286275 -0.958130 -0.005897
vn -0.741393 -0.670019 -0.037561
vn -0.773351 -0.633082 -0.033694
vn -0.238926 -0.971031 -0.003596
vn 0.566340 -0.824170 0.001715
vn 0.465693 -0.884609 0.024427
vn 0.849476 -0.524116 0.060763
vn 0.891973 -0.452035 0.006943
vn 0.396211 -0.918041 0.014762
vn 0.798772 -0.599633 0.049016
vn 0.420186 -0.907355 -0.012270
vn 0.806591 -0.590634 -0.023715
vn -0.018575 -0.999827 0.000655
vn -0.032943 -0.999456 0.001260
vn -0.000404 -1.000000 0.000025
vn -0.000513 -1.000000 -0.000006
vn -0.000002 -1.000000 -0.000009
vn -0.000070 -1.000000 0.000008
vn 0.002295 -0.999997 0.000459
vn 0.003891 -0.999992 -0.000034
vn 0.079403 -0.996840 0.002126
vn 0.092928 -0.995673 -0.000442
vn -0.013357 -0.999911 -0.000300
vn -0.000185 -1.000000 0.000007
vn 0.000012 -1.000000 0.000001
vn 0.000441 -1.000000 0.000089
vn 0.077680 -0.996978 -0.000364
vn -0.010378 -0.999945 -0.001486
vn 0.115320 -0.993325 -0.002727
vn 0.010341 -0.999929 0.005946
vn -0.011432 -0.999919 0.005618
vn -0.009609 -0.999954 0.000532
vn -0.928128 -0.362868 -0.083095
vn -0.911317 -0.411525 -0.012199
vn -0.993140 -0.115387 -0.018921
vn -0.989240 -0.082614 -0.120743
vn -0.957748 -0.274088 -0.087147
vn -0.990707 0.016532 -0.135002
vn -0.997465 0.057689 -0.041658
vn -0.969553 -0.239678 -0.050218
vn -0.979881 0.199145 -0.013243
vn -0.980789 0.146652 -0.128635
vn -0.972684 0.160304 -0.167894
vn -0.977215 0.198664 -0.074727
vn -0.515640 0.856526 0.021891
vn -0.511181 0.858418 -0.042585
vn -0.694465 0.717406 -0.055196
vn -0.674803 0.737548 0.025770
vn -0.906334 0.410041 -0.102105
vn -0.864353 0.502768 0.010824
vn -0.924837 0.340991 -0.168527
vn -0.731540 0.668231 -0.135339
vn -0.785410 0.617146 -0.047564
vn -0.950009 0.302879 -0.075805
vn -0.387390 -0.921860 0.010179
vn -0.756522 -0.653701 0.018719
vn -0.049276 -0.998784 0.001556
vn -0.000809 -1.000000 0.000083
vn -0.000088 -1.000000 0.000013
vn 0.002429 -0.999997 -0.000356
vn 0.085264 -0.996347 -0.004813
vn 0.561504 -0.826584 -0.038384
vn 0.874287 -0.479579 -0.075008
vn 0.987649 -0.121529 -0.098899
vn 0.989513 -0.141437 0.029303
vn 0.990054 0.081379 -0.114766
vn 0.998085 0.056084 0.026085
vn 0.934546 0.340078 -0.104737
vn 0.945031 0.312392 0.096584
vn 0.746953 0.659499 -0.084386
vn 0.746258 0.662919 0.060314
vn 0.541743 0.838986 -0.051153
vn 0.473539 0.877202 0.079234
vn 0.331326 0.943110 -0.027698
vn 0.308763 0.951138 -0.001427
vn 0.090076 0.995881 -0.010411
vn 0.048240 0.998836 0.000012
vn -0.142969 0.989723 0.002730
vn -0.133025 0.991093 0.006195
vn -0.334932 0.941996 0.021552
vn -0.345871 0.938248 0.008055
vn -0.504772 0.862881 0.025315
vn -0.680689 0.731788 0.033907
vn -0.845180 0.532530 0.045631
vn -0.962721 0.267036 0.043126
vn -0.995185 -0.092204 0.033259
vn -0.916169 -0.400098 0.023567
vn -0.400987 0.915553 -0.031184
vn -0.191048 0.981569 -0.004810
vn 0.006888 0.999912 0.011313
vn 0.208357 0.977772 0.023454
vn 0.972258 -0.215803 0.090245
vn 0.993243 -0.000213 0.116050
vn 0.982815 0.119507 0.140688
vn 0.140139 0.987330 0.074438
vn 0.996626 0.022041 0.079063
vn 0.987626 0.156681 0.006810
vn 0.959012 -0.272513 0.077668
vn 0.113901 0.990448 -0.077713
vn 0.202898 0.979200 -0.000740
vn 0.650908 0.737050 -0.181871
vn 0.665930 0.745828 -0.016643
vn 0.407931 0.912878 -0.015651
vn 0.918673 0.395015 -0.001908
vn 0.245956 0.969266 0.005475
vn -0.552675 0.827680 -0.097451
vn -0.507080 0.859270 -0.067273
vn -0.297034 0.954523 -0.025621
vn 0.002671 0.999974 0.006712
vn 0.012390 0.999881 0.009158
vn -0.333471 0.942732 0.007255
vn -0.620094 0.784512 -0.004978
vn -0.556923 0.830563 -0.001151
vn 0.633488 0.693766 0.342610
vn 0.066155 0.954120 0.292025
vn 0.944470 -0.327456 0.027364
vn 0.936591 0.220722 0.272174
vn 0.624051 -0.658628 -0.420440
vn -0.532585 0.843125 0.074121
vn -0.290113 -0.521126 -0.802659
vn -0.843351 0.420947 -0.334010
vn 0.919412 -0.034193 0.391806
vn 0.871861 -0.488065 0.040634
vn 0.485475 -0.765853 -0.421643
vn -0.371088 -0.570353 -0.732797
vn 0.556821 0.555520 0.617534
vn -0.003250 0.824973 0.565163
vn -0.678855 0.707318 0.197123
vn -0.923671 0.185202 -0.335458
vn 0.852822 -0.521449 -0.028048
vn 0.924989 -0.054151 0.376115
vn 0.600965 0.514029 0.612058
vn 0.063623 0.802795 0.592851
vn -0.887374 0.118631 -0.445527
vn -0.863121 0.497623 -0.085985
vn -0.346109 -0.545316 -0.763439
vn 0.441458 -0.755145 -0.484635
vn -0.280387 0.838980 0.466365
vn -0.292680 0.940398 0.173178
vn -0.335538 0.927419 0.165250
vn -0.454832 0.816377 0.355888
vn 0.193982 0.933775 0.300725
vn 0.603066 0.744121 0.287395
vn 0.912796 0.405638 0.047555
vn 0.890131 -0.140168 -0.433612
vn 0.491527 -0.397519 -0.774841
vn -0.157716 -0.193234 -0.968394
vn -0.477836 0.389764 -0.787246
vn -0.476517 0.846708 -0.236681
vn 0.243669 0.417547 -0.875374
vn 0.481505 0.349734 -0.803641
vn 0.612637 0.412804 -0.673995
vn 0.630534 0.585578 -0.509436
vn 0.533546 0.738433 -0.412365
vn 0.361536 0.834359 -0.416098
vn 0.112136 0.788198 -0.605119
vn 0.032229 0.583358 -0.811576
vn 0.999989 0.004775 -0.000153
vn 0.954523 -0.298104 -0.004459
vn 0.368886 0.609017 -0.702155
vn -0.999938 0.008670 -0.007001
vn -0.868593 0.495499 0.005274
vn -0.791486 0.358800 -0.494786
vn -0.840090 -0.031104 -0.541554
vn -0.956789 -0.281686 -0.072167
vn -0.765234 -0.229191 -0.601572
vn -0.641678 -0.456567 -0.616275
vn -0.776106 -0.626916 -0.068090
vn -0.193475 -0.980677 -0.028966
vn -0.304345 -0.671759 -0.675362
vn -0.020192 -0.998736 -0.046039
vn -0.196294 -0.620817 -0.758983
vn -0.084351 -0.689371 -0.719481
vn -0.023677 -0.998590 -0.047525
vn -0.022763 -0.744710 -0.667000
vn -0.022720 -0.999463 -0.023607
vn 0.028693 -0.833850 -0.551245
vn 0.022894 -0.999614 -0.015763
vn 0.167191 -0.985433 -0.031116
vn 0.136810 -0.837359 -0.529256
vn 0.484992 -0.871887 -0.067795
vn 0.437359 -0.737706 -0.514302
vn 0.842490 -0.529204 -0.100765
vn 0.784884 -0.443227 -0.433021
vn 0.954722 -0.275384 -0.112557
vn 0.925832 -0.223382 -0.304852
vn 0.923423 0.051060 -0.380372
vn 0.995243 -0.006956 -0.097180
vn 0.808935 0.415439 -0.415975
vn 0.921506 0.383362 -0.062134
vn 0.534770 0.706175 -0.464045
vn 0.673698 0.737987 -0.038813
vn 0.438405 0.898771 -0.003549
vn 0.409806 0.810308 -0.418880
vn 0.262204 0.964877 0.016164
vn 0.310183 0.824493 -0.473284
vn 0.019479 0.832819 -0.553202
vn 0.020771 0.999375 0.028622
vn -0.284427 0.957530 0.047294
vn -0.269451 0.792074 -0.547737
vn -0.446876 0.768355 -0.458184
vn -0.518800 0.850012 0.091243
vn -0.570343 0.616200 -0.543145
vn -0.628440 0.770980 0.103215
vn -0.813429 0.578776 0.057893
vn -0.780731 0.414218 -0.467850
vn -0.961583 0.273730 -0.020738
vn -0.842406 0.251110 -0.476756
vn -0.992631 -0.086903 -0.084448
vn -0.925496 0.037926 -0.376854
vn -0.621657 0.782971 -0.022333
vn -0.853568 0.340195 -0.394574
vn -0.947104 0.236870 -0.216533
vn -0.972180 -0.227977 -0.053777
vn -0.745229 0.037250 -0.665768
vn -0.804626 0.361390 -0.471141
vn -0.633145 -0.195884 -0.748837
vn -0.486108 -0.385893 -0.784083
vn -0.347816 -0.589262 -0.729242
vn -0.217894 -0.679239 -0.700826
vn -0.090103 -0.694134 -0.714185
vn -0.020748 -0.721390 -0.692219
vn 0.007271 -0.724091 -0.689666
vn 0.098039 -0.723638 -0.683181
vn 0.284224 -0.651777 -0.703139
vn 0.594227 -0.481554 -0.644205
vn 0.812971 -0.215605 -0.540918
vn 0.790440 0.139167 -0.596520
vn 0.618967 0.464125 -0.633615
vn 0.464415 0.693482 -0.550820
vn 0.382207 0.738547 -0.555397
vn 0.284280 0.718995 -0.634217
vn -0.009527 0.682217 -0.731088
vn -0.305230 0.637246 -0.707639
vn -0.676501 0.440679 -0.590041
vn -0.509032 0.540946 -0.669525
vn -0.432656 0.605054 -0.668371
vn -0.525321 0.225884 -0.820374
vn -0.443445 0.144591 -0.884562
vn -0.476132 0.037963 -0.878554
vn -0.489448 -0.082263 -0.868144
vn -0.446452 -0.198215 -0.872578
vn -0.344352 -0.369802 -0.862942
vn -0.213630 -0.377297 -0.901116
vn -0.117082 -0.381011 -0.917127
vn -0.062959 -0.410446 -0.909709
vn -0.060653 -0.393676 -0.917246
vn 0.028367 -0.408131 -0.912483
vn 0.211505 -0.450203 -0.867516
vn 0.225866 -0.172041 -0.958847
vn 0.258575 0.026622 -0.965624
vn 0.269426 0.150729 -0.951152
vn 0.238566 0.295468 -0.925086
vn 0.257185 0.504643 -0.824131
vn 0.290196 0.647735 -0.704433
vn 0.130109 0.510647 -0.849889
vn 0.009972 0.428500 -0.903487
vn -0.121769 0.386569 -0.914186
vn -0.252131 0.346075 -0.903694
vn -0.348738 0.316855 -0.882035
vn -0.524153 0.335231 -0.782869
vn -0.122119 0.097169 -0.987747
vn -0.079342 0.094322 -0.992375
vn -0.081710 0.078758 -0.993540
vn -0.087279 0.114271 -0.989608
vn -0.123030 0.110303 -0.986254
vn -0.054709 0.165254 -0.984733
vn -0.110021 0.129660 -0.985436
vn -0.124127 0.110767 -0.986064
vn -0.106461 0.109959 -0.988218
vn -0.002981 0.130616 -0.991429
vn 0.011733 0.199605 -0.979806
vn -0.044573 0.095698 -0.994412
vn -0.195991 0.096315 -0.975864
vn -0.210481 0.057551 -0.975903
vn -0.158036 0.109328 -0.981362
vn -0.109245 0.043626 -0.993057
vn -0.112718 0.055857 -0.992056
vn -0.074551 0.108475 -0.991300
vn -0.015380 0.192272 -0.981221
vn 0.023413 0.251629 -0.967541
vn -0.068710 0.067249 -0.995368
vn -0.069082 0.073016 -0.994935
vn -0.065597 0.070663 -0.995341
vn -0.107182 0.065174 -0.992101
vn -0.202107 0.079309 -0.976147
vn -0.838221 0.514694 -0.180213
vn -0.967029 0.247131 0.061492
s 1
g TrunkLOW Trunk_Group
f 9/9/1 13/13/2 34/34/3 35/35/4
f 29/29/5 30/30/6 21/21/7 3/3/8
f 43/43/9 44/44/10 15/15/11 7/8/12
f 19/19/13 48/48/14 49/49/15 6/5/16
f 32/32/17 33/33/18 10/10/19 2/2/20
f 12/12/21 45/45/22 46/46/23 5/6/24
f 33/33/18 34/34/3 13/13/2 10/10/19
f 15/15/11 44/44/10 45/45/22 12/12/21
f 46/46/23 47/47/25 16/16/26 5/6/24
f 2/2/20 18/18/27 31/31/28 32/32/17
f 16/16/26 47/47/25 48/48/14 19/19/13
f 30/30/6 31/31/28 18/18/27 21/21/7
f 20/20/29 23/23/30 22/22/31 4/4/32
f 17/17/33 24/24/34 23/23/30 20/20/29
f 25/25/35 24/24/34 17/17/33 1/1/36
f 11/11/37 26/26/38 25/25/35 1/1/36
f 14/14/39 27/27/40 26/26/38 11/11/37
f 28/28/41 27/27/40 14/14/39 8/7/42
f 22/22/31 23/23/30 30/30/6 29/29/5
f 23/23/30 24/24/34 31/31/28 30/30/6
f 32/32/17 31/31/28 24/24/34 25/25/35
f 25/25/35 26/26/38 33/33/18 32/32/17
f 26/26/38 27/27/40 34/34/3 33/33/18
f 35/35/4 34/34/3 27/27/40 28/28/41
f 8/7/42 14/14/39 37/37/43 36/36/44
f 38/38/45 37/37/43 14/14/39 11/11/37
f 39/39/46 38/38/45 11/11/37 1/1/36
f 1/1/36 17/17/33 40/40/47 39/39/46
f 41/41/48 40/40/47 17/17/33 20/20/29
f 42/42/49 41/41/48 20/20/29 4/4/32
f 36/36/44 37/37/43 44/44/10 43/43/9
f 45/45/22 44/44/10 37/37/43 38/38/45
f 46/46/23 45/45/22 38/38/45 39/39/46
f 39/39/46 40/40/47 47/47/25 46/46/23
f 48/48/14 47/47/25 40/40/47 41/41/48
f 49/49/15 48/48/14 41/41/48 42/42/49
f 51/467/50 50/489/51 9/9/1 35/35/4
f 50/489/51 52/488/52 13/13/2 9/9/1
f 52/488/52 53/487/53 10/10/19 13/13/2
f 2/2/20 10/10/19 53/487/53 54/486/54
f 54/486/54 55/485/55 18/18/27 2/2/20
f 55/485/55 56/484/56 21/21/7 18/18/27
f 3/3/8 21/21/7 56/484/56 57/483/57
f 29/29/5 3/3/8 57/483/57 58/482/58
f 58/482/58 59/481/59 22/22/31 29/29/5
f 59/481/59 60/480/60 4/4/32 22/22/31
f 60/480/60 61/479/61 42/42/49 4/4/32
f 61/479/61 62/478/62 49/49/15 42/42/49
f 6/5/16 49/49/15 62/478/62 63/477/63
f 19/19/13 6/5/16 63/477/63 64/476/64
f 64/476/64 65/475/65 16/16/26 19/19/13
f 65/475/65 66/474/66 5/6/24 16/16/26
f 12/12/21 5/6/24 66/474/66 67/473/67
f 67/473/67 68/472/68 15/15/11 12/12/21
f 68/472/68 69/471/69 7/8/12 15/15/11
f 43/43/9 7/8/12 69/471/69 70/470/70
f 70/470/70 71/469/71 36/36/44 43/43/9
f 71/469/71 72/468/72 8/7/42 36/36/44
f 72/468/72 73/466/73 28/28/41 8/7/42
f 35/35/4 28/28/41 73/466/73 51/467/50
f 50/51/51 51/50/50 74/74/74 75/75/75
f 52/52/52 50/51/51 75/75/75 76/76/76
f 53/53/53 52/52/52 76/76/76 77/77/77
f 55/55/55 54/54/54 78/78/78 79/79/79
f 77/77/77 78/78/78 54/54/54 53/53/53
f 79/79/79 80/80/80 56/56/56 55/55/55
f 57/57/57 56/56/56 80/80/80 81/81/81
f 58/58/58 57/57/57 81/81/81 82/82/82
f 59/59/59 58/58/58 82/82/82 83/83/83
f 60/60/60 59/59/59 83/83/83 84/84/84
f 84/84/84 85/85/85 61/61/61 60/60/60
f 62/62/62 61/61/61 85/85/85 86/86/86
f 63/63/63 62/62/62 86/86/86 87/87/87
f 64/64/64 63/501/63 87/500/87 88/88/88
f 88/88/88 89/89/89 65/65/65 64/64/64
f 66/66/66 65/65/65 89/89/89 90/90/90
f 90/90/90 91/91/91 67/67/67 66/66/66
f 91/91/91 92/92/92 68/68/68 67/67/67
f 92/92/92 93/93/93 69/69/69 68/68/68
f 93/93/93 94/94/94 70/70/70 69/69/69
f 94/94/94 95/95/95 71/71/71 70/70/70
f 95/95/95 96/96/96 72/72/72 71/71/71
f 96/96/96 97/97/97 73/73/73 72/72/72
f 97/97/97 74/74/74 51/50/50 73/73/73
f 99/98/98 98/99/99 97/97/97 96/96/96
f 74/74/74 97/97/97 98/99/99 100/100/100
f 100/100/100 101/101/101 75/75/75 74/74/74
f 101/101/101 102/102/102 76/76/76 75/75/75
f 102/102/102 103/103/103 77/77/77 76/76/76
f 103/103/103 104/104/104 78/78/78 77/77/77
f 104/104/104 105/105/105 79/79/79 78/78/78
f 80/80/80 79/79/79 105/105/105 106/106/106
f 106/106/106 107/107/107 81/81/81 80/80/80
f 82/82/82 81/81/81 107/107/107 108/108/108
f 83/83/83 82/82/82 108/108/108 109/109/109
f 109/109/109 110/110/110 84/84/84 83/83/83
f 85/85/85 84/84/84 110/110/110 111/111/111
f 111/111/111 112/112/112 86/86/86 85/85/85
f 112/112/112 113/113/113 87/87/87 86/86/86
f 113/496/113 114/114/114 88/88/88 87/500/87
f 114/114/114 115/115/115 89/89/89 88/88/88
f 90/90/90 89/89/89 115/115/115 116/116/116
f 116/116/116 117/117/117 91/91/91 90/90/90
f 117/117/117 118/118/118 92/92/92 91/91/91
f 118/118/118 119/119/119 93/93/93 92/92/92
f 119/119/119 120/120/120 94/94/94 93/93/93
f 95/95/95 94/94/94 120/120/120 121/121/121
f 121/121/121 99/98/98 96/96/96 95/95/95
f 113/113/113 112/112/112 286/286/122 287/495/123
f 112/112/112 111/111/111 309/309/124 286/286/122
f 111/111/111 110/110/110 308/308/125 309/309/124
f 110/110/110 109/109/109 307/307/126 308/308/125
f 109/109/109 108/108/108 306/306/127 307/307/126
f 108/108/108 107/107/107 305/305/128 306/306/127
f 107/107/107 106/106/106 304/304/129 305/305/128
f 106/106/106 105/105/105 303/303/130 304/304/129
f 105/105/105 104/104/104 302/302/131 303/303/130
f 104/104/104 103/103/103 301/301/132 302/302/131
f 103/103/103 102/102/102 300/300/133 301/301/132
f 102/102/102 101/101/101 299/299/134 300/300/133
f 101/101/101 100/100/100 298/298/135 299/299/134
f 100/100/100 98/99/99 297/297/136 298/298/135
f 98/99/99 99/98/98 296/296/137 297/297/136
f 99/98/98 121/121/121 295/295/138 296/296/137
f 121/121/121 120/120/120 294/294/139 295/295/138
f 120/120/120 119/119/119 293/293/140 294/294/139
f 119/119/119 118/118/118 292/292/141 293/293/140
f 118/118/118 117/117/117 291/291/142 292/292/141
f 117/117/117 116/116/116 290/290/143 291/291/142
f 116/116/116 115/115/115 289/289/144 290/290/143
f 114/114/114 113/496/113 287/287/123 288/288/145
f 115/115/115 114/114/114 288/288/145 289/289/144
f 125/498/146 123/499/147 122/122/148 124/125/149
f 127/126/150 125/498/146 124/125/149 126/127/151
f 126/127/151 314/314/152 315/315/153 127/126/150
f 130/130/154 132/132/155 133/133/156 131/131/157
f 132/132/155 134/134/158 135/135/159 133/133/156
f 134/134/158 321/321/160 322/322/161 135/135/159
f 143/143/162 138/138/163 123/123/147 125/124/146
f 144/144/164 139/139/165 138/138/163 143/143/162
f 139/139/165 144/144/164 145/145/166 140/140/167
f 146/146/168 141/141/169 140/140/167 145/145/166
f 147/147/170 142/142/171 141/141/169 146/146/168
f 142/142/171 147/147/170 132/132/155 130/130/154
f 125/124/146 127/494/150 148/148/172 143/143/162
f 149/149/173 144/144/164 143/143/162 148/148/172
f 144/144/164 149/149/173 150/150/174 145/145/166
f 145/145/166 150/150/174 151/151/175 146/146/168
f 146/146/168 151/151/175 152/152/176 147/147/170
f 147/147/170 152/152/176 134/134/158 132/132/155
f 127/494/150 315/491/153 316/316/177 148/148/172
f 152/152/176 320/320/178 321/321/160 134/134/158
f 151/151/175 319/319/179 320/320/178 152/152/176
f 318/318/180 319/319/179 151/151/175 150/150/174
f 316/316/177 317/317/181 149/149/173 148/148/172
f 317/317/181 318/318/180 150/150/174 149/149/173
f 161/160/182 159/159/183 158/158/184 160/161/185
f 124/125/149 122/122/148 159/159/183 161/160/182
f 163/162/186 161/160/182 160/161/185 162/163/187
f 126/127/151 124/125/149 161/160/182 163/162/186
f 162/163/187 312/312/188 313/313/189 163/162/186
f 313/313/189 314/314/152 126/127/151 163/162/186
f 160/161/185 158/158/184 166/166/190 167/167/191
f 167/167/191 168/168/192 162/163/187 160/161/185
f 168/168/192 311/311/193 312/312/188 162/163/187
f 170/170/194 172/172/195 173/173/196 171/171/197
f 175/175/198 174/174/199 171/171/197 173/173/196
f 167/167/191 166/166/190 174/174/199 175/175/198
f 168/168/192 167/167/191 175/175/198 176/176/200
f 176/176/200 175/175/198 173/173/196 177/177/201
f 177/177/201 333/333/202 334/334/203 176/176/200
f 262/497/204 263/263/205 122/122/148 123/499/147
f 285/285/206 262/262/204 123/123/147 138/138/163
f 284/284/207 285/285/206 138/138/163 139/139/165
f 283/283/208 284/284/207 139/139/165 140/140/167
f 282/282/209 283/283/208 140/140/167 141/141/169
f 281/281/210 282/282/209 141/141/169 142/142/171
f 280/280/211 281/281/210 142/142/171 130/130/154
f 279/279/212 280/280/211 130/130/154 131/131/157
f 278/278/213 279/279/212 131/131/157 187/187/214
f 277/277/215 278/278/213 187/187/214 188/188/216
f 276/276/217 277/277/215 188/188/216 184/184/218
f 275/275/219 276/276/217 184/184/218 185/509/220
f 274/274/221 275/275/219 185/509/220 186/507/222
f 273/273/223 274/274/221 186/507/222 183/183/224
f 272/272/225 273/273/223 183/183/224 182/182/226
f 271/271/227 272/272/225 182/182/226 181/181/228
f 270/270/229 271/271/227 181/181/228 180/180/230
f 269/269/231 270/270/229 180/180/230 170/170/194
f 268/268/232 269/269/231 170/170/194 171/171/197
f 267/267/233 268/268/232 171/171/197 174/174/199
f 266/266/234 267/267/233 174/174/199 166/166/190
f 265/265/235 266/266/234 166/166/190 158/158/184
f 264/264/236 265/265/235 158/158/184 159/159/183
f 263/263/205 264/264/236 159/159/183 122/122/148
f 172/172/195 170/170/194 180/180/230 189/189/237
f 181/181/228 190/190/238 189/189/237 180/180/230
f 190/190/238 181/181/228 182/182/226 191/191/239
f 183/183/224 192/192/240 191/191/239 182/182/226
f 131/131/157 133/133/156 193/193/241 187/187/214
f 194/194/242 188/188/216 187/187/214 193/193/241
f 188/188/216 194/194/242 195/506/243 184/184/218
f 186/507/222 196/505/244 192/192/240 183/183/224
f 194/194/242 197/197/245 198/503/246 195/506/243
f 193/193/241 199/199/247 197/197/245 194/194/242
f 133/133/156 135/135/159 199/199/247 193/193/241
f 196/505/244 200/200/248 201/201/249 192/192/240
f 204/502/250 326/326/251 327/327/252 200/200/248
f 325/325/253 326/326/251 204/502/250 198/503/246
f 200/200/248 327/327/252 328/328/254 201/201/249
f 177/177/201 173/173/196 172/172/195 207/207/255
f 207/207/255 172/172/195 189/189/237 208/208/256
f 208/208/256 189/189/237 190/190/238 209/209/257
f 209/209/257 190/190/238 191/191/239 210/210/258
f 210/210/258 191/191/239 192/192/240 201/201/249
f 328/328/254 329/329/259 210/210/258 201/201/249
f 210/210/258 329/329/259 330/330/260 209/209/257
f 207/207/255 332/332/261 333/333/202 177/177/201
f 331/331/262 332/332/261 207/207/255 208/208/256
f 330/330/260 331/331/262 208/208/256 209/209/257
f 185/185/220 215/215/263 216/216/264 186/186/222
f 184/508/218 195/195/243 217/217/265 218/218/266
f 184/508/218 218/218/266 215/215/263 185/185/220
f 195/195/243 198/198/246 219/219/267 217/217/265
f 186/186/222 216/216/264 220/220/268 196/196/244
f 221/221/269 219/219/267 198/198/246 204/202/250
f 204/202/250 200/504/248 222/222/270 221/221/269
f 200/504/248 196/513/244 220/512/268 222/222/270
f 224/223/271 218/218/266 217/217/265 223/224/272
f 217/217/265 219/219/267 225/225/273 223/224/272
f 226/226/274 225/225/273 219/219/267 221/221/269
f 227/227/275 215/215/263 218/218/266 224/223/271
f 228/228/276 216/216/264 215/215/263 227/227/275
f 220/220/268 216/216/264 228/228/276 229/229/277
f 222/222/270 220/512/268 229/511/277 230/230/278
f 221/221/269 222/222/270 230/230/278 226/226/274
f 223/224/272 231/231/279 232/232/280 224/223/271
f 224/223/271 232/232/280 233/233/281 227/227/275
f 227/227/275 233/233/281 234/234/282 228/228/276
f 236/235/283 230/230/278 229/511/277 235/236/284
f 237/237/285 226/226/274 230/230/278 236/235/283
f 226/226/274 237/237/285 238/238/286 225/225/273
f 225/225/273 238/238/286 231/231/279 223/224/272
f 239/239/287 229/229/277 228/228/276 234/234/282
f 242/524/288 240/514/289 241/510/290 239/239/287
f 239/239/287 234/234/282 243/523/291 242/524/288
f 234/234/282 233/233/281 244/522/292 243/523/291
f 245/521/293 244/522/292 233/233/281 232/232/280
f 246/520/294 245/521/293 232/232/280 231/231/279
f 247/519/295 246/520/294 231/231/279 238/238/286
f 248/518/296 247/519/295 238/238/286 237/237/285
f 249/517/297 248/518/296 237/237/285 236/235/283
f 250/516/298 249/517/297 236/235/283 235/236/284
f 240/515/289 250/516/298 235/236/284 241/242/290
f 241/510/290 229/229/277 239/239/287
f 229/511/277 241/242/290 235/236/284
f 247/247/295 248/248/296 251/251/299 252/252/300
f 252/252/300 253/253/301 246/246/294 247/247/295
f 253/253/301 254/254/302 245/245/293 246/246/294
f 244/244/292 245/245/293 254/254/302 255/255/303
f 243/243/291 244/244/292 255/255/303 256/256/304
f 243/243/291 256/256/304 257/257/305 242/240/288
f 257/257/305 258/258/306 249/249/297 250/250/298
f 258/258/306 251/251/299 248/248/296 249/249/297
f 324/324/307 325/325/253 198/503/246 197/197/245
f 323/323/308 324/324/307 197/197/245 199/199/247
f 135/135/159 322/322/161 323/323/308 199/199/247
f 255/255/303 254/254/302 253/253/301 261/261/309
f 261/261/309 257/257/305 256/256/304 255/255/303
f 258/258/306 257/257/305 261/261/309 251/251/299
f 253/253/301 252/252/300 251/251/299 261/261/309
f 287/495/123 286/286/122 263/263/205 262/497/204
f 288/288/145 287/287/123 262/262/204 285/285/206
f 289/289/144 288/288/145 285/285/206 284/284/207
f 290/290/143 289/289/144 284/284/207 283/283/208
f 291/291/142 290/290/143 283/283/208 282/282/209
f 292/292/141 291/291/142 282/282/209 281/281/210
f 280/280/211 293/293/140 292/292/141 281/281/210
f 294/294/139 293/293/140 280/280/211 279/279/212
f 295/295/138 294/294/139 279/279/212 278/278/213
f 296/296/137 295/295/138 278/278/213 277/277/215
f 276/276/217 297/297/136 296/296/137 277/277/215
f 298/298/135 297/297/136 276/276/217 275/275/219
f 299/299/134 298/298/135 275/275/219 274/274/221
f 273/273/223 300/300/133 299/299/134 274/274/221
f 272/272/225 301/301/132 300/300/133 273/273/223
f 271/271/227 302/302/131 301/301/132 272/272/225
f 270/270/229 303/303/130 302/302/131 271/271/227
f 269/269/231 304/304/129 303/303/130 270/270/229
f 305/305/128 304/304/129 269/269/231 268/268/232
f 267/267/233 306/306/127 305/305/128 268/268/232
f 266/266/234 307/307/126 306/306/127 267/267/233
f 265/265/235 308/308/125 307/307/126 266/266/234
f 309/309/124 308/308/125 265/265/235 264/264/236
f 263/263/205 286/286/122 309/309/124 264/264/236
f 176/176/200 334/334/203 311/311/193 168/168/192
f 413/413/310 414/414/311 169/169/312 164/164/313
f 412/412/314 413/413/310 164/164/313 165/165/315
f 128/128/316 411/411/317 412/412/314 165/165/315
f 410/490/318 411/411/317 128/128/316 129/129/319
f 436/436/320 410/410/318 129/493/319 153/153/321
f 157/157/322 435/435/323 436/436/320 153/153/321
f 156/156/324 434/434/325 435/435/323 157/157/322
f 155/155/326 433/433/327 434/434/325 156/156/324
f 432/432/328 433/433/327 155/155/326 154/154/329
f 431/431/330 432/432/328 154/154/329 136/136/331
f 430/430/332 431/431/330 136/136/331 137/137/333
f 429/429/334 430/430/332 137/137/333 260/260/335
f 259/259/336 428/428/337 429/429/334 260/260/335
f 205/205/338 427/427/339 428/428/337 259/259/336
f 202/203/340 426/426/341 427/427/339 205/205/338
f 425/425/342 426/426/341 202/203/340 203/204/343
f 424/424/344 425/425/342 203/204/343 206/206/345
f 211/211/346 423/423/347 424/424/344 206/206/345
f 422/422/348 423/423/347 211/211/346 212/212/349
f 214/214/350 421/421/351 422/422/348 212/212/349
f 213/213/352 420/420/353 421/421/351 214/214/350
f 419/419/354 420/420/353 213/213/352 178/178/355
f 418/418/356 419/419/354 178/178/355 179/179/357
f 417/417/358 418/418/356 179/179/357 310/310/359
f 414/414/311 415/440/360 335/336/361 169/169/312
f 337/337/362 416/438/363 417/417/358 310/310/359
f 164/164/313 169/169/312 335/336/361 339/464/364
f 310/310/359 179/179/357 340/446/365 337/337/362
f 339/464/364 341/463/366 165/165/315 164/164/313
f 341/463/366 342/462/367 128/128/316 165/165/315
f 343/461/368 129/129/319 128/128/316 342/462/367
f 343/492/368 344/460/369 153/153/321 129/493/319
f 157/157/322 153/153/321 344/460/369 345/459/370
f 345/459/370 346/458/371 156/156/324 157/157/322
f 346/458/371 347/457/372 155/155/326 156/156/324
f 347/457/372 348/456/373 154/154/329 155/155/326
f 348/456/373 349/455/374 136/136/331 154/154/329
f 349/455/374 350/454/375 137/137/333 136/136/331
f 350/454/375 351/453/376 260/260/335 137/137/333
f 351/453/376 352/452/377 259/259/336 260/260/335
f 352/452/377 353/451/378 205/205/338 259/259/336
f 353/451/378 354/450/379 202/203/340 205/205/338
f 354/450/379 355/449/380 203/204/343 202/203/340
f 355/449/380 356/448/381 206/206/345 203/204/343
f 356/448/381 357/447/382 211/211/346 206/206/345
f 357/447/382 358/442/383 212/212/349 211/211/346
f 179/179/357 178/178/355 359/445/384 340/446/365
f 178/178/355 213/213/352 360/444/385 359/445/384
f 214/214/350 361/443/386 360/444/385 213/213/352
f 358/442/383 361/443/386 214/214/350 212/212/349
f 337/465/362 340/339/365 362/361/387 338/362/388
f 339/338/364 335/441/361 338/362/388 363/363/389
f 363/363/389 364/364/390 341/340/366 339/338/364
f 364/364/390 365/365/391 342/341/367 341/340/366
f 343/342/368 342/341/367 365/365/391 366/366/392
f 366/366/392 367/367/393 344/343/369 343/342/368
f 367/367/393 368/368/394 345/344/370 344/343/369
f 346/345/371 345/344/370 368/368/394 369/369/395
f 347/346/372 346/345/371 369/369/395 370/370/396
f 348/347/373 347/346/372 370/370/396 371/371/397
f 371/371/397 372/372/398 349/348/374 348/347/373
f 350/349/375 349/348/374 372/372/398 373/373/399
f 373/373/399 374/374/400 351/350/376 350/349/375
f 374/374/400 375/375/401 352/351/377 351/350/376
f 375/375/401 376/376/402 353/352/378 352/351/377
f 354/353/379 353/352/378 376/376/402 377/377/403
f 377/377/403 378/378/404 355/354/380 354/353/379
f 378/378/404 379/379/405 356/355/381 355/354/380
f 379/379/405 380/380/406 357/356/382 356/355/381
f 380/380/406 381/381/407 358/357/383 357/356/382
f 361/360/386 358/357/383 381/381/407 382/382/408
f 382/382/408 383/383/409 360/359/385 361/360/386
f 359/358/384 360/359/385 383/383/409 384/384/410
f 340/339/365 359/358/384 384/384/410 362/361/387
f 242/240/288 257/257/305 250/250/298 240/241/289
f 385/385/411 387/387/412 401/401/413 402/402/414
f 392/392/415 393/393/416 387/387/412 385/385/411
f 385/385/411 388/388/417 391/391/418 392/392/415
f 402/402/414 403/403/419 388/388/417 385/385/411
f 375/375/401 386/386/420 394/394/421 376/376/402
f 374/374/400 400/400/422 386/386/420 375/375/401
f 393/393/416 394/394/421 386/386/420 387/387/412
f 400/400/422 401/401/413 387/387/412 386/386/420
f 363/363/389 389/389/423 404/404/424 364/364/390
f 338/362/388 390/390/425 389/389/423 363/363/389
f 390/390/425 391/391/418 388/388/417 389/389/423
f 403/403/419 404/404/424 389/389/423 388/388/417
f 383/383/409 399/399/426 362/361/387 384/384/410
f 382/382/408 398/398/427 399/399/426 383/383/409
f 397/397/428 398/398/427 382/382/408 381/381/407
f 380/380/406 396/396/429 397/397/428 381/381/407
f 379/379/405 395/395/430 396/396/429 380/380/406
f 377/377/403 395/395/430 379/379/405 378/378/404
f 376/376/402 394/394/421 395/395/430 377/377/403
f 396/396/429 395/395/430 394/394/421 393/393/416
f 397/397/428 396/396/429 393/393/416 392/392/415
f 392/392/415 391/391/418 398/398/427 397/397/428
f 399/399/426 398/398/427 391/391/418 390/390/425
f 362/361/387 399/399/426 390/390/425 338/362/388
f 371/371/397 409/409/431 373/373/399 372/372/398
f 370/370/396 408/408/432 409/409/431 371/371/397
f 407/407/433 408/408/432 370/370/396 369/369/395
f 368/368/394 406/406/434 407/407/433 369/369/395
f 367/367/393 405/405/435 406/406/434 368/368/394
f 365/365/391 405/405/435 367/367/393 366/366/392
f 364/364/390 404/404/424 405/405/435 365/365/391
f 406/406/434 405/405/435 404/404/424 403/403/419
f 407/407/433 406/406/434 403/403/419 402/402/414
f 402/402/414 401/401/413 408/408/432 407/407/433
f 409/409/431 408/408/432 401/401/413 400/400/422
f 373/373/399 409/409/431 400/400/422 374/374/400
f 315/315/153 314/314/152 411/411/317 410/490/318
f 412/412/314 411/411/317 314/314/152 313/313/189
f 313/313/189 312/312/188 413/413/310 412/412/314
f 312/312/188 311/311/193 414/414/311 413/413/310
f 336/335/436 415/440/360 414/414/311 311/311/193
f 417/417/358 416/438/363 336/335/436 311/311/193
f 311/311/193 334/334/203 418/418/356 417/417/358
f 334/334/203 333/333/202 419/419/354 418/418/356
f 333/333/202 332/332/261 420/420/353 419/419/354
f 421/421/351 420/420/353 332/332/261 331/331/262
f 422/422/348 421/421/351 331/331/262 330/330/260
f 330/330/260 329/329/259 423/423/347 422/422/348
f 424/424/344 423/423/347 329/329/259 328/328/254
f 328/328/254 327/327/252 425/425/342 424/424/344
f 327/327/252 326/326/251 426/426/341 425/425/342
f 427/427/339 426/426/341 326/326/251 325/325/253
f 428/428/337 427/427/339 325/325/253 324/324/307
f 429/429/334 428/428/337 324/324/307 323/323/308
f 323/323/308 322/322/161 430/430/332 429/429/334
f 322/322/161 321/321/160 431/431/330 430/430/332
f 321/321/160 320/320/178 432/432/328 431/431/330
f 320/320/178 319/319/179 433/433/327 432/432/328
f 434/434/325 433/433/327 319/319/179 318/318/180
f 435/435/323 434/434/325 318/318/180 317/317/181
f 436/436/320 435/435/323 317/317/181 316/316/177
f 316/316/177 315/491/153 410/410/318 436/436/320
f 337/465/362 338/362/388 437/437/437 416/416/363
f 437/437/437 338/362/388 335/441/361 415/415/360
f 415/415/360 336/439/436 416/416/363 437/437/437
