# This file uses centimeters as units for non-parametric coordinates.

g default
v 0.250405 1.059461 -0.942181
v 0.430458 1.209270 -1.002767
v 0.462218 1.198849 -1.011781
v 0.343414 0.981088 -0.995084
v 0.404137 1.217711 -0.943723
v 0.201658 1.056370 -0.763083
v 0.216756 1.035194 -0.549896
v 0.411974 1.201993 -0.872047
v 0.466276 1.187859 -0.853201
v 0.347215 0.940408 -0.364818
v 0.508253 1.191667 -0.901082
v 0.423268 0.778710 -0.419978
v 0.005725 1.027405 -0.489604
v 0.517498 1.194961 -0.946954
v 0.425253 0.795687 -0.645220
v 0.503258 1.190002 -0.989222
v 0.422754 0.816020 -0.846647
v 0.355902 1.159178 -0.989041
v 0.418849 1.116321 -1.011127
v 0.477163 1.047807 -0.942763
v 0.512468 1.034351 -0.838274
v 0.497987 1.040046 -0.720363
v 0.425529 1.102200 -0.671623
v 0.341856 1.137451 -0.755767
v 0.321950 1.170223 -0.876020
v 0.472518 1.221136 -0.956167
v 0.314842 1.109353 -0.953853
v 0.385895 1.064680 -0.979038
v 0.431149 0.952381 -0.881308
v 0.464216 0.922105 -0.744767
v 0.464012 0.913953 -0.575867
v 0.388185 1.025289 -0.523335
v 0.284122 1.080178 -0.659216
v 0.266739 1.112953 -0.821724
v 0.444528 1.160225 -1.022483
v 0.392820 1.193953 -1.003513
v 0.365214 1.200906 -0.913611
v 0.380341 1.175796 -0.819127
v 0.448472 1.150455 -0.771825
v 0.512454 1.129082 -0.816126
v 0.537822 1.125330 -0.896316
v 0.501944 1.118667 -0.983399
v 0.380079 0.535607 -1.631601
v 0.302849 0.892309 -1.577488
v 0.166809 0.976959 -1.543804
v 0.009329 1.040081 -0.748375
v 0.043945 1.039674 -0.932318
v 0.016766 1.027158 -1.566189
v 0.406357 0.702468 1.685316
v 0.300865 0.903720 1.615774
v -0.121515 1.027282 1.714891
v -0.111829 0.685500 1.582941
v -0.513033 0.875211 1.654654
v -0.597034 0.646130 1.581789
v -0.115872 0.382247 1.258048
v -0.471263 0.439379 1.506627
v -0.415580 0.946710 1.651892
v -0.410915 0.646829 1.664479
v -0.366974 0.430457 1.443190
v 0.117548 0.338410 1.191455
v 0.209011 0.585059 1.680750
v 0.147483 0.942518 1.602836
v 0.394545 0.801921 1.664543
v 0.194394 0.817440 1.738251
v -0.114056 0.829646 1.738730
v -0.404749 0.776567 1.735972
v -0.574124 0.776141 1.671407
v 0.184228 0.482514 1.456664
v -0.114613 0.543321 1.423487
v -0.402146 0.525910 1.557778
v -0.547374 0.515231 1.536213
v -0.424148 0.898417 -0.951230
v -0.360433 0.877356 -1.501018
v -0.462167 0.929427 -0.757905
v -0.470468 0.924592 -0.502367
v -0.302061 0.996297 -0.487565
v -0.281301 1.009730 -0.748773
v -0.244503 1.004142 -0.942147
v -0.235003 0.988728 -1.572282
v 0.381770 0.319078 -1.423454
v 0.254303 0.542357 -0.817671
v 0.207767 0.584967 -0.647961
v 0.198264 0.546512 -0.405611
v 0.229961 0.299925 -1.311868
v 0.117616 0.472206 -0.825111
v -0.539311 0.724119 -0.911467
v -0.451532 0.724286 -1.306786
v -0.438139 0.515144 -0.844968
v -0.412897 0.573648 -1.148238
v -0.280004 0.422859 -0.832332
v -0.288073 0.494590 -1.141739
v 0.045479 0.387917 -1.184777
v -0.024555 0.392081 -0.844848
v 0.031016 0.647319 -1.410538
v -0.315759 0.660603 -1.397441
v 0.223501 0.582417 -1.505650
v 0.320705 0.926246 -1.421170
v 0.492500 0.569715 -1.455405
v 0.361409 0.353871 -1.259283
v 0.191180 0.335945 -1.145471
v 0.017241 0.318711 -1.061387
v -0.280774 0.458074 -1.045018
v -0.422208 0.561092 -1.087731
v -0.480770 0.723153 -1.200439
v -0.379567 0.886558 -1.376558
v -0.237152 0.992094 -1.401534
v 0.023402 1.025779 -1.394582
v 0.187434 0.990157 -1.380120
v -0.524740 0.629563 -0.874567
v -0.468614 0.642926 -1.144734
v -0.461168 0.673348 -1.229313
v -0.299593 0.572556 -1.281107
v 0.053044 0.516671 -1.303120
v 0.245567 0.434873 -1.436249
v 0.400086 0.415335 -1.544733
v 0.471704 0.446064 -1.363953
v 0.392901 0.611034 -0.839789
v 0.342627 0.652214 -0.641571
v 0.340166 0.640449 -0.414828
v -0.511338 0.809192 -0.928848
v -0.452917 0.798764 -1.284315
v -0.417549 0.777351 -1.408669
v -0.296762 0.768052 -1.524228
v 0.004874 0.781135 -1.531353
v 0.197144 0.736595 -1.595733
v 0.335230 0.715780 -1.657194
v 0.451521 0.771893 -1.445381
v 0.389655 0.895411 -0.919341
v 0.411861 1.000957 -0.934507
v 0.450646 1.075963 -0.982055
v 0.477177 1.136402 -1.007584
v 0.485296 1.195133 -1.002291
v 0.497696 1.210265 -0.951513
v 0.489069 1.191590 -0.877234
v 0.484302 1.142276 -0.792956
v 0.473380 1.076295 -0.690958
v 0.447602 0.979031 -0.540290
v 0.423919 0.862725 -0.379663
v -0.136905 0.362799 -0.838498
v -0.118750 0.370812 -1.031772
v -0.106665 0.433622 -1.149159
v -0.105011 0.552329 -1.271097
v -0.120498 0.671531 -1.395757
v -0.131764 0.784882 -1.519604
v -0.117175 1.034117 -1.576004
v -0.114161 1.035138 -1.397415
v -0.107827 1.041191 -0.937474
v -0.143433 1.034859 -0.748253
v -0.165390 1.024967 -0.486275
v 0.076470 0.523582 -0.676104
v -0.046818 0.466763 -0.693097
v -0.151544 0.421444 -0.691188
v -0.298921 0.436301 -0.685663
v -0.444804 0.512835 -0.685978
v -0.544971 0.833216 -0.760516
v -0.535599 0.622858 -0.717009
v -0.570653 0.713744 -0.740652
v -0.559451 0.814289 -0.495126
v -0.557019 0.700510 -0.490357
v -0.512582 0.622821 -0.477703
v -0.400852 0.552575 -0.465890
v -0.273357 0.505865 -0.453229
v -0.154710 0.450818 -0.446998
v -0.042158 0.437261 -0.440004
v 0.064739 0.487298 -0.429678
v -0.033101 1.028816 0.366015
v 0.113252 0.961713 0.367580
v 0.232863 0.869956 0.369186
v 0.336448 0.762672 0.361145
v 0.440823 0.639696 0.339933
v 0.426798 0.440655 0.319619
v 0.256422 0.259966 0.369993
v 0.015820 0.170855 0.486122
v -0.122448 0.174832 0.381426
v -0.249007 0.223872 0.337842
v -0.403399 0.310353 0.337157
v -0.561245 0.398622 0.309813
v -0.637633 0.512040 0.289597
v -0.682907 0.644605 0.297302
v -0.639400 0.782693 0.337624
v -0.490615 0.881622 0.370737
v -0.340585 0.972930 0.370007
v -0.199196 1.034223 0.362159
v 0.022393 0.982502 1.678778
v -0.272683 1.010401 1.690487
v -0.255318 0.417686 1.354359
v 0.006405 0.326318 1.163895
v -0.264314 0.806838 1.721750
v -0.259821 0.678000 1.605417
v -0.251904 0.556696 1.484911
v 0.033266 0.510827 1.403589
v 0.041549 0.658150 1.596872
v 0.031745 0.826566 1.733313
v 0.513163 0.700265 -1.169116
v 0.440358 0.841739 -1.202071
v 0.327049 0.942505 -1.215978
v 0.205655 0.993642 -1.169349
v 0.032259 1.027126 -1.175607
v -0.110665 1.034465 -1.179744
v -0.235264 0.987864 -1.184351
v -0.398551 0.889551 -1.175297
v -0.474546 0.800661 -1.115653
v -0.500091 0.721658 -1.070285
v -0.488886 0.635404 -1.037253
v -0.429072 0.541699 -1.005096
v -0.274121 0.432156 -0.940625
v -0.126447 0.358485 -0.941435
v -0.000963 0.347190 -0.948338
v 0.166684 0.423523 -0.954689
v 0.325609 0.481441 -0.993398
v 0.456668 0.509863 -1.098250
v 0.086782 1.003295 1.328040
v -0.053008 1.058983 1.352573
v -0.243901 1.031255 1.330783
v -0.381122 0.953217 1.310009
v -0.501913 0.890687 1.310483
v -0.582295 0.782975 1.313472
v -0.569476 0.659418 1.259747
v -0.511846 0.568141 1.232995
v -0.438169 0.513245 1.216341
v -0.328398 0.468446 1.168904
v -0.220144 0.428649 1.111616
v -0.090545 0.387945 1.056176
v 0.031658 0.339633 0.983755
v 0.160906 0.329818 1.002512
v 0.351161 0.476355 1.251742
v 0.465743 0.635378 1.310656
v 0.393003 0.835671 1.271842
v 0.212836 0.955760 1.275244
v 0.425203 0.795628 1.444058
v 0.457610 0.706029 1.472352
v -0.041346 1.049423 0.967670
v 0.124507 0.990604 0.964507
v 0.256300 0.921901 0.956664
v 0.398234 0.806745 0.949162
v 0.460806 0.633679 0.942193
v 0.394605 0.453604 0.886322
v 0.204490 0.324645 0.805437
v 0.028023 0.296107 0.792256
v -0.077534 0.365908 0.825862
v -0.188118 0.432277 0.842646
v -0.293047 0.496300 0.872287
v -0.417538 0.564911 0.897985
v -0.485142 0.615586 0.903146
v -0.516359 0.679236 0.922684
v -0.512563 0.767389 0.954137
v -0.458296 0.868991 0.956433
v -0.344122 0.958404 0.954190
v -0.205682 1.036389 0.957389
v 0.458971 0.640185 0.630041
v 0.429694 0.427293 0.615249
v 0.236508 0.302331 0.609462
v 0.020047 0.238276 0.639128
v -0.091844 0.292570 0.619652
v -0.206158 0.351744 0.607519
v -0.326564 0.424693 0.617699
v -0.467440 0.505940 0.619851
v -0.555110 0.569163 0.619139
v -0.603363 0.666008 0.632276
v -0.579709 0.786692 0.651769
v -0.473247 0.888777 0.658164
v -0.330567 0.966250 0.655801
v -0.188619 1.033656 0.649444
v -0.030912 1.037276 0.655111
v 0.130417 0.977950 0.658095
v 0.256417 0.891025 0.653162
v 0.366807 0.777769 0.644429
v 0.138767 0.966982 -0.224774
v 0.266027 0.900543 -0.163595
v 0.353602 0.831749 -0.164039
v 0.369815 0.710579 -0.164447
v 0.340033 0.574087 -0.146283
v 0.219346 0.420163 -0.147511
v 0.074676 0.347837 -0.159547
v -0.049831 0.297156 -0.183583
v -0.203010 0.324352 -0.196308
v -0.336287 0.400034 -0.192209
v -0.464844 0.478385 -0.196037
v -0.570124 0.587588 -0.206539
v -0.596622 0.681716 -0.207804
v -0.585307 0.800490 -0.208940
v -0.486295 0.896907 -0.208104
v -0.325310 0.978725 -0.199977
v -0.194143 1.020742 -0.200864
v -0.033339 1.021113 -0.202862
v -0.340906 0.983929 0.081163
v -0.202749 1.032207 0.076761
v -0.036212 1.023942 0.078882
v 0.115689 0.961931 0.078994
v 0.240320 0.884194 0.094422
v 0.334752 0.788120 0.092742
v 0.395501 0.663998 0.081308
v 0.379053 0.508683 0.088378
v 0.256685 0.313622 0.100549
v 0.088581 0.212658 0.122778
v -0.093185 0.158650 0.107947
v -0.239257 0.225463 0.082019
v -0.394624 0.309213 0.057521
v -0.540931 0.393750 0.043801
v -0.631402 0.541992 0.036831
v -0.665287 0.659260 0.041517
v -0.629942 0.803950 0.061580
v -0.497112 0.896933 0.078300
v 0.049332 0.995267 1.556291
v -0.096082 1.050672 1.588131
v -0.264616 1.022823 1.563823
v -0.405753 0.953356 1.531269
v -0.515099 0.887955 1.533866
v -0.594465 0.785793 1.546626
v -0.604508 0.645960 1.467613
v -0.554372 0.521370 1.424891
v -0.462996 0.458629 1.401756
v -0.357634 0.434604 1.343730
v -0.249004 0.408577 1.265334
v -0.116534 0.363501 1.184202
v 0.013346 0.325711 1.099056
v 0.136438 0.327901 1.126445
v 0.245241 0.475708 1.385892
v 0.316784 0.568053 1.566278
v 0.435960 0.707780 1.623366
v 0.407250 0.806793 1.596809
v 0.327110 0.893240 1.488811
v 0.171457 0.952204 1.487888
vt 0.573790 0.770976
vt 0.773376 0.676187
vt 0.836430 0.685072
vt 0.596370 0.790840
vt 0.567872 0.728347
vt 0.776567 0.647471
vt 0.577023 0.678439
vt 0.785585 0.617545
vt 0.614585 0.635464
vt 0.809655 0.610782
vt 0.659909 0.641993
vt 0.827772 0.632363
vt 0.531039 0.658637
vt 0.056917 0.704472
vt 0.839627 0.648930
vt 0.047098 0.747751
vt 0.778109 0.712996
vt 0.739265 0.657093
vt 0.733826 0.688267
vt 0.710516 0.728125
vt 0.876537 0.576113
vt 0.849417 0.532638
vt 0.802236 0.522923
vt 0.761115 0.557572
vt 0.744946 0.609354
vt 0.823811 0.662853
vt 0.713177 0.640930
vt 0.703749 0.681825
vt 0.660437 0.737156
vt 0.900862 0.514324
vt 0.863793 0.450162
vt 0.796931 0.449636
vt 0.741901 0.506197
vt 0.720207 0.576787
vt 0.755927 0.691349
vt 0.758963 0.666993
vt 0.762724 0.630033
vt 0.774726 0.590833
vt 0.805928 0.571275
vt 0.836393 0.587154
vt 0.854787 0.616843
vt 0.747052 0.723410
vt 0.568930 0.924428
vt 0.090185 0.945106
vt 0.282755 0.986911
vt 0.524515 0.719688
vt 0.526714 0.763626
vt 0.311943 0.975233
vt 0.216112 0.109332
vt 0.675226 0.153579
vt 0.617492 0.168471
vt 0.515631 0.143641
vt 0.416223 0.151758
vt 0.356952 0.164517
vt 0.224487 0.243742
vt 0.300031 0.181406
vt 0.443870 0.154155
vt 0.294793 0.099509
vt 0.278960 0.199293
vt 0.163570 0.260521
vt 0.116588 0.140965
vt 0.580838 0.170161
vt 0.650644 0.158392
vt 0.137909 0.060561
vt 0.215301 0.055496
vt 0.288646 0.065109
vt 0.389379 0.146186
vt 0.132403 0.195599
vt 0.220929 0.163200
vt 0.296688 0.138507
vt 0.324456 0.173995
vt 0.353830 0.901753
vt 0.411164 0.753997
vt 0.413885 0.709134
vt 0.416036 0.652210
vt 0.459403 0.652096
vt 0.458382 0.712280
vt 0.459407 0.757394
vt 0.438867 0.901170
vt 0.130464 0.742682
vt 0.141085 0.895833
vt 0.131658 0.700219
vt 0.130644 0.642360
vt 0.166627 0.741182
vt 0.178002 0.870928
vt 0.364126 0.833306
vt 0.362418 0.741642
vt 0.322803 0.799644
vt 0.306958 0.730572
vt 0.284177 0.816480
vt 0.264993 0.732843
vt 0.211144 0.828217
vt 0.204757 0.744199
vt 0.255842 0.904237
vt 0.316976 0.867972
vt 0.217378 0.929155
vt 0.575111 0.887686
vt 0.660360 0.924813
vt 0.140226 0.856739
vt 0.174274 0.824975
vt 0.206589 0.796690
vt 0.278360 0.781224
vt 0.320177 0.785530
vt 0.363321 0.808159
vt 0.404973 0.851286
vt 0.444531 0.862361
vt 0.505717 0.869401
vt 0.544127 0.871974
vt 0.340153 0.734221
vt 0.343696 0.796344
vt 0.337377 0.828236
vt 0.300435 0.844221
vt 0.234570 0.876108
vt 0.193558 0.905111
vt 0.116485 0.922860
vt 0.107005 0.879353
vt 0.094947 0.752305
vt 0.095486 0.702709
vt 0.090678 0.649063
vt 0.382882 0.746234
vt 0.381182 0.827735
vt 0.348640 0.870520
vt 0.329116 0.897368
vt 0.279640 0.934410
vt 0.242428 0.956842
vt 0.600411 0.958183
vt 0.617764 0.904594
vt 0.623048 0.780579
vt 0.680028 0.711323
vt 0.720848 0.707590
vt 0.751282 0.707872
vt 0.843249 0.675790
vt 0.832392 0.655409
vt 0.818916 0.622153
vt 0.821946 0.579511
vt 0.826907 0.527773
vt 0.830629 0.450068
vt 0.638911 0.637985
vt 0.230873 0.740104
vt 0.236549 0.784223
vt 0.247438 0.829257
vt 0.263834 0.859859
vt 0.283204 0.889504
vt 0.303047 0.917785
vt 0.467381 0.906053
vt 0.474323 0.865485
vt 0.491924 0.760387
vt 0.489964 0.715744
vt 0.491783 0.654470
vt 0.167491 0.703060
vt 0.201013 0.704090
vt 0.229145 0.703384
vt 0.264678 0.699071
vt 0.303404 0.695175
vt 0.385659 0.707591
vt 0.336433 0.698990
vt 0.358483 0.703017
vt 0.382035 0.648554
vt 0.353764 0.647280
vt 0.330930 0.645166
vt 0.296706 0.645087
vt 0.261544 0.644737
vt 0.227295 0.645034
vt 0.197669 0.644199
vt 0.167422 0.645086
vt 0.534772 0.455698
vt 0.571306 0.456513
vt 0.605822 0.457093
vt 0.640103 0.459536
vt 0.677341 0.464500
vt 0.078358 0.464195
vt 0.130952 0.450321
vt 0.184972 0.425039
vt 0.211133 0.448107
vt 0.238072 0.457615
vt 0.273104 0.457854
vt 0.307761 0.465993
vt 0.334203 0.471053
vt 0.361570 0.469777
vt 0.389982 0.460648
vt 0.426061 0.452176
vt 0.463740 0.452750
vt 0.497639 0.455624
vt 0.181239 0.015022
vt 0.480280 0.147552
vt 0.256599 0.221482
vt 0.192394 0.266090
vt 0.253526 0.060285
vt 0.253694 0.104852
vt 0.255067 0.147631
vt 0.185095 0.175653
vt 0.176527 0.113834
vt 0.178303 0.057212
vt 0.054471 0.827588
vt 0.619628 0.847204
vt 0.584840 0.841264
vt 0.556801 0.824462
vt 0.515858 0.819535
vt 0.482734 0.815837
vt 0.451853 0.812801
vt 0.408053 0.805264
vt 0.382027 0.789239
vt 0.362692 0.778369
vt 0.341846 0.771586
vt 0.315286 0.766654
vt 0.269645 0.757701
vt 0.232811 0.763501
vt 0.205593 0.770482
vt 0.164269 0.775568
vt 0.127777 0.789241
vt 0.101498 0.817652
vt 0.561172 0.233674
vt 0.526909 0.227331
vt 0.482401 0.230903
vt 0.445905 0.233925
vt 0.414918 0.231459
vt 0.384452 0.228258
vt 0.355834 0.240078
vt 0.330633 0.246279
vt 0.309023 0.250804
vt 0.281591 0.263054
vt 0.254161 0.276880
vt 0.220989 0.290532
vt 0.188110 0.307881
vt 0.155520 0.304568
vt 0.100084 0.247234
vt 0.056881 0.228897
vt 0.641413 0.248311
vt 0.591707 0.246412
vt 0.675463 0.203448
vt 0.653721 0.209413
vt 0.526955 0.315396
vt 0.568140 0.317141
vt 0.602567 0.319635
vt 0.644581 0.322207
vt 0.047768 0.314127
vt 0.090413 0.331106
vt 0.144047 0.349463
vt 0.187254 0.352775
vt 0.217898 0.341794
vt 0.250089 0.336581
vt 0.281215 0.329933
vt 0.317922 0.325457
vt 0.340225 0.325036
vt 0.359166 0.321456
vt 0.382647 0.315034
vt 0.412569 0.315083
vt 0.449048 0.316386
vt 0.487740 0.316511
vt 0.681261 0.397872
vt 0.083115 0.394172
vt 0.134738 0.394928
vt 0.186445 0.389324
vt 0.215285 0.389992
vt 0.244482 0.390932
vt 0.276308 0.389131
vt 0.313239 0.390753
vt 0.337348 0.394161
vt 0.361690 0.393042
vt 0.388940 0.388174
vt 0.422034 0.384838
vt 0.459399 0.385779
vt 0.495799 0.387957
vt 0.532140 0.387561
vt 0.571741 0.387990
vt 0.606983 0.390009
vt 0.643378 0.392974
vt 0.570667 0.597971
vt 0.605262 0.584875
vt 0.631414 0.585085
vt 0.659186 0.580753
vt 0.085199 0.583407
vt 0.128425 0.575454
vt 0.165373 0.575490
vt 0.196055 0.576935
vt 0.231043 0.580240
vt 0.265681 0.581418
vt 0.300423 0.580936
vt 0.335698 0.582519
vt 0.358554 0.583254
vt 0.386417 0.584350
vt 0.418465 0.586175
vt 0.460507 0.586319
vt 0.492319 0.588058
vt 0.529379 0.590576
vt 0.464286 0.521187
vt 0.496263 0.523125
vt 0.533546 0.524033
vt 0.570775 0.525511
vt 0.604407 0.522722
vt 0.635317 0.523036
vt 0.044044 0.534048
vt 0.077140 0.523522
vt 0.125497 0.512953
vt 0.165235 0.505151
vt 0.203385 0.506448
vt 0.234351 0.514349
vt 0.268828 0.520772
vt 0.302275 0.523423
vt 0.336627 0.526481
vt 0.361185 0.525764
vt 0.391952 0.522916
vt 0.426070 0.520739
vt 0.555219 0.180829
vt 0.519858 0.173388
vt 0.480871 0.176847
vt 0.444896 0.182283
vt 0.416418 0.179809
vt 0.387868 0.174931
vt 0.356004 0.190834
vt 0.326450 0.199585
vt 0.302427 0.206124
vt 0.280352 0.222101
vt 0.256416 0.241603
vt 0.223868 0.260856
vt 0.191252 0.281009
vt 0.160963 0.275956
vt 0.120820 0.213763
vt 0.717132 0.174661
vt 0.673543 0.169031
vt 0.650258 0.174409
vt 0.622450 0.198083
vt 0.584455 0.197055
vt 0.198932 0.250688
vt 0.170699 0.246112
vt 0.226644 0.220784
vt 0.260293 0.194884
vt 0.292931 0.020018
vt 0.255270 0.008248
vt 0.217679 0.005295
vt 0.550741 0.152081
vt 0.334022 0.139361
vt 0.316762 0.161466
vt 0.144986 0.173889
vt 0.125295 0.117557
vt 0.333194 0.064651
vt 0.344835 0.103595
vt 0.084926 0.056417
vt 0.107045 0.027033
vt 0.144777 0.014867
vt 0.080361 0.081633
vt 0.289655 0.175555
vt 0.318573 0.037794
vt 0.333765 0.959887
vt 0.347162 0.938574
vt 0.245718 0.813853
vt 0.218291 0.844119
vt 0.217563 0.975862
vt 0.251309 0.994705
vt 0.377819 0.857272
vt 0.344702 0.845879
vt 0.166859 0.932761
vt 0.185219 0.956662
vt 0.351467 0.815745
vt 0.314434 0.811749
vt 0.172938 0.865498
vt 0.288124 0.803181
vt 0.402922 0.880048
vt 0.157045 0.902827
vt 0.497990 0.908310
vt 0.534332 0.909059
vt 0.838832 0.363958
vt 0.879096 0.360207
vt 0.815297 0.627141
vt 0.801599 0.622243
vt 0.776979 0.702941
vt 0.847547 0.666113
vt 0.632704 0.717010
vt 0.663234 0.675094
vt 0.877067 0.650151
vt 0.928752 0.571452
vt 0.900810 0.618624
vt 0.774193 0.691922
vt 0.966736 0.524080
vt 0.602145 0.755095
vt 0.925462 0.446644
vt 0.791323 0.369952
vt 0.721486 0.450677
vt 0.784161 0.642004
vt 0.796266 0.672742
vt 0.693447 0.540146
vt 0.682625 0.621407
vt 0.821106 0.689425
vt 0.095923 0.170881
vt 0.726399 0.139422
vt 0.667187 0.524184
vt 0.056270 0.595797
vt 0.054544 0.655950
vt 0.035105 0.389053
vt 0.686768 0.326100
vt 0.690982 0.241098
vt 0.033264 0.464395
vt 0.657100 0.851114
vt 0.076889 0.897822
vt 0.642043 0.970332
vt 0.646821 0.770305
vn -0.046721 0.972525 -0.228063
vn -0.652511 0.419046 -0.631372
vn -0.047804 -0.162501 -0.985550
vn 0.636272 0.704856 -0.313585
vn -0.175100 0.983530 0.044827
vn -0.615397 0.788147 0.010526
vn -0.231862 0.909369 0.345380
vn 0.047759 0.976209 0.211506
vn 0.408959 0.840615 0.355133
vn 0.230101 0.841179 0.489358
vn 0.951518 -0.300104 0.067455
vn 0.981790 -0.165722 0.092870
vn 0.836739 0.370687 0.403062
vn 0.895352 0.295843 0.332900
vn 0.291197 0.945447 0.146061
vn 0.501389 0.843318 0.193455
vn 0.133579 0.990220 0.040276
vn 0.039447 0.995846 0.082066
vn 0.857206 0.472664 0.204419
vn 0.995687 -0.091219 0.016960
vn 0.763815 -0.636776 -0.105366
vn 0.839458 -0.493544 -0.227431
vn 0.591571 -0.717865 -0.367035
vn 0.526886 -0.811453 -0.252854
vn 0.933397 -0.358407 0.017751
vn 0.949650 -0.304305 -0.074588
vn 0.989639 -0.062605 0.129212
vn 0.844885 -0.404906 -0.349600
vn 0.902837 0.423569 -0.073994
vn 0.582044 -0.385357 -0.716048
vn -0.029637 -0.059892 -0.997765
vn -0.544543 0.513822 -0.662918
vn -0.166400 0.838516 -0.518847
vn 0.164102 0.646847 -0.744754
vn 0.802254 -0.343074 -0.488558
vn 0.410295 -0.307946 -0.858387
vn 0.554396 0.389238 -0.735621
vn 0.862972 0.118581 -0.491139
vn 0.988791 -0.121683 -0.086521
vn 0.950103 0.265468 -0.163803
vn 0.935969 0.192415 0.294854
vn 0.787544 0.550357 0.277277
vn 0.462698 0.797192 0.387809
vn 0.647051 0.607194 0.461129
vn -0.158918 0.907183 0.389569
vn 0.180309 0.858241 0.480533
vn 0.173923 0.900032 0.399616
vn -0.037456 0.944827 0.325422
vn -0.163508 0.985645 0.042069
vn -0.526508 0.850170 0.000432
vn 0.136093 0.989546 0.047726
vn 0.395238 0.918202 0.026314
vn -0.707883 0.275593 -0.650346
vn -0.195717 -0.306164 -0.931643
vn 0.242144 -0.556752 -0.794602
vn 0.697746 -0.559278 -0.447615
vn 0.916031 -0.384657 -0.113696
vn 0.981153 -0.077191 0.177143
vn 0.774684 0.458487 0.435494
vn 0.165048 0.852953 0.495208
vn -0.259252 0.888541 0.378527
vn -0.666174 0.745764 -0.006921
vn 0.838325 -0.439501 0.322568
vn 0.746450 -0.660988 0.076852
vn 0.453113 -0.888149 0.076678
vn 0.423803 -0.820753 0.383087
vn 0.354298 0.130130 -0.926034
vn 0.868004 0.399147 -0.295383
vn 0.964440 -0.005135 -0.264252
vn 0.328225 -0.273815 -0.904043
vn 0.313133 0.946993 -0.071773
vn 0.623941 0.754898 -0.202057
vn 0.414616 0.597375 -0.686467
vn 0.114493 0.628851 -0.769050
vn 0.231576 -0.906879 -0.352056
vn 0.225058 -0.674375 -0.703255
vn 0.910620 -0.412111 0.030595
vn 0.522732 -0.800841 0.292241
vn -0.041603 0.998502 0.035524
vn -0.009957 0.997937 -0.063419
vn 0.045115 0.532407 -0.845285
vn 0.153380 0.987927 -0.021773
vn -0.000851 -0.723437 0.690390
vn -0.284652 -0.674742 0.680952
vn -0.029845 -0.170479 0.984909
vn -0.008209 -0.279703 0.960052
vn -0.000003 -0.223495 0.974705
vn 0.250738 -0.656243 0.711671
vn 0.026284 -0.822175 0.568628
vn -0.131317 -0.870992 0.473423
vn -0.199404 -0.783224 0.588896
vn 0.072131 -0.741303 0.667284
vn 0.318932 -0.664401 0.675909
vn 0.204399 -0.808853 0.551342
vn 0.017367 -0.573149 0.819267
vn -0.115035 -0.161001 0.980227
vn -0.658485 -0.037537 0.751657
vn -0.706172 -0.392551 0.589258
vn -0.223342 -0.868059 0.443387
vn 0.230612 -0.835451 0.498839
vn 0.187961 -0.614054 0.766556
vn -0.533166 -0.643981 0.548655
vn 0.429659 0.310180 0.848046
vn 0.040037 0.102588 0.993918
vn -0.097913 -0.631503 0.769166
vn 0.416524 -0.338161 0.843893
vn 0.324966 0.818030 0.474578
vn 0.355449 0.826832 0.435895
vn 0.312475 0.640499 0.701513
vn 0.015475 0.613826 0.789290
vn -0.261043 0.632500 0.729246
vn -0.399024 0.674132 0.621551
vn -0.558107 0.607120 0.565617
vn -0.765614 0.358003 -0.534481
vn -0.697289 0.710713 -0.093138
vn -0.487508 0.872782 -0.024247
vn -0.351471 0.391972 -0.850192
vn -0.567507 0.819146 -0.083281
vn -0.335577 0.940990 -0.043898
vn -0.390397 0.916257 -0.089799
vn -0.584898 0.797400 -0.148484
vn -0.566407 0.824011 0.013786
vn -0.334647 0.942043 0.023814
vn -0.561532 0.827356 -0.012818
vn -0.380799 0.924655 -0.002445
vn -0.110524 0.993558 0.025022
vn -0.131876 0.991228 -0.008676
vn -0.109543 0.993871 0.014835
vn -0.116343 0.992775 -0.029377
vn -0.084472 0.484241 -0.870847
vn -0.138315 0.990388 0.000844
vn 0.206200 -0.941629 0.266113
vn -0.337050 -0.873299 -0.351777
vn -0.754901 -0.472398 -0.454934
vn -0.983725 0.032239 -0.176767
vn -0.891454 0.421992 -0.165024
vn -0.806358 -0.208200 -0.553569
vn -0.569046 -0.731760 -0.375118
vn -0.631440 -0.741202 -0.227824
vn -0.883155 -0.418883 -0.211129
vn -0.675453 -0.614647 -0.407396
vn -0.348760 -0.811278 -0.469249
vn -0.448286 -0.849451 -0.278339
vn -0.367960 -0.886099 -0.281841
vn -0.303956 -0.771037 -0.559565
vn -0.450107 -0.728898 -0.515859
vn -0.028094 -0.999505 0.014181
vn -0.065479 -0.732152 -0.677987
vn 0.002007 -0.461087 -0.887353
vn -0.191696 -0.340018 -0.920674
vn -0.387546 -0.613324 -0.688217
vn -0.183941 -0.729645 -0.658623
vn -0.493415 -0.570303 -0.656731
vn -0.278610 -0.770305 -0.573591
vn -0.203278 -0.483444 -0.851446
vn -0.257567 -0.736857 -0.625060
vn -0.568579 -0.523239 -0.634775
vn -0.373042 -0.205417 -0.904789
vn -0.545557 -0.488849 -0.680731
vn 0.992996 0.073432 0.092561
vn 0.854086 0.516342 -0.062675
vn 0.466483 -0.780127 0.416888
vn 0.866575 -0.415720 0.276090
vn 0.381327 -0.825376 0.416346
vn 0.378434 -0.821877 0.425799
vn 0.214361 -0.920100 0.327819
vn 0.314049 -0.860227 0.401724
vn -0.080180 -0.973095 0.216004
vn -0.279819 -0.960051 0.001758
vn -0.648584 -0.740389 -0.176531
vn -0.478309 -0.867059 -0.139388
vn -0.417969 -0.908431 0.007417
vn -0.635099 -0.767135 -0.090297
vn -0.868010 -0.475591 -0.142729
vn -0.882556 -0.427074 -0.196731
vn -0.855087 0.475437 -0.206849
vn -0.859705 0.489686 -0.145307
vn -0.979727 0.016641 -0.199643
vn -0.979492 0.000286 -0.201484
vn -0.445793 0.894252 -0.039775
vn -0.625058 0.776695 -0.077765
vn 0.082349 0.994395 -0.066319
vn -0.133921 0.990744 -0.022168
vn 0.228541 0.963342 -0.140506
vn 0.603258 0.788432 -0.120225
vn 0.417956 -0.902068 0.107638
vn 0.330617 -0.929724 0.162192
vn -0.039651 -0.978874 0.200582
vn -0.357127 -0.917640 0.174349
vn -0.584725 -0.802491 0.118764
vn -0.887631 0.450916 -0.093737
vn -0.829580 -0.557808 0.025463
vn -0.995768 -0.076196 -0.051387
vn -0.910903 0.411646 -0.028332
vn -0.987228 -0.145511 -0.064871
vn -0.770344 -0.631509 -0.088130
vn -0.527891 -0.845163 -0.083853
vn -0.873503 0.476436 -0.100009
vn -0.388392 -0.912820 -0.126142
vn -0.191147 -0.954085 -0.230618
vn 0.231047 -0.924474 -0.303256
vn 0.432301 -0.854948 -0.286672
vn -0.976389 -0.077887 -0.201490
vn -0.786424 -0.539967 -0.299956
vn -0.548693 -0.751208 -0.366909
vn -0.418790 -0.814813 -0.400868
vn -0.298386 -0.855034 -0.424125
vn 0.403173 -0.817337 -0.411596
vn 0.114372 -0.893204 -0.434863
vn 0.381866 0.915009 0.130146
vn 0.076360 0.992617 0.094238
vn -0.294783 0.955268 0.023787
vn -0.477100 0.878803 -0.008966
vn -0.673373 0.739303 0.000073
vn -0.938736 0.344329 0.014590
vn -0.986310 -0.146606 -0.075489
vn -0.815550 -0.550917 -0.177111
vn -0.491143 -0.841513 -0.225021
vn -0.335744 -0.924036 -0.182849
vn -0.330416 -0.938766 -0.097691
vn -0.357009 -0.929286 -0.094720
vn -0.223083 -0.970275 -0.093814
vn 0.354493 -0.917010 0.182834
vn 0.015859 -0.883155 0.468814
vn 0.398024 0.915264 0.062195
vn -0.125640 -0.864815 0.486116
vn 0.178548 0.983443 -0.030988
vn 0.451800 0.890337 -0.056369
vn 0.480250 0.876563 -0.031573
vn 0.210907 0.977256 -0.022126
vn -0.224569 0.974423 -0.008282
vn -0.180039 0.983652 0.003851
vn -0.479437 0.877405 0.017339
vn -0.450513 0.892308 0.028701
vn -0.610592 0.789190 0.066010
vn -0.551923 0.832581 0.046793
vn -0.860320 0.482761 0.163679
vn -0.826012 0.556932 0.086783
vn -0.960391 -0.118829 0.252051
vn -0.993801 -0.053528 0.097434
vn -0.776438 -0.554672 0.299136
vn -0.867400 -0.483113 0.119244
vn -0.544511 -0.762677 0.349043
vn -0.639432 -0.745936 0.186294
vn -0.456546 -0.807542 0.373419
vn -0.484058 -0.843045 0.234442
vn -0.449364 -0.802756 0.391988
vn -0.452207 -0.869620 0.198166
vn -0.440346 -0.810317 0.386630
vn -0.179834 -0.970697 0.159395
vn 0.039415 -0.945414 0.323481
vn 0.171683 -0.970553 0.168974
vn 0.488821 -0.855643 0.170085
vn 0.550615 -0.834495 -0.021016
vn 0.848153 -0.525888 0.063860
vn 0.886536 -0.450045 -0.107300
vn 0.987253 0.156661 -0.028086
vn 0.972879 0.213867 -0.088127
vn 0.777559 0.622145 -0.091310
vn 0.765650 0.641680 -0.045028
vn 0.623376 0.776307 -0.093540
vn 0.647947 0.760913 -0.034300
vn 0.504216 -0.812140 0.293588
vn 0.534877 0.844335 0.031700
vn 0.552282 -0.766002 0.328977
vn 0.963802 -0.233150 0.129334
vn 0.969314 -0.229132 0.089042
vn 0.777715 0.628129 -0.024745
vn 0.861864 0.507070 -0.008416
vn 0.812688 0.571045 0.115959
vn 0.843662 -0.433847 0.316247
vn 0.106431 0.994150 0.018410
vn 0.373354 0.927150 0.031623
vn 0.397435 0.917309 -0.024266
vn 0.128444 0.991562 -0.017518
vn 0.479145 0.877723 -0.004768
vn 0.557415 0.828569 -0.052548
vn 0.806850 0.588423 -0.052446
vn 0.999574 -0.024122 0.016462
vn 0.685645 -0.709434 0.163077
vn 0.763151 -0.637568 0.105393
vn 0.400421 -0.902125 0.160727
vn 0.382260 -0.915648 0.124361
vn -0.098199 -0.968908 0.227098
vn -0.191629 -0.979412 0.063477
vn -0.434209 -0.880242 0.191405
vn -0.417248 -0.906861 -0.059225
vn -0.452536 -0.880347 0.142126
vn -0.435362 -0.891727 -0.123622
vn -0.470851 -0.878002 0.086086
vn -0.449112 -0.876196 -0.174870
vn -0.525503 -0.849247 0.051242
vn -0.523112 -0.824856 -0.214398
vn -0.775006 -0.595917 -0.210355
vn -0.755711 -0.651375 0.067904
vn -0.979294 -0.196600 0.048299
vn -0.970083 -0.168522 -0.174755
vn -0.935350 0.330285 -0.126621
vn -0.937195 0.348330 -0.018213
vn -0.682902 0.730188 -0.021703
vn -0.682513 0.725155 -0.091248
vn -0.499988 0.864633 -0.049221
vn -0.508555 0.860684 -0.024392
vn -0.272921 0.961753 -0.023341
vn -0.294460 0.955499 -0.017772
vn 0.438806 0.898148 0.027930
vn 0.606064 0.792119 0.072349
vn 0.809050 0.585484 0.051450
vn 0.982990 0.152662 -0.102100
vn 0.883410 -0.398285 -0.246892
vn 0.602051 -0.754020 -0.262656
vn 0.344978 -0.915527 -0.206882
vn -0.007095 -0.978099 -0.208020
vn -0.384493 -0.897948 -0.214137
vn -0.470546 -0.858475 -0.203978
vn -0.640862 -0.737126 -0.214341
vn -0.869178 -0.450403 -0.204124
vn -0.989794 -0.001658 -0.142499
vn -0.813287 0.579272 -0.054843
vn -0.539430 0.842023 0.003453
vn -0.424305 0.905519 -0.000383
vn -0.148045 0.988856 -0.015718
vn 0.205145 0.978711 -0.006349
s 1
g Trunk_Snow_LOW Trunk_Group
f 1/382/1 27/27/2 28/28/3 4/369/4
f 6/381/5 34/34/6 27/27/2 1/382/1
f 33/33/7 34/34/6 6/381/5 7/378/8
f 10/377/9 32/32/10 33/33/7 7/378/8
f 12/363/11 31/31/12 137/137/13 138/362/14
f 7/7/8 268/268/15 269/269/16 10/9/9
f 285/285/17 268/268/15 7/7/8 13/13/18
f 138/138/14 270/270/19 271/271/20 12/11/11
f 119/119/21 272/272/22 273/273/23 83/83/24
f 15/376/25 30/30/26 31/31/12 12/363/11
f 17/374/27 29/371/28 30/30/26 15/376/25
f 17/375/27 128/368/29 129/129/30 29/29/28
f 35/35/31 36/36/32 2/2/33 3/373/34
f 42/42/35 131/131/36 132/366/37 16/17/38
f 41/41/39 42/370/35 16/367/38 14/15/40
f 40/40/41 41/41/39 14/15/40 11/12/42
f 134/134/43 135/135/44 40/40/41 11/12/42
f 38/38/45 39/39/46 9/10/47 8/8/48
f 5/6/49 37/37/50 38/38/45 8/8/48
f 36/36/32 37/37/50 5/6/49 2/2/33
f 2/383/33 5/380/49 26/26/51 3/3/34
f 9/365/47 26/26/51 5/380/49 8/379/48
f 11/12/42 14/15/40 133/133/52 134/364/43
f 132/132/37 133/133/52 14/15/40 16/367/38
f 28/28/3 27/27/2 18/18/53 19/19/54
f 29/29/28 129/129/30 130/130/55 20/20/56
f 30/30/26 29/371/28 20/372/56 21/21/57
f 31/31/12 30/30/26 21/21/57 22/22/58
f 136/136/59 137/137/13 31/31/12 22/22/58
f 33/33/7 32/32/10 23/23/60 24/24/61
f 24/24/61 25/25/62 34/34/6 33/33/7
f 27/27/2 34/34/6 25/25/62 18/18/53
f 19/19/54 18/18/53 36/36/32 35/35/31
f 18/18/53 25/25/62 37/37/50 36/36/32
f 38/38/45 37/37/50 25/25/62 24/24/61
f 24/24/61 23/23/60 39/39/46 38/38/45
f 135/135/44 136/136/59 22/22/58 40/40/41
f 22/22/58 21/21/57 41/41/39 40/40/41
f 21/21/57 20/372/56 42/370/35 41/41/39
f 20/20/56 130/130/55 131/131/36 42/42/35
f 117/117/63 118/118/64 82/82/65 81/80/66
f 118/118/64 119/119/21 83/83/24 82/82/65
f 126/126/67 127/127/68 98/98/69 43/395/70
f 108/108/71 97/97/72 44/43/73 45/361/74
f 80/81/75 115/115/76 116/116/77 99/99/78
f 13/13/18 7/7/8 6/5/5 46/46/79
f 1/1/1 47/47/80 46/46/79 6/5/5
f 48/360/81 107/107/82 108/108/71 45/361/74
f 52/49/83 192/192/84 193/193/85 65/65/86
f 65/65/86 188/188/87 189/189/88 52/49/83
f 55/326/89 187/324/90 191/191/91 69/69/92
f 69/69/92 190/190/93 186/327/94 55/326/89
f 58/58/95 66/66/96 67/336/97 54/337/98
f 56/333/99 59/342/100 70/70/101 71/332/102
f 63/338/103 64/64/104 61/335/105 49/341/106
f 62/340/107 64/64/104 63/338/103 50/339/108
f 65/65/86 193/193/85 184/184/109 51/330/110
f 51/330/110 185/329/111 188/188/87 65/65/86
f 67/336/97 66/66/96 57/328/112 53/343/113
f 69/69/92 191/191/91 192/192/84 52/49/83
f 189/189/88 190/190/93 69/69/92 52/49/83
f 71/332/102 70/70/101 58/58/95 54/337/98
f 73/358/114 105/105/115 106/106/116 79/79/117
f 74/74/118 77/77/119 78/78/120 72/73/121
f 75/75/122 76/76/123 77/77/119 74/74/118
f 75/75/122 282/282/124 283/283/125 76/76/123
f 149/149/126 284/284/127 285/285/17 13/13/18
f 148/148/128 149/149/126 13/13/18 46/46/79
f 147/147/129 148/148/128 46/46/79 47/47/80
f 145/145/130 146/146/131 107/107/82 48/360/81
f 99/99/78 100/100/132 84/356/133 80/81/75
f 87/86/134 104/104/135 121/121/136 122/350/137
f 89/88/138 103/103/139 110/110/140 111/354/141
f 91/357/142 102/102/143 103/103/139 89/88/138
f 140/140/144 141/346/145 92/92/146 101/101/147
f 92/92/146 84/356/133 100/100/132 101/101/147
f 143/143/148 144/144/149 124/124/150 94/94/151
f 141/141/145 142/142/152 113/113/153 92/347/146
f 91/90/142 89/355/138 111/111/141 112/112/154
f 87/351/134 122/122/137 123/123/155 95/95/156
f 92/347/146 113/113/153 114/114/157 84/85/133
f 94/94/151 124/124/150 125/125/158 96/96/159
f 114/114/157 115/352/76 80/359/75 84/85/133
f 125/125/158 126/348/67 43/353/70 96/96/159
f 194/393/160 195/195/161 128/128/29 17/396/27
f 210/210/162 211/211/163 117/117/63 81/80/66
f 85/84/164 209/209/165 210/210/162 81/80/66
f 208/208/166 209/209/165 85/84/164 93/93/167
f 139/139/168 207/207/169 208/208/166 93/93/167
f 205/205/170 206/206/171 90/91/172 88/89/173
f 109/109/174 204/204/175 205/205/170 88/89/173
f 120/120/176 202/202/177 203/203/178 86/87/179
f 200/200/180 201/201/181 72/73/121 78/78/120
f 198/198/182 199/199/183 147/147/129 47/47/80
f 197/197/184 198/198/182 47/47/80 1/1/1
f 4/4/4 196/196/185 197/197/184 1/1/1
f 203/203/178 204/204/175 109/109/174 86/87/179
f 111/354/141 110/110/140 104/104/135 87/86/134
f 112/112/154 111/111/141 87/351/134 95/95/156
f 142/142/152 143/143/148 94/94/151 113/113/153
f 114/114/157 113/113/153 94/94/151 96/96/159
f 43/353/70 115/352/76 114/114/157 96/96/159
f 116/116/77 115/115/76 43/44/70 98/394/69
f 117/117/63 211/211/163 194/194/160 17/16/27
f 17/16/27 15/14/25 118/118/64 117/117/63
f 15/14/25 12/388/11 119/119/21 118/118/64
f 12/388/11 271/387/20 272/272/22 119/119/21
f 201/201/181 202/202/177 120/120/176 72/73/121
f 122/350/137 121/121/136 105/105/115 73/358/114
f 123/123/155 122/122/137 73/72/114 79/345/117
f 144/144/149 145/344/130 48/48/81 124/124/150
f 125/125/158 124/124/150 48/48/81 45/45/74
f 44/349/73 126/348/67 125/125/158 45/45/74
f 44/43/73 97/97/72 127/127/68 126/126/67
f 128/128/29 195/195/161 196/196/185 4/4/4
f 129/129/30 128/368/29 4/369/4 28/28/3
f 130/130/55 129/129/30 28/28/3 19/19/54
f 131/131/36 130/130/55 19/19/54 35/35/31
f 132/366/37 131/131/36 35/35/31 3/373/34
f 3/3/34 26/26/51 133/133/52 132/132/37
f 134/364/43 133/133/52 26/26/51 9/365/47
f 39/39/46 135/135/44 134/134/43 9/10/47
f 23/23/60 136/136/59 135/135/44 39/39/46
f 32/32/10 137/137/13 136/136/59 23/23/60
f 138/362/14 137/137/13 32/32/10 10/377/9
f 10/9/9 269/269/16 270/270/19 138/138/14
f 206/206/171 207/207/169 139/139/168 90/91/172
f 91/357/142 141/346/145 140/140/144 102/102/143
f 112/112/154 142/142/152 141/141/145 91/90/142
f 95/95/156 143/143/148 142/142/152 112/112/154
f 123/123/155 144/144/149 143/143/148 95/95/156
f 79/345/117 145/344/130 144/144/149 123/123/155
f 79/79/117 106/106/116 146/146/131 145/145/130
f 147/147/129 199/199/183 200/200/180 78/78/120
f 78/78/120 77/77/119 148/148/128 147/147/129
f 77/77/119 76/76/123 149/149/126 148/148/128
f 76/76/123 283/283/125 284/284/127 149/149/126
f 150/150/186 85/84/164 81/80/66 82/82/65
f 151/151/187 93/93/167 85/84/164 150/150/186
f 152/152/188 139/139/168 93/93/167 151/151/187
f 139/139/168 152/152/188 153/153/189 90/91/172
f 90/91/172 153/153/189 154/154/190 88/89/173
f 74/74/118 72/73/121 120/120/176 155/155/191
f 156/156/192 109/109/174 88/89/173 154/154/190
f 157/157/193 86/87/179 109/109/174 156/156/192
f 86/87/179 157/157/193 155/155/191 120/120/176
f 75/75/122 74/74/118 155/155/191 158/158/194
f 157/157/193 159/159/195 158/158/194 155/155/191
f 156/156/192 160/160/196 159/159/195 157/157/193
f 161/161/197 160/160/196 156/156/192 154/154/190
f 281/281/198 282/282/124 75/75/122 158/158/194
f 153/153/189 162/162/199 161/161/197 154/154/190
f 152/152/188 163/163/200 162/162/199 153/153/189
f 163/163/200 152/152/188 151/151/187 164/164/201
f 82/82/65 83/83/24 165/165/202 150/150/186
f 164/164/201 151/151/187 150/150/186 165/165/202
f 159/159/195 280/280/203 281/281/198 158/158/194
f 160/160/196 279/279/204 280/280/203 159/159/195
f 161/161/197 278/278/205 279/279/204 160/160/196
f 162/162/199 277/277/206 278/278/205 161/161/197
f 163/163/200 276/276/207 277/277/206 162/162/199
f 83/83/24 273/273/23 274/274/208 165/165/202
f 165/165/202 274/274/208 275/275/209 164/164/201
f 164/164/201 275/275/209 276/276/207 163/163/200
f 184/331/109 304/304/210 305/305/211 51/52/110
f 305/305/211 306/306/212 185/185/111 51/52/110
f 306/306/212 307/307/213 57/57/112 185/185/111
f 57/57/112 307/307/213 308/308/214 53/53/113
f 308/308/214 309/309/215 67/67/97 53/53/113
f 54/54/98 67/67/97 309/309/215 310/310/216
f 310/310/216 311/311/217 71/71/102 54/54/98
f 71/71/102 311/311/217 312/312/218 56/56/99
f 312/312/218 313/313/219 59/59/100 56/56/99
f 313/313/219 314/314/220 186/186/94 59/59/100
f 314/314/220 315/315/221 55/55/89 186/186/94
f 315/315/221 316/316/222 187/187/90 55/55/89
f 316/316/222 317/317/223 60/60/224 187/187/90
f 62/62/107 323/323/225 304/304/210 184/331/109
f 188/188/87 185/329/111 57/328/112 66/66/96
f 189/189/88 188/188/87 66/66/96 58/58/95
f 58/58/95 70/70/101 190/190/93 189/189/88
f 186/327/94 190/190/93 70/70/101 59/342/100
f 191/191/91 187/324/90 60/325/224 68/334/226
f 192/192/84 191/191/91 68/334/226 61/335/105
f 193/193/85 192/192/84 61/335/105 64/64/104
f 184/184/109 193/193/85 64/64/104 62/340/107
f 98/98/69 127/127/68 195/195/161 194/393/160
f 196/196/185 195/195/161 127/127/68 97/97/72
f 197/197/184 196/196/185 97/97/72 108/108/71
f 108/108/71 107/107/82 198/198/182 197/197/184
f 107/107/82 146/146/131 199/199/183 198/198/182
f 200/200/180 199/199/183 146/146/131 106/106/116
f 106/106/116 105/105/115 201/201/181 200/200/180
f 105/105/115 121/121/136 202/202/177 201/201/181
f 203/203/178 202/202/177 121/121/136 104/104/135
f 104/104/135 110/110/140 204/204/175 203/203/178
f 205/205/170 204/204/175 110/110/140 103/103/139
f 103/103/139 102/102/143 206/206/171 205/205/170
f 102/102/143 140/140/144 207/207/169 206/206/171
f 208/208/166 207/207/169 140/140/144 101/101/147
f 101/101/147 100/100/132 209/209/165 208/208/166
f 210/210/162 209/209/165 100/100/132 99/99/78
f 99/99/78 116/116/77 211/211/163 210/210/162
f 194/194/160 211/211/163 116/116/77 98/394/69
f 264/264/227 265/265/228 167/167/229 166/166/230
f 263/263/231 264/264/227 166/166/230 183/183/232
f 262/262/233 263/263/231 183/183/232 182/182/234
f 261/261/235 262/262/233 182/182/234 181/181/236
f 260/260/237 261/261/235 181/181/236 180/180/238
f 259/259/239 260/260/237 180/180/238 179/179/240
f 258/258/241 259/259/239 179/179/240 178/178/242
f 257/257/243 258/258/241 178/178/242 177/177/244
f 256/256/245 257/257/243 177/177/244 176/176/246
f 255/255/247 256/256/245 176/176/246 175/175/248
f 254/254/249 255/255/247 175/175/248 174/174/250
f 253/253/251 254/254/249 174/174/250 173/173/252
f 252/252/253 253/253/251 173/173/252 172/172/254
f 251/251/255 252/252/253 172/172/254 171/171/256
f 250/389/257 251/251/255 171/171/256 170/392/258
f 267/267/259 250/250/257 170/170/258 169/169/260
f 266/266/261 267/267/259 169/169/260 168/168/262
f 167/167/229 265/265/228 266/266/261 168/168/262
f 317/317/223 318/318/263 68/68/226 60/60/224
f 322/322/264 323/323/225 62/62/107 50/51/108
f 68/68/226 318/318/263 319/384/265 61/61/105
f 231/230/266 227/391/267 228/228/268 230/231/269
f 63/63/103 321/321/270 322/322/264 50/51/108
f 49/50/106 320/320/271 321/321/270 63/63/103
f 319/319/265 320/320/271 49/50/106 61/385/105
f 213/213/272 212/212/273 233/233/274 232/232/275
f 212/212/273 229/229/276 234/234/277 233/233/274
f 229/229/276 228/228/268 235/235/278 234/234/277
f 228/228/268 227/391/267 236/390/279 235/235/278
f 227/227/267 226/226/280 237/237/281 236/236/279
f 238/238/282 237/237/281 226/226/280 225/225/283
f 239/239/284 238/238/282 225/225/283 224/224/285
f 240/240/286 239/239/284 224/224/285 223/223/287
f 241/241/288 240/240/286 223/223/287 222/222/289
f 242/242/290 241/241/288 222/222/289 221/221/291
f 243/243/292 242/242/290 221/221/291 220/220/293
f 220/220/293 219/219/294 244/244/295 243/243/292
f 245/245/296 244/244/295 219/219/294 218/218/297
f 218/218/297 217/217/298 246/246/299 245/245/296
f 247/247/300 246/246/299 217/217/298 216/216/301
f 216/216/301 215/215/302 248/248/303 247/247/300
f 249/249/304 248/248/303 215/215/302 214/214/305
f 232/232/275 249/249/304 214/214/305 213/213/272
f 236/236/279 237/237/281 251/251/255 250/389/257
f 237/237/281 238/238/282 252/252/253 251/251/255
f 238/238/282 239/239/284 253/253/251 252/252/253
f 239/239/284 240/240/286 254/254/249 253/253/251
f 240/240/286 241/241/288 255/255/247 254/254/249
f 241/241/288 242/242/290 256/256/245 255/255/247
f 242/242/290 243/243/292 257/257/243 256/256/245
f 243/243/292 244/244/295 258/258/241 257/257/243
f 244/244/295 245/245/296 259/259/239 258/258/241
f 245/245/296 246/246/299 260/260/237 259/259/239
f 246/246/299 247/247/300 261/261/235 260/260/237
f 247/247/300 248/248/303 262/262/233 261/261/235
f 248/248/303 249/249/304 263/263/231 262/262/233
f 249/249/304 232/232/275 264/264/227 263/263/231
f 232/232/275 233/233/274 265/265/228 264/264/227
f 266/266/261 265/265/228 233/233/274 234/234/277
f 234/234/277 235/235/278 267/267/259 266/266/261
f 235/235/278 236/390/279 250/250/257 267/267/259
f 269/269/16 268/268/15 289/289/306 290/290/307
f 290/290/307 291/291/308 270/270/19 269/269/16
f 271/271/20 270/270/19 291/291/308 292/386/309
f 292/292/309 293/293/310 272/272/22 271/387/20
f 273/273/23 272/272/22 293/293/310 294/294/311
f 274/274/208 273/273/23 294/294/311 295/295/312
f 275/275/209 274/274/208 295/295/312 296/296/313
f 296/296/313 297/297/314 276/276/207 275/275/209
f 297/297/314 298/298/315 277/277/206 276/276/207
f 298/298/315 299/299/316 278/278/205 277/277/206
f 299/299/316 300/300/317 279/279/204 278/278/205
f 300/300/317 301/301/318 280/280/203 279/279/204
f 301/301/318 302/302/319 281/281/198 280/280/203
f 302/302/319 303/303/320 282/282/124 281/281/198
f 283/283/125 282/282/124 303/303/320 286/286/321
f 286/286/321 287/287/322 284/284/127 283/283/125
f 287/287/322 288/288/323 285/285/17 284/284/127
f 288/288/323 289/289/306 268/268/15 285/285/17
f 183/183/232 287/287/322 286/286/321 182/182/234
f 166/166/230 288/288/323 287/287/322 183/183/232
f 167/167/229 289/289/306 288/288/323 166/166/230
f 290/290/307 289/289/306 167/167/229 168/168/262
f 169/169/260 291/291/308 290/290/307 168/168/262
f 292/386/309 291/291/308 169/169/260 170/170/258
f 171/171/256 293/293/310 292/292/309 170/392/258
f 172/172/254 294/294/311 293/293/310 171/171/256
f 173/173/252 295/295/312 294/294/311 172/172/254
f 174/174/250 296/296/313 295/295/312 173/173/252
f 175/175/248 297/297/314 296/296/313 174/174/250
f 176/176/246 298/298/315 297/297/314 175/175/248
f 177/177/244 299/299/316 298/298/315 176/176/246
f 178/178/242 300/300/317 299/299/316 177/177/244
f 179/179/240 301/301/318 300/300/317 178/178/242
f 180/180/238 302/302/319 301/301/318 179/179/240
f 181/181/236 303/303/320 302/302/319 180/180/238
f 182/182/234 286/286/321 303/303/320 181/181/236
f 305/305/211 304/304/210 212/212/273 213/213/272
f 213/213/272 214/214/305 306/306/212 305/305/211
f 214/214/305 215/215/302 307/307/213 306/306/212
f 308/308/214 307/307/213 215/215/302 216/216/301
f 216/216/301 217/217/298 309/309/215 308/308/214
f 310/310/216 309/309/215 217/217/298 218/218/297
f 218/218/297 219/219/294 311/311/217 310/310/216
f 312/312/218 311/311/217 219/219/294 220/220/293
f 220/220/293 221/221/291 313/313/219 312/312/218
f 221/221/291 222/222/289 314/314/220 313/313/219
f 222/222/289 223/223/287 315/315/221 314/314/220
f 223/223/287 224/224/285 316/316/222 315/315/221
f 224/224/285 225/225/283 317/317/223 316/316/222
f 225/225/283 226/226/280 318/318/263 317/317/223
f 319/384/265 318/318/263 226/226/280 227/227/267
f 231/230/266 320/320/271 319/319/265 227/391/267
f 321/321/270 320/320/271 231/230/266 230/231/269
f 322/322/264 321/321/270 230/231/269 228/228/268
f 229/229/276 323/323/225 322/322/264 228/228/268
f 304/304/210 323/323/225 229/229/276 212/212/273
