# Blender 5.1.1
# www.blender.org
mtllib Note.mtl
o musical_note
v 0.410461 0.673599 -0.016389
v 0.415392 0.673967 0.417195
v 0.942680 4.084840 0.029222
v 0.940895 4.090463 0.370775
v 1.294044 3.767101 0.025616
v 1.280991 3.800545 0.374380
v 1.717628 3.534095 0.029489
v 1.707371 3.533587 0.370435
v 2.025068 3.277740 0.066616
v 0.517408 1.214163 0.013645
v 0.161942 0.740288 0.415187
v 0.025215 0.790987 0.405422
v -0.179987 0.785189 0.402617
v -0.357727 0.729187 0.402620
v -0.521797 0.631351 0.402616
v -0.649008 0.497891 0.402610
v -0.708384 0.346950 0.402605
v -0.697010 0.172482 0.402603
v -0.604717 0.055002 0.402604
v -0.452618 0.000845 0.402609
v -0.234324 0.002868 0.402616
v -0.017157 0.069843 0.402619
v 0.125092 0.169419 0.402618
v 0.228586 0.287899 0.405425
v 0.287079 0.425156 0.415187
v 0.244190 0.592272 0.418011
v 0.210621 0.577174 -0.017490
v 0.135061 0.713223 -0.014909
v 0.250078 0.423607 -0.014909
v 0.195921 0.295956 -0.005826
v 0.100332 0.186315 -0.003261
v -0.030958 0.094294 -0.003263
v -0.231915 0.032270 -0.003260
v -0.433847 0.030467 -0.003253
v -0.574284 0.080473 -0.003247
v -0.659643 0.188923 -0.003246
v -0.670069 0.350406 -0.003248
v -0.615236 0.489739 -0.003253
v -0.497591 0.613183 -0.003260
v -0.345831 0.703592 -0.003264
v -0.181742 0.755411 -0.003260
v 0.008331 0.760591 -0.005823
v 0.556744 4.416955 0.029972
v 0.533827 3.926156 0.028410
v 0.556742 4.416955 0.370026
v 0.532492 3.923711 0.372287
v 0.685574 4.382364 0.029954
v 0.598753 4.429091 0.029954
v 0.685608 4.382338 0.370044
v 0.598753 4.429091 0.370044
v 0.310659 0.932043 0.351641
v 0.311319 0.889558 0.415662
v 0.128412 0.956748 0.343223
v 0.113871 0.929900 0.401355
v -0.176987 0.950779 0.341338
v -0.176767 0.923766 0.398810
v -0.419357 0.869939 0.341363
v -0.408548 0.846214 0.398826
v -0.654243 0.733437 0.341355
v -0.633844 0.715310 0.398811
v -0.836405 0.541390 0.341342
v -0.808058 0.531765 0.398787
v -0.918652 0.334295 0.341333
v -0.886364 0.334812 0.398769
v -0.905745 0.075549 0.341329
v -0.874262 0.089357 0.398762
v -0.770426 -0.087912 0.341331
v -0.746626 -0.064905 0.398765
v -0.560287 -0.163246 0.341342
v -0.546787 -0.136331 0.398786
v -0.246195 -0.163232 0.341356
v -0.246052 -0.136252 0.398812
v 0.068699 -0.064116 0.341362
v 0.055679 -0.041303 0.398823
v 0.261509 0.076074 0.341351
v 0.239950 0.092512 0.398815
v 0.407654 0.243759 0.343294
v 0.378963 0.251819 0.401380
v 0.529116 0.420441 0.351327
v 0.497942 0.445034 0.415433
v 1.014481 3.909347 0.319523
v 1.002750 3.942481 0.370288
v 1.320553 3.688454 0.383287
v 1.331797 3.657405 0.333189
v 0.878874 4.238239 0.366993
v 0.867592 4.270891 0.315315
v 1.234835 3.938094 0.308369
v 1.236712 3.915278 0.361694
v 1.736639 3.429685 0.377112
v 1.740767 3.404236 0.327853
v 1.664642 3.680201 0.307244
v 1.669008 3.654641 0.359566
v 2.012571 3.189596 0.368763
v 2.037024 3.151829 0.319888
v 1.960220 3.430527 0.314373
v 1.931650 3.435218 0.364468
v 2.061573 3.245042 0.310969
v 2.013985 3.282473 0.367809
v 0.611601 1.045854 0.384001
v 0.633865 1.016396 0.328940
v 0.401096 1.402679 0.330872
v 0.420162 1.368049 0.386157
v 2.099854 3.145540 0.316175
v 2.074564 3.166350 0.367095
v 2.076191 3.140818 0.367141
v 2.096104 3.116305 0.318784
v 0.616434 4.259195 0.368267
v 0.631824 4.228387 0.318762
v 0.615856 3.738666 0.319625
v 0.597095 3.764951 0.369790
v 0.478399 4.604828 0.318763
v 0.494335 4.574127 0.368272
v 0.469673 4.087875 0.370109
v 0.451199 4.115619 0.319921
v 0.756870 4.227478 0.368232
v 0.763563 4.195278 0.318524
v 0.677094 4.241589 0.318774
v 0.666689 4.273894 0.368284
v 0.606550 4.571052 0.318431
v 0.613590 4.538451 0.368215
v 0.531696 4.584942 0.368286
v 0.521471 4.617376 0.318775
v 0.310085 0.882718 -0.015276
v 0.311970 0.929438 0.049008
v 0.110769 0.923456 -0.001403
v 0.128611 0.956234 0.057034
v -0.176989 0.917933 0.001112
v -0.176983 0.950747 0.058903
v -0.406271 0.841205 0.001095
v -0.419344 0.869909 0.058872
v -0.629156 0.711700 0.001110
v -0.654222 0.733410 0.058880
v -0.801487 0.530141 0.001134
v -0.836376 0.541372 0.058894
v -0.878937 0.335356 0.001152
v -0.918619 0.334290 0.058903
v -0.866972 0.092625 0.001159
v -0.905714 0.075561 0.058907
v -0.740776 -0.059897 0.001157
v -0.770409 -0.087884 0.058906
v -0.543139 -0.130529 0.001135
v -0.560280 -0.163213 0.058894
v -0.245640 -0.130449 0.001109
v -0.246202 -0.163199 0.058880
v 0.052851 -0.036519 0.001098
v 0.068684 -0.064087 0.058874
v 0.235138 0.095839 0.001106
v 0.261488 0.076097 0.058889
v 0.372431 0.254001 -0.001429
v 0.407429 0.244263 0.056954
v 0.492029 0.449531 -0.015539
v 0.527977 0.423789 0.048399
v 1.004326 3.940020 0.033079
v 1.015642 3.907642 0.085188
v 1.338921 3.665051 0.038480
v 1.340807 3.644596 0.091869
v 0.881176 4.234447 0.029857
v 0.868876 4.268961 0.081571
v 1.251411 3.892111 0.016522
v 1.243259 3.925292 0.066528
v 1.746973 3.415794 0.040527
v 1.746702 3.393775 0.092879
v 1.680977 3.639513 0.022912
v 1.670839 3.669573 0.072037
v 2.014900 3.186833 0.035381
v 2.037777 3.150426 0.083112
v 1.929008 3.464039 0.104731
v 1.944790 3.424671 0.045083
v 0.612972 1.051772 0.014428
v 0.634020 1.019134 0.068624
v 0.422447 1.372195 0.016885
v 0.401718 1.404326 0.072194
v 2.077679 3.144165 0.033362
v 2.096180 3.116674 0.081460
v 2.102182 3.139189 0.106992
v 2.080019 3.172178 0.047285
v 0.616291 4.259364 0.031766
v 0.631800 4.228415 0.081481
v 0.597193 3.765879 0.029974
v 0.615887 3.739048 0.080167
v 0.494471 4.573964 0.031760
v 0.478420 4.604800 0.081473
v 0.470175 4.088619 0.030424
v 0.451292 4.115967 0.080787
v 0.756727 4.227842 0.031820
v 0.763538 4.195339 0.081851
v 0.666676 4.274097 0.031748
v 0.677094 4.241622 0.081464
v 0.613523 4.538249 0.031827
v 0.606539 4.571018 0.081874
v 0.531710 4.584739 0.031746
v 0.521475 4.617343 0.081462
v 0.509403 1.199491 0.390546
v -0.755606 0.641182 0.058887
v -0.851742 0.437642 0.001145
v -0.913366 0.333450 0.007010
v -0.889692 0.443140 0.058899
v -0.886097 0.211735 0.001157
v -0.900690 0.077611 0.007017
v -0.926231 0.202624 0.058906
v -0.815321 0.003870 0.001160
v -0.767340 -0.083523 0.007015
v -0.850239 -0.019478 0.058908
v -0.652981 -0.104048 0.001148
v -0.559259 -0.157986 0.006994
v -0.676809 -0.135046 0.058901
v -0.402468 -0.141287 0.001121
v -0.247000 -0.157933 0.006970
v -0.411650 -0.174635 0.058887
v -0.087337 -0.092138 0.001101
v 0.066198 -0.059366 0.006960
v -0.079226 -0.122790 0.058876
v 0.155340 0.026244 0.001100
v 0.257681 0.079753 0.006975
v 0.176928 0.002225 0.058875
v 0.307247 0.171953 0.001117
v 0.402203 0.246309 0.004363
v 0.338345 0.157474 0.058926
v 0.431444 0.341401 -0.009091
v 0.523523 0.427924 -0.006992
v 0.468668 0.334365 0.050942
v 1.014454 3.913553 0.040083
v 0.873764 4.066897 0.083019
v 0.765245 4.200701 0.037419
v 0.864096 4.100440 0.032042
v 1.161203 3.796070 0.035598
v 1.343792 3.646955 0.046172
v 1.168005 3.770165 0.088583
v 1.541677 3.543424 0.040606
v 1.747416 3.397362 0.048139
v 1.544008 3.521066 0.093712
v 0.870775 4.262153 0.036492
v 1.044811 4.090691 0.073660
v 1.244984 3.916789 0.020911
v 1.055445 4.056294 0.022582
v 0.727716 4.408501 0.032068
v 0.604830 4.565660 0.037446
v 0.717899 4.442185 0.083110
v 1.461754 3.790683 0.067329
v 1.674036 3.660540 0.027602
v 1.469978 3.759968 0.017956
v 1.932299 3.266763 0.036798
v 2.038965 3.155484 0.038751
v 1.917999 3.256923 0.088134
v 1.841055 3.544671 0.076630
v 1.854248 3.510393 0.027417
v 2.055937 3.160574 0.032244
v 2.093145 3.122615 0.037122
v 2.085930 3.114197 0.081447
v 2.064283 3.171569 0.032246
v 2.102255 3.126299 0.081469
v 0.628176 4.232727 0.037146
v 0.617842 4.207502 0.081497
v 0.610950 3.741125 0.035397
v 0.600590 4.235824 0.031781
v 0.638803 4.270880 0.031755
v 0.676741 4.246923 0.037126
v 0.651930 4.238711 0.081470
v 0.482044 4.600485 0.037138
v 0.497494 4.614608 0.081462
v 0.521824 4.612041 0.037124
v 0.510809 4.582522 0.031746
v 0.482807 4.556185 0.031802
v 0.456306 4.113907 0.035993
v 0.465164 4.584824 0.081507
v 0.706141 4.240373 0.081462
v 0.698454 4.272739 0.031746
v 0.557070 4.583488 0.031746
v 0.549440 4.616108 0.081462
v 0.977621 4.002867 0.030140
v 1.107626 3.917070 0.027025
v 1.319759 3.707710 0.031818
v 0.907837 4.168688 0.028281
v 1.269514 3.835392 0.019304
v 1.504843 3.651299 0.027245
v 1.746159 3.457129 0.034387
v 1.695705 3.596128 0.024602
v 1.910004 3.379921 0.029924
v 0.361721 0.781953 -0.016263
v 0.316633 0.624212 -0.019804
v 0.224989 0.801724 -0.017550
v 0.457043 0.563987 -0.016478
v 0.374115 0.430320 -0.017550
v 0.296953 0.271833 -0.004220
v 0.177641 0.134342 -0.002004
v 0.019440 0.019426 -0.002007
v -0.239437 -0.062041 -0.002000
v -0.497501 -0.062095 -0.001984
v -0.669275 -0.000653 -0.001971
v -0.779213 0.132199 -0.001970
v -0.789654 0.343315 -0.001974
v -0.722363 0.512608 -0.001985
v -0.572824 0.670183 -0.002000
v -0.379580 0.782471 -0.002009
v -0.180620 0.848992 -0.002002
v 0.069412 0.853680 -0.004213
v 0.569117 3.834768 0.028271
v 0.542694 4.395359 0.030023
v 0.590315 4.327774 0.029973
v 0.498428 4.018403 0.028512
v 0.522081 4.505902 0.029970
v 0.637423 4.341477 0.029955
v 0.627623 4.427482 0.029954
v 0.726635 4.294971 0.029954
v 0.560434 4.516968 0.029954
v 0.644156 4.470305 0.029954
v 0.796293 4.254045 0.029954
v 0.575275 4.426891 0.029955
v 0.129232 0.958141 0.200147
v 0.311390 0.932539 0.200340
v -0.177193 0.952483 0.200138
v -0.420082 0.871520 0.200135
v -0.655333 0.734800 0.200135
v -0.837879 0.542323 0.200135
v -0.920370 0.334570 0.200135
v -0.907385 0.074879 0.200135
v -0.771429 -0.089339 0.200135
v -0.560621 -0.164955 0.200135
v -0.245935 -0.164955 0.200135
v 0.069511 -0.065661 0.200135
v 0.262754 0.074878 0.200137
v 0.409258 0.243366 0.200143
v 0.529959 0.420962 0.199875
v 1.015524 3.906462 0.202429
v 1.336401 3.649152 0.212544
v 0.867725 4.272022 0.198485
v 1.239256 3.933487 0.187431
v 1.744038 3.396973 0.210404
v 1.667343 3.676983 0.189582
v 2.037062 3.149340 0.201517
v 2.097193 3.114695 0.200138
v 0.633009 4.226977 0.200139
v 0.617502 3.738195 0.199913
v 0.449594 4.116493 0.200374
v 0.477211 4.606239 0.200135
v 0.762968 4.193552 0.200214
v 0.677210 4.239855 0.200136
v 0.521355 4.619110 0.200135
v 0.607105 4.572804 0.200174
v 0.525484 2.563610 0.379354
v 0.565987 1.111258 0.388494
v 0.610609 2.411610 0.374446
v 0.457966 1.293592 0.389810
v 0.449516 2.727526 0.375860
v 0.471973 0.715784 0.405228
v 0.379625 0.902245 0.401672
v 0.404472 1.397354 0.379457
v 0.363554 0.939745 0.342873
v 0.400223 1.405194 0.201566
v 0.364660 0.939199 0.059213
v 0.591261 0.508534 0.056835
v 0.635197 1.016294 0.198796
v 0.591820 0.505058 0.341580
v 0.630114 1.020241 0.377412
v 0.570345 0.537843 0.400229
v 0.382086 0.902920 0.000361
v 0.463789 1.303885 0.014287
v 0.477339 0.725574 -0.002435
v 0.405439 1.399501 0.023411
v 0.571247 1.122623 0.012989
v 0.570480 0.543923 -0.001272
v 0.630255 1.024118 0.020071
v 0.631533 2.384617 0.322323
v 0.430079 2.758101 0.323595
v 0.611599 2.415143 0.024516
v 0.631754 2.386115 0.076139
v 0.430372 2.759525 0.078533
v 0.450932 2.730692 0.026179
v 0.530817 2.573390 0.023438
v 0.052441 0.712550 0.409603
v -0.097979 0.724820 0.403283
v -0.263353 0.699801 0.403286
v -0.400602 0.635628 0.403286
v -0.527128 0.537634 0.403283
v -0.605438 0.421987 0.403279
v -0.626768 0.281609 0.403277
v -0.582460 0.152037 0.403277
v -0.481281 0.084635 0.403279
v -0.326406 0.061524 0.403283
v -0.132156 0.091820 0.403286
v 0.017509 0.164861 0.403286
v 0.111740 0.255464 0.403285
v 0.187986 0.358809 0.409604
v 0.192480 0.484598 0.415931
v 0.133368 0.628445 0.415931
v 0.104717 0.607678 -0.015522
v 0.158411 0.477008 -0.015522
v 0.154209 0.362059 -0.009741
v 0.084642 0.267273 -0.003967
v -0.001436 0.184521 -0.003969
v -0.138182 0.117787 -0.003968
v -0.315664 0.090107 -0.003965
v -0.457155 0.111217 -0.003961
v -0.549557 0.172767 -0.003959
v -0.590015 0.291101 -0.003960
v -0.570534 0.419319 -0.003962
v -0.498991 0.524965 -0.003965
v -0.383389 0.614498 -0.003969
v -0.257980 0.673134 -0.003969
v -0.106916 0.696006 -0.003966
v 0.030699 0.684471 -0.009740
v 0.310137 0.927176 0.406979
v 0.235615 0.942318 0.349218
v 0.126215 0.951924 0.395714
v 0.218195 0.915755 0.409102
v -0.020948 0.961508 0.341278
v -0.176363 0.945669 0.393149
v -0.028595 0.934320 0.398789
v -0.304222 0.918740 0.341361
v -0.417191 0.865200 0.393175
v -0.298210 0.892988 0.398822
v -0.539093 0.808927 0.341361
v -0.650980 0.729349 0.393162
v -0.523413 0.787674 0.398821
v -0.755630 0.641205 0.341349
v -0.831984 0.538593 0.393139
v -0.730888 0.627064 0.398799
v -0.889723 0.443153 0.341337
v -0.913500 0.333471 0.393123
v -0.858866 0.438239 0.398777
v -0.926266 0.202620 0.341331
v -0.900816 0.077559 0.393117
v -0.893604 0.209807 0.398765
v -0.850264 -0.019500 0.341329
v -0.767416 -0.083633 0.393119
v -0.822016 -0.000407 0.398762
v -0.676823 -0.135077 0.341335
v -0.559286 -0.158119 0.393139
v -0.657841 -0.109555 0.398774
v -0.411650 -0.174669 0.341349
v -0.246981 -0.158066 0.393162
v -0.404581 -0.147208 0.398800
v -0.079214 -0.122821 0.341360
v 0.066261 -0.059484 0.393172
v -0.086033 -0.097526 0.398820
v 0.176947 0.002199 0.341361
v 0.257776 0.079662 0.393160
v 0.159281 0.022145 0.398821
v 0.338369 0.157459 0.341326
v 0.402571 0.245580 0.395777
v 0.312857 0.169491 0.398807
v 0.469481 0.332380 0.349263
v 0.525082 0.423217 0.406646
v 0.439247 0.338231 0.409117
v 1.012901 3.915632 0.364186
v 0.864927 4.099571 0.368069
v 0.765337 4.200458 0.362794
v 0.873903 4.066752 0.317771
v 1.162626 3.777645 0.326789
v 1.328218 3.666133 0.378793
v 1.150513 3.809876 0.377379
v 1.535444 3.534383 0.332345
v 1.738239 3.412845 0.372366
v 1.525211 3.564915 0.381961
v 0.868732 4.265123 0.360146
v 0.717901 4.442222 0.317399
v 0.604876 4.565794 0.362728
v 0.727720 4.408716 0.368003
v 1.046419 4.070776 0.364528
v 1.231840 3.935834 0.354092
v 1.039698 4.098305 0.311816
v 1.456102 3.780702 0.359578
v 1.663832 3.676659 0.352035
v 1.453606 3.803899 0.306439
v 1.914963 3.262618 0.323310
v 2.037863 3.157493 0.364143
v 1.926991 3.273190 0.372449
v 1.839842 3.524687 0.363045
v 1.956673 3.427376 0.361112
v 1.836571 3.551487 0.312000
v 2.085943 3.114165 0.318758
v 2.092836 3.121136 0.363029
v 2.054403 3.159990 0.368710
v 1.979027 3.362749 0.367278
v 2.056700 3.247494 0.361472
v 2.026413 3.330095 0.308029
v 2.048023 3.208527 0.368526
v 2.094442 3.146945 0.362875
v 2.086597 3.183672 0.308100
v 2.060822 3.164266 0.368789
v 2.101883 3.124925 0.318830
v 0.628271 4.232613 0.362993
v 0.651945 4.238679 0.318771
v 0.676752 4.246789 0.363009
v 0.638887 4.270684 0.368278
v 0.600769 4.235713 0.368251
v 0.610992 3.740560 0.364296
v 0.617872 4.207484 0.318743
v 0.481953 4.600595 0.362996
v 0.510729 4.582715 0.368286
v 0.521814 4.612176 0.363011
v 0.497480 4.614639 0.318775
v 0.465136 4.584841 0.318728
v 0.456087 4.113469 0.364597
v 0.482632 4.556294 0.368230
v 0.698404 4.272539 0.368286
v 0.706129 4.240339 0.318775
v 0.549448 4.616141 0.318775
v 0.557119 4.583689 0.368286
v 2.102018 3.144193 0.190742
v 2.098675 3.151717 0.068449
v 2.056896 3.209339 0.063571
v 2.062639 3.245586 0.176634
v 1.991888 3.356243 0.062433
v 1.965218 3.422524 0.067144
v 1.960800 3.433218 0.189121
v 0.975994 4.007062 0.371699
v 1.303680 3.737476 0.380602
v 1.099787 3.940101 0.372967
v 0.905725 4.173770 0.369871
v 1.255882 3.864996 0.368267
v 1.736158 3.461647 0.375262
v 1.492378 3.669486 0.372775
v 1.684252 3.602434 0.365451
v 1.899389 3.379513 0.369646
v 0.082619 0.876905 0.403884
v 0.244783 0.824159 0.417875
v -0.179640 0.871684 0.401563
v -0.388412 0.801899 0.401570
v -0.591156 0.684092 0.401561
v -0.748072 0.518736 0.401546
v -0.818699 0.341032 0.401535
v -0.807732 0.119389 0.401531
v -0.692274 -0.020132 0.401533
v -0.511961 -0.084639 0.401546
v -0.241182 -0.084586 0.401562
v 0.030428 0.000893 0.401568
v 0.196442 0.121492 0.401565
v 0.321785 0.265463 0.403891
v 0.403212 0.429755 0.417876
v 0.463789 0.561496 0.416833
v 0.341856 0.635515 0.420239
v 0.365568 0.786438 0.417053
v 0.542696 4.395360 0.369975
v 0.568329 3.832902 0.371974
v 0.590406 4.327662 0.370025
v 0.521990 4.506012 0.370028
v 0.497377 4.016661 0.372169
v 0.627625 4.427482 0.370044
v 0.637434 4.341342 0.370043
v 0.726732 4.294728 0.370044
v 0.644199 4.470439 0.370044
v 0.560427 4.517102 0.370044
v 0.796434 4.253936 0.370044
v 0.575277 4.426891 0.370043
v 0.312048 0.923520 -0.006424
v 0.214888 0.907649 -0.009074
v 0.126478 0.951157 0.004432
v 0.236437 0.940335 0.050996
v -0.030443 0.928406 0.001135
v -0.176346 0.945542 0.006987
v -0.020952 0.961481 0.058979
v -0.297117 0.887476 0.001099
v -0.417135 0.865078 0.006957
v -0.304214 0.918708 0.058874
v -0.519907 0.783289 0.001099
v -0.650894 0.729243 0.006971
v -0.539076 0.808898 0.058875
v -0.725155 0.624405 0.001122
v -0.831869 0.538520 0.006994
v -0.209045 0.393401 0.405854
v -0.208273 0.393231 -0.006400
v 0.233721 0.937593 0.403713
v -0.021946 0.956505 0.393094
v -0.302649 0.913751 0.393172
v -0.536375 0.804461 0.393171
v -0.751770 0.637679 0.393151
v -0.884853 0.441233 0.393130
v -0.921040 0.203183 0.393119
v -0.846174 -0.016209 0.393116
v -0.674845 -0.130226 0.393127
v -0.411558 -0.169441 0.393151
v -0.080864 -0.117865 0.393169
v 0.173870 0.006426 0.393171
v 0.333788 0.160022 0.393138
v 0.464779 0.334416 0.403754
v 0.874315 4.072271 0.362144
v 1.159706 3.785216 0.372045
v 1.531929 3.543497 0.377500
v 0.717901 4.436390 0.361879
v 1.038807 4.094359 0.357211
v 1.451551 3.801285 0.351805
v 1.914549 3.269720 0.367589
v 1.834572 3.547908 0.356469
v 2.085173 3.119530 0.363001
v 2.023033 3.327409 0.361969
v 2.080725 3.187122 0.362054
v 2.097204 3.127611 0.363093
v 0.649899 4.243636 0.363003
v 0.613333 4.210281 0.362974
v 0.499529 4.609684 0.363011
v 0.469671 4.582014 0.362953
v 0.707357 4.245513 0.363011
v 0.548222 4.610968 0.363011
v 2.090004 3.179002 0.162424
v 2.023855 3.339956 0.162325
v 1.128656 3.866828 0.376665
v 1.069561 4.013720 0.369351
v 1.511089 3.610434 0.379173
v 1.471878 3.731505 0.366406
v 1.859699 3.466970 0.367091
v 0.176311 0.863705 0.410876
v -0.045883 0.881109 0.401557
v -0.289091 0.844001 0.401568
v -0.491772 0.749225 0.401567
v -0.678541 0.604618 0.401554
v -0.793886 0.434378 0.401540
v -0.825233 0.228180 0.401533
v -0.760448 0.038221 0.401531
v -0.612099 -0.060475 0.401538
v -0.383888 -0.094449 0.401554
v -0.097141 -0.049726 0.401566
v 0.123724 0.058033 0.401567
v 0.262274 0.191067 0.401563
v 0.375532 0.343391 0.410880
v 0.384520 0.529462 0.420226
v 0.297621 0.740923 0.420226
v 1.964151 3.267063 0.371751
v 0.575186 4.304557 0.369992
v 0.509409 4.486673 0.369979
v 0.668280 4.339820 0.370044
v 0.587076 4.515650 0.370044
v 0.835659 4.166752 0.370044
v 0.757175 4.341245 0.370044
v 0.611315 4.338607 0.370040
v 0.538862 4.515022 0.370044
v 0.234901 0.934804 -0.003593
v -0.021959 0.956394 0.007051
v -0.302610 0.913622 0.006961
v -0.536306 0.804346 0.006961
v -0.751669 0.637588 0.006982
v -0.884729 0.441183 0.007003
v -0.920906 0.203197 0.007015
v -0.846071 -0.016124 0.007017
v -0.674795 -0.130101 0.007006
v -0.411556 -0.169306 0.006982
v -0.080906 -0.117737 0.006963
v 0.173790 0.006535 0.006962
v 0.333685 0.160084 0.007005
v 0.463646 0.337213 -0.003639
v 0.873760 4.072851 0.038306
v 1.168844 3.774262 0.043049
v 1.546160 3.523608 0.048421
v 1.046844 4.082940 0.028158
v 0.717899 4.436247 0.038411
v 1.464066 3.781884 0.022249
v 1.919043 3.261353 0.043670
v 1.844849 3.535069 0.032402
v 2.085119 3.119655 0.037116
v 2.098692 3.133111 0.037124
v 0.613213 4.210355 0.037162
v 0.649843 4.243767 0.037134
v 0.499582 4.609556 0.037124
v 0.469790 4.581942 0.037181
v 0.707388 4.245647 0.037124
v 0.548191 4.610834 0.037124
v 1.138096 3.847408 0.030697
v 1.077890 3.993853 0.023262
v 1.525837 3.590529 0.033696
v 1.484896 3.712110 0.020810
v 1.873602 3.459570 0.027501
v 0.275087 0.723175 -0.019791
v 0.356672 0.524620 -0.019791
v 0.347874 0.347233 -0.010882
v 0.240358 0.200598 -0.002001
v 0.108351 0.073882 -0.002006
v -0.102148 -0.028817 -0.002005
v -0.375448 -0.071442 -0.001993
v -0.592911 -0.039076 -0.001977
v -0.734196 0.054907 -0.001969
v -0.795877 0.235819 -0.001971
v -0.766014 0.432238 -0.001979
v -0.656105 0.594443 -0.001993
v -0.478098 0.732262 -0.002006
v -0.284916 0.822598 -0.002007
v -0.053200 0.858003 -0.001996
v 0.159288 0.840074 -0.010877
v 1.970560 3.268776 0.031953
v 0.575066 4.304630 0.030006
v 0.509525 4.486602 0.030018
v 0.668310 4.339953 0.029954
v 0.587046 4.515515 0.029954
v 0.835102 4.167331 0.029954
v 0.757174 4.341101 0.029954
v 0.611261 4.338738 0.029959
v 0.538916 4.514894 0.029954
v 0.236595 0.943036 0.200122
v -0.020617 0.963176 0.200147
v -0.304749 0.920403 0.200135
v -0.539999 0.810416 0.200135
v -0.756918 0.642381 0.200135
v -0.891346 0.443793 0.200135
v -0.928007 0.202433 0.200135
v -0.851629 -0.020596 0.200135
v -0.677481 -0.136694 0.200135
v -0.411680 -0.176412 0.200135
v -0.078665 -0.124474 0.200135
v 0.177973 0.000790 0.200135
v 0.339897 0.156605 0.200145
v 0.470695 0.332559 0.200117
v 1.165663 3.771961 0.207732
v 1.042065 4.096447 0.192756
v 1.539953 3.525782 0.213051
v 1.457636 3.799192 0.186837
v 1.916374 3.257849 0.205753
v 1.838514 3.550276 0.194275
v 2.086199 3.112377 0.200118
v 2.103439 3.124029 0.200163
v 0.619387 4.206553 0.200137
v 0.463623 4.585783 0.200135
v 0.705721 4.238615 0.200135
v 0.549858 4.617867 0.200135
v 0.873764 4.064914 0.200451
v 0.717901 4.444165 0.200291
v 0.652628 4.237026 0.200138
v 0.496798 4.616291 0.200135
v 0.572510 2.476313 0.378005
v 0.482149 2.655623 0.378868
v 0.419060 0.820595 0.404726
v 0.365021 0.934340 0.395398
v 0.363527 0.941326 0.201068
v 0.592806 0.505354 0.199220
v 0.588140 0.508674 0.394029
v 0.527012 0.614206 0.403846
v 0.423496 0.826244 -0.001996
v 0.366659 0.933485 0.006537
v 0.530073 0.623029 -0.002858
v 0.587347 0.513575 0.004315
v 0.627159 2.387375 0.368304
v 0.434589 2.754490 0.369643
v 0.627377 2.389506 0.030065
v 0.435091 2.756368 0.032315
v 0.576052 2.483652 0.022982
v 0.633102 2.384341 0.199246
v 0.428686 2.759940 0.201092
v 0.485975 2.662718 0.023861
vn -0.0509 0.0261 0.9984
vn -0.0472 0.0279 0.9985
vn -0.0085 -0.0036 1.0000
vn -0.0343 0.0063 0.9994
vn -0.0387 0.0296 0.9988
vn -0.0204 0.0172 0.9996
vn -0.0017 0.0107 0.9999
vn -0.0029 0.0093 1.0000
vn -0.0047 0.0100 0.9999
vn -0.0051 0.0084 1.0000
vn -0.0067 0.0087 0.9999
vn -0.0066 0.0062 1.0000
vn -0.0083 0.0056 0.9999
vn -0.0068 0.0025 1.0000
vn -0.0087 0.0014 1.0000
vn -0.0069 -0.0005 1.0000
vn -0.0071 -0.0024 1.0000
vn -0.0052 -0.0041 1.0000
vn -0.0046 -0.0069 1.0000
vn -0.0027 -0.0072 1.0000
vn -0.0015 -0.0099 0.9999
vn -0.0000 -0.0091 1.0000
vn 0.0017 -0.0107 0.9999
vn 0.0026 -0.0087 1.0000
vn 0.0049 -0.0099 0.9999
vn 0.0052 -0.0075 1.0000
vn 0.0075 -0.0079 0.9999
vn -0.0026 -0.0299 0.9996
vn -0.0075 -0.0547 0.9985
vn -0.0137 -0.0534 0.9985
vn -0.0162 -0.0497 0.9986
vn -0.0193 -0.0268 0.9995
vn -0.0207 -0.0085 0.9997
vn -0.0502 0.0270 -0.9984
vn -0.0338 0.0064 -0.9994
vn -0.0085 -0.0036 -1.0000
vn -0.0473 0.0287 -0.9985
vn -0.0200 -0.0082 -0.9998
vn -0.0188 -0.0267 -0.9995
vn -0.0151 -0.0497 -0.9986
vn -0.0131 -0.0538 -0.9985
vn -0.0066 -0.0551 -0.9985
vn -0.0021 -0.0300 -0.9995
vn 0.0082 -0.0086 -0.9999
vn 0.0054 -0.0078 -1.0000
vn 0.0051 -0.0105 -0.9999
vn 0.0028 -0.0094 -1.0000
vn 0.0019 -0.0117 -0.9999
vn -0.0000 -0.0094 -1.0000
vn -0.0015 -0.0104 -0.9999
vn -0.0029 -0.0076 -1.0000
vn -0.0052 -0.0079 -1.0000
vn -0.0055 -0.0043 -1.0000
vn -0.0083 -0.0029 -1.0000
vn -0.0069 -0.0006 -1.0000
vn -0.0095 0.0016 -1.0000
vn -0.0071 0.0026 -1.0000
vn -0.0091 0.0062 -0.9999
vn -0.0070 0.0066 -1.0000
vn -0.0070 0.0091 -0.9999
vn -0.0054 0.0090 -0.9999
vn -0.0053 0.0113 -0.9999
vn -0.0029 0.0095 -1.0000
vn -0.0019 0.0117 -0.9999
vn -0.0200 0.0176 -0.9996
vn -0.0385 0.0306 -0.9988
vn 0.0536 0.1013 0.9934
vn 0.0633 0.7941 0.6045
vn 0.0930 0.8716 0.4813
vn -0.0451 0.1361 0.9897
vn 0.0249 0.9992 0.0313
vn 0.1345 0.9905 0.0299
vn 0.0761 0.9966 0.0319
vn 0.0513 0.9144 0.4016
vn -0.0348 0.1369 0.9900
vn -0.0217 0.9126 0.4083
vn -0.0123 0.1211 0.9926
vn -0.0191 0.9992 0.0339
vn -0.1492 0.9882 0.0351
vn -0.1365 0.9048 0.4033
vn -0.0187 0.1206 0.9925
vn -0.2900 0.8700 0.3988
vn -0.0400 0.1191 0.9921
vn -0.3162 0.9480 0.0358
vn -0.4233 0.9053 0.0359
vn -0.3877 0.8292 0.4027
vn -0.0530 0.1133 0.9922
vn -0.4603 0.7914 0.4022
vn -0.0626 0.1080 0.9922
vn -0.5021 0.8640 0.0359
vn -0.6120 0.7901 0.0360
vn -0.5604 0.7222 0.4055
vn -0.0747 0.0970 0.9925
vn -0.6607 0.6253 0.4153
vn -0.0848 0.0810 0.9931
vn -0.7251 0.6877 0.0359
vn -0.8275 0.5603 0.0359
vn -0.7503 0.5064 0.4251
vn -0.0924 0.0632 0.9937
vn -0.8341 0.3295 0.4424
vn -0.0965 0.0389 0.9946
vn -0.9288 0.3689 0.0359
vn -0.9880 0.1501 0.0358
vn -0.8766 0.1321 0.4627
vn -0.0954 0.0148 0.9953
vn -0.8816 -0.0446 0.4698
vn -0.0935 -0.0043 0.9956
vn -0.9981 -0.0499 0.0359
vn -0.9455 -0.3236 0.0363
vn -0.8367 -0.2862 0.4669
vn -0.0881 -0.0298 0.9957
vn -0.6809 -0.5624 0.4691
vn -0.0711 -0.0593 0.9957
vn -0.7698 -0.6372 0.0361
vn -0.5542 -0.8316 0.0358
vn -0.4929 -0.7376 0.4616
vn -0.0529 -0.0804 0.9954
vn -0.3047 -0.8452 0.4390
vn -0.0348 -0.0993 0.9945
vn -0.3373 -0.9407 0.0359
vn -0.1476 -0.9884 0.0358
vn -0.1352 -0.8967 0.4215
vn -0.0162 -0.1125 0.9935
vn -0.0011 -0.9111 0.4122
vn 0.0004 -0.1188 0.9929
vn -0.0000 -0.9994 0.0359
vn 0.1540 -0.9874 0.0359
vn 0.1402 -0.9050 0.4018
vn 0.0194 -0.1226 0.9923
vn 0.2750 -0.8749 0.3986
vn 0.0379 -0.1204 0.9920
vn 0.3001 -0.9532 0.0359
vn 0.4383 -0.8981 0.0359
vn 0.4030 -0.8255 0.3951
vn 0.0559 -0.1148 0.9918
vn 0.5396 -0.7415 0.3988
vn 0.0735 -0.1015 0.9921
vn 0.5877 -0.8083 0.0358
vn 0.6928 -0.7203 0.0355
vn 0.6328 -0.6578 0.4085
vn 0.0834 -0.0871 0.9927
vn 0.6838 -0.6029 0.4111
vn 0.0831 -0.0901 0.9925
vn 0.7537 -0.6563 0.0348
vn 0.8004 -0.5986 0.0327
vn 0.7163 -0.5627 0.4126
vn 0.0741 -0.1196 0.9901
vn 0.7119 -0.5139 0.4787
vn 0.0752 -0.1188 0.9901
vn 0.8241 -0.5657 0.0300
vn 0.8169 -0.5761 0.0287
vn 0.7018 -0.4651 0.5396
vn 0.1143 -0.0338 0.9929
vn -0.7074 -0.7062 0.0311
vn -0.6839 -0.6717 0.2849
vn -0.7234 -0.6289 0.2850
vn -0.7514 -0.6591 0.0317
vn -0.1775 -0.1365 0.9746
vn -0.1722 -0.1406 0.9750
vn -0.1070 -0.1105 0.9881
vn -0.6745 -0.6469 0.3559
vn -0.7187 -0.6943 0.0376
vn -0.5940 -0.7321 0.3336
vn -0.1133 -0.0884 0.9896
vn -0.6226 -0.7814 0.0420
vn -0.5469 -0.8352 0.0580
vn -0.5069 -0.7729 0.3818
vn -0.0376 -0.0391 0.9985
vn -0.4806 -0.7892 0.3825
vn -0.0031 -0.0317 0.9995
vn -0.5244 -0.8490 0.0647
vn -0.5790 -0.8132 0.0585
vn -0.5374 -0.7678 0.3487
vn -0.0186 -0.0605 0.9980
vn 0.2069 0.1915 0.9594
vn 0.7059 0.6579 0.2626
vn 0.7269 0.6340 0.2641
vn 0.2094 0.1813 0.9609
vn 0.7308 0.6821 0.0258
vn 0.7544 0.6557 0.0309
vn 0.7174 0.6957 0.0367
vn 0.6869 0.6694 0.2829
vn 0.1784 0.1643 0.9701
vn 0.6476 0.7085 0.2806
vn 0.6729 0.7394 0.0220
vn 0.2028 0.2173 0.9548
vn 0.1798 0.2420 0.9535
vn 0.5578 0.7691 0.3120
vn 0.5816 0.8133 0.0150
vn 0.4870 0.8066 0.3350
vn 0.5146 0.8574 0.0099
vn 0.1498 0.2388 0.9594
vn 0.1353 0.2114 0.9680
vn 0.5134 0.7862 0.3440
vn 0.5481 0.8363 0.0146
vn -0.6085 -0.7281 0.3155
vn -0.0359 -0.0654 0.9972
vn -0.6459 -0.7619 0.0483
vn -0.6533 -0.7560 0.0411
vn -0.6378 -0.7371 0.2233
vn -0.1236 -0.1666 0.9782
vn 0.6016 0.7237 0.3382
vn 0.6432 0.7652 0.0269
vn 0.1199 0.1635 0.9792
vn 0.1419 0.1569 0.9774
vn 0.7300 0.6159 0.2963
vn 0.7599 0.6489 0.0371
vn -0.5196 -0.8251 0.2217
vn -0.0948 -0.1546 0.9834
vn -0.5124 -0.8579 0.0376
vn 0.5592 -0.8279 0.0432
vn 0.4892 -0.7183 0.4948
vn 0.0558 -0.0953 0.9939
vn 0.8070 0.4354 0.3989
vn 0.8794 0.4749 0.0322
vn 0.0881 0.0693 0.9937
vn 0.1020 0.0593 0.9930
vn 0.8398 0.3502 0.4150
vn 0.9246 0.3800 0.0265
vn 0.8775 0.3441 0.3341
vn 0.9324 0.3605 0.0271
vn 0.1381 0.0669 0.9882
vn 0.1810 0.0657 0.9813
vn 0.9021 0.2509 0.3512
vn 0.9662 0.2552 0.0372
vn 0.9117 -0.0661 0.4054
vn 0.9905 -0.1304 0.0429
vn 0.0558 0.0063 0.9984
vn 0.0409 -0.0478 0.9980
vn 0.5335 -0.5784 0.6171
vn 0.2198 -0.7534 0.6197
vn 0.0175 -0.0599 0.9981
vn 0.6745 -0.7368 0.0466
vn 0.2794 -0.9591 0.0451
vn 0.0306 -0.9986 0.0436
vn 0.0244 -0.8137 0.5807
vn 0.0025 -0.0695 0.9976
vn 0.8854 -0.0271 0.4640
vn 0.9987 -0.0324 0.0399
vn 0.1043 -0.0021 0.9945
vn 0.1466 0.0042 0.9892
vn 0.9075 0.0084 0.4201
vn 0.9993 0.0077 0.0377
vn -0.6768 0.7349 0.0436
vn -0.5898 0.6426 0.4890
vn -0.2400 0.8246 0.5123
vn -0.2796 0.9592 0.0424
vn -0.0604 0.0600 0.9964
vn -0.0216 0.0746 0.9970
vn -0.0012 0.0780 0.9970
vn -0.0246 0.8564 0.5158
vn -0.0289 0.9987 0.0416
vn -0.9734 0.0549 0.2223
vn -0.2583 0.0145 0.9660
vn -0.9977 0.0558 0.0386
vn -0.9991 0.0192 0.0376
vn -0.9597 0.0196 0.2805
vn -0.2228 0.0078 0.9748
vn -0.4048 -0.7511 0.5215
vn -0.4714 -0.8808 0.0441
vn -0.0324 -0.0736 0.9968
vn 0.4435 0.8196 0.3627
vn 0.0796 0.1266 0.9888
vn 0.4772 0.8778 0.0422
vn 0.9679 0.2514 0.0070
vn 0.9191 0.3897 -0.0584
vn 0.9791 0.2032 -0.0099
vn 0.8744 0.4686 -0.1259
vn 0.7589 0.5778 -0.3004
vn 0.8032 0.4869 -0.3432
vn 0.7925 0.3470 -0.5015
vn 0.9200 0.3857 -0.0690
vn 0.7420 0.2881 -0.6054
vn 0.8843 0.4624 -0.0648
vn 0.5442 0.2483 -0.8014
vn 0.8165 0.5513 -0.1714
vn 0.7189 0.6942 -0.0362
vn 0.7588 0.6514 0.0040
vn 0.0171 0.0254 0.9995
vn -0.0301 -0.0060 0.9995
vn 0.0031 0.0396 0.9992
vn 0.0456 0.0697 0.9965
vn 0.0508 0.0894 0.9947
vn 0.0753 0.1141 0.9906
vn 0.0610 0.0581 0.9964
vn 0.0863 0.0993 0.9913
vn 0.0985 0.1368 0.9857
vn 0.0756 0.1016 0.9920
vn 0.0841 0.1221 0.9890
vn 0.0700 0.0746 0.9948
vn 0.0724 0.0945 0.9929
vn 0.0912 0.1393 0.9860
vn 0.0748 0.1118 0.9909
vn 0.0586 0.0764 0.9954
vn 0.0590 0.0606 0.9964
vn -0.0612 0.0596 0.9963
vn -0.0328 0.0374 0.9988
vn -0.0396 0.0480 0.9981
vn -0.0124 0.0322 0.9994
vn -0.0041 0.0267 0.9996
vn -0.0088 0.0263 0.9996
vn -0.0118 0.0253 0.9996
vn -0.0140 0.0242 0.9996
vn -0.0166 0.0216 0.9996
vn -0.0189 0.0183 0.9997
vn -0.0205 0.0140 0.9997
vn -0.0212 0.0087 0.9997
vn -0.0210 0.0033 0.9998
vn -0.0207 -0.0009 0.9998
vn -0.0192 -0.0065 0.9998
vn -0.0155 -0.0129 0.9998
vn -0.0116 -0.0176 0.9998
vn -0.0075 -0.0220 0.9997
vn -0.0036 -0.0248 0.9997
vn 0.0002 -0.0265 0.9996
vn 0.0043 -0.0270 0.9996
vn 0.0084 -0.0268 0.9996
vn 0.0123 -0.0253 0.9996
vn 0.0161 -0.0224 0.9996
vn 0.0184 -0.0191 0.9996
vn 0.0143 -0.0333 0.9993
vn 0.0052 -0.0659 0.9978
vn 0.0019 -0.0799 0.9968
vn 0.0075 -0.0464 0.9989
vn 0.0977 0.0262 0.9949
vn 0.0053 -0.0106 0.9999
vn 0.0924 0.0413 0.9949
vn 0.0017 0.0007 1.0000
vn 0.0887 0.0545 0.9946
vn -0.0054 0.0104 0.9999
vn 0.0482 0.0316 0.9983
vn -0.0015 -0.0006 1.0000
vn 0.0097 0.0040 0.9999
vn 0.0210 0.0026 0.9998
vn 0.0048 -0.0078 1.0000
vn 0.0093 0.0048 0.9999
vn 0.0433 0.0044 0.9991
vn -0.0412 0.0053 0.9991
vn -0.0422 0.0052 0.9991
vn -0.0110 0.0084 0.9999
vn -0.0000 -0.0000 1.0000
vn -0.0026 -0.0097 0.9999
vn -0.0124 -0.0150 0.9998
vn 0.0004 -0.0111 0.9999
vn 0.0144 0.0221 0.9997
vn -0.0000 0.0118 0.9999
vn 0.0352 0.0311 0.9989
vn -0.0290 -0.0202 0.9994
vn 0.0037 0.0045 1.0000
vn 0.0448 0.0381 0.9983
vn 0.0025 -0.0095 1.0000
vn -0.0004 -0.0002 1.0000
vn -0.0035 0.0111 0.9999
vn 0.0186 0.9988 -0.0456
vn 0.0597 0.7566 -0.6511
vn 0.0949 0.8326 -0.5457
vn 0.1412 0.9891 -0.0410
vn 0.0488 0.0919 -0.9946
vn -0.0457 0.1196 -0.9918
vn -0.0350 0.1168 -0.9925
vn 0.0537 0.8818 -0.4686
vn 0.0810 0.9960 -0.0369
vn -0.0201 0.8805 -0.4737
vn -0.0180 0.9992 -0.0353
vn -0.0117 0.1008 -0.9948
vn -0.0154 0.0997 -0.9949
vn -0.1319 0.8742 -0.4673
vn -0.1492 0.9882 -0.0357
vn -0.2813 0.8413 -0.4616
vn -0.3162 0.9480 -0.0364
vn -0.0330 0.0985 -0.9946
vn -0.0438 0.0936 -0.9946
vn -0.3748 0.8016 -0.4659
vn -0.4233 0.9053 -0.0365
vn -0.4453 0.7649 -0.4654
vn -0.5021 0.8640 -0.0366
vn -0.0518 0.0893 -0.9947
vn -0.0618 0.0802 -0.9949
vn -0.5415 0.6976 -0.4692
vn -0.6120 0.7900 -0.0366
vn -0.6370 0.6027 -0.4807
vn -0.7251 0.6877 -0.0366
vn -0.0701 0.0669 -0.9953
vn -0.0763 0.0522 -0.9957
vn -0.7217 0.4870 -0.4920
vn -0.8275 0.5603 -0.0366
vn -0.7991 0.3154 -0.5119
vn -0.9288 0.3689 -0.0366
vn -0.0796 0.0321 -0.9963
vn -0.0787 0.0122 -0.9968
vn -0.8356 0.1258 -0.5348
vn -0.9880 0.1501 -0.0364
vn -0.8388 -0.0425 -0.5427
vn -0.9981 -0.0499 -0.0366
vn -0.0772 -0.0035 -0.9970
vn -0.0726 -0.0246 -0.9971
vn -0.7967 -0.2726 -0.5394
vn -0.9455 -0.3236 -0.0369
vn -0.6480 -0.5352 -0.5419
vn -0.7698 -0.6372 -0.0367
vn -0.0586 -0.0489 -0.9971
vn -0.0437 -0.0664 -0.9968
vn -0.4700 -0.7031 -0.5336
vn -0.5542 -0.8316 -0.0365
vn -0.2922 -0.8102 -0.5081
vn -0.3373 -0.9407 -0.0365
vn -0.0287 -0.0820 -0.9962
vn -0.0134 -0.0929 -0.9956
vn -0.1302 -0.8631 -0.4879
vn -0.1476 -0.9884 -0.0365
vn -0.0011 -0.8788 -0.4771
vn -0.0000 -0.9993 -0.0366
vn 0.0003 -0.0982 -0.9952
vn 0.0160 -0.1013 -0.9947
vn 0.1355 -0.8749 -0.4649
vn 0.1540 -0.9874 -0.0366
vn 0.2686 -0.8457 -0.4612
vn 0.3000 -0.9532 -0.0365
vn 0.0314 -0.0995 -0.9945
vn 0.0462 -0.0949 -0.9944
vn 0.3903 -0.7993 -0.4570
vn 0.4383 -0.8981 -0.0366
vn 0.5220 -0.7173 -0.4615
vn 0.5877 -0.8083 -0.0365
vn 0.0608 -0.0839 -0.9946
vn 0.0690 -0.0720 -0.9950
vn 0.6108 -0.6350 -0.4729
vn 0.6928 -0.7203 -0.0362
vn 0.6617 -0.5790 -0.4763
vn 0.7546 -0.6552 -0.0362
vn 0.0681 -0.0766 -0.9947
vn 0.0595 -0.1069 -0.9925
vn 0.6925 -0.5383 -0.4803
vn 0.8035 -0.5941 -0.0380
vn 0.6848 -0.4878 -0.5414
vn 0.8277 -0.5596 -0.0419
vn 0.0596 -0.1088 -0.9923
vn 0.0928 -0.0318 -0.9952
vn 0.6744 -0.4471 -0.5876
vn 0.8176 -0.5739 -0.0459
vn -0.1960 -0.1964 -0.9607
vn -0.6795 -0.6792 -0.2773
vn -0.7218 -0.6316 -0.2832
vn -0.1739 -0.1529 -0.9728
vn -0.7085 -0.7052 -0.0272
vn -0.7515 -0.6590 -0.0314
vn -0.7187 -0.6943 -0.0379
vn -0.6752 -0.6475 -0.3533
vn -0.1105 -0.1142 -0.9873
vn -0.5968 -0.7480 -0.2903
vn -0.6265 -0.7791 -0.0224
vn -0.1924 -0.2483 -0.9494
vn -0.1625 -0.2655 -0.9503
vn -0.5210 -0.7969 -0.3059
vn -0.5507 -0.8346 -0.0141
vn -0.4994 -0.8040 -0.3228
vn -0.5259 -0.8505 -0.0103
vn -0.1461 -0.2469 -0.9580
vn -0.1651 -0.2220 -0.9610
vn -0.5499 -0.7703 -0.3230
vn -0.5789 -0.8153 -0.0157
vn 0.1189 0.1361 -0.9835
vn 0.7018 0.6590 -0.2706
vn 0.6319 0.7028 -0.3267
vn 0.0277 0.0719 -0.9970
vn 0.7312 0.6815 -0.0311
vn 0.6736 0.7379 -0.0417
vn 0.5812 0.8115 -0.0595
vn 0.5281 0.7478 -0.4025
vn 0.0040 0.0321 -0.9995
vn 0.7268 0.6343 -0.2634
vn 0.7545 0.6555 -0.0319
vn 0.1963 0.1766 -0.9645
vn 0.1834 0.1687 -0.9685
vn 0.6868 0.6691 -0.2840
vn 0.7174 0.6957 -0.0374
vn 0.4679 0.7760 -0.4230
vn 0.0314 0.0323 -0.9990
vn 0.5129 0.8557 -0.0688
vn 0.5446 0.8363 -0.0626
vn 0.5086 0.7669 -0.3914
vn 0.0660 0.0566 -0.9962
vn -0.6100 -0.7287 -0.3113
vn -0.6433 -0.7652 -0.0255
vn -0.1794 -0.1918 -0.9649
vn -0.2139 -0.2024 -0.9557
vn -0.6343 -0.7375 -0.2319
vn -0.6488 -0.7603 -0.0321
vn 0.6024 0.7071 -0.3704
vn 0.2154 0.1496 -0.9650
vn 0.6285 0.7761 -0.0521
vn -0.4940 -0.8299 -0.2593
vn -0.5008 -0.8648 -0.0371
vn -0.1088 -0.1264 -0.9860
vn 0.0662 -0.0567 -0.9962
vn 0.5447 -0.6255 -0.5586
vn 0.5950 -0.8021 -0.0511
vn 0.8554 0.1211 -0.5036
vn 0.9742 -0.2197 -0.0513
vn 0.4808 0.4366 -0.7604
vn 0.0417 -0.0488 -0.9979
vn 0.5333 -0.5781 -0.6176
vn 0.8861 -0.0267 -0.4627
vn 0.0995 -0.0020 -0.9950
vn 0.6745 -0.7368 -0.0475
vn 0.9987 -0.0323 -0.0403
vn 0.9993 0.0078 -0.0374
vn 0.9099 0.0088 -0.4147
vn 0.1214 0.0043 -0.9926
vn 0.2197 -0.7531 -0.6201
vn 0.2794 -0.9591 -0.0460
vn 0.0178 -0.0610 -0.9980
vn 0.0026 -0.0709 -0.9975
vn 0.0244 -0.8134 -0.5812
vn 0.0306 -0.9985 -0.0444
vn -0.0616 0.0611 -0.9962
vn -0.5897 0.6424 -0.4895
vn -0.2399 0.8245 -0.5125
vn -0.0220 0.0760 -0.9969
vn -0.6768 0.7348 -0.0444
vn -0.2796 0.9591 -0.0432
vn -0.0289 0.9987 -0.0424
vn -0.0245 0.8563 -0.5160
vn -0.0012 0.0795 -0.9968
vn -0.9728 0.0545 -0.2250
vn -0.9977 0.0557 -0.0395
vn -0.2612 0.0136 -0.9652
vn -0.2163 0.0065 -0.9763
vn -0.9577 0.0191 -0.2871
vn -0.9990 0.0191 -0.0394
vn -0.4042 -0.7512 -0.5218
vn -0.0330 -0.0753 -0.9966
vn -0.4712 -0.8809 -0.0449
vn 0.4434 0.8192 -0.3638
vn 0.4772 0.8777 -0.0430
vn 0.0815 0.1292 -0.9883
vn -0.0672 -0.0631 -0.9957
vn -0.0926 -0.1135 -0.9892
vn -0.0552 -0.0414 -0.9976
vn -0.0844 -0.0856 -0.9928
vn -0.0748 -0.1175 -0.9903
vn -0.0872 -0.1476 -0.9852
vn -0.0383 -0.0155 -0.9991
vn -0.0787 -0.0602 -0.9951
vn -0.0668 -0.0878 -0.9939
vn -0.0717 -0.1355 -0.9882
vn -0.0543 -0.1155 -0.9918
vn -0.0494 -0.0870 -0.9950
vn -0.0757 -0.1042 -0.9917
vn -0.0383 -0.0902 -0.9952
vn -0.0249 -0.0702 -0.9972
vn 0.0539 -0.0376 -0.9978
vn 0.1074 0.0105 -0.9942
vn 0.0820 0.0506 -0.9953
vn -0.0035 0.0105 -0.9999
vn -0.0312 0.0371 -0.9988
vn 0.0834 0.0404 -0.9957
vn 0.0025 0.0015 -1.0000
vn 0.0815 0.0260 -0.9963
vn 0.0049 -0.0093 -0.9999
vn 0.0065 -0.0456 -0.9989
vn 0.0022 -0.0795 -0.9968
vn 0.0055 -0.0646 -0.9979
vn 0.0145 -0.0324 -0.9994
vn 0.0185 -0.0192 -0.9996
vn 0.0161 -0.0224 -0.9996
vn 0.0124 -0.0253 -0.9996
vn 0.0084 -0.0268 -0.9996
vn 0.0043 -0.0270 -0.9996
vn 0.0002 -0.0265 -0.9996
vn -0.0037 -0.0247 -0.9997
vn -0.0075 -0.0219 -0.9997
vn -0.0116 -0.0175 -0.9998
vn -0.0154 -0.0129 -0.9998
vn -0.0190 -0.0065 -0.9998
vn -0.0209 -0.0009 -0.9998
vn -0.0211 0.0033 -0.9998
vn -0.0212 0.0087 -0.9997
vn -0.0205 0.0139 -0.9997
vn -0.0189 0.0182 -0.9997
vn -0.0166 0.0215 -0.9996
vn -0.0140 0.0242 -0.9996
vn -0.0118 0.0253 -0.9996
vn -0.0088 0.0264 -0.9996
vn -0.0041 0.0267 -0.9996
vn -0.0118 0.0315 -0.9994
vn -0.0384 0.0467 -0.9982
vn -0.0603 0.0596 -0.9964
vn 0.2186 0.0976 -0.9709
vn 0.0134 0.0019 -0.9999
vn 0.0050 -0.0080 -1.0000
vn 0.0181 0.0037 -0.9998
vn 0.0028 0.0035 -1.0000
vn 0.0060 0.0028 -1.0000
vn -0.0014 -0.0006 -1.0000
vn -0.0424 0.0041 -0.9991
vn -0.0113 0.0087 -0.9999
vn -0.0360 0.0037 -0.9993
vn -0.0027 -0.0099 -0.9999
vn -0.0127 -0.0154 -0.9998
vn 0.0005 -0.0114 -0.9999
vn -0.0000 -0.0000 -1.0000
vn 0.0148 0.0226 -0.9996
vn 0.0363 0.0321 -0.9988
vn -0.0000 0.0121 -0.9999
vn -0.0367 -0.0309 -0.9988
vn -0.0163 -0.0103 -0.9998
vn 0.0184 0.0215 -0.9996
vn 0.0026 -0.0099 -0.9999
vn -0.0004 -0.0002 -1.0000
vn -0.0036 0.0114 -0.9999
vn 0.1391 0.9903 -0.0055
vn 0.0161 0.9998 -0.0068
vn 0.0788 0.9969 -0.0023
vn -0.0182 0.9998 -0.0005
vn -0.1491 0.9888 -0.0001
vn -0.3163 0.9487 -0.0001
vn -0.4236 0.9059 -0.0001
vn -0.5019 0.8649 -0.0001
vn -0.6125 0.7905 -0.0001
vn -0.7256 0.6881 -0.0001
vn -0.8281 0.5606 -0.0001
vn -0.9294 0.3692 -0.0001
vn -0.9887 0.1502 -0.0001
vn -0.9987 -0.0505 -0.0001
vn -0.9461 -0.3239 -0.0001
vn -0.7703 -0.6377 -0.0001
vn -0.5545 -0.8322 -0.0001
vn -0.3376 -0.9413 -0.0001
vn -0.1477 -0.9890 -0.0001
vn -0.0000 -1.0000 -0.0001
vn 0.1538 -0.9881 -0.0001
vn 0.3003 -0.9539 -0.0001
vn 0.4386 -0.8987 -0.0001
vn 0.5881 -0.8088 -0.0001
vn 0.6933 -0.7206 -0.0001
vn 0.7547 -0.6560 -0.0005
vn 0.8028 -0.5963 -0.0024
vn 0.8270 -0.5622 -0.0058
vn 0.8168 -0.5769 -0.0084
vn -0.7082 -0.7060 0.0028
vn -0.6253 -0.7803 0.0112
vn -0.5494 -0.8353 0.0226
vn 0.7315 0.6819 -0.0027
vn 0.6737 0.7389 -0.0098
vn 0.5819 0.8130 -0.0215
vn -0.5258 -0.8502 0.0269
vn -0.5796 -0.8146 0.0208
vn 0.5141 0.8573 -0.0282
vn 0.5468 0.8369 -0.0227
vn -0.6452 -0.7639 0.0110
vn -0.6508 -0.7592 0.0045
vn 0.6361 0.7716 -0.0081
vn -0.5026 -0.8645 0.0009
vn 0.5686 -0.8226 -0.0013
vn 0.9859 -0.1672 0.0053
vn 0.9995 -0.0321 0.0001
vn 1.0000 0.0075 0.0004
vn 0.6756 -0.7373 -0.0002
vn -0.9984 0.0562 -0.0002
vn -0.6772 0.7358 -0.0001
vn -0.9998 0.0191 -0.0006
vn -0.4734 -0.8808 -0.0001
vn 0.0303 -0.9995 -0.0001
vn -0.7189 -0.6951 -0.0001
vn 0.4761 0.8794 -0.0001
vn 0.7181 0.6959 -0.0001
vn -0.0293 0.9996 -0.0001
vn -0.7513 -0.6600 0.0003
vn 0.7555 0.6551 -0.0004
vn 0.2797 -0.9601 -0.0002
vn -0.2799 0.9600 -0.0001
vn 0.0180 0.0064 0.9998
vn 0.0653 0.0063 0.9978
vn 0.0416 0.0135 0.9990
vn 0.0896 0.0129 0.9959
vn 0.2171 0.0121 0.9761
vn 0.1810 0.0069 0.9835
vn -0.1192 0.0173 0.9927
vn -0.0060 0.0147 0.9999
vn -0.0325 0.0071 0.9994
vn -0.1745 0.0089 0.9846
vn 0.0617 0.0427 0.9972
vn 0.0038 0.0570 0.9984
vn 0.0876 0.0358 0.9955
vn -0.8017 0.2060 0.5611
vn -0.9791 0.2020 0.0225
vn -0.9094 0.0387 0.4141
vn -0.9989 0.0375 0.0278
vn -0.9811 0.1936 -0.0036
vn -0.9792 0.2007 -0.0304
vn -0.9993 0.0367 -0.0020
vn -0.9988 0.0371 -0.0323
vn 0.9835 -0.1808 -0.0031
vn 0.9828 -0.1826 0.0278
vn 0.9826 -0.1826 -0.0342
vn 0.9993 -0.0228 -0.0302
vn 0.9997 -0.0228 0.0001
vn 0.9993 -0.0227 0.0301
vn 0.9341 -0.1616 0.3183
vn 0.2342 0.0136 0.9721
vn 0.9496 -0.0161 0.3130
vn 0.1248 0.0304 0.9917
vn 0.0654 0.0448 -0.9969
vn 0.0683 0.0400 -0.9969
vn 0.0184 0.0572 -0.9982
vn -0.0963 0.0163 -0.9952
vn -0.0011 0.0142 -0.9999
vn 0.0144 0.0141 -0.9998
vn -0.7891 0.2037 -0.5795
vn -0.9010 0.0379 -0.4321
vn 0.0927 0.0345 -0.9951
vn 0.2080 0.0155 -0.9780
vn 0.0439 0.0146 -0.9989
vn 0.1857 0.0139 -0.9825
vn 0.9319 -0.1626 -0.3242
vn 0.9537 -0.0164 -0.3002
vn 0.9270 0.0081 0.3751
vn 0.9994 0.0066 0.0342
vn -0.9378 0.0191 0.3467
vn -0.9993 0.0186 0.0339
vn 0.9308 0.0085 -0.3655
vn 0.9994 0.0067 -0.0333
vn 0.1436 0.0073 -0.9896
vn -0.9329 0.0185 -0.3597
vn -0.1568 0.0075 -0.9876
vn -0.9992 0.0184 -0.0369
vn 0.0247 0.0061 -0.9997
vn 0.0016 0.0054 -1.0000
vn 1.0000 0.0066 0.0007
vn -0.9998 0.0183 -0.0012
vn -0.0240 0.0057 -0.9997
vt 0.277817 0.078494
vt 0.365079 0.124752
vt 0.502208 0.497824
vt 0.263651 0.175128
vt 0.421223 0.070248
vt 0.511488 0.157761
vt 0.603375 0.139317
vt 0.654263 0.235916
vt 0.743994 0.247207
vt 0.758199 0.340572
vt 0.857841 0.388092
vt 0.840825 0.472571
vt 0.927109 0.548247
vt 0.873424 0.604407
vt 0.930382 0.702165
vt 0.845810 0.739639
vt 0.863386 0.852795
vt 0.761994 0.843048
vt 0.743245 0.927427
vt 0.647123 0.870820
vt 0.590134 0.926312
vt 0.497969 0.840289
vt 0.396787 0.853588
vt 0.330573 0.747662
vt 0.225455 0.723490
vt 0.218244 0.630748
vt 0.130913 0.588087
vt 0.162539 0.516347
vt 0.080005 0.446413
vt 0.133202 0.391029
vt 0.080329 0.299976
vt 0.171958 0.275274
vt 0.165136 0.174717
vt 0.277738 0.078580
vt 0.263622 0.175160
vt 0.365050 0.124785
vt 0.165135 0.174718
vt 0.171986 0.275244
vt 0.080401 0.299897
vt 0.133229 0.390999
vt 0.080013 0.446388
vt 0.162530 0.516322
vt 0.130886 0.588017
vt 0.218230 0.630715
vt 0.225450 0.723462
vt 0.330596 0.747664
vt 0.396883 0.853610
vt 0.498049 0.840299
vt 0.590302 0.926309
vt 0.647208 0.870804
vt 0.743355 0.927383
vt 0.762026 0.843031
vt 0.863394 0.852802
vt 0.845798 0.739669
vt 0.930351 0.702264
vt 0.873414 0.604481
vt 0.927114 0.548393
vt 0.840840 0.472647
vt 0.857876 0.388194
vt 0.758211 0.340602
vt 0.743986 0.247214
vt 0.654237 0.235906
vt 0.603310 0.139292
vt 0.511463 0.157752
vt 0.421199 0.070258
vt 0.244282 0.014754
vt 0.261979 0.002674
vt 0.318646 0.001186
vt 0.318103 0.001779
vt 0.263715 0.000778
vt 0.319461 0.000297
vt 0.405260 0.011181
vt 0.404930 0.011357
vt 0.404710 0.011474
vt 0.514131 0.044242
vt 0.513794 0.044118
vt 0.514637 0.044427
vt 0.622813 0.092693
vt 0.622047 0.092409
vt 0.621536 0.092219
vt 0.704472 0.148426
vt 0.704116 0.148285
vt 0.705007 0.148636
vt 0.774233 0.213390
vt 0.774132 0.213467
vt 0.774064 0.213518
vt 0.843747 0.288704
vt 0.843911 0.289116
vt 0.843503 0.288086
vt 0.905688 0.371893
vt 0.906100 0.373084
vt 0.906374 0.373878
vt 0.953969 0.465553
vt 0.954173 0.466602
vt 0.953663 0.463979
vt 0.984979 0.556037
vt 0.985035 0.557749
vt 0.985072 0.558891
vt 0.996975 0.641313
vt 0.996835 0.642347
vt 0.997186 0.639762
vt 0.989311 0.724643
vt 0.988931 0.725819
vt 0.988678 0.726602
vt 0.960044 0.820839
vt 0.959818 0.821286
vt 0.960382 0.820170
vt 0.912689 0.905091
vt 0.912654 0.905233
vt 0.912630 0.905328
vt 0.849103 0.957859
vt 0.849489 0.957661
vt 0.848525 0.958155
vt 0.774001 0.985982
vt 0.775262 0.985476
vt 0.776102 0.985139
vt 0.696999 0.994848
vt 0.698178 0.994619
vt 0.695231 0.995190
vt 0.605069 0.984948
vt 0.607024 0.984916
vt 0.608327 0.984895
vt 0.498044 0.954625
vt 0.499159 0.954761
vt 0.496370 0.954422
vt 0.381621 0.903217
vt 0.382738 0.903477
vt 0.383483 0.903651
vt 0.273788 0.830975
vt 0.274108 0.831000
vt 0.273309 0.830938
vt 0.183340 0.750578
vt 0.183287 0.750255
vt 0.183252 0.750039
vt 0.123330 0.674454
vt 0.123135 0.674002
vt 0.123622 0.675131
vt 0.082754 0.600498
vt 0.082441 0.599686
vt 0.082233 0.599144
vt 0.049145 0.522064
vt 0.049017 0.521721
vt 0.049337 0.522579
vt 0.024684 0.441036
vt 0.024848 0.440676
vt 0.024957 0.440436
vt 0.010954 0.354608
vt 0.011519 0.353990
vt 0.010106 0.355534
vt 0.002278 0.290657
vt 0.003995 0.288782
vt 0.014361 0.268649
vt 0.001802 0.266701
vt 0.007208 0.260796
vt 0.010325 0.257393
vt 0.002581 0.265850
vt 0.026187 0.240068
vt 0.030861 0.234963
vt 0.034007 0.231527
vt 0.012422 0.255102
vt 0.003106 0.265277
vt 0.006768 0.261278
vt 0.025526 0.240790
vt 0.001692 0.266821
vt 0.001896 0.266599
vt 0.007583 0.260387
vt 0.026750 0.239454
vt 0.008236 0.259674
vt 0.027729 0.238385
vt 0.002059 0.266420
vt 0.002220 0.266245
vt 0.008879 0.258971
vt 0.028005 0.238082
vt 0.221198 0.027080
vt 0.239713 0.006859
vt 0.240728 0.005750
vt 0.222721 0.025416
vt 0.244422 0.001715
vt 0.244676 0.001437
vt 0.244783 0.001321
vt 0.241153 0.005286
vt 0.223359 0.024720
vt 0.237640 0.009122
vt 0.243904 0.002281
vt 0.218089 0.030475
vt 0.215946 0.032816
vt 0.236211 0.010683
vt 0.243547 0.002671
vt 0.237126 0.009684
vt 0.243776 0.002421
vt 0.217318 0.031318
vt 0.219139 0.029329
vt 0.238340 0.008358
vt 0.244079 0.002089
vt 0.009667 0.258111
vt 0.027123 0.239046
vt 0.002417 0.266030
vt 0.002735 0.265682
vt 0.010940 0.256720
vt 0.021639 0.245035
vt 0.237810 0.008937
vt 0.243947 0.002234
vt 0.218344 0.030198
vt 0.208412 0.041045
vt 0.222581 0.025569
vt 0.229154 0.018391
vt 0.013042 0.254425
vt 0.031342 0.234438
vt 0.003261 0.265108
vt 0.010677 0.257007
vt 0.019650 0.247207
vt 0.029690 0.236242
vt 0.179701 0.072402
vt 0.185477 0.066094
vt 0.176457 0.075945
vt 0.125393 0.131717
vt 0.128464 0.128363
vt 0.130459 0.126184
vt 0.088164 0.172378
vt 0.090368 0.169971
vt 0.079122 0.182254
vt 0.059320 0.203881
vt 0.057318 0.206068
vt 0.060235 0.202881
vt 0.034445 0.231049
vt 0.031671 0.234079
vt 0.042722 0.222009
vt 0.025150 0.241201
vt 0.006517 0.261551
vt 0.005438 0.262730
vt 0.023531 0.242969
vt 0.001629 0.266890
vt 0.001360 0.267184
vt 0.001557 0.266969
vt 0.006227 0.261868
vt 0.024715 0.241675
vt 0.008545 0.259337
vt 0.002136 0.266336
vt 0.028192 0.237879
vt 0.028949 0.237052
vt 0.008883 0.258967
vt 0.001659 0.266858
vt 0.244868 0.001228
vt 0.241494 0.004914
vt 0.241692 0.004697
vt 0.244917 0.001174
vt 0.223870 0.024162
vt 0.224167 0.023837
vt 0.224078 0.023935
vt 0.241632 0.004762
vt 0.244902 0.001191
vt 0.240899 0.005563
vt 0.222977 0.025137
vt 0.244719 0.001391
vt 0.244449 0.001686
vt 0.240221 0.006304
vt 0.221868 0.026348
vt 0.009806 0.257960
vt 0.002452 0.265992
vt 0.030083 0.235813
vt 0.241453 0.004957
vt 0.223809 0.024228
vt 0.244858 0.001239
vt 0.060637 0.202442
vt 0.088819 0.171662
vt 0.053624 0.210102
vt 0.066848 0.195659
vt 0.070669 0.191485
vt 0.087777 0.172800
vt 0.128405 0.128428
vt 0.132007 0.124493
vt 0.179848 0.072241
vt 0.193218 0.057639
vt 0.209371 0.039997
vt 0.225972 0.021866
vt 0.237095 0.009718
vt 0.232799 0.014410
vt 0.123228 0.134081
vt 0.068707 0.193629
vt 0.068266 0.194110
vt 0.122600 0.134767
vt 0.069082 0.193219
vt 0.122447 0.134935
vt 0.178215 0.074026
vt 0.176142 0.076290
vt 0.174713 0.077850
vt 0.069734 0.192507
vt 0.122839 0.134507
vt 0.067626 0.194810
vt 0.122615 0.134751
vt 0.175628 0.076851
vt 0.176842 0.075525
vt 0.176311 0.076105
vt 0.120615 0.136935
vt 0.247424 0.018571
vt 0.988931 0.725818
vt 0.010954 0.354607
vt 0.019527 0.271818
vt 0.062645 0.200249
vt 0.062629 0.200267
vt 0.121764 0.135680
vt 0.123008 0.134322
vt 0.181380 0.070568
vt 0.183408 0.068353
vt 0.060157 0.202966
vt 0.123501 0.133784
vt 0.123859 0.133392
vt 0.070043 0.192169
vt 0.068015 0.194384
vt 0.122769 0.134583
vt 0.069989 0.192229
vt 0.179401 0.072731
vt 0.178057 0.074198
vt 0.179995 0.072081
vt 0.124892 0.132264
vt 0.124313 0.132896
vt 0.071304 0.190792
vt 0.073920 0.187935
vt 0.123463 0.133825
vt 0.067725 0.194701
vt 0.179956 0.072124
vt 0.180134 0.071929
vt 0.179655 0.072452
vt 0.071823 0.190225
vt 0.124262 0.132952
vt 0.179230 0.072917
vt 0.066936 0.195563
vt 0.123280 0.134024
vt 0.180194 0.071864
vt 0.263734 0.000758
vt 0.261877 0.002786
vt 0.318527 0.001316
vt 0.319431 0.000329
vt 0.244058 0.014999
vt 0.317925 0.001973
vt 0.404629 0.011509
vt 0.404876 0.011380
vt 0.405247 0.011187
vt 0.514034 0.044206
vt 0.514613 0.044418
vt 0.513648 0.044065
vt 0.621315 0.092137
vt 0.621899 0.092354
vt 0.622776 0.092679
vt 0.704369 0.148385
vt 0.704982 0.148626
vt 0.703961 0.148225
vt 0.774035 0.213540
vt 0.774112 0.213482
vt 0.774229 0.213394
vt 0.843795 0.288823
vt 0.843514 0.288116
vt 0.843982 0.289295
vt 0.906493 0.374223
vt 0.906179 0.373314
vt 0.905708 0.371951
vt 0.954028 0.465856
vt 0.953678 0.464055
vt 0.954262 0.467057
vt 0.985088 0.559386
vt 0.985046 0.558079
vt 0.984982 0.556120
vt 0.996935 0.641612
vt 0.997176 0.639837
vt 0.996774 0.642796
vt 0.988574 0.726939
vt 0.988862 0.726043
vt 0.989294 0.724699
vt 0.959994 0.820960
vt 0.960369 0.820200
vt 0.959744 0.821467
vt 0.912656 0.905351
vt 0.912671 0.905249
vt 0.912694 0.905095
vt 0.849231 0.957793
vt 0.848557 0.958139
vt 0.849680 0.957563
vt 0.776473 0.984990
vt 0.775509 0.985377
vt 0.774063 0.985957
vt 0.697340 0.994781
vt 0.695316 0.995174
vt 0.698690 0.994520
vt 0.608893 0.984885
vt 0.607401 0.984910
vt 0.605163 0.984946
vt 0.498366 0.954664
vt 0.496450 0.954432
vt 0.499643 0.954819
vt 0.383806 0.903726
vt 0.382954 0.903528
vt 0.381675 0.903230
vt 0.273880 0.830982
vt 0.273332 0.830940
vt 0.274246 0.831010
vt 0.183236 0.749946
vt 0.183277 0.750192
vt 0.183337 0.750563
vt 0.123274 0.674323
vt 0.123608 0.675099
vt 0.123051 0.673806
vt 0.082142 0.598909
vt 0.082381 0.599529
vt 0.082739 0.600459
vt 0.049108 0.521965
vt 0.049328 0.522554
vt 0.048962 0.521573
vt 0.024984 0.440354
vt 0.024866 0.440621
vt 0.024688 0.441023
vt 0.011063 0.354488
vt 0.010133 0.355504
vt 0.011683 0.353811
vt 0.014529 0.268465
vt 0.003855 0.288935
vt 0.002082 0.290871
vt 0.026687 0.239522
vt 0.007542 0.260432
vt 0.010472 0.257232
vt 0.031082 0.234722
vt 0.001886 0.266610
vt 0.002618 0.265810
vt 0.003163 0.265215
vt 0.012649 0.254854
vt 0.034348 0.231154
vt 0.007938 0.259999
vt 0.001985 0.266502
vt 0.027282 0.238872
vt 0.028797 0.237217
vt 0.008949 0.258896
vt 0.002237 0.266226
vt 0.007860 0.260084
vt 0.001965 0.266523
vt 0.027165 0.239000
vt 0.025337 0.240997
vt 0.006871 0.261165
vt 0.001718 0.266793
vt 0.221493 0.026758
vt 0.239909 0.006644
vt 0.238729 0.007933
vt 0.219722 0.028692
vt 0.244472 0.001661
vt 0.244177 0.001983
vt 0.243873 0.002314
vt 0.237516 0.009258
vt 0.217903 0.030679
vt 0.240630 0.005856
vt 0.244652 0.001464
vt 0.222575 0.025576
vt 0.223219 0.024872
vt 0.241060 0.005387
vt 0.244759 0.001347
vt 0.236698 0.010151
vt 0.216676 0.032018
vt 0.243669 0.002538
vt 0.243583 0.002632
vt 0.236355 0.010526
vt 0.216161 0.032581
vt 0.008177 0.259739
vt 0.002044 0.266437
vt 0.026264 0.239984
vt 0.021325 0.245379
vt 0.010640 0.257049
vt 0.002660 0.265764
vt 0.236565 0.010296
vt 0.216477 0.032236
vt 0.243636 0.002574
vt 0.013120 0.254339
vt 0.003280 0.265087
vt 0.032444 0.233234
vt 0.034366 0.231135
vt 0.021575 0.245105
vt 0.011159 0.256482
vt 0.041958 0.222843
vt 0.033549 0.232027
vt 0.053118 0.210654
vt 0.025347 0.240985
vt 0.006649 0.261408
vt 0.008718 0.259147
vt 0.028452 0.237595
vt 0.001662 0.266854
vt 0.002180 0.266289
vt 0.001467 0.267067
vt 0.008763 0.259099
vt 0.029044 0.236948
vt 0.005546 0.262612
vt 0.001387 0.267155
vt 0.023693 0.242792
vt 0.024897 0.241477
vt 0.006349 0.261735
vt 0.001587 0.266936
vt 0.223739 0.024305
vt 0.241406 0.005009
vt 0.241608 0.004788
vt 0.224042 0.023974
vt 0.244846 0.001252
vt 0.244896 0.001197
vt 0.244881 0.001214
vt 0.241547 0.004855
vt 0.223950 0.024074
vt 0.240800 0.005671
vt 0.244694 0.001418
vt 0.222830 0.025298
vt 0.221856 0.026361
vt 0.240201 0.006326
vt 0.244488 0.001643
vt 0.009996 0.257752
vt 0.030368 0.235502
vt 0.002499 0.265940
vt 0.241365 0.005054
vt 0.244836 0.001263
vt 0.223677 0.024372
vt 0.069040 0.193265
vt 0.069436 0.192832
vt 0.123361 0.133936
vt 0.123165 0.134150
vt 0.123114 0.134206
vt 0.070447 0.191729
vt 0.178411 0.073812
vt 0.177231 0.075101
vt 0.176018 0.076425
vt 0.069358 0.192917
vt 0.122638 0.134726
vt 0.121961 0.135466
vt 0.066993 0.195500
vt 0.175200 0.077318
vt 0.174856 0.077694
vt 0.175067 0.077464
vt 0.121308 0.136178
vt 0.181528 0.070407
vt 0.183290 0.068483
vt 0.247246 0.018765
vt 0.122174 0.135233
vt 0.123005 0.134325
vt 0.062960 0.199905
vt 0.062738 0.200148
vt 0.019690 0.271639
vt 0.382954 0.903527
vt 0.064173 0.198580
vt 0.070216 0.191980
vt 0.068147 0.194241
vt 0.070324 0.191862
vt 0.123205 0.134107
vt 0.123878 0.133372
vt 0.123512 0.133772
vt 0.179302 0.072838
vt 0.179908 0.072176
vt 0.178287 0.073947
vt 0.071494 0.190585
vt 0.074147 0.187687
vt 0.067847 0.194568
vt 0.123472 0.133815
vt 0.124338 0.132869
vt 0.124925 0.132228
vt 0.179867 0.072221
vt 0.179562 0.072554
vt 0.180049 0.072022
vt 0.071970 0.190065
vt 0.124274 0.132939
vt 0.179132 0.073024
vt 0.067044 0.195445
vt 0.123287 0.134018
vt 0.180110 0.071956
vt 0.319732 0.000000
vt 0.264323 0.000114
vt 0.405370 0.011122
vt 0.514806 0.044489
vt 0.623068 0.092788
vt 0.705186 0.148707
vt 0.774267 0.213364
vt 0.843421 0.287880
vt 0.905551 0.371496
vt 0.953561 0.463454
vt 0.984960 0.555466
vt 0.997256 0.639245
vt 0.989438 0.724251
vt 0.960495 0.819947
vt 0.912701 0.905044
vt 0.848332 0.958254
vt 0.773581 0.986150
vt 0.694641 0.995304
vt 0.604417 0.984959
vt 0.495812 0.954354
vt 0.381248 0.903130
vt 0.273149 0.830926
vt 0.183357 0.750686
vt 0.123719 0.675357
vt 0.082859 0.600769
vt 0.049401 0.522750
vt 0.024629 0.441156
vt 0.009823 0.355843
vt 0.001598 0.291399
vt 0.000000 0.268669
vt 0.245992 0.000000
vt 0.007687 0.260274
vt 0.030746 0.235089
vt -0.000857 0.269605
vt 0.245888 0.000114
vt 0.118645 0.139087
vt 0.064822 0.197872
vt 0.115666 0.142341
vt 0.059863 0.203288
vt 0.017952 0.249062
vt 0.023715 0.242769
vt 0.221184 0.027096
vt 0.174577 0.077998
vt 0.175611 0.076869
vt 0.220921 0.027383
vt 0.177469 0.074841
vt 0.223707 0.024340
vt 0.118011 0.139779
vt 0.241630 0.004765
vt 0.244499 0.001631
vt 0.240070 0.006468
vt 0.243907 0.002277
vt 0.245574 0.000457
vt 0.244723 0.001386
vt 0.245365 0.000686
vt 0.244277 0.001873
vt -0.003429 0.272415
vt -0.002123 0.270988
vt -0.003046 0.271996
vt -0.004605 0.273698
vt -0.005144 0.274287
vt -0.003193 0.272156
vt 0.000502 0.268121
vt 0.017126 0.249964
vt 0.000720 0.267883
vt 0.060430 0.202669
vt 0.178651 0.073550
vt 0.119663 0.137975
vt 0.224053 0.023961
vt 0.221905 0.026308
vt 0.176485 0.075915
vt 0.118150 0.139628
vt 0.241814 0.004564
vt 0.240480 0.006021
vt 0.061147 0.201885
vt 0.016569 0.250572
vt 0.060830 0.202231
vt 0.016955 0.250151
vt -0.000604 0.269329
vt -0.001048 0.269813
vt 0.004894 0.263324
vt -0.001025 0.269789
vt 0.239773 0.006793
vt 0.244034 0.002138
vt 0.003791 0.264529
vt -0.001947 0.270796
vt 0.023163 0.243372
vt 0.240018 0.006525
vt 0.221360 0.026903
vt 0.244274 0.001877
vt 0.065543 0.197085
vt 0.120313 0.137265
vt -0.003429 0.272414
vt 0.176855 0.075511
s 1
usemtl initialShadingGroup
f 11/1/1 370/2/2 561/3/3 385/4/4
f 12/5/5 371/6/6 561/3/3 370/2/2
f 13/7/7 372/8/8 561/3/3 371/6/6
f 14/9/9 373/10/10 561/3/3 372/8/8
f 15/11/11 374/12/12 561/3/3 373/10/10
f 16/13/13 375/14/14 561/3/3 374/12/12
f 17/15/15 376/16/16 561/3/3 375/14/14
f 18/17/17 377/18/18 561/3/3 376/16/16
f 19/19/19 378/20/20 561/3/3 377/18/18
f 20/21/21 379/22/22 561/3/3 378/20/20
f 21/23/23 380/24/24 561/3/3 379/22/22
f 22/25/25 381/26/26 561/3/3 380/24/24
f 23/27/27 382/28/28 561/3/3 381/26/26
f 24/29/29 383/30/30 561/3/3 382/28/28
f 25/31/31 384/32/32 561/3/3 383/30/30
f 26/33/33 385/4/4 561/3/3 384/32/32
f 28/34/34 386/35/35 562/3/36 401/36/37
f 27/37/38 387/38/39 562/3/36 386/35/35
f 29/39/40 388/40/41 562/3/36 387/38/39
f 30/41/42 389/42/43 562/3/36 388/40/41
f 31/43/44 390/44/45 562/3/36 389/42/43
f 32/45/46 391/46/47 562/3/36 390/44/45
f 33/47/48 392/48/49 562/3/36 391/46/47
f 34/49/50 393/50/51 562/3/36 392/48/49
f 35/51/52 394/52/53 562/3/36 393/50/51
f 36/53/54 395/54/55 562/3/36 394/52/53
f 37/55/56 396/56/57 562/3/36 395/54/55
f 38/57/58 397/58/59 562/3/36 396/56/57
f 39/59/60 398/60/61 562/3/36 397/58/59
f 40/61/62 399/62/63 562/3/36 398/60/61
f 41/63/64 400/64/65 562/3/36 399/62/63
f 42/65/66 401/36/37 562/3/36 400/64/65
f 52/66/67 402/67/68 563/68/69 405/69/70
f 402/67/68 51/70/71 403/71/72 563/68/69
f 563/68/69 403/71/72 53/72/73 404/73/74
f 405/69/70 563/68/69 404/73/74 54/74/75
f 54/74/75 404/73/74 564/75/76 408/76/77
f 404/73/74 53/72/73 406/77/78 564/75/76
f 564/75/76 406/77/78 55/78/79 407/79/80
f 408/76/77 564/75/76 407/79/80 56/80/81
f 56/80/81 407/79/80 565/81/82 411/82/83
f 407/79/80 55/78/79 409/83/84 565/81/82
f 565/81/82 409/83/84 57/84/85 410/85/86
f 411/82/83 565/81/82 410/85/86 58/86/87
f 58/86/87 410/85/86 566/87/88 414/88/89
f 410/85/86 57/84/85 412/89/90 566/87/88
f 566/87/88 412/89/90 59/90/91 413/91/92
f 414/88/89 566/87/88 413/91/92 60/92/93
f 60/92/93 413/91/92 567/93/94 417/94/95
f 413/91/92 59/90/91 415/95/96 567/93/94
f 567/93/94 415/95/96 61/96/97 416/97/98
f 417/94/95 567/93/94 416/97/98 62/98/99
f 62/98/99 416/97/98 568/99/100 420/100/101
f 416/97/98 61/96/97 418/101/102 568/99/100
f 568/99/100 418/101/102 63/102/103 419/103/104
f 420/100/101 568/99/100 419/103/104 64/104/105
f 64/104/105 419/103/104 569/105/106 423/106/107
f 419/103/104 63/102/103 421/107/108 569/105/106
f 569/105/106 421/107/108 65/108/109 422/109/110
f 423/106/107 569/105/106 422/109/110 66/110/111
f 66/110/111 422/109/110 570/111/112 426/112/113
f 422/109/110 65/108/109 424/113/114 570/111/112
f 570/111/112 424/113/114 67/114/115 425/115/116
f 426/112/113 570/111/112 425/115/116 68/116/117
f 68/116/117 425/115/116 571/117/118 429/118/119
f 425/115/116 67/114/115 427/119/120 571/117/118
f 571/117/118 427/119/120 69/120/121 428/121/122
f 429/118/119 571/117/118 428/121/122 70/122/123
f 70/122/123 428/121/122 572/123/124 432/124/125
f 428/121/122 69/120/121 430/125/126 572/123/124
f 572/123/124 430/125/126 71/126/127 431/127/128
f 432/124/125 572/123/124 431/127/128 72/128/129
f 72/128/129 431/127/128 573/129/130 435/130/131
f 431/127/128 71/126/127 433/131/132 573/129/130
f 573/129/130 433/131/132 73/132/133 434/133/134
f 435/130/131 573/129/130 434/133/134 74/134/135
f 74/134/135 434/133/134 574/135/136 438/136/137
f 434/133/134 73/132/133 436/137/138 574/135/136
f 574/135/136 436/137/138 75/138/139 437/139/140
f 438/136/137 574/135/136 437/139/140 76/140/141
f 76/140/141 437/139/140 575/141/142 441/142/143
f 437/139/140 75/138/139 439/143/144 575/141/142
f 575/141/142 439/143/144 77/144/145 440/145/146
f 441/142/143 575/141/142 440/145/146 78/146/147
f 78/146/147 440/145/146 576/147/148 444/148/149
f 440/145/146 77/144/145 442/149/150 576/147/148
f 576/147/148 442/149/150 79/150/151 443/151/152
f 444/148/149 576/147/148 443/151/152 80/152/153
f 81/153/154 445/154/155 577/155/156 448/156/157
f 445/154/155 82/157/158 446/158/159 577/155/156
f 577/155/156 446/158/159 115/159/160 447/160/161
f 448/156/157 577/155/156 447/160/161 116/161/162
f 82/157/158 445/154/155 578/162/163 451/163/164
f 445/154/155 81/153/154 449/164/165 578/162/163
f 578/162/163 449/164/165 84/165/166 450/166/167
f 451/163/164 578/162/163 450/166/167 83/167/168
f 83/167/168 450/166/167 579/168/169 454/169/170
f 450/166/167 84/165/166 452/170/171 579/168/169
f 579/168/169 452/170/171 90/171/172 453/172/173
f 454/169/170 579/168/169 453/172/173 89/173/174
f 85/174/175 455/175/176 580/176/177 458/177/178
f 455/175/176 86/178/179 456/179/180 580/176/177
f 580/176/177 456/179/180 119/180/181 457/181/182
f 458/177/178 580/176/177 457/181/182 120/182/183
f 86/178/179 455/175/176 581/183/184 461/184/185
f 455/175/176 85/174/175 459/185/186 581/183/184
f 581/183/184 459/185/186 88/186/187 460/187/188
f 461/184/185 581/183/184 460/187/188 87/188/189
f 87/188/189 460/187/188 582/189/190 464/190/191
f 460/187/188 88/186/187 462/191/192 582/189/190
f 582/189/190 462/191/192 92/192/193 463/193/194
f 464/190/191 582/189/190 463/193/194 91/194/195
f 89/173/174 453/172/173 583/195/196 467/196/197
f 453/172/173 90/171/172 465/197/198 583/195/196
f 583/195/196 465/197/198 94/198/199 466/199/200
f 467/196/197 583/195/196 466/199/200 93/200/201
f 91/194/195 463/193/194 584/201/202 470/202/203
f 463/193/194 92/192/193 468/203/204 584/201/202
f 584/201/202 468/203/204 96/204/205 469/205/206
f 470/202/203 584/201/202 469/205/206 95/206/207
f 93/200/201 466/199/200 585/207/208 473/208/209
f 466/199/200 94/198/199 471/209/210 585/207/208
f 585/207/208 471/209/210 106/210/211 472/211/212
f 473/208/209 585/207/208 472/211/212 105/212/213
f 95/206/207 469/205/206 586/213/214 476/214/215
f 469/205/206 96/204/205 474/215/216 586/213/214
f 586/213/214 474/215/216 98/216/217 475/217/218
f 476/214/215 586/213/214 475/217/218 97/218/219
f 97/218/219 475/217/218 587/219/220 479/220/221
f 475/217/218 98/216/217 477/221/222 587/219/220
f 587/219/220 477/221/222 104/222/223 478/223/224
f 479/220/221 587/219/220 478/223/224 103/224/225
f 103/224/225 478/223/224 588/225/226 481/226/227
f 478/223/224 104/222/223 480/227/228 588/225/226
f 588/225/226 480/227/228 105/212/213 472/211/212
f 481/226/227 588/225/226 472/211/212 106/210/211
f 107/228/229 482/229/230 589/230/231 485/231/232
f 482/229/230 108/232/233 483/233/234 589/230/231
f 589/230/231 483/233/234 117/234/235 484/235/236
f 485/231/232 589/230/231 484/235/236 118/236/237
f 108/232/233 482/229/230 590/237/238 488/238/239
f 482/229/230 107/228/229 486/239/240 590/237/238
f 590/237/238 486/239/240 110/240/241 487/241/242
f 488/238/239 590/237/238 487/241/242 109/242/243
f 111/243/244 489/244/245 591/245/246 492/246/247
f 489/244/245 112/247/248 490/248/249 591/245/246
f 591/245/246 490/248/249 121/249/250 491/250/251
f 492/246/247 591/245/246 491/250/251 122/251/252
f 112/247/248 489/244/245 592/252/253 495/253/254
f 489/244/245 111/243/244 493/254/255 592/252/253
f 592/252/253 493/254/255 114/255/256 494/256/257
f 495/253/254 592/252/253 494/256/257 113/257/258
f 116/161/162 447/160/161 593/258/259 497/259/260
f 447/160/161 115/159/160 496/260/261 593/258/259
f 593/258/259 496/260/261 118/236/237 484/235/236
f 497/259/260 593/258/259 484/235/236 117/234/235
f 120/182/183 457/181/182 594/261/262 499/262/263
f 457/181/182 119/180/181 498/263/264 594/261/262
f 594/261/262 498/263/264 122/251/252 491/250/251
f 499/262/263 594/261/262 491/250/251 121/249/250
f 103/224/225 500/264/265 595/265/266 479/220/221
f 175/266/267 501/267/268 595/265/266 500/264/265
f 176/268/269 502/269/270 595/265/266 501/267/268
f 9/270/271 503/271/272 595/265/266 502/269/270
f 97/218/219 479/220/221 595/265/266 503/271/272
f 9/270/271 504/272/273 596/273/274 503/271/272
f 168/274/275 505/275/276 596/273/274 504/272/273
f 167/276/277 506/277/278 596/273/274 505/275/276
f 95/206/207 476/214/215 596/273/274 506/277/278
f 97/218/219 503/271/272 596/273/274 476/214/215
f 4/278/279 507/279/280 597/280/281 509/281/282
f 507/279/280 82/157/158 451/163/164 597/280/281
f 597/280/281 451/163/164 83/167/168 508/282/283
f 509/281/282 597/280/281 508/282/283 6/283/284
f 85/174/175 510/284/285 598/285/286 459/185/186
f 510/284/285 4/278/279 509/281/282 598/285/286
f 598/285/286 509/281/282 6/283/284 511/286/287
f 459/185/186 598/285/286 511/286/287 88/186/187
f 6/283/284 508/282/283 599/287/288 513/288/289
f 508/282/283 83/167/168 454/169/170 599/287/288
f 599/287/288 454/169/170 89/173/174 512/289/290
f 513/288/289 599/287/288 512/289/290 8/290/291
f 88/186/187 511/286/287 600/291/292 462/191/192
f 511/286/287 6/283/284 513/288/289 600/291/292
f 600/291/292 513/288/289 8/290/291 514/292/293
f 462/191/192 600/291/292 514/292/293 92/192/193
f 92/192/193 514/292/293 601/293/294 468/203/204
f 514/292/293 8/290/291 515/294/295 601/293/294
f 601/293/294 515/294/295 98/216/217 474/215/216
f 468/203/204 601/293/294 474/215/216 96/204/205
f 52/66/67 405/69/70 602/68/296 517/295/297
f 405/69/70 54/74/75 516/73/298 602/68/296
f 602/68/296 516/73/298 12/5/5 370/2/2
f 517/295/297 602/68/296 370/2/2 11/1/1
f 54/74/75 408/76/77 603/75/299 516/73/298
f 408/76/77 56/80/81 518/79/300 603/75/299
f 603/75/299 518/79/300 13/7/7 371/6/6
f 516/73/298 603/75/299 371/6/6 12/5/5
f 56/80/81 411/82/83 604/81/301 518/79/300
f 411/82/83 58/86/87 519/85/302 604/81/301
f 604/81/301 519/85/302 14/9/9 372/8/8
f 518/79/300 604/81/301 372/8/8 13/7/7
f 58/86/87 414/88/89 605/87/303 519/85/302
f 414/88/89 60/92/93 520/91/304 605/87/303
f 605/87/303 520/91/304 15/11/11 373/10/10
f 519/85/302 605/87/303 373/10/10 14/9/9
f 60/92/93 417/94/95 606/93/305 520/91/304
f 417/94/95 62/98/99 521/97/306 606/93/305
f 606/93/305 521/97/306 16/13/13 374/12/12
f 520/91/304 606/93/305 374/12/12 15/11/11
f 62/98/99 420/100/101 607/99/307 521/97/306
f 420/100/101 64/104/105 522/296/308 607/99/307
f 607/99/307 522/296/308 17/15/15 375/14/14
f 521/97/306 607/99/307 375/14/14 16/13/13
f 64/104/105 423/106/107 608/105/309 522/296/308
f 423/106/107 66/110/111 523/109/310 608/105/309
f 608/105/309 523/109/310 18/17/17 376/16/16
f 522/296/308 608/105/309 376/16/16 17/15/15
f 66/110/111 426/112/113 609/111/311 523/109/310
f 426/112/113 68/116/117 524/115/312 609/111/311
f 609/111/311 524/115/312 19/19/19 377/18/18
f 523/109/310 609/111/311 377/18/18 18/17/17
f 68/116/117 429/118/119 610/117/313 524/115/312
f 429/118/119 70/122/123 525/121/314 610/117/313
f 610/117/313 525/121/314 20/21/21 378/20/20
f 524/115/312 610/117/313 378/20/20 19/19/19
f 70/122/123 432/124/125 611/123/315 525/121/314
f 432/124/125 72/128/129 526/127/316 611/123/315
f 611/123/315 526/127/316 21/23/23 379/22/22
f 525/121/314 611/123/315 379/22/22 20/21/21
f 72/128/129 435/130/131 612/129/317 526/127/316
f 435/130/131 74/134/135 527/133/318 612/129/317
f 612/129/317 527/133/318 22/25/25 380/24/24
f 526/127/316 612/129/317 380/24/24 21/23/23
f 74/134/135 438/136/137 613/135/319 527/133/318
f 438/136/137 76/140/141 528/139/320 613/135/319
f 613/135/319 528/139/320 23/27/27 381/26/26
f 527/133/318 613/135/319 381/26/26 22/25/25
f 76/140/141 441/142/143 614/141/321 528/139/320
f 441/142/143 78/146/147 529/145/322 614/141/321
f 614/141/321 529/145/322 24/29/29 382/28/28
f 528/139/320 614/141/321 382/28/28 23/27/27
f 78/146/147 444/148/149 615/297/323 529/145/322
f 444/148/149 80/152/153 530/298/324 615/297/323
f 615/297/323 530/298/324 25/31/31 383/30/30
f 529/145/322 615/297/323 383/30/30 24/29/29
f 80/152/153 531/299/325 616/300/326 530/298/324
f 531/299/325 2/301/327 532/302/328 616/300/326
f 616/300/326 532/302/328 26/33/33 384/32/32
f 530/298/324 616/300/326 384/32/32 25/31/31
f 2/301/327 533/303/329 617/304/330 532/302/328
f 533/303/329 52/66/67 517/295/297 617/304/330
f 617/304/330 517/295/297 11/1/1 385/4/4
f 532/302/328 617/304/330 385/4/4 26/33/33
f 105/212/213 480/227/228 618/305/331 473/208/209
f 104/222/223 477/221/222 618/305/331 480/227/228
f 98/216/217 515/294/295 618/305/331 477/221/222
f 8/290/291 512/289/290 618/305/331 515/294/295
f 89/173/174 467/196/197 618/305/331 512/289/290
f 93/200/201 473/208/209 618/305/331 467/196/197
f 45/306/332 534/307/333 619/308/334 536/309/335
f 534/307/333 46/310/336 535/311/337 619/308/334
f 619/308/334 535/311/337 110/240/241 486/239/240
f 536/309/335 619/308/334 486/239/240 107/228/229
f 46/310/336 534/307/333 620/312/338 538/313/339
f 534/307/333 45/306/332 537/314/340 620/312/338
f 620/312/338 537/314/340 112/247/248 495/253/254
f 538/313/339 620/312/338 495/253/254 113/257/258
f 49/315/341 539/316/341 621/317/342 541/318/343
f 539/316/341 50/319/341 540/320/344 621/317/342
f 621/317/342 540/320/344 118/236/237 496/260/261
f 541/318/343 621/317/342 496/260/261 115/159/160
f 50/319/341 539/316/341 622/321/345 543/322/346
f 539/316/341 49/315/341 542/323/347 622/321/345
f 622/321/345 542/323/347 120/182/183 499/262/263
f 543/322/346 622/321/345 499/262/263 121/249/250
f 49/315/341 541/318/343 623/324/348 544/325/349
f 541/318/343 115/159/160 446/158/159 623/324/348
f 623/324/348 446/158/159 82/157/158 507/279/280
f 544/325/349 623/324/348 507/279/280 4/278/279
f 120/182/183 542/323/347 624/326/350 458/177/178
f 542/323/347 49/315/341 544/325/349 624/326/350
f 624/326/350 544/325/349 4/278/279 510/284/285
f 458/177/178 624/326/350 510/284/285 85/174/175
f 45/306/332 536/309/335 625/327/351 545/328/352
f 536/309/335 107/228/229 485/231/232 625/327/351
f 625/327/351 485/231/232 118/236/237 540/320/344
f 545/328/352 625/327/351 540/320/344 50/319/341
f 112/247/248 537/314/340 626/329/353 490/248/249
f 537/314/340 45/306/332 545/328/352 626/329/353
f 626/329/353 545/328/352 50/319/341 543/322/346
f 490/248/249 626/329/353 543/322/346 121/249/250
f 124/330/354 546/331/355 627/332/356 549/333/357
f 546/331/355 123/334/358 547/335/359 627/332/356
f 627/332/356 547/335/359 125/336/360 548/337/361
f 549/333/357 627/332/356 548/337/361 126/338/362
f 126/338/362 548/337/361 628/339/363 552/340/364
f 548/337/361 125/336/360 550/341/365 628/339/363
f 628/339/363 550/341/365 127/342/366 551/343/367
f 552/340/364 628/339/363 551/343/367 128/344/368
f 128/344/368 551/343/367 629/345/369 555/346/370
f 551/343/367 127/342/366 553/347/371 629/345/369
f 629/345/369 553/347/371 129/348/372 554/349/373
f 555/346/370 629/345/369 554/349/373 130/350/374
f 130/350/374 554/349/373 630/351/375 558/352/376
f 554/349/373 129/348/372 556/353/377 630/351/375
f 630/351/375 556/353/377 131/354/378 557/355/379
f 558/352/376 630/351/375 557/355/379 132/356/380
f 132/356/380 557/355/379 631/357/381 194/358/382
f 557/355/379 131/354/378 559/359/383 631/357/381
f 631/357/381 559/359/383 133/360/384 560/361/385
f 194/358/382 631/357/381 560/361/385 134/362/386
f 134/362/386 560/361/385 632/363/387 197/364/388
f 560/361/385 133/360/384 195/365/389 632/363/387
f 632/363/387 195/365/389 135/366/390 196/367/391
f 197/364/388 632/363/387 196/367/391 136/368/392
f 136/368/392 196/367/391 633/369/393 200/370/394
f 196/367/391 135/366/390 198/371/395 633/369/393
f 633/369/393 198/371/395 137/372/396 199/373/397
f 200/370/394 633/369/393 199/373/397 138/374/398
f 138/374/398 199/373/397 634/375/399 203/376/400
f 199/373/397 137/372/396 201/377/401 634/375/399
f 634/375/399 201/377/401 139/378/402 202/379/403
f 203/376/400 634/375/399 202/379/403 140/380/404
f 140/380/404 202/379/403 635/381/405 206/382/406
f 202/379/403 139/378/402 204/383/407 635/381/405
f 635/381/405 204/383/407 141/384/408 205/385/409
f 206/382/406 635/381/405 205/385/409 142/386/410
f 142/386/410 205/385/409 636/387/411 209/388/412
f 205/385/409 141/384/408 207/389/413 636/387/411
f 636/387/411 207/389/413 143/390/414 208/391/415
f 209/388/412 636/387/411 208/391/415 144/392/416
f 144/392/416 208/391/415 637/393/417 212/394/418
f 208/391/415 143/390/414 210/395/419 637/393/417
f 637/393/417 210/395/419 145/396/420 211/397/421
f 212/394/418 637/393/417 211/397/421 146/398/422
f 146/398/422 211/397/421 638/399/423 215/400/424
f 211/397/421 145/396/420 213/401/425 638/399/423
f 638/399/423 213/401/425 147/402/426 214/403/427
f 215/400/424 638/399/423 214/403/427 148/404/428
f 148/404/428 214/403/427 639/405/429 218/406/430
f 214/403/427 147/402/426 216/407/431 639/405/429
f 639/405/429 216/407/431 149/408/432 217/409/433
f 218/406/430 639/405/429 217/409/433 150/410/434
f 150/410/434 217/409/433 640/411/435 221/412/436
f 217/409/433 149/408/432 219/413/437 640/411/435
f 640/411/435 219/413/437 151/414/438 220/415/439
f 221/412/436 640/411/435 220/415/439 152/416/440
f 153/417/441 222/418/442 641/419/443 225/420/444
f 222/418/442 154/421/445 223/422/446 641/419/443
f 641/419/443 223/422/446 186/423/447 224/424/448
f 225/420/444 641/419/443 224/424/448 185/425/449
f 154/421/445 222/418/442 642/426/450 228/427/451
f 222/418/442 153/417/441 226/428/452 642/426/450
f 642/426/450 226/428/452 155/429/453 227/430/454
f 228/427/451 642/426/450 227/430/454 156/431/455
f 156/431/455 227/430/454 643/432/456 231/433/457
f 227/430/454 155/429/453 229/434/458 643/432/456
f 643/432/456 229/434/458 161/435/459 230/436/460
f 231/433/457 643/432/456 230/436/460 162/437/461
f 157/438/462 232/439/463 644/440/464 235/441/465
f 232/439/463 158/442/466 233/443/467 644/440/464
f 644/440/464 233/443/467 160/444/468 234/445/469
f 235/441/465 644/440/464 234/445/469 159/446/470
f 158/442/466 232/439/463 645/447/471 238/448/472
f 232/439/463 157/438/462 236/449/473 645/447/471
f 645/447/471 236/449/473 189/450/474 237/451/475
f 238/448/472 645/447/471 237/451/475 190/452/476
f 159/446/470 234/445/469 646/453/477 241/454/478
f 234/445/469 160/444/468 239/455/479 646/453/477
f 646/453/477 239/455/479 164/456/480 240/457/481
f 241/454/478 646/453/477 240/457/481 163/458/482
f 162/437/461 230/436/460 647/459/483 244/460/484
f 230/436/460 161/435/459 242/461/485 647/459/483
f 647/459/483 242/461/485 165/462/486 243/463/487
f 244/460/484 647/459/483 243/463/487 166/464/488
f 163/458/482 240/457/481 648/465/489 246/466/490
f 240/457/481 164/456/480 245/467/491 648/465/489
f 648/465/489 245/467/491 167/276/277 505/275/276
f 246/466/490 648/465/489 505/275/276 168/274/275
f 166/464/488 243/463/487 649/468/492 249/469/493
f 243/463/487 165/462/486 247/470/494 649/468/492
f 649/468/492 247/470/494 173/471/495 248/472/496
f 249/469/493 649/468/492 248/472/496 174/473/497
f 174/473/497 248/472/496 650/474/498 251/475/499
f 248/472/496 173/471/495 250/476/500 650/474/498
f 650/474/498 250/476/500 176/268/269 501/267/268
f 251/475/499 650/474/498 501/267/268 175/266/267
f 177/477/501 252/478/502 651/479/503 255/480/504
f 252/478/502 178/481/505 253/482/506 651/479/503
f 651/479/503 253/482/506 180/483/507 254/484/508
f 255/480/504 651/479/503 254/484/508 179/485/509
f 178/481/505 252/478/502 652/486/510 258/487/511
f 252/478/502 177/477/501 256/488/512 652/486/510
f 652/486/510 256/488/512 187/489/513 257/490/514
f 258/487/511 652/486/510 257/490/514 188/491/515
f 181/492/516 259/493/517 653/494/518 262/495/519
f 259/493/517 182/496/520 260/497/521 653/494/518
f 653/494/518 260/497/521 192/498/522 261/499/523
f 262/495/519 653/494/518 261/499/523 191/500/524
f 182/496/520 259/493/517 654/501/525 265/502/526
f 259/493/517 181/492/516 263/503/527 654/501/525
f 654/501/525 263/503/527 183/504/528 264/505/529
f 265/502/526 654/501/525 264/505/529 184/506/530
f 185/425/449 224/424/448 655/507/531 267/508/532
f 224/424/448 186/423/447 266/509/533 655/507/531
f 655/507/531 266/509/533 188/491/515 257/490/514
f 267/508/532 655/507/531 257/490/514 187/489/513
f 190/452/476 237/451/475 656/510/534 269/511/535
f 237/451/475 189/450/474 268/512/536 656/510/534
f 656/510/534 268/512/536 191/500/524 261/499/523
f 269/511/535 656/510/534 261/499/523 192/498/522
f 153/417/441 270/513/537 657/514/538 226/428/452
f 270/513/537 3/515/539 271/516/540 657/514/538
f 657/514/538 271/516/540 5/517/541 272/518/542
f 226/428/452 657/514/538 272/518/542 155/429/453
f 3/515/539 273/519/543 658/520/544 271/516/540
f 273/519/543 157/438/462 235/441/465 658/520/544
f 658/520/544 235/441/465 159/446/470 274/521/545
f 271/516/540 658/520/544 274/521/545 5/517/541
f 155/429/453 272/518/542 659/522/546 229/434/458
f 272/518/542 5/517/541 275/523/547 659/522/546
f 659/522/546 275/523/547 7/524/548 276/525/549
f 229/434/458 659/522/546 276/525/549 161/435/459
f 5/517/541 274/521/545 660/526/550 275/523/547
f 274/521/545 159/446/470 241/454/478 660/526/550
f 660/526/550 241/454/478 163/458/482 277/527/551
f 275/523/547 660/526/550 277/527/551 7/524/548
f 7/524/548 277/527/551 661/528/552 278/529/553
f 277/527/551 163/458/482 246/466/490 661/528/552
f 661/528/552 246/466/490 168/274/275 504/272/273
f 278/529/553 661/528/552 504/272/273 9/270/271
f 123/334/358 279/530/554 662/531/555 281/532/556
f 279/530/554 1/533/557 280/534/558 662/531/555
f 662/531/555 280/534/558 27/37/38 386/35/35
f 281/532/556 662/531/555 386/35/35 28/34/34
f 1/533/557 282/535/559 663/536/560 280/534/558
f 282/535/559 151/414/438 283/537/561 663/536/560
f 663/536/560 283/537/561 29/39/40 387/38/39
f 280/534/558 663/536/560 387/38/39 27/37/38
f 151/414/438 219/413/437 664/411/562 283/537/561
f 219/413/437 149/408/432 284/409/563 664/411/562
f 664/411/562 284/409/563 30/41/42 388/40/41
f 283/537/561 664/411/562 388/40/41 29/39/40
f 149/408/432 216/407/431 665/405/564 284/409/563
f 216/407/431 147/402/426 285/403/565 665/405/564
f 665/405/564 285/403/565 31/43/44 389/42/43
f 284/409/563 665/405/564 389/42/43 30/41/42
f 147/402/426 213/401/425 666/399/566 285/403/565
f 213/401/425 145/396/420 286/397/567 666/399/566
f 666/399/566 286/397/567 32/45/46 390/44/45
f 285/403/565 666/399/566 390/44/45 31/43/44
f 145/396/420 210/395/419 667/393/568 286/397/567
f 210/395/419 143/390/414 287/538/569 667/393/568
f 667/393/568 287/538/569 33/47/48 391/46/47
f 286/397/567 667/393/568 391/46/47 32/45/46
f 143/390/414 207/389/413 668/387/570 287/538/569
f 207/389/413 141/384/408 288/385/571 668/387/570
f 668/387/570 288/385/571 34/49/50 392/48/49
f 287/538/569 668/387/570 392/48/49 33/47/48
f 141/384/408 204/383/407 669/381/572 288/385/571
f 204/383/407 139/378/402 289/379/573 669/381/572
f 669/381/572 289/379/573 35/51/52 393/50/51
f 288/385/571 669/381/572 393/50/51 34/49/50
f 139/378/402 201/377/401 670/375/574 289/379/573
f 201/377/401 137/372/396 290/373/575 670/375/574
f 670/375/574 290/373/575 36/53/54 394/52/53
f 289/379/573 670/375/574 394/52/53 35/51/52
f 137/372/396 198/371/395 671/369/576 290/373/575
f 198/371/395 135/366/390 291/367/577 671/369/576
f 671/369/576 291/367/577 37/55/56 395/54/55
f 290/373/575 671/369/576 395/54/55 36/53/54
f 135/366/390 195/365/389 672/363/578 291/367/577
f 195/365/389 133/360/384 292/361/579 672/363/578
f 672/363/578 292/361/579 38/57/58 396/56/57
f 291/367/577 672/363/578 396/56/57 37/55/56
f 133/360/384 559/359/383 673/357/580 292/361/579
f 559/359/383 131/354/378 293/355/581 673/357/580
f 673/357/580 293/355/581 39/59/60 397/58/59
f 292/361/579 673/357/580 397/58/59 38/57/58
f 131/354/378 556/353/377 674/351/582 293/355/581
f 556/353/377 129/348/372 294/349/583 674/351/582
f 674/351/582 294/349/583 40/61/62 398/60/61
f 293/355/581 674/351/582 398/60/61 39/59/60
f 129/348/372 553/347/371 675/345/584 294/349/583
f 553/347/371 127/342/366 295/343/585 675/345/584
f 675/345/584 295/343/585 41/63/64 399/62/63
f 294/349/583 675/345/584 399/62/63 40/61/62
f 127/342/366 550/341/365 676/339/586 295/343/585
f 550/341/365 125/336/360 296/337/587 676/339/586
f 676/339/586 296/337/587 42/65/66 400/64/65
f 295/343/585 676/339/586 400/64/65 41/63/64
f 125/336/360 547/335/359 677/332/588 296/337/587
f 547/335/359 123/334/358 281/532/556 677/332/588
f 677/332/588 281/532/556 28/34/34 401/36/37
f 296/337/587 677/332/588 401/36/37 42/65/66
f 173/471/495 247/470/494 678/539/589 250/476/500
f 165/462/486 242/461/485 678/539/589 247/470/494
f 161/435/459 276/525/549 678/539/589 242/461/485
f 7/524/548 278/529/553 678/539/589 276/525/549
f 9/270/271 502/269/270 678/539/589 278/529/553
f 176/268/269 250/476/500 678/539/589 502/269/270
f 177/477/501 255/480/504 679/540/590 299/541/591
f 255/480/504 179/485/509 297/542/592 679/540/590
f 679/540/590 297/542/592 44/543/593 298/544/594
f 299/541/591 679/540/590 298/544/594 43/545/595
f 43/545/595 298/544/594 680/546/596 301/547/597
f 298/544/594 44/543/593 300/548/598 680/546/596
f 680/546/596 300/548/598 183/504/528 263/503/527
f 301/547/597 680/546/596 263/503/527 181/492/516
f 185/425/449 267/508/532 681/549/599 304/550/600
f 267/508/532 187/489/513 302/551/601 681/549/599
f 681/549/599 302/551/601 48/552/602 303/553/602
f 304/550/600 681/549/599 303/553/602 47/554/602
f 47/554/602 303/553/602 682/555/603 306/556/604
f 303/553/602 48/552/602 305/557/605 682/555/603
f 682/555/603 305/557/605 191/500/524 268/512/536
f 306/556/604 682/555/603 268/512/536 189/450/474
f 185/425/449 304/550/600 683/558/606 225/420/444
f 304/550/600 47/554/602 307/559/607 683/558/606
f 683/558/606 307/559/607 3/515/539 270/513/537
f 225/420/444 683/558/606 270/513/537 153/417/441
f 47/554/602 306/556/604 684/560/608 307/559/607
f 306/556/604 189/450/474 236/449/473 684/560/608
f 684/560/608 236/449/473 157/438/462 273/519/543
f 307/559/607 684/560/608 273/519/543 3/515/539
f 177/477/501 299/541/591 685/561/609 256/488/512
f 299/541/591 43/545/595 308/562/610 685/561/609
f 685/561/609 308/562/610 48/552/602 302/551/601
f 256/488/512 685/561/609 302/551/601 187/489/513
f 43/545/595 301/547/597 686/563/611 308/562/610
f 301/547/597 181/492/516 262/495/519 686/563/611
f 686/563/611 262/495/519 191/500/524 305/557/605
f 308/562/610 686/563/611 305/557/605 48/552/602
f 124/330/354 549/333/357 687/564/612 310/565/613
f 549/333/357 126/338/362 309/566/614 687/564/612
f 687/564/612 309/566/614 53/72/73 403/71/72
f 310/565/613 687/564/612 403/71/72 51/70/71
f 126/338/362 552/340/364 688/567/615 309/566/614
f 552/340/364 128/344/368 311/568/616 688/567/615
f 688/567/615 311/568/616 55/78/79 406/77/78
f 309/566/614 688/567/615 406/77/78 53/72/73
f 128/344/368 555/346/370 689/569/617 311/568/616
f 555/346/370 130/350/374 312/570/618 689/569/617
f 689/569/617 312/570/618 57/84/85 409/83/84
f 311/568/616 689/569/617 409/83/84 55/78/79
f 130/350/374 558/352/376 690/571/619 312/570/618
f 558/352/376 132/356/380 313/572/620 690/571/619
f 690/571/619 313/572/620 59/90/91 412/89/90
f 312/570/618 690/571/619 412/89/90 57/84/85
f 132/356/380 194/358/382 691/573/621 313/572/620
f 194/358/382 134/362/386 314/574/622 691/573/621
f 691/573/621 314/574/622 61/96/97 415/95/96
f 313/572/620 691/573/621 415/95/96 59/90/91
f 134/362/386 197/364/388 692/575/623 314/574/622
f 197/364/388 136/368/392 315/576/624 692/575/623
f 692/575/623 315/576/624 63/102/103 418/101/102
f 314/574/622 692/575/623 418/101/102 61/96/97
f 136/368/392 200/370/394 693/577/625 315/576/624
f 200/370/394 138/374/398 316/578/626 693/577/625
f 693/577/625 316/578/626 65/108/109 421/107/108
f 315/576/624 693/577/625 421/107/108 63/102/103
f 138/374/398 203/376/400 694/579/627 316/578/626
f 203/376/400 140/380/404 317/580/628 694/579/627
f 694/579/627 317/580/628 67/114/115 424/113/114
f 316/578/626 694/579/627 424/113/114 65/108/109
f 140/380/404 206/382/406 695/581/629 317/580/628
f 206/382/406 142/386/410 318/582/630 695/581/629
f 695/581/629 318/582/630 69/120/121 427/119/120
f 317/580/628 695/581/629 427/119/120 67/114/115
f 142/386/410 209/388/412 696/583/631 318/582/630
f 209/388/412 144/392/416 319/584/632 696/583/631
f 696/583/631 319/584/632 71/126/127 430/125/126
f 318/582/630 696/583/631 430/125/126 69/120/121
f 144/392/416 212/394/418 697/585/633 319/584/632
f 212/394/418 146/398/422 320/586/634 697/585/633
f 697/585/633 320/586/634 73/132/133 433/131/132
f 319/584/632 697/585/633 433/131/132 71/126/127
f 146/398/422 215/400/424 698/587/635 320/586/634
f 215/400/424 148/404/428 321/588/636 698/587/635
f 698/587/635 321/588/636 75/138/139 436/137/138
f 320/586/634 698/587/635 436/137/138 73/132/133
f 148/404/428 218/406/430 699/589/637 321/588/636
f 218/406/430 150/410/434 322/590/638 699/589/637
f 699/589/637 322/590/638 77/144/145 439/143/144
f 321/588/636 699/589/637 439/143/144 75/138/139
f 150/410/434 221/412/436 700/591/639 322/590/638
f 221/412/436 152/416/440 323/592/640 700/591/639
f 700/591/639 323/592/640 79/150/151 442/149/150
f 322/590/638 700/591/639 442/149/150 77/144/145
f 81/153/154 324/593/641 701/593/642 449/164/165
f 324/593/641 154/421/445 228/427/451 701/593/642
f 701/593/642 228/427/451 156/431/455 325/593/643
f 449/164/165 701/593/642 325/593/643 84/165/166
f 158/442/466 326/594/644 702/594/645 233/443/467
f 326/594/644 86/178/179 461/184/185 702/594/645
f 702/594/645 461/184/185 87/188/189 327/594/646
f 233/443/467 702/594/645 327/594/646 160/444/468
f 84/165/166 325/593/643 703/593/647 452/170/171
f 325/593/643 156/431/455 231/433/457 703/593/647
f 703/593/647 231/433/457 162/437/461 328/593/648
f 452/170/171 703/593/647 328/593/648 90/171/172
f 160/444/468 327/594/646 704/594/649 239/455/479
f 327/594/646 87/188/189 464/190/191 704/594/649
f 704/594/649 464/190/191 91/194/195 329/594/650
f 239/455/479 704/594/649 329/594/650 164/456/480
f 90/171/172 328/593/648 705/593/651 465/197/198
f 328/593/648 162/437/461 244/460/484 705/593/651
f 705/593/651 244/460/484 166/464/488 330/593/652
f 465/197/198 705/593/651 330/593/652 94/198/199
f 164/456/480 329/594/650 706/594/653 245/467/491
f 329/594/650 91/194/195 470/202/203 706/594/653
f 706/594/653 470/202/203 95/206/207 506/277/278
f 245/467/491 706/594/653 506/277/278 167/276/277
f 166/464/488 249/469/493 707/593/654 330/593/652
f 249/469/493 174/473/497 331/595/655 707/593/654
f 707/593/654 331/595/655 106/210/211 471/209/210
f 330/593/652 707/593/654 471/209/210 94/198/199
f 174/473/497 251/475/499 708/596/656 331/595/655
f 251/475/499 175/266/267 500/264/265 708/596/656
f 708/596/656 500/264/265 103/224/225 481/226/227
f 331/595/655 708/596/656 481/226/227 106/210/211
f 180/483/507 253/482/506 709/593/657 333/597/658
f 253/482/506 178/481/505 332/593/659 709/593/657
f 709/593/657 332/593/659 108/232/233 488/238/239
f 333/597/658 709/593/657 488/238/239 109/242/243
f 182/496/520 265/502/526 710/594/660 335/594/661
f 265/502/526 184/506/530 334/598/662 710/594/660
f 710/594/660 334/598/662 114/255/256 493/254/255
f 335/594/661 710/594/660 493/254/255 111/243/244
f 188/491/515 266/509/533 711/593/663 337/593/664
f 266/509/533 186/423/447 336/593/665 711/593/663
f 711/593/663 336/593/665 116/161/162 497/259/260
f 337/593/664 711/593/663 497/259/260 117/234/235
f 190/452/476 269/511/535 712/594/666 339/594/667
f 269/511/535 192/498/522 338/594/668 712/594/666
f 712/594/666 338/594/668 122/251/252 498/263/264
f 339/594/667 712/594/666 498/263/264 119/180/181
f 116/161/162 336/593/665 713/593/669 448/156/157
f 336/593/665 186/423/447 223/422/446 713/593/669
f 713/593/669 223/422/446 154/421/445 324/593/641
f 448/156/157 713/593/669 324/593/641 81/153/154
f 190/452/476 339/594/667 714/594/670 238/448/472
f 339/594/667 119/180/181 456/179/180 714/594/670
f 714/594/670 456/179/180 86/178/179 326/594/644
f 238/448/472 714/594/670 326/594/644 158/442/466
f 108/232/233 332/593/659 715/593/671 483/233/234
f 332/593/659 178/481/505 258/487/511 715/593/671
f 715/593/671 258/487/511 188/491/515 337/593/664
f 483/233/234 715/593/671 337/593/664 117/234/235
f 182/496/520 335/594/661 716/594/672 260/497/521
f 335/594/661 111/243/244 492/246/247 716/594/672
f 716/594/672 492/246/247 122/251/252 338/594/668
f 260/497/521 716/594/672 338/594/668 192/498/522
f 46/310/336 340/599/673 717/600/674 535/311/337
f 340/599/673 193/601/675 341/602/676 717/600/674
f 717/600/674 341/602/676 99/603/677 342/604/678
f 535/311/337 717/600/674 342/604/678 110/240/241
f 102/605/679 343/606/680 718/607/681 344/608/682
f 343/606/680 193/601/675 340/599/673 718/607/681
f 718/607/681 340/599/673 46/310/336 538/313/339
f 344/608/682 718/607/681 538/313/339 113/257/258
f 52/66/67 533/303/329 719/609/683 346/610/684
f 533/303/329 2/301/327 345/611/685 719/609/683
f 719/609/683 345/611/685 193/601/675 343/606/680
f 346/610/684 719/609/683 343/606/680 102/605/679
f 51/70/71 402/67/68 720/612/686 348/613/687
f 402/67/68 52/66/67 346/610/684 720/612/686
f 720/612/686 346/610/684 102/605/679 347/614/688
f 348/613/687 720/612/686 347/614/688 101/615/689
f 124/330/354 310/565/613 721/616/690 350/617/691
f 310/565/613 51/70/71 348/613/687 721/616/690
f 721/616/690 348/613/687 101/615/689 349/618/692
f 350/617/691 721/616/690 349/618/692 172/619/693
f 79/150/151 323/592/640 722/620/694 353/621/695
f 323/592/640 152/416/440 351/622/696 722/620/694
f 722/620/694 351/622/696 170/623/697 352/624/698
f 353/621/695 722/620/694 352/624/698 100/625/699
f 80/152/153 443/151/152 723/626/700 355/627/701
f 443/151/152 79/150/151 353/621/695 723/626/700
f 723/626/700 353/621/695 100/625/699 354/628/702
f 355/627/701 723/626/700 354/628/702 99/603/677
f 2/301/327 531/299/325 724/629/703 345/611/685
f 531/299/325 80/152/153 355/627/701 724/629/703
f 724/629/703 355/627/701 99/603/677 341/602/676
f 345/611/685 724/629/703 341/602/676 193/601/675
f 1/533/557 279/530/554 725/630/704 358/631/705
f 279/530/554 123/334/358 356/632/706 725/630/704
f 725/630/704 356/632/706 171/633/707 357/634/708
f 358/631/705 725/630/704 357/634/708 10/635/709
f 123/334/358 546/331/355 726/636/710 356/632/706
f 546/331/355 124/330/354 350/617/691 726/636/710
f 726/636/710 350/617/691 172/619/693 359/637/711
f 356/632/706 726/636/710 359/637/711 171/633/707
f 151/414/438 282/535/559 727/638/712 361/639/713
f 282/535/559 1/533/557 358/631/705 727/638/712
f 727/638/712 358/631/705 10/635/709 360/640/714
f 361/639/713 727/638/712 360/640/714 169/641/715
f 152/416/440 220/415/439 728/642/716 351/622/696
f 220/415/439 151/414/438 361/639/713 728/642/716
f 728/642/716 361/639/713 169/641/715 362/643/717
f 351/622/696 728/642/716 362/643/717 170/623/697
f 99/603/677 354/628/702 729/644/718 342/604/678
f 354/628/702 100/625/699 363/645/719 729/644/718
f 729/644/718 363/645/719 109/242/243 487/241/242
f 342/604/678 729/644/718 487/241/242 110/240/241
f 101/615/689 347/614/688 730/646/720 364/647/721
f 347/614/688 102/605/679 344/608/682 730/646/720
f 730/646/720 344/608/682 113/257/258 494/256/257
f 364/647/721 730/646/720 494/256/257 114/255/256
f 170/623/697 362/643/717 731/648/722 366/649/723
f 362/643/717 169/641/715 365/650/724 731/648/722
f 731/648/722 365/650/724 179/485/509 254/484/508
f 366/649/723 731/648/722 254/484/508 180/483/507
f 171/633/707 359/637/711 732/651/725 368/652/726
f 359/637/711 172/619/693 367/653/727 732/651/725
f 732/651/725 367/653/727 184/506/530 264/505/529
f 368/652/726 732/651/725 264/505/529 183/504/528
f 169/641/715 360/640/714 733/654/728 365/650/724
f 360/640/714 10/635/709 369/655/729 733/654/728
f 733/654/728 369/655/729 44/543/593 297/542/592
f 365/650/724 733/654/728 297/542/592 179/485/509
f 100/625/699 352/624/698 734/656/730 363/645/719
f 352/624/698 170/623/697 366/649/723 734/656/730
f 734/656/730 366/649/723 180/483/507 333/597/658
f 363/645/719 734/656/730 333/597/658 109/242/243
f 172/619/693 349/618/692 735/616/731 367/653/727
f 349/618/692 101/615/689 364/647/721 735/616/731
f 735/616/731 364/647/721 114/255/256 334/598/662
f 367/653/727 735/616/731 334/598/662 184/506/530
f 10/635/709 357/634/708 736/657/732 369/655/729
f 357/634/708 171/633/707 368/652/726 736/657/732
f 736/657/732 368/652/726 183/504/528 300/548/598
f 369/655/729 736/657/732 300/548/598 44/543/593
