# Blender 5.1.1
# www.blender.org
mtllib DontLookBack.mtl
o Cube
v -313.136475 -37.839050 -17.742344
v -311.998810 -39.021057 -17.470051
v -313.161713 -37.828430 18.434126
v -312.023956 -39.010437 18.922449
v -314.670746 -38.643738 -17.831230
v -313.532990 -39.825623 -17.705925
v -314.696014 -38.633057 18.198238
v -313.558258 -39.815002 18.686569
v -307.466187 -34.865784 -17.705990
v -306.328400 -36.047729 -17.217655
v -307.491394 -34.855042 18.622417
v -306.353699 -36.037048 19.110743
v -297.323395 -25.100647 -17.521284
v -296.185669 -26.282715 -17.032955
v -297.348633 -25.090027 18.807116
v -296.210907 -26.272034 19.295439
v -320.629272 -44.380310 -18.374592
v -319.491577 -45.562195 -17.886259
v -320.654541 -44.369568 18.089729
v -319.516785 -45.551575 18.578054
v -322.519257 -46.311584 -18.414570
v -321.998718 -47.867371 -17.926239
v -322.537506 -46.291077 18.049749
v -322.016998 -47.846863 18.538078
v -335.950500 -50.804993 -18.536800
v -335.455841 -52.369263 -18.052834
v -335.931946 -50.775085 18.137527
v -335.437347 -52.339294 18.621492
v -340.167480 -52.157776 -18.387386
v -340.053528 -53.794373 -17.903425
v -340.142548 -52.132996 18.015463
v -340.028534 -53.769653 18.499424
v -370.824768 -57.720337 -18.029619
v -369.475067 -58.652893 -17.545650
v -370.828644 -57.685364 18.298496
v -369.478882 -58.617859 18.782459
v -388.375092 -65.432556 -17.254564
v -387.521637 -66.833679 -16.770601
v -388.364319 -65.399109 19.073549
v -387.510803 -66.800232 19.557512
v -401.244904 -72.479797 -16.753857
v -400.980194 -74.098938 -16.269901
v -401.222290 -72.452820 19.574261
v -400.957611 -74.071838 20.058224
v -295.267700 -23.195984 -17.488255
v -294.618622 -24.702637 -16.999926
v -295.287598 -23.177185 18.840149
v -294.638489 -24.683777 19.328472
v -287.742920 -19.961670 -17.382214
v -287.299255 -21.541077 -16.893885
v -287.760132 -19.940369 18.946194
v -287.316467 -21.519714 19.434521
v -273.829224 -16.061096 -17.194067
v -273.605591 -17.686401 -16.705736
v -273.843506 -16.037659 19.134338
v -273.619751 -17.662903 19.622665
v -262.418060 -14.490295 -17.043385
v -262.264832 -16.123596 -16.555056
v -262.431061 -14.466125 19.285021
v -262.277893 -16.099487 19.773352
v -248.373810 -13.172180 -16.858379
v -248.220673 -14.805481 -16.370050
v -248.386993 -13.148071 19.470032
v -248.233856 -14.781433 19.958355
v -242.437805 -11.414246 -16.826477
v -241.922302 -13.111267 -16.338150
v -242.456116 -11.393860 19.501928
v -241.940674 -13.090881 19.990263
v -233.978577 -7.006714 -16.647402
v -233.255859 -8.479492 -16.159073
v -233.999359 -6.988831 19.681007
v -233.276611 -8.461670 20.169334
v -229.369934 -4.745544 -16.580532
v -228.712311 -6.248596 -16.092196
v -229.389954 -4.726868 19.747889
v -228.732391 -6.229797 20.236221
v -226.487305 -3.557312 -16.654163
v -226.488403 -5.204529 -16.163860
v -226.498108 -3.532043 19.821209
v -226.499176 -5.179260 20.311508
v -219.599030 1.122925 -16.652132
v -219.669037 -0.521362 -16.161823
v -219.608795 1.148621 19.823246
v -219.678680 -0.495544 20.313551
v -201.567841 1.307800 -16.646790
v -201.652039 -0.337219 -16.156485
v -201.577301 1.333679 19.828590
v -201.661591 -0.311401 20.318892
v -455.614746 -79.220398 -16.693295
v -454.879639 -80.687134 -16.209337
v -455.601227 -79.187866 19.634829
v -454.866150 -80.654602 20.118795
v -524.755615 -100.967468 -16.641586
v -523.730530 -102.248352 -16.157621
v -524.749146 -100.932800 19.686554
v -523.724121 -102.213806 20.170521
v -597.591858 -131.371277 -16.579647
v -596.198792 -132.237854 -16.095684
v -597.597351 -131.336487 19.748493
v -596.204346 -132.203125 20.232464
v -611.178284 -144.784546 -16.567505
v -610.443787 -146.251648 -16.083546
v -611.164734 -144.752136 19.760633
v -610.430298 -146.219177 20.244598
v -704.685425 -221.328918 -16.478556
v -703.662354 -222.611389 -15.994596
v -704.678955 -221.294373 19.849586
v -703.655884 -222.576843 20.333546
v -875.993225 -380.367371 -16.370647
v -874.884705 -381.576874 -15.886686
v -875.989136 -380.332367 19.957491
v -874.880737 -381.541870 20.441448
v -1091.542480 -586.314209 -16.265337
v -1091.440552 -587.951721 -15.781374
v -1091.517334 -586.289734 20.062807
v -1091.415405 -587.927063 20.546768
v -1118.970459 -597.967651 -16.253662
v -1118.868530 -599.605103 -15.769699
v -1118.945312 -597.943054 20.074478
v -1118.843262 -599.580444 20.558441
v -1119.195068 -598.018250 -16.253664
v -1118.635986 -599.560669 -15.769703
v -1119.177979 -597.987549 20.074482
v -1118.618652 -599.529846 20.558439
v -1174.181519 -618.904968 -16.202251
v -1173.622314 -620.447510 -15.718288
v -1174.164307 -618.874390 20.125891
v -1173.605225 -620.416626 20.609852
v -1206.364014 -632.828796 -16.174019
v -1205.923828 -634.409302 -15.690053
v -1206.344482 -632.799561 20.154140
v -1205.904297 -634.379883 20.638102
v -1337.166992 -722.165894 -16.076771
v -1336.726562 -723.746277 -15.592806
v -1337.147583 -722.136536 20.251392
v -1336.707275 -723.716919 20.735350
v -1461.193848 -737.237427 -15.981205
v -1460.753418 -738.817932 -15.497242
v -1461.174438 -737.208130 20.346951
v -1460.734131 -738.788574 20.830912
v -1461.104004 -737.216309 -15.981207
v -1460.846558 -738.836426 -15.497246
v -1461.081299 -737.189331 20.346954
v -1460.823730 -738.809692 20.830917
v -1536.241943 -744.640991 -15.925107
v -1536.166260 -746.279846 -15.441144
v -1536.216309 -744.616821 20.403063
v -1536.140625 -746.255737 20.887030
v -1598.903320 -773.224548 -15.875535
v -1598.752930 -774.858154 -15.391569
v -1598.878906 -773.199219 20.452635
v -1598.728516 -774.832947 20.936600
v -1728.233154 -791.667908 -15.780061
v -1728.083008 -793.301697 -15.296097
v -1728.208740 -791.642639 20.548111
v -1728.058350 -793.276245 21.032066
v -1911.775391 -801.951050 -15.644566
v -1911.625244 -803.584900 -15.160601
v -1911.750977 -801.925964 20.683598
v -1911.600586 -803.559509 21.167562
v -136.176727 0.872864 -16.627464
v -136.260864 -0.772034 -16.137157
v -136.186218 0.898743 19.847916
v -136.270416 -0.746216 20.338219
v -7.981689 52.786072 -16.582685
v -8.065887 51.141174 -16.092379
v -7.991150 52.812012 19.892693
v -8.075439 51.166931 20.382998
v -2217.147461 -814.734436 -15.419027
v -2216.997314 -816.368103 -14.935062
v -2217.123291 -814.709290 20.909138
v -2216.972900 -816.342590 21.393101
v -54.203827 52.575623 19.881367
v -54.194305 52.549744 -16.594011
v -54.278503 50.904724 -16.103704
v -54.288116 50.930481 20.371672
vn -0.4644 0.8856 -0.0006
vn -0.2356 0.1687 0.9571
vn 0.6936 -0.7204 0.0007
vn 0.4643 -0.8857 0.0006
vn -0.1589 0.2424 0.9571
vn 0.1278 -0.0437 -0.9908
vn -0.6936 0.7204 -0.0007
vn 0.1256 -0.1923 -0.9733
vn 0.4644 -0.8856 0.0006
vn -0.2144 0.2045 0.9551
vn 0.2069 -0.1968 -0.9584
vn -0.2069 0.1968 0.9584
vn 0.2179 -0.2082 -0.9535
vn -0.6935 0.7204 -0.0007
vn 0.1583 -0.1025 -0.9820
vn 0.0981 -0.2668 -0.9587
vn 0.6765 -0.7364 0.0007
vn -0.7145 0.6997 -0.0007
vn -0.2178 0.2083 0.9535
vn -0.3062 0.9520 -0.0005
vn 0.3173 -0.9483 0.0007
vn -0.3174 0.9483 -0.0007
vn -0.0847 0.2712 0.9588
vn 0.0459 -0.3292 -0.9431
vn -0.1115 0.2682 0.9569
vn 0.0555 -0.2793 -0.9586
vn 0.2968 -0.9550 0.0005
vn 0.4131 -0.9107 0.0008
vn 0.1627 -0.9867 0.0008
vn -0.1783 0.9840 -0.0008
vn -0.0479 0.3281 0.9434
vn 0.1086 -0.2667 -0.9576
vn -0.4025 0.9154 -0.0008
vn -0.0945 0.3039 0.9480
vn 0.0945 -0.3040 -0.9480
vn 0.1213 -0.9926 0.0008
vn 0.4754 -0.8798 0.0005
vn -0.4806 0.8769 -0.0005
vn -0.1088 0.2666 0.9576
vn 0.3966 -0.9180 0.0007
vn -0.6800 0.7332 -0.0007
vn 0.2142 -0.2046 -0.9551
vn 0.7103 -0.7039 0.0007
vn -0.2700 0.9629 -0.0007
vn -0.1252 0.2588 0.9578
vn -0.3950 0.9187 -0.0007
vn 0.1252 -0.2588 -0.9578
vn 0.1365 -0.9906 0.0007
vn 0.0898 -0.2732 -0.9578
vn 0.2710 -0.9626 0.0007
vn -0.0898 0.2732 0.9578
vn -0.0392 0.2828 0.9584
vn -0.0514 0.2812 0.9583
vn -0.1364 0.9907 -0.0007
vn 0.0514 -0.2812 -0.9583
vn -0.2838 0.9589 -0.0007
vn -0.0934 0.9956 -0.0007
vn 0.0392 -0.2828 -0.9584
vn 0.0934 -0.9956 0.0007
vn 0.4713 -0.8820 0.0007
vn 0.0800 -0.2657 -0.9607
vn 0.2596 -0.9657 0.0007
vn -0.0799 0.2657 0.9607
vn -0.4405 0.8978 -0.0007
vn -0.1461 0.2387 0.9600
vn -0.4620 0.8869 -0.0007
vn 0.1461 -0.2387 -0.9600
vn 0.4253 -0.9050 0.0007
vn 0.1371 -0.2509 -0.9583
vn 0.4408 -0.8976 0.0007
vn -0.1372 0.2509 0.9583
vn -0.5620 0.8271 -0.0007
vn -0.1442 0.2660 0.9531
vn -0.3815 0.9244 -0.0007
vn 0.0941 -0.2774 -0.9561
vn 0.1942 -0.2839 -0.9390
vn 0.5661 -0.8243 0.0007
vn -0.1942 0.2839 0.9390
vn -0.9991 0.0424 -0.0003
vn -0.0067 -1.0000 0.0007
vn 0.0102 -0.9999 0.0007
vn -0.0032 0.2858 0.9583
vn -0.0103 0.9999 -0.0007
vn 0.0032 -0.2858 -0.9583
vn 0.0874 -0.2807 -0.9558
vn -0.1230 0.9924 -0.0008
vn -0.0345 0.2889 0.9567
vn 0.0345 -0.2889 -0.9567
vn -0.1205 0.2919 0.9488
vn 0.2988 -0.9543 0.0008
vn -0.3000 0.9539 -0.0008
vn -0.0874 0.2807 0.9558
vn -0.7028 0.7114 -0.0006
vn 0.1205 -0.2919 -0.9488
vn 0.3824 -0.9240 0.0009
vn -0.3852 0.9228 -0.0009
vn 0.1807 -0.2218 -0.9582
vn -0.2056 0.2091 0.9560
vn 0.2054 -0.2093 -0.9560
vn 0.7016 -0.7126 0.0006
vn -0.1924 0.2079 0.9590
vn 0.6337 -0.7736 0.0005
vn -0.6334 0.7738 -0.0005
vn -0.1807 0.2218 0.9582
vn 0.2186 -0.2295 -0.9484
vn 0.1924 -0.2079 -0.9590
vn 0.6804 -0.7329 0.0006
vn -0.6804 0.7329 -0.0006
vn 0.1164 -0.2748 -0.9544
vn 0.6899 -0.7239 0.0003
vn -0.6908 0.7230 -0.0003
vn -0.2186 0.2295 0.9484
vn -0.2038 0.9790 -0.0006
vn 0.3910 -0.9204 0.0004
vn -0.3910 0.9204 -0.0004
vn -0.1164 0.2749 0.9544
vn 0.0997 -0.2648 -0.9591
vn 0.2569 0.3337 0.9070
vn 0.2578 0.3326 0.9071
vn -0.2036 0.9791 -0.0006
vn 0.3968 -0.9179 0.0006
vn 0.3551 -0.9348 0.0006
vn -0.3551 0.9348 -0.0006
vn -0.0997 0.2648 0.9591
vn -0.5640 0.8258 -0.0004
vn -0.3971 0.9178 -0.0006
vn -0.1122 0.2613 0.9587
vn 0.1121 -0.2613 -0.9587
vn -0.1206 0.9927 -0.0007
vn -0.1672 0.2458 0.9548
vn 0.1672 -0.2458 -0.9548
vn 0.5640 -0.8258 0.0004
vn -0.0338 0.2840 0.9582
vn 0.0338 -0.2840 -0.9582
vn 0.1206 -0.9927 0.0007
vn 0.9876 0.1567 -0.0007
vn -0.4150 0.9098 -0.0003
vn 0.0272 -0.2820 -0.9590
vn 0.0984 -0.9952 0.0006
vn -0.0984 0.9952 -0.0006
vn -0.0272 0.2820 0.9590
vn 0.0393 -0.2805 -0.9591
vn -0.1241 0.2735 0.9538
vn 0.1241 -0.2735 -0.9538
vn 0.4154 -0.9097 0.0003
vn -0.0559 0.9984 -0.0007
vn 0.1412 -0.9900 0.0006
vn -0.1412 0.9900 -0.0006
vn -0.0393 0.2805 0.9590
vn -0.0418 0.9991 -0.0007
vn -0.0151 0.2828 0.9591
vn 0.0151 -0.2827 -0.9591
vn 0.0559 -0.9984 0.0007
vn -0.0051 1.0000 -0.0007
vn 0.0016 0.2856 0.9584
vn 0.0067 1.0000 -0.0007
vn -0.0016 -0.2856 -0.9584
vn 0.9987 -0.0510 0.0003
vn 0.0017 -0.2857 -0.9583
vn 0.0051 -1.0000 0.0007
vn -0.0017 0.2857 0.9583
vn -0.9958 -0.0914 0.0007
vn -0.0111 0.2831 0.9590
vn 0.0111 -0.2831 -0.9590
vn 0.0418 -0.9991 0.0007
vn -0.1828 0.2894 0.9396
vn 0.5332 -0.8460 0.0007
vn 0.1828 -0.2894 -0.9396
vn -0.5332 0.8460 -0.0007
vt 0.625000 0.500000
vt 0.875000 0.500000
vt 0.875000 0.750000
vt 0.625000 0.750000
vt 0.375000 0.750000
vt 0.625000 1.000000
vt 0.375000 1.000000
vt 0.125000 0.500000
vt 0.125000 0.750000
vt 0.375000 0.500000
vt 0.375000 0.250000
vt 0.625000 0.250000
vt 0.375000 0.000000
vt 0.625000 0.000000
vt 0.624996 0.500000
vt 0.625001 0.750000
s 0
usemtl Material
f 1/1/1 5/2/1 7/3/1 3/4/1
f 4/5/2 3/4/2 7/6/2 8/7/2
f 6/8/3 8/9/3 20/9/3 18/8/3
f 6/8/4 2/10/4 4/5/4 8/9/4
f 3/4/5 4/5/5 12/5/5 11/4/5
f 6/11/6 5/12/6 1/1/6 2/10/6
f 9/1/7 11/4/7 15/4/7 13/1/7
f 2/10/8 1/1/8 9/1/8 10/10/8
f 4/5/9 2/10/9 10/10/9 12/5/9
f 1/1/1 3/4/1 11/4/1 9/1/1
f 15/4/10 16/5/10 48/5/10 47/4/10
f 10/10/11 9/1/11 13/1/11 14/10/11
f 12/5/3 10/10/3 14/10/3 16/5/3
f 11/4/12 12/5/12 16/5/12 15/4/12
f 17/12/13 18/11/13 22/11/13 21/12/13
f 7/3/14 5/2/14 17/2/14 19/3/14
f 5/12/15 6/11/15 18/11/15 17/12/15
f 8/7/12 7/6/12 19/6/12 20/7/12
f 21/12/16 22/11/16 26/11/16 25/12/16
f 18/8/17 20/9/17 24/9/17 22/8/17
f 19/3/18 17/2/18 21/2/18 23/3/18
f 20/7/19 19/6/19 23/6/19 24/7/19
f 27/3/20 25/2/20 29/2/20 31/3/20
f 22/8/21 24/9/21 28/9/21 26/8/21
f 23/3/22 21/2/22 25/2/22 27/3/22
f 24/7/23 23/6/23 27/6/23 28/7/23
f 29/12/24 30/11/24 34/11/24 33/12/24
f 28/7/25 27/6/25 31/6/25 32/7/25
f 25/12/26 26/11/26 30/11/26 29/12/26
f 26/8/27 28/9/27 32/9/27 30/8/27
f 34/8/28 36/9/28 40/9/28 38/8/28
f 30/8/29 32/9/29 36/9/29 34/8/29
f 31/3/30 29/2/30 33/2/30 35/3/30
f 32/7/31 31/6/31 35/6/31 36/7/31
f 37/12/32 38/11/32 42/11/32 41/12/32
f 35/3/33 33/2/33 37/2/33 39/3/33
f 36/7/34 35/6/34 39/6/34 40/7/34
f 33/12/35 34/11/35 38/11/35 37/12/35
f 42/8/36 44/9/36 92/9/36 90/8/36
f 38/8/37 40/9/37 44/9/37 42/8/37
f 39/3/38 37/2/38 41/2/38 43/3/38
f 40/7/39 39/6/39 43/6/39 44/7/39
f 48/5/40 46/10/40 50/10/40 52/5/40
f 13/1/41 15/4/41 47/4/41 45/1/41
f 14/10/42 13/1/42 45/1/42 46/10/42
f 16/5/43 14/10/43 46/10/43 48/5/43
f 49/1/44 51/4/44 55/4/44 53/1/44
f 47/4/45 48/5/45 52/5/45 51/4/45
f 45/1/46 47/4/46 51/4/46 49/1/46
f 46/10/47 45/1/47 49/1/47 50/10/47
f 56/5/48 54/10/48 58/10/48 60/5/48
f 50/10/49 49/1/49 53/1/49 54/10/49
f 52/5/50 50/10/50 54/10/50 56/5/50
f 51/4/51 52/5/51 56/5/51 55/4/51
f 59/4/52 60/5/52 64/5/52 63/4/52
f 55/4/53 56/5/53 60/5/53 59/4/53
f 53/1/54 55/4/54 59/4/54 57/1/54
f 54/10/55 53/1/55 57/1/55 58/10/55
f 61/1/56 63/4/56 67/4/56 65/1/56
f 57/1/57 59/4/57 63/4/57 61/1/57
f 58/10/58 57/1/58 61/1/58 62/10/58
f 60/5/59 58/10/59 62/10/59 64/5/59
f 68/5/60 66/10/60 70/10/60 72/5/60
f 62/10/61 61/1/61 65/1/61 66/10/61
f 64/5/62 62/10/62 66/10/62 68/5/62
f 63/4/63 64/5/63 68/5/63 67/4/63
f 69/1/64 71/4/64 75/4/64 73/1/64
f 67/4/65 68/5/65 72/5/65 71/4/65
f 65/1/66 67/4/66 71/4/66 69/1/66
f 66/10/67 65/1/67 69/1/67 70/10/67
f 76/5/68 74/10/68 78/10/68 80/5/68
f 70/10/69 69/1/69 73/1/69 74/10/69
f 72/5/70 70/10/70 74/10/70 76/5/70
f 71/4/71 72/5/71 76/5/71 75/4/71
f 77/1/72 79/4/72 83/4/72 81/1/72
f 75/4/73 76/5/73 80/5/73 79/4/73
f 73/1/74 75/4/74 79/4/74 77/1/74
f 74/10/75 73/1/75 77/1/75 78/10/75
f 78/10/76 77/1/76 81/1/76 82/10/76
f 80/5/77 78/10/77 82/10/77 84/5/77
f 79/4/78 80/5/78 84/5/78 83/4/78
f 82/10/79 84/5/79 83/4/79 81/1/79
f 88/5/80 86/10/80 162/10/80 164/5/80
f 84/5/81 82/10/81 86/10/81 88/5/81
f 83/4/82 84/5/82 88/5/82 87/4/82
f 81/1/83 83/4/83 87/4/83 85/1/83
f 82/10/84 81/1/84 85/1/84 86/10/84
f 89/12/85 90/11/85 94/11/85 93/12/85
f 43/3/86 41/2/86 89/2/86 91/3/86
f 44/7/87 43/6/87 91/6/87 92/7/87
f 41/12/88 42/11/88 90/11/88 89/12/88
f 96/7/89 95/6/89 99/6/89 100/7/89
f 90/8/90 92/9/90 96/9/90 94/8/90
f 91/3/91 89/2/91 93/2/91 95/3/91
f 92/7/92 91/6/92 95/6/92 96/7/92
f 99/3/93 97/2/93 101/2/93 103/3/93
f 93/12/94 94/11/94 98/11/94 97/12/94
f 94/8/95 96/9/95 100/9/95 98/8/95
f 95/3/96 93/2/96 97/2/96 99/3/96
f 101/12/97 102/11/97 106/11/97 105/12/97
f 100/7/98 99/6/98 103/6/98 104/7/98
f 97/12/99 98/11/99 102/11/99 101/12/99
f 98/8/100 100/9/100 104/9/100 102/8/100
f 108/7/101 107/6/101 111/6/101 112/7/101
f 102/8/102 104/9/102 108/9/102 106/8/102
f 103/3/103 101/2/103 105/2/103 107/3/103
f 104/7/104 103/6/104 107/6/104 108/7/104
f 109/12/105 110/11/105 114/11/105 113/12/105
f 105/12/106 106/11/106 110/11/106 109/12/106
f 106/8/107 108/9/107 112/9/107 110/8/107
f 107/3/108 105/2/108 109/2/108 111/3/108
f 113/12/109 114/11/109 118/11/109 117/12/109
f 110/8/110 112/9/110 116/9/110 114/8/110
f 111/3/111 109/2/111 113/2/111 115/3/111
f 112/7/112 111/6/112 115/6/112 116/7/112
f 119/3/113 117/2/113 121/2/113 123/3/113
f 114/8/114 116/9/114 120/9/114 118/8/114
f 115/3/115 113/2/115 117/2/115 119/3/115
f 116/7/116 115/6/116 119/6/116 120/7/116
f 121/12/117 122/11/117 126/11/117 125/12/117
f 120/7/118 119/6/118 123/6/118 124/7/118
f 117/12/119 118/11/119 122/11/119 121/12/119
f 118/8/120 120/9/120 124/9/120 122/8/120
f 126/8/121 128/9/121 132/9/121 130/8/121
f 122/8/122 124/9/122 128/9/122 126/8/122
f 123/3/123 121/2/123 125/2/123 127/3/123
f 124/7/124 123/6/124 127/6/124 128/7/124
f 131/3/125 129/2/125 133/2/125 135/3/125
f 127/3/126 125/2/126 129/2/126 131/3/126
f 128/7/127 127/6/127 131/6/127 132/7/127
f 125/12/128 126/11/128 130/11/128 129/12/128
f 135/3/129 133/2/129 137/2/129 139/3/129
f 132/7/130 131/6/130 135/6/130 136/7/130
f 129/12/131 130/11/131 134/11/131 133/12/131
f 130/8/132 132/9/132 136/9/132 134/8/132
f 136/7/133 135/6/133 139/6/133 140/7/133
f 133/12/134 134/11/134 138/11/134 137/12/134
f 134/8/135 136/9/135 140/9/135 138/8/135
f 144/13/136 142/11/136 141/12/136 143/14/136
f 147/14/137 145/12/137 149/12/137 151/14/137
f 141/12/138 142/11/138 146/11/138 145/12/138
f 142/11/139 144/13/139 148/13/139 146/11/139
f 143/14/140 141/12/140 145/12/140 147/14/140
f 144/13/141 143/14/141 147/14/141 148/13/141
f 149/12/142 150/11/142 154/11/142 153/12/142
f 148/13/143 147/14/143 151/14/143 152/13/143
f 145/12/144 146/11/144 150/11/144 149/12/144
f 146/11/145 148/13/145 152/13/145 150/11/145
f 155/14/146 153/12/146 157/12/146 159/14/146
f 150/11/147 152/13/147 156/13/147 154/11/147
f 151/14/148 149/12/148 153/12/148 155/14/148
f 152/13/149 151/14/149 155/14/149 156/13/149
f 159/14/150 157/12/150 169/12/150 171/14/150
f 156/13/151 155/14/151 159/14/151 160/13/151
f 153/12/152 154/11/152 158/11/152 157/12/152
f 154/11/153 156/13/153 160/13/153 158/11/153
f 174/15/154 173/16/154 167/4/154 165/1/154
f 87/4/155 88/5/155 164/5/155 163/4/155
f 85/1/156 87/4/156 163/4/156 161/1/156
f 86/10/157 85/1/157 161/1/157 162/10/157
f 166/10/158 165/1/158 167/4/158 168/5/158
f 175/10/159 174/15/159 165/1/159 166/10/159
f 176/5/160 175/10/160 166/10/160 168/5/160
f 173/16/161 176/5/161 168/5/161 167/4/161
f 172/13/162 171/14/162 169/12/162 170/11/162
f 160/13/163 159/14/163 171/14/163 172/13/163
f 157/12/164 158/11/164 170/11/164 169/12/164
f 158/11/165 160/13/165 172/13/165 170/11/165
f 163/4/166 164/5/166 176/5/166 173/16/166
f 164/5/167 162/10/167 175/10/167 176/5/167
f 162/10/168 161/1/168 174/15/168 175/10/168
f 161/1/169 163/4/169 173/16/169 174/15/169
