{
  "accessors": [
    {
      "bufferView": 0,
      "componentType": 5125,
      "count": 216,
      "type": "SCALAR"
    },
    {
      "bufferView": 1,
      "componentType": 5126,
      "count": 71,
      "max": [
        -1.61524724960327,
        1.98483908176422,
        11.6971521377563
      ],
      "min": [
        -7.44332790374756,
        -0.811766624450684,
        1.80704212188721
      ],
      "type": "VEC3"
    },
    {
      "bufferView": 2,
      "componentType": 5126,
      "count": 71,
      "type": "VEC3"
    },
    {
      "bufferView": 3,
      "componentType": 5126,
      "count": 71,
      "type": "VEC4"
    },
    {
      "bufferView": 4,
      "componentType": 5126,
      "count": 71,
      "type": "VEC2"
    },
    {
      "bufferView": 5,
      "componentType": 5125,
      "count": 1608,
      "type": "SCALAR"
    },
    {
      "bufferView": 6,
      "componentType": 5126,
      "count": 586,
      "max": [
        6.38064575195312,
        1.73297095298767,
        24.5802879333496
      ],
      "min": [
        -7.68580675125122,
        -1.56045067310333,
        -6.97916889190674
      ],
      "type": "VEC3"
    },
    {
      "bufferView": 7,
      "componentType": 5126,
      "count": 586,
      "type": "VEC3"
    },
    {
      "bufferView": 8,
      "componentType": 5126,
      "count": 586,
      "type": "VEC4"
    },
    {
      "bufferView": 9,
      "componentType": 5126,
      "count": 586,
      "type": "VEC2"
    },
    {
      "bufferView": 10,
      "componentType": 5125,
      "count": 5484,
      "type": "SCALAR"
    },
    {
      "bufferView": 11,
      "componentType": 5126,
      "count": 1437,
      "max": [
        3.43745613098145,
        1.73297095298767,
        23.0692939758301
      ],
      "min": [
        -9.35141563415527,
        -1.83976829051971,
        -7.00000286102295
      ],
      "type": "VEC3"
    },
    {
      "bufferView": 12,
      "componentType": 5126,
      "count": 1437,
      "type": "VEC3"
    },
    {
      "bufferView": 13,
      "componentType": 5126,
      "count": 1437,
      "type": "VEC4"
    },
    {
      "bufferView": 14,
      "componentType": 5126,
      "count": 1437,
      "type": "VEC2"
    },
    {
      "bufferView": 15,
      "componentType": 5125,
      "count": 4248,
      "type": "SCALAR"
    },
    {
      "bufferView": 16,
      "componentType": 5126,
      "count": 1265,
      "max": [
        6.38064575195312,
        3.73297119140625,
        24.5802879333496
      ],
      "min": [
        -7.68580675125122,
        -1.56045067310333,
        -6.97916889190674
      ],
      "type": "VEC3"
    },
    {
      "bufferView": 17,
      "componentType": 5126,
      "count": 1265,
      "type": "VEC3"
    },
    {
      "bufferView": 18,
      "componentType": 5126,
      "count": 1265,
      "type": "VEC4"
    },
    {
      "bufferView": 19,
      "componentType": 5126,
      "count": 1265,
      "type": "VEC2"
    }
  ],
  "asset": {
    "generator": "Adobe Substance 3D Painter 11.0.0",
    "version": "2.0"
  },
  "bufferViews": [
    {
      "buffer": 0,
      "byteLength": 864,
      "target": 34963
    },
    {
      "buffer": 0,
      "byteLength": 852,
      "byteOffset": 864,
      "target": 34962
    },
    {
      "buffer": 0,
      "byteLength": 852,
      "byteOffset": 1716,
      "target": 34962
    },
    {
      "buffer": 0,
      "byteLength": 1136,
      "byteOffset": 2568,
      "target": 34962
    },
    {
      "buffer": 0,
      "byteLength": 568,
      "byteOffset": 3704,
      "target": 34962
    },
    {
      "buffer": 0,
      "byteLength": 6432,
      "byteOffset": 4272,
      "target": 34963
    },
    {
      "buffer": 0,
      "byteLength": 7032,
      "byteOffset": 10704,
      "target": 34962
    },
    {
      "buffer": 0,
      "byteLength": 7032,
      "byteOffset": 17736,
      "target": 34962
    },
    {
      "buffer": 0,
      "byteLength": 9376,
      "byteOffset": 24768,
      "target": 34962
    },
    {
      "buffer": 0,
      "byteLength": 4688,
      "byteOffset": 34144,
      "target": 34962
    },
    {
      "buffer": 0,
      "byteLength": 21936,
      "byteOffset": 38832,
      "target": 34963
    },
    {
      "buffer": 0,
      "byteLength": 17244,
      "byteOffset": 60768,
      "target": 34962
    },
    {
      "buffer": 0,
      "byteLength": 17244,
      "byteOffset": 78012,
      "target": 34962
    },
    {
      "buffer": 0,
      "byteLength": 22992,
      "byteOffset": 95256,
      "target": 34962
    },
    {
      "buffer": 0,
      "byteLength": 11496,
      "byteOffset": 118248,
      "target": 34962
    },
    {
      "buffer": 0,
      "byteLength": 16992,
      "byteOffset": 129744,
      "target": 34963
    },
    {
      "buffer": 0,
      "byteLength": 15180,
      "byteOffset": 146736,
      "target": 34962
    },
    {
      "buffer": 0,
      "byteLength": 15180,
      "byteOffset": 161916,
      "target": 34962
    },
    {
      "buffer": 0,
      "byteLength": 20240,
      "byteOffset": 177096,
      "target": 34962
    },
    {
      "buffer": 0,
      "byteLength": 10120,
      "byteOffset": 197336,
      "target": 34962
    }
  ],
  "buffers": [
    {
      "byteLength": 207456,
      "uri": "PBR - Metallic Roughness Alpha-blend.bin"
    }
  ],
  "images": [
    {
      "uri": "DefaultMaterial_baseColor.png"
    },
    {
      "uri": "DefaultMaterial_occlusionRoughnessMetallic.png"
    },
    {
      "uri": "DefaultMaterial_normal.png"
    },
    {
      "uri": "DefaultMaterial_emissive.png"
    },
    {
      "uri": "Material.001_baseColor.png"
    },
    {
      "uri": "Material.001_occlusionRoughnessMetallic.png"
    },
    {
      "uri": "Material.001_normal.png"
    },
    {
      "uri": "Material.001_emissive.png"
    },
    {
      "uri": "Material.002_baseColor.png"
    },
    {
      "uri": "Material.002_occlusionRoughnessMetallic.png"
    },
    {
      "uri": "Material.002_normal.png"
    },
    {
      "uri": "Material.002_emissive.png"
    }
  ],
  "materials": [
    {
      "alphaMode": "BLEND",
      "emissiveFactor": [
        1.0,
        1.0,
        1.0
      ],
      "emissiveTexture": {
        "index": 3
      },
      "name": "DefaultMaterial",
      "normalTexture": {
        "index": 2
      },
      "occlusionTexture": {
        "index": 1
      },
      "pbrMetallicRoughness": {
        "baseColorTexture": {
          "index": 0
        },
        "metallicRoughnessTexture": {
          "index": 1
        }
      }
    },
    {
      "alphaMode": "BLEND",
      "emissiveFactor": [
        1.0,
        1.0,
        1.0
      ],
      "emissiveTexture": {
        "index": 7
      },
      "name": "Material.001",
      "normalTexture": {
        "index": 6
      },
      "occlusionTexture": {
        "index": 5
      },
      "pbrMetallicRoughness": {
        "baseColorTexture": {
          "index": 4
        },
        "metallicRoughnessTexture": {
          "index": 5
        }
      }
    },
    {
      "alphaMode": "BLEND",
      "emissiveFactor": [
        1.0,
        1.0,
        1.0
      ],
      "emissiveTexture": {
        "index": 11
      },
      "name": "Material.002",
      "normalTexture": {
        "index": 10
      },
      "occlusionTexture": {
        "index": 9
      },
      "pbrMetallicRoughness": {
        "baseColorTexture": {
          "index": 8
        },
        "metallicRoughnessTexture": {
          "index": 9
        }
      }
    }
  ],
  "meshes": [
    {
      "name": "Grid.001",
      "primitives": [
        {
          "attributes": {
            "NORMAL": 2,
            "POSITION": 1,
            "TANGENT": 3,
            "TEXCOORD_0": 4
          },
          "indices": 0,
          "material": 0,
          "mode": 4
        }
      ]
    },
    {
      "name": "Grid.003",
      "primitives": [
        {
          "attributes": {
            "NORMAL": 7,
            "POSITION": 6,
            "TANGENT": 8,
            "TEXCOORD_0": 9
          },
          "indices": 5,
          "material": 1,
          "mode": 4
        }
      ]
    },
    {
      "name": "Mesh",
      "primitives": [
        {
          "attributes": {
            "NORMAL": 12,
            "POSITION": 11,
            "TANGENT": 13,
            "TEXCOORD_0": 14
          },
          "indices": 10,
          "material": 0,
          "mode": 4
        }
      ]
    },
    {
      "name": "Grid.005",
      "primitives": [
        {
          "attributes": {
            "NORMAL": 17,
            "POSITION": 16,
            "TANGENT": 18,
            "TEXCOORD_0": 19
          },
          "indices": 15,
          "material": 2,
          "mode": 4
        }
      ]
    }
  ],
  "nodes": [
    {
      "children": [
        1,
        3,
        5,
        7
      ],
      "name": "ROOT"
    },
    {
      "children": [
        2
      ],
      "name": "Grid.001",
      "translation": [
        0.0,
        -0.329477727413177,
        0.0
      ]
    },
    {
      "mesh": 0,
      "name": "Grid.001"
    },
    {
      "children": [
        4
      ],
      "name": "Grid.003"
    },
    {
      "mesh": 1,
      "name": "Grid.003"
    },
    {
      "children": [
        6
      ],
      "name": "Grid.004"
    },
    {
      "mesh": 2,
      "name": "Mesh"
    },
    {
      "children": [
        8
      ],
      "name": "Grid.005"
    },
    {
      "mesh": 3,
      "name": "Grid.005"
    }
  ],
  "samplers": [
    {
      "magFilter": 9729,
      "minFilter": 9985,
      "wrapS": 10497,
      "wrapT": 10497
    }
  ],
  "scene": 0,
  "scenes": [
    {
      "name": "Scene",
      "nodes": [
        0
      ]
    }
  ],
  "textures": [
    {
      "sampler": 0,
      "source": 0
    },
    {
      "sampler": 0,
      "source": 1
    },
    {
      "sampler": 0,
      "source": 2
    },
    {
      "sampler": 0,
      "source": 3
    },
    {
      "sampler": 0,
      "source": 4
    },
    {
      "sampler": 0,
      "source": 5
    },
    {
      "sampler": 0,
      "source": 6
    },
    {
      "sampler": 0,
      "source": 7
    },
    {
      "sampler": 0,
      "source": 8
    },
    {
      "sampler": 0,
      "source": 9
    },
    {
      "sampler": 0,
      "source": 10
    },
    {
      "sampler": 0,
      "source": 11
    }
  ]
}