# Blender 5.1.1
# www.blender.org
mtllib GetAGrip.mtl
o Cube
v 29.830894 80.075012 -112.018547
v 29.830898 37.360962 -112.018547
v 10.839104 56.963928 2.680030
v 9.720428 27.548580 1.949496
v 10.547403 80.894722 -113.261436
v 8.376156 37.331535 -111.475967
v -0.077791 55.374756 2.890643
v 0.254607 27.674786 3.024482
v 10.519495 -3.676300 -43.847672
v 19.584328 63.323341 -43.751129
v 10.519495 62.907234 -43.847672
v 19.584328 -3.440858 -43.751129
v 23.490501 82.609436 -143.182663
v 23.490501 10.598290 -143.182663
v 2.605379 82.609436 -147.641037
v 2.605379 10.598290 -147.641037
v 22.630642 -3.440858 -50.458977
v 0.115780 -3.762348 -64.259155
v 22.630642 64.700577 -50.458977
v -53.628113 12.700795 -74.583351
v -58.946659 12.700795 -68.445679
v -58.946659 69.519028 -68.445679
v -53.628113 69.519028 -74.583351
v -51.239456 20.525812 -91.443039
v -59.646580 20.525812 -90.246735
v -59.646580 71.037338 -90.246735
v -51.239456 71.037338 -91.443039
v -53.571732 18.187000 -106.511627
v -60.183792 18.187000 -101.742294
v -60.183792 68.949654 -101.742294
v -53.571732 69.234962 -106.511627
v -63.563717 22.259666 -115.105736
v -65.869568 22.259666 -108.278458
v -65.869568 71.037338 -108.278458
v -63.563717 71.904800 -115.105736
v -77.791924 24.434599 -116.834045
v -75.253433 24.550005 -110.403183
v -75.253433 74.848671 -110.403183
v -77.791924 76.843262 -116.834045
v -83.390984 29.749863 -116.831924
v -92.813583 29.749863 -105.249023
v -92.813583 77.947784 -105.249023
v -83.390984 77.947784 -116.831924
v -89.601669 29.749863 -123.652603
v -108.292770 29.749863 -121.541206
v -108.292770 82.574257 -121.541206
v -90.035416 82.574257 -123.518661
v -82.953606 29.749863 -135.949829
v -99.554276 29.749863 -136.923996
v -99.554276 81.528107 -136.923996
v -82.953606 81.528107 -135.949829
v -91.589958 29.749863 -146.307159
v -104.237648 29.749863 -146.985580
v -104.237648 83.349800 -146.985580
v -91.589958 83.349800 -146.307159
v -82.694992 29.749863 -161.218704
v -96.439499 25.677197 -157.577286
v -96.439499 83.285591 -157.577286
v -82.694992 83.285591 -161.218704
v -85.925217 8.733865 -171.156174
v -102.732002 8.733865 -166.727005
v -96.983437 87.409874 -166.727005
v -85.925217 87.409874 -171.156174
v -100.074814 -3.785605 -182.589157
v -111.845985 -3.785605 -185.835983
v -111.845985 91.304054 -185.835983
v -100.074814 91.419853 -182.589157
v -100.347321 -3.785605 -191.549866
v -106.938393 -3.785605 -195.699921
v -106.938393 91.867104 -195.699921
v -100.347321 91.867104 -191.549866
v 16.468998 90.443352 -164.313873
v 16.468998 3.014309 -164.313873
v 7.114964 90.443352 -173.278030
v 7.114964 3.014309 -173.278030
v 37.114975 98.204437 -198.913361
v 37.114975 -4.364694 -198.913361
v 22.714909 98.204437 -200.281174
v 22.714909 -4.364694 -200.281174
v 45.918098 101.455826 -220.516708
v 47.650482 -3.114548 -220.516708
v 26.619347 98.204437 -220.190155
v 26.619347 -4.364694 -220.190155
v 28.313568 103.635391 -241.604797
v 25.470261 -4.364694 -241.604797
v 18.027809 99.975945 -233.045105
v 18.027809 -4.364694 -233.045105
v 6.964285 50.736633 26.479279
v 6.281706 32.880245 26.479279
v -20.054867 50.587097 26.479279
v -20.054867 32.880245 26.479279
v -23.411932 52.212135 11.837379
v 19.559191 55.615356 8.560424
v 19.050142 26.459192 8.560424
v -23.721241 26.842171 11.703574
v -4.700138 54.796700 0.671762
v -4.700138 27.422375 1.133551
v -24.071125 54.988022 4.364408
v -24.071125 26.076212 2.724699
v 24.543545 56.877617 -4.077871
v 24.543545 26.897604 -4.077871
v 32.011223 56.313965 -3.758146
v 32.011223 25.123627 -3.758146
v 31.610649 52.724342 -20.620581
v 31.610649 -4.364694 -20.620581
v 42.440308 54.070503 -20.377989
v 42.440308 -5.710856 -20.377989
v 31.137173 55.131775 -30.050207
v 31.137173 -4.364694 -30.050207
v 40.545609 56.477936 -36.477989
v 40.545609 -5.710856 -36.477989
v 28.233227 58.981499 -39.768974
v 28.233227 -3.825405 -39.768974
v 36.151608 59.981224 -46.843857
v 36.182026 -4.825127 -46.843857
v -85.910965 60.579796 -65.976105
v -85.910965 -4.364693 -65.976105
v -96.093498 61.925957 -64.110764
v -96.093498 -5.710857 -64.110764
v -81.992836 62.296143 -86.260445
v -81.992836 13.025906 -86.260445
v -90.413208 63.580025 -90.108162
v -90.413208 11.742020 -90.108162
v -71.849106 65.644226 -94.376488
v -71.849106 11.871300 -94.376488
v -76.113724 67.555626 -100.447220
v -76.113724 13.262432 -100.447220
v -87.216011 59.325333 -73.857315
v -94.923767 60.671494 -75.668243
v -94.923767 0.361325 -75.668243
v -87.216011 1.707490 -73.857315
v -22.561823 54.835083 -6.710770
v -52.691196 58.205338 -22.356934
v -63.921791 61.083038 -48.266781
v -82.844719 61.433937 -47.178589
v -82.844719 -5.710857 -47.178589
v -63.921791 -5.710857 -48.266781
v -52.691193 -5.710858 -22.356934
v -22.561823 26.076212 -8.350446
v -19.511763 55.995949 -13.300583
v -47.767349 58.327034 -28.451454
v -57.127937 61.787987 -55.178009
v -76.373779 60.087776 -56.042549
v -76.373779 -4.364693 -56.042549
v -57.127945 -4.364693 -55.178047
v -47.767349 -4.364694 -28.451454
v -19.511757 27.422375 -12.038225
v -13.274916 -4.411202 -68.665436
v -23.379715 -4.457708 -64.668716
v -36.187904 -2.904609 -73.333229
v -36.187904 65.745987 -73.333229
v -23.379719 66.555489 -64.668732
v -13.274917 65.563416 -65.827339
v -14.227054 65.563416 -57.745323
v -23.547846 66.555489 -54.533257
v -38.943634 65.745987 -66.274780
v -38.943634 -2.904609 -66.274780
v -23.547846 -4.457708 -54.533257
v -14.227056 -4.411202 -57.745323
v -81.931679 1.204542 -202.353027
v -89.814453 -3.785605 -205.268768
v -90.820145 90.685036 -205.268768
v -81.931679 90.685036 -202.353027
v -79.371765 -3.785605 -215.363312
v -86.536552 -3.785605 -222.847412
v -86.536552 94.001862 -222.847412
v -79.371765 94.001862 -215.363312
v -78.454994 -3.785605 -226.484909
v -83.480431 -3.785605 -236.688354
v -83.480431 94.644371 -236.688354
v -78.454994 93.336914 -226.484909
v -52.845367 -3.785605 -236.897003
v -64.232094 -3.785605 -243.115997
v -64.232094 94.090805 -243.115997
v -52.845367 94.090805 -236.897003
v 43.593826 93.895622 -182.127090
v 27.995546 94.990089 -184.471085
v 43.593826 2.852417 -182.127090
v 27.995546 -3.501517 -184.471085
v 10.441458 14.377468 -132.409836
v 29.734879 14.377468 -128.872314
v 29.734879 80.542130 -128.872314
v 10.441458 80.542130 -132.409836
v -7.873122 79.382011 -148.664444
v -7.873122 12.409048 -148.664444
v -13.399402 12.409048 -139.146576
v -13.399402 81.475899 -139.146576
v -40.496693 82.819260 -169.433807
v -40.496693 12.409046 -169.433807
v -36.171951 12.409046 -155.667786
v -36.171951 79.382011 -155.667786
v -62.867920 79.382011 -175.146912
v -62.867920 12.409046 -175.146912
v -61.708752 12.409046 -164.017029
v -61.708752 79.382011 -164.017029
v 19.841816 104.292397 -261.813416
v 18.420162 -4.364694 -261.813416
v 3.858296 102.255203 -258.651733
v 3.766671 -4.364694 -258.651733
v -56.954231 -3.785605 -252.785980
v -64.359634 -3.785605 -259.712524
v -64.359634 95.957298 -259.712524
v -56.954231 95.957298 -252.785980
v -5.844632 -3.785605 -285.452271
v -17.047070 -3.785605 -289.740601
v -17.047070 106.576111 -289.740601
v -5.844632 106.576111 -285.452271
v 12.048474 -3.785606 -297.143982
v 3.418235 -3.785606 -309.354034
v 3.418235 108.658279 -309.354034
v 12.048474 108.658279 -297.143982
v -5.931161 80.492111 -87.537964
v -15.467170 85.261673 -108.018105
v 13.240722 -3.671817 -63.685806
v 38.076012 37.707405 -78.910439
v 5.860264 37.589684 -79.524666
v 38.076012 73.126259 -86.923721
v 16.277109 66.129173 -63.475838
v 12.042074 104.846146 -280.016663
v 12.621383 -4.364694 -272.825165
v 2.805674 104.846146 -276.986481
v 2.805674 -4.364694 -276.986481
v 18.358345 -3.785605 -322.088806
v 6.706656 -3.785605 -325.159821
v 6.706656 113.144981 -325.159821
v 18.358345 113.144981 -322.088806
v 25.145464 -3.785605 -341.494537
v 16.909853 -3.785605 -341.461426
v 16.909853 121.958763 -341.461426
v 25.145464 121.958763 -341.494537
v 14.539263 -3.785605 -363.758148
v -0.098214 -3.785605 -365.552765
v -0.098214 131.183167 -365.552765
v 14.539263 131.183167 -363.758148
v 14.635686 -3.785606 -397.409973
v 0.120884 -3.785606 -398.108948
v 0.120884 150.829453 -395.285675
v 14.635686 150.829453 -394.586670
v 21.951397 145.318954 -378.916992
v 7.451836 145.318954 -380.711670
v 7.451836 -3.785605 -383.534912
v 21.951397 -3.785605 -381.740265
v 23.896122 -3.785605 -403.684631
v -8.277924 -3.785605 -404.734161
v -8.277924 154.887863 -404.734161
v 23.896122 154.887863 -403.684631
v 24.535406 -3.785605 -431.546478
v -7.638641 -3.785605 -432.596039
v -7.638641 155.718643 -432.596039
v 24.535406 155.718643 -431.546478
v 0.511692 67.411812 -64.004959
v 1.389917 -3.827093 -26.957518
v 8.481989 27.814650 -10.679504
v 10.980354 61.123821 -27.013500
v 18.578979 59.004017 -10.882484
v 8.256224 57.791161 -10.770410
v 1.274952 60.301987 -27.003807
v 17.819176 27.804459 -11.378666
v 10.593439 -3.716733 -27.266169
v 12.786326 46.890244 43.079861
v 12.103733 32.880245 43.079861
v -30.202707 46.740707 43.079861
v -30.202707 32.880245 43.079861
v -3.495828 43.193321 77.714134
v -3.842244 30.978180 77.714134
v -22.014729 43.043785 77.714134
v -22.014729 30.978180 77.714134
v 21.321230 27.025490 119.620941
v 21.221535 -7.229942 119.620941
v 0.213518 26.875954 119.620941
v 0.213518 -7.229942 119.620941
v 46.854973 19.598465 141.398254
v 46.814056 -14.656967 141.521103
v 41.742020 19.448929 156.750916
v 41.742020 -14.656967 156.750916
v 91.481911 0.116732 161.178101
v 91.505692 -34.138702 161.308655
v 94.454025 -0.032804 177.494354
v 94.022667 -34.138702 172.113480
v 136.049728 -0.243219 124.064880
v 136.144180 -34.498653 124.096725
v 154.432556 -0.392756 135.369614
v 154.432556 -34.498653 135.369614
v 128.529633 7.322030 89.059479
v 128.611984 -26.933403 88.971390
v 138.821899 7.172494 78.053360
v 138.821899 -26.933403 78.053360
v 85.171524 8.628654 59.111427
v 85.214928 -25.626778 59.003639
v 90.596130 8.479118 45.642193
v 90.596130 -25.626778 45.642193
v 59.561237 8.628654 72.163513
v 59.557167 -25.626778 72.016876
v 59.053917 8.479118 53.838608
v 59.053917 -25.626778 53.838608
v -92.626457 8.628656 71.404907
v -92.596588 -25.626776 71.197884
v -90.499245 8.479120 45.181499
v -90.499245 -25.626776 45.181499
v -135.133926 7.326599 55.804199
v -135.051987 -26.928831 55.747429
v -112.009613 7.177063 34.498745
v -112.009613 -26.928831 34.498745
v -164.499405 2.231362 -36.493649
v -164.332382 -23.750893 -36.461491
v -143.627228 2.081826 -32.474567
v -143.627228 -23.750893 -32.474567
v -155.293716 2.231362 -109.130661
v -155.232010 -23.750893 -108.987274
v -142.502609 2.081826 -89.968864
v -142.502609 -23.750893 -89.968864
v -122.655327 7.987960 -104.591797
v -122.625832 -23.750893 -104.457237
v -118.969444 7.838424 -87.775497
v -118.969444 -23.750893 -87.775497
v -85.910934 10.504543 -151.290344
v -85.825012 -23.750893 -151.239761
v -75.175354 7.898880 -138.888107
v -75.175354 -26.207020 -138.888107
v -41.934906 8.926485 -122.247688
v -42.019646 -25.328951 -122.300201
v -54.914936 8.776949 -124.680397
v -54.914936 -25.328951 -124.680397
v 83.699661 10.840061 -30.099379
v 82.546310 -37.765835 -29.896479
v 75.035446 10.627880 -2.848954
v 75.035446 -37.765835 -2.848954
v 120.927338 3.649170 -44.982094
v 120.894028 -30.606266 -44.846607
v 116.764145 3.499634 -19.987915
v 116.764145 -30.606266 -19.987915
v 142.982437 -9.634892 26.730080
v 142.872803 -41.516190 26.816360
v 129.281052 -9.784428 37.509804
v 129.281052 -41.516190 37.509804
v -36.649776 -28.041798 -104.839684
v 76.521553 -31.151018 -112.110794
v 69.159874 -34.260239 -52.324932
v 54.476730 -36.659538 -45.754700
v 54.026272 -31.151018 -95.005165
v -44.788071 -28.041798 -86.679344
v -36.584126 9.343891 -104.937584
v 76.639359 9.822287 -112.189621
v 69.237434 10.300680 -52.377937
v -44.788067 9.180691 -86.679344
v 54.026272 9.643423 -95.005165
v 54.476730 7.706856 -45.754700
v 191.001419 -19.597080 37.482109
v 190.679871 -53.852516 37.611881
v 167.390732 -19.746616 47.130497
v 167.390732 -53.852516 47.130497
v -65.506294 -26.989632 -134.542862
v -65.506294 7.116264 -134.542862
v -64.910187 -24.533504 -156.624649
v -64.905380 9.721928 -156.701126
v -19.185825 -28.675556 -109.596321
v 5.658137 -29.711964 -99.749985
v 15.143178 -29.711962 -79.116737
v -23.467953 -28.675556 -95.023178
v -19.151279 9.441403 -109.713882
v 5.581620 9.600868 -99.855568
v -23.467949 9.275010 -95.023178
v 15.143179 9.429255 -79.116745
v 209.315460 -22.306400 69.184006
v 209.044678 -51.154999 69.293297
v 175.465607 -22.432335 82.840874
v 175.465607 -51.154999 82.840874
v -105.817711 5.746323 4.020245
v -126.424858 5.895859 7.993786
v -105.817711 -26.036469 4.020245
v -126.297783 -26.036469 7.961987
v 36.015911 -25.626778 29.202030
v 1.388753 -25.626778 51.729427
v -32.757416 -25.626778 31.637157
v -32.757412 8.479120 31.637157
v 1.388760 8.479119 51.729427
v 36.015915 8.479118 29.202030
v 32.426521 -25.626778 46.022713
v 1.250735 -25.626778 63.653210
v -49.607689 -25.626778 53.698845
v 32.397018 8.628654 46.156261
v 1.170757 8.628655 63.767094
v -49.746002 8.628656 53.862015
v 114.754021 -34.237453 170.887390
v 124.171883 -34.357437 140.657593
v 124.341118 -0.251538 142.768631
v 115.067039 -0.131554 174.792053
v 109.714958 -34.237453 161.963486
v 116.068428 -34.357437 134.019058
v 109.671799 0.017982 161.860016
v 116.001709 -0.102002 133.948486
v -45.694492 99.292297 -259.720856
v -20.303856 102.831902 -268.008362
v -30.167452 102.831902 -273.226959
v -51.158134 99.292297 -273.336792
v -51.158134 -3.785606 -273.336792
v -30.167450 -3.785605 -273.226959
v -20.303856 -3.785605 -268.008392
v -45.694477 -3.785606 -259.720856
v -4.682870 81.220863 -121.347397
v -28.837543 83.035797 -133.782623
vn -0.1290 0.9879 0.0855
vn -0.0412 0.9820 0.1845
vn -0.2023 -0.0300 -0.9789
vn -0.0092 -0.9998 -0.0202
vn 0.8624 -0.0369 0.5048
vn -0.0541 -0.9609 0.2716
vn -0.0818 -0.9966 0.0070
vn 0.0184 -0.9998 -0.0018
vn -0.8782 -0.0009 -0.4784
vn -0.9849 -0.0000 -0.1732
vn -0.0304 0.9878 0.1527
vn 0.9165 -0.0000 -0.3999
vn -0.0302 -0.9877 0.1536
vn 0.0063 -0.9999 0.0130
vn 0.8570 -0.0181 -0.5150
vn 0.0715 -0.0000 -0.9974
vn -0.9995 -0.0000 0.0321
vn -0.1079 -0.0000 0.9942
vn -0.5794 -0.7339 -0.3545
vn 0.1863 0.9759 0.1140
vn 0.9882 -0.0000 -0.1530
vn 0.0428 0.9959 0.0801
vn -0.2004 -0.9050 -0.3751
vn 0.9901 -0.0000 0.1403
vn 0.1162 0.9756 0.1863
vn -0.9989 -0.0000 0.0467
vn -0.0731 0.9879 -0.1368
vn 0.0660 -0.9839 0.1661
vn -0.1877 -0.9822 0.0118
vn -0.2791 -0.9360 -0.2146
vn 0.6521 -0.0000 -0.7581
vn -0.6073 -0.0000 -0.7945
vn -0.0004 -0.0000 -1.0000
vn 0.1206 -0.0000 -0.9927
vn -0.2208 -0.0000 0.9753
vn 0.3126 0.9296 0.1952
vn 0.1282 0.9566 0.2617
vn 0.2816 -0.0000 0.9595
vn 0.2159 0.9580 0.1886
vn -0.4376 -0.8845 -0.1616
vn 0.8743 0.0030 0.4853
vn -0.0000 -1.0000 -0.0000
vn 0.7251 0.0040 -0.6887
vn -0.7250 -0.0000 0.6888
vn -0.9066 -0.0000 0.4220
vn -0.8695 -0.0000 -0.4939
vn -0.0022 0.9971 -0.0763
vn 0.8588 -0.0000 0.5123
vn -0.0103 0.9832 0.1822
vn 0.7680 -0.0000 -0.6404
vn 0.1215 0.9197 0.3734
vn -0.8053 -0.0000 -0.5929
vn -0.0006 1.0000 -0.0054
vn 0.1762 -0.9476 0.2666
vn 0.0077 0.9698 0.2437
vn 0.2832 -0.4866 0.8264
vn -0.1705 -0.0000 -0.9854
vn -0.9449 0.0399 0.3251
vn 0.9995 -0.0000 -0.0304
vn 0.0257 -0.7826 0.6220
vn 0.6285 -0.0000 -0.7778
vn -0.8496 0.0281 0.5267
vn 0.5060 -0.0000 0.8625
vn -0.8953 -0.0000 -0.4454
vn -0.0254 0.9986 0.0473
vn 0.0081 0.9750 0.2221
vn -0.1386 -0.9398 0.3123
vn -0.1426 0.9362 0.3213
vn 0.9490 -0.0000 -0.3153
vn 0.9124 0.0076 0.4092
vn 0.9329 -0.0000 -0.3601
vn -0.9485 -0.0000 0.3168
vn 0.1835 -0.9676 0.1737
vn -0.8314 -0.0000 0.5557
vn -0.9813 -0.0000 -0.1924
vn 0.0358 -0.9992 -0.0176
vn -0.0974 0.9941 0.0480
vn -0.1510 0.9789 0.1374
vn 0.0431 -0.9991 -0.0023
vn -0.1549 0.9605 0.2313
vn 0.7274 -0.0038 -0.6862
vn 0.8157 -0.0207 0.5782
vn -0.9729 0.0063 0.2313
vn 0.0111 -0.9334 0.3588
vn -0.0213 -0.9892 -0.1448
vn -0.0021 0.9750 0.2222
vn -0.0758 0.9723 0.2211
vn -0.7876 -0.0000 0.6162
vn -0.9981 0.0037 0.0617
vn 0.0647 -0.9960 0.0617
vn 0.3949 -0.0076 -0.9187
vn 0.6960 -0.0059 0.7180
vn -0.1105 -0.4922 0.8634
vn 0.0687 0.9897 0.1259
vn -0.1307 -0.9872 -0.0911
vn -0.4085 0.0189 -0.9126
vn -0.9987 -0.0000 0.0501
vn -0.9196 -0.0000 -0.3929
vn 0.8470 -0.0000 0.5315
vn -0.0354 0.9776 -0.2073
vn 0.9212 0.0002 -0.3891
vn 0.9931 -0.0000 -0.1169
vn -0.0718 0.9789 0.1913
vn -0.1283 -0.9917 0.0119
vn 0.2580 0.0001 -0.9661
vn 0.1105 0.9456 0.3060
vn -0.1469 -0.9890 -0.0170
vn -0.9581 -0.0000 0.2863
vn -0.4182 -0.0000 0.9083
vn 0.2479 0.9023 0.3528
vn 0.0741 0.9682 0.2389
vn 0.1187 0.9908 -0.0644
vn 0.1036 -0.9907 -0.0878
vn 0.7214 -0.0000 -0.6926
vn 0.0035 -0.9999 -0.0152
vn 0.3172 -0.7778 -0.5427
vn 0.9216 -0.0000 0.3881
vn -0.9545 -0.0000 -0.2982
vn 0.2122 -0.8244 -0.5248
vn 0.6247 -0.0000 0.7808
vn -0.5859 -0.0000 -0.8104
vn -0.0270 0.9409 0.3376
vn -0.0544 0.9386 0.3407
vn -0.9949 -0.0000 -0.1007
vn 0.9866 -0.0000 -0.1634
vn 0.1250 -0.8411 -0.5263
vn 0.1472 0.9808 -0.1276
vn 0.6749 -0.0227 -0.7376
vn 0.4924 -0.0120 -0.8703
vn 0.9438 -0.0000 -0.3305
vn 0.0449 -0.0000 -0.9990
vn 0.1056 -0.9927 -0.0579
vn 0.6221 -0.7193 0.3092
vn 0.1579 -0.9855 -0.0618
vn -0.0010 -0.9856 -0.1690
vn -0.0193 0.9985 0.0520
vn 0.0330 0.9921 0.1211
vn 0.0437 0.9938 0.1026
vn -0.0357 0.9969 -0.0705
vn -0.9908 0.0077 -0.1351
vn -0.4354 -0.0159 0.9001
vn -0.9175 -0.0000 0.3977
vn 0.0574 -0.0000 0.9984
vn 0.1030 0.9947 0.0063
vn -0.0510 0.9987 -0.0087
vn 0.0408 -0.9991 -0.0096
vn 0.0049 -1.0000 0.0003
vn -0.0976 -0.9951 -0.0166
vn -0.4897 -0.0000 0.8719
vn 0.3258 -0.0000 0.9454
vn -0.6064 -0.0000 0.7951
vn -0.2463 0.0195 -0.9690
vn 0.5603 -0.0000 -0.8283
vn 0.9812 -0.0000 0.1931
vn -0.4990 -0.0026 -0.8666
vn 0.0298 0.9974 -0.0653
vn 0.2391 -0.9535 0.1836
vn 0.0878 0.9960 0.0131
vn -0.9775 -0.0051 -0.2107
vn -0.1197 0.9755 0.1848
vn 0.1863 -0.9634 0.1927
vn 0.3766 -0.0000 0.9264
vn 0.9966 -0.0000 0.0822
vn -0.9765 -0.0000 -0.2156
vn -1.0000 -0.0000 0.0077
vn -0.3167 -0.0000 -0.9485
vn 0.0184 0.9980 0.0610
vn 0.0802 -0.9341 0.3478
vn -0.4725 -0.0000 -0.8814
vn 0.5489 -0.0000 0.8359
vn -0.0454 0.9797 0.1950
vn -0.9980 0.0188 -0.0597
vn 1.0000 -0.0000 -0.0057
vn 0.0209 0.9998 0.0031
vn -0.0561 -0.6357 0.7699
vn -0.0141 0.9983 0.0569
vn -0.2719 -0.0000 0.9623
vn 0.0972 -0.0000 -0.9953
vn -0.0679 0.9977 0.0053
vn -0.3108 -0.0000 0.9505
vn 0.5370 -0.0000 -0.8436
vn -0.5872 -0.0000 0.8094
vn 0.2777 0.9520 0.1285
vn -0.1176 0.9799 0.1612
vn 0.2474 -0.0000 -0.9689
vn -0.1051 -0.6930 0.7132
vn 0.1322 -0.0000 0.9912
vn 0.9333 -0.0184 -0.3587
vn -0.8743 0.0004 0.4854
vn -0.0559 0.9935 0.0991
vn -0.0717 0.9847 0.1589
vn -0.0874 0.9883 0.1250
vn 0.9682 -0.0000 -0.2504
vn -0.0546 0.9963 0.0656
vn 0.7699 -0.0000 0.6382
vn -0.7830 -0.0000 -0.6221
vn -0.1372 0.9737 0.1821
vn 0.0337 0.9791 0.2006
vn -0.6919 -0.0000 -0.7220
vn 0.9609 -0.0282 -0.2754
vn 0.6123 0.0409 0.7895
vn 0.0027 -1.0000 0.0091
vn 0.0261 -0.3542 -0.9348
vn -0.9284 -0.3596 0.0934
vn 0.9999 0.0022 -0.0134
vn 0.9063 -0.0174 -0.4222
vn -0.9985 0.0004 0.0549
vn -0.0637 0.9066 0.4172
vn 0.9695 -0.0000 0.2452
vn -0.9790 -0.0000 -0.2037
vn -0.0089 -0.9994 -0.0328
vn -0.6994 -0.0000 0.7147
vn 0.9028 -0.0000 -0.4301
vn 0.9439 -0.0000 0.3301
vn -0.8477 -0.0000 -0.5305
vn -0.8169 -0.0000 0.5767
vn -0.0296 0.9225 0.3848
vn -0.0305 0.9343 0.3552
vn -0.8939 -0.0083 0.4481
vn -0.0150 0.9163 0.4003
vn -0.9106 0.0041 -0.4132
vn 0.9066 0.0078 -0.4219
vn -0.0811 0.7486 0.6581
vn 0.9135 -0.0040 0.4069
vn -0.9997 -0.0000 -0.0229
vn -0.6922 -0.0065 0.7217
vn 0.6396 -0.0069 0.7687
vn 0.0326 -0.0000 -0.9995
vn 0.9997 -0.0000 0.0229
vn -0.0010 0.9996 0.0298
vn -0.9853 -0.1075 -0.1330
vn 0.1218 0.8977 0.4234
vn -0.0499 0.9837 0.1729
vn 0.2215 0.0207 -0.9749
vn -0.0244 0.9752 0.2198
vn 0.0785 0.9944 0.0708
vn -0.8551 -0.0103 -0.5184
vn -0.9168 -0.0027 0.3993
vn 0.8838 -0.0035 0.4678
vn 0.9101 -0.0076 -0.4144
vn 0.0189 -0.9998 -0.0025
vn 0.0506 -0.4623 0.8853
vn -0.0659 0.9921 0.1069
vn -0.0982 0.9780 0.1842
vn -0.0042 0.9743 0.2252
vn -0.8532 -0.0000 -0.5216
vn 0.9414 -0.0403 -0.3348
vn -0.0048 0.9944 0.1056
vn -0.9732 -0.0000 0.2301
vn -0.0000 -0.9985 -0.0548
vn 0.9072 -0.0356 0.4192
vn -0.0070 0.9316 0.3634
vn -0.8834 -0.0000 0.4686
vn -0.0000 -0.7390 -0.6737
vn 0.8569 -0.0082 -0.5153
vn -0.0870 -0.9850 -0.1490
vn 0.6491 -0.0027 -0.7607
vn 0.0805 0.9844 0.1566
vn -0.6665 -0.0000 0.7455
vn 0.3595 0.9326 0.0331
vn -0.3480 -0.0715 0.9348
vn -0.3615 -0.9317 -0.0355
vn 0.4038 -0.0035 -0.9149
vn 0.2055 -0.0308 0.9782
vn -0.0039 -1.0000 0.0057
vn -0.4426 -0.0024 -0.8967
vn 0.0074 1.0000 0.0051
vn 0.0020 -0.9868 -0.1620
vn -0.9778 -0.0027 0.2093
vn 0.0086 0.9871 0.1596
vn 0.9649 -0.0000 -0.2628
vn 0.0256 0.9997 0.0042
vn 0.5578 -0.0000 -0.8300
vn -0.0198 -0.9997 -0.0127
vn -0.5683 -0.0034 0.8228
vn -0.0037 0.9999 -0.0100
vn -0.2515 -0.0000 -0.9679
vn 0.4532 -0.0031 0.8914
vn -0.2284 -0.0000 -0.9736
vn 0.3778 -0.0041 0.9259
vn -0.0022 1.0000 -0.0070
vn 0.0334 -0.9993 0.0178
vn -0.3431 -0.0042 0.9393
vn -0.0312 0.9992 -0.0229
vn 0.4448 -0.0000 -0.8956
vn 0.0073 0.9953 -0.0969
vn 0.6945 -0.0000 -0.7195
vn 0.0001 -0.9984 -0.0565
vn -0.7596 -0.0039 0.6503
vn 0.0084 1.0000 0.0007
vn 0.9998 -0.0000 0.0196
vn -0.9921 -0.0048 -0.1251
vn 0.1381 -0.0046 -0.9904
vn -0.2117 0.9717 0.1051
vn -0.0928 -0.0000 0.9957
vn 0.0514 0.9963 0.0686
vn 0.7594 -0.0000 0.6506
vn -0.0830 -0.9956 -0.0433
vn -0.7859 -0.0031 -0.6184
vn -0.6815 -0.0000 0.7318
vn 0.0993 -0.9935 -0.0558
vn 0.8320 -0.0013 -0.5548
vn -0.1092 0.9920 0.0634
vn 0.0007 -0.9975 -0.0708
vn 0.8483 -0.0127 -0.5293
vn -0.1099 0.9939 0.0063
vn -0.9018 -0.0000 0.4321
vn 0.2001 0.9782 0.0559
vn 0.3799 -0.0000 0.9250
vn 0.1926 -0.9803 0.0432
vn -0.3672 0.0015 -0.9302
vn -0.2143 -0.9709 -0.1068
vn 0.9558 -0.0031 -0.2941
vn 0.2469 0.9601 0.1313
vn -0.9771 -0.0000 0.2127
vn -0.9663 -0.0000 0.2575
vn 0.3783 -0.0000 0.9257
vn -1.0000 -0.0000 0.0091
vn -0.0214 0.9997 -0.0089
vn -0.0017 1.0000 0.0086
vn -0.0683 0.9976 0.0090
vn 0.9556 -0.0022 -0.2948
vn -0.1714 -0.0022 -0.9852
vn 0.9925 -0.0021 0.1225
vn -0.0604 -0.9949 -0.0805
vn -0.0288 -0.9995 -0.0099
vn 0.0148 -0.9969 -0.0779
vn -0.2448 -0.0000 0.9696
vn -0.1849 -0.9230 -0.3374
vn 0.2184 -0.0046 -0.9759
vn 0.1505 0.9455 0.2887
vn 0.0551 0.9896 0.1331
vn -0.2495 -0.0021 -0.9684
vn -0.0550 -0.9906 -0.1253
vn -0.4099 -0.0000 0.9121
vn -0.0375 -0.9992 -0.0142
vn -0.0347 -0.9994 0.0051
vn -0.2636 -0.0024 -0.9646
vn 0.3693 -0.0025 -0.9293
vn -0.0018 1.0000 0.0093
vn -0.0094 0.9999 0.0109
vn 0.3644 -0.0000 0.9312
vn -0.3809 -0.0000 0.9246
vn 0.8655 -0.0100 -0.5008
vn 0.0238 0.9972 0.0705
vn -0.9754 -0.0000 0.2206
vn 0.0279 -0.9972 0.0689
vn -0.9837 -0.0029 -0.1797
vn -0.0148 -0.9996 -0.0256
vn 0.9800 -0.0000 0.1991
vn -0.0160 0.9991 -0.0396
vn 0.0079 0.9999 -0.0078
vn -0.0068 0.9999 -0.0112
vn 0.0026 1.0000 -0.0074
vn -0.6917 -0.0032 0.7222
vn 0.4917 -0.0024 0.8707
vn -0.1915 -0.0046 0.9815
vn 0.7304 -0.0000 -0.6830
vn -0.5453 -0.0000 -0.8382
vn 0.5071 -0.0000 -0.8619
vn 0.0055 0.9999 0.0086
vn 0.0199 0.9998 0.0012
vn 0.0367 -0.0034 -0.9993
vn -0.9752 -0.0021 -0.2214
vn -0.0050 -1.0000 0.0019
vn -0.0037 -1.0000 0.0031
vn 0.0931 -0.1353 0.9864
vn 0.9572 -0.0321 0.2875
vn -0.7182 -0.0000 -0.6959
vn 0.0052 -0.0000 -1.0000
vn 0.5244 -0.0000 0.8515
vn 0.3103 -0.0000 0.9506
vn -0.1748 0.9785 0.1095
vn -0.1315 0.9855 0.1070
vn 0.0444 0.9988 -0.0186
vn 0.0822 0.9900 -0.1149
vn 0.0685 0.9909 -0.1160
vn 0.1227 0.9714 -0.2033
vn 0.1962 0.9740 0.1129
vn 0.1565 0.9867 0.0430
vn -0.0244 0.9961 -0.0845
vn 0.4378 0.8819 0.1752
vn 0.1903 0.9642 0.1849
vn 0.3083 0.9398 0.1471
vn -0.2940 0.7339 0.6123
vn -0.2962 0.7588 0.5801
vn -0.3489 0.8637 0.3636
vn -0.1964 0.9767 -0.0864
vn -0.2087 0.9762 0.0583
vn 0.0748 0.6079 0.7905
vn -0.2821 0.8997 0.3330
vn 0.1458 0.7915 0.5935
vn -0.1804 0.8379 0.5151
vn 0.1909 0.9719 0.1375
vn 0.0398 0.9984 0.0411
vn 0.1583 0.9637 0.2148
vn 0.5339 -0.0000 0.8455
vn 0.1481 -0.2625 0.9535
vn 0.3742 -0.0000 0.9274
vt 0.625000 0.722143
vt 0.875000 0.722143
vt 0.875000 0.750000
vt 0.625000 0.750000
vt 0.375000 0.212104
vt 0.625000 0.212104
vt 0.625000 0.250000
vt 0.125000 0.722143
vt 0.375000 0.722143
vt 0.375000 0.750000
vt 0.125000 0.750000
vt 0.375000 0.500000
vt 0.125000 0.500000
vt 0.375000 0.500000
vt 0.375000 0.663164
vt 0.375000 0.651584
vt 0.125000 0.651584
vt 0.125000 0.663164
vt 0.375000 0.056802
vt 0.625000 0.056802
vt 0.625000 0.086836
vt 0.375000 0.086836
vt 0.375000 0.250000
vt 0.875000 0.500000
vt 0.625000 0.500000
vt 0.625000 0.500000
vt 0.125000 0.613688
vt 0.375000 0.613688
vt 0.625000 0.613688
vt 0.625000 0.651584
vt 0.625000 0.098416
vt 0.375000 0.098416
vt 0.375000 0.098416
vt 0.625000 0.098416
vt 0.625000 0.086836
vt 0.125000 0.663164
vt 0.875000 0.663164
vt 0.875000 0.651584
vt 0.875000 0.663164
vt 0.375000 0.000000
vt 0.625000 0.000000
vt 0.625000 0.663164
vt 0.875000 0.750000
vt 0.875000 0.750000
vt 0.125000 0.750000
vt 0.125000 0.750000
vt 0.125000 0.750000
vt 0.125000 0.750000
vt 0.875000 0.651584
vt 0.375000 0.086835
vt 0.875000 0.663165
vt 0.125000 0.663166
vt 0.375000 0.537896
vt 0.625000 0.537896
vt 0.625000 0.575792
vt 0.375000 0.575792
vt 0.125000 0.537896
vt 0.125000 0.575792
vt 0.375000 0.174208
vt 0.625000 0.174208
vt 0.000000 0.000000
vt 0.625000 0.027857
vt 0.375000 0.027857
vt 0.625000 0.693198
vt 0.375000 0.693198
vt 0.125000 0.693198
vt 0.875000 0.693198
vt 0.878491 0.750000
vt 0.625000 0.750000
vt 0.375000 0.000000
vt 0.625000 0.750000
vt 0.625000 0.750000
vt 0.375000 0.750000
vt 0.375000 0.000000
vt 0.625000 0.750000
vt 0.125000 0.651584
vt 0.875000 0.663166
vt 0.625000 0.231052
vt 0.750000 0.356052
vt 0.875000 0.575792
s 0
usemtl Material
f 255/1/1 256/2/1 7/3/1 3/4/1
f 93/4/2 92/3/2 90/3/2 88/4/2
f 6/5/3 213/6/3 5/7/3
f 253/8/4 258/9/4 4/10/4 8/11/4
f 258/9/5 255/1/5 3/4/5 4/10/5
f 181/12/6 180/13/6 16/13/6 14/14/6
f 115/10/7 113/10/7 12/15/7 17/16/7
f 18/17/8 17/16/8 12/15/8 9/18/8
f 252/19/9 257/20/9 11/21/9 9/22/9
f 16/23/10 15/7/10 74/7/10 75/23/10
f 183/24/11 182/25/11 13/26/11 15/24/11
f 182/25/12 181/12/12 14/14/12 13/26/12
f 16/13/13 180/13/13 186/13/13 185/13/13
f 18/27/14 214/28/14 17/16/14
f 214/28/15 218/29/15 19/30/15 17/16/15
f 151/31/16 150/32/16 20/33/16 23/34/16
f 21/22/17 22/21/17 26/21/17 25/22/17
f 157/22/18 156/35/18 22/21/18 21/22/18
f 150/17/19 157/36/19 21/18/19 20/17/19
f 156/37/20 151/38/20 23/38/20 22/39/20
f 27/34/21 24/33/21 28/33/21 31/34/21
f 22/39/22 23/38/22 27/38/22 26/39/22
f 20/17/23 21/18/23 25/18/23 24/17/23
f 23/34/24 20/33/24 24/33/24 27/34/24
f 30/39/25 31/38/25 35/38/25 34/39/25
f 25/22/26 26/21/26 30/21/26 29/22/26
f 26/39/27 27/38/27 31/38/27 30/39/27
f 24/17/28 25/18/28 29/18/28 28/17/28
f 32/17/29 33/18/29 37/18/29 36/17/29
f 28/17/30 29/18/30 33/18/30 32/17/30
f 31/34/31 28/33/31 32/33/31 35/34/31
f 127/40/32 126/41/32 34/21/32 33/22/32
f 39/34/33 36/33/33 40/33/33 43/34/33
f 35/34/34 32/33/34 36/33/34 39/34/34
f 33/22/35 34/21/35 38/21/35 37/22/35
f 34/39/36 35/38/36 39/38/36 38/39/36
f 42/39/37 43/38/37 47/38/37 46/39/37
f 37/22/38 38/21/38 42/21/38 41/22/38
f 38/39/39 39/38/39 43/38/39 42/39/39
f 36/17/40 37/18/40 41/18/40 40/17/40
f 47/34/41 44/33/41 48/33/41 51/34/41
f 40/17/42 41/18/42 45/18/42 44/17/42
f 43/34/43 40/33/43 44/33/43 47/34/43
f 41/22/44 42/21/44 46/21/44 45/22/44
f 49/22/45 50/21/45 54/21/45 53/22/45
f 45/22/46 46/21/46 50/21/46 49/22/46
f 46/39/47 47/38/47 51/38/47 50/39/47
f 44/17/42 45/18/42 49/18/42 48/17/42
f 55/34/48 52/33/48 56/33/48 59/34/48
f 50/39/49 51/38/49 55/38/49 54/39/49
f 48/17/42 49/18/42 53/18/42 52/17/42
f 51/34/50 48/33/50 52/33/50 55/34/50
f 58/39/51 59/38/51 63/38/51 62/39/51
f 53/22/52 54/21/52 58/21/52 57/22/52
f 54/39/53 55/38/53 59/38/53 58/39/53
f 52/17/54 53/18/54 57/18/54 56/17/54
f 62/39/55 63/38/55 67/38/55 66/39/55
f 56/17/56 57/18/56 61/18/56 60/17/56
f 192/7/57 193/23/57 60/33/57 63/34/57
f 57/22/58 58/21/58 62/21/58 61/22/58
f 67/34/59 64/33/59 68/33/59 71/34/59
f 60/17/60 61/18/60 65/18/60 64/17/60
f 63/34/61 60/33/61 64/33/61 67/34/61
f 61/22/62 62/21/62 66/21/62 65/22/62
f 71/34/63 68/33/63 160/33/63 163/34/63
f 65/22/64 66/21/64 70/21/64 69/22/64
f 66/39/65 67/38/65 71/38/65 70/39/65
f 64/17/42 65/18/42 69/18/42 68/17/42
f 177/24/66 176/26/66 76/26/66 78/24/66
f 14/14/67 16/13/67 75/13/67 73/14/67
f 15/24/68 13/26/68 72/26/68 74/24/68
f 13/26/69 14/14/69 73/14/69 72/26/69
f 76/26/70 77/14/70 81/14/70 80/26/70
f 176/26/71 178/14/71 77/14/71 76/26/71
f 179/23/72 177/7/72 78/7/72 79/23/72
f 178/14/73 179/13/73 79/13/73 77/14/73
f 83/23/74 82/7/74 86/7/74 87/23/74
f 79/23/75 78/7/75 82/7/75 83/23/75
f 77/14/76 79/13/76 83/13/76 81/14/76
f 78/24/77 76/26/77 80/26/77 82/24/77
f 86/24/78 84/26/78 196/26/78 198/24/78
f 81/14/79 83/13/79 87/13/79 85/14/79
f 82/24/80 80/26/80 84/26/80 86/24/80
f 80/26/81 81/14/81 85/14/81 84/26/81
f 94/10/82 93/4/82 88/4/82 89/10/82
f 92/41/83 95/40/83 91/40/83 90/41/83
f 95/11/84 94/10/84 89/10/84 91/11/84
f 8/11/85 4/10/85 94/10/85 95/11/85
f 92/3/86 7/3/86 96/3/86 98/3/86
f 3/4/87 7/3/87 92/3/87 93/4/87
f 136/40/88 135/41/88 118/41/88 119/40/88
f 95/40/89 92/41/89 98/41/89 99/40/89
f 8/11/90 95/11/90 99/11/90 97/11/90
f 7/41/91 8/40/91 97/40/91 96/41/91
f 93/4/92 94/10/92 103/10/92 102/4/92
f 103/10/93 101/10/93 105/10/93 107/10/93
f 3/4/94 93/4/94 102/4/94 100/4/94
f 94/10/95 4/10/95 101/10/95 103/10/95
f 4/10/96 3/4/96 100/4/96 101/10/96
f 105/10/97 104/4/97 108/4/97 109/10/97
f 101/10/98 100/4/98 104/4/98 105/10/98
f 102/4/99 103/10/99 107/10/99 106/4/99
f 100/4/100 102/4/100 106/4/100 104/4/100
f 110/4/101 111/10/101 115/10/101 114/4/101
f 106/4/102 107/10/102 111/10/102 110/4/102
f 104/4/103 106/4/103 110/4/103 108/4/103
f 107/10/104 105/10/104 109/10/104 111/10/104
f 114/4/105 115/10/105 17/16/105 19/30/105
f 108/4/106 110/4/106 114/4/106 112/4/106
f 111/10/107 109/10/107 113/10/107 115/10/107
f 109/10/108 108/4/108 112/4/108 113/10/108
f 113/10/109 112/4/109 10/42/109 12/15/109
f 112/4/110 114/4/110 19/30/110 10/42/110
f 129/3/111 128/43/111 120/3/111 122/3/111
f 135/44/112 143/43/112 116/3/112 118/3/112
f 144/11/113 136/45/113 119/11/113 117/11/113
f 143/41/114 144/40/114 117/40/114 116/41/114
f 121/11/115 123/11/115 127/11/115 125/11/115
f 131/46/116 130/11/116 123/11/116 121/11/116
f 128/41/117 131/40/117 121/40/117 120/41/117
f 130/40/118 129/41/118 122/41/118 123/40/118
f 125/11/119 127/11/119 33/18/119 29/18/119
f 120/41/120 121/40/120 125/40/120 124/41/120
f 123/40/121 122/41/121 126/41/121 127/40/121
f 122/3/122 120/3/122 124/3/122 126/3/122
f 126/3/123 124/3/123 30/39/123 34/39/123
f 119/40/124 118/41/124 129/41/124 130/40/124
f 116/41/125 117/40/125 131/40/125 128/41/125
f 117/11/126 119/11/126 130/11/126 131/46/126
f 118/3/127 116/3/127 128/43/127 129/3/127
f 96/41/128 97/40/128 147/40/128 140/41/128
f 140/41/129 147/40/129 146/40/129 141/41/129
f 141/41/130 146/40/130 145/40/130 142/41/130
f 142/41/131 145/40/131 144/40/131 143/41/131
f 97/11/132 99/11/132 139/11/132 147/11/132
f 147/11/133 139/11/133 138/11/133 146/47/133
f 146/47/134 138/11/134 137/11/134 145/48/134
f 145/48/135 137/11/135 136/45/135 144/11/135
f 98/3/136 96/3/136 140/3/136 132/43/136
f 132/43/137 140/3/137 141/3/137 133/3/137
f 133/3/138 141/3/138 142/3/138 134/3/138
f 134/3/139 142/3/139 143/43/139 135/44/139
f 99/40/140 98/41/140 132/41/140 139/40/140
f 139/40/141 132/41/141 133/41/141 138/40/141
f 138/40/142 133/41/142 134/41/142 137/40/142
f 137/40/143 134/41/143 135/41/143 136/40/143
f 154/39/144 153/49/144 152/38/144 155/39/144
f 155/39/145 152/38/145 151/38/145 156/37/145
f 18/17/146 9/18/146 159/18/146 148/17/146
f 148/17/147 159/18/147 158/18/147 149/17/147
f 149/17/148 158/18/148 157/36/148 150/17/148
f 9/22/149 11/21/149 154/21/149 159/50/149
f 159/50/150 154/21/150 155/35/150 158/22/150
f 158/22/151 155/35/151 156/35/151 157/22/151
f 153/34/152 148/33/152 149/33/152 152/34/152
f 152/34/153 149/33/153 150/32/153 151/31/153
f 163/34/154 160/33/154 164/33/154 167/34/154
f 69/22/155 70/21/155 162/21/155 161/22/155
f 70/39/156 71/38/156 163/38/156 162/39/156
f 68/17/157 69/18/157 161/18/157 160/17/157
f 166/39/158 167/38/158 171/38/158 170/39/158
f 161/22/159 162/21/159 166/21/159 165/22/159
f 162/39/160 163/38/160 167/38/160 166/39/160
f 160/17/161 161/18/161 165/18/161 164/17/161
f 171/34/162 168/33/162 172/33/162 175/34/162
f 164/17/42 165/18/42 169/18/42 168/17/42
f 167/34/163 164/33/163 168/33/163 171/34/163
f 165/22/164 166/21/164 170/21/164 169/22/164
f 173/22/165 174/21/165 202/21/165 201/22/165
f 169/22/166 170/21/166 174/21/166 173/22/166
f 170/39/167 171/38/167 175/38/167 174/39/167
f 168/17/42 169/18/42 173/18/42 172/17/42
f 73/14/168 75/13/168 179/13/168 178/14/168
f 75/23/169 74/7/169 177/7/169 179/23/169
f 72/26/170 73/14/170 178/14/170 176/26/170
f 74/24/171 72/26/171 176/26/171 177/24/171
f 6/23/172 5/7/172 183/7/172 180/23/172
f 1/26/173 2/14/173 181/12/173 182/25/173
f 5/24/174 1/26/174 182/25/174 183/24/174
f 2/14/175 6/13/175 180/13/175 181/12/175
f 187/24/176 184/24/176 188/24/176 191/24/176
f 180/23/177 183/7/177 187/7/177 186/23/177
f 15/7/178 16/23/178 185/23/178 184/7/178
f 183/24/179 15/24/179 184/24/179 187/24/179
f 190/23/180 191/7/180 195/7/180 194/23/180
f 184/7/181 185/23/181 189/23/181 188/7/181
f 186/23/182 187/7/182 191/7/182 190/23/182
f 185/13/42 186/13/42 190/13/42 189/13/42
f 195/24/183 192/24/183 63/38/183 59/38/183
f 189/13/42 190/13/42 194/13/42 193/13/42
f 191/24/184 188/24/184 192/24/184 195/24/184
f 188/7/185 189/23/185 193/23/185 192/7/185
f 193/13/186 194/13/186 56/17/186 60/17/186
f 194/23/187 195/7/187 59/34/187 56/33/187
f 84/26/188 85/14/188 197/14/188 196/26/188
f 87/23/189 86/7/189 198/7/189 199/23/189
f 85/14/42 87/13/42 199/13/42 197/14/42
f 198/24/190 196/26/190 219/26/190 221/24/190
f 394/51/191 393/38/191 207/38/191 206/39/191
f 174/39/192 175/38/192 203/38/192 202/39/192
f 172/17/42 173/18/42 201/18/42 200/17/42
f 175/34/193 172/33/193 200/33/193 203/34/193
f 206/39/194 207/38/194 211/38/194 210/39/194
f 398/17/42 397/52/42 205/18/42 204/17/42
f 393/34/195 398/33/195 204/33/195 207/34/195
f 397/22/196 394/35/196 206/21/196 205/22/196
f 210/39/197 211/38/197 226/38/197 225/39/197
f 204/17/42 205/18/42 209/18/42 208/17/42
f 221/24/198 219/26/198 211/38/198 207/38/198
f 205/22/199 206/21/199 210/21/199 209/22/199
f 2/53/200 1/54/200 217/55/200 215/56/200
f 215/56/201 217/55/201 218/29/201 214/28/201
f 6/57/202 2/53/202 215/56/202 216/58/202
f 216/58/203 215/56/203 214/28/203 18/27/203
f 216/59/204 212/60/204 213/6/204 6/5/204
f 219/26/205 220/14/205 208/33/205 211/34/205
f 196/26/206 197/14/206 220/14/206 219/26/206
f 199/23/207 198/7/207 221/7/207 222/23/207
f 197/14/42 199/13/42 222/13/42 220/14/42
f 225/39/208 226/38/208 230/38/208 229/39/208
f 208/17/42 209/18/42 224/18/42 223/17/42
f 211/34/209 208/33/209 223/33/209 226/34/209
f 209/22/210 210/21/210 225/21/210 224/22/210
f 220/14/211 222/13/211 204/17/211 208/17/211
f 222/23/212 221/7/212 207/34/212 204/33/212
f 230/34/213 227/33/213 231/33/213 234/34/213
f 223/17/42 224/18/42 228/18/42 227/17/42
f 226/34/214 223/33/214 227/33/214 230/34/214
f 224/22/215 225/21/215 229/21/215 228/22/215
f 228/22/216 229/21/216 233/21/216 232/22/216
f 229/39/217 230/38/217 234/38/217 233/39/217
f 227/17/42 228/18/42 232/18/42 231/17/42
f 240/39/218 239/38/218 238/38/218 237/39/218
f 241/22/219 240/21/219 237/21/219 236/22/219
f 237/39/220 238/38/220 246/38/220 245/39/220
f 232/22/221 233/21/221 240/21/221 241/22/221
f 239/34/222 242/33/222 235/33/222 238/34/222
f 233/39/223 234/38/223 239/38/223 240/39/223
f 234/34/224 231/33/224 242/33/224 239/34/224
f 231/17/42 232/18/42 241/18/42 242/17/42
f 242/17/42 241/18/42 236/18/42 235/17/42
f 244/22/225 245/21/225 249/21/225 248/22/225
f 236/22/226 237/21/226 245/21/226 244/22/226
f 235/17/42 236/18/42 244/18/42 243/17/42
f 238/34/227 235/33/227 243/33/227 246/34/227
f 247/33/228 248/22/228 249/39/228 250/34/228
f 246/34/229 243/33/229 247/33/229 250/34/229
f 243/17/42 244/18/42 248/18/42 247/17/42
f 245/39/230 246/38/230 250/38/230 249/39/230
f 18/27/231 251/61/231 212/60/231 216/58/231
f 218/29/232 217/55/232 212/60/232 251/61/232
f 11/21/233 251/61/233 153/49/233 154/39/233
f 18/27/234 148/33/234 153/49/234 251/61/234
f 19/30/235 251/61/235 11/21/235 10/42/235
f 19/30/236 218/29/236 251/61/236
f 8/40/237 7/41/237 256/62/237 253/63/237
f 253/63/238 256/62/238 257/20/238 252/19/238
f 12/15/239 10/42/239 254/64/239 259/65/239
f 259/65/240 254/64/240 255/1/240 258/9/240
f 9/18/241 12/15/241 259/65/241 252/66/241
f 252/66/242 259/65/242 258/9/242 253/8/242
f 10/42/243 11/39/243 257/67/243 254/64/243
f 254/64/244 257/67/244 256/2/244 255/1/244
f 88/4/245 90/3/245 262/3/245 260/4/245
f 90/41/246 91/40/246 263/40/246 262/41/246
f 91/11/42 89/10/42 261/10/42 263/11/42
f 89/10/247 88/4/247 260/4/247 261/10/247
f 260/4/248 262/3/248 266/3/248 264/4/248
f 262/41/249 263/40/249 267/40/249 266/41/249
f 263/11/250 261/10/250 265/10/250 267/11/250
f 261/10/251 260/4/251 264/4/251 265/10/251
f 264/4/252 266/3/252 270/3/252 268/4/252
f 266/41/253 267/40/253 271/40/253 270/41/253
f 267/11/254 265/10/254 269/10/254 271/11/254
f 265/10/255 264/4/255 268/4/255 269/10/255
f 271/11/256 269/10/256 273/10/256 275/11/256
f 269/10/257 268/4/257 272/4/257 273/10/257
f 268/4/258 270/3/258 274/3/258 272/4/258
f 270/41/259 271/40/259 275/40/259 274/41/259
f 272/4/260 274/3/260 278/3/260 276/4/260
f 274/41/261 275/40/261 279/40/261 278/41/261
f 275/11/262 273/10/262 277/10/262 279/11/262
f 273/10/263 272/4/263 276/4/263 277/10/263
f 386/41/264 385/40/264 283/40/264 282/41/264
f 385/11/265 389/10/265 281/10/265 283/11/265
f 389/10/266 391/4/266 280/4/266 281/10/266
f 391/4/267 386/68/267 282/3/267 280/4/267
f 283/11/268 281/10/268 285/10/268 287/11/268
f 281/10/269 280/4/269 284/4/269 285/10/269
f 280/4/270 282/3/270 286/3/270 284/4/270
f 282/41/271 283/40/271 287/40/271 286/41/271
f 284/4/272 286/3/272 290/3/272 288/4/272
f 286/41/273 287/40/273 291/40/273 290/41/273
f 287/11/274 285/10/274 289/10/274 291/11/274
f 285/10/275 284/4/275 288/4/275 289/10/275
f 288/4/276 290/3/276 294/3/276 292/4/276
f 290/41/277 291/40/277 295/40/277 294/41/277
f 291/11/42 289/10/42 293/10/42 295/11/42
f 289/10/278 288/4/278 292/4/278 293/10/278
f 375/41/279 374/40/279 299/40/279 298/41/279
f 374/11/42 380/10/42 297/10/42 299/11/42
f 380/10/280 383/69/280 296/4/280 297/10/280
f 383/69/281 375/3/281 298/3/281 296/4/281
f 299/11/282 297/10/282 301/10/282 303/11/282
f 297/10/283 296/4/283 300/4/283 301/10/283
f 296/4/284 298/3/284 302/3/284 300/4/284
f 298/41/285 299/40/285 303/40/285 302/41/285
f 369/4/286 368/3/286 306/3/286 304/4/286
f 368/41/287 370/70/287 307/40/287 306/41/287
f 370/11/288 371/10/288 305/10/288 307/11/288
f 371/10/289 369/4/289 304/4/289 305/10/289
f 304/4/290 306/3/290 310/3/290 308/4/290
f 306/41/291 307/40/291 311/40/291 310/41/291
f 307/11/42 305/10/42 309/10/42 311/11/42
f 305/10/292 304/4/292 308/4/292 309/10/292
f 311/11/42 309/10/42 313/10/42 315/11/42
f 309/10/293 308/4/293 312/4/293 313/10/293
f 308/4/294 310/3/294 314/3/294 312/4/294
f 310/41/295 311/40/295 315/40/295 314/41/295
f 312/4/296 314/3/296 318/3/296 316/4/296
f 314/41/297 315/40/297 319/40/297 318/41/297
f 315/11/298 313/10/298 317/10/298 319/11/298
f 313/10/299 312/4/299 316/4/299 317/10/299
f 353/41/300 352/40/300 323/40/300 322/41/300
f 352/11/301 354/10/301 321/10/301 323/11/301
f 354/10/302 355/4/302 320/4/302 321/10/302
f 355/4/303 353/43/303 322/3/303 320/4/303
f 339/11/304 338/10/304 325/10/304 327/11/304
f 338/10/305 344/71/305 324/4/305 325/10/305
f 344/71/306 347/3/306 326/3/306 324/4/306
f 347/41/307 339/40/307 327/40/307 326/41/307
f 324/4/308 326/3/308 330/3/308 328/4/308
f 326/41/309 327/40/309 331/40/309 330/41/309
f 327/11/310 325/10/310 329/10/310 331/11/310
f 325/10/311 324/4/311 328/4/311 329/10/311
f 331/11/312 329/10/312 333/10/312 335/11/312
f 329/10/313 328/4/313 332/4/313 333/10/313
f 328/4/314 330/3/314 334/3/314 332/4/314
f 330/41/315 331/40/315 335/40/315 334/41/315
f 322/41/316 323/40/316 341/70/316 345/41/316
f 363/41/317 358/70/317 340/70/317 346/41/317
f 346/41/318 340/70/318 339/40/318 347/41/318
f 320/4/319 322/3/319 345/3/319 342/4/319
f 361/72/320 363/3/320 346/3/320 343/4/320
f 343/4/321 346/3/321 347/3/321 344/71/321
f 321/10/322 320/4/322 342/4/322 336/10/322
f 357/73/323 361/72/323 343/4/323 337/10/323
f 337/10/324 343/4/324 344/71/324 338/10/324
f 323/11/325 321/10/325 336/10/325 341/11/325
f 358/11/326 357/73/326 337/10/326 340/11/326
f 340/11/327 337/10/327 338/10/327 339/11/327
f 334/41/328 335/40/328 351/40/328 350/41/328
f 335/11/329 333/10/329 349/10/329 351/11/329
f 333/10/330 332/4/330 348/4/330 349/10/330
f 332/4/331 334/3/331 350/3/331 348/4/331
f 316/4/332 318/3/332 353/43/332 355/4/332
f 317/10/333 316/4/333 355/4/333 354/10/333
f 319/11/334 317/10/334 354/10/334 352/11/334
f 318/41/335 319/40/335 352/40/335 353/41/335
f 341/11/336 336/10/336 356/10/336 359/45/336
f 359/45/337 356/10/337 357/73/337 358/11/337
f 336/10/338 342/4/338 360/4/338 356/10/338
f 356/10/339 360/4/339 361/72/339 357/73/339
f 342/4/340 345/3/340 362/3/340 360/4/340
f 360/4/341 362/3/341 363/3/341 361/72/341
f 345/41/342 341/70/342 359/74/342 362/41/342
f 362/41/343 359/74/343 358/70/343 363/41/343
f 349/10/344 348/4/344 364/4/344 365/10/344
f 348/4/345 350/3/345 366/3/345 364/4/345
f 350/41/346 351/40/346 367/40/346 366/41/346
f 351/11/347 349/10/347 365/10/347 367/11/347
f 301/10/348 300/4/348 369/4/348 371/10/348
f 303/11/349 301/10/349 371/10/349 370/11/349
f 302/41/350 303/40/350 370/70/350 368/41/350
f 300/4/351 302/3/351 368/3/351 369/4/351
f 292/4/352 294/3/352 377/3/352 381/4/352
f 381/4/353 377/3/353 376/3/353 382/75/353
f 382/75/354 376/3/354 375/3/354 383/69/354
f 293/10/355 292/4/355 381/4/355 378/10/355
f 378/10/356 381/4/356 382/75/356 379/10/356
f 379/10/357 382/75/357 383/69/357 380/10/357
f 295/11/42 293/10/42 378/10/42 372/11/42
f 372/11/42 378/10/42 379/10/42 373/11/42
f 373/11/42 379/10/42 380/10/42 374/11/42
f 294/41/358 295/40/358 372/40/358 377/41/358
f 377/41/359 372/40/359 373/40/359 376/41/359
f 376/41/360 373/40/360 374/40/360 375/41/360
f 276/4/361 278/3/361 387/43/361 390/4/361
f 390/4/362 387/43/362 386/68/362 391/4/362
f 277/10/363 276/4/363 390/4/363 388/10/363
f 388/10/364 390/4/364 391/4/364 389/10/364
f 279/11/365 277/10/365 388/10/365 384/45/365
f 384/45/366 388/10/366 389/10/366 385/11/366
f 278/41/367 279/40/367 384/70/367 387/41/367
f 387/41/368 384/70/368 385/40/368 386/41/368
f 201/22/369 202/21/369 395/35/369 396/22/369
f 396/22/370 395/35/370 394/35/370 397/22/370
f 203/34/371 200/33/371 399/33/371 392/34/371
f 392/34/372 399/33/372 398/33/372 393/34/372
f 200/17/42 201/18/42 396/18/42 399/76/42
f 399/76/42 396/18/42 397/52/42 398/17/42
f 202/39/373 203/38/373 392/38/373 395/77/373
f 395/77/374 392/38/374 393/38/374 394/51/374
f 183/7/375 187/7/375 5/7/375
f 187/7/376 400/78/376 213/6/376 5/7/376
f 191/24/377 213/6/377 400/78/377 187/7/377
f 195/7/378 401/78/378 213/6/378 191/24/378
f 55/34/379 195/24/379 59/38/379
f 51/38/380 195/24/380 55/34/380
f 195/24/381 51/38/381 213/6/381 401/79/381
f 43/38/382 51/34/382 47/34/382
f 39/34/383 51/34/383 43/38/383
f 51/34/384 39/34/384 35/34/384
f 51/34/385 35/34/385 213/6/385
f 31/38/386 213/6/386 35/34/386
f 212/80/387 213/6/387 31/38/387
f 27/34/388 212/80/388 31/38/388
f 23/38/389 212/80/389 27/34/389
f 151/31/390 212/80/390 23/38/390
f 152/38/391 212/80/391 151/31/391
f 153/49/392 212/80/392 152/38/392
f 212/61/393 153/61/393 251/61/393
f 213/6/394 212/60/394 5/78/394
f 5/78/395 212/60/395 1/54/395
f 217/55/396 1/54/396 212/60/396
f 30/39/397 124/3/397 125/40/397 29/18/397
f 31/38/398 5/7/398 213/6/398
f 367/11/399 365/10/399 364/4/399 366/3/399
