# Blender 5.1.1
# www.blender.org
mtllib LapplandCruisers.mtl
o Cube
v 29.830894 80.075012 -112.018547
v 29.830898 37.360962 -112.018547
v 10.839104 56.963928 2.680030
v 9.720428 27.548580 1.949496
v 10.547403 80.894722 -113.261436
v 8.376156 37.331535 -111.475967
v -0.077791 55.374756 2.890643
v 0.254607 27.674786 3.024482
v 10.519495 -3.676300 -43.847672
v 19.584328 63.323341 -43.751129
v 10.519495 62.907234 -43.847672
v 19.584328 -3.440858 -43.751129
v 23.490501 82.609436 -143.182663
v 23.490501 10.598290 -143.182663
v 2.605379 82.609436 -147.641037
v 2.605379 10.598290 -147.641037
v 22.630642 -3.440858 -50.458977
v 0.115780 -3.762348 -64.259155
v 22.630642 64.700577 -50.458977
v -53.628113 12.700795 -74.583351
v -58.946659 12.700795 -68.445679
v -58.946659 69.519028 -68.445679
v -53.628113 69.519028 -74.583351
v -51.239456 20.525812 -91.443039
v -59.646580 20.525812 -90.246735
v -59.646580 71.037338 -90.246735
v -51.239456 71.037338 -91.443039
v -53.571732 18.187000 -106.511627
v -60.183792 18.187000 -101.742294
v -60.183792 68.949654 -101.742294
v -53.571732 69.234962 -106.511627
v -63.563717 22.259666 -115.105736
v -65.869568 22.259666 -108.278458
v -65.869568 71.037338 -108.278458
v -63.563717 71.904800 -115.105736
v -77.791924 24.434599 -116.834045
v -75.253433 24.550005 -110.403183
v -75.253433 74.848671 -110.403183
v -77.791924 76.843262 -116.834045
v -83.390984 29.749863 -116.831924
v -92.813583 29.749863 -105.249023
v -92.813583 77.947784 -105.249023
v -83.390984 77.947784 -116.831924
v -89.601669 29.749863 -123.652603
v -108.292770 29.749863 -121.541206
v -108.292770 82.574257 -121.541206
v -90.035416 82.574257 -123.518661
v -82.953606 29.749863 -135.949829
v -99.554276 29.749863 -136.923996
v -99.554276 81.528107 -136.923996
v -82.953606 81.528107 -135.949829
v -91.589958 29.749863 -146.307159
v -104.237648 29.749863 -146.985580
v -104.237648 83.349800 -146.985580
v -91.589958 83.349800 -146.307159
v -82.694992 29.749863 -161.218704
v -96.439499 25.677197 -157.577286
v -96.439499 83.285591 -157.577286
v -82.694992 83.285591 -161.218704
v -85.925217 8.733865 -171.156174
v -102.732002 8.733865 -166.727005
v -96.983437 87.409874 -166.727005
v -85.925217 87.409874 -171.156174
v -100.074814 -3.785605 -182.589157
v -111.845985 -3.785605 -185.835983
v -111.845985 91.304054 -185.835983
v -100.074814 91.419853 -182.589157
v -100.347321 -3.785605 -191.549866
v -106.938393 -3.785605 -195.699921
v -106.938393 91.867104 -195.699921
v -100.347321 91.867104 -191.549866
v 16.468998 90.443352 -164.313873
v 16.468998 3.014309 -164.313873
v 7.114964 90.443352 -173.278030
v 7.114964 3.014309 -173.278030
v 37.114975 98.204437 -198.913361
v 37.114975 -4.364694 -198.913361
v 22.714909 98.204437 -200.281174
v 22.714909 -4.364694 -200.281174
v 45.918098 101.455826 -220.516708
v 47.650482 -3.114548 -220.516708
v 26.619347 98.204437 -220.190155
v 26.619347 -4.364694 -220.190155
v 24.522196 103.635391 -241.604797
v 21.678888 -4.364694 -241.604797
v 14.236437 99.975945 -233.045105
v 14.236437 -4.364694 -233.045105
v 6.964285 50.736633 26.479279
v 6.281706 32.880245 26.479279
v -20.054867 50.587097 26.479279
v -20.054867 32.880245 26.479279
v -23.411932 52.212135 11.837379
v 19.559191 55.615356 8.560424
v 19.050142 26.459192 8.560424
v -23.721241 26.842171 11.703574
v -4.700138 54.796700 0.671762
v -4.700138 27.422375 1.133551
v -24.071125 54.988022 4.364408
v -24.071125 26.076212 2.724699
v 24.543545 56.877617 -4.077871
v 24.543545 26.897604 -4.077871
v 32.011223 56.313965 -3.758146
v 32.011223 25.123627 -3.758146
v 31.610649 52.724342 -20.620581
v 31.610649 -4.364694 -20.620581
v 42.440308 54.070503 -20.377989
v 42.440308 -5.710856 -20.377989
v 31.137173 55.131775 -30.050207
v 31.137173 -4.364694 -30.050207
v 40.545609 56.477936 -36.477989
v 40.545609 -5.710856 -36.477989
v 28.233227 58.981499 -39.768974
v 28.233227 -3.825405 -39.768974
v 36.151608 59.981224 -46.843857
v 36.182026 -4.825127 -46.843857
v -85.523308 60.579796 -65.976105
v -85.523308 -4.364691 -65.976105
v -99.429268 61.925957 -64.110764
v -99.429268 -5.710859 -64.110764
v -80.172440 62.296143 -86.260445
v -80.172440 13.025906 -86.260445
v -91.671875 63.580025 -90.108162
v -91.671875 11.742020 -90.108162
v -69.912201 65.644226 -92.446136
v -69.912201 11.871300 -92.446136
v -74.176819 67.555626 -98.516869
v -74.176819 13.262432 -98.516869
v -87.305565 59.325333 -73.857315
v -97.831802 60.671494 -75.668243
v -97.831802 0.361326 -75.668243
v -87.305565 1.707491 -73.857315
v -22.561823 54.835083 -6.710770
v -52.691196 58.205338 -22.356934
v -63.921791 61.083038 -48.266781
v -81.335831 61.433937 -47.178589
v -81.335831 -5.710859 -47.178589
v -63.921791 -5.710857 -48.266781
v -52.691193 -5.710858 -22.356934
v -22.561823 26.076212 -8.350446
v -19.511763 55.995949 -13.300583
v -47.767349 58.327034 -28.451454
v -57.127937 61.787987 -55.178009
v -72.498672 60.087776 -56.042549
v -72.498672 -4.364691 -56.042549
v -57.127945 -4.364693 -55.178047
v -47.767349 -4.364694 -28.451454
v -19.511757 27.422375 -12.038225
v -13.274916 -4.411202 -68.665436
v -23.379715 -4.457708 -64.668716
v -36.187904 -2.904609 -73.333229
v -36.187904 65.745987 -73.333229
v -23.379719 66.555489 -64.668732
v -13.274917 65.563416 -65.827339
v -14.227054 65.563416 -57.745323
v -23.547846 66.555489 -54.533257
v -38.943634 65.745987 -66.274780
v -38.943634 -2.904609 -66.274780
v -23.547846 -4.457708 -54.533257
v -14.227056 -4.411202 -57.745323
v -81.931679 1.204542 -202.353027
v -89.814453 -3.785605 -205.268768
v -90.820145 90.685036 -205.268768
v -81.931679 90.685036 -202.353027
v -79.371765 -3.785605 -215.363312
v -86.536552 -3.785605 -222.847412
v -86.536552 94.001862 -222.847412
v -79.371765 94.001862 -215.363312
v -78.454994 -3.785605 -226.484909
v -83.480431 -3.785605 -236.688354
v -83.480431 94.644371 -236.688354
v -78.454994 93.336914 -226.484909
v -52.845367 -3.785605 -236.897003
v -64.232094 -3.785605 -243.115997
v -64.232094 94.090805 -243.115997
v -52.845367 94.090805 -236.897003
v 43.593826 93.895622 -182.127090
v 27.995546 94.990089 -184.471085
v 43.593826 2.852417 -182.127090
v 27.995546 -3.501517 -184.471085
v 10.441458 14.377468 -132.409836
v 29.734879 14.377468 -128.872314
v 29.734879 80.542130 -128.872314
v 10.441458 80.542130 -132.409836
v -7.873122 79.382011 -148.664444
v -7.873122 12.409048 -148.664444
v -13.399402 12.409048 -139.146576
v -13.399402 81.475899 -139.146576
v -40.496693 82.819260 -169.433807
v -40.496693 12.409046 -169.433807
v -36.171951 12.409046 -155.667786
v -36.171951 79.382011 -155.667786
v -62.867920 79.382011 -175.146912
v -62.867920 12.409046 -175.146912
v -61.708752 12.409046 -164.017029
v -61.708752 79.382011 -164.017029
v 19.841816 104.292397 -261.813416
v 18.420162 -4.364694 -261.813416
v 3.858296 102.255203 -258.651733
v 3.766671 -4.364694 -258.651733
v -56.954231 -3.785605 -252.785980
v -64.359634 -3.785605 -259.712524
v -64.359634 95.957298 -259.712524
v -56.954231 95.957298 -252.785980
v -5.844632 -3.785605 -285.452271
v -17.047070 -3.785605 -289.740601
v -17.047070 106.576111 -289.740601
v -5.844632 106.576111 -285.452271
v 12.048474 -3.785606 -297.143982
v 3.418235 -3.785606 -309.354034
v 3.418235 108.658279 -309.354034
v 12.048474 108.658279 -297.143982
v -5.931161 88.745354 -87.537964
v -15.467170 93.010941 -108.018105
v 13.240722 -3.671817 -63.685806
v 38.076012 37.707405 -78.910439
v 5.860264 37.589684 -79.524666
v 38.076012 73.126259 -86.923721
v 16.277109 66.129173 -63.475838
v 12.042074 104.846146 -280.016663
v 12.621383 -4.364694 -272.825165
v 2.805674 104.846146 -276.986481
v 2.805674 -4.364694 -276.986481
v 18.358345 -3.785605 -322.088806
v 6.706656 -3.785605 -325.159821
v 6.706656 113.144981 -325.159821
v 18.358345 113.144981 -322.088806
v 25.145464 -3.785605 -341.494537
v 16.909853 -3.785605 -341.461426
v 16.909853 121.958763 -341.461426
v 25.145464 121.958763 -341.494537
v 14.539263 -3.785605 -363.758148
v -0.098214 -3.785605 -365.552765
v -0.098214 131.183167 -365.552765
v 14.539263 131.183167 -363.758148
v 14.635686 -3.785606 -397.409973
v 0.120884 -3.785606 -398.108948
v 0.120884 150.829453 -395.285675
v 14.635686 150.829453 -394.586670
v 21.951397 145.318954 -378.916992
v 7.451836 145.318954 -380.711670
v 7.451836 -3.785605 -383.534912
v 21.951397 -3.785605 -381.740265
v 23.896122 -3.785605 -403.684631
v -8.277924 -3.785605 -404.734161
v -8.277924 154.887863 -404.734161
v 23.896122 154.887863 -403.684631
v 24.535406 -3.785605 -431.546478
v -7.638641 -3.785605 -432.596039
v -7.638641 155.718643 -432.596039
v 24.535406 155.718643 -431.546478
v 0.511692 67.411812 -64.004959
v 1.389917 -3.827093 -26.957518
v 8.481989 27.814650 -10.679504
v 10.980354 61.123821 -27.013500
v 18.578979 59.004017 -10.882484
v 8.256224 57.791161 -10.770410
v 1.274952 60.301987 -27.003807
v 17.819176 27.804459 -11.378666
v 10.593439 -3.716733 -27.266169
v 9.008278 46.890244 43.079861
v 8.325684 32.880245 43.079861
v -27.259413 46.740707 43.079861
v -27.259413 32.880245 43.079861
v 12.296815 43.193321 77.714134
v 11.950398 30.978180 77.714134
v -22.014729 43.043785 77.714134
v -22.014729 30.978180 77.714134
v 46.663040 35.936180 129.472656
v 46.563347 13.389065 129.472656
v 20.720343 35.786644 141.789520
v 20.720343 13.389065 141.789520
v 94.347687 24.849939 155.490921
v 94.335701 0.435478 155.742523
v 92.850182 24.700403 186.931015
v 92.850182 0.435478 186.931015
v 172.536575 -4.836357 405.785645
v 172.614243 -16.711830 405.720978
v 199.649780 -4.985893 396.670258
v 199.649780 -16.711830 396.670258
v 199.140396 2.728890 372.715668
v 199.277878 -9.146583 372.662994
v 224.191971 2.579354 366.138641
v 224.191971 -9.146583 366.138641
v 193.205048 4.035500 350.200806
v 193.329956 -7.839972 350.139404
v 214.745956 3.885964 340.448639
v 214.745956 -7.839972 340.448639
v 166.307312 4.035500 349.059479
v 166.422287 -7.839972 348.955719
v 184.241287 3.885964 332.891754
v 184.241287 -7.839972 332.891754
v 422.002747 -68.163200 662.537354
v 419.879547 -93.376694 664.058044
v 403.521667 -60.548019 679.549255
v 403.521667 -90.664146 679.549255
v 336.525177 -58.927711 581.609070
v 362.670868 -63.848907 634.215149
v 348.085999 -66.248199 661.945068
v 303.779449 -58.927711 599.044189
v 336.780426 -43.206470 581.635925
v 363.213684 -46.205429 634.148987
v 303.779449 -43.385334 599.044189
v 348.649719 -48.799240 661.945068
v 177.292786 -7.839972 307.424561
v 128.956879 -7.839972 301.767914
v 128.956879 10.974104 301.767914
v 177.292786 10.974104 307.424561
v 152.996521 -7.839972 323.935852
v 119.199051 -7.839972 315.183380
v 152.862854 11.123640 324.019775
v 119.037376 11.064106 315.237335
v 223.322433 -16.570625 418.016388
v 226.137939 -4.844688 416.846405
v 202.888580 -16.570625 430.133423
v 202.840363 -4.695152 430.240662
v -45.694492 99.292297 -259.720856
v -20.303856 102.831902 -268.008362
v -30.167452 102.831902 -273.226959
v -51.158134 99.292297 -273.336792
v -51.158134 -3.785606 -273.336792
v -30.167450 -3.785605 -273.226959
v -20.303856 -3.785605 -268.008392
v -45.694477 -3.785606 -259.720856
v -4.682870 81.220863 -121.347397
v -28.837543 83.035797 -133.782623
v 280.233856 -14.472102 556.696777
v 279.651611 -33.624275 556.611328
v 296.454956 -14.621638 546.010620
v 293.435547 -32.036987 545.804199
v 131.289993 -7.398932 170.851837
v 131.289993 16.865992 170.851837
v 123.958321 -7.398932 146.486160
v 123.883896 17.015528 146.444550
v 194.718094 -7.398933 148.309601
v 196.353226 16.865992 148.309601
v 193.365555 -7.398933 124.115822
v 193.387329 17.015528 124.029167
v 245.387070 -7.398933 188.704834
v 245.387070 16.865992 188.704834
v 254.884216 -7.398933 163.760010
v 254.980316 17.015528 163.679199
v 252.320541 -7.398933 192.402557
v 252.320541 16.865992 192.402557
v 269.017395 -7.398933 171.792236
v 269.102356 17.015528 171.675751
v 271.927979 -7.398901 228.394562
v 271.927979 11.415174 228.394562
v 284.312256 -7.398901 210.406281
v 284.364563 11.564711 210.335754
v 442.856995 -75.378510 721.717285
v 443.458069 -123.984406 723.205933
v 421.060150 -75.590668 734.973450
v 421.060150 -123.984406 734.973450
v 81.155632 -28.275127 509.530518
v 80.264519 -33.742897 508.398071
v 99.582993 -29.103718 498.184967
v 98.551994 -34.414837 497.133789
v 58.982456 -18.728428 498.691895
v 57.532379 -29.898712 497.004852
v 90.407135 -21.123291 478.288025
v 88.813095 -32.134560 476.662781
v 19.801598 -5.272383 486.843323
v 17.962624 -18.920874 484.909332
v 49.811977 -9.916927 477.397949
v 47.971786 -23.420097 475.521729
v 28.471428 -6.052765 456.503174
v 27.084892 -15.495595 455.105591
v 54.833855 -10.997023 463.174072
v 53.201008 -22.401073 461.509247
v 24.602211 -12.019858 442.530029
v 54.985153 -25.928013 440.300262
v 25.787651 -3.195288 443.965485
v 55.749229 -14.864331 442.484833
v 48.506611 -23.792618 470.848206
v 50.346806 -10.289448 472.724457
v 6.374931 -17.806156 477.358521
v 8.161743 -4.149284 479.260498
v 51.412525 4.255836 303.906860
v 66.872360 1.903516 311.813019
v 52.474091 9.083784 305.367981
v 63.421280 7.174315 313.468750
v 188.539856 -42.787235 604.258911
v 187.733276 -53.376167 603.018372
v 194.539520 -40.877064 579.205994
v 193.681168 -51.328785 578.140564
v 93.088066 -27.418892 561.097168
v 170.333649 -28.072590 556.019653
v 185.423676 -28.104450 542.695068
v 109.264847 -26.911667 541.608276
v 184.565338 -38.556171 541.629700
v 107.950241 -37.792728 540.542908
v 169.591019 -38.675323 554.863098
v 92.401878 -38.020691 559.885864
v 7.760330 -9.896655 383.886871
v 30.845894 -11.403388 380.069061
v 27.943703 9.243945 382.331299
v 10.217659 10.375930 387.122375
v 335.119904 -14.256181 303.878387
v 318.308716 -14.609809 321.094147
v 335.210968 -1.342466 304.319031
v 318.308716 -1.876705 321.617889
v 343.450928 -9.113119 445.346466
v 392.103912 -13.000684 381.722229
v 325.490265 -15.076416 343.220154
v 345.505066 -15.004830 339.735138
v 427.335114 -12.942158 378.873016
v 363.376923 -9.336276 456.211975
v 345.610352 -2.092573 340.248169
v 427.491180 -4.655452 379.286743
v 363.478638 -3.638114 456.535248
v 325.490265 -2.343279 343.743896
v 392.103912 -4.893026 382.143127
v 343.451050 -3.592506 445.605408
v 318.901428 -14.038277 293.669800
v 291.332886 -19.764343 296.107727
v 319.046265 -1.126162 294.188293
v 291.332886 -1.355219 296.631470
v 311.555298 -13.723381 278.711212
v 283.276703 -19.167654 267.430481
v 311.701569 -0.812727 279.300781
v 283.276703 -0.758528 267.954224
v 316.831421 -12.937443 240.918701
v 299.618286 -12.672727 228.031464
v 316.921234 -0.026955 241.516434
v 299.618286 0.060379 228.555206
v 496.251526 -89.737129 768.024658
v 496.811157 -113.274506 769.091675
v 484.816467 -85.836365 793.127747
v 484.816467 -113.274506 793.127747
v 553.096802 -119.609131 736.565430
v 553.829102 -167.569122 738.190063
v 551.569092 -109.627304 764.159485
v 551.293457 -157.692871 764.886108
v 62.253674 -16.765667 244.288925
v 79.515648 -20.968742 277.473877
v 62.400604 7.723727 247.908981
v 79.551483 5.837882 280.026306
v 94.067696 -15.705795 250.378738
v 104.477943 -18.625996 277.096771
v 96.130539 11.144974 253.832077
v 104.328491 8.137981 279.917877
v 603.560059 -124.847565 773.055420
v 604.282104 -160.810516 774.687561
v 603.517639 -117.272003 808.131531
v 603.242004 -153.349976 808.858032
v 630.134338 -133.798126 787.169617
v 631.138184 -170.231140 788.323730
v 649.913269 -127.550812 802.882507
v 649.637695 -163.628784 803.609009
v 633.630188 -146.310608 759.744934
v 634.424500 -183.208588 760.192932
v 655.902405 -146.919556 766.838562
v 655.626709 -182.997528 767.565186
v 697.658325 -194.913391 676.080383
v 698.135071 -243.200806 677.072632
v 708.639038 -202.758759 700.559387
v 708.415344 -250.824310 701.199036
v 748.995117 -209.617218 667.508057
v 749.526367 -258.285278 668.091858
v 758.948242 -203.740967 680.774536
v 758.724548 -248.010681 681.414307
v 764.611084 -222.295303 638.453308
v 765.366089 -257.478821 638.162231
v 781.109131 -219.186691 633.210327
v 781.190369 -253.767731 633.802063
v 763.850708 -269.793243 585.905090
v 763.917969 -318.559631 586.674377
v 781.864319 -274.009918 572.030579
v 781.592285 -321.613007 573.978088
v 656.543396 -307.665894 475.170532
v 656.969177 -356.193848 476.705536
v 679.539612 -309.386444 472.849854
v 679.139099 -356.827393 475.125854
v 692.509216 -344.582367 406.660828
v 692.030518 -392.756805 409.272888
v 703.970764 -340.372009 419.941467
v 702.310486 -387.738525 422.234955
v 723.128418 -402.107422 288.969177
v 722.972961 -450.028992 292.067505
v 735.467651 -394.173523 306.365967
v 734.250610 -441.570923 308.725952
v 774.165649 -438.806274 238.861572
v 777.203430 -487.231323 240.879639
v 794.324036 -438.220886 240.236084
v 793.690063 -485.626404 242.852753
v 741.109436 -471.814270 156.311371
v 741.360779 -524.477478 157.337219
v 758.296692 -476.347351 141.262146
v 758.122986 -527.753967 143.746979
v 771.435852 -289.849823 538.282959
v 740.393311 -293.691223 522.017212
v 729.454834 -306.377014 494.601166
v 712.772705 -302.353149 503.413239
v 721.824463 -286.009155 534.768982
v 761.792175 -286.605621 548.832275
v 771.097046 -337.406403 540.309204
v 740.118835 -341.206238 524.178040
v 729.107544 -353.850464 496.825531
v 761.889893 -335.302490 549.786560
v 721.908447 -336.283813 535.867554
v 712.877319 -350.925720 504.673767
v 725.588684 -485.830139 148.481750
v 725.820618 -538.711365 146.863708
v 751.994446 -491.118011 127.310547
v 751.203857 -543.038330 127.497803
v 702.224731 -481.778687 107.480896
v 702.456543 -534.659912 105.862854
v 724.801025 -486.890411 84.383827
v 727.839844 -538.986816 86.497040
v 766.131592 -364.007416 388.829773
v 740.420959 -379.157532 343.139648
v 712.682190 -380.544067 334.708191
v 739.320801 -365.307068 385.612976
v 765.438782 -411.400848 391.451599
v 739.482178 -426.524078 345.718140
v 739.801392 -413.685425 387.751404
v 712.985413 -428.718506 337.326019
v 660.651306 -173.468536 709.551331
v 673.938721 -188.372498 688.171753
v 674.607666 -228.701294 688.748901
v 661.274231 -213.996704 709.969971
v 670.780884 -163.148193 728.013977
v 682.828552 -175.316254 705.223022
v 670.475281 -211.213745 728.660217
v 682.522888 -223.381805 705.869385
v 642.679565 -187.478516 678.433716
v 657.554932 -190.803101 672.175049
v 657.447266 -250.866516 672.943909
v 642.639221 -236.161957 679.066711
v 652.165100 -215.114624 600.084839
v 671.664368 -209.865784 609.172485
v 667.554932 -269.950928 609.866577
v 655.715210 -255.246368 600.696594
v 665.534180 -272.909729 516.476440
v 676.811829 -264.344208 543.004883
v 676.372559 -332.055450 545.394287
v 665.176025 -320.909821 518.803528
v 698.886902 -277.377289 531.316101
v 698.141663 -274.938019 555.084412
v 696.803772 -333.190704 556.973206
v 697.612732 -325.412170 533.202881
v 270.285278 -47.075153 608.624573
v 269.453125 -57.115299 607.515686
v 268.467377 -45.727581 593.412598
v 267.654266 -55.628635 592.403442
v 355.649048 -35.960018 532.604553
v 377.537811 -36.228867 545.694458
v 377.649231 -19.659529 546.248779
v 355.649078 -19.568022 533.084473
v -1.193184 1.926446 353.523071
v 27.366486 10.206866 354.394592
v 30.736763 -0.711169 353.673950
v 0.462959 12.442973 355.747742
v 199.532089 -17.945259 488.147736
v 217.875107 -17.945259 472.445007
v 199.470337 -6.069786 488.282135
v 221.838440 -6.219322 471.501984
v 100.572754 -10.708204 223.500916
v 100.826294 13.782990 227.103333
v 118.070595 -11.478603 222.368744
v 120.133469 15.372164 225.822083
v 68.259178 119.064537 -215.512115
v 68.259178 14.801147 -215.512115
v 77.062294 122.315926 -237.115463
v 78.794685 16.051294 -237.115463
v 57.763538 14.801147 -236.788910
v 55.666393 124.495491 -258.203552
v 52.823086 14.801147 -258.203552
v 74.738029 114.755722 -198.725845
v 74.738029 23.712509 -198.725845
v -127.702789 6.272377 -199.139267
v -127.702789 110.866341 -199.139267
v -122.795197 6.272377 -209.003204
v -122.795197 111.429390 -209.003204
v -105.671257 6.272377 -218.572052
v -106.676949 110.247322 -218.572052
v -102.393356 6.272377 -236.150696
v -102.393356 113.564156 -236.150696
v -124.788246 83.329010 -52.341518
v -124.788246 10.149553 -52.341518
v -123.190781 82.074547 -63.898998
v -123.190781 16.221739 -63.898998
v -89.280769 82.486092 -36.497536
v -106.694809 82.836990 -35.409344
v -106.694809 10.149553 -35.409344
v -89.280769 10.149555 -36.497536
v 51.301857 72.868835 -10.162323
v 51.301857 41.678497 -10.162323
v 61.730942 70.625381 -26.782166
v 61.730942 10.844017 -26.782166
v 59.836243 73.032806 -42.882164
v 59.836243 5.301376 -42.882164
v 55.442238 76.536102 -53.248032
v 55.472656 6.187105 -53.248032
vn -0.1290 0.9879 0.0855
vn -0.0412 0.9820 0.1845
vn -0.2107 -0.0295 -0.9771
vn -0.0092 -0.9998 -0.0202
vn 0.8624 -0.0369 0.5048
vn -0.0541 -0.9609 0.2716
vn -0.0818 -0.9966 0.0070
vn 0.0184 -0.9998 -0.0018
vn -0.8782 -0.0009 -0.4784
vn -0.9849 -0.0000 -0.1732
vn -0.0304 0.9878 0.1527
vn 0.9165 -0.0000 -0.3999
vn -0.0302 -0.9877 0.1536
vn 0.0063 -0.9999 0.0130
vn 0.8570 -0.0181 -0.5150
vn 0.0715 -0.0000 -0.9974
vn -0.9995 -0.0000 0.0321
vn -0.1079 -0.0000 0.9942
vn -0.5794 -0.7339 -0.3545
vn 0.1863 0.9759 0.1140
vn 0.9882 -0.0000 -0.1530
vn 0.0428 0.9959 0.0801
vn -0.2004 -0.9050 -0.3751
vn 0.9901 -0.0000 0.1403
vn 0.1162 0.9756 0.1863
vn -0.9989 -0.0000 0.0467
vn -0.0731 0.9879 -0.1368
vn 0.0660 -0.9839 0.1661
vn -0.1877 -0.9822 0.0118
vn -0.2791 -0.9360 -0.2146
vn 0.6521 -0.0000 -0.7581
vn -0.7616 -0.0000 -0.6481
vn -0.0004 -0.0000 -1.0000
vn 0.1206 -0.0000 -0.9927
vn -0.2208 -0.0000 0.9753
vn 0.3126 0.9296 0.1952
vn 0.1282 0.9566 0.2617
vn 0.2816 -0.0000 0.9595
vn 0.2159 0.9580 0.1886
vn -0.4376 -0.8845 -0.1616
vn 0.8743 0.0030 0.4853
vn -0.0000 -1.0000 -0.0000
vn 0.7251 0.0040 -0.6887
vn -0.7250 -0.0000 0.6888
vn -0.9066 -0.0000 0.4220
vn -0.8695 -0.0000 -0.4939
vn -0.0022 0.9971 -0.0763
vn 0.8588 -0.0000 0.5123
vn -0.0103 0.9832 0.1822
vn 0.7680 -0.0000 -0.6404
vn 0.1215 0.9197 0.3734
vn -0.8053 -0.0000 -0.5929
vn -0.0006 1.0000 -0.0054
vn 0.1762 -0.9476 0.2666
vn 0.0077 0.9698 0.2437
vn 0.2832 -0.4866 0.8264
vn -0.1705 -0.0000 -0.9854
vn -0.9449 0.0399 0.3251
vn 0.9995 -0.0000 -0.0304
vn 0.0257 -0.7826 0.6220
vn 0.6285 -0.0000 -0.7778
vn -0.8496 0.0281 0.5267
vn 0.5060 -0.0000 0.8625
vn 0.6374 0.7139 0.2900
vn -0.0254 0.9986 0.0473
vn 0.0081 0.9750 0.2221
vn -0.1386 -0.9398 0.3123
vn -0.1426 0.9362 0.3213
vn 0.9490 -0.0000 -0.3153
vn -0.0291 0.6810 0.7317
vn -0.3766 0.8519 0.3640
vn -0.9485 -0.0000 0.3168
vn 0.1835 -0.9676 0.1737
vn -0.7202 -0.0000 0.6938
vn -0.9813 -0.0000 -0.1924
vn 0.0358 -0.9992 -0.0176
vn -0.0974 0.9941 0.0480
vn -0.1609 0.9802 0.1157
vn 0.0409 -0.9991 -0.0094
vn -0.1461 0.9554 0.2566
vn -0.4765 0.0124 -0.8791
vn 0.8157 -0.0207 0.5782
vn -0.9729 0.0063 0.2313
vn 0.0111 -0.9334 0.3588
vn -0.0213 -0.9892 -0.1448
vn -0.0021 0.9750 0.2222
vn -0.0758 0.9723 0.2211
vn -0.3566 -0.8530 0.3811
vn -0.9981 0.0037 0.0617
vn 0.0647 -0.9960 0.0617
vn 0.3949 -0.0076 -0.9187
vn 0.6960 -0.0059 0.7180
vn -0.1105 -0.4922 0.8634
vn 0.0687 0.9897 0.1259
vn -0.1307 -0.9872 -0.0911
vn -0.4085 0.0189 -0.9126
vn -0.9987 -0.0000 0.0501
vn -0.9196 -0.0000 -0.3929
vn -0.4866 0.7441 0.4577
vn -0.0354 0.9776 -0.2073
vn 0.5948 -0.8010 0.0679
vn 0.5047 -0.2711 0.8196
vn -0.0718 0.9789 0.1913
vn -0.1283 -0.9917 0.0119
vn 0.2580 0.0001 -0.9661
vn 0.1105 0.9456 0.3060
vn -0.1469 -0.9890 -0.0170
vn -0.9581 -0.0000 0.2863
vn -0.4182 -0.0000 0.9083
vn 0.2479 0.9023 0.3528
vn 0.0543 0.9694 0.2392
vn 0.0872 0.9941 -0.0646
vn 0.0760 -0.9932 -0.0881
vn 0.6064 -0.0000 -0.7951
vn 0.0041 -0.9998 -0.0173
vn 0.2379 -0.7966 -0.5558
vn 0.8669 -0.0000 0.4985
vn -0.9198 -0.0000 -0.3924
vn 0.1797 -0.8429 -0.5072
vn 0.5163 -0.0000 0.8564
vn -0.4332 -0.0000 -0.9013
vn -0.0477 0.9262 0.3741
vn -0.0213 0.9480 0.3175
vn 0.4210 -0.0000 0.9071
vn 0.9754 -0.0000 -0.2206
vn 0.0918 -0.8441 -0.5282
vn 0.1083 0.9858 -0.1283
vn 0.6749 -0.0227 -0.7376
vn 0.4924 -0.0120 -0.8703
vn 0.9438 -0.0000 -0.3305
vn 0.0562 -0.0000 -0.9984
vn 0.1056 -0.9927 -0.0579
vn 0.6221 -0.7193 0.3092
vn 0.1579 -0.9855 -0.0618
vn -0.0012 -0.9856 -0.1693
vn -0.0193 0.9985 0.0520
vn 0.0330 0.9921 0.1211
vn 0.0437 0.9938 0.1026
vn -0.0415 0.9958 -0.0816
vn -0.9908 0.0077 -0.1351
vn -0.4354 -0.0159 0.9001
vn -0.9175 -0.0000 0.3977
vn 0.6468 0.7627 0.0066
vn 0.1030 0.9947 0.0063
vn -0.0510 0.9987 -0.0087
vn 0.0408 -0.9991 -0.0096
vn 0.0049 -1.0000 0.0003
vn -0.0976 -0.9951 -0.0166
vn -0.4897 -0.0000 0.8719
vn 0.3258 -0.0000 0.9454
vn -0.6064 -0.0000 0.7951
vn -0.2463 0.0195 -0.9690
vn 0.5603 -0.0000 -0.8283
vn 0.9812 -0.0000 0.1931
vn -0.2250 -0.8873 -0.4026
vn 0.0298 0.9974 -0.0653
vn 0.2391 -0.9535 0.1836
vn 0.0878 0.9960 0.0131
vn 0.6427 -0.0000 -0.7661
vn -0.1197 0.9755 0.1848
vn 0.1863 -0.9634 0.1927
vn 0.3766 -0.0000 0.9264
vn 0.9966 -0.0000 0.0822
vn -0.9765 -0.0000 -0.2156
vn -1.0000 -0.0000 0.0077
vn -0.3167 -0.0000 -0.9485
vn 0.0184 0.9980 0.0610
vn 0.0802 -0.9341 0.3478
vn -0.4725 -0.0000 -0.8814
vn 0.5489 -0.0000 0.8359
vn -0.0454 0.9797 0.1950
vn -0.9980 0.0188 -0.0597
vn 1.0000 -0.0000 -0.0057
vn 0.0209 0.9998 0.0031
vn -0.0561 -0.6357 0.7699
vn -0.0141 0.9983 0.0569
vn -0.2719 -0.0000 0.9623
vn 0.0972 -0.0000 -0.9953
vn -0.0679 0.9977 0.0053
vn -0.3108 -0.0000 0.9505
vn 0.5370 -0.0000 -0.8436
vn -0.5872 -0.0000 0.8094
vn 0.2777 0.9520 0.1285
vn -0.1176 0.9799 0.1612
vn 0.2474 -0.0000 -0.9689
vn -0.1051 -0.6930 0.7132
vn 0.1322 -0.0000 0.9912
vn 0.9810 -0.0193 -0.1930
vn -0.9262 0.0004 0.3771
vn -0.0559 0.9935 0.0991
vn -0.0717 0.9847 0.1589
vn -0.0874 0.9883 0.1250
vn 0.9682 -0.0000 -0.2504
vn -0.0546 0.9963 0.0656
vn 0.7699 -0.0000 0.6382
vn -0.7830 -0.0000 -0.6221
vn -0.1372 0.9737 0.1821
vn 0.0337 0.9791 0.2006
vn -0.6919 -0.0000 -0.7220
vn 0.9609 -0.0282 -0.2754
vn 0.6123 0.0409 0.7895
vn 0.0027 -1.0000 0.0091
vn 0.0261 -0.3542 -0.9348
vn -0.9449 -0.3108 0.1028
vn 0.9999 0.0022 -0.0134
vn 0.9063 -0.0174 -0.4222
vn -0.9985 0.0004 0.0549
vn -0.0637 0.9066 0.4172
vn 0.9695 -0.0000 0.2452
vn -0.9790 -0.0000 -0.2037
vn -0.0089 -0.9994 -0.0328
vn -0.6994 -0.0000 0.7147
vn 0.9028 -0.0000 -0.4301
vn 0.9439 -0.0000 0.3301
vn -0.8477 -0.0000 -0.5305
vn -0.8169 -0.0000 0.5767
vn -0.0296 0.9225 0.3848
vn -0.0305 0.9343 0.3552
vn -0.8939 -0.0083 0.4481
vn -0.0150 0.9163 0.4003
vn -0.9106 0.0041 -0.4132
vn 0.9066 0.0078 -0.4219
vn -0.0811 0.7486 0.6581
vn 0.9135 -0.0040 0.4069
vn -0.9997 -0.0000 -0.0229
vn -0.6922 -0.0065 0.7217
vn 0.6396 -0.0069 0.7687
vn 0.0326 -0.0000 -0.9995
vn 0.9997 -0.0000 0.0229
vn -0.0010 0.9996 0.0298
vn -0.9842 -0.1009 -0.1453
vn 0.2165 0.8031 0.5551
vn -0.0499 0.9837 0.1729
vn 0.2215 0.0207 -0.9749
vn -0.0244 0.9752 0.2198
vn 0.0785 0.9944 0.0708
vn -0.8551 -0.0103 -0.5184
vn -0.9168 -0.0027 0.3993
vn 0.8838 -0.0035 0.4678
vn 0.9101 -0.0076 -0.4144
vn 0.0189 -0.9998 -0.0025
vn 0.0506 -0.4623 0.8853
vn -0.0659 0.9921 0.1069
vn -0.0982 0.9780 0.1842
vn -0.0046 0.9743 0.2250
vn -0.9173 -0.0000 -0.3981
vn 0.9910 -0.0425 -0.1269
vn -0.0042 0.9943 0.1067
vn -0.9887 -0.0000 0.1497
vn -0.0000 -0.9985 -0.0548
vn 0.9940 -0.0390 -0.1024
vn 0.0181 0.9935 0.1125
vn -0.8319 -0.0000 0.5549
vn -0.0530 -0.9648 -0.2576
vn 0.8309 -0.0107 -0.5563
vn -0.1546 -0.9832 -0.0971
vn 0.4793 -0.0058 -0.8776
vn 0.1302 0.9875 0.0884
vn -0.5305 -0.0000 0.8477
vn 0.6339 -0.1143 -0.7650
vn 0.0018 -1.0000 0.0040
vn -0.6278 -0.0090 0.7783
vn 0.0020 1.0000 -0.0088
vn -0.0894 -0.9503 -0.2981
vn -0.7783 -0.0039 -0.6279
vn 0.0967 0.9480 0.3033
vn 0.7794 -0.0000 0.6265
vn 0.0228 0.9986 0.0469
vn 0.9386 -0.0000 -0.3451
vn -0.0170 -0.9987 -0.0487
vn -0.9670 -0.0119 0.2545
vn 0.0014 1.0000 -0.0094
vn 0.2405 -0.0000 -0.9707
vn -0.0432 -0.0074 0.9990
vn -0.3375 -0.9115 -0.2350
vn 0.4265 -0.0599 -0.9025
vn 0.2538 0.9640 0.0792
vn -0.3030 0.0036 0.9530
vn 0.2534 0.9620 0.1019
vn -0.0002 -0.9998 -0.0209
vn -0.8151 0.0139 0.5792
vn 0.0069 0.9976 0.0685
vn 0.8935 -0.0219 -0.4486
vn -0.0317 -0.9958 -0.0862
vn 0.1648 0.9649 0.2043
vn 0.0006 1.0000 -0.0073
vn 0.9989 -0.0000 0.0476
vn -0.8816 -0.0100 0.4718
vn -0.2510 -0.0055 0.9680
vn -0.0642 -0.9885 -0.1370
vn 0.9647 -0.0000 -0.2632
vn 0.1162 -0.0000 -0.9932
vn 0.0514 0.9968 0.0613
vn -0.7182 -0.0000 -0.6959
vn 0.0052 -0.0000 -1.0000
vn 0.5244 -0.0000 0.8515
vn 0.3103 -0.0000 0.9506
vn -0.1748 0.9785 0.1095
vn -0.1315 0.9855 0.1070
vn 0.0444 0.9988 -0.0186
vn 0.1947 0.9239 -0.3294
vn 0.2910 0.9032 -0.3154
vn -0.1529 0.9818 -0.1127
vn 0.1962 0.9740 0.1129
vn 0.1565 0.9867 0.0430
vn -0.0183 0.9748 -0.2222
vn 0.4378 0.8819 0.1752
vn 0.1903 0.9642 0.1849
vn 0.3083 0.9398 0.1471
vn -0.3823 0.6508 0.6560
vn -0.3837 0.6561 0.6499
vn -0.4772 0.7892 0.3866
vn -0.3593 0.9316 -0.0558
vn -0.3662 0.9300 0.0319
vn 0.0421 0.4843 0.8739
vn -0.3758 0.7918 0.4815
vn 0.1493 0.6503 0.7449
vn -0.1850 0.7024 0.6874
vn 0.4210 0.9070 -0.0071
vn 0.0576 0.9646 -0.2575
vn 0.3288 0.9324 0.1501
vn 0.6909 -0.0000 0.7230
vn 0.1298 -0.1458 0.9808
vn -0.6475 0.0055 0.7620
vn 0.6763 -0.1801 -0.7143
vn 0.5832 -0.0639 0.8098
vn -0.8070 -0.0026 -0.5906
vn -0.9573 -0.0012 0.2893
vn -0.3069 -0.0028 -0.9518
vn 0.3311 -0.0112 0.9435
vn 0.0019 1.0000 0.0057
vn -0.0040 1.0000 0.0055
vn 0.5415 -0.0042 -0.8407
vn -0.6294 0.0212 0.7768
vn 0.9298 -0.0045 -0.3680
vn -0.0027 1.0000 0.0050
vn 0.4934 -0.0053 -0.8698
vn -0.4706 -0.0000 0.8824
vn 0.8236 -0.0001 0.5671
vn -0.8781 -0.0000 0.4784
vn 0.1121 0.9894 0.0921
vn 0.1644 0.9852 0.0477
vn -0.9534 -0.0000 0.3017
vn -0.3217 -0.8713 -0.3707
vn 0.9320 -0.0339 -0.3608
vn 0.2946 0.9328 0.2076
vn -0.1088 -0.9909 -0.0795
vn -0.4622 -0.0845 0.8827
vn 0.2407 0.9282 0.2838
vn 0.8960 -0.0722 -0.4382
vn 0.2425 0.9289 0.2800
vn 0.0573 0.1333 -0.9894
vn -0.2020 -0.9589 -0.1993
vn -0.3166 -0.0957 0.9437
vn 0.8866 -0.1840 0.4243
vn -0.1798 -0.9498 -0.2559
vn -0.7259 0.1940 -0.6598
vn 0.1594 0.9863 0.0426
vn 0.9891 -0.1201 0.0849
vn 0.2864 0.9571 -0.0443
vn -0.0815 -0.9878 -0.1324
vn -0.9691 0.1016 0.2250
vn -0.3462 -0.9381 0.0086
vn 0.1342 0.9891 -0.0611
vn -0.5484 -0.0445 0.8351
vn -0.1310 -0.9897 0.0583
vn 0.9807 -0.1509 0.1243
vn 0.1035 0.9942 0.0302
vn -0.6611 0.2839 -0.6945
vn 0.7364 0.2162 0.6411
vn -0.0403 -0.9949 -0.0921
vn 0.9644 -0.0528 -0.2592
vn -0.2872 -0.9344 -0.2108
vn -0.9325 0.0275 0.3600
vn -0.9715 0.0620 0.2290
vn 0.0639 -0.1150 0.9913
vn -0.0711 -0.9954 -0.0642
vn -0.0097 -0.9998 -0.0198
vn 0.9702 -0.1125 -0.2147
vn 0.0154 0.0978 -0.9951
vn -0.0160 0.9995 -0.0284
vn 0.0127 0.9996 0.0266
vn 0.9250 0.1132 -0.3628
vn -0.9574 0.0751 0.2789
vn 0.2784 0.9395 0.1994
vn -0.2807 -0.9591 -0.0375
vn -0.6782 -0.0247 0.7345
vn 0.9606 0.0030 -0.2781
vn -0.0081 0.9997 0.0234
vn -0.9512 -0.0127 0.3085
vn -0.7930 0.0304 -0.6084
vn -0.4996 -0.0392 0.8653
vn -0.4683 0.0046 -0.8836
vn -0.0010 0.9999 -0.0172
vn -0.0010 0.9977 0.0678
vn 0.7687 -0.0478 0.6378
vn 0.4308 0.0341 -0.9018
vn -0.0096 -0.9989 0.0454
vn 0.0069 -0.9992 0.0400
vn 0.9876 -0.0033 -0.1569
vn 0.2096 -0.9732 -0.0943
vn 0.1279 -0.9916 -0.0179
vn -0.0051 0.9996 0.0272
vn 0.5319 0.0266 -0.8464
vn 0.9904 -0.0154 0.1372
vn -0.0068 0.9997 0.0233
vn 0.8972 0.0088 -0.4415
vn -0.9627 -0.0077 0.2703
vn 0.5993 0.0329 -0.7998
vn -0.9240 0.0129 -0.3821
vn 0.1411 -0.9885 -0.0537
vn -0.0069 0.9998 0.0189
vn -0.6330 -0.7735 -0.0307
vn -0.6739 -0.0000 0.7388
vn 0.0978 -0.9908 0.0939
vn 0.6532 -0.0163 -0.7570
vn -0.1057 -0.9580 0.2667
vn -0.5034 -0.0416 -0.8630
vn 0.3234 0.9316 -0.1659
vn 0.3977 0.0074 0.9175
vn -0.1093 0.9854 0.1305
vn -0.8855 -0.0524 0.4617
vn 0.5252 0.3620 -0.7701
vn 0.9433 0.0052 -0.3318
vn 0.0236 -0.9839 -0.1772
vn 0.0190 -0.0997 0.9948
vn 0.0743 -0.9857 -0.1515
vn 0.2783 0.8939 -0.3514
vn 0.5861 -0.0213 -0.8099
vn 0.3111 0.9171 -0.2491
vn -0.6457 0.0174 0.7634
vn -0.0959 -0.8944 0.4369
vn 0.1166 0.0191 0.9930
vn -0.2805 -0.8927 0.3528
vn 0.4544 -0.0234 -0.8905
vn -0.4570 -0.0217 -0.8892
vn -0.9937 -0.0267 -0.1090
vn 0.1145 0.8945 -0.4322
vn 0.9861 -0.0042 0.1661
vn -0.0868 -0.9895 0.1152
vn 0.4586 0.8278 -0.3233
vn 0.1901 0.0121 0.9817
vn -0.5891 -0.7785 0.2164
vn 0.4009 -0.8801 0.2542
vn -0.1734 -0.0178 -0.9847
vn 0.1446 0.9891 -0.0286
vn 0.3658 0.0111 0.9306
vn -0.9995 -0.0096 0.0312
vn -0.8835 -0.0152 -0.4681
vn -0.1773 0.8924 -0.4150
vn 0.9058 0.0050 0.4236
vn 0.0588 0.9570 -0.2842
vn -0.3275 0.7024 -0.6319
vn 0.9999 -0.0020 0.0116
vn 0.3693 -0.6090 0.7019
vn -0.0464 -0.8807 0.4714
vn 0.4008 -0.0465 -0.9150
vn -0.0331 -0.9722 0.2320
vn -0.4498 0.0232 0.8929
vn 0.0466 0.9143 -0.4022
vn -0.8903 -0.0190 -0.4549
vn 0.0808 0.8865 -0.4556
vn 0.9119 -0.0000 0.4103
vn 0.0766 0.8513 -0.5190
vn 0.9917 -0.0291 -0.1251
vn -0.0098 -0.9148 0.4038
vn -0.9770 -0.0142 -0.2127
vn 0.0827 -0.9254 0.3698
vn 0.7512 0.0200 0.6598
vn -0.0528 -0.8436 0.5343
vn -0.7132 -0.0584 -0.6985
vn -0.3420 0.7180 -0.6063
vn -0.9208 -0.0182 0.3897
vn -0.0310 0.9346 -0.3544
vn 0.9433 -0.0248 -0.3309
vn -0.9985 -0.0007 0.0555
vn -0.3304 0.0190 0.9437
vn 0.1493 -0.9077 0.3921
vn -0.0456 -0.9643 0.2610
vn 0.0278 -0.9097 0.4144
vn 0.9573 -0.0182 -0.2886
vn 0.4666 -0.0419 -0.8835
vn 0.9316 -0.0228 -0.3628
vn -0.1082 0.9099 -0.4004
vn 0.0959 0.9408 -0.3251
vn 0.0221 0.8934 -0.4488
vn -0.1689 -0.9856 -0.0012
vn 0.9226 -0.0186 -0.3854
vn 0.3122 -0.7571 0.5739
vn -0.5028 -0.0072 0.8644
vn -0.6654 -0.0242 -0.7461
vn -0.8695 -0.0189 0.4936
vn 0.1915 0.9813 -0.0186
vn 0.8569 0.0071 -0.5155
vn -0.4262 -0.0445 -0.9035
vn -0.8863 0.0156 0.4629
vn -0.0811 -0.8368 0.5415
vn 0.0144 -0.9563 0.2920
vn 0.4532 0.0349 0.8907
vn 0.8757 -0.0415 -0.4811
vn 0.0997 0.8511 -0.5155
vn 0.0193 0.9507 -0.3095
vn -0.2863 -0.8551 0.4322
vn -0.3205 -0.8794 0.3521
vn 0.9339 -0.0006 0.3575
vn 0.8842 0.0007 0.4671
vn 0.0561 0.9076 -0.4160
vn -0.0345 0.8432 -0.5365
vn -0.8861 -0.0214 -0.4630
vn 0.6902 -0.0058 -0.7236
vn -0.9906 -0.0410 -0.1304
vn -0.0497 -0.7052 0.7073
vn -0.8613 0.0004 0.5081
vn 0.1582 0.8907 -0.4262
vn 0.2868 0.7832 -0.5516
vn -0.0269 0.9478 -0.3176
vn 0.9797 -0.0320 0.1979
vn -0.7428 -0.6670 0.0582
vn -0.4848 0.0365 0.8739
vn 0.9904 -0.0320 0.1344
vn -0.8705 -0.4195 0.2575
vn -0.9934 -0.0396 -0.1075
vn 0.0805 -0.9275 -0.3651
vn 0.4003 -0.0470 -0.9152
vn 0.3779 0.8847 -0.2727
vn 0.6494 0.0134 0.7603
vn -0.4180 -0.8916 0.1739
vn -0.8899 -0.0041 -0.4561
vn 0.3756 0.8585 -0.3491
vn 0.9899 -0.0685 -0.1245
vn -0.0591 -0.1083 0.9924
vn 0.0482 0.9952 0.0855
vn 0.1934 0.0838 -0.9775
vn -0.5133 -0.0252 0.8578
vn -0.9905 -0.0046 0.1372
vn 0.1663 -0.9363 -0.3095
vn -0.1069 0.9755 0.1921
vn 0.9809 0.1922 0.0288
vn -0.9498 0.0729 0.3042
vn 0.0803 0.9961 0.0369
vn -0.0937 -0.9305 -0.3541
vn 0.9595 -0.2702 0.0789
vn -0.9983 -0.0040 -0.0580
vn 0.0237 0.9994 0.0260
vn -0.0186 -0.9995 -0.0259
vn -0.0679 0.1388 -0.9880
vn 0.7622 -0.1398 0.6321
vn -0.4883 0.1312 -0.8628
vn -0.1007 0.9917 0.0802
vn 0.9124 0.0075 0.4092
vn 0.9329 -0.0000 -0.3601
vn 0.6650 -0.0034 -0.7469
vn 0.4703 -0.0000 0.8825
vn 0.3386 -0.8670 -0.3657
vn 0.6003 -0.7601 0.2488
vn 0.5906 -0.7924 0.1527
vn -0.3351 0.8400 0.4268
vn -0.5970 0.7926 -0.1240
vn -0.8953 -0.0000 -0.4454
vn -0.4990 -0.0024 -0.8666
vn -0.9775 -0.0047 -0.2107
vn 0.6031 0.7210 0.3412
vn -0.6427 -0.0000 0.7661
vn 0.3955 0.7137 0.5781
vn -0.4790 -0.8733 -0.0893
vn -0.4003 -0.8945 -0.1992
vn -0.6833 -0.0000 0.7301
vn -0.9906 -0.0000 -0.1369
vn 0.0624 -0.0000 0.9981
vn -0.4210 -0.0000 -0.9071
vn 0.0525 -0.5396 0.8403
vn -0.6138 -0.6608 -0.4320
vn -0.0473 0.4377 -0.8979
vn 0.4437 0.7741 -0.4516
vn 0.8470 -0.0000 0.5315
vn 0.9212 0.0002 -0.3891
vn 0.9931 -0.0000 -0.1169
vn -0.3150 -0.0001 -0.9491
vn -0.6033 0.7753 0.1869
vn 0.4161 -0.8743 -0.2499
vn 0.3151 -0.0000 0.9491
vn -0.6558 0.5750 -0.4892
vt 0.625000 0.722143
vt 0.875000 0.722143
vt 0.875000 0.750000
vt 0.625000 0.750000
vt 0.375000 0.212104
vt 0.625000 0.212104
vt 0.625000 0.250000
vt 0.125000 0.722143
vt 0.375000 0.722143
vt 0.375000 0.750000
vt 0.125000 0.750000
vt 0.375000 0.500000
vt 0.125000 0.500000
vt 0.375000 0.500000
vt 0.375000 0.663164
vt 0.375000 0.651584
vt 0.125000 0.651584
vt 0.125000 0.663164
vt 0.375000 0.056802
vt 0.625000 0.056802
vt 0.625000 0.086836
vt 0.375000 0.086836
vt 0.375000 0.250000
vt 0.875000 0.500000
vt 0.625000 0.500000
vt 0.625000 0.500000
vt 0.125000 0.613688
vt 0.375000 0.613688
vt 0.625000 0.613688
vt 0.625000 0.651584
vt 0.625000 0.098416
vt 0.375000 0.098416
vt 0.375000 0.098416
vt 0.625000 0.098416
vt 0.625000 0.086836
vt 0.125000 0.663164
vt 0.875000 0.663164
vt 0.875000 0.651584
vt 0.875000 0.663164
vt 0.375000 0.000000
vt 0.625000 0.000000
vt 0.125000 0.750000
vt 0.625000 0.663164
vt 0.875000 0.750000
vt 0.875000 0.750000
vt 0.125000 0.750000
vt 0.125000 0.750000
vt 0.125000 0.750000
vt 0.875000 0.651584
vt 0.375000 0.086835
vt 0.875000 0.663165
vt 0.125000 0.663166
vt 0.375000 0.537896
vt 0.625000 0.537896
vt 0.625000 0.575792
vt 0.375000 0.575792
vt 0.125000 0.537896
vt 0.125000 0.575792
vt 0.375000 0.174208
vt 0.625000 0.174208
vt 0.000000 0.000000
vt 0.625000 0.027857
vt 0.375000 0.027857
vt 0.625000 0.693198
vt 0.375000 0.693198
vt 0.125000 0.693198
vt 0.875000 0.693198
vt 0.878491 0.750000
vt 0.625000 0.750000
vt 0.375000 0.000000
vt 0.625000 0.750000
vt 0.124976 0.750000
vt 0.878508 0.750000
vt 0.625000 0.750000
vt 0.125000 0.651584
vt 0.875000 0.663166
vt 0.625000 0.231052
vt 0.750000 0.356052
vt 0.875000 0.575792
vt 0.128423 0.750000
vt 0.375000 0.750000
vt 0.124773 0.750000
vt 0.375172 0.750000
vt 0.624830 0.750000
vt 0.875252 0.750000
vt 0.625000 0.000000
vt 0.125000 0.750000
vt 0.625025 0.750000
vt 0.874956 0.750000
vt 0.625000 0.750000
vt 0.625000 0.000000
vt 0.375000 0.000000
vt 0.875000 0.750000
vt 0.625000 0.750000
vt 0.875000 0.750000
s 0
usemtl Material
f 255/1/1 256/2/1 7/3/1 3/4/1
f 93/4/2 92/3/2 90/3/2 88/4/2
f 6/5/3 213/6/3 5/7/3
f 253/8/4 258/9/4 4/10/4 8/11/4
f 258/9/5 255/1/5 3/4/5 4/10/5
f 181/12/6 180/13/6 16/13/6 14/14/6
f 115/10/7 113/10/7 12/15/7 17/16/7
f 18/17/8 17/16/8 12/15/8 9/18/8
f 252/19/9 257/20/9 11/21/9 9/22/9
f 16/23/10 15/7/10 74/7/10 75/23/10
f 183/24/11 182/25/11 13/26/11 15/24/11
f 182/25/12 181/12/12 14/14/12 13/26/12
f 16/13/13 180/13/13 186/13/13 185/13/13
f 18/27/14 214/28/14 17/16/14
f 214/28/15 218/29/15 19/30/15 17/16/15
f 151/31/16 150/32/16 20/33/16 23/34/16
f 21/22/17 22/21/17 26/21/17 25/22/17
f 157/22/18 156/35/18 22/21/18 21/22/18
f 150/17/19 157/36/19 21/18/19 20/17/19
f 156/37/20 151/38/20 23/38/20 22/39/20
f 27/34/21 24/33/21 28/33/21 31/34/21
f 22/39/22 23/38/22 27/38/22 26/39/22
f 20/17/23 21/18/23 25/18/23 24/17/23
f 23/34/24 20/33/24 24/33/24 27/34/24
f 30/39/25 31/38/25 35/38/25 34/39/25
f 25/22/26 26/21/26 30/21/26 29/22/26
f 26/39/27 27/38/27 31/38/27 30/39/27
f 24/17/28 25/18/28 29/18/28 28/17/28
f 32/17/29 33/18/29 37/18/29 36/17/29
f 28/17/30 29/18/30 33/18/30 32/17/30
f 31/34/31 28/33/31 32/33/31 35/34/31
f 127/40/32 126/41/32 34/21/32 33/22/32
f 39/34/33 36/33/33 40/33/33 43/34/33
f 35/34/34 32/33/34 36/33/34 39/34/34
f 33/22/35 34/21/35 38/21/35 37/22/35
f 34/39/36 35/38/36 39/38/36 38/39/36
f 42/39/37 43/38/37 47/38/37 46/39/37
f 37/22/38 38/21/38 42/21/38 41/22/38
f 38/39/39 39/38/39 43/38/39 42/39/39
f 36/17/40 37/18/40 41/18/40 40/17/40
f 47/34/41 44/33/41 48/33/41 51/34/41
f 40/17/42 41/18/42 45/18/42 44/17/42
f 43/34/43 40/33/43 44/33/43 47/34/43
f 41/22/44 42/21/44 46/21/44 45/22/44
f 49/22/45 50/21/45 54/21/45 53/22/45
f 45/22/46 46/21/46 50/21/46 49/22/46
f 46/39/47 47/38/47 51/38/47 50/39/47
f 44/17/42 45/18/42 49/18/42 48/17/42
f 55/34/48 52/33/48 56/33/48 59/34/48
f 50/39/49 51/38/49 55/38/49 54/39/49
f 48/17/42 49/18/42 53/18/42 52/17/42
f 51/34/50 48/33/50 52/33/50 55/34/50
f 58/39/51 59/38/51 63/38/51 62/39/51
f 53/22/52 54/21/52 58/21/52 57/22/52
f 54/39/53 55/38/53 59/38/53 58/39/53
f 52/17/54 53/18/54 57/18/54 56/17/54
f 62/39/55 63/38/55 67/38/55 66/39/55
f 56/17/56 57/18/56 61/18/56 60/17/56
f 192/7/57 193/23/57 60/33/57 63/34/57
f 57/22/58 58/21/58 62/21/58 61/22/58
f 67/34/59 64/33/59 68/33/59 71/34/59
f 60/17/60 61/18/60 65/18/60 64/17/60
f 63/34/61 60/33/61 64/33/61 67/34/61
f 61/22/62 62/21/62 66/21/62 65/22/62
f 71/34/63 68/33/63 160/33/63 163/34/63
f 162/39/64 166/39/64 578/39/64 576/39/64
f 66/39/65 67/38/65 71/38/65 70/39/65
f 64/17/42 65/18/42 69/18/42 68/17/42
f 177/24/66 176/26/66 76/26/66 78/24/66
f 14/14/67 16/13/67 75/13/67 73/14/67
f 15/24/68 13/26/68 72/26/68 74/24/68
f 13/26/69 14/14/69 73/14/69 72/26/69
f 83/13/70 81/14/70 565/14/70 566/13/70
f 76/26/71 176/26/71 569/26/71 562/26/71
f 179/23/72 177/7/72 78/7/72 79/23/72
f 178/14/73 179/13/73 79/13/73 77/14/73
f 83/23/74 82/7/74 86/7/74 87/23/74
f 79/23/75 78/7/75 82/7/75 83/23/75
f 77/14/76 79/13/76 83/13/76 81/14/76
f 78/24/77 76/26/77 80/26/77 82/24/77
f 86/24/78 84/26/78 196/26/78 198/24/78
f 81/14/79 83/13/79 87/13/79 85/14/79
f 82/24/80 80/26/80 84/26/80 86/24/80
f 85/14/81 84/26/81 567/26/81 568/14/81
f 94/10/82 93/4/82 88/4/82 89/10/82
f 92/41/83 95/40/83 91/40/83 90/41/83
f 95/11/84 94/10/84 89/10/84 91/11/84
f 8/11/85 4/10/85 94/10/85 95/11/85
f 92/3/86 7/3/86 96/3/86 98/3/86
f 3/4/87 7/3/87 92/3/87 93/4/87
f 119/11/88 136/42/88 585/42/88 580/11/88
f 95/40/89 92/41/89 98/41/89 99/40/89
f 8/11/90 95/11/90 99/11/90 97/11/90
f 7/41/91 8/40/91 97/40/91 96/41/91
f 93/4/92 94/10/92 103/10/92 102/4/92
f 103/10/93 101/10/93 105/10/93 107/10/93
f 3/4/94 93/4/94 102/4/94 100/4/94
f 94/10/95 4/10/95 101/10/95 103/10/95
f 4/10/96 3/4/96 100/4/96 101/10/96
f 105/10/97 104/4/97 108/4/97 109/10/97
f 101/10/98 100/4/98 104/4/98 105/10/98
f 114/4/99 110/4/99 591/4/99 593/4/99
f 100/4/100 102/4/100 106/4/100 104/4/100
f 107/10/101 111/10/101 592/10/101 590/10/101
f 103/10/102 107/10/102 590/10/102 588/10/102
f 104/4/103 106/4/103 110/4/103 108/4/103
f 107/10/104 105/10/104 109/10/104 111/10/104
f 114/4/105 115/10/105 17/16/105 19/30/105
f 108/4/106 110/4/106 114/4/106 112/4/106
f 111/10/107 109/10/107 113/10/107 115/10/107
f 109/10/108 108/4/108 112/4/108 113/10/108
f 113/10/109 112/4/109 10/43/109 12/15/109
f 112/4/110 114/4/110 19/30/110 10/43/110
f 129/3/111 128/44/111 120/3/111 122/3/111
f 135/45/112 143/44/112 116/3/112 118/3/112
f 144/11/113 136/42/113 119/11/113 117/11/113
f 143/41/114 144/40/114 117/40/114 116/41/114
f 121/11/115 123/11/115 127/11/115 125/11/115
f 131/46/116 130/11/116 123/11/116 121/11/116
f 128/41/117 131/40/117 121/40/117 120/41/117
f 130/40/118 129/41/118 122/41/118 123/40/118
f 125/11/119 127/11/119 33/18/119 29/18/119
f 120/41/120 121/40/120 125/40/120 124/41/120
f 123/40/121 122/41/121 126/41/121 127/40/121
f 122/3/122 120/3/122 124/3/122 126/3/122
f 126/3/123 124/3/123 30/39/123 34/39/123
f 137/40/124 134/41/124 583/41/124 586/40/124
f 116/41/125 117/40/125 131/40/125 128/41/125
f 117/11/126 119/11/126 130/11/126 131/46/126
f 118/3/127 116/3/127 128/44/127 129/3/127
f 96/41/128 97/40/128 147/40/128 140/41/128
f 140/41/129 147/40/129 146/40/129 141/41/129
f 141/41/130 146/40/130 145/40/130 142/41/130
f 142/41/131 145/40/131 144/40/131 143/41/131
f 97/11/132 99/11/132 139/11/132 147/11/132
f 147/11/133 139/11/133 138/11/133 146/47/133
f 146/47/134 138/11/134 137/11/134 145/48/134
f 145/48/135 137/11/135 136/42/135 144/11/135
f 98/3/136 96/3/136 140/3/136 132/44/136
f 132/44/137 140/3/137 141/3/137 133/3/137
f 133/3/138 141/3/138 142/3/138 134/3/138
f 134/3/139 142/3/139 143/44/139 135/45/139
f 99/40/140 98/41/140 132/41/140 139/40/140
f 139/40/141 132/41/141 133/41/141 138/40/141
f 138/40/142 133/41/142 134/41/142 137/40/142
f 118/3/143 129/3/143 581/3/143 579/3/143
f 154/39/144 153/49/144 152/38/144 155/39/144
f 155/39/145 152/38/145 151/38/145 156/37/145
f 18/17/146 9/18/146 159/18/146 148/17/146
f 148/17/147 159/18/147 158/18/147 149/17/147
f 149/17/148 158/18/148 157/36/148 150/17/148
f 9/22/149 11/21/149 154/21/149 159/50/149
f 159/50/150 154/21/150 155/35/150 158/22/150
f 158/22/151 155/35/151 156/35/151 157/22/151
f 153/34/152 148/33/152 149/33/152 152/34/152
f 152/34/153 149/33/153 150/32/153 151/31/153
f 163/34/154 160/33/154 164/33/154 167/34/154
f 161/18/155 69/18/155 573/18/155 575/18/155
f 70/39/156 71/38/156 163/38/156 162/39/156
f 68/17/157 69/18/157 161/18/157 160/17/157
f 166/39/158 167/38/158 171/38/158 170/39/158
f 166/21/159 165/22/159 577/22/159 578/21/159
f 162/39/160 163/38/160 167/38/160 166/39/160
f 160/17/161 161/18/161 165/18/161 164/17/161
f 171/34/162 168/33/162 172/33/162 175/34/162
f 164/17/42 165/18/42 169/18/42 168/17/42
f 167/34/163 164/33/163 168/33/163 171/34/163
f 165/22/164 166/21/164 170/21/164 169/22/164
f 173/22/165 174/21/165 202/21/165 201/22/165
f 169/22/166 170/21/166 174/21/166 173/22/166
f 170/39/167 171/38/167 175/38/167 174/39/167
f 168/17/42 169/18/42 173/18/42 172/17/42
f 73/14/168 75/13/168 179/13/168 178/14/168
f 75/23/169 74/7/169 177/7/169 179/23/169
f 72/26/170 73/14/170 178/14/170 176/26/170
f 74/24/171 72/26/171 176/26/171 177/24/171
f 6/23/172 5/7/172 183/7/172 180/23/172
f 1/26/173 2/14/173 181/12/173 182/25/173
f 5/24/174 1/26/174 182/25/174 183/24/174
f 2/14/175 6/13/175 180/13/175 181/12/175
f 187/24/176 184/24/176 188/24/176 191/24/176
f 180/23/177 183/7/177 187/7/177 186/23/177
f 15/7/178 16/23/178 185/23/178 184/7/178
f 183/24/179 15/24/179 184/24/179 187/24/179
f 190/23/180 191/7/180 195/7/180 194/23/180
f 184/7/181 185/23/181 189/23/181 188/7/181
f 186/23/182 187/7/182 191/7/182 190/23/182
f 185/13/42 186/13/42 190/13/42 189/13/42
f 195/24/183 192/24/183 63/38/183 59/38/183
f 189/13/42 190/13/42 194/13/42 193/13/42
f 191/24/184 188/24/184 192/24/184 195/24/184
f 188/7/185 189/23/185 193/23/185 192/7/185
f 193/13/186 194/13/186 56/17/186 60/17/186
f 194/23/187 195/7/187 59/34/187 56/33/187
f 84/26/188 85/14/188 197/14/188 196/26/188
f 87/23/189 86/7/189 198/7/189 199/23/189
f 85/14/42 87/13/42 199/13/42 197/14/42
f 198/24/190 196/26/190 219/26/190 221/24/190
f 318/51/191 317/38/191 207/38/191 206/39/191
f 174/39/192 175/38/192 203/38/192 202/39/192
f 172/17/42 173/18/42 201/18/42 200/17/42
f 175/34/193 172/33/193 200/33/193 203/34/193
f 206/39/194 207/38/194 211/38/194 210/39/194
f 322/17/42 321/52/42 205/18/42 204/17/42
f 317/34/195 322/33/195 204/33/195 207/34/195
f 321/22/196 318/35/196 206/21/196 205/22/196
f 210/39/197 211/38/197 226/38/197 225/39/197
f 204/17/42 205/18/42 209/18/42 208/17/42
f 221/24/198 219/26/198 211/38/198 207/38/198
f 205/22/199 206/21/199 210/21/199 209/22/199
f 2/53/200 1/54/200 217/55/200 215/56/200
f 215/56/201 217/55/201 218/29/201 214/28/201
f 6/57/202 2/53/202 215/56/202 216/58/202
f 216/58/203 215/56/203 214/28/203 18/27/203
f 216/59/204 212/60/204 213/6/204 6/5/204
f 219/26/205 220/14/205 208/33/205 211/34/205
f 196/26/206 197/14/206 220/14/206 219/26/206
f 199/23/207 198/7/207 221/7/207 222/23/207
f 197/14/42 199/13/42 222/13/42 220/14/42
f 225/39/208 226/38/208 230/38/208 229/39/208
f 208/17/42 209/18/42 224/18/42 223/17/42
f 211/34/209 208/33/209 223/33/209 226/34/209
f 209/22/210 210/21/210 225/21/210 224/22/210
f 220/14/211 222/13/211 204/17/211 208/17/211
f 222/23/212 221/7/212 207/34/212 204/33/212
f 230/34/213 227/33/213 231/33/213 234/34/213
f 223/17/42 224/18/42 228/18/42 227/17/42
f 226/34/214 223/33/214 227/33/214 230/34/214
f 224/22/215 225/21/215 229/21/215 228/22/215
f 228/22/216 229/21/216 233/21/216 232/22/216
f 229/39/217 230/38/217 234/38/217 233/39/217
f 227/17/42 228/18/42 232/18/42 231/17/42
f 240/39/218 239/38/218 238/38/218 237/39/218
f 241/22/219 240/21/219 237/21/219 236/22/219
f 237/39/220 238/38/220 246/38/220 245/39/220
f 232/22/221 233/21/221 240/21/221 241/22/221
f 239/34/222 242/33/222 235/33/222 238/34/222
f 233/39/223 234/38/223 239/38/223 240/39/223
f 234/34/224 231/33/224 242/33/224 239/34/224
f 231/17/42 232/18/42 241/18/42 242/17/42
f 242/17/42 241/18/42 236/18/42 235/17/42
f 244/22/225 245/21/225 249/21/225 248/22/225
f 236/22/226 237/21/226 245/21/226 244/22/226
f 235/17/42 236/18/42 244/18/42 243/17/42
f 238/34/227 235/33/227 243/33/227 246/34/227
f 247/33/228 248/22/228 249/39/228 250/34/228
f 246/34/229 243/33/229 247/33/229 250/34/229
f 243/17/42 244/18/42 248/18/42 247/17/42
f 245/39/230 246/38/230 250/38/230 249/39/230
f 18/27/231 251/61/231 212/60/231 216/58/231
f 218/29/232 217/55/232 212/60/232 251/61/232
f 11/21/233 251/61/233 153/49/233 154/39/233
f 18/27/234 148/33/234 153/49/234 251/61/234
f 19/30/235 251/61/235 11/21/235 10/43/235
f 19/30/236 218/29/236 251/61/236
f 8/40/237 7/41/237 256/62/237 253/63/237
f 253/63/238 256/62/238 257/20/238 252/19/238
f 12/15/239 10/43/239 254/64/239 259/65/239
f 259/65/240 254/64/240 255/1/240 258/9/240
f 9/18/241 12/15/241 259/65/241 252/66/241
f 252/66/242 259/65/242 258/9/242 253/8/242
f 10/43/243 11/39/243 257/67/243 254/64/243
f 254/64/244 257/67/244 256/2/244 255/1/244
f 88/4/245 90/3/245 262/3/245 260/4/245
f 90/41/246 91/40/246 263/40/246 262/41/246
f 91/11/42 89/10/42 261/10/42 263/11/42
f 89/10/247 88/4/247 260/4/247 261/10/247
f 260/4/248 262/3/248 266/3/248 264/4/248
f 262/41/249 263/40/249 267/40/249 266/41/249
f 263/11/250 261/10/250 265/10/250 267/11/250
f 261/10/251 260/4/251 264/4/251 265/10/251
f 264/4/252 266/3/252 270/3/252 268/4/252
f 266/41/253 267/40/253 271/40/253 270/41/253
f 267/11/254 265/10/254 269/10/254 271/11/254
f 265/10/255 264/4/255 268/4/255 269/10/255
f 271/11/256 269/10/256 273/10/256 275/11/256
f 269/10/257 268/4/257 272/4/257 273/10/257
f 268/4/258 270/3/258 274/3/258 272/4/258
f 270/41/259 271/40/259 275/40/259 274/41/259
f 313/41/260 312/40/260 279/40/260 278/41/260
f 312/11/261 314/10/261 277/10/261 279/11/261
f 314/10/262 315/4/262 276/4/262 277/10/262
f 315/4/263 313/68/263 278/3/263 276/4/263
f 279/11/264 277/10/264 281/10/264 283/11/264
f 277/10/265 276/4/265 280/4/265 281/10/265
f 276/4/266 278/3/266 282/3/266 280/4/266
f 278/41/267 279/40/267 283/40/267 282/41/267
f 280/4/268 282/3/268 286/3/268 284/4/268
f 282/41/269 283/40/269 287/40/269 286/41/269
f 283/11/270 281/10/270 285/10/270 287/11/270
f 281/10/271 280/4/271 284/4/271 285/10/271
f 284/4/272 286/3/272 290/3/272 288/4/272
f 286/41/273 287/40/273 291/40/273 290/41/273
f 287/11/42 285/10/42 289/10/42 291/11/42
f 285/10/274 284/4/274 288/4/274 289/10/274
f 298/11/275 297/10/275 293/10/275 295/11/275
f 297/10/276 301/69/276 292/4/276 293/10/276
f 301/69/277 303/3/277 294/3/277 292/4/277
f 303/41/278 298/40/278 295/40/278 294/41/278
f 292/4/279 294/3/279 352/3/279 350/4/279
f 405/10/280 404/11/280 399/11/280 398/10/280
f 302/41/281 299/70/281 298/40/281 303/41/281
f 300/4/282 302/3/282 303/3/282 301/69/282
f 296/10/283 300/4/283 301/69/283 297/10/283
f 299/11/284 296/10/284 297/10/284 298/11/284
f 288/4/285 290/3/285 307/3/285 310/4/285
f 310/4/286 307/3/286 306/3/286 311/71/286
f 275/11/287 273/10/287 272/4/287 274/3/287
f 289/10/288 288/4/288 310/4/288 308/10/288
f 308/10/289 310/4/289 311/71/289 309/10/289
f 554/10/290 555/72/290 329/11/290 327/10/290
f 291/11/42 289/10/42 308/10/42 304/11/42
f 304/11/42 308/10/42 309/10/42 305/11/42
f 290/41/291 291/40/291 304/40/291 307/41/291
f 307/41/292 304/40/292 305/40/292 306/41/292
f 557/73/293 556/74/293 326/4/293 328/68/293
f 201/22/294 202/21/294 319/35/294 320/22/294
f 320/22/295 319/35/295 318/35/295 321/22/295
f 203/34/296 200/33/296 323/33/296 316/34/296
f 316/34/297 323/33/297 322/33/297 317/34/297
f 200/17/42 201/18/42 320/18/42 323/75/42
f 323/75/42 320/18/42 321/52/42 322/17/42
f 202/39/298 203/38/298 316/38/298 319/76/298
f 319/76/299 316/38/299 317/38/299 318/51/299
f 183/7/300 187/7/300 5/7/300
f 187/7/301 324/77/301 213/6/301 5/7/301
f 191/24/302 213/6/302 324/77/302 187/7/302
f 195/7/303 325/77/303 213/6/303 191/24/303
f 55/34/304 195/24/304 59/38/304
f 51/38/305 195/24/305 55/34/305
f 195/24/306 51/38/306 213/6/306 325/78/306
f 43/38/307 51/34/307 47/34/307
f 39/34/308 51/34/308 43/38/308
f 51/34/309 39/34/309 35/34/309
f 51/34/310 35/34/310 213/6/310
f 31/38/311 213/6/311 35/34/311
f 212/79/312 213/6/312 31/38/312
f 27/34/313 212/79/313 31/38/313
f 23/38/314 212/79/314 27/34/314
f 151/31/315 212/79/315 23/38/315
f 152/38/316 212/79/316 151/31/316
f 153/49/317 212/79/317 152/38/317
f 212/61/318 153/61/318 251/61/318
f 213/6/319 212/60/319 5/77/319
f 5/77/320 212/60/320 1/54/320
f 217/55/321 1/54/321 212/60/321
f 30/39/322 124/3/322 125/40/322 29/18/322
f 31/38/323 5/7/323 213/6/323
f 556/74/324 554/10/324 327/10/324 326/4/324
f 555/70/325 557/41/325 328/41/325 329/40/325
f 328/41/326 326/4/326 327/10/326 329/40/326
f 306/41/327 305/40/327 309/10/327 311/71/327
f 333/4/328 332/10/328 330/11/328 331/41/328
f 332/10/329 333/4/329 337/4/329 336/10/329
f 334/11/42 336/10/42 340/10/42 338/11/42
f 331/41/330 330/40/330 334/40/330 335/41/330
f 330/11/42 332/10/42 336/10/42 334/11/42
f 333/4/331 331/3/331 335/3/331 337/4/331
f 338/11/42 340/10/42 344/10/42 342/11/42
f 337/4/332 335/3/332 339/3/332 341/4/332
f 336/10/333 337/4/333 341/4/333 340/10/333
f 335/41/334 334/40/334 338/40/334 339/41/334
f 344/10/335 345/4/335 349/4/335 348/10/335
f 341/4/336 339/3/336 343/3/336 345/4/336
f 340/10/337 341/4/337 345/4/337 344/10/337
f 339/41/338 338/40/338 342/40/338 343/41/338
f 346/11/339 348/10/339 349/4/339 347/3/339
f 343/41/340 342/40/340 346/40/340 347/41/340
f 342/11/42 344/10/42 348/10/42 346/11/42
f 345/4/341 343/3/341 347/3/341 349/4/341
f 350/4/342 352/3/342 428/3/342 426/4/342
f 294/41/343 295/40/343 353/40/343 352/41/343
f 295/11/344 293/10/344 351/10/344 353/11/344
f 293/10/345 292/4/345 350/4/345 351/10/345
f 388/3/346 387/4/346 382/4/346 384/3/346
f 357/11/347 355/10/347 359/10/347 361/11/347
f 355/10/348 354/4/348 358/4/348 359/10/348
f 354/4/349 356/3/349 360/3/349 358/4/349
f 356/41/350 357/40/350 361/40/350 360/41/350
f 358/4/351 360/3/351 364/3/351 362/4/351
f 360/41/352 361/40/352 365/40/352 364/41/352
f 361/11/353 359/10/353 363/10/353 365/11/353
f 359/10/354 358/4/354 362/4/354 363/10/354
f 375/41/355 374/40/355 369/40/355 368/41/355
f 374/11/356 376/10/356 367/10/356 369/11/356
f 376/10/357 377/4/357 366/4/357 367/10/357
f 377/4/358 375/44/358 368/3/358 366/4/358
f 368/41/359 369/40/359 371/70/359 373/41/359
f 366/4/360 368/3/360 373/3/360 372/4/360
f 552/80/361 550/81/361 378/10/361 379/11/361
f 367/10/362 366/4/362 372/4/362 370/10/362
f 369/11/363 367/10/363 370/10/363 371/11/363
f 362/4/364 364/3/364 375/44/364 377/4/364
f 363/10/365 362/4/365 377/4/365 376/10/365
f 365/11/366 363/10/366 376/10/366 374/11/366
f 364/41/367 365/40/367 374/40/367 375/41/367
f 553/71/368 551/3/368 381/3/368 380/4/368
f 550/81/369 553/71/369 380/4/369 378/10/369
f 551/41/370 552/70/370 379/70/370 381/41/370
f 383/10/371 385/11/371 545/11/371 543/10/371
f 390/70/372 388/41/372 384/41/372 385/40/372
f 392/10/373 390/82/373 385/11/373 383/10/373
f 387/4/374 392/10/374 383/10/374 382/4/374
f 354/4/375 355/10/375 393/83/375 386/84/375
f 386/84/376 393/83/376 392/10/376 387/4/376
f 355/10/377 357/11/377 391/11/377 393/83/377
f 393/83/378 391/11/378 390/82/378 392/10/378
f 357/40/379 356/41/379 389/41/379 391/40/379
f 391/40/380 389/41/380 388/41/380 390/70/380
f 356/3/381 354/4/381 386/84/381 389/85/381
f 389/85/382 386/84/382 387/4/382 388/3/382
f 373/41/383 371/70/383 395/70/383 396/86/383
f 370/10/384 372/4/384 397/4/384 394/10/384
f 372/4/385 373/3/385 396/3/385 397/4/385
f 371/11/386 370/10/386 394/10/386 395/11/386
f 399/70/387 401/41/387 417/41/387 415/70/387
f 408/4/388 405/10/388 398/10/388 400/4/388
f 411/3/389 408/4/389 400/4/389 401/3/389
f 404/70/390 411/41/390 401/41/390 399/70/390
f 402/70/391 413/41/391 412/41/391 403/40/391
f 403/40/392 412/41/392 411/41/392 404/70/392
f 299/11/393 302/3/393 300/4/393 296/10/393
f 413/3/394 410/4/394 409/4/394 412/3/394
f 412/3/395 409/4/395 408/4/395 411/3/395
f 410/4/396 407/10/396 406/10/396 409/4/396
f 409/4/397 406/10/397 405/10/397 408/4/397
f 407/10/398 402/11/398 403/87/398 406/10/398
f 406/10/399 403/87/399 404/11/399 405/10/399
f 407/10/400 410/4/400 548/4/400 547/10/400
f 414/10/401 415/11/401 419/11/401 418/10/401
f 398/10/402 399/11/402 415/11/402 414/10/402
f 401/3/403 400/4/403 416/4/403 417/3/403
f 400/4/404 398/10/404 414/10/404 416/4/404
f 420/4/405 418/10/405 422/10/405 424/4/405
f 417/3/406 416/4/406 420/4/406 421/3/406
f 416/4/407 414/10/407 418/10/407 420/4/407
f 415/70/408 417/41/408 421/41/408 419/70/408
f 423/11/409 425/3/409 424/4/409 422/10/409
f 419/70/410 421/41/410 425/41/410 423/70/410
f 418/10/411 419/11/411 423/11/411 422/10/411
f 421/3/412 420/4/412 424/4/412 425/3/412
f 429/11/413 427/10/413 431/10/413 433/11/413
f 352/41/414 353/40/414 429/40/414 428/41/414
f 353/11/415 351/10/415 427/10/415 429/11/415
f 351/10/416 350/4/416 426/4/416 427/10/416
f 433/11/417 431/10/417 443/10/417 445/11/417
f 427/10/418 426/4/418 430/4/418 431/10/418
f 426/4/419 428/3/419 432/3/419 430/4/419
f 428/41/420 429/40/420 433/40/420 432/41/420
f 436/4/421 437/3/421 441/3/421 440/4/421
f 435/11/422 437/3/422 436/4/422 434/10/422
f 379/11/423 378/10/423 380/4/423 381/3/423
f 439/11/424 438/10/424 440/4/424 441/3/424
f 438/10/425 434/10/425 558/10/425 560/10/425
f 437/41/426 435/70/426 439/70/426 441/41/426
f 435/11/427 434/10/427 438/10/427 439/11/427
f 442/4/428 444/3/428 448/3/428 446/4/428
f 431/10/429 430/4/429 442/4/429 443/10/429
f 430/4/430 432/3/430 444/3/430 442/4/430
f 432/41/431 433/40/431 445/40/431 444/41/431
f 449/11/432 447/10/432 451/10/432 453/11/432
f 444/41/433 445/40/433 449/40/433 448/41/433
f 445/11/434 443/10/434 447/10/434 449/11/434
f 443/10/435 442/4/435 446/4/435 447/10/435
f 520/10/436 519/88/436 454/4/436 455/10/436
f 447/10/437 446/4/437 450/4/437 451/10/437
f 446/4/438 448/3/438 452/3/438 450/4/438
f 448/41/439 449/40/439 453/40/439 452/41/439
f 457/11/440 455/10/440 459/10/440 461/11/440
f 519/88/441 523/89/441 456/3/441 454/4/441
f 523/86/442 525/40/442 457/40/442 456/41/442
f 525/11/443 520/10/443 455/10/443 457/11/443
f 461/11/444 459/10/444 463/10/444 465/11/444
f 455/10/445 454/4/445 458/4/445 459/10/445
f 454/4/446 456/3/446 460/3/446 458/4/446
f 456/41/447 457/40/447 461/40/447 460/41/447
f 463/10/448 462/4/448 466/4/448 467/10/448
f 459/10/449 458/4/449 462/4/449 463/10/449
f 458/4/450 460/3/450 464/3/450 462/4/450
f 460/41/451 461/40/451 465/40/451 464/41/451
f 493/4/452 492/3/452 472/3/452 470/4/452
f 462/4/453 464/3/453 468/3/453 466/4/453
f 464/41/454 465/40/454 469/40/454 468/41/454
f 465/11/455 463/10/455 467/10/455 469/11/455
f 473/11/456 471/10/456 475/10/456 477/11/456
f 492/41/457 498/40/457 473/40/457 472/41/457
f 498/11/458 501/10/458 471/10/458 473/11/458
f 501/10/459 493/4/459 470/4/459 471/10/459
f 512/90/460 511/3/460 480/3/460 478/4/460
f 471/10/461 470/4/461 474/4/461 475/10/461
f 470/4/462 472/3/462 476/3/462 474/4/462
f 472/41/463 473/40/463 477/40/463 476/41/463
f 478/4/464 480/3/464 484/3/464 482/4/464
f 511/91/465 515/40/465 481/40/465 480/41/465
f 515/11/466 517/10/466 479/10/466 481/11/466
f 517/10/467 512/90/467 478/4/467 479/10/467
f 485/11/468 483/10/468 487/10/468 489/11/468
f 480/41/469 481/40/469 485/40/469 484/41/469
f 481/11/470 479/10/470 483/10/470 485/11/470
f 479/10/471 478/4/471 482/4/471 483/10/471
f 486/4/472 488/3/472 504/3/472 502/4/472
f 483/10/473 482/4/473 486/4/473 487/10/473
f 482/4/474 484/3/474 488/3/474 486/4/474
f 484/41/475 485/40/475 489/40/475 488/41/475
f 467/10/476 466/4/476 495/90/476 499/10/476
f 499/10/477 495/90/477 494/4/477 500/10/477
f 469/11/478 467/10/478 499/10/478 496/11/478
f 496/11/479 499/10/479 500/10/479 497/11/479
f 497/11/480 500/10/480 501/10/480 498/11/480
f 468/41/481 469/40/481 496/40/481 490/41/481
f 490/41/482 496/40/482 497/92/482 491/41/482
f 491/41/483 497/92/483 498/40/483 492/41/483
f 466/4/484 468/3/484 490/3/484 495/90/484
f 495/90/485 490/3/485 491/93/485 494/4/485
f 494/4/486 491/93/486 492/3/486 493/4/486
f 505/11/487 503/10/487 507/10/487 509/11/487
f 488/41/488 489/40/488 505/40/488 504/41/488
f 489/11/489 487/10/489 503/10/489 505/11/489
f 487/10/490 486/4/490 502/4/490 503/10/490
f 509/11/491 507/10/491 506/4/491 508/3/491
f 503/10/492 502/4/492 506/4/492 507/10/492
f 502/4/493 504/3/493 508/3/493 506/4/493
f 504/41/494 505/40/494 509/40/494 508/41/494
f 475/10/495 474/4/495 513/94/495 516/81/495
f 516/81/496 513/94/496 512/90/496 517/10/496
f 477/11/497 475/10/497 516/81/497 514/87/497
f 514/87/498 516/81/498 517/10/498 515/11/498
f 476/41/499 477/40/499 514/40/499 510/41/499
f 510/41/500 514/40/500 515/40/500 511/91/500
f 474/4/501 476/3/501 510/95/501 513/94/501
f 513/94/502 510/95/502 511/3/502 512/90/502
f 453/11/503 451/10/503 521/10/503 524/11/503
f 524/11/504 521/10/504 520/10/504 525/11/504
f 452/41/505 453/40/505 524/40/505 522/86/505
f 522/86/506 524/40/506 525/40/506 523/86/506
f 450/4/507 452/3/507 522/3/507 518/4/507
f 518/4/508 522/3/508 523/89/508 519/88/508
f 451/10/509 450/4/509 518/4/509 521/10/509
f 519/88/510 520/10/510 528/10/510 527/88/510
f 529/10/511 526/4/511 530/4/511 533/10/511
f 520/10/512 521/10/512 529/10/512 528/10/512
f 521/10/513 518/4/513 526/4/513 529/10/513
f 518/4/514 519/88/514 527/88/514 526/4/514
f 530/4/515 531/88/515 535/88/515 534/4/515
f 526/4/516 527/88/516 531/88/516 530/4/516
f 527/88/517 528/10/517 532/10/517 531/88/517
f 528/10/518 529/10/518 533/10/518 532/10/518
f 535/88/519 536/10/519 540/10/519 539/88/519
f 531/88/520 532/10/520 536/10/520 535/88/520
f 532/10/521 533/10/521 537/10/521 536/10/521
f 533/10/522 530/4/522 534/4/522 537/10/522
f 536/10/523 537/10/523 541/10/523 540/10/523
f 537/10/524 534/4/524 538/4/524 541/10/524
f 534/4/525 535/88/525 539/88/525 538/4/525
f 539/88/526 540/10/526 500/10/526 494/4/526
f 540/10/527 541/10/527 501/10/527 500/10/527
f 541/10/528 538/4/528 493/4/528 501/10/528
f 538/4/529 539/88/529 494/4/529 493/4/529
f 545/11/530 544/3/530 542/4/530 543/10/530
f 382/4/531 383/10/531 543/10/531 542/4/531
f 384/3/532 382/4/532 542/4/532 544/3/532
f 385/40/533 384/41/533 544/41/533 545/40/533
f 549/3/534 546/11/534 547/10/534 548/4/534
f 413/41/535 402/70/535 546/70/535 549/41/535
f 402/11/536 407/10/536 547/10/536 546/11/536
f 410/4/537 413/3/537 549/3/537 548/4/537
f 396/86/538 395/70/538 552/70/538 551/41/538
f 394/10/539 397/4/539 553/71/539 550/81/539
f 397/4/540 396/3/540 551/3/540 553/71/540
f 395/11/541 394/10/541 550/81/541 552/80/541
f 312/40/542 313/41/542 557/41/542 555/70/542
f 315/4/543 314/10/543 554/10/543 556/74/543
f 313/68/544 315/4/544 556/74/544 557/73/544
f 314/10/545 312/11/545 555/72/545 554/10/545
f 558/10/546 559/4/546 561/4/546 560/10/546
f 440/4/547 438/10/547 560/10/547 561/4/547
f 434/10/548 436/4/548 559/4/548 558/10/548
f 436/4/549 440/4/549 561/4/549 559/4/549
f 562/26/550 563/14/550 565/14/550 564/26/550
f 569/26/551 570/14/551 563/14/551 562/26/551
f 564/26/552 565/14/552 568/14/552 567/26/552
f 176/26/553 178/14/553 570/14/553 569/26/553
f 81/14/554 85/14/554 568/14/554 565/14/554
f 77/14/555 81/14/555 565/14/555 563/14/555
f 178/14/556 77/14/556 563/14/556 570/14/556
f 84/26/557 80/26/557 564/26/557 567/26/557
f 80/26/558 76/26/558 562/26/558 564/26/558
f 571/22/559 572/21/559 574/21/559 573/22/559
f 573/22/560 574/21/560 576/21/560 575/22/560
f 575/22/561 576/21/561 578/21/561 577/22/561
f 66/39/562 70/39/562 574/39/562 572/39/562
f 65/22/563 66/21/563 572/21/563 571/22/563
f 70/39/564 162/39/564 576/39/564 574/39/564
f 165/18/565 161/18/565 575/18/565 577/18/565
f 69/18/566 65/18/566 571/18/566 573/18/566
f 585/40/567 584/41/567 579/41/567 580/40/567
f 580/40/568 579/41/568 581/41/568 582/40/568
f 586/40/569 583/41/569 584/41/569 585/40/569
f 129/41/570 130/40/570 582/40/570 581/41/570
f 136/42/571 137/11/571 586/11/571 585/42/571
f 130/11/572 119/11/572 580/11/572 582/11/572
f 134/3/573 135/45/573 584/45/573 583/3/573
f 135/45/574 118/3/574 579/3/574 584/45/574
f 587/4/575 588/10/575 590/10/575 589/4/575
f 591/4/576 592/10/576 594/10/576 593/4/576
f 589/4/577 590/10/577 592/10/577 591/4/577
f 115/10/578 114/4/578 593/4/578 594/10/578
f 110/4/579 106/4/579 589/4/579 591/4/579
f 111/10/580 115/10/580 594/10/580 592/10/580
f 102/4/581 103/10/581 588/10/581 587/4/581
f 106/4/582 102/4/582 587/4/582 589/4/582
