# This file uses centimeters as units for non-parametric coordinates.

mtllib Sign_Stick.mtl
g default
v 0.004409 4.501472 -0.113843
v -0.074054 4.523764 -0.077607
v -0.099775 4.553768 -0.006125
v 0.015106 4.561336 -0.000393
v -0.078615 4.570013 0.082476
v 0.004115 4.581030 0.119736
v 0.090042 4.571141 0.066187
v 0.131902 4.534685 -0.011065
v 0.089536 4.506712 -0.087276
v -0.113138 -0.379281 0.021572
v -0.091223 -0.398232 0.063541
v -0.050373 -0.398296 0.076320
v -0.015344 -0.394190 0.067793
v 0.007955 -0.376430 0.014691
v -0.005755 -0.358397 -0.020246
v -0.051964 -0.354338 -0.025653
v -0.094228 -0.362500 -0.000898
v -0.077451 3.563745 0.050778
v -0.085981 3.559989 -0.011256
v -0.053399 3.565427 -0.088536
v 0.001233 3.562881 -0.105150
v 0.078260 3.559709 -0.081597
v 0.105367 3.567128 -0.029891
v 0.103789 3.569478 0.037396
v 0.002031 3.566794 0.092475
v -0.074337 2.358092 0.019038
v -0.096126 2.357712 -0.044782
v -0.066089 2.358027 -0.099873
v -0.009808 2.357736 -0.118211
v 0.054550 2.358518 -0.113455
v 0.083575 2.366491 -0.040890
v 0.070212 2.363793 0.022689
v -0.008455 2.360481 0.047309
v -0.094240 1.287630 0.071682
v -0.119191 1.284267 0.019601
v -0.071267 1.280747 -0.020136
v -0.018553 1.284212 -0.042237
v 0.022713 1.282019 -0.029682
v 0.034427 1.282248 0.013659
v 0.021979 1.278797 0.078705
v -0.027580 1.290182 0.107816
v -0.047886 -0.388509 0.018957
v -0.105148 4.029660 -0.002172
v -0.070509 4.041627 0.060433
v 0.004179 4.048253 0.108936
v 0.085264 4.043601 0.041704
v 0.105699 4.066417 -0.015067
v 0.076169 4.009557 -0.078501
v 0.004356 3.995703 -0.107542
v -0.069809 4.018655 -0.090430
v -0.076419 2.963402 -0.025879
v -0.061585 2.966924 0.020362
v 0.002258 2.967757 0.054157
v 0.083582 2.971611 0.027203
v 0.110781 2.972790 -0.016386
v 0.072414 2.965778 -0.112026
v -0.004870 2.966175 -0.119932
v -0.053562 2.966090 -0.090665
v -0.103373 1.861001 -0.015041
v -0.089915 1.862649 0.046187
v -0.011022 1.860419 0.082798
v 0.042068 1.861877 0.042782
v 0.075041 1.865497 -0.015871
v 0.042624 1.859794 -0.078738
v -0.013947 1.860763 -0.083543
v -0.070444 1.859310 -0.066901
v -0.109694 0.452928 0.081036
v -0.113950 0.453153 0.020851
v -0.101085 0.462243 -0.020601
v -0.036001 0.465552 -0.050108
v 0.015423 0.462813 -0.031821
v 0.037257 0.453390 0.013331
v 0.017382 0.450597 0.084784
v -0.035456 0.446674 0.119836
v -0.128670 0.840465 0.015800
v -0.109162 0.841748 0.082055
v -0.031075 0.839235 0.117541
v 0.030184 0.835458 0.091517
v 0.032728 0.839128 0.015268
v 0.006067 0.843092 -0.012696
v -0.030722 0.844605 -0.026603
v -0.085951 0.842985 -0.017002
v -0.103704 0.052026 0.073962
v -0.113190 0.060921 0.021142
v -0.115269 0.074368 -0.011024
v -0.042158 0.078457 -0.049573
v 0.009384 0.075770 -0.029738
v 0.032408 0.062501 0.010970
v 0.000871 0.052686 0.075248
v -0.042884 0.048631 0.098135
v -0.095313 1.585305 0.060484
v -0.106715 1.582793 0.002279
v -0.078409 1.578147 -0.052189
v -0.015352 1.582719 -0.069762
v 0.024041 1.581884 -0.047154
v 0.050558 1.584277 -0.000191
v 0.037190 1.581566 0.064672
v -0.019529 1.585282 0.092641
v -0.091560 2.112554 -0.029706
v -0.086419 2.115256 0.034651
v -0.009960 2.113476 0.058880
v 0.062450 2.119113 0.045806
v 0.085620 2.119789 -0.031709
v 0.045405 2.113526 -0.092735
v -0.014020 2.112073 -0.111562
v -0.069156 2.112776 -0.084837
v -0.043883 2.691783 0.007421
v -0.064907 2.688477 -0.041678
v -0.056624 2.687753 -0.091878
v -0.006762 2.687963 -0.118107
v 0.066796 2.688220 -0.115503
v 0.117066 2.696097 -0.031230
v 0.082812 2.693266 0.034091
v -0.002532 2.690219 0.050608
v -0.083672 3.233967 -0.019219
v -0.065022 3.237090 0.030726
v 0.002581 3.239278 0.067771
v 0.096305 3.242890 0.035745
v 0.120742 3.242942 -0.021380
v 0.075843 3.234833 -0.100331
v -0.001841 3.236542 -0.108845
v -0.053062 3.237636 -0.089309
v -0.078657 3.809998 0.058351
v -0.103550 3.799922 -0.005133
v -0.055030 3.798235 -0.081586
v 0.001967 3.784504 -0.112046
v 0.077836 3.790888 -0.080588
v 0.108963 3.824060 -0.023661
v 0.107312 3.813262 0.046860
v 0.000657 3.824458 0.097515
v -0.113257 4.310286 -0.005013
v -0.078694 4.324493 0.076460
v 0.004638 4.333385 0.108897
v 0.092421 4.324937 0.057798
v 0.121012 4.316830 -0.013004
v 0.086377 4.275526 -0.085673
v 0.002000 4.280739 -0.107186
v -0.082128 4.289687 -0.094965
vt 0.034224 0.951085
vt 0.051018 0.954903
vt 0.065609 0.960726
vt 0.150702 0.973877
vt 0.082960 0.964338
vt 0.100219 0.966622
vt 0.135920 0.956609
vt 0.119450 0.964188
vt 0.152019 0.949926
vt 0.101443 0.002659
vt 0.062527 0.024319
vt 0.094712 0.007351
vt 0.092026 0.013772
vt 0.097872 0.023830
vt 0.105367 0.026418
vt 0.111919 0.020302
vt 0.056870 0.027394
vt 0.077284 0.773973
vt 0.065468 0.773038
vt 0.049566 0.773523
vt 0.038761 0.772713
vt 0.139801 0.769675
vt 0.128837 0.771831
vt 0.116113 0.773349
vt 0.094225 0.774174
vt 0.075488 0.542908
vt 0.062772 0.543302
vt 0.051015 0.544137
vt 0.039880 0.544729
vt 0.132210 0.543727
vt 0.117315 0.545460
vt 0.104840 0.544790
vt 0.089062 0.543747
vt 0.072639 0.339713
vt 0.061572 0.339411
vt 0.049659 0.339451
vt 0.038800 0.340584
vt 0.119304 0.339158
vt 0.110778 0.339020
vt 0.098178 0.338026
vt 0.087150 0.339978
vt 0.103115 0.014398
vt 0.067893 0.862103
vt 0.081710 0.864244
vt 0.098869 0.865184
vt 0.119075 0.863249
vt 0.130918 0.867107
vt 0.143714 0.855468
vt 0.035312 0.855038
vt 0.049621 0.860021
vt 0.066994 0.659480
vt 0.076179 0.660293
vt 0.089908 0.660123
vt 0.106339 0.660229
vt 0.116210 0.659957
vt 0.135768 0.657474
vt 0.043232 0.659387
vt 0.053998 0.659591
vt 0.061334 0.449186
vt 0.073228 0.448845
vt 0.089710 0.448151
vt 0.102303 0.449054
vt 0.115065 0.450221
vt 0.128447 0.448829
vt 0.038480 0.450360
vt 0.049667 0.449658
vt 0.069867 0.182053
vt 0.058435 0.181957
vt 0.050160 0.183539
vt 0.036600 0.184014
vt 0.121430 0.182450
vt 0.111836 0.181157
vt 0.097757 0.181346
vt 0.085735 0.180879
vt 0.057608 0.255333
vt 0.070654 0.255324
vt 0.086845 0.254759
vt 0.099413 0.254077
vt 0.113823 0.254809
vt 0.029369 0.256628
vt 0.036844 0.256667
vt 0.047442 0.256034
vt 0.071068 0.106265
vt 0.060859 0.107712
vt 0.054722 0.110170
vt 0.039059 0.110382
vt 0.115671 0.108513
vt 0.106579 0.106898
vt 0.092889 0.105963
vt 0.083486 0.105598
vt 0.072872 0.396229
vt 0.061635 0.396289
vt 0.050004 0.396275
vt 0.037661 0.397479
vt 0.123198 0.395848
vt 0.112971 0.396542
vt 0.100452 0.395609
vt 0.088459 0.396026
vt 0.061715 0.497048
vt 0.073885 0.496708
vt 0.088974 0.496318
vt 0.102667 0.497949
vt 0.117776 0.498506
vt 0.027103 0.498606
vt 0.038921 0.498337
vt 0.050498 0.497897
vt 0.075200 0.607145
vt 0.064911 0.606515
vt 0.055082 0.606491
vt 0.044284 0.606867
vt 0.135417 0.605507
vt 0.117001 0.607939
vt 0.103115 0.607525
vt 0.086659 0.606910
vt 0.066538 0.710977
vt 0.076635 0.711820
vt 0.091266 0.712076
vt 0.110037 0.711770
vt 0.121722 0.710765
vt 0.026773 0.709951
vt 0.041612 0.710609
vt 0.052000 0.711160
vt 0.079243 0.820479
vt 0.066363 0.818734
vt 0.049267 0.818036
vt 0.037134 0.814967
vt 0.142965 0.813735
vt 0.131047 0.820709
vt 0.117825 0.819238
vt 0.095966 0.822900
vt 0.067144 0.914881
vt 0.083627 0.917911
vt 0.100454 0.919448
vt 0.119584 0.917279
vt 0.133875 0.915100
vt 0.017094 0.907917
vt 0.033543 0.909037
vt 0.049455 0.910790
vt 0.148304 0.905943
vt 0.021539 0.815618
vt 0.020478 0.857206
vt 0.138680 0.707840
vt 0.023519 0.771582
vt 0.030279 0.607339
vt 0.028499 0.659192
vt 0.131590 0.497265
vt 0.027710 0.545523
vt 0.029076 0.396996
vt 0.027692 0.450242
vt 0.028648 0.109247
vt 0.026235 0.183576
vt 0.121133 0.255620
vt 0.030603 0.340191
vt 0.017286 0.952204
vt 0.167738 0.956486
vt 0.131663 0.974240
vt 0.137380 0.992773
vt 0.154189 0.997341
vt 0.168293 0.986750
vt 0.174055 0.972284
vt 0.047458 0.028430
vt 0.113189 0.010861
vt 0.110975 0.004775
vt 0.038731 0.026886
vt 0.086623 0.021263
vt 0.079739 0.020743
vt 0.071594 0.020853
vn 0.009083 0.277326 -0.960733
vn -0.640540 0.338023 -0.689528
vn -0.910922 0.406435 -0.070936
vn 0.043930 0.945572 -0.322435
vn -0.693407 0.349949 0.629859
vn 0.109108 0.315296 0.942700
vn 0.947567 0.317016 -0.040210
vn 0.693811 0.344044 0.632661
vn 0.585263 0.279645 -0.761095
vn -0.668066 -0.117132 0.734825
vn -0.733124 -0.027460 0.679540
vn -0.999095 -0.011876 0.040847
vn -0.986927 -0.098978 0.127191
vn -0.043246 -0.132079 0.990295
vn -0.028635 -0.042325 0.998693
vn 0.717643 -0.125439 0.685021
vn 0.772089 -0.043481 0.634025
vn 0.979595 -0.130292 0.153031
vn 0.997852 -0.038226 0.053199
vn 0.624232 -0.117442 -0.772361
vn 0.618207 -0.029080 -0.785477
vn -0.147138 -0.023815 -0.988829
vn -0.188129 -0.100764 -0.976962
vn -0.687794 -0.014796 -0.725756
vn -0.683417 -0.119507 -0.720180
vn -0.999930 -0.001132 0.011784
vn -0.717984 -0.019327 0.695791
vn -0.692251 0.001071 -0.721656
vn 0.034174 -0.006686 -0.999394
vn 0.640699 -0.032306 -0.767113
vn 0.998851 -0.040870 -0.025019
vn 0.726455 -0.034867 0.686329
vn 0.109043 -0.035475 0.993404
vn -0.993169 -0.014569 -0.115768
vn -0.726847 -0.050462 0.684944
vn -0.728055 -0.049209 0.683750
vn -0.988631 -0.022411 -0.148683
vn -0.729540 -0.004334 -0.683925
vn -0.749900 0.005701 -0.661527
vn 0.003817 0.009776 -0.999945
vn -0.065445 0.028248 -0.997456
vn 0.605277 0.016755 -0.795839
vn 0.604194 0.020225 -0.796581
vn 0.989193 -0.001382 -0.146613
vn 0.980654 0.008780 -0.195552
vn 0.642806 -0.033445 0.765299
vn 0.723575 -0.024562 0.689808
vn -0.002424 -0.054993 0.998484
vn 0.045909 -0.045559 0.997906
vn -0.991053 0.008837 -0.133177
vn -0.729810 0.058178 0.681170
vn -0.757797 0.061892 0.649548
vn -0.998037 0.045206 -0.043332
vn -0.702879 0.009392 -0.711247
vn -0.677811 -0.041990 -0.734037
vn -0.124901 -0.017209 -0.992020
vn -0.089088 -0.068006 -0.993699
vn 0.606704 -0.044458 -0.793684
vn 0.625238 -0.063350 -0.777859
vn 0.994999 -0.036367 -0.093026
vn 0.991218 -0.050696 -0.122131
vn 0.698290 0.013364 0.715690
vn 0.661449 -0.016742 0.749804
vn -0.038186 0.057818 0.997597
vn -0.089957 0.031214 0.995456
vn 0.008688 -0.906808 -0.421455
vn -0.712644 -0.019070 0.701267
vn -0.992210 -0.028812 -0.121196
vn 0.074536 -0.015101 0.997104
vn 0.759364 -0.002812 0.650661
vn 0.983563 0.017165 -0.179746
vn 0.640213 0.004336 -0.768185
vn 0.035234 -0.004754 -0.999368
vn -0.717041 -0.024368 -0.696605
vn -0.772807 0.013248 0.634502
vn -0.999273 0.031928 0.020860
vn -0.115884 -0.006566 0.993241
vn 0.596160 -0.029486 0.802324
vn 0.994167 -0.030925 -0.103327
vn 0.613394 -0.015910 -0.789617
vn -0.163275 0.004633 -0.986570
vn -0.755976 0.023405 -0.654181
vn -0.979562 0.013742 -0.200672
vn -0.703315 0.035689 0.709982
vn -0.716147 0.044292 0.696542
vn -0.984426 0.000458 -0.175797
vn -0.060729 0.034552 0.997556
vn -0.020933 0.045012 0.998767
vn 0.826997 0.007934 0.562150
vn 0.799591 -0.003536 0.600535
vn 0.996189 -0.022470 -0.084281
vn 0.996922 -0.058781 -0.051876
vn 0.681350 -0.049959 -0.730251
vn 0.693130 -0.086422 -0.715613
vn -0.025046 -0.078131 -0.996628
vn -0.022355 -0.056430 -0.998156
vn -0.591866 -0.053669 -0.804248
vn -0.508465 -0.027518 -0.860643
vn -0.981004 0.009537 -0.193755
vn -0.727810 0.014186 0.685632
vn -0.499775 0.013829 -0.866045
vn -0.030774 0.010099 -0.999475
vn 0.629549 0.001868 -0.776959
vn 0.993647 0.000221 -0.112546
vn 0.837858 0.001756 0.545885
vn -0.056567 0.013811 0.998303
vn -0.998464 -0.005332 -0.055142
vn -0.755798 -0.014220 0.654650
vn -0.036591 -0.024119 0.999039
vn 0.814592 -0.027881 0.579364
vn 0.999021 -0.011899 -0.042615
vn 0.625503 0.015825 -0.780061
vn -0.079862 0.021431 -0.996576
vn -0.611379 0.014061 -0.791213
vn -0.726579 0.053943 0.684962
vn -0.987123 0.012482 -0.159478
vn -0.638100 -0.038319 -0.768999
vn -0.058721 -0.076559 -0.995334
vn 0.641559 -0.089330 -0.761854
vn 0.996477 -0.063110 -0.055243
vn 0.751429 -0.004984 0.659796
vn -0.009278 0.050228 0.998695
vn -0.742540 -0.045587 0.668249
vn -0.999174 -0.027086 -0.030311
vn -0.780308 0.002839 -0.625388
vn -0.151701 0.018644 -0.988251
vn 0.621987 0.011442 -0.782944
vn 0.995758 -0.008626 -0.091605
vn 0.566516 -0.022575 0.823741
vn -0.075853 -0.032361 0.996594
vn -0.706164 -0.022721 0.707684
vn -0.999264 -0.031217 -0.022285
vn -0.678555 -0.031073 -0.733892
vn 0.056811 -0.008788 -0.998346
vn 0.633272 -0.004418 -0.773917
vn 0.997007 -0.026334 -0.072689
vn 0.754271 -0.004707 0.656546
vn 0.103386 -0.020625 0.994427
s 1
g Sign_Stick Sign
usemtl initialShadingGroup
f 1/155/1 2/160/2 3/159/3 4/4/4
f 3/159/3 5/158/5 6/157/6 4/4/4
f 8/7/7 4/4/4 6/157/6 7/156/8
f 1/155/1 4/4/4 8/7/7 9/9/9
f 11/167/10 83/83/11 84/84/12 10/11/13
f 12/166/14 90/90/15 83/83/11 11/167/10
f 13/165/16 89/89/17 90/90/15 12/166/14
f 14/14/18 88/88/19 89/89/17 13/165/16
f 15/15/20 87/87/21 88/88/19 14/14/18
f 86/86/22 87/150/21 15/164/20 16/161/23
f 84/84/12 85/85/24 17/17/25 10/11/13
f 85/85/24 86/86/22 16/161/23 17/17/25
f 131/131/26 132/132/27 5/5/5 3/3/3
f 2/2/2 138/138/28 131/131/26 3/3/3
f 1/1/1 137/137/29 138/138/28 2/2/2
f 9/154/9 136/136/30 137/137/29 1/1/1
f 135/135/31 136/139/30 9/9/9 8/7/7
f 134/134/32 135/135/31 8/7/7 7/8/8
f 133/133/33 134/134/32 7/8/8 6/6/6
f 132/132/27 133/133/33 6/6/6 5/5/5
f 115/115/34 116/116/35 18/18/36 19/19/37
f 19/19/37 20/20/38 122/122/39 115/115/34
f 20/20/38 21/21/40 121/121/41 122/122/39
f 21/21/40 22/143/42 120/120/43 121/121/41
f 119/119/44 120/142/43 22/22/42 23/23/45
f 118/118/46 119/119/44 23/23/45 24/24/47
f 117/117/48 118/118/46 24/24/47 25/25/49
f 116/116/35 117/117/48 25/25/49 18/18/36
f 99/99/50 100/100/51 26/26/52 27/27/53
f 27/27/53 28/28/54 106/106/55 99/99/50
f 28/28/54 29/29/56 105/105/57 106/106/55
f 29/29/56 30/147/58 104/104/59 105/105/57
f 103/103/60 104/146/59 30/30/58 31/31/61
f 102/102/62 103/103/60 31/31/61 32/32/63
f 101/101/64 102/102/62 32/32/63 33/33/65
f 100/100/51 101/101/64 33/33/65 26/26/52
f 11/10/10 42/42/66 13/13/16 12/12/14
f 17/162/25 42/42/66 11/10/10 10/163/13
f 42/42/66 15/15/20 14/14/18 13/13/16
f 17/162/25 16/16/23 15/15/20 42/42/66
f 19/19/37 18/18/36 123/123/67 124/124/68
f 18/18/36 25/25/49 130/130/69 123/123/67
f 25/25/49 24/24/47 129/129/70 130/130/69
f 24/24/47 23/23/45 128/128/71 129/129/70
f 23/23/45 22/22/42 127/127/72 128/128/71
f 126/126/73 127/140/72 22/143/42 21/21/40
f 125/125/74 126/126/73 21/21/40 20/20/38
f 124/124/68 125/125/74 20/20/38 19/19/37
f 27/27/53 26/26/52 107/107/75 108/108/76
f 26/26/52 33/33/65 114/114/77 107/107/75
f 33/33/65 32/32/63 113/113/78 114/114/77
f 32/32/63 31/31/61 112/112/79 113/113/78
f 31/31/61 30/30/58 111/111/80 112/112/79
f 110/110/81 111/144/80 30/147/58 29/29/56
f 109/109/82 110/110/81 29/29/56 28/28/54
f 108/108/76 109/109/82 28/28/54 27/27/53
f 35/35/83 34/34/84 91/91/85 92/92/86
f 34/34/84 41/41/87 98/98/88 91/91/85
f 41/41/87 40/40/89 97/97/90 98/98/88
f 40/40/89 39/39/91 96/96/92 97/97/90
f 39/39/91 38/38/93 95/95/94 96/96/92
f 94/94/95 95/148/94 38/153/93 37/37/96
f 93/93/97 94/94/95 37/37/96 36/36/98
f 92/92/86 93/93/97 36/36/98 35/35/83
f 75/75/99 76/76/100 34/34/84 35/35/83
f 35/35/83 36/36/98 82/82/101 75/75/99
f 36/36/98 37/37/96 81/81/102 82/82/101
f 37/37/96 38/153/93 80/80/103 81/81/102
f 79/79/104 80/152/103 38/38/93 39/39/91
f 78/78/105 79/79/104 39/39/91 40/40/89
f 77/77/106 78/78/105 40/40/89 41/41/87
f 76/76/100 77/77/106 41/41/87 34/34/84
f 68/68/107 67/67/108 76/76/100 75/75/99
f 67/67/108 74/74/109 77/77/106 76/76/100
f 74/74/109 73/73/110 78/78/105 77/77/106
f 73/73/110 72/72/111 79/79/104 78/78/105
f 72/72/111 71/71/112 80/152/103 79/79/104
f 81/81/102 80/80/103 71/151/112 70/70/113
f 82/82/101 81/81/102 70/70/113 69/69/114
f 75/75/99 82/82/101 69/69/114 68/68/107
f 84/84/12 83/83/11 67/67/108 68/68/107
f 68/68/107 69/69/114 85/85/24 84/84/12
f 69/69/114 70/70/113 86/86/22 85/85/24
f 70/70/113 71/151/112 87/150/21 86/86/22
f 88/88/19 87/87/21 71/71/112 72/72/111
f 89/89/17 88/88/19 72/72/111 73/73/110
f 90/90/15 89/89/17 73/73/110 74/74/109
f 83/83/11 90/90/15 74/74/109 67/67/108
f 92/92/86 91/91/85 60/60/115 59/59/116
f 59/59/116 66/66/117 93/93/97 92/92/86
f 66/66/117 65/65/118 94/94/95 93/93/97
f 65/65/118 64/149/119 95/148/94 94/94/95
f 96/96/92 95/95/94 64/64/119 63/63/120
f 97/97/90 96/96/92 63/63/120 62/62/121
f 98/98/88 97/97/90 62/62/121 61/61/122
f 91/91/85 98/98/88 61/61/122 60/60/115
f 59/59/116 60/60/115 100/100/51 99/99/50
f 60/60/115 61/61/122 101/101/64 100/100/51
f 61/61/122 62/62/121 102/102/62 101/101/64
f 62/62/121 63/63/120 103/103/60 102/102/62
f 63/63/120 64/64/119 104/146/59 103/103/60
f 105/105/57 104/104/59 64/149/119 65/65/118
f 106/106/55 105/105/57 65/65/118 66/66/117
f 99/99/50 106/106/55 66/66/117 59/59/116
f 108/108/76 107/107/75 52/52/123 51/51/124
f 51/51/124 58/58/125 109/109/82 108/108/76
f 58/58/125 57/57/126 110/110/81 109/109/82
f 57/57/126 56/145/127 111/144/80 110/110/81
f 112/112/79 111/111/80 56/56/127 55/55/128
f 113/113/78 112/112/79 55/55/128 54/54/129
f 114/114/77 113/113/78 54/54/129 53/53/130
f 107/107/75 114/114/77 53/53/130 52/52/123
f 51/51/124 52/52/123 116/116/35 115/115/34
f 52/52/123 53/53/130 117/117/48 116/116/35
f 53/53/130 54/54/129 118/118/46 117/117/48
f 54/54/129 55/55/128 119/119/44 118/118/46
f 55/55/128 56/56/127 120/142/43 119/119/44
f 121/121/41 120/120/43 56/145/127 57/57/126
f 122/122/39 121/121/41 57/57/126 58/58/125
f 115/115/34 122/122/39 58/58/125 51/51/124
f 124/124/68 123/123/67 44/44/131 43/43/132
f 43/43/132 50/50/133 125/125/74 124/124/68
f 50/50/133 49/49/134 126/126/73 125/125/74
f 49/49/134 48/141/135 127/140/72 126/126/73
f 128/128/71 127/127/72 48/48/135 47/47/136
f 129/129/70 128/128/71 47/47/136 46/46/137
f 130/130/69 129/129/70 46/46/137 45/45/138
f 123/123/67 130/130/69 45/45/138 44/44/131
f 43/43/132 44/44/131 132/132/27 131/131/26
f 44/44/131 45/45/138 133/133/33 132/132/27
f 45/45/138 46/46/137 134/134/32 133/133/33
f 46/46/137 47/47/136 135/135/31 134/134/32
f 47/47/136 48/48/135 136/139/30 135/135/31
f 137/137/29 136/136/30 48/141/135 49/49/134
f 138/138/28 137/137/29 49/49/134 50/50/133
f 131/131/26 138/138/28 50/50/133 43/43/132
