# This file uses centimeters as units for non-parametric coordinates.

mtllib Sign_Arrow.mtl
g default
v 0.734602 -0.264724 -0.101475
v 0.662310 0.276049 -0.095291
v 1.119766 0.000567 -0.054636
v 1.109300 -0.033505 -0.053238
v -0.514888 -0.224429 -0.075702
v -0.535328 0.240949 -0.074558
v 0.665453 0.273504 0.060975
v 0.730221 -0.276049 0.065609
v 1.119836 -0.033202 0.074509
v 1.129752 -0.003951 0.072185
v -0.537784 0.231777 0.081506
v -0.533173 -0.219634 0.081196
v 0.330873 0.261126 -0.084232
v 0.368588 -0.242156 -0.091203
v 0.386393 -0.243464 0.067735
v 0.332209 0.258137 0.061082
v -0.229732 0.238629 -0.070549
v -0.212447 -0.231541 -0.064984
v -0.200303 -0.233917 0.087242
v -0.231342 0.233534 0.069042
v 0.066587 -0.244502 -0.072005
v -0.028796 0.244061 -0.083236
v -0.029334 0.245706 0.062431
v 0.076434 -0.229955 0.073570
v 0.945259 0.150009 -0.057987
v 0.947433 -0.141475 -0.072088
v 0.959722 -0.148890 0.077142
v 0.938926 0.137908 0.068322
v 0.017884 0.091951 0.076410
v -0.040028 0.093940 0.080751
v 0.010134 -0.105131 0.090019
v 0.068992 -0.074034 0.084919
v 0.115171 -0.109382 0.085934
v 0.051753 0.139941 0.077173
v -0.207411 -0.098306 0.095175
v 0.014286 -0.169554 0.089817
v -0.219780 0.081459 0.088185
v -0.060149 0.150318 0.082185
v 0.342085 0.107226 0.068661
v 0.021724 0.195965 0.076856
v 0.359769 -0.106669 0.074617
v 0.110796 -0.171141 0.087014
v 0.061660 -0.193003 0.087358
v -0.037224 0.190772 0.079481
v -0.530236 -0.100111 0.077654
v -0.543588 -0.087581 -0.067776
v -0.223686 -0.094256 -0.081515
v -0.232192 0.095358 -0.088029
v -0.541805 0.090181 -0.071420
v -0.534388 0.076332 0.080243
v 0.056377 -0.104560 -0.087603
v 0.023434 0.093135 -0.095486
v 0.533648 -0.115909 -0.105399
v 0.340805 -0.114425 -0.102731
v 0.325990 0.093168 -0.105695
v 0.511486 0.096588 -0.106861
v 0.543424 -0.105231 0.074641
v 0.533148 0.099913 0.068670
v 0.107808 -0.166741 0.103827
v 0.111678 -0.112229 0.101808
v 0.057863 -0.187282 0.106861
v 0.018148 -0.167514 0.102490
v 0.013129 -0.109297 0.102588
v 0.069908 -0.078090 0.100769
v -0.033905 0.187963 0.091164
v -0.053799 0.150994 0.096324
v 0.019370 0.196409 0.090360
v 0.048071 0.143918 0.093929
v -0.037197 0.099354 0.096192
v 0.015710 0.096210 0.094283
vt 0.167115 0.295958
vt 0.269404 0.313508
vt 0.217376 0.032662
vt 0.215154 0.225219
vt 0.128655 0.231636
vt 0.143729 0.034764
vt 0.284328 0.298637
vt 0.239569 0.225430
vt 0.327087 0.234454
vt 0.289150 0.297077
vt 0.313808 0.032049
vt 0.241792 0.031932
vt 0.216960 0.172154
vt 0.135844 0.173756
vt 0.321420 0.179315
vt 0.240296 0.172369
vt 0.217974 0.081711
vt 0.141848 0.082475
vt 0.316266 0.084663
vt 0.240793 0.081262
vt 0.137992 0.126139
vt 0.216816 0.114340
vt 0.239970 0.114093
vt 0.318897 0.129031
vt 0.244598 0.278193
vt 0.327649 0.281951
vt 0.306753 0.271103
vt 0.261984 0.268198
vt 0.292411 0.128767
vt 0.265888 0.121258
vt 0.265128 0.111473
vt 0.297288 0.118717
vt 0.298615 0.136274
vt 0.257957 0.127056
vt 0.294637 0.084061
vt 0.308098 0.119070
vt 0.255580 0.108056
vt 0.265802 0.082625
vt 0.264689 0.173273
vt 0.248524 0.122262
vt 0.299272 0.175331
vt 0.309001 0.135015
vt 0.312522 0.126797
vt 0.248992 0.112216
vt 0.294652 0.032285
vt 0.165571 0.030560
vt 0.164007 0.081322
vt 0.194559 0.080894
vt 0.264446 0.008044
vt 0.266396 0.032362
vt 0.160541 0.125565
vt 0.192350 0.121693
vt 0.154379 0.201072
vt 0.156575 0.170535
vt 0.189857 0.169952
vt 0.188403 0.199469
vt 0.299503 0.204800
vt 0.266709 0.203746
vt 0.299666 0.134089
vt 0.307345 0.133240
vt 0.309806 0.126314
vt 0.307001 0.120783
vt 0.298601 0.120231
vt 0.294642 0.128559
vt 0.255691 0.110256
vt 0.250590 0.113276
vt 0.249961 0.120982
vt 0.257319 0.124637
vt 0.263077 0.112698
vt 0.263700 0.120102
vt 0.193677 0.031318
vt 0.240524 0.007088
vt 0.292408 0.008861
vt 0.287085 0.302740
vt 0.146169 0.266968
vt 0.353529 0.232780
vt 0.350034 0.248694
vt 0.192619 0.269608
vt 0.266344 0.308702
vt 0.342324 0.126872
vt 0.340380 0.081716
vt 0.314386 0.007198
vt 0.338979 0.033343
vt 0.346675 0.175009
vt 0.217033 0.236391
vt 0.161787 0.293956
vt 0.307510 0.307175
vn -0.472629 -0.046383 -0.880040
vn -0.028102 -0.049389 -0.998384
vn -0.029760 -0.780429 -0.624535
vn -0.263342 -0.722826 -0.638885
vn 0.185423 -0.333175 0.924453
vn 0.180817 0.370027 0.911255
vn 0.101656 0.599369 0.793992
vn 0.091156 -0.616165 0.782324
vn -0.328776 -0.713307 0.618950
vn -0.030551 -0.825611 0.563412
vn -0.014318 0.005741 0.999881
vn -0.440266 -0.021253 0.897616
vn -0.330926 0.644921 0.688887
vn -0.007820 0.761891 0.647658
vn -0.033146 0.724737 -0.688228
vn -0.337743 0.694970 -0.634781
vn 0.334935 0.417161 -0.844864
vn 0.157070 0.586001 -0.794941
vn 0.316586 -0.300902 -0.899573
vn 0.166088 -0.550941 -0.817850
vn 0.527856 0.500771 -0.686000
vn 0.470925 0.470466 0.746252
vn 0.370367 -0.415552 0.830750
vn 0.427448 -0.428419 -0.796081
vn 0.011741 -0.020019 -0.999731
vn -0.036622 -0.055525 -0.997786
vn -0.026998 0.039118 -0.998870
vn 0.010188 0.036843 -0.999269
vn -0.035191 -0.856865 0.514338
vn -0.061392 -0.815653 -0.575275
vn -0.045174 0.765449 -0.641909
vn -0.025971 0.824632 0.565073
vn -0.008623 -0.968656 0.248257
vn -0.039685 -0.802635 -0.595149
vn -0.049331 0.727912 -0.683894
vn -0.039083 0.970461 0.238071
vn 0.019065 0.098289 0.994975
vn 0.048128 0.000051 0.998841
vn 0.018541 0.041871 0.998951
vn 0.012369 0.031114 0.999439
vn 0.054321 0.028166 0.998126
vn 0.051207 0.038824 0.997933
vn -0.006159 -0.124639 0.992183
vn -0.033161 0.117307 0.992542
vn -0.005375 0.041328 0.999131
vn 0.021076 0.039797 0.998986
vn 0.036375 0.174820 0.983928
vn 0.024192 0.006333 0.999687
vn 0.069020 -0.120835 0.990270
vn 0.033522 -0.279401 0.959589
vn -0.024853 0.258841 0.965600
vn -0.436547 0.029004 0.899214
vn -0.470163 0.004990 -0.882565
vn -0.035039 0.009177 -0.999344
vn -0.039229 -0.067396 -0.996955
vn -0.031116 0.025199 -0.999198
vn 0.025534 -0.001044 0.999673
vn 0.025133 0.029698 0.999243
vn 0.254033 0.130452 0.958358
vn 0.252040 -0.138188 0.957799
vn -0.018937 -0.239982 0.970593
vn -0.247045 -0.125530 0.960839
vn -0.237985 0.168646 0.956516
vn 0.035144 0.303606 0.952149
vn -0.201337 0.044575 0.978507
vn -0.100710 0.295498 0.950020
vn 0.165393 0.345216 0.923835
vn 0.338091 0.033519 0.940516
vn -0.146017 -0.233922 0.961228
vn 0.164064 -0.269742 0.948853
s 1
g Sign_Arrow Sign
usemtl initialShadingGroup
f 46/46/1 47/47/2 18/18/3 5/6/4
f 27/27/5 28/28/6 7/8/7 8/9/8
f 12/11/9 19/19/10 35/35/11 45/45/12
f 11/12/13 20/20/14 17/17/15 6/3/16
f 28/28/6 25/25/17 2/85/18 7/8/7
f 26/26/19 27/27/5 8/9/8 1/77/20
f 3/79/21 10/7/22 9/74/23 4/2/24
f 18/81/3 19/19/10 12/11/9 5/83/4
f 45/45/12 46/73/1 5/82/4 12/11/9
f 53/53/25 54/54/26 55/55/27 56/56/28
f 8/9/8 15/15/29 14/84/30 1/76/20
f 13/13/31 16/16/32 7/8/7 2/4/18
f 14/84/30 15/15/29 24/24/33 21/80/34
f 22/22/35 23/23/36 16/16/32 13/13/31
f 17/17/15 20/20/14 23/23/36 22/22/35
f 21/80/34 24/24/33 19/19/10 18/81/3
f 26/75/19 25/78/17 3/1/21 4/86/24
f 9/10/23 27/27/5 26/26/19 4/87/24
f 10/7/22 28/28/6 27/27/5 9/10/23
f 3/79/21 25/25/17 28/28/6 10/7/22
f 32/29/37 29/30/38 30/31/39 31/32/40
f 29/30/38 32/29/37 33/33/41 34/34/42
f 31/32/40 35/35/11 19/19/10 36/36/43
f 38/37/44 20/20/14 37/38/45 30/31/39
f 37/38/45 35/35/11 31/32/40 30/31/39
f 34/34/42 39/39/46 16/16/32 40/40/47
f 41/41/48 39/39/46 34/34/42 33/33/41
f 41/41/48 33/33/41 42/42/49 15/15/29
f 36/36/43 19/19/10 24/24/33 43/43/50
f 15/15/29 42/42/49 43/43/50 24/24/33
f 40/40/47 16/16/32 23/23/36 44/44/51
f 38/37/44 44/44/51 23/23/36 20/20/14
f 50/50/52 37/38/45 20/20/14 11/12/13
f 6/72/16 49/49/53 50/50/52 11/12/13
f 6/3/16 17/17/15 48/48/54 49/71/53
f 49/71/53 48/48/54 47/47/2 46/46/1
f 50/50/52 49/49/53 46/73/1 45/45/12
f 45/45/12 35/35/11 37/38/45 50/50/52
f 47/47/2 51/51/55 21/21/34 18/18/3
f 48/48/54 52/52/56 51/51/55 47/47/2
f 17/17/15 22/22/35 52/52/56 48/48/54
f 14/14/30 54/54/26 53/53/25 1/5/20
f 56/56/28 55/55/27 13/13/31 2/4/18
f 53/53/25 56/56/28 2/4/18 1/5/20
f 25/78/17 26/75/19 1/5/20 2/4/18
f 54/54/26 51/51/55 52/52/56 55/55/27
f 55/55/27 52/52/56 22/22/35 13/13/31
f 14/14/30 21/21/34 51/51/55 54/54/26
f 39/39/46 41/41/48 57/57/57 58/58/58
f 39/39/46 58/58/58 7/8/7 16/16/32
f 57/57/57 41/41/48 15/15/29 8/9/8
f 58/58/58 57/57/57 8/9/8 7/8/7
f 60/59/59 59/60/60 42/42/49 33/33/41
f 43/43/50 42/42/49 59/60/60 61/61/61
f 61/61/61 62/62/62 36/36/43 43/43/50
f 62/62/62 63/63/63 31/32/40 36/36/43
f 63/63/63 64/64/64 32/29/37 31/32/40
f 64/64/64 60/59/59 33/33/41 32/29/37
f 60/59/59 64/64/64 63/63/63 59/60/60
f 62/62/62 61/61/61 59/60/60 63/63/63
f 66/65/65 65/66/66 44/44/51 38/37/44
f 65/66/66 67/67/67 40/40/47 44/44/51
f 67/67/67 68/68/68 34/34/42 40/40/47
f 69/69/69 66/65/65 38/37/44 30/31/39
f 70/70/70 69/69/69 30/31/39 29/30/38
f 68/68/68 70/70/70 29/30/38 34/34/42
f 69/69/69 70/70/70 68/68/68 66/65/65
f 67/67/67 65/66/66 66/65/65 68/68/68
